solid OpenSCAD_Model
  facet normal 0 0 -1
    outer loop
      vertex -13 0 0
      vertex -12.8975 1.62933 0
      vertex -12.8975 -1.62933 0
    endloop
  endfacet
  facet normal 0 0 -1
    outer loop
      vertex -12.8975 -1.62933 0
      vertex -12.8975 1.62933 0
      vertex -12.5916 3.23297 0
    endloop
  endfacet
  facet normal 0 0 -1
    outer loop
      vertex -12.8975 -1.62933 0
      vertex -12.5916 3.23297 0
      vertex -12.0871 4.78562 0
    endloop
  endfacet
  facet normal 0 0 -1
    outer loop
      vertex -12.8975 -1.62933 0
      vertex -12.0871 4.78562 0
      vertex -11.392 6.2628 0
    endloop
  endfacet
  facet normal 0 0 -1
    outer loop
      vertex -12.8975 -1.62933 0
      vertex -11.392 6.2628 0
      vertex -10.5172 7.64121 0
    endloop
  endfacet
  facet normal 0 0 -1
    outer loop
      vertex -10.5157 5.78104 0
      vertex -10.5172 7.64121 0
      vertex -9.47659 8.89911 0
    endloop
  endfacet
  facet normal 0 0 -1
    outer loop
      vertex -9.7082 7.05342 0
      vertex -9.47659 8.89911 0
      vertex -8.28651 10.0167 0
    endloop
  endfacet
  facet normal 0 0 -1
    outer loop
      vertex -8.74762 8.21457 0
      vertex -8.28651 10.0167 0
      vertex -6.96575 10.9763 0
    endloop
  endfacet
  facet normal 0 0 -1
    outer loop
      vertex -7.64909 9.24616 0
      vertex -6.96575 10.9763 0
      vertex -5.53513 11.7628 0
    endloop
  endfacet
  facet normal 0 0 -1
    outer loop
      vertex -5.10935 10.8579 0
      vertex -5.53513 11.7628 0
      vertex -4.01722 12.3637 0
    endloop
  endfacet
  facet normal 0 0 -1
    outer loop
      vertex -3.7082 11.4127 0
      vertex -4.01722 12.3637 0
      vertex -2.43596 12.7697 0
    endloop
  endfacet
  facet normal 0 0 -1
    outer loop
      vertex -2.24858 11.7874 0
      vertex -2.43596 12.7697 0
      vertex -0.816277 12.9743 0
    endloop
  endfacet
  facet normal 0 0 -1
    outer loop
      vertex -0.753486 11.9763 0
      vertex -0.816277 12.9743 0
      vertex 0.816277 12.9743 0
    endloop
  endfacet
  facet normal 0 0 -1
    outer loop
      vertex 0.753486 11.9763 0
      vertex 0.816277 12.9743 0
      vertex 2.43596 12.7697 0
    endloop
  endfacet
  facet normal 0 0 -1
    outer loop
      vertex 2.24858 11.7874 0
      vertex 2.43596 12.7697 0
      vertex 4.01722 12.3637 0
    endloop
  endfacet
  facet normal 0 0 -1
    outer loop
      vertex 3.7082 11.4127 0
      vertex 4.01722 12.3637 0
      vertex 5.53513 11.7628 0
    endloop
  endfacet
  facet normal 0 0 -1
    outer loop
      vertex 5.10935 10.8579 0
      vertex 5.53513 11.7628 0
      vertex 6.96575 10.9763 0
    endloop
  endfacet
  facet normal 0 0 -1
    outer loop
      vertex 6.42992 10.1319 0
      vertex 6.96575 10.9763 0
      vertex 8.28651 10.0167 0
    endloop
  endfacet
  facet normal 0 0 -1
    outer loop
      vertex 7.64909 9.24616 0
      vertex 8.28651 10.0167 0
      vertex 9.47659 8.89911 0
    endloop
  endfacet
  facet normal 0 0 -1
    outer loop
      vertex 8.74762 8.21457 0
      vertex 9.47659 8.89911 0
      vertex 10.5172 7.64121 0
    endloop
  endfacet
  facet normal 0 0 -1
    outer loop
      vertex 9.7082 7.05342 0
      vertex 10.5172 7.64121 0
      vertex 11.392 6.2628 0
    endloop
  endfacet
  facet normal 0 0 -1
    outer loop
      vertex 10.5157 5.78104 0
      vertex 11.392 6.2628 0
      vertex 12.0871 4.78562 0
    endloop
  endfacet
  facet normal 0 0 -1
    outer loop
      vertex 11.1573 4.41749 0
      vertex 12.0871 4.78562 0
      vertex 12.5916 3.23297 0
    endloop
  endfacet
  facet normal 0 0 -1
    outer loop
      vertex 11.9054 1.504 0
      vertex 12.5916 3.23297 0
      vertex 12.8975 1.62933 0
    endloop
  endfacet
  facet normal 0 0 -1
    outer loop
      vertex 12 0 0
      vertex 12.8975 1.62933 0
      vertex 13 0 0
    endloop
  endfacet
  facet normal 0 0 -1
    outer loop
      vertex 11.9054 -1.504 0
      vertex 13 0 0
      vertex 12.8975 -1.62933 0
    endloop
  endfacet
  facet normal 0 0 -1
    outer loop
      vertex 11.623 -2.98428 0
      vertex 12.8975 -1.62933 0
      vertex 12.5916 -3.23297 0
    endloop
  endfacet
  facet normal 0 0 -1
    outer loop
      vertex 11.1573 -4.41749 0
      vertex 12.5916 -3.23297 0
      vertex 12.0871 -4.78562 0
    endloop
  endfacet
  facet normal 0 0 -1
    outer loop
      vertex 10.5157 -5.78104 0
      vertex 12.0871 -4.78562 0
      vertex 11.392 -6.2628 0
    endloop
  endfacet
  facet normal 0 0 -1
    outer loop
      vertex 9.7082 -7.05342 0
      vertex 11.392 -6.2628 0
      vertex 10.5172 -7.64121 0
    endloop
  endfacet
  facet normal 0 0 -1
    outer loop
      vertex 8.74762 -8.21457 0
      vertex 10.5172 -7.64121 0
      vertex 9.47659 -8.89911 0
    endloop
  endfacet
  facet normal 0 0 -1
    outer loop
      vertex 7.64909 -9.24616 0
      vertex 9.47659 -8.89911 0
      vertex 8.28651 -10.0167 0
    endloop
  endfacet
  facet normal 0 0 -1
    outer loop
      vertex 6.42992 -10.1319 0
      vertex 8.28651 -10.0167 0
      vertex 6.96575 -10.9763 0
    endloop
  endfacet
  facet normal 0 0 -1
    outer loop
      vertex 5.10935 -10.8579 0
      vertex 6.96575 -10.9763 0
      vertex 5.53513 -11.7628 0
    endloop
  endfacet
  facet normal 0 0 -1
    outer loop
      vertex 3.7082 -11.4127 0
      vertex 5.53513 -11.7628 0
      vertex 4.01722 -12.3637 0
    endloop
  endfacet
  facet normal 0 0 -1
    outer loop
      vertex 2.24858 -11.7874 0
      vertex 4.01722 -12.3637 0
      vertex 2.43596 -12.7697 0
    endloop
  endfacet
  facet normal 0 0 -1
    outer loop
      vertex 0.753486 -11.9763 0
      vertex 2.43596 -12.7697 0
      vertex 0.816277 -12.9743 0
    endloop
  endfacet
  facet normal 0 0 -1
    outer loop
      vertex -0.753486 -11.9763 0
      vertex 0.816277 -12.9743 0
      vertex -0.816277 -12.9743 0
    endloop
  endfacet
  facet normal 0 0 -1
    outer loop
      vertex -3.7082 -11.4127 0
      vertex -0.816277 -12.9743 0
      vertex -2.43596 -12.7697 0
    endloop
  endfacet
  facet normal 0 0 -1
    outer loop
      vertex -5.10935 -10.8579 0
      vertex -2.43596 -12.7697 0
      vertex -4.01722 -12.3637 0
    endloop
  endfacet
  facet normal 0 0 -1
    outer loop
      vertex -6.42992 -10.1319 0
      vertex -4.01722 -12.3637 0
      vertex -5.53513 -11.7628 0
    endloop
  endfacet
  facet normal 0 0 -1
    outer loop
      vertex -7.64909 -9.24616 0
      vertex -5.53513 -11.7628 0
      vertex -6.96575 -10.9763 0
    endloop
  endfacet
  facet normal 0 0 -1
    outer loop
      vertex -9.7082 -7.05342 0
      vertex -6.96575 -10.9763 0
      vertex -8.28651 -10.0167 0
    endloop
  endfacet
  facet normal 0 0 -1
    outer loop
      vertex -12.8975 -1.62933 0
      vertex -8.28651 -10.0167 0
      vertex -9.47659 -8.89911 0
    endloop
  endfacet
  facet normal 0 0 -1
    outer loop
      vertex -12.8975 -1.62933 0
      vertex -9.47659 -8.89911 0
      vertex -10.5172 -7.64121 0
    endloop
  endfacet
  facet normal 0 0 -1
    outer loop
      vertex -12.8975 -1.62933 0
      vertex -10.5172 -7.64121 0
      vertex -11.392 -6.2628 0
    endloop
  endfacet
  facet normal 0 0 -1
    outer loop
      vertex -12.8975 -1.62933 0
      vertex -11.392 -6.2628 0
      vertex -12.0871 -4.78562 0
    endloop
  endfacet
  facet normal 0 0 -1
    outer loop
      vertex -12.8975 -1.62933 0
      vertex -12.0871 -4.78562 0
      vertex -12.5916 -3.23297 0
    endloop
  endfacet
  facet normal 0 0 -1
    outer loop
      vertex -11.9054 -1.504 0
      vertex -12.8975 -1.62933 0
      vertex -12 0 0
    endloop
  endfacet
  facet normal 0 0 -1
    outer loop
      vertex -11.623 -2.98428 0
      vertex -12.8975 -1.62933 0
      vertex -11.9054 -1.504 0
    endloop
  endfacet
  facet normal 0 0 -1
    outer loop
      vertex -11.1573 -4.41749 0
      vertex -12.8975 -1.62933 0
      vertex -11.623 -2.98428 0
    endloop
  endfacet
  facet normal 0 0 -1
    outer loop
      vertex -9.7082 -7.05342 0
      vertex -8.28651 -10.0167 0
      vertex -10.5157 -5.78104 0
    endloop
  endfacet
  facet normal 0 0 -1
    outer loop
      vertex -12.8975 -1.62933 0
      vertex -11.1573 -4.41749 0
      vertex -10.5157 -5.78104 0
    endloop
  endfacet
  facet normal 0 0 -1
    outer loop
      vertex -12.8975 -1.62933 0
      vertex -10.5157 -5.78104 0
      vertex -8.28651 -10.0167 0
    endloop
  endfacet
  facet normal 0 0 -1
    outer loop
      vertex -8.74762 -8.21457 0
      vertex -6.96575 -10.9763 0
      vertex -9.7082 -7.05342 0
    endloop
  endfacet
  facet normal 0 0 -1
    outer loop
      vertex -7.64909 -9.24616 0
      vertex -6.96575 -10.9763 0
      vertex -8.74762 -8.21457 0
    endloop
  endfacet
  facet normal 0 0 -1
    outer loop
      vertex -2.24858 -11.7874 0
      vertex -0.816277 -12.9743 0
      vertex -3.7082 -11.4127 0
    endloop
  endfacet
  facet normal 0 0 -1
    outer loop
      vertex -0.753486 -11.9763 0
      vertex -0.816277 -12.9743 0
      vertex -2.24858 -11.7874 0
    endloop
  endfacet
  facet normal 0 0 -1
    outer loop
      vertex -3.7082 -11.4127 0
      vertex -2.43596 -12.7697 0
      vertex -5.10935 -10.8579 0
    endloop
  endfacet
  facet normal 0 0 -1
    outer loop
      vertex -5.10935 -10.8579 0
      vertex -4.01722 -12.3637 0
      vertex -6.42992 -10.1319 0
    endloop
  endfacet
  facet normal 0 0 -1
    outer loop
      vertex -6.42992 -10.1319 0
      vertex -5.53513 -11.7628 0
      vertex -7.64909 -9.24616 0
    endloop
  endfacet
  facet normal 0 0 -1
    outer loop
      vertex 11.9054 1.504 0
      vertex 12.8975 1.62933 0
      vertex 12 0 0
    endloop
  endfacet
  facet normal 0 0 -1
    outer loop
      vertex 11.623 2.98428 0
      vertex 12.5916 3.23297 0
      vertex 11.9054 1.504 0
    endloop
  endfacet
  facet normal 0 0 -1
    outer loop
      vertex 12 0 0
      vertex 13 0 0
      vertex 11.9054 -1.504 0
    endloop
  endfacet
  facet normal 0 0 -1
    outer loop
      vertex 11.9054 -1.504 0
      vertex 12.8975 -1.62933 0
      vertex 11.623 -2.98428 0
    endloop
  endfacet
  facet normal 0 0 -1
    outer loop
      vertex 11.623 -2.98428 0
      vertex 12.5916 -3.23297 0
      vertex 11.1573 -4.41749 0
    endloop
  endfacet
  facet normal 0 0 -1
    outer loop
      vertex 11.1573 -4.41749 0
      vertex 12.0871 -4.78562 0
      vertex 10.5157 -5.78104 0
    endloop
  endfacet
  facet normal 0 0 -1
    outer loop
      vertex 10.5157 -5.78104 0
      vertex 11.392 -6.2628 0
      vertex 9.7082 -7.05342 0
    endloop
  endfacet
  facet normal 0 0 -1
    outer loop
      vertex 9.7082 -7.05342 0
      vertex 10.5172 -7.64121 0
      vertex 8.74762 -8.21457 0
    endloop
  endfacet
  facet normal 0 0 -1
    outer loop
      vertex 8.74762 -8.21457 0
      vertex 9.47659 -8.89911 0
      vertex 7.64909 -9.24616 0
    endloop
  endfacet
  facet normal 0 0 -1
    outer loop
      vertex 7.64909 -9.24616 0
      vertex 8.28651 -10.0167 0
      vertex 6.42992 -10.1319 0
    endloop
  endfacet
  facet normal 0 0 -1
    outer loop
      vertex 6.42992 -10.1319 0
      vertex 6.96575 -10.9763 0
      vertex 5.10935 -10.8579 0
    endloop
  endfacet
  facet normal 0 0 -1
    outer loop
      vertex 5.10935 -10.8579 0
      vertex 5.53513 -11.7628 0
      vertex 3.7082 -11.4127 0
    endloop
  endfacet
  facet normal 0 0 -1
    outer loop
      vertex 3.7082 -11.4127 0
      vertex 4.01722 -12.3637 0
      vertex 2.24858 -11.7874 0
    endloop
  endfacet
  facet normal 0 0 -1
    outer loop
      vertex 2.24858 -11.7874 0
      vertex 2.43596 -12.7697 0
      vertex 0.753486 -11.9763 0
    endloop
  endfacet
  facet normal 0 0 -1
    outer loop
      vertex 0.753486 -11.9763 0
      vertex 0.816277 -12.9743 0
      vertex -0.753486 -11.9763 0
    endloop
  endfacet
  facet normal 0 0 -1
    outer loop
      vertex -6.42992 10.1319 0
      vertex -5.53513 11.7628 0
      vertex -5.10935 10.8579 0
    endloop
  endfacet
  facet normal 0 0 -1
    outer loop
      vertex -7.64909 9.24616 0
      vertex -5.53513 11.7628 0
      vertex -6.42992 10.1319 0
    endloop
  endfacet
  facet normal 0 0 -1
    outer loop
      vertex -5.10935 10.8579 0
      vertex -4.01722 12.3637 0
      vertex -3.7082 11.4127 0
    endloop
  endfacet
  facet normal 0 0 -1
    outer loop
      vertex -3.7082 11.4127 0
      vertex -2.43596 12.7697 0
      vertex -2.24858 11.7874 0
    endloop
  endfacet
  facet normal 0 0 -1
    outer loop
      vertex -2.24858 11.7874 0
      vertex -0.816277 12.9743 0
      vertex -0.753486 11.9763 0
    endloop
  endfacet
  facet normal 0 0 -1
    outer loop
      vertex -11.1573 4.41749 0
      vertex -10.5172 7.64121 0
      vertex -10.5157 5.78104 0
    endloop
  endfacet
  facet normal 0 0 -1
    outer loop
      vertex -11.623 2.98428 0
      vertex -10.5172 7.64121 0
      vertex -11.1573 4.41749 0
    endloop
  endfacet
  facet normal 0 0 -1
    outer loop
      vertex -12.8975 -1.62933 0
      vertex -10.5172 7.64121 0
      vertex -11.623 2.98428 0
    endloop
  endfacet
  facet normal 0 0 -1
    outer loop
      vertex -0.753486 11.9763 0
      vertex 0.816277 12.9743 0
      vertex 0.753486 11.9763 0
    endloop
  endfacet
  facet normal 0 0 -1
    outer loop
      vertex -12 0 0
      vertex -12.8975 -1.62933 0
      vertex -11.9054 1.504 0
    endloop
  endfacet
  facet normal 0 0 -1
    outer loop
      vertex -11.9054 1.504 0
      vertex -12.8975 -1.62933 0
      vertex -11.623 2.98428 0
    endloop
  endfacet
  facet normal 0 0 -1
    outer loop
      vertex -10.5157 5.78104 0
      vertex -9.47659 8.89911 0
      vertex -9.7082 7.05342 0
    endloop
  endfacet
  facet normal 0 0 -1
    outer loop
      vertex -9.7082 7.05342 0
      vertex -8.28651 10.0167 0
      vertex -8.74762 8.21457 0
    endloop
  endfacet
  facet normal 0 0 -1
    outer loop
      vertex -8.74762 8.21457 0
      vertex -6.96575 10.9763 0
      vertex -7.64909 9.24616 0
    endloop
  endfacet
  facet normal 0 0 -1
    outer loop
      vertex 0.753486 11.9763 0
      vertex 2.43596 12.7697 0
      vertex 2.24858 11.7874 0
    endloop
  endfacet
  facet normal 0 0 -1
    outer loop
      vertex 2.24858 11.7874 0
      vertex 4.01722 12.3637 0
      vertex 3.7082 11.4127 0
    endloop
  endfacet
  facet normal 0 0 -1
    outer loop
      vertex 3.7082 11.4127 0
      vertex 5.53513 11.7628 0
      vertex 5.10935 10.8579 0
    endloop
  endfacet
  facet normal 0 0 -1
    outer loop
      vertex 5.10935 10.8579 0
      vertex 6.96575 10.9763 0
      vertex 6.42992 10.1319 0
    endloop
  endfacet
  facet normal 0 0 -1
    outer loop
      vertex 6.42992 10.1319 0
      vertex 8.28651 10.0167 0
      vertex 7.64909 9.24616 0
    endloop
  endfacet
  facet normal 0 0 -1
    outer loop
      vertex 7.64909 9.24616 0
      vertex 9.47659 8.89911 0
      vertex 8.74762 8.21457 0
    endloop
  endfacet
  facet normal 0 0 -1
    outer loop
      vertex 8.74762 8.21457 0
      vertex 10.5172 7.64121 0
      vertex 9.7082 7.05342 0
    endloop
  endfacet
  facet normal 0 0 -1
    outer loop
      vertex 9.7082 7.05342 0
      vertex 11.392 6.2628 0
      vertex 10.5157 5.78104 0
    endloop
  endfacet
  facet normal 0 0 -1
    outer loop
      vertex 10.5157 5.78104 0
      vertex 12.0871 4.78562 0
      vertex 11.1573 4.41749 0
    endloop
  endfacet
  facet normal 0 0 -1
    outer loop
      vertex 11.1573 4.41749 0
      vertex 12.5916 3.23297 0
      vertex 11.623 2.98428 0
    endloop
  endfacet
  facet normal -0.998027 0.0627906 0
    outer loop
      vertex -13 0 0
      vertex -13 0 20
      vertex -12.8975 1.62933 0
    endloop
  endfacet
  facet normal -0.998027 0.0627906 0
    outer loop
      vertex -12.8975 1.62933 0
      vertex -13 0 20
      vertex -12.8975 1.62933 20
    endloop
  endfacet
  facet normal -0.998027 -0.0627906 0
    outer loop
      vertex -13 0 0
      vertex -12.8975 -1.62933 0
      vertex -13 0 20
    endloop
  endfacet
  facet normal -0.998027 -0.0627906 0
    outer loop
      vertex -13 0 20
      vertex -12.8975 -1.62933 0
      vertex -12.8975 -1.62933 20
    endloop
  endfacet
  facet normal -0.982287 -0.187381 0
    outer loop
      vertex -12.8975 -1.62933 0
      vertex -12.5916 -3.23297 0
      vertex -12.8975 -1.62933 20
    endloop
  endfacet
  facet normal -0.982287 -0.187381 0
    outer loop
      vertex -12.8975 -1.62933 20
      vertex -12.5916 -3.23297 0
      vertex -12.5916 -3.23297 20
    endloop
  endfacet
  facet normal -0.951056 -0.309017 0
    outer loop
      vertex -12.5916 -3.23297 0
      vertex -12.0871 -4.78562 0
      vertex -12.5916 -3.23297 20
    endloop
  endfacet
  facet normal -0.951056 -0.309017 0
    outer loop
      vertex -12.5916 -3.23297 20
      vertex -12.0871 -4.78562 0
      vertex -12.0871 -4.78562 20
    endloop
  endfacet
  facet normal -0.904827 -0.425779 0
    outer loop
      vertex -12.0871 -4.78562 0
      vertex -11.392 -6.2628 0
      vertex -12.0871 -4.78562 20
    endloop
  endfacet
  facet normal -0.904827 -0.425779 0
    outer loop
      vertex -12.0871 -4.78562 20
      vertex -11.392 -6.2628 0
      vertex -11.392 -6.2628 20
    endloop
  endfacet
  facet normal -0.844328 -0.535827 0
    outer loop
      vertex -11.392 -6.2628 0
      vertex -10.5172 -7.64121 0
      vertex -11.392 -6.2628 20
    endloop
  endfacet
  facet normal -0.844328 -0.535827 0
    outer loop
      vertex -11.392 -6.2628 20
      vertex -10.5172 -7.64121 0
      vertex -10.5172 -7.64121 20
    endloop
  endfacet
  facet normal -0.770513 -0.637424 0
    outer loop
      vertex -10.5172 -7.64121 0
      vertex -9.47659 -8.89911 0
      vertex -10.5172 -7.64121 20
    endloop
  endfacet
  facet normal -0.770513 -0.637424 0
    outer loop
      vertex -10.5172 -7.64121 20
      vertex -9.47659 -8.89911 0
      vertex -9.47659 -8.89911 20
    endloop
  endfacet
  facet normal -0.684547 -0.728968 0
    outer loop
      vertex -9.47659 -8.89911 20
      vertex -9.47659 -8.89911 0
      vertex -8.28651 -10.0167 0
    endloop
  endfacet
  facet normal -0.684547 -0.728968 0
    outer loop
      vertex -8.28651 -10.0167 20
      vertex -9.47659 -8.89911 20
      vertex -8.28651 -10.0167 0
    endloop
  endfacet
  facet normal -0.587785 -0.809017 0
    outer loop
      vertex -8.28651 -10.0167 20
      vertex -8.28651 -10.0167 0
      vertex -6.96575 -10.9763 0
    endloop
  endfacet
  facet normal -0.587785 -0.809017 0
    outer loop
      vertex -6.96575 -10.9763 20
      vertex -8.28651 -10.0167 20
      vertex -6.96575 -10.9763 0
    endloop
  endfacet
  facet normal -0.481754 -0.876307 0
    outer loop
      vertex -6.96575 -10.9763 20
      vertex -6.96575 -10.9763 0
      vertex -5.53513 -11.7628 0
    endloop
  endfacet
  facet normal -0.481754 -0.876307 0
    outer loop
      vertex -5.53513 -11.7628 20
      vertex -6.96575 -10.9763 20
      vertex -5.53513 -11.7628 0
    endloop
  endfacet
  facet normal -0.368125 -0.929777 0
    outer loop
      vertex -5.53513 -11.7628 20
      vertex -5.53513 -11.7628 0
      vertex -4.01722 -12.3637 0
    endloop
  endfacet
  facet normal -0.368125 -0.929777 0
    outer loop
      vertex -4.01722 -12.3637 20
      vertex -5.53513 -11.7628 20
      vertex -4.01722 -12.3637 0
    endloop
  endfacet
  facet normal -0.24869 -0.968583 0
    outer loop
      vertex -4.01722 -12.3637 20
      vertex -4.01722 -12.3637 0
      vertex -2.43596 -12.7697 0
    endloop
  endfacet
  facet normal -0.24869 -0.968583 0
    outer loop
      vertex -2.43596 -12.7697 20
      vertex -4.01722 -12.3637 20
      vertex -2.43596 -12.7697 0
    endloop
  endfacet
  facet normal -0.125333 -0.992115 0
    outer loop
      vertex -2.43596 -12.7697 20
      vertex -2.43596 -12.7697 0
      vertex -0.816277 -12.9743 0
    endloop
  endfacet
  facet normal -0.125333 -0.992115 0
    outer loop
      vertex -0.816277 -12.9743 20
      vertex -2.43596 -12.7697 20
      vertex -0.816277 -12.9743 0
    endloop
  endfacet
  facet normal 0 -1 0
    outer loop
      vertex -0.816277 -12.9743 20
      vertex -0.816277 -12.9743 0
      vertex 0.816277 -12.9743 0
    endloop
  endfacet
  facet normal 0 -1 0
    outer loop
      vertex 0.816277 -12.9743 20
      vertex -0.816277 -12.9743 20
      vertex 0.816277 -12.9743 0
    endloop
  endfacet
  facet normal 0.125333 -0.992115 0
    outer loop
      vertex 0.816277 -12.9743 20
      vertex 0.816277 -12.9743 0
      vertex 2.43596 -12.7697 0
    endloop
  endfacet
  facet normal 0.125333 -0.992115 0
    outer loop
      vertex 2.43596 -12.7697 20
      vertex 0.816277 -12.9743 20
      vertex 2.43596 -12.7697 0
    endloop
  endfacet
  facet normal 0.24869 -0.968583 0
    outer loop
      vertex 2.43596 -12.7697 20
      vertex 2.43596 -12.7697 0
      vertex 4.01722 -12.3637 0
    endloop
  endfacet
  facet normal 0.24869 -0.968583 0
    outer loop
      vertex 4.01722 -12.3637 20
      vertex 2.43596 -12.7697 20
      vertex 4.01722 -12.3637 0
    endloop
  endfacet
  facet normal 0.368125 -0.929777 0
    outer loop
      vertex 4.01722 -12.3637 20
      vertex 4.01722 -12.3637 0
      vertex 5.53513 -11.7628 0
    endloop
  endfacet
  facet normal 0.368125 -0.929777 0
    outer loop
      vertex 5.53513 -11.7628 20
      vertex 4.01722 -12.3637 20
      vertex 5.53513 -11.7628 0
    endloop
  endfacet
  facet normal 0.481754 -0.876307 0
    outer loop
      vertex 5.53513 -11.7628 20
      vertex 5.53513 -11.7628 0
      vertex 6.96575 -10.9763 0
    endloop
  endfacet
  facet normal 0.481754 -0.876307 0
    outer loop
      vertex 6.96575 -10.9763 20
      vertex 5.53513 -11.7628 20
      vertex 6.96575 -10.9763 0
    endloop
  endfacet
  facet normal 0.587785 -0.809017 0
    outer loop
      vertex 6.96575 -10.9763 20
      vertex 6.96575 -10.9763 0
      vertex 8.28651 -10.0167 0
    endloop
  endfacet
  facet normal 0.587785 -0.809017 0
    outer loop
      vertex 8.28651 -10.0167 20
      vertex 6.96575 -10.9763 20
      vertex 8.28651 -10.0167 0
    endloop
  endfacet
  facet normal 0.684547 -0.728968 0
    outer loop
      vertex 8.28651 -10.0167 20
      vertex 8.28651 -10.0167 0
      vertex 9.47659 -8.89911 0
    endloop
  endfacet
  facet normal 0.684547 -0.728968 0
    outer loop
      vertex 9.47659 -8.89911 20
      vertex 8.28651 -10.0167 20
      vertex 9.47659 -8.89911 0
    endloop
  endfacet
  facet normal 0.770513 -0.637424 0
    outer loop
      vertex 9.47659 -8.89911 20
      vertex 9.47659 -8.89911 0
      vertex 10.5172 -7.64121 0
    endloop
  endfacet
  facet normal 0.770513 -0.637424 0
    outer loop
      vertex 10.5172 -7.64121 20
      vertex 9.47659 -8.89911 20
      vertex 10.5172 -7.64121 0
    endloop
  endfacet
  facet normal 0.844328 -0.535827 0
    outer loop
      vertex 10.5172 -7.64121 20
      vertex 10.5172 -7.64121 0
      vertex 11.392 -6.2628 0
    endloop
  endfacet
  facet normal 0.844328 -0.535827 0
    outer loop
      vertex 11.392 -6.2628 20
      vertex 10.5172 -7.64121 20
      vertex 11.392 -6.2628 0
    endloop
  endfacet
  facet normal 0.904827 -0.425779 0
    outer loop
      vertex 11.392 -6.2628 20
      vertex 11.392 -6.2628 0
      vertex 12.0871 -4.78562 0
    endloop
  endfacet
  facet normal 0.904827 -0.425779 0
    outer loop
      vertex 12.0871 -4.78562 20
      vertex 11.392 -6.2628 20
      vertex 12.0871 -4.78562 0
    endloop
  endfacet
  facet normal 0.951056 -0.309017 0
    outer loop
      vertex 12.0871 -4.78562 20
      vertex 12.0871 -4.78562 0
      vertex 12.5916 -3.23297 0
    endloop
  endfacet
  facet normal 0.951056 -0.309017 0
    outer loop
      vertex 12.5916 -3.23297 20
      vertex 12.0871 -4.78562 20
      vertex 12.5916 -3.23297 0
    endloop
  endfacet
  facet normal 0.982287 -0.187381 0
    outer loop
      vertex 12.5916 -3.23297 20
      vertex 12.5916 -3.23297 0
      vertex 12.8975 -1.62933 0
    endloop
  endfacet
  facet normal 0.982287 -0.187381 0
    outer loop
      vertex 12.8975 -1.62933 20
      vertex 12.5916 -3.23297 20
      vertex 12.8975 -1.62933 0
    endloop
  endfacet
  facet normal 0.998027 -0.0627906 0
    outer loop
      vertex 12.8975 -1.62933 20
      vertex 12.8975 -1.62933 0
      vertex 13 0 0
    endloop
  endfacet
  facet normal 0.998027 -0.0627906 0
    outer loop
      vertex 13 0 20
      vertex 12.8975 -1.62933 20
      vertex 13 0 0
    endloop
  endfacet
  facet normal 0.998027 0.0627906 0
    outer loop
      vertex 13 0 0
      vertex 12.8975 1.62933 0
      vertex 12.8975 1.62933 20
    endloop
  endfacet
  facet normal 0.998027 0.0627906 0
    outer loop
      vertex 13 0 20
      vertex 13 0 0
      vertex 12.8975 1.62933 20
    endloop
  endfacet
  facet normal 0.982287 0.187381 0
    outer loop
      vertex 12.8975 1.62933 0
      vertex 12.5916 3.23297 0
      vertex 12.5916 3.23297 20
    endloop
  endfacet
  facet normal 0.982287 0.187381 0
    outer loop
      vertex 12.8975 1.62933 20
      vertex 12.8975 1.62933 0
      vertex 12.5916 3.23297 20
    endloop
  endfacet
  facet normal 0.951056 0.309017 0
    outer loop
      vertex 12.5916 3.23297 0
      vertex 12.0871 4.78562 0
      vertex 12.0871 4.78562 20
    endloop
  endfacet
  facet normal 0.951056 0.309017 0
    outer loop
      vertex 12.5916 3.23297 20
      vertex 12.5916 3.23297 0
      vertex 12.0871 4.78562 20
    endloop
  endfacet
  facet normal 0.904827 0.425779 0
    outer loop
      vertex 12.0871 4.78562 0
      vertex 11.392 6.2628 0
      vertex 11.392 6.2628 20
    endloop
  endfacet
  facet normal 0.904827 0.425779 0
    outer loop
      vertex 12.0871 4.78562 20
      vertex 12.0871 4.78562 0
      vertex 11.392 6.2628 20
    endloop
  endfacet
  facet normal 0.844328 0.535827 0
    outer loop
      vertex 11.392 6.2628 0
      vertex 10.5172 7.64121 0
      vertex 10.5172 7.64121 20
    endloop
  endfacet
  facet normal 0.844328 0.535827 0
    outer loop
      vertex 11.392 6.2628 20
      vertex 11.392 6.2628 0
      vertex 10.5172 7.64121 20
    endloop
  endfacet
  facet normal 0.770513 0.637424 0
    outer loop
      vertex 10.5172 7.64121 0
      vertex 9.47659 8.89911 0
      vertex 9.47659 8.89911 20
    endloop
  endfacet
  facet normal 0.770513 0.637424 0
    outer loop
      vertex 10.5172 7.64121 20
      vertex 10.5172 7.64121 0
      vertex 9.47659 8.89911 20
    endloop
  endfacet
  facet normal 0.684547 0.728968 0
    outer loop
      vertex 8.28651 10.0167 0
      vertex 8.28651 10.0167 20
      vertex 9.47659 8.89911 0
    endloop
  endfacet
  facet normal 0.684547 0.728968 0
    outer loop
      vertex 9.47659 8.89911 0
      vertex 8.28651 10.0167 20
      vertex 9.47659 8.89911 20
    endloop
  endfacet
  facet normal 0.587785 0.809017 0
    outer loop
      vertex 6.96575 10.9763 0
      vertex 6.96575 10.9763 20
      vertex 8.28651 10.0167 0
    endloop
  endfacet
  facet normal 0.587785 0.809017 0
    outer loop
      vertex 8.28651 10.0167 0
      vertex 6.96575 10.9763 20
      vertex 8.28651 10.0167 20
    endloop
  endfacet
  facet normal 0.481754 0.876307 0
    outer loop
      vertex 5.53513 11.7628 0
      vertex 5.53513 11.7628 20
      vertex 6.96575 10.9763 0
    endloop
  endfacet
  facet normal 0.481754 0.876307 0
    outer loop
      vertex 6.96575 10.9763 0
      vertex 5.53513 11.7628 20
      vertex 6.96575 10.9763 20
    endloop
  endfacet
  facet normal 0.368125 0.929777 0
    outer loop
      vertex 4.01722 12.3637 0
      vertex 4.01722 12.3637 20
      vertex 5.53513 11.7628 0
    endloop
  endfacet
  facet normal 0.368125 0.929777 0
    outer loop
      vertex 5.53513 11.7628 0
      vertex 4.01722 12.3637 20
      vertex 5.53513 11.7628 20
    endloop
  endfacet
  facet normal 0.24869 0.968583 0
    outer loop
      vertex 2.43596 12.7697 0
      vertex 2.43596 12.7697 20
      vertex 4.01722 12.3637 0
    endloop
  endfacet
  facet normal 0.24869 0.968583 0
    outer loop
      vertex 4.01722 12.3637 0
      vertex 2.43596 12.7697 20
      vertex 4.01722 12.3637 20
    endloop
  endfacet
  facet normal 0.125333 0.992115 0
    outer loop
      vertex 0.816277 12.9743 0
      vertex 0.816277 12.9743 20
      vertex 2.43596 12.7697 0
    endloop
  endfacet
  facet normal 0.125333 0.992115 0
    outer loop
      vertex 2.43596 12.7697 0
      vertex 0.816277 12.9743 20
      vertex 2.43596 12.7697 20
    endloop
  endfacet
  facet normal 0 1 0
    outer loop
      vertex -0.816277 12.9743 0
      vertex -0.816277 12.9743 20
      vertex 0.816277 12.9743 0
    endloop
  endfacet
  facet normal 0 1 0
    outer loop
      vertex 0.816277 12.9743 0
      vertex -0.816277 12.9743 20
      vertex 0.816277 12.9743 20
    endloop
  endfacet
  facet normal -0.125333 0.992115 0
    outer loop
      vertex -2.43596 12.7697 0
      vertex -2.43596 12.7697 20
      vertex -0.816277 12.9743 0
    endloop
  endfacet
  facet normal -0.125333 0.992115 0
    outer loop
      vertex -0.816277 12.9743 0
      vertex -2.43596 12.7697 20
      vertex -0.816277 12.9743 20
    endloop
  endfacet
  facet normal -0.24869 0.968583 0
    outer loop
      vertex -4.01722 12.3637 0
      vertex -4.01722 12.3637 20
      vertex -2.43596 12.7697 0
    endloop
  endfacet
  facet normal -0.24869 0.968583 0
    outer loop
      vertex -2.43596 12.7697 0
      vertex -4.01722 12.3637 20
      vertex -2.43596 12.7697 20
    endloop
  endfacet
  facet normal -0.368125 0.929777 0
    outer loop
      vertex -5.53513 11.7628 0
      vertex -5.53513 11.7628 20
      vertex -4.01722 12.3637 0
    endloop
  endfacet
  facet normal -0.368125 0.929777 0
    outer loop
      vertex -4.01722 12.3637 0
      vertex -5.53513 11.7628 20
      vertex -4.01722 12.3637 20
    endloop
  endfacet
  facet normal -0.481754 0.876307 0
    outer loop
      vertex -6.96575 10.9763 0
      vertex -6.96575 10.9763 20
      vertex -5.53513 11.7628 0
    endloop
  endfacet
  facet normal -0.481754 0.876307 0
    outer loop
      vertex -5.53513 11.7628 0
      vertex -6.96575 10.9763 20
      vertex -5.53513 11.7628 20
    endloop
  endfacet
  facet normal -0.587785 0.809017 0
    outer loop
      vertex -8.28651 10.0167 0
      vertex -8.28651 10.0167 20
      vertex -6.96575 10.9763 0
    endloop
  endfacet
  facet normal -0.587785 0.809017 0
    outer loop
      vertex -6.96575 10.9763 0
      vertex -8.28651 10.0167 20
      vertex -6.96575 10.9763 20
    endloop
  endfacet
  facet normal -0.684547 0.728968 0
    outer loop
      vertex -9.47659 8.89911 0
      vertex -9.47659 8.89911 20
      vertex -8.28651 10.0167 0
    endloop
  endfacet
  facet normal -0.684547 0.728968 0
    outer loop
      vertex -8.28651 10.0167 0
      vertex -9.47659 8.89911 20
      vertex -8.28651 10.0167 20
    endloop
  endfacet
  facet normal -0.770513 0.637424 0
    outer loop
      vertex -10.5172 7.64121 0
      vertex -10.5172 7.64121 20
      vertex -9.47659 8.89911 0
    endloop
  endfacet
  facet normal -0.770513 0.637424 0
    outer loop
      vertex -9.47659 8.89911 0
      vertex -10.5172 7.64121 20
      vertex -9.47659 8.89911 20
    endloop
  endfacet
  facet normal -0.844328 0.535827 0
    outer loop
      vertex -11.392 6.2628 0
      vertex -11.392 6.2628 20
      vertex -10.5172 7.64121 0
    endloop
  endfacet
  facet normal -0.844328 0.535827 0
    outer loop
      vertex -10.5172 7.64121 0
      vertex -11.392 6.2628 20
      vertex -10.5172 7.64121 20
    endloop
  endfacet
  facet normal -0.904827 0.425779 0
    outer loop
      vertex -12.0871 4.78562 0
      vertex -12.0871 4.78562 20
      vertex -11.392 6.2628 0
    endloop
  endfacet
  facet normal -0.904827 0.425779 0
    outer loop
      vertex -11.392 6.2628 0
      vertex -12.0871 4.78562 20
      vertex -11.392 6.2628 20
    endloop
  endfacet
  facet normal -0.951056 0.309017 0
    outer loop
      vertex -12.5916 3.23297 0
      vertex -12.5916 3.23297 20
      vertex -12.0871 4.78562 0
    endloop
  endfacet
  facet normal -0.951056 0.309017 0
    outer loop
      vertex -12.0871 4.78562 0
      vertex -12.5916 3.23297 20
      vertex -12.0871 4.78562 20
    endloop
  endfacet
  facet normal -0.982287 0.187381 0
    outer loop
      vertex -12.8975 1.62933 0
      vertex -12.8975 1.62933 20
      vertex -12.5916 3.23297 0
    endloop
  endfacet
  facet normal -0.982287 0.187381 0
    outer loop
      vertex -12.5916 3.23297 0
      vertex -12.8975 1.62933 20
      vertex -12.5916 3.23297 20
    endloop
  endfacet
  facet normal 0.998027 -0.0627908 0
    outer loop
      vertex -11.9054 1.504 0
      vertex -11.9054 1.504 20
      vertex -12 0 20
    endloop
  endfacet
  facet normal 0.998027 -0.0627908 0
    outer loop
      vertex -12 0 0
      vertex -11.9054 1.504 0
      vertex -12 0 20
    endloop
  endfacet
  facet normal 0.998027 0.0627908 0
    outer loop
      vertex -12 0 20
      vertex -11.9054 -1.504 20
      vertex -11.9054 -1.504 0
    endloop
  endfacet
  facet normal 0.998027 0.0627908 0
    outer loop
      vertex -12 0 0
      vertex -12 0 20
      vertex -11.9054 -1.504 0
    endloop
  endfacet
  facet normal 0.982287 -0.187381 0
    outer loop
      vertex -11.623 2.98428 0
      vertex -11.623 2.98428 20
      vertex -11.9054 1.504 20
    endloop
  endfacet
  facet normal 0.982287 -0.187381 0
    outer loop
      vertex -11.9054 1.504 0
      vertex -11.623 2.98428 0
      vertex -11.9054 1.504 20
    endloop
  endfacet
  facet normal 0.951057 -0.309017 0
    outer loop
      vertex -11.1573 4.41749 0
      vertex -11.1573 4.41749 20
      vertex -11.623 2.98428 20
    endloop
  endfacet
  facet normal 0.951057 -0.309017 0
    outer loop
      vertex -11.623 2.98428 0
      vertex -11.1573 4.41749 0
      vertex -11.623 2.98428 20
    endloop
  endfacet
  facet normal 0.904827 -0.42578 0
    outer loop
      vertex -10.5157 5.78104 0
      vertex -10.5157 5.78104 20
      vertex -11.1573 4.41749 20
    endloop
  endfacet
  facet normal 0.904827 -0.42578 0
    outer loop
      vertex -11.1573 4.41749 0
      vertex -10.5157 5.78104 0
      vertex -11.1573 4.41749 20
    endloop
  endfacet
  facet normal 0.844328 -0.535827 0
    outer loop
      vertex -9.7082 7.05342 0
      vertex -9.7082 7.05342 20
      vertex -10.5157 5.78104 20
    endloop
  endfacet
  facet normal 0.844328 -0.535827 0
    outer loop
      vertex -10.5157 5.78104 0
      vertex -9.7082 7.05342 0
      vertex -10.5157 5.78104 20
    endloop
  endfacet
  facet normal 0.770513 -0.637424 0
    outer loop
      vertex -8.74762 8.21457 0
      vertex -8.74762 8.21457 20
      vertex -9.7082 7.05342 20
    endloop
  endfacet
  facet normal 0.770513 -0.637424 0
    outer loop
      vertex -9.7082 7.05342 0
      vertex -8.74762 8.21457 0
      vertex -9.7082 7.05342 20
    endloop
  endfacet
  facet normal 0.684547 -0.728969 0
    outer loop
      vertex -7.64909 9.24616 0
      vertex -7.64909 9.24616 20
      vertex -8.74762 8.21457 20
    endloop
  endfacet
  facet normal 0.684547 -0.728969 0
    outer loop
      vertex -8.74762 8.21457 0
      vertex -7.64909 9.24616 0
      vertex -8.74762 8.21457 20
    endloop
  endfacet
  facet normal 0.587785 -0.809017 0
    outer loop
      vertex -6.42992 10.1319 0
      vertex -6.42992 10.1319 20
      vertex -7.64909 9.24616 20
    endloop
  endfacet
  facet normal 0.587785 -0.809017 0
    outer loop
      vertex -7.64909 9.24616 0
      vertex -6.42992 10.1319 0
      vertex -7.64909 9.24616 20
    endloop
  endfacet
  facet normal 0.481754 -0.876307 0
    outer loop
      vertex -5.10935 10.8579 0
      vertex -5.10935 10.8579 20
      vertex -6.42992 10.1319 20
    endloop
  endfacet
  facet normal 0.481754 -0.876307 0
    outer loop
      vertex -6.42992 10.1319 0
      vertex -5.10935 10.8579 0
      vertex -6.42992 10.1319 20
    endloop
  endfacet
  facet normal 0.368124 -0.929777 0
    outer loop
      vertex -3.7082 11.4127 0
      vertex -3.7082 11.4127 20
      vertex -5.10935 10.8579 20
    endloop
  endfacet
  facet normal 0.368124 -0.929777 0
    outer loop
      vertex -5.10935 10.8579 0
      vertex -3.7082 11.4127 0
      vertex -5.10935 10.8579 20
    endloop
  endfacet
  facet normal 0.24869 -0.968583 0
    outer loop
      vertex -2.24858 11.7874 0
      vertex -2.24858 11.7874 20
      vertex -3.7082 11.4127 20
    endloop
  endfacet
  facet normal 0.24869 -0.968583 0
    outer loop
      vertex -3.7082 11.4127 0
      vertex -2.24858 11.7874 0
      vertex -3.7082 11.4127 20
    endloop
  endfacet
  facet normal 0.125333 -0.992115 0
    outer loop
      vertex -0.753486 11.9763 0
      vertex -0.753486 11.9763 20
      vertex -2.24858 11.7874 20
    endloop
  endfacet
  facet normal 0.125333 -0.992115 0
    outer loop
      vertex -2.24858 11.7874 0
      vertex -0.753486 11.9763 0
      vertex -2.24858 11.7874 20
    endloop
  endfacet
  facet normal 0 -1 0
    outer loop
      vertex 0.753486 11.9763 0
      vertex 0.753486 11.9763 20
      vertex -0.753486 11.9763 20
    endloop
  endfacet
  facet normal 0 -1 0
    outer loop
      vertex -0.753486 11.9763 0
      vertex 0.753486 11.9763 0
      vertex -0.753486 11.9763 20
    endloop
  endfacet
  facet normal -0.125333 -0.992115 0
    outer loop
      vertex 2.24858 11.7874 0
      vertex 2.24858 11.7874 20
      vertex 0.753486 11.9763 20
    endloop
  endfacet
  facet normal -0.125333 -0.992115 0
    outer loop
      vertex 0.753486 11.9763 0
      vertex 2.24858 11.7874 0
      vertex 0.753486 11.9763 20
    endloop
  endfacet
  facet normal -0.24869 -0.968583 0
    outer loop
      vertex 3.7082 11.4127 0
      vertex 3.7082 11.4127 20
      vertex 2.24858 11.7874 20
    endloop
  endfacet
  facet normal -0.24869 -0.968583 0
    outer loop
      vertex 2.24858 11.7874 0
      vertex 3.7082 11.4127 0
      vertex 2.24858 11.7874 20
    endloop
  endfacet
  facet normal -0.368124 -0.929777 0
    outer loop
      vertex 5.10935 10.8579 0
      vertex 5.10935 10.8579 20
      vertex 3.7082 11.4127 20
    endloop
  endfacet
  facet normal -0.368124 -0.929777 0
    outer loop
      vertex 3.7082 11.4127 0
      vertex 5.10935 10.8579 0
      vertex 3.7082 11.4127 20
    endloop
  endfacet
  facet normal -0.481754 -0.876307 0
    outer loop
      vertex 6.42992 10.1319 0
      vertex 6.42992 10.1319 20
      vertex 5.10935 10.8579 20
    endloop
  endfacet
  facet normal -0.481754 -0.876307 0
    outer loop
      vertex 5.10935 10.8579 0
      vertex 6.42992 10.1319 0
      vertex 5.10935 10.8579 20
    endloop
  endfacet
  facet normal -0.587785 -0.809017 0
    outer loop
      vertex 7.64909 9.24616 0
      vertex 7.64909 9.24616 20
      vertex 6.42992 10.1319 20
    endloop
  endfacet
  facet normal -0.587785 -0.809017 0
    outer loop
      vertex 6.42992 10.1319 0
      vertex 7.64909 9.24616 0
      vertex 6.42992 10.1319 20
    endloop
  endfacet
  facet normal -0.684547 -0.728969 0
    outer loop
      vertex 8.74762 8.21457 0
      vertex 8.74762 8.21457 20
      vertex 7.64909 9.24616 20
    endloop
  endfacet
  facet normal -0.684547 -0.728969 0
    outer loop
      vertex 7.64909 9.24616 0
      vertex 8.74762 8.21457 0
      vertex 7.64909 9.24616 20
    endloop
  endfacet
  facet normal -0.770513 -0.637424 0
    outer loop
      vertex 9.7082 7.05342 20
      vertex 8.74762 8.21457 20
      vertex 9.7082 7.05342 0
    endloop
  endfacet
  facet normal -0.770513 -0.637424 0
    outer loop
      vertex 9.7082 7.05342 0
      vertex 8.74762 8.21457 20
      vertex 8.74762 8.21457 0
    endloop
  endfacet
  facet normal -0.844328 -0.535827 0
    outer loop
      vertex 10.5157 5.78104 20
      vertex 9.7082 7.05342 20
      vertex 10.5157 5.78104 0
    endloop
  endfacet
  facet normal -0.844328 -0.535827 0
    outer loop
      vertex 10.5157 5.78104 0
      vertex 9.7082 7.05342 20
      vertex 9.7082 7.05342 0
    endloop
  endfacet
  facet normal -0.904827 -0.42578 0
    outer loop
      vertex 11.1573 4.41749 20
      vertex 10.5157 5.78104 20
      vertex 11.1573 4.41749 0
    endloop
  endfacet
  facet normal -0.904827 -0.42578 0
    outer loop
      vertex 11.1573 4.41749 0
      vertex 10.5157 5.78104 20
      vertex 10.5157 5.78104 0
    endloop
  endfacet
  facet normal -0.951057 -0.309017 0
    outer loop
      vertex 11.623 2.98428 20
      vertex 11.1573 4.41749 20
      vertex 11.623 2.98428 0
    endloop
  endfacet
  facet normal -0.951057 -0.309017 0
    outer loop
      vertex 11.623 2.98428 0
      vertex 11.1573 4.41749 20
      vertex 11.1573 4.41749 0
    endloop
  endfacet
  facet normal -0.982287 -0.187381 0
    outer loop
      vertex 11.9054 1.504 20
      vertex 11.623 2.98428 20
      vertex 11.9054 1.504 0
    endloop
  endfacet
  facet normal -0.982287 -0.187381 0
    outer loop
      vertex 11.9054 1.504 0
      vertex 11.623 2.98428 20
      vertex 11.623 2.98428 0
    endloop
  endfacet
  facet normal -0.998027 -0.0627908 0
    outer loop
      vertex 12 0 20
      vertex 11.9054 1.504 20
      vertex 12 0 0
    endloop
  endfacet
  facet normal -0.998027 -0.0627908 0
    outer loop
      vertex 12 0 0
      vertex 11.9054 1.504 20
      vertex 11.9054 1.504 0
    endloop
  endfacet
  facet normal -0.998027 0.0627908 0
    outer loop
      vertex 12 0 20
      vertex 12 0 0
      vertex 11.9054 -1.504 20
    endloop
  endfacet
  facet normal -0.998027 0.0627908 0
    outer loop
      vertex 11.9054 -1.504 20
      vertex 12 0 0
      vertex 11.9054 -1.504 0
    endloop
  endfacet
  facet normal -0.982287 0.187381 0
    outer loop
      vertex 11.9054 -1.504 20
      vertex 11.9054 -1.504 0
      vertex 11.623 -2.98428 20
    endloop
  endfacet
  facet normal -0.982287 0.187381 0
    outer loop
      vertex 11.623 -2.98428 20
      vertex 11.9054 -1.504 0
      vertex 11.623 -2.98428 0
    endloop
  endfacet
  facet normal -0.951057 0.309017 0
    outer loop
      vertex 11.623 -2.98428 20
      vertex 11.623 -2.98428 0
      vertex 11.1573 -4.41749 20
    endloop
  endfacet
  facet normal -0.951057 0.309017 0
    outer loop
      vertex 11.1573 -4.41749 20
      vertex 11.623 -2.98428 0
      vertex 11.1573 -4.41749 0
    endloop
  endfacet
  facet normal -0.904827 0.42578 0
    outer loop
      vertex 11.1573 -4.41749 20
      vertex 11.1573 -4.41749 0
      vertex 10.5157 -5.78104 20
    endloop
  endfacet
  facet normal -0.904827 0.42578 0
    outer loop
      vertex 10.5157 -5.78104 20
      vertex 11.1573 -4.41749 0
      vertex 10.5157 -5.78104 0
    endloop
  endfacet
  facet normal -0.844328 0.535827 0
    outer loop
      vertex 10.5157 -5.78104 20
      vertex 10.5157 -5.78104 0
      vertex 9.7082 -7.05342 20
    endloop
  endfacet
  facet normal -0.844328 0.535827 0
    outer loop
      vertex 9.7082 -7.05342 20
      vertex 10.5157 -5.78104 0
      vertex 9.7082 -7.05342 0
    endloop
  endfacet
  facet normal -0.770513 0.637424 0
    outer loop
      vertex 9.7082 -7.05342 20
      vertex 9.7082 -7.05342 0
      vertex 8.74762 -8.21457 20
    endloop
  endfacet
  facet normal -0.770513 0.637424 0
    outer loop
      vertex 8.74762 -8.21457 20
      vertex 9.7082 -7.05342 0
      vertex 8.74762 -8.21457 0
    endloop
  endfacet
  facet normal -0.684547 0.728969 0
    outer loop
      vertex 8.74762 -8.21457 20
      vertex 8.74762 -8.21457 0
      vertex 7.64909 -9.24616 20
    endloop
  endfacet
  facet normal -0.684547 0.728969 0
    outer loop
      vertex 7.64909 -9.24616 20
      vertex 8.74762 -8.21457 0
      vertex 7.64909 -9.24616 0
    endloop
  endfacet
  facet normal -0.587785 0.809017 0
    outer loop
      vertex 7.64909 -9.24616 20
      vertex 7.64909 -9.24616 0
      vertex 6.42992 -10.1319 20
    endloop
  endfacet
  facet normal -0.587785 0.809017 0
    outer loop
      vertex 6.42992 -10.1319 20
      vertex 7.64909 -9.24616 0
      vertex 6.42992 -10.1319 0
    endloop
  endfacet
  facet normal -0.481754 0.876307 0
    outer loop
      vertex 6.42992 -10.1319 20
      vertex 6.42992 -10.1319 0
      vertex 5.10935 -10.8579 20
    endloop
  endfacet
  facet normal -0.481754 0.876307 0
    outer loop
      vertex 5.10935 -10.8579 20
      vertex 6.42992 -10.1319 0
      vertex 5.10935 -10.8579 0
    endloop
  endfacet
  facet normal -0.368124 0.929777 0
    outer loop
      vertex 5.10935 -10.8579 20
      vertex 5.10935 -10.8579 0
      vertex 3.7082 -11.4127 20
    endloop
  endfacet
  facet normal -0.368124 0.929777 0
    outer loop
      vertex 3.7082 -11.4127 20
      vertex 5.10935 -10.8579 0
      vertex 3.7082 -11.4127 0
    endloop
  endfacet
  facet normal -0.24869 0.968583 0
    outer loop
      vertex 3.7082 -11.4127 20
      vertex 3.7082 -11.4127 0
      vertex 2.24858 -11.7874 20
    endloop
  endfacet
  facet normal -0.24869 0.968583 0
    outer loop
      vertex 2.24858 -11.7874 20
      vertex 3.7082 -11.4127 0
      vertex 2.24858 -11.7874 0
    endloop
  endfacet
  facet normal -0.125333 0.992115 0
    outer loop
      vertex 2.24858 -11.7874 20
      vertex 2.24858 -11.7874 0
      vertex 0.753486 -11.9763 20
    endloop
  endfacet
  facet normal -0.125333 0.992115 0
    outer loop
      vertex 0.753486 -11.9763 20
      vertex 2.24858 -11.7874 0
      vertex 0.753486 -11.9763 0
    endloop
  endfacet
  facet normal 0 1 0
    outer loop
      vertex 0.753486 -11.9763 20
      vertex 0.753486 -11.9763 0
      vertex -0.753486 -11.9763 20
    endloop
  endfacet
  facet normal 0 1 0
    outer loop
      vertex -0.753486 -11.9763 20
      vertex 0.753486 -11.9763 0
      vertex -0.753486 -11.9763 0
    endloop
  endfacet
  facet normal 0.125333 0.992115 0
    outer loop
      vertex -0.753486 -11.9763 20
      vertex -0.753486 -11.9763 0
      vertex -2.24858 -11.7874 20
    endloop
  endfacet
  facet normal 0.125333 0.992115 0
    outer loop
      vertex -2.24858 -11.7874 20
      vertex -0.753486 -11.9763 0
      vertex -2.24858 -11.7874 0
    endloop
  endfacet
  facet normal 0.24869 0.968583 0
    outer loop
      vertex -2.24858 -11.7874 20
      vertex -2.24858 -11.7874 0
      vertex -3.7082 -11.4127 20
    endloop
  endfacet
  facet normal 0.24869 0.968583 0
    outer loop
      vertex -3.7082 -11.4127 20
      vertex -2.24858 -11.7874 0
      vertex -3.7082 -11.4127 0
    endloop
  endfacet
  facet normal 0.368124 0.929777 0
    outer loop
      vertex -3.7082 -11.4127 20
      vertex -3.7082 -11.4127 0
      vertex -5.10935 -10.8579 20
    endloop
  endfacet
  facet normal 0.368124 0.929777 0
    outer loop
      vertex -5.10935 -10.8579 20
      vertex -3.7082 -11.4127 0
      vertex -5.10935 -10.8579 0
    endloop
  endfacet
  facet normal 0.481754 0.876307 0
    outer loop
      vertex -5.10935 -10.8579 20
      vertex -5.10935 -10.8579 0
      vertex -6.42992 -10.1319 20
    endloop
  endfacet
  facet normal 0.481754 0.876307 0
    outer loop
      vertex -6.42992 -10.1319 20
      vertex -5.10935 -10.8579 0
      vertex -6.42992 -10.1319 0
    endloop
  endfacet
  facet normal 0.587785 0.809017 0
    outer loop
      vertex -6.42992 -10.1319 20
      vertex -6.42992 -10.1319 0
      vertex -7.64909 -9.24616 20
    endloop
  endfacet
  facet normal 0.587785 0.809017 0
    outer loop
      vertex -7.64909 -9.24616 20
      vertex -6.42992 -10.1319 0
      vertex -7.64909 -9.24616 0
    endloop
  endfacet
  facet normal 0.684547 0.728969 0
    outer loop
      vertex -7.64909 -9.24616 20
      vertex -7.64909 -9.24616 0
      vertex -8.74762 -8.21457 20
    endloop
  endfacet
  facet normal 0.684547 0.728969 0
    outer loop
      vertex -8.74762 -8.21457 20
      vertex -7.64909 -9.24616 0
      vertex -8.74762 -8.21457 0
    endloop
  endfacet
  facet normal 0.770513 0.637424 0
    outer loop
      vertex -9.7082 -7.05342 20
      vertex -8.74762 -8.21457 20
      vertex -8.74762 -8.21457 0
    endloop
  endfacet
  facet normal 0.770513 0.637424 0
    outer loop
      vertex -9.7082 -7.05342 0
      vertex -9.7082 -7.05342 20
      vertex -8.74762 -8.21457 0
    endloop
  endfacet
  facet normal 0.844328 0.535827 0
    outer loop
      vertex -10.5157 -5.78104 20
      vertex -9.7082 -7.05342 20
      vertex -9.7082 -7.05342 0
    endloop
  endfacet
  facet normal 0.844328 0.535827 0
    outer loop
      vertex -10.5157 -5.78104 0
      vertex -10.5157 -5.78104 20
      vertex -9.7082 -7.05342 0
    endloop
  endfacet
  facet normal 0.904827 0.42578 0
    outer loop
      vertex -11.1573 -4.41749 20
      vertex -10.5157 -5.78104 20
      vertex -10.5157 -5.78104 0
    endloop
  endfacet
  facet normal 0.904827 0.42578 0
    outer loop
      vertex -11.1573 -4.41749 0
      vertex -11.1573 -4.41749 20
      vertex -10.5157 -5.78104 0
    endloop
  endfacet
  facet normal 0.951057 0.309017 0
    outer loop
      vertex -11.623 -2.98428 20
      vertex -11.1573 -4.41749 20
      vertex -11.1573 -4.41749 0
    endloop
  endfacet
  facet normal 0.951057 0.309017 0
    outer loop
      vertex -11.623 -2.98428 0
      vertex -11.623 -2.98428 20
      vertex -11.1573 -4.41749 0
    endloop
  endfacet
  facet normal 0.982287 0.187381 0
    outer loop
      vertex -11.9054 -1.504 20
      vertex -11.623 -2.98428 20
      vertex -11.623 -2.98428 0
    endloop
  endfacet
  facet normal 0.982287 0.187381 0
    outer loop
      vertex -11.9054 -1.504 0
      vertex -11.9054 -1.504 20
      vertex -11.623 -2.98428 0
    endloop
  endfacet
  facet normal 0 0 1
    outer loop
      vertex -12.8975 1.62933 20
      vertex -13 0 20
      vertex -12.8975 -1.62933 20
    endloop
  endfacet
  facet normal 0 0 1
    outer loop
      vertex -12.0871 -4.78562 20
      vertex -12.8975 1.62933 20
      vertex -12.5916 -3.23297 20
    endloop
  endfacet
  facet normal 0 0 1
    outer loop
      vertex -12.5916 -3.23297 20
      vertex -12.8975 1.62933 20
      vertex -12.8975 -1.62933 20
    endloop
  endfacet
  facet normal 0 0 1
    outer loop
      vertex -11.392 -6.2628 20
      vertex -12.8975 1.62933 20
      vertex -12.0871 -4.78562 20
    endloop
  endfacet
  facet normal 0 0 1
    outer loop
      vertex -10.5172 -7.64121 20
      vertex -12.8975 1.62933 20
      vertex -11.392 -6.2628 20
    endloop
  endfacet
  facet normal 0 0 1
    outer loop
      vertex -11.623 -2.98428 20
      vertex -12.8975 1.62933 20
      vertex -10.5172 -7.64121 20
    endloop
  endfacet
  facet normal 0 0 1
    outer loop
      vertex 9.7082 -7.05342 20
      vertex 8.74762 -8.21457 20
      vertex 10.5172 -7.64121 20
    endloop
  endfacet
  facet normal 0 0 1
    outer loop
      vertex 10.5157 -5.78104 20
      vertex 9.7082 -7.05342 20
      vertex 11.392 -6.2628 20
    endloop
  endfacet
  facet normal 0 0 1
    outer loop
      vertex 11.1573 -4.41749 20
      vertex 10.5157 -5.78104 20
      vertex 12.0871 -4.78562 20
    endloop
  endfacet
  facet normal 0 0 1
    outer loop
      vertex -11.9054 1.504 20
      vertex -11.623 2.98428 20
      vertex -12.8975 1.62933 20
    endloop
  endfacet
  facet normal 0 0 1
    outer loop
      vertex -3.7082 -11.4127 20
      vertex -5.10935 -10.8579 20
      vertex -4.01722 -12.3637 20
    endloop
  endfacet
  facet normal 0 0 1
    outer loop
      vertex 11.623 2.98428 20
      vertex 11.9054 1.504 20
      vertex 12.8975 1.62933 20
    endloop
  endfacet
  facet normal 0 0 1
    outer loop
      vertex 11.1573 4.41749 20
      vertex 11.623 2.98428 20
      vertex 12.5916 3.23297 20
    endloop
  endfacet
  facet normal 0 0 1
    outer loop
      vertex 10.5157 5.78104 20
      vertex 11.1573 4.41749 20
      vertex 12.0871 4.78562 20
    endloop
  endfacet
  facet normal 0 0 1
    outer loop
      vertex 9.7082 7.05342 20
      vertex 10.5157 5.78104 20
      vertex 11.392 6.2628 20
    endloop
  endfacet
  facet normal 0 0 1
    outer loop
      vertex 8.74762 8.21457 20
      vertex 9.7082 7.05342 20
      vertex 10.5172 7.64121 20
    endloop
  endfacet
  facet normal 0 0 1
    outer loop
      vertex 7.64909 9.24616 20
      vertex 8.74762 8.21457 20
      vertex 9.47659 8.89911 20
    endloop
  endfacet
  facet normal 0 0 1
    outer loop
      vertex 6.42992 10.1319 20
      vertex 7.64909 9.24616 20
      vertex 8.28651 10.0167 20
    endloop
  endfacet
  facet normal 0 0 1
    outer loop
      vertex 5.10935 10.8579 20
      vertex 6.42992 10.1319 20
      vertex 6.96575 10.9763 20
    endloop
  endfacet
  facet normal 0 0 1
    outer loop
      vertex 3.7082 11.4127 20
      vertex 5.10935 10.8579 20
      vertex 5.53513 11.7628 20
    endloop
  endfacet
  facet normal 0 0 1
    outer loop
      vertex 2.24858 11.7874 20
      vertex 3.7082 11.4127 20
      vertex 4.01722 12.3637 20
    endloop
  endfacet
  facet normal 0 0 1
    outer loop
      vertex -2.24858 11.7874 20
      vertex -0.753486 11.9763 20
      vertex -0.816277 12.9743 20
    endloop
  endfacet
  facet normal 0 0 1
    outer loop
      vertex -5.10935 10.8579 20
      vertex -3.7082 11.4127 20
      vertex -2.43596 12.7697 20
    endloop
  endfacet
  facet normal 0 0 1
    outer loop
      vertex -9.47659 8.89911 20
      vertex -12.8975 1.62933 20
      vertex -8.28651 10.0167 20
    endloop
  endfacet
  facet normal 0 0 1
    outer loop
      vertex -10.5172 7.64121 20
      vertex -12.8975 1.62933 20
      vertex -9.47659 8.89911 20
    endloop
  endfacet
  facet normal 0 0 1
    outer loop
      vertex -11.392 6.2628 20
      vertex -12.8975 1.62933 20
      vertex -10.5172 7.64121 20
    endloop
  endfacet
  facet normal 0 0 1
    outer loop
      vertex -12.0871 4.78562 20
      vertex -12.8975 1.62933 20
      vertex -11.392 6.2628 20
    endloop
  endfacet
  facet normal 0 0 1
    outer loop
      vertex -12.5916 3.23297 20
      vertex -12.8975 1.62933 20
      vertex -12.0871 4.78562 20
    endloop
  endfacet
  facet normal 0 0 1
    outer loop
      vertex -7.64909 -9.24616 20
      vertex -8.74762 -8.21457 20
      vertex -6.96575 -10.9763 20
    endloop
  endfacet
  facet normal 0 0 1
    outer loop
      vertex 11.623 -2.98428 20
      vertex 11.1573 -4.41749 20
      vertex 12.5916 -3.23297 20
    endloop
  endfacet
  facet normal 0 0 1
    outer loop
      vertex -0.753486 11.9763 20
      vertex 0.753486 11.9763 20
      vertex 0.816277 12.9743 20
    endloop
  endfacet
  facet normal 0 0 1
    outer loop
      vertex -7.64909 9.24616 20
      vertex -6.42992 10.1319 20
      vertex -5.53513 11.7628 20
    endloop
  endfacet
  facet normal 0 0 1
    outer loop
      vertex -10.5157 5.78104 20
      vertex -12.8975 1.62933 20
      vertex -11.1573 4.41749 20
    endloop
  endfacet
  facet normal 0 0 1
    outer loop
      vertex -8.74762 8.21457 20
      vertex -7.64909 9.24616 20
      vertex -6.96575 10.9763 20
    endloop
  endfacet
  facet normal 0 0 1
    outer loop
      vertex -8.28651 10.0167 20
      vertex -12.8975 1.62933 20
      vertex -10.5157 5.78104 20
    endloop
  endfacet
  facet normal 0 0 1
    outer loop
      vertex -8.28651 10.0167 20
      vertex -9.7082 7.05342 20
      vertex -6.96575 10.9763 20
    endloop
  endfacet
  facet normal 0 0 1
    outer loop
      vertex -9.7082 7.05342 20
      vertex -8.74762 8.21457 20
      vertex -6.96575 10.9763 20
    endloop
  endfacet
  facet normal 0 0 1
    outer loop
      vertex -6.96575 10.9763 20
      vertex -7.64909 9.24616 20
      vertex -5.53513 11.7628 20
    endloop
  endfacet
  facet normal 0 0 1
    outer loop
      vertex -10.5157 5.78104 20
      vertex -9.7082 7.05342 20
      vertex -8.28651 10.0167 20
    endloop
  endfacet
  facet normal 0 0 1
    outer loop
      vertex -5.53513 11.7628 20
      vertex -6.42992 10.1319 20
      vertex -4.01722 12.3637 20
    endloop
  endfacet
  facet normal 0 0 1
    outer loop
      vertex -4.01722 12.3637 20
      vertex -5.10935 10.8579 20
      vertex -2.43596 12.7697 20
    endloop
  endfacet
  facet normal 0 0 1
    outer loop
      vertex -2.43596 12.7697 20
      vertex -3.7082 11.4127 20
      vertex -0.816277 12.9743 20
    endloop
  endfacet
  facet normal 0 0 1
    outer loop
      vertex -3.7082 11.4127 20
      vertex -2.24858 11.7874 20
      vertex -0.816277 12.9743 20
    endloop
  endfacet
  facet normal 0 0 1
    outer loop
      vertex -0.816277 12.9743 20
      vertex -0.753486 11.9763 20
      vertex 0.816277 12.9743 20
    endloop
  endfacet
  facet normal 0 0 1
    outer loop
      vertex -6.42992 10.1319 20
      vertex -5.10935 10.8579 20
      vertex -4.01722 12.3637 20
    endloop
  endfacet
  facet normal 0 0 1
    outer loop
      vertex 0.816277 12.9743 20
      vertex 0.753486 11.9763 20
      vertex 2.43596 12.7697 20
    endloop
  endfacet
  facet normal 0 0 1
    outer loop
      vertex 2.43596 12.7697 20
      vertex 2.24858 11.7874 20
      vertex 4.01722 12.3637 20
    endloop
  endfacet
  facet normal 0 0 1
    outer loop
      vertex 11.9054 1.504 20
      vertex 12 0 20
      vertex 13 0 20
    endloop
  endfacet
  facet normal 0 0 1
    outer loop
      vertex 4.01722 12.3637 20
      vertex 3.7082 11.4127 20
      vertex 5.53513 11.7628 20
    endloop
  endfacet
  facet normal 0 0 1
    outer loop
      vertex -11.623 2.98428 20
      vertex -11.1573 4.41749 20
      vertex -12.8975 1.62933 20
    endloop
  endfacet
  facet normal 0 0 1
    outer loop
      vertex 5.53513 11.7628 20
      vertex 5.10935 10.8579 20
      vertex 6.96575 10.9763 20
    endloop
  endfacet
  facet normal 0 0 1
    outer loop
      vertex 6.96575 10.9763 20
      vertex 6.42992 10.1319 20
      vertex 8.28651 10.0167 20
    endloop
  endfacet
  facet normal 0 0 1
    outer loop
      vertex 8.28651 10.0167 20
      vertex 7.64909 9.24616 20
      vertex 9.47659 8.89911 20
    endloop
  endfacet
  facet normal 0 0 1
    outer loop
      vertex 9.47659 8.89911 20
      vertex 8.74762 8.21457 20
      vertex 10.5172 7.64121 20
    endloop
  endfacet
  facet normal 0 0 1
    outer loop
      vertex 10.5172 7.64121 20
      vertex 9.7082 7.05342 20
      vertex 11.392 6.2628 20
    endloop
  endfacet
  facet normal 0 0 1
    outer loop
      vertex 11.392 6.2628 20
      vertex 10.5157 5.78104 20
      vertex 12.0871 4.78562 20
    endloop
  endfacet
  facet normal 0 0 1
    outer loop
      vertex 12.0871 4.78562 20
      vertex 11.1573 4.41749 20
      vertex 12.5916 3.23297 20
    endloop
  endfacet
  facet normal 0 0 1
    outer loop
      vertex 12.5916 3.23297 20
      vertex 11.623 2.98428 20
      vertex 12.8975 1.62933 20
    endloop
  endfacet
  facet normal 0 0 1
    outer loop
      vertex 12.8975 1.62933 20
      vertex 11.9054 1.504 20
      vertex 13 0 20
    endloop
  endfacet
  facet normal 0 0 1
    outer loop
      vertex 13 0 20
      vertex 12 0 20
      vertex 12.8975 -1.62933 20
    endloop
  endfacet
  facet normal 0 0 1
    outer loop
      vertex 12.8975 -1.62933 20
      vertex 11.9054 -1.504 20
      vertex 12.5916 -3.23297 20
    endloop
  endfacet
  facet normal 0 0 1
    outer loop
      vertex 0.753486 11.9763 20
      vertex 2.24858 11.7874 20
      vertex 2.43596 12.7697 20
    endloop
  endfacet
  facet normal 0 0 1
    outer loop
      vertex 11.9054 -1.504 20
      vertex 11.623 -2.98428 20
      vertex 12.5916 -3.23297 20
    endloop
  endfacet
  facet normal 0 0 1
    outer loop
      vertex 12.5916 -3.23297 20
      vertex 11.1573 -4.41749 20
      vertex 12.0871 -4.78562 20
    endloop
  endfacet
  facet normal 0 0 1
    outer loop
      vertex 12.0871 -4.78562 20
      vertex 10.5157 -5.78104 20
      vertex 11.392 -6.2628 20
    endloop
  endfacet
  facet normal 0 0 1
    outer loop
      vertex 11.392 -6.2628 20
      vertex 9.7082 -7.05342 20
      vertex 10.5172 -7.64121 20
    endloop
  endfacet
  facet normal 0 0 1
    outer loop
      vertex 10.5172 -7.64121 20
      vertex 8.74762 -8.21457 20
      vertex 9.47659 -8.89911 20
    endloop
  endfacet
  facet normal 0 0 1
    outer loop
      vertex 9.47659 -8.89911 20
      vertex 7.64909 -9.24616 20
      vertex 8.28651 -10.0167 20
    endloop
  endfacet
  facet normal 0 0 1
    outer loop
      vertex 8.28651 -10.0167 20
      vertex 6.42992 -10.1319 20
      vertex 6.96575 -10.9763 20
    endloop
  endfacet
  facet normal 0 0 1
    outer loop
      vertex 6.96575 -10.9763 20
      vertex 5.10935 -10.8579 20
      vertex 5.53513 -11.7628 20
    endloop
  endfacet
  facet normal 0 0 1
    outer loop
      vertex 5.53513 -11.7628 20
      vertex 3.7082 -11.4127 20
      vertex 4.01722 -12.3637 20
    endloop
  endfacet
  facet normal 0 0 1
    outer loop
      vertex 4.01722 -12.3637 20
      vertex 2.24858 -11.7874 20
      vertex 2.43596 -12.7697 20
    endloop
  endfacet
  facet normal 0 0 1
    outer loop
      vertex 2.43596 -12.7697 20
      vertex 0.753486 -11.9763 20
      vertex 0.816277 -12.9743 20
    endloop
  endfacet
  facet normal 0 0 1
    outer loop
      vertex 0.816277 -12.9743 20
      vertex -0.753486 -11.9763 20
      vertex -0.816277 -12.9743 20
    endloop
  endfacet
  facet normal 0 0 1
    outer loop
      vertex -0.816277 -12.9743 20
      vertex -2.24858 -11.7874 20
      vertex -2.43596 -12.7697 20
    endloop
  endfacet
  facet normal 0 0 1
    outer loop
      vertex 12 0 20
      vertex 11.9054 -1.504 20
      vertex 12.8975 -1.62933 20
    endloop
  endfacet
  facet normal 0 0 1
    outer loop
      vertex -2.43596 -12.7697 20
      vertex -3.7082 -11.4127 20
      vertex -4.01722 -12.3637 20
    endloop
  endfacet
  facet normal 0 0 1
    outer loop
      vertex -4.01722 -12.3637 20
      vertex -5.10935 -10.8579 20
      vertex -5.53513 -11.7628 20
    endloop
  endfacet
  facet normal 0 0 1
    outer loop
      vertex -5.10935 -10.8579 20
      vertex -6.42992 -10.1319 20
      vertex -5.53513 -11.7628 20
    endloop
  endfacet
  facet normal 0 0 1
    outer loop
      vertex -5.53513 -11.7628 20
      vertex -7.64909 -9.24616 20
      vertex -6.96575 -10.9763 20
    endloop
  endfacet
  facet normal 0 0 1
    outer loop
      vertex -6.96575 -10.9763 20
      vertex -8.74762 -8.21457 20
      vertex -8.28651 -10.0167 20
    endloop
  endfacet
  facet normal 0 0 1
    outer loop
      vertex -8.28651 -10.0167 20
      vertex -9.7082 -7.05342 20
      vertex -9.47659 -8.89911 20
    endloop
  endfacet
  facet normal 0 0 1
    outer loop
      vertex -9.47659 -8.89911 20
      vertex -10.5157 -5.78104 20
      vertex -10.5172 -7.64121 20
    endloop
  endfacet
  facet normal 0 0 1
    outer loop
      vertex -10.5157 -5.78104 20
      vertex -11.1573 -4.41749 20
      vertex -10.5172 -7.64121 20
    endloop
  endfacet
  facet normal 0 0 1
    outer loop
      vertex -11.9054 -1.504 20
      vertex -12.8975 1.62933 20
      vertex -11.623 -2.98428 20
    endloop
  endfacet
  facet normal 0 0 1
    outer loop
      vertex -8.74762 -8.21457 20
      vertex -9.7082 -7.05342 20
      vertex -8.28651 -10.0167 20
    endloop
  endfacet
  facet normal 0 0 1
    outer loop
      vertex -11.1573 -4.41749 20
      vertex -11.623 -2.98428 20
      vertex -10.5172 -7.64121 20
    endloop
  endfacet
  facet normal 0 0 1
    outer loop
      vertex -11.9054 -1.504 20
      vertex -12 0 20
      vertex -12.8975 1.62933 20
    endloop
  endfacet
  facet normal 0 0 1
    outer loop
      vertex 8.74762 -8.21457 20
      vertex 7.64909 -9.24616 20
      vertex 9.47659 -8.89911 20
    endloop
  endfacet
  facet normal 0 0 1
    outer loop
      vertex 7.64909 -9.24616 20
      vertex 6.42992 -10.1319 20
      vertex 8.28651 -10.0167 20
    endloop
  endfacet
  facet normal 0 0 1
    outer loop
      vertex 6.42992 -10.1319 20
      vertex 5.10935 -10.8579 20
      vertex 6.96575 -10.9763 20
    endloop
  endfacet
  facet normal 0 0 1
    outer loop
      vertex 5.10935 -10.8579 20
      vertex 3.7082 -11.4127 20
      vertex 5.53513 -11.7628 20
    endloop
  endfacet
  facet normal 0 0 1
    outer loop
      vertex 3.7082 -11.4127 20
      vertex 2.24858 -11.7874 20
      vertex 4.01722 -12.3637 20
    endloop
  endfacet
  facet normal 0 0 1
    outer loop
      vertex 2.24858 -11.7874 20
      vertex 0.753486 -11.9763 20
      vertex 2.43596 -12.7697 20
    endloop
  endfacet
  facet normal 0 0 1
    outer loop
      vertex 0.753486 -11.9763 20
      vertex -0.753486 -11.9763 20
      vertex 0.816277 -12.9743 20
    endloop
  endfacet
  facet normal 0 0 1
    outer loop
      vertex -0.753486 -11.9763 20
      vertex -2.24858 -11.7874 20
      vertex -0.816277 -12.9743 20
    endloop
  endfacet
  facet normal 0 0 1
    outer loop
      vertex -2.24858 -11.7874 20
      vertex -3.7082 -11.4127 20
      vertex -2.43596 -12.7697 20
    endloop
  endfacet
  facet normal 0 0 1
    outer loop
      vertex -9.7082 -7.05342 20
      vertex -10.5157 -5.78104 20
      vertex -9.47659 -8.89911 20
    endloop
  endfacet
  facet normal 0 0 1
    outer loop
      vertex -6.42992 -10.1319 20
      vertex -7.64909 -9.24616 20
      vertex -5.53513 -11.7628 20
    endloop
  endfacet
  facet normal 0 0 1
    outer loop
      vertex -12 0 20
      vertex -11.9054 1.504 20
      vertex -12.8975 1.62933 20
    endloop
  endfacet
endsolid OpenSCAD_Model
