solid OpenSCAD_Model
  facet normal 0 0 -1
    outer loop
      vertex -9 -21.25 0
      vertex -8.77975 -19.8594 0
      vertex -8.77975 -22.6406 0
    endloop
  endfacet
  facet normal 0 0 -1
    outer loop
      vertex -8.77975 -22.6406 0
      vertex -8.77975 -19.8594 0
      vertex -8.14058 -18.605 0
    endloop
  endfacet
  facet normal 0 0 -1
    outer loop
      vertex -8.77975 -22.6406 0
      vertex -8.14058 -18.605 0
      vertex -7.14503 -17.6094 0
    endloop
  endfacet
  facet normal 0 0 -1
    outer loop
      vertex -8.77975 -22.6406 0
      vertex -7.14503 -17.6094 0
      vertex -5.89058 -16.9702 0
    endloop
  endfacet
  facet normal 0 0 -1
    outer loop
      vertex -8.77975 -22.6406 0
      vertex -5.89058 -16.9702 0
      vertex -4.5 -16.75 0
    endloop
  endfacet
  facet normal 0 0 -1
    outer loop
      vertex -4.5 -19.35 0
      vertex -4.5 -16.75 0
      vertex 0 -16.75 0
    endloop
  endfacet
  facet normal 0 0 -1
    outer loop
      vertex 0 -16.75 0
      vertex 0 25.75 0
      vertex 6 25.75 0
    endloop
  endfacet
  facet normal 0 0 -1
    outer loop
      vertex 0 -16.75 0
      vertex 6 25.75 0
      vertex 6 -25.75 0
    endloop
  endfacet
  facet normal 0 0 -1
    outer loop
      vertex -4.5 -23.15 0
      vertex 6 -25.75 0
      vertex -8.77975 -22.6406 0
    endloop
  endfacet
  facet normal 0 0 -1
    outer loop
      vertex -8.77975 -22.6406 0
      vertex 6 -25.75 0
      vertex -4.5 -25.75 0
    endloop
  endfacet
  facet normal 0 0 -1
    outer loop
      vertex -8.77975 -22.6406 0
      vertex -4.5 -25.75 0
      vertex -5.89058 -25.5298 0
    endloop
  endfacet
  facet normal 0 0 -1
    outer loop
      vertex -8.77975 -22.6406 0
      vertex -5.89058 -25.5298 0
      vertex -7.14503 -24.8906 0
    endloop
  endfacet
  facet normal 0 0 -1
    outer loop
      vertex -8.77975 -22.6406 0
      vertex -7.14503 -24.8906 0
      vertex -8.14058 -23.895 0
    endloop
  endfacet
  facet normal 0 0 -1
    outer loop
      vertex -4.5 -19.35 0
      vertex 0 -16.75 0
      vertex -3.1565 -19.9065 0
    endloop
  endfacet
  facet normal 0 0 -1
    outer loop
      vertex -3.1565 -22.5935 0
      vertex 6 -25.75 0
      vertex -4.5 -23.15 0
    endloop
  endfacet
  facet normal 0 0 -1
    outer loop
      vertex -2.6 -21.25 0
      vertex 6 -25.75 0
      vertex -3.1565 -22.5935 0
    endloop
  endfacet
  facet normal 0 0 -1
    outer loop
      vertex -6.4 -21.25 0
      vertex -5.8435 -22.5935 0
      vertex -8.77975 -22.6406 0
    endloop
  endfacet
  facet normal 0 0 -1
    outer loop
      vertex -5.8435 -22.5935 0
      vertex -4.5 -23.15 0
      vertex -8.77975 -22.6406 0
    endloop
  endfacet
  facet normal 0 0 -1
    outer loop
      vertex 0 -16.75 0
      vertex 6 -25.75 0
      vertex -2.6 -21.25 0
    endloop
  endfacet
  facet normal 0 0 -1
    outer loop
      vertex 0 -16.75 0
      vertex -2.6 -21.25 0
      vertex -3.1565 -19.9065 0
    endloop
  endfacet
  facet normal 0 0 -1
    outer loop
      vertex -5.8435 -19.9065 0
      vertex -4.5 -16.75 0
      vertex -4.5 -19.35 0
    endloop
  endfacet
  facet normal 0 0 -1
    outer loop
      vertex -8.77975 -22.6406 0
      vertex -4.5 -16.75 0
      vertex -5.8435 -19.9065 0
    endloop
  endfacet
  facet normal 0 0 -1
    outer loop
      vertex -6.4 -21.25 0
      vertex -8.77975 -22.6406 0
      vertex -5.8435 -19.9065 0
    endloop
  endfacet
  facet normal -0.987688 0.156435 0
    outer loop
      vertex -9 -21.25 0
      vertex -9 -21.25 3
      vertex -8.77975 -19.8594 0
    endloop
  endfacet
  facet normal -0.987688 0.156435 0
    outer loop
      vertex -8.77975 -19.8594 0
      vertex -9 -21.25 3
      vertex -8.77975 -19.8594 3
    endloop
  endfacet
  facet normal -0.987688 -0.156435 0
    outer loop
      vertex -9 -21.25 0
      vertex -8.77975 -22.6406 0
      vertex -9 -21.25 3
    endloop
  endfacet
  facet normal -0.987688 -0.156435 0
    outer loop
      vertex -9 -21.25 3
      vertex -8.77975 -22.6406 0
      vertex -8.77975 -22.6406 3
    endloop
  endfacet
  facet normal -0.891007 -0.45399 0
    outer loop
      vertex -8.77975 -22.6406 0
      vertex -8.14058 -23.895 0
      vertex -8.77975 -22.6406 3
    endloop
  endfacet
  facet normal -0.891007 -0.45399 0
    outer loop
      vertex -8.77975 -22.6406 3
      vertex -8.14058 -23.895 0
      vertex -8.14058 -23.895 3
    endloop
  endfacet
  facet normal -0.707107 -0.707107 0
    outer loop
      vertex -8.14058 -23.895 3
      vertex -8.14058 -23.895 0
      vertex -7.14503 -24.8906 0
    endloop
  endfacet
  facet normal -0.707107 -0.707107 0
    outer loop
      vertex -7.14503 -24.8906 3
      vertex -8.14058 -23.895 3
      vertex -7.14503 -24.8906 0
    endloop
  endfacet
  facet normal -0.45399 -0.891007 0
    outer loop
      vertex -7.14503 -24.8906 3
      vertex -7.14503 -24.8906 0
      vertex -5.89058 -25.5298 0
    endloop
  endfacet
  facet normal -0.45399 -0.891007 0
    outer loop
      vertex -5.89058 -25.5298 3
      vertex -7.14503 -24.8906 3
      vertex -5.89058 -25.5298 0
    endloop
  endfacet
  facet normal -0.156435 -0.987688 0
    outer loop
      vertex -5.89058 -25.5298 3
      vertex -5.89058 -25.5298 0
      vertex -4.5 -25.75 0
    endloop
  endfacet
  facet normal -0.156435 -0.987688 0
    outer loop
      vertex -4.5 -25.75 3
      vertex -5.89058 -25.5298 3
      vertex -4.5 -25.75 0
    endloop
  endfacet
  facet normal 0 -1 0
    outer loop
      vertex -4.5 -25.75 3
      vertex -4.5 -25.75 0
      vertex 6 -25.75 0
    endloop
  endfacet
  facet normal 0 -1 0
    outer loop
      vertex 0 -25.75 3
      vertex -4.5 -25.75 3
      vertex 6 -25.75 0
    endloop
  endfacet
  facet normal 0 -1 0
    outer loop
      vertex 6 -25.75 6
      vertex 0 -25.75 3
      vertex 6 -25.75 0
    endloop
  endfacet
  facet normal 0 -1 0
    outer loop
      vertex 0 -25.75 6
      vertex 0 -25.75 3
      vertex 6 -25.75 6
    endloop
  endfacet
  facet normal 1 0 0
    outer loop
      vertex 6 -25.75 6
      vertex 6 -25.75 0
      vertex 6 25.75 0
    endloop
  endfacet
  facet normal 1 0 0
    outer loop
      vertex 6 25.75 6
      vertex 6 -25.75 6
      vertex 6 25.75 0
    endloop
  endfacet
  facet normal 0 1 0
    outer loop
      vertex 0 25.75 0
      vertex 0 25.75 6
      vertex 6 25.75 0
    endloop
  endfacet
  facet normal 0 1 0
    outer loop
      vertex 6 25.75 0
      vertex 0 25.75 6
      vertex 6 25.75 6
    endloop
  endfacet
  facet normal -1 0 0
    outer loop
      vertex 0 25.75 6
      vertex 0 25.75 0
      vertex 0 -25.75 6
    endloop
  endfacet
  facet normal -1 0 0
    outer loop
      vertex 0 -16.75 3
      vertex 0 25.75 0
      vertex 0 -16.75 0
    endloop
  endfacet
  facet normal -1 0 0
    outer loop
      vertex 0 -25.75 6
      vertex 0 25.75 0
      vertex 0 -16.75 3
    endloop
  endfacet
  facet normal -1 0 0
    outer loop
      vertex 0 -25.75 3
      vertex 0 -25.75 6
      vertex 0 -16.75 3
    endloop
  endfacet
  facet normal 0 1 0
    outer loop
      vertex -4.5 -16.75 0
      vertex -4.5 -16.75 3
      vertex 0 -16.75 0
    endloop
  endfacet
  facet normal 0 1 0
    outer loop
      vertex 0 -16.75 0
      vertex -4.5 -16.75 3
      vertex 0 -16.75 3
    endloop
  endfacet
  facet normal -0.156435 0.987688 0
    outer loop
      vertex -5.89058 -16.9702 0
      vertex -5.89058 -16.9702 3
      vertex -4.5 -16.75 0
    endloop
  endfacet
  facet normal -0.156435 0.987688 0
    outer loop
      vertex -4.5 -16.75 0
      vertex -5.89058 -16.9702 3
      vertex -4.5 -16.75 3
    endloop
  endfacet
  facet normal -0.45399 0.891007 0
    outer loop
      vertex -7.14503 -17.6094 0
      vertex -7.14503 -17.6094 3
      vertex -5.89058 -16.9702 0
    endloop
  endfacet
  facet normal -0.45399 0.891007 0
    outer loop
      vertex -5.89058 -16.9702 0
      vertex -7.14503 -17.6094 3
      vertex -5.89058 -16.9702 3
    endloop
  endfacet
  facet normal -0.707107 0.707107 0
    outer loop
      vertex -8.14058 -18.605 0
      vertex -8.14058 -18.605 3
      vertex -7.14503 -17.6094 0
    endloop
  endfacet
  facet normal -0.707107 0.707107 0
    outer loop
      vertex -7.14503 -17.6094 0
      vertex -8.14058 -18.605 3
      vertex -7.14503 -17.6094 3
    endloop
  endfacet
  facet normal -0.891007 0.45399 0
    outer loop
      vertex -8.77975 -19.8594 0
      vertex -8.77975 -19.8594 3
      vertex -8.14058 -18.605 0
    endloop
  endfacet
  facet normal -0.891007 0.45399 0
    outer loop
      vertex -8.14058 -18.605 0
      vertex -8.77975 -19.8594 3
      vertex -8.14058 -18.605 3
    endloop
  endfacet
  facet normal 0.92388 0.382683 0
    outer loop
      vertex -6.4 -21.25 3
      vertex -5.8435 -22.5935 3
      vertex -5.8435 -22.5935 0
    endloop
  endfacet
  facet normal 0.92388 0.382683 0
    outer loop
      vertex -6.4 -21.25 0
      vertex -6.4 -21.25 3
      vertex -5.8435 -22.5935 0
    endloop
  endfacet
  facet normal 0.92388 -0.382683 0
    outer loop
      vertex -5.8435 -19.9065 0
      vertex -5.8435 -19.9065 3
      vertex -6.4 -21.25 3
    endloop
  endfacet
  facet normal 0.92388 -0.382683 0
    outer loop
      vertex -6.4 -21.25 0
      vertex -5.8435 -19.9065 0
      vertex -6.4 -21.25 3
    endloop
  endfacet
  facet normal 0.382683 -0.92388 0
    outer loop
      vertex -4.5 -19.35 0
      vertex -4.5 -19.35 3
      vertex -5.8435 -19.9065 3
    endloop
  endfacet
  facet normal 0.382683 -0.92388 0
    outer loop
      vertex -5.8435 -19.9065 0
      vertex -4.5 -19.35 0
      vertex -5.8435 -19.9065 3
    endloop
  endfacet
  facet normal -0.382683 -0.92388 0
    outer loop
      vertex -3.1565 -19.9065 0
      vertex -3.1565 -19.9065 3
      vertex -4.5 -19.35 3
    endloop
  endfacet
  facet normal -0.382683 -0.92388 0
    outer loop
      vertex -4.5 -19.35 0
      vertex -3.1565 -19.9065 0
      vertex -4.5 -19.35 3
    endloop
  endfacet
  facet normal -0.92388 -0.382683 0
    outer loop
      vertex -2.6 -21.25 3
      vertex -3.1565 -19.9065 3
      vertex -2.6 -21.25 0
    endloop
  endfacet
  facet normal -0.92388 -0.382683 0
    outer loop
      vertex -2.6 -21.25 0
      vertex -3.1565 -19.9065 3
      vertex -3.1565 -19.9065 0
    endloop
  endfacet
  facet normal -0.92388 0.382683 0
    outer loop
      vertex -2.6 -21.25 3
      vertex -2.6 -21.25 0
      vertex -3.1565 -22.5935 3
    endloop
  endfacet
  facet normal -0.92388 0.382683 0
    outer loop
      vertex -3.1565 -22.5935 3
      vertex -2.6 -21.25 0
      vertex -3.1565 -22.5935 0
    endloop
  endfacet
  facet normal -0.382683 0.92388 0
    outer loop
      vertex -3.1565 -22.5935 3
      vertex -3.1565 -22.5935 0
      vertex -4.5 -23.15 3
    endloop
  endfacet
  facet normal -0.382683 0.92388 0
    outer loop
      vertex -4.5 -23.15 3
      vertex -3.1565 -22.5935 0
      vertex -4.5 -23.15 0
    endloop
  endfacet
  facet normal 0.382683 0.92388 0
    outer loop
      vertex -4.5 -23.15 3
      vertex -4.5 -23.15 0
      vertex -5.8435 -22.5935 3
    endloop
  endfacet
  facet normal 0.382683 0.92388 0
    outer loop
      vertex -5.8435 -22.5935 3
      vertex -4.5 -23.15 0
      vertex -5.8435 -22.5935 0
    endloop
  endfacet
  facet normal 0 0 1
    outer loop
      vertex -8.77975 -19.8594 3
      vertex -9 -21.25 3
      vertex -8.77975 -22.6406 3
    endloop
  endfacet
  facet normal 0 0 1
    outer loop
      vertex -7.14503 -24.8906 3
      vertex -8.77975 -19.8594 3
      vertex -8.14058 -23.895 3
    endloop
  endfacet
  facet normal 0 0 1
    outer loop
      vertex -8.14058 -23.895 3
      vertex -8.77975 -19.8594 3
      vertex -8.77975 -22.6406 3
    endloop
  endfacet
  facet normal 0 0 1
    outer loop
      vertex -5.89058 -25.5298 3
      vertex -8.77975 -19.8594 3
      vertex -7.14503 -24.8906 3
    endloop
  endfacet
  facet normal 0 0 1
    outer loop
      vertex -4.5 -25.75 3
      vertex -8.77975 -19.8594 3
      vertex -5.89058 -25.5298 3
    endloop
  endfacet
  facet normal 0 0 1
    outer loop
      vertex -5.8435 -22.5935 3
      vertex -8.77975 -19.8594 3
      vertex -4.5 -25.75 3
    endloop
  endfacet
  facet normal 0 0 1
    outer loop
      vertex -4.5 -16.75 3
      vertex -8.77975 -19.8594 3
      vertex 0 -16.75 3
    endloop
  endfacet
  facet normal 0 0 1
    outer loop
      vertex -5.89058 -16.9702 3
      vertex -8.77975 -19.8594 3
      vertex -4.5 -16.75 3
    endloop
  endfacet
  facet normal 0 0 1
    outer loop
      vertex -7.14503 -17.6094 3
      vertex -8.77975 -19.8594 3
      vertex -5.89058 -16.9702 3
    endloop
  endfacet
  facet normal 0 0 1
    outer loop
      vertex -8.14058 -18.605 3
      vertex -8.77975 -19.8594 3
      vertex -7.14503 -17.6094 3
    endloop
  endfacet
  facet normal 0 0 1
    outer loop
      vertex 0 -25.75 3
      vertex -5.8435 -22.5935 3
      vertex -4.5 -25.75 3
    endloop
  endfacet
  facet normal 0 0 1
    outer loop
      vertex -5.8435 -19.9065 3
      vertex -8.77975 -19.8594 3
      vertex -6.4 -21.25 3
    endloop
  endfacet
  facet normal 0 0 1
    outer loop
      vertex 0 -16.75 3
      vertex -8.77975 -19.8594 3
      vertex -5.8435 -19.9065 3
    endloop
  endfacet
  facet normal 0 0 1
    outer loop
      vertex -3.1565 -22.5935 3
      vertex -4.5 -23.15 3
      vertex 0 -25.75 3
    endloop
  endfacet
  facet normal 0 0 1
    outer loop
      vertex 0 -16.75 3
      vertex -5.8435 -19.9065 3
      vertex -4.5 -19.35 3
    endloop
  endfacet
  facet normal 0 0 1
    outer loop
      vertex 0 -16.75 3
      vertex -3.1565 -19.9065 3
      vertex 0 -25.75 3
    endloop
  endfacet
  facet normal 0 0 1
    outer loop
      vertex -3.1565 -19.9065 3
      vertex -2.6 -21.25 3
      vertex 0 -25.75 3
    endloop
  endfacet
  facet normal 0 0 1
    outer loop
      vertex -2.6 -21.25 3
      vertex -3.1565 -22.5935 3
      vertex 0 -25.75 3
    endloop
  endfacet
  facet normal 0 0 1
    outer loop
      vertex 0 -25.75 3
      vertex -4.5 -23.15 3
      vertex -5.8435 -22.5935 3
    endloop
  endfacet
  facet normal 0 0 1
    outer loop
      vertex -4.5 -19.35 3
      vertex -3.1565 -19.9065 3
      vertex 0 -16.75 3
    endloop
  endfacet
  facet normal 0 0 1
    outer loop
      vertex -5.8435 -22.5935 3
      vertex -6.4 -21.25 3
      vertex -8.77975 -19.8594 3
    endloop
  endfacet
  facet normal 0 0 1
    outer loop
      vertex 0 25.75 6
      vertex 0 -25.75 6
      vertex 6 -25.75 6
    endloop
  endfacet
  facet normal 0 0 1
    outer loop
      vertex 6 25.75 6
      vertex 0 25.75 6
      vertex 6 -25.75 6
    endloop
  endfacet
endsolid OpenSCAD_Model
