999
DXF created by Inkscape
  0
SECTION
  2
HEADER
  9
$ACADVER
  1
AC1014
  9
$HANDSEED
  5
FFFF
  9
$MEASUREMENT
 70
     1
  0
ENDSEC
  0
SECTION
  2
TABLES
  0
TABLE
  2
VPORT
  5
8
330
0
100
AcDbSymbolTable
 70
     4
  0
VPORT
  5
2E
330
8
100
AcDbSymbolTableRecord
100
AcDbViewportTableRecord
  2
*ACTIVE
 70
     0
 10
0.0
 20
0.0
 11
1.0
 21
1.0
 12
210.0
 22
148.5
 13
0.0
 23
0.0
 14
10.0
 24
10.0
 15
10.0
 25
10.0
 16
0.0
 26
0.0
 36
1.0
 17
0.0
 27
0.0
 37
0.0
 40
341.0
 41
1.24
 42
50.0
 43
0.0
 44
0.0
 50
0.0
 51
0.0
 71
     0
 72
   100
 73
     1
 74
     3
 75
     0
 76
     0
 77
     0
 78
     0
  0
ENDTAB
  0
TABLE
  2
LTYPE
  5
5
330
0
100
AcDbSymbolTable
 70
     1
  0
LTYPE
  5
14
330
5
100
AcDbSymbolTableRecord
100
AcDbLinetypeTableRecord
  2
BYBLOCK
 70
     0
  3

 72
    65
 73
     0
 40
0.0
  0
LTYPE
  5
15
330
5
100
AcDbSymbolTableRecord
100
AcDbLinetypeTableRecord
  2
BYLAYER
 70
     0
  3

 72
    65
 73
     0
 40
0.0
  0
LTYPE
  5
16
330
5
100
AcDbSymbolTableRecord
100
AcDbLinetypeTableRecord
  2
CONTINUOUS
 70
     0
  3
Solid line
 72
    65
 73
     0
 40
0.0
  0
ENDTAB
  0
TABLE
  2
LAYER
  5
2
100
AcDbSymbolTable
 70
2
  0
LAYER
  5
50
100
AcDbSymbolTableRecord
100
AcDbLayerTableRecord
  2
0
 70
0
  6
CONTINUOUS
  0
LAYER
  5
51
100
AcDbSymbolTableRecord
100
AcDbLayerTableRecord
  2
Capa_1
 70
0
  6
CONTINUOUS
  0
ENDTAB
  0
TABLE
  2
STYLE
  5
3
330
0
100
AcDbSymbolTable
 70
     1
  0
STYLE
  5
11
330
3
100
AcDbSymbolTableRecord
100
AcDbTextStyleTableRecord
  2
STANDARD
 70
     0
 40
0.0
 41
1.0
 50
0.0
 71
     0
 42
2.5
  3
txt
  4

  0
ENDTAB
  0
TABLE
  2
VIEW
  5
6
330
0
100
AcDbSymbolTable
 70
     0
  0
ENDTAB
  0
TABLE
  2
UCS
  5
7
330
0
100
AcDbSymbolTable
 70
     0
  0
ENDTAB
  0
TABLE
  2
APPID
  5
9
330
0
100
AcDbSymbolTable
 70
     2
  0
APPID
  5
12
330
9
100
AcDbSymbolTableRecord
100
AcDbRegAppTableRecord
  2
ACAD
 70
     0
  0
ENDTAB
  0
TABLE
  2
DIMSTYLE
  5
A
330
0
100
AcDbSymbolTable
 70
     1
  0
DIMSTYLE
105
27
330
A
100
AcDbSymbolTableRecord
100
AcDbDimStyleTableRecord
  2
ISO-25
 70
     0
  3

  4

  5

  6

  7

 40
1.0
 41
2.5
 42
0.625
 43
3.75
 44
1.25
 45
0.0
 46
0.0
 47
0.0
 48
0.0
140
2.5
141
2.5
142
0.0
143
0.03937007874016
144
1.0
145
0.0
146
1.0
147
0.625
 71
     0
 72
     0
 73
     0
 74
     0
 75
     0
 76
     0
 77
     1
 78
     8
170
     0
171
     3
172
     1
173
     0
174
     0
175
     0
176
     0
177
     0
178
     0
270
     2
271
     2
272
     2
273
     2
274
     3
340
11
275
     0
280
     0
281
     0
282
     0
283
     0
284
     8
285
     0
286
     0
287
     3
288
     0
  0
ENDTAB
  0
TABLE
  2
BLOCK_RECORD
  5
1
330
0
100
AcDbSymbolTable
 70
     1
  0
BLOCK_RECORD
  5
1F
330
1
100
AcDbSymbolTableRecord
100
AcDbBlockTableRecord
  2
*MODEL_SPACE
  0
BLOCK_RECORD
  5
1B
330
1
100
AcDbSymbolTableRecord
100
AcDbBlockTableRecord
  2
*PAPER_SPACE
  0
ENDTAB
  0
ENDSEC
  0
SECTION
  2
BLOCKS
  0
BLOCK
  5
20
330
1F
100
AcDbEntity
  8
0
100
AcDbBlockBegin
  2
*MODEL_SPACE
 70
     0
 10
0.0
 20
0.0
 30
0.0
  3
*MODEL_SPACE
  1

  0
ENDBLK
  5
21
330
1F
100
AcDbEntity
  8
0
100
AcDbBlockEnd
  0
BLOCK
  5
1C
330
1B
100
AcDbEntity
 67
     1
  8
0
100
AcDbBlockBegin
  2
*PAPER_SPACE
  1

  0
ENDBLK
  5
1D
330
1B
100
AcDbEntity
 67
     1
  8
0
100
AcDbBlockEnd
  0
ENDSEC
  0
SECTION
  2
ENTITIES
  0
LWPOLYLINE
  5
100
100
AcDbEntity
  8
Capa_1
 62
7
100
AcDbPolyline
 90
89
 70
0
 10
11.625927
 20
16.007335
 30
0.0
 10
10.875216
 20
16.007335
 30
0.0
 10
10.124505
 20
16.007335
 30
0.0
 10
9.641902
 20
15.815424
 30
0.0
 10
9.481038
 20
15.239691
 30
0.0
 10
9.529013
 20
15.104224
 30
0.0
 10
9.672949
 20
15.059069
 30
0.0
 10
9.743502
 20
15.061891
 30
0.0
 10
9.842283
 20
15.070358
 30
0.0
 10
9.941058
 20
15.087291
 30
0.0
 10
10.011616
 20
15.092935
 30
0.0
 10
10.324880
 20
14.926424
 30
0.0
 10
10.429305
 20
14.426891
 30
0.0
 10
10.381324
 20
14.099513
 30
0.0
 10
10.237394
 20
13.839869
 30
0.0
 10
10.014435
 20
13.670535
 30
0.0
 10
9.729394
 20
13.614091
 30
0.0
 10
9.475391
 20
13.633846
 30
0.0
 10
9.029483
 20
13.693113
 30
0.0
 10
8.744435
 20
13.718513
 30
0.0
 10
8.363438
 20
13.726980
 30
0.0
 10
7.951394
 20
13.718513
 30
0.0
 10
7.640949
 20
13.693113
 30
0.0
 10
7.163994
 20
13.633846
 30
0.0
 10
6.929749
 20
13.614091
 30
0.0
 10
6.610838
 20
13.667713
 30
0.0
 10
6.354016
 20
13.828580
 30
0.0
 10
6.193149
 20
14.076935
 30
0.0
 10
6.139527
 20
14.393024
 30
0.0
 10
6.289105
 20
14.985694
 30
0.0
 10
6.737838
 20
15.183249
 30
0.0
 10
6.825327
 20
15.177605
 30
0.0
 10
6.952327
 20
15.160671
 30
0.0
 10
7.079327
 20
15.152205
 30
0.0
 10
7.166816
 20
15.149383
 30
0.0
 10
7.361549
 20
15.208649
 30
0.0
 10
7.516772
 20
15.386449
 30
0.0
 10
7.573216
 20
15.524738
 30
0.0
 10
7.674816
 20
15.804138
 30
0.0
 10
8.453749
 20
18.022405
 30
0.0
 10
9.232683
 20
20.240671
 30
0.0
 10
9.520547
 20
20.855910
 30
0.0
 10
9.842283
 20
21.188938
 30
0.0
 10
10.240213
 20
21.282066
 30
0.0
 10
10.937305
 20
21.313116
 30
0.0
 10
11.710591
 20
21.282066
 30
0.0
 10
12.133927
 20
21.188938
 30
0.0
 10
12.359702
 20
20.968799
 30
0.0
 10
12.540327
 20
20.534183
 30
0.0
 10
13.262816
 20
18.129649
 30
0.0
 10
13.985305
 20
15.725116
 30
0.0
 10
14.168744
 20
15.293316
 30
0.0
 10
14.380416
 20
15.149383
 30
0.0
 10
14.473544
 20
15.157849
 30
0.0
 10
14.617483
 20
15.183249
 30
0.0
 10
14.679572
 20
15.183249
 30
0.0
 10
14.741660
 20
15.183249
 30
0.0
 10
15.215788
 20
14.996983
 30
0.0
 10
15.373838
 20
14.438180
 30
0.0
 10
15.317388
 20
14.102335
 30
0.0
 10
15.148060
 20
13.839869
 30
0.0
 10
14.888410
 20
13.670535
 30
0.0
 10
14.561038
 20
13.614091
 30
0.0
 10
14.377588
 20
13.622558
 30
0.0
 10
14.143349
 20
13.647958
 30
0.0
 10
13.880877
 20
13.690291
 30
0.0
 10
13.725660
 20
13.704402
 30
0.0
 10
13.440610
 20
13.721335
 30
0.0
 10
13.082194
 20
13.726980
 30
0.0
 10
12.723769
 20
13.721335
 30
0.0
 10
12.506460
 20
13.704402
 30
0.0
 10
12.037969
 20
13.636669
 30
0.0
 10
11.783972
 20
13.614091
 30
0.0
 10
11.504566
 20
13.670535
 30
0.0
 10
11.275972
 20
13.839869
 30
0.0
 10
11.132035
 20
14.105158
 30
0.0
 10
11.084060
 20
14.426891
 30
0.0
 10
11.191302
 20
14.926427
 30
0.0
 10
11.513038
 20
15.092938
 30
0.0
 10
11.583591
 20
15.087294
 30
0.0
 10
11.682372
 20
15.070360
 30
0.0
 10
11.781147
 20
15.061894
 30
0.0
 10
11.851705
 20
15.059071
 30
0.0
 10
12.012569
 20
15.118338
 30
0.0
 10
12.066194
 20
15.296138
 30
0.0
 10
12.035147
 20
15.575538
 30
0.0
 10
11.942016
 20
15.804138
 30
0.0
 10
11.800902
 20
15.956538
 30
0.0
 10
11.625927
 20
16.007338
 30
0.0
  0
LWPOLYLINE
  5
101
100
AcDbEntity
  8
Capa_1
 62
7
100
AcDbPolyline
 90
15
 70
0
 10
11.456594
 20
17.734538
 30
0.0
 10
11.185660
 20
18.891649
 30
0.0
 10
10.914727
 20
20.048760
 30
0.0
 10
10.564772
 20
18.846494
 30
0.0
 10
10.214816
 20
17.644227
 30
0.0
 10
10.206349
 20
17.607538
 30
0.0
 10
10.203527
 20
17.565205
 30
0.0
 10
10.274080
 20
17.463602
 30
0.0
 10
10.485749
 20
17.429738
 30
0.0
 10
10.835705
 20
17.429738
 30
0.0
 10
11.185660
 20
17.429738
 30
0.0
 10
11.405791
 20
17.469246
 30
0.0
 10
11.479172
 20
17.587783
 30
0.0
 10
11.473527
 20
17.618824
 30
0.0
 10
11.456594
 20
17.734538
 30
0.0
  0
LWPOLYLINE
  5
102
100
AcDbEntity
  8
Capa_1
 62
7
100
AcDbPolyline
 90
87
 70
0
 10
17.922658
 20
18.998891
 30
0.0
 10
17.922658
 20
18.519113
 30
0.0
 10
17.922658
 20
18.039335
 30
0.0
 10
18.094813
 20
18.538866
 30
0.0
 10
18.295191
 20
18.886002
 30
0.0
 10
18.890677
 20
19.351666
 30
0.0
 10
19.683724
 20
19.506891
 30
0.0
 10
20.253810
 20
19.405285
 30
0.0
 10
20.722302
 20
19.100491
 30
0.0
 10
21.044033
 20
18.657399
 30
0.0
 10
21.151280
 20
18.118358
 30
0.0
 10
21.083544
 20
17.695021
 30
0.0
 10
20.880347
 20
17.350713
 30
0.0
 10
20.572722
 20
17.130577
 30
0.0
 10
20.191724
 20
17.057202
 30
0.0
 10
19.898210
 20
17.107999
 30
0.0
 10
19.649858
 20
17.260402
 30
0.0
 10
19.488988
 20
17.486177
 30
0.0
 10
19.435369
 20
17.757113
 30
0.0
 10
19.472055
 20
17.946199
 30
0.0
 10
19.582124
 20
18.197380
 30
0.0
 10
19.548258
 20
18.197380
 30
0.0
 10
19.514391
 20
18.197380
 30
0.0
 10
18.882210
 20
17.996999
 30
0.0
 10
18.498391
 20
17.395869
 30
0.0
 10
18.345988
 20
16.704421
 30
0.0
 10
18.295191
 20
15.917024
 30
0.0
 10
18.295191
 20
15.702535
 30
0.0
 10
18.295191
 20
15.488046
 30
0.0
 10
18.312124
 20
15.155024
 30
0.0
 10
18.362924
 20
14.968758
 30
0.0
 10
18.425010
 20
14.917958
 30
0.0
 10
18.520969
 20
14.901024
 30
0.0
 10
18.642322
 20
14.912313
 30
0.0
 10
18.803191
 20
14.946183
 30
0.0
 10
18.961233
 20
14.980049
 30
0.0
 10
19.074124
 20
14.991338
 30
0.0
 10
19.302722
 20
14.946183
 30
0.0
 10
19.491813
 20
14.810716
 30
0.0
 10
19.627277
 20
14.621624
 30
0.0
 10
19.672435
 20
14.393024
 30
0.0
 10
19.615988
 20
14.091046
 30
0.0
 10
19.446658
 20
13.839869
 30
0.0
 10
19.206766
 20
13.679002
 30
0.0
 10
18.916080
 20
13.625380
 30
0.0
 10
18.673366
 20
13.639491
 30
0.0
 10
18.283902
 20
13.681824
 30
0.0
 10
17.964991
 20
13.707224
 30
0.0
 10
17.572702
 20
13.715691
 30
0.0
 10
17.169124
 20
13.707224
 30
0.0
 10
16.816347
 20
13.681824
 30
0.0
 10
16.378902
 20
13.639491
 30
0.0
 10
16.150302
 20
13.625380
 30
0.0
 10
15.625369
 20
13.814469
 30
0.0
 10
15.450391
 20
14.381735
 30
0.0
 10
15.585858
 20
14.855869
 30
0.0
 10
15.992258
 20
15.013913
 30
0.0
 10
16.088213
 20
15.002624
 30
0.0
 10
16.195458
 20
14.968755
 30
0.0
 10
16.294235
 20
14.943355
 30
0.0
 10
16.364791
 20
14.934888
 30
0.0
 10
16.508724
 20
15.092933
 30
0.0
 10
16.556702
 20
15.567066
 30
0.0
 10
16.556702
 20
16.481466
 30
0.0
 10
16.556702
 20
17.395866
 30
0.0
 10
16.508724
 20
17.878463
 30
0.0
 10
16.364791
 20
18.039333
 30
0.0
 10
16.297058
 20
18.028044
 30
0.0
 10
16.184169
 20
17.994174
 30
0.0
 10
16.074102
 20
17.968774
 30
0.0
 10
15.992258
 20
17.960307
 30
0.0
 10
15.585858
 20
18.115527
 30
0.0
 10
15.450391
 20
18.581196
 30
0.0
 10
15.495547
 20
18.888816
 30
0.0
 10
15.631013
 20
19.134352
 30
0.0
 10
15.837035
 20
19.295216
 30
0.0
 10
16.093858
 20
19.348841
 30
0.0
 10
16.229324
 20
19.337552
 30
0.0
 10
16.409947
 20
19.303682
 30
0.0
 10
16.607502
 20
19.269813
 30
0.0
 10
16.793769
 20
19.258524
 30
0.0
 10
16.960280
 20
19.269813
 30
0.0
 10
17.188880
 20
19.303685
 30
0.0
 10
17.414658
 20
19.337549
 30
0.0
 10
17.572702
 20
19.348838
 30
0.0
 10
17.835166
 20
19.261346
 30
0.0
 10
17.922658
 20
18.998882
 30
0.0
  0
LWPOLYLINE
  5
103
100
AcDbEntity
  8
Capa_1
 62
7
100
AcDbPolyline
 90
67
 70
0
 10
23.733791
 20
19.427869
 30
0.0
 10
24.557877
 20
19.261355
 30
0.0
 10
25.314235
 20
18.761824
 30
0.0
 10
25.314235
 20
19.168224
 30
0.0
 10
25.314235
 20
19.574624
 30
0.0
 10
25.243677
 20
19.879419
 30
0.0
 10
25.032013
 20
19.981024
 30
0.0
 10
24.930410
 20
19.975380
 30
0.0
 10
24.761080
 20
19.958446
 30
0.0
 10
24.614322
 20
19.924574
 30
0.0
 10
24.467569
 20
19.913285
 30
0.0
 10
24.270010
 20
19.958435
 30
0.0
 10
24.106324
 20
20.093907
 30
0.0
 10
23.996255
 20
20.297105
 30
0.0
 10
23.959569
 20
20.545463
 30
0.0
 10
24.151477
 20
21.087324
 30
0.0
 10
24.727213
 20
21.267952
 30
0.0
 10
24.941699
 20
21.265130
 30
0.0
 10
25.088458
 20
21.256663
 30
0.0
 10
25.466633
 20
21.222791
 30
0.0
 10
25.698058
 20
21.211502
 30
0.0
 10
25.878677
 20
21.217146
 30
0.0
 10
26.127035
 20
21.234080
 30
0.0
 10
26.372566
 20
21.251013
 30
0.0
 10
26.544724
 20
21.256657
 30
0.0
 10
26.781785
 20
21.222785
 30
0.0
 10
26.928547
 20
21.121191
 30
0.0
 10
27.013208
 20
20.940563
 30
0.0
 10
27.041435
 20
20.647057
 30
0.0
 10
27.041435
 20
18.078835
 30
0.0
 10
27.041435
 20
15.510613
 30
0.0
 10
27.095052
 20
15.078813
 30
0.0
 10
27.255924
 20
14.934880
 30
0.0
 10
27.332122
 20
14.943346
 30
0.0
 10
27.425258
 20
14.968746
 30
0.0
 10
27.504274
 20
14.985680
 30
0.0
 10
27.605880
 20
14.991324
 30
0.0
 10
27.969941
 20
14.847391
 30
0.0
 10
28.091302
 20
14.415602
 30
0.0
 10
28.048963
 20
14.096691
 30
0.0
 10
27.921969
 20
13.839869
 30
0.0
 10
27.724408
 20
13.679002
 30
0.0
 10
27.470413
 20
13.625380
 30
0.0
 10
27.436547
 20
13.625380
 30
0.0
 10
27.402680
 20
13.625380
 30
0.0
 10
27.205124
 20
13.659246
 30
0.0
 10
27.007569
 20
13.693113
 30
0.0
 10
26.843874
 20
13.710046
 30
0.0
 10
26.623747
 20
13.715691
 30
0.0
 10
26.355633
 20
13.710046
 30
0.0
 10
26.138324
 20
13.693113
 30
0.0
 10
25.921008
 20
13.667713
 30
0.0
 10
25.833524
 20
13.659246
 30
0.0
 10
25.571052
 20
13.760846
 30
0.0
 10
25.483569
 20
14.065646
 30
0.0
 10
25.483569
 20
14.274491
 30
0.0
 10
25.483569
 20
14.483335
 30
0.0
 10
24.749788
 20
13.729802
 30
0.0
 10
23.722502
 20
13.478624
 30
0.0
 10
22.774233
 20
13.690291
 30
0.0
 10
22.006591
 20
14.325291
 30
0.0
 10
21.507058
 20
15.293302
 30
0.0
 10
21.340547
 20
16.481457
 30
0.0
 10
21.504235
 20
17.675255
 30
0.0
 10
21.995302
 20
18.615057
 30
0.0
 10
22.762947
 20
19.224655
 30
0.0
 10
23.733791
 20
19.427857
 30
0.0
  0
LWPOLYLINE
  5
104
100
AcDbEntity
  8
Capa_1
 62
7
100
AcDbPolyline
 90
19
 70
0
 10
24.128902
 20
18.005457
 30
0.0
 10
23.747899
 20
17.906677
 30
0.0
 10
23.440280
 20
17.610346
 30
0.0
 10
23.237077
 20
17.144677
 30
0.0
 10
23.146769
 20
16.537902
 30
0.0
 10
23.146766
 20
16.501210
 30
0.0
 10
23.146769
 20
16.391146
 30
0.0
 10
23.211677
 20
15.775902
 30
0.0
 10
23.406413
 20
15.307413
 30
0.0
 10
23.722499
 20
15.011080
 30
0.0
 10
24.128902
 20
14.912302
 30
0.0
 10
24.577633
 20
15.019546
 30
0.0
 10
24.930413
 20
15.341280
 30
0.0
 10
25.167477
 20
15.840813
 30
0.0
 10
25.246502
 20
16.481457
 30
0.0
 10
25.170297
 20
17.102343
 30
0.0
 10
24.941702
 20
17.587768
 30
0.0
 10
24.586099
 20
17.901032
 30
0.0
 10
24.128902
 20
18.005457
 30
0.0
  0
LWPOLYLINE
  5
105
100
AcDbEntity
  8
Capa_1
 62
7
100
AcDbPolyline
 90
85
 70
0
 10
32.897194
 20
13.986624
 30
0.0
 10
32.897194
 20
14.206758
 30
0.0
 10
32.897194
 20
14.426891
 30
0.0
 10
32.030769
 20
13.715691
 30
0.0
 10
30.921638
 20
13.478624
 30
0.0
 10
30.424924
 20
13.535069
 30
0.0
 10
29.973372
 20
13.704402
 30
0.0
 10
29.603660
 20
13.966869
 30
0.0
 10
29.352483
 20
14.302713
 30
0.0
 10
29.217013
 20
14.844580
 30
0.0
 10
29.171860
 20
15.702535
 30
0.0
 10
29.171860
 20
16.577424
 30
0.0
 10
29.171860
 20
17.452313
 30
0.0
 10
29.157749
 20
17.765577
 30
0.0
 10
29.115422
 20
17.915158
 30
0.0
 10
29.053333
 20
17.965955
 30
0.0
 10
28.957377
 20
17.982888
 30
0.0
 10
28.900933
 20
17.982888
 30
0.0
 10
28.844488
 20
17.982888
 30
0.0
 10
28.799333
 20
17.974421
 30
0.0
 10
28.731599
 20
17.971599
 30
0.0
 10
28.350599
 20
18.126821
 30
0.0
 10
28.223599
 20
18.592488
 30
0.0
 10
28.395755
 20
19.159752
 30
0.0
 10
28.912222
 20
19.348844
 30
0.0
 10
29.084377
 20
19.337555
 30
0.0
 10
29.329911
 20
19.303685
 30
0.0
 10
29.575441
 20
19.269816
 30
0.0
 10
29.747599
 20
19.258527
 30
0.0
 10
29.916930
 20
19.269816
 30
0.0
 10
30.153999
 20
19.303688
 30
0.0
 10
30.391063
 20
19.337552
 30
0.0
 10
30.560399
 20
19.348841
 30
0.0
 10
30.814397
 20
19.230305
 30
0.0
 10
30.899066
 20
18.874707
 30
0.0
 10
30.910355
 20
17.373285
 30
0.0
 10
30.921644
 20
15.871863
 30
0.0
 10
31.113552
 20
15.211463
 30
0.0
 10
31.621555
 20
14.991330
 30
0.0
 10
32.383552
 20
15.344107
 30
0.0
 10
32.637555
 20
16.402441
 30
0.0
 10
32.637555
 20
16.927374
 30
0.0
 10
32.637555
 20
17.452307
 30
0.0
 10
32.572641
 20
17.884105
 30
0.0
 10
32.377911
 20
18.028041
 30
0.0
 10
32.298886
 20
18.019574
 30
0.0
 10
32.197288
 20
17.994174
 30
0.0
 10
32.104152
 20
17.977241
 30
0.0
 10
32.027955
 20
17.971596
 30
0.0
 10
31.714686
 20
18.121171
 30
0.0
 10
31.610266
 20
18.569907
 30
0.0
 10
31.768308
 20
19.154105
 30
0.0
 10
32.242444
 20
19.348841
 30
0.0
 10
32.437174
 20
19.337552
 30
0.0
 10
32.705288
 20
19.303682
 30
0.0
 10
32.970572
 20
19.269813
 30
0.0
 10
33.156844
 20
19.258524
 30
0.0
 10
33.300774
 20
19.272635
 30
0.0
 10
33.642266
 20
19.314977
 30
0.0
 10
33.865216
 20
19.340377
 30
0.0
 10
34.014799
 20
19.348844
 30
0.0
 10
34.285727
 20
19.247241
 30
0.0
 10
34.376044
 20
18.942444
 30
0.0
 10
34.376044
 20
17.226533
 30
0.0
 10
34.376044
 20
15.510621
 30
0.0
 10
34.429660
 20
15.087288
 30
0.0
 10
34.590533
 20
14.946177
 30
0.0
 10
34.675194
 20
14.951821
 30
0.0
 10
34.748577
 20
14.968755
 30
0.0
 10
34.830416
 20
14.985688
 30
0.0
 10
34.940488
 20
14.991333
 30
0.0
 10
35.304549
 20
14.844577
 30
0.0
 10
35.425911
 20
14.404313
 30
0.0
 10
35.259394
 20
13.820113
 30
0.0
 10
34.759866
 20
13.625380
 30
0.0
 10
34.590527
 20
13.636669
 30
0.0
 10
34.353466
 20
13.670535
 30
0.0
 10
34.124860
 20
13.704402
 30
0.0
 10
33.958355
 20
13.715691
 30
0.0
 10
33.803127
 20
13.704402
 30
0.0
 10
33.585822
 20
13.670535
 30
0.0
 10
33.376972
 20
13.636669
 30
0.0
 10
33.224577
 20
13.625380
 30
0.0
 10
32.979041
 20
13.715691
 30
0.0
 10
32.897199
 20
13.986624
 30
0.0
  0
LWPOLYLINE
  5
106
100
AcDbEntity
  8
Capa_1
 62
7
100
AcDbPolyline
 90
83
 70
0
 10
3.305045
 20
10.678980
 30
0.0
 10
4.354909
 20
10.478602
 30
0.0
 10
5.156423
 20
9.877469
 30
0.0
 10
5.198759
 20
10.210491
 30
0.0
 10
5.303179
 20
10.419335
 30
0.0
 10
5.500731
 20
10.529402
 30
0.0
 10
5.799890
 20
10.566091
 30
0.0
 10
6.341753
 20
10.413691
 30
0.0
 10
6.522379
 20
9.956491
 30
0.0
 10
6.513912
 20
9.747646
 30
0.0
 10
6.488512
 20
9.459780
 30
0.0
 10
6.463112
 20
9.171913
 30
0.0
 10
6.454645
 20
8.963069
 30
0.0
 10
6.460290
 20
8.838891
 30
0.0
 10
6.477223
 20
8.669558
 30
0.0
 10
6.494156
 20
8.500224
 30
0.0
 10
6.499801
 20
8.376046
 30
0.0
 10
6.499801
 20
8.347824
 30
0.0
 10
6.499801
 20
8.319602
 30
0.0
 10
6.307887
 20
7.820069
 30
0.0
 10
5.732156
 20
7.653558
 30
0.0
 10
5.218509
 20
7.789024
 30
0.0
 10
4.964512
 20
8.195424
 30
0.0
 10
4.936290
 20
8.313958
 30
0.0
 10
4.908067
 20
8.432491
 30
0.0
 10
4.524242
 20
8.982824
 30
0.0
 10
3.711445
 20
9.166269
 30
0.0
 10
2.983312
 20
8.996935
 30
0.0
 10
2.740601
 20
8.488935
 30
0.0
 10
2.791401
 20
8.195424
 30
0.0
 10
2.943801
 20
8.014802
 30
0.0
 10
3.316331
 20
7.879335
 30
0.0
 10
4.004956
 20
7.721291
 30
0.0
 10
5.232620
 20
7.368513
 30
0.0
 10
6.070826
 20
6.874624
 30
0.0
 10
6.553420
 20
6.208580
 30
0.0
 10
6.714290
 20
5.339335
 30
0.0
 10
6.519553
 20
4.300758
 30
0.0
 10
5.935356
 20
3.465380
 30
0.0
 10
5.049176
 20
2.923513
 30
0.0
 10
3.948512
 20
2.742891
 30
0.0
 10
2.963556
 20
2.923513
 30
0.0
 10
2.018112
 20
3.465380
 30
0.0
 10
1.831845
 20
2.991246
 30
0.0
 10
1.340779
 20
2.833202
 30
0.0
 10
0.790445
 20
3.013824
 30
0.0
 10
0.607001
 20
3.555691
 30
0.0
 10
0.615467
 20
3.801224
 30
0.0
 10
0.640867
 20
4.063691
 30
0.0
 10
0.674734
 20
4.382602
 30
0.0
 10
0.686023
 20
4.616846
 30
0.0
 10
0.677556
 20
4.774891
 30
0.0
 10
0.652156
 20
5.000669
 30
0.0
 10
0.635223
 20
5.226446
 30
0.0
 10
0.629579
 20
5.384491
 30
0.0
 10
0.688845
 20
5.649780
 30
0.0
 10
0.866645
 20
5.858624
 30
0.0
 10
1.148867
 20
6.002558
 30
0.0
 10
1.498823
 20
6.050535
 30
0.0
 10
1.865712
 20
6.002558
 30
0.0
 10
2.108423
 20
5.858624
 30
0.0
 10
2.272112
 20
5.596158
 30
0.0
 10
2.379356
 20
5.170002
 30
0.0
 10
2.763179
 20
4.535002
 30
0.0
 10
3.666290
 20
4.323335
 30
0.0
 10
4.092442
 20
4.379780
 30
0.0
 10
4.422645
 20
4.549113
 30
0.0
 10
4.634309
 20
4.808758
 30
0.0
 10
4.704867
 20
5.136135
 30
0.0
 10
4.642776
 20
5.471980
 30
0.0
 10
4.456512
 20
5.689291
 30
0.0
 10
4.035998
 20
5.872735
 30
0.0
 10
3.271179
 20
6.084402
 30
0.0
 10
2.898648
 20
6.174713
 30
0.0
 10
2.526115
 20
6.265024
 30
0.0
 10
2.057623
 20
6.437180
 30
0.0
 10
1.623001
 20
6.705291
 30
0.0
 10
1.013401
 20
7.419313
 30
0.0
 10
0.810201
 20
8.342180
 30
0.0
 10
0.982356
 20
9.281980
 30
0.0
 10
1.498823
 20
10.024224
 30
0.0
 10
2.300334
 20
10.515291
 30
0.0
 10
3.305045
 20
10.678980
 30
0.0
  0
LWPOLYLINE
  5
107
100
AcDbEntity
  8
Capa_1
 62
7
100
AcDbPolyline
 90
135
 70
0
 10
10.079967
 20
10.114535
 30
0.0
 10
10.079967
 20
8.195424
 30
0.0
 10
10.079967
 20
6.276313
 30
0.0
 10
10.345256
 20
6.507735
 30
0.0
 10
10.610545
 20
6.739158
 30
0.0
 10
10.709320
 20
6.823824
 30
0.0
 10
10.870190
 20
6.964935
 30
0.0
 10
11.098787
 20
7.196358
 30
0.0
 10
11.174990
 20
7.371335
 30
0.0
 10
11.149590
 20
7.461646
 30
0.0
 10
11.073392
 20
7.551958
 30
0.0
 10
10.983081
 20
7.636624
 30
0.0
 10
10.892770
 20
7.721291
 30
0.0
 10
10.782701
 20
7.884980
 30
0.0
 10
10.746015
 20
8.105113
 30
0.0
 10
10.892767
 20
8.494580
 30
0.0
 10
11.333037
 20
8.624402
 30
0.0
 10
11.589856
 20
8.613113
 30
0.0
 10
11.953926
 20
8.579246
 30
0.0
 10
12.320809
 20
8.545380
 30
0.0
 10
12.586104
 20
8.534091
 30
0.0
 10
12.952987
 20
8.545380
 30
0.0
 10
13.398904
 20
8.579246
 30
0.0
 10
13.768609
 20
8.613113
 30
0.0
 10
13.906904
 20
8.624402
 30
0.0
 10
14.406431
 20
8.455069
 30
0.0
 10
14.572948
 20
7.947069
 30
0.0
 10
14.443120
 20
7.456002
 30
0.0
 10
14.053659
 20
7.292313
 30
0.0
 10
13.940765
 20
7.300780
 30
0.0
 10
13.805304
 20
7.326180
 30
0.0
 10
13.675476
 20
7.351580
 30
0.0
 10
13.579526
 20
7.360046
 30
0.0
 10
13.376320
 20
7.297958
 30
0.0
 10
13.082815
 20
7.111691
 30
0.0
 10
12.845748
 20
6.936713
 30
0.0
 10
12.608681
 20
6.761735
 30
0.0
 10
12.388545
 20
6.569824
 30
0.0
 10
12.315170
 20
6.423069
 30
0.0
 10
12.326459
 20
6.363802
 30
0.0
 10
12.360331
 20
6.298891
 30
0.0
 10
12.411131
 20
6.225513
 30
0.0
 10
12.461931
 20
6.152135
 30
0.0
 10
12.902198
 20
5.457869
 30
0.0
 10
13.342465
 20
4.763602
 30
0.0
 10
13.667015
 20
4.331802
 30
0.0
 10
13.918198
 20
4.187869
 30
0.0
 10
13.997215
 20
4.196335
 30
0.0
 10
14.098820
 20
4.221735
 30
0.0
 10
14.276615
 20
4.247135
 30
0.0
 10
14.335887
 20
4.255602
 30
0.0
 10
14.716881
 20
4.094735
 30
0.0
 10
14.843887
 20
3.612135
 30
0.0
 10
14.677370
 20
3.078735
 30
0.0
 10
14.177843
 20
2.900935
 30
0.0
 10
13.952059
 20
2.912224
 30
0.0
 10
13.635976
 20
2.946091
 30
0.0
 10
13.319881
 20
2.979958
 30
0.0
 10
13.094109
 20
2.991246
 30
0.0
 10
12.792126
 20
2.979958
 30
0.0
 10
12.495798
 20
2.946091
 30
0.0
 10
12.241795
 20
2.912224
 30
0.0
 10
12.066820
 20
2.900935
 30
0.0
 10
11.855151
 20
2.946091
 30
0.0
 10
11.671709
 20
3.081558
 30
0.0
 10
11.544706
 20
3.279113
 30
0.0
 10
11.502376
 20
3.510535
 30
0.0
 10
11.536240
 20
3.677046
 30
0.0
 10
11.637843
 20
3.905646
 30
0.0
 10
11.697106
 20
4.015713
 30
0.0
 10
11.716862
 20
4.120135
 30
0.0
 10
11.654770
 20
4.309224
 30
0.0
 10
11.468506
 20
4.605558
 30
0.0
 10
11.282240
 20
4.865202
 30
0.0
 10
11.095973
 20
5.124846
 30
0.0
 10
10.923815
 20
5.344980
 30
0.0
 10
10.836329
 20
5.418358
 30
0.0
 10
10.692392
 20
5.364735
 30
0.0
 10
10.486373
 20
5.203869
 30
0.0
 10
10.283173
 20
5.017602
 30
0.0
 10
10.079973
 20
4.831335
 30
0.0
 10
10.079973
 20
4.718446
 30
0.0
 10
10.079973
 20
4.605558
 30
0.0
 10
10.125126
 20
4.283824
 30
0.0
 10
10.260595
 20
4.176580
 30
0.0
 10
10.342437
 20
4.185046
 30
0.0
 10
10.452506
 20
4.210446
 30
0.0
 10
10.565392
 20
4.235846
 30
0.0
 10
10.655706
 20
4.244313
 30
0.0
 10
11.002837
 20
4.108846
 30
0.0
 10
11.118551
 20
3.702446
 30
0.0
 10
10.957681
 20
3.101313
 30
0.0
 10
10.475084
 20
2.900935
 30
0.0
 10
10.274704
 20
2.912224
 30
0.0
 10
9.989662
 20
2.946091
 30
0.0
 10
9.586084
 20
2.979958
 30
0.0
 10
9.030106
 20
2.991246
 30
0.0
 10
8.708373
 20
2.982780
 30
0.0
 10
8.443084
 20
2.957380
 30
0.0
 10
8.121351
 20
2.915046
 30
0.0
 10
7.923795
 20
2.900935
 30
0.0
 10
7.647218
 20
2.951735
 30
0.0
 10
7.427084
 20
3.104135
 30
0.0
 10
7.283151
 20
3.346846
 30
0.0
 10
7.235173
 20
3.646002
 30
0.0
 10
7.373462
 20
4.128602
 30
0.0
 10
7.788329
 20
4.289469
 30
0.0
 10
7.853234
 20
4.272535
 30
0.0
 10
8.070551
 20
4.221735
 30
0.0
 10
8.112884
 20
4.213269
 30
0.0
 10
8.149573
 20
4.210446
 30
0.0
 10
8.301973
 20
4.368491
 30
0.0
 10
8.352773
 20
4.842624
 30
0.0
 10
8.352773
 20
6.722224
 30
0.0
 10
8.352773
 20
8.601824
 30
0.0
 10
8.304795
 20
9.075958
 30
0.0
 10
8.160862
 20
9.234002
 30
0.0
 10
8.070551
 20
9.222713
 30
0.0
 10
7.957662
 20
9.188846
 30
0.0
 10
7.878640
 20
9.171913
 30
0.0
 10
7.777040
 20
9.166269
 30
0.0
 10
7.370640
 20
9.321491
 30
0.0
 10
7.235173
 20
9.787158
 30
0.0
 10
7.415795
 20
10.354424
 30
0.0
 10
7.957662
 20
10.543513
 30
0.0
 10
8.129818
 20
10.537869
 30
0.0
 10
8.285040
 20
10.520935
 30
0.0
 10
8.606773
 20
10.478602
 30
0.0
 10
8.849484
 20
10.464491
 30
0.0
 10
9.052684
 20
10.475780
 30
0.0
 10
9.346195
 20
10.509646
 30
0.0
 10
9.569148
 20
10.535046
 30
0.0
 10
9.718729
 20
10.543513
 30
0.0
 10
9.989659
 20
10.436269
 30
0.0
 10
10.079973
 20
10.114535
 30
0.0
  0
LWPOLYLINE
  5
108
100
AcDbEntity
  8
Capa_1
 62
7
100
AcDbPolyline
 90
101
 70
0
 10
17.573848
 20
6.919780
 30
0.0
 10
17.957670
 20
5.706224
 30
0.0
 10
18.341492
 20
4.492669
 30
0.0
 10
18.725315
 20
5.655424
 30
0.0
 10
19.109137
 20
6.818180
 30
0.0
 10
19.176867
 20
7.055246
 30
0.0
 10
19.199445
 20
7.224580
 30
0.0
 10
19.154287
 20
7.334646
 30
0.0
 10
19.018820
 20
7.416491
 30
0.0
 10
18.917223
 20
7.456002
 30
0.0
 10
18.815623
 20
7.495513
 30
0.0
 10
18.637817
 20
7.659202
 30
0.0
 10
18.578553
 20
7.969646
 30
0.0
 10
18.618062
 20
8.226469
 30
0.0
 10
18.736598
 20
8.432491
 30
0.0
 10
18.925684
 20
8.576424
 30
0.0
 10
19.154287
 20
8.624402
 30
0.0
 10
19.368773
 20
8.613113
 30
0.0
 10
19.673576
 20
8.579246
 30
0.0
 10
19.978373
 20
8.545380
 30
0.0
 10
20.192865
 20
8.534091
 30
0.0
 10
20.418639
 20
8.545380
 30
0.0
 10
20.734734
 20
8.579246
 30
0.0
 10
21.050817
 20
8.613113
 30
0.0
 10
21.276598
 20
8.624402
 30
0.0
 10
21.784595
 20
8.440958
 30
0.0
 10
21.953934
 20
7.890624
 30
0.0
 10
21.914417
 20
7.645091
 30
0.0
 10
21.795890
 20
7.427780
 30
0.0
 10
21.632195
 20
7.283846
 30
0.0
 10
21.434642
 20
7.235869
 30
0.0
 10
21.372548
 20
7.241513
 30
0.0
 10
21.276598
 20
7.258446
 30
0.0
 10
21.189106
 20
7.275380
 30
0.0
 10
21.129842
 20
7.281024
 30
0.0
 10
20.946395
 20
7.196358
 30
0.0
 10
20.802465
 20
6.942358
 30
0.0
 10
20.729087
 20
6.744802
 30
0.0
 10
20.655709
 20
6.547246
 30
0.0
 10
20.170287
 20
5.282891
 30
0.0
 10
19.684865
 20
4.018535
 30
0.0
 10
19.301039
 20
3.050513
 30
0.0
 10
19.052687
 20
2.494535
 30
0.0
 10
18.843839
 20
2.127646
 30
0.0
 10
18.555976
 20
1.726891
 30
0.0
 10
17.551265
 20
0.871758
 30
0.0
 10
16.343356
 20
0.586713
 30
0.0
 10
15.612398
 20
0.682669
 30
0.0
 10
15.022556
 20
0.970535
 30
0.0
 10
14.633090
 20
1.407980
 30
0.0
 10
14.503265
 20
1.952669
 30
0.0
 10
14.568176
 20
2.333669
 30
0.0
 10
14.762909
 20
2.641291
 30
0.0
 10
15.067709
 20
2.836024
 30
0.0
 10
15.440242
 20
2.900935
 30
0.0
 10
15.756331
 20
2.850135
 30
0.0
 10
16.004687
 20
2.697735
 30
0.0
 10
16.165553
 20
2.455024
 30
0.0
 10
16.219178
 20
2.155869
 30
0.0
 10
16.213534
 20
2.031691
 30
0.0
 10
16.196601
 20
1.907513
 30
0.0
 10
16.340534
 20
1.856713
 30
0.0
 10
16.478823
 20
1.839780
 30
0.0
 10
16.775156
 20
1.930091
 30
0.0
 10
17.054556
 20
2.201024
 30
0.0
 10
17.266223
 20
2.534046
 30
0.0
 10
17.336778
 20
2.810624
 30
0.0
 10
17.240823
 20
3.208558
 30
0.0
 10
16.952956
 20
3.950802
 30
0.0
 10
16.320778
 20
5.446580
 30
0.0
 10
15.688601
 20
6.942358
 30
0.0
 10
15.553134
 20
7.179424
 30
0.0
 10
15.417667
 20
7.258446
 30
0.0
 10
15.369687
 20
7.252802
 30
0.0
 10
15.248337
 20
7.235869
 30
0.0
 10
15.231404
 20
7.235869
 30
0.0
 10
15.203181
 20
7.235869
 30
0.0
 10
15.172137
 20
7.227402
 30
0.0
 10
15.146737
 20
7.224580
 30
0.0
 10
14.714934
 20
7.385446
 30
0.0
 10
14.571001
 20
7.868046
 30
0.0
 10
14.618981
 20
8.158735
 30
0.0
 10
14.762912
 20
8.398624
 30
0.0
 10
14.988690
 20
8.567958
 30
0.0
 10
15.259623
 20
8.624402
 30
0.0
 10
15.482578
 20
8.613113
 30
0.0
 10
15.790201
 20
8.579275
 30
0.0
 10
16.106290
 20
8.545408
 30
0.0
 10
16.332067
 20
8.534119
 30
0.0
 10
16.619934
 20
8.545408
 30
0.0
 10
17.054556
 20
8.579275
 30
0.0
 10
17.444023
 20
8.613141
 30
0.0
 10
17.596426
 20
8.624430
 30
0.0
 10
18.062090
 20
8.460741
 30
0.0
 10
18.217312
 20
7.969675
 30
0.0
 10
18.098776
 20
7.602786
 30
0.0
 10
17.743178
 20
7.427808
 30
0.0
 10
17.565378
 20
7.360075
 30
0.0
 10
17.506115
 20
7.224608
 30
0.0
 10
17.523048
 20
7.103252
 30
0.0
 10
17.573845
 20
6.919808
 30
0.0
  0
LWPOLYLINE
  5
109
100
AcDbEntity
  8
Capa_1
 62
7
100
AcDbPolyline
 90
75
 70
0
 10
29.462637
 20
8.669558
 30
0.0
 10
29.115498
 20
7.656380
 30
0.0
 10
28.074104
 20
7.100402
 30
0.0
 10
28.215215
 20
7.043958
 30
0.0
 10
28.356326
 20
6.987513
 30
0.0
 10
29.087276
 20
6.581113
 30
0.0
 10
29.519081
 20
6.061824
 30
0.0
 10
29.679942
 20
5.613091
 30
0.0
 10
29.733570
 20
5.147424
 30
0.0
 10
29.538831
 20
4.193513
 30
0.0
 10
28.954637
 20
3.476669
 30
0.0
 10
28.031765
 20
3.036402
 30
0.0
 10
26.798459
 20
2.889646
 30
0.0
 10
26.346901
 20
2.898113
 30
0.0
 10
25.872770
 20
2.923513
 30
0.0
 10
25.472015
 20
2.951735
 30
0.0
 10
25.071259
 20
2.979958
 30
0.0
 10
24.741056
 20
2.996891
 30
0.0
 10
24.382637
 20
3.002535
 30
0.0
 10
24.049612
 20
2.988424
 30
0.0
 10
23.592415
 20
2.946091
 30
0.0
 10
23.146504
 20
2.903758
 30
0.0
 10
22.847348
 20
2.889646
 30
0.0
 10
22.802192
 20
2.889646
 30
0.0
 10
22.757037
 20
2.889646
 30
0.0
 10
22.429659
 20
2.946091
 30
0.0
 10
22.170015
 20
3.115424
 30
0.0
 10
22.009148
 20
3.377891
 30
0.0
 10
21.955526
 20
3.713735
 30
0.0
 10
21.997859
 20
4.004424
 30
0.0
 10
22.124859
 20
4.244313
 30
0.0
 10
22.325237
 20
4.405180
 30
0.0
 10
22.565126
 20
4.458802
 30
0.0
 10
22.683659
 20
4.447513
 30
0.0
 10
22.836059
 20
4.413646
 30
0.0
 10
22.994104
 20
4.388246
 30
0.0
 10
23.106992
 20
4.379780
 30
0.0
 10
23.335590
 20
4.571691
 30
0.0
 10
23.411792
 20
5.147424
 30
0.0
 10
23.411792
 20
6.710935
 30
0.0
 10
23.411792
 20
8.274446
 30
0.0
 10
23.335590
 20
8.841713
 30
0.0
 10
23.106992
 20
9.030802
 30
0.0
 10
22.994104
 20
9.019513
 30
0.0
 10
22.836059
 20
8.985646
 30
0.0
 10
22.683659
 20
8.960246
 30
0.0
 10
22.565126
 20
8.951780
 30
0.0
 10
22.325237
 20
9.005402
 30
0.0
 10
22.124859
 20
9.166269
 30
0.0
 10
21.997859
 20
9.406158
 30
0.0
 10
21.955526
 20
9.696846
 30
0.0
 10
22.009148
 20
10.032691
 30
0.0
 10
22.170015
 20
10.295158
 30
0.0
 10
22.429659
 20
10.472958
 30
0.0
 10
22.757037
 20
10.532224
 30
0.0
 10
22.779615
 20
10.532224
 30
0.0
 10
22.802192
 20
10.532224
 30
0.0
 10
22.830415
 20
10.523758
 30
0.0
 10
22.847348
 20
10.520935
 30
0.0
 10
23.248104
 20
10.481424
 30
0.0
 10
23.648859
 20
10.441913
 30
0.0
 10
24.043967
 20
10.416513
 30
0.0
 10
24.551970
 20
10.408046
 30
0.0
 10
24.947078
 20
10.413691
 30
0.0
 10
25.251881
 20
10.430624
 30
0.0
 10
25.635704
 20
10.464491
 30
0.0
 10
26.019526
 20
10.498358
 30
0.0
 10
26.338434
 20
10.515291
 30
0.0
 10
26.775881
 20
10.520935
 30
0.0
 10
27.484256
 20
10.481424
 30
0.0
 10
28.119259
 20
10.362891
 30
0.0
 10
28.661120
 20
10.125824
 30
0.0
 10
29.090104
 20
9.730713
 30
0.0
 10
29.369498
 20
9.234002
 30
0.0
 10
29.462637
 20
8.669558
 30
0.0
  0
LWPOLYLINE
  5
10a
100
AcDbEntity
  8
Capa_1
 62
7
100
AcDbPolyline
 90
19
 70
0
 10
25.353481
 20
7.913202
 30
0.0
 10
25.376059
 20
7.729758
 30
0.0
 10
25.443795
 20
7.630980
 30
0.0
 10
25.542570
 20
7.597113
 30
0.0
 10
25.726017
 20
7.585824
 30
0.0
 10
25.900995
 20
7.585824
 30
0.0
 10
26.075973
 20
7.585824
 30
0.0
 10
26.600904
 20
7.639446
 30
0.0
 10
27.001662
 20
7.800313
 30
0.0
 10
27.264126
 20
8.051491
 30
0.0
 10
27.351617
 20
8.376046
 30
0.0
 10
27.058101
 20
8.943313
 30
0.0
 10
26.177573
 20
9.132402
 30
0.0
 10
25.816326
 20
9.115469
 30
0.0
 10
25.590551
 20
9.064669
 30
0.0
 10
25.412748
 20
8.886869
 30
0.0
 10
25.353484
 20
8.579246
 30
0.0
 10
25.353484
 20
8.246224
 30
0.0
 10
25.353484
 20
7.913202
 30
0.0
  0
LWPOLYLINE
  5
10b
100
AcDbEntity
  8
Capa_1
 62
7
100
AcDbPolyline
 90
21
 70
0
 10
27.622551
 20
5.226446
 30
0.0
 10
27.518126
 20
5.644135
 30
0.0
 10
27.204862
 20
5.971513
 30
0.0
 10
26.719437
 20
6.183180
 30
0.0
 10
26.098551
 20
6.253735
 30
0.0
 10
25.929217
 20
6.253735
 30
0.0
 10
25.759884
 20
6.253735
 30
0.0
 10
25.553859
 20
6.233980
 30
0.0
 10
25.432506
 20
6.174713
 30
0.0
 10
25.373237
 20
6.073113
 30
0.0
 10
25.353481
 20
5.903780
 30
0.0
 10
25.353481
 20
5.491735
 30
0.0
 10
25.353481
 20
5.079691
 30
0.0
 10
25.415567
 20
4.715624
 30
0.0
 10
25.601837
 20
4.481380
 30
0.0
 10
25.951790
 20
4.362846
 30
0.0
 10
26.504948
 20
4.323335
 30
0.0
 10
26.953678
 20
4.385424
 30
0.0
 10
27.306459
 20
4.571691
 30
0.0
 10
27.543523
 20
4.859558
 30
0.0
 10
27.622548
 20
5.226446
 30
0.0
  0
LWPOLYLINE
  5
10c
100
AcDbEntity
  8
Capa_1
 62
7
100
AcDbPolyline
 90
17
 70
0
 10
33.403517
 20
2.754180
 30
0.0
 10
32.161740
 20
2.951735
 30
0.0
 10
31.236051
 20
3.544402
 30
0.0
 10
30.668784
 20
4.495491
 30
0.0
 10
30.479695
 20
5.768313
 30
0.0
 10
30.668784
 20
7.032669
 30
0.0
 10
31.236051
 20
7.980935
 30
0.0
 10
32.144806
 20
8.582069
 30
0.0
 10
33.358362
 20
8.782446
 30
0.0
 10
34.557803
 20
8.584891
 30
0.0
 10
35.469384
 20
7.992224
 30
0.0
 10
36.053578
 20
7.055246
 30
0.0
 10
36.248317
 20
5.824758
 30
0.0
 10
36.059226
 20
4.537824
 30
0.0
 10
35.491962
 20
3.566980
 30
0.0
 10
34.597315
 20
2.957380
 30
0.0
 10
33.403517
 20
2.754180
 30
0.0
  0
LWPOLYLINE
  5
10d
100
AcDbEntity
  8
Capa_1
 62
7
100
AcDbPolyline
 90
13
 70
0
 10
33.358362
 20
7.393913
 30
0.0
 10
32.912448
 20
7.283846
 30
0.0
 10
32.568140
 20
6.953646
 30
0.0
 10
32.356470
 20
6.442824
 30
0.0
 10
32.285917
 20
5.768313
 30
0.0
 10
32.356470
 20
5.085335
 30
0.0
 10
32.568140
 20
4.571691
 30
0.0
 10
32.918092
 20
4.249958
 30
0.0
 10
33.380940
 20
4.142713
 30
0.0
 10
34.168337
 20
4.549113
 30
0.0
 10
34.430806
 20
5.768313
 30
0.0
 10
34.162692
 20
6.987513
 30
0.0
 10
33.358362
 20
7.393913
 30
0.0
  0
LWPOLYLINE
  5
10e
100
AcDbEntity
  8
Capa_1
 62
7
100
AcDbPolyline
 90
83
 70
0
 10
39.256279
 20
7.077824
 30
0.0
 10
39.256279
 20
6.846402
 30
0.0
 10
39.256279
 20
6.614980
 30
0.0
 10
39.250634
 20
6.265024
 30
0.0
 10
39.244990
 20
5.915069
 30
0.0
 10
39.233701
 20
5.536891
 30
0.0
 10
39.222412
 20
5.158713
 30
0.0
 10
39.213945
 20
4.896246
 30
0.0
 10
39.211123
 20
4.853913
 30
0.0
 10
39.318367
 20
4.354380
 30
0.0
 10
39.640101
 20
4.187869
 30
0.0
 10
39.944898
 20
4.337446
 30
0.0
 10
40.046501
 20
4.786180
 30
0.0
 10
40.043679
 20
4.865202
 30
0.0
 10
40.035212
 20
4.921646
 30
0.0
 10
40.035206
 20
4.986558
 30
0.0
 10
40.035212
 20
5.068402
 30
0.0
 10
40.026745
 20
5.136135
 30
0.0
 10
40.023923
 20
5.181291
 30
0.0
 10
40.176323
 20
5.638491
 30
0.0
 10
40.633526
 20
5.790891
 30
0.0
 10
41.166920
 20
5.505846
 30
0.0
 10
41.344723
 20
4.650713
 30
0.0
 10
41.212079
 20
3.854846
 30
0.0
 10
40.814145
 20
3.250891
 30
0.0
 10
40.179142
 20
2.878358
 30
0.0
 10
39.335301
 20
2.754180
 30
0.0
 10
37.938301
 20
3.245246
 30
0.0
 10
37.472634
 20
4.718446
 30
0.0
 10
37.478279
 20
5.113558
 30
0.0
 10
37.495212
 20
5.666713
 30
0.0
 10
37.520612
 20
6.219869
 30
0.0
 10
37.529079
 20
6.614980
 30
0.0
 10
37.529079
 20
6.795602
 30
0.0
 10
37.529079
 20
6.976224
 30
0.0
 10
37.514967
 20
7.204824
 30
0.0
 10
37.472637
 20
7.326180
 30
0.0
 10
37.390792
 20
7.385446
 30
0.0
 10
37.235570
 20
7.405202
 30
0.0
 10
37.145259
 20
7.405202
 30
0.0
 10
37.054948
 20
7.405202
 30
0.0
 10
36.860215
 20
7.444713
 30
0.0
 10
36.704992
 20
7.563246
 30
0.0
 10
36.603392
 20
7.755158
 30
0.0
 10
36.569526
 20
7.992224
 30
0.0
 10
36.603392
 20
8.232113
 30
0.0
 10
36.704992
 20
8.432491
 30
0.0
 10
36.863037
 20
8.576424
 30
0.0
 10
37.043659
 20
8.624402
 30
0.0
 10
37.150904
 20
8.624402
 30
0.0
 10
37.258148
 20
8.624402
 30
0.0
 10
37.472637
 20
8.663913
 30
0.0
 10
37.574237
 20
8.782446
 30
0.0
 10
37.599637
 20
8.903802
 30
0.0
 10
37.608104
 20
9.087246
 30
0.0
 10
37.608104
 20
9.363824
 30
0.0
 10
37.608104
 20
9.640402
 30
0.0
 10
37.658904
 20
9.973424
 30
0.0
 10
37.811306
 20
10.182269
 30
0.0
 10
38.110459
 20
10.292335
 30
0.0
 10
38.578948
 20
10.329024
 30
0.0
 10
38.909148
 20
10.300802
 30
0.0
 10
39.109526
 20
10.216135
 30
0.0
 10
39.219592
 20
10.035513
 30
0.0
 10
39.256284
 20
9.719424
 30
0.0
 10
39.256284
 20
9.414624
 30
0.0
 10
39.256284
 20
9.109824
 30
0.0
 10
39.270395
 20
8.844535
 30
0.0
 10
39.312734
 20
8.703424
 30
0.0
 10
39.428445
 20
8.644158
 30
0.0
 10
39.640112
 20
8.624402
 30
0.0
 10
40.046512
 20
8.624402
 30
0.0
 10
40.452912
 20
8.624402
 30
0.0
 10
40.952443
 20
8.469180
 30
0.0
 10
41.118957
 20
8.003513
 30
0.0
 10
40.966554
 20
7.554780
 30
0.0
 10
40.509359
 20
7.405202
 30
0.0
 10
40.046512
 20
7.405202
 30
0.0
 10
39.583668
 20
7.405202
 30
0.0
 10
39.394576
 20
7.385446
 30
0.0
 10
39.301445
 20
7.326180
 30
0.0
 10
39.267579
 20
7.224580
 30
0.0
 10
39.256290
 20
7.077824
 30
0.0
  0
ENDSEC
  0
SECTION
  2
OBJECTS
  0
DICTIONARY
  5
C
330
0
100
AcDbDictionary
  3
ACAD_GROUP
350
D
  3
ACAD_MLINESTYLE
350
17
  0
DICTIONARY
  5
D
330
C
100
AcDbDictionary
  0
DICTIONARY
  5
1A
330
C
100
AcDbDictionary
  0
DICTIONARY
  5
17
330
C
100
AcDbDictionary
  3
STANDARD
350
18
  0
DICTIONARY
  5
19
330
C
100
AcDbDictionary
  0
ENDSEC
  0
EOF
