  0
SECTION
  2
HEADER
  9
$ACADVER
  1
AC1014
  9
$HANDSEED
  5
FFFF
  9
$MEASUREMENT
 70
     1
  0
ENDSEC
  0
SECTION
  2
TABLES
  0
TABLE
  2
VPORT
  5
8
330
0
100
AcDbSymbolTable
 70
     4
  0
VPORT
  5
2E
330
8
100
AcDbSymbolTableRecord
100
AcDbViewportTableRecord
  2
*ACTIVE
 70
     0
 10
0.0
 20
0.0
 11
1.0
 21
1.0
 12
210.0
 22
148.5
 13
0.0
 23
0.0
 14
10.0
 24
10.0
 15
10.0
 25
10.0
 16
0.0
 26
0.0
 36
1.0
 17
0.0
 27
0.0
 37
0.0
 40
341.0
 41
1.24
 42
50.0
 43
0.0
 44
0.0
 50
0.0
 51
0.0
 71
     0
 72
   100
 73
     1
 74
     3
 75
     0
 76
     0
 77
     0
 78
     0
  0
ENDTAB
  0
TABLE
  2
LTYPE
  5
5
330
0
100
AcDbSymbolTable
 70
     1
  0
LTYPE
  5
14
330
5
100
AcDbSymbolTableRecord
100
AcDbLinetypeTableRecord
  2
BYBLOCK
 70
     0
  3

 72
    65
 73
     0
 40
0.0
  0
LTYPE
  5
15
330
5
100
AcDbSymbolTableRecord
100
AcDbLinetypeTableRecord
  2
BYLAYER
 70
     0
  3

 72
    65
 73
     0
 40
0.0
  0
LTYPE
  5
16
330
5
100
AcDbSymbolTableRecord
100
AcDbLinetypeTableRecord
  2
CONTINUOUS
 70
     0
  3
Solid line
 72
    65
 73
     0
 40
0.0
  0
ENDTAB
  0
TABLE
  2
LAYER
  5
2
100
AcDbSymbolTable
 70
2
  0
LAYER
  5
50
100
AcDbSymbolTableRecord
100
AcDbLayerTableRecord
  2
0
 70
0
  6
CONTINUOUS
  0
LAYER
  5
51
100
AcDbSymbolTableRecord
100
AcDbLayerTableRecord
  2
Capa_1
 70
0
  6
CONTINUOUS
  0
ENDTAB
  0
TABLE
  2
STYLE
  5
3
330
0
100
AcDbSymbolTable
 70
     1
  0
STYLE
  5
11
330
3
100
AcDbSymbolTableRecord
100
AcDbTextStyleTableRecord
  2
STANDARD
 70
     0
 40
0.0
 41
1.0
 50
0.0
 71
     0
 42
2.5
  3
txt
  4

  0
ENDTAB
  0
TABLE
  2
VIEW
  5
6
330
0
100
AcDbSymbolTable
 70
     0
  0
ENDTAB
  0
TABLE
  2
UCS
  5
7
330
0
100
AcDbSymbolTable
 70
     0
  0
ENDTAB
  0
TABLE
  2
APPID
  5
9
330
0
100
AcDbSymbolTable
 70
     2
  0
APPID
  5
12
330
9
100
AcDbSymbolTableRecord
100
AcDbRegAppTableRecord
  2
ACAD
 70
     0
  0
ENDTAB
  0
TABLE
  2
DIMSTYLE
  5
A
330
0
100
AcDbSymbolTable
 70
     1
  0
DIMSTYLE
105
27
330
A
100
AcDbSymbolTableRecord
100
AcDbDimStyleTableRecord
  2
ISO-25
 70
     0
  3

  4

  5

  6

  7

 40
1.0
 41
2.5
 42
0.625
 43
3.75
 44
1.25
 45
0.0
 46
0.0
 47
0.0
 48
0.0
140
2.5
141
2.5
142
0.0
143
0.03937007874016
144
1.0
145
0.0
146
1.0
147
0.625
 71
     0
 72
     0
 73
     0
 74
     0
 75
     0
 76
     0
 77
     1
 78
     8
170
     0
171
     3
172
     1
173
     0
174
     0
175
     0
176
     0
177
     0
178
     0
270
     2
271
     2
272
     2
273
     2
274
     3
340
11
275
     0
280
     0
281
     0
282
     0
283
     0
284
     8
285
     0
286
     0
287
     3
288
     0
  0
ENDTAB
  0
TABLE
  2
BLOCK_RECORD
  5
1
330
0
100
AcDbSymbolTable
 70
     1
  0
BLOCK_RECORD
  5
1F
330
1
100
AcDbSymbolTableRecord
100
AcDbBlockTableRecord
  2
*MODEL_SPACE
  0
BLOCK_RECORD
  5
1B
330
1
100
AcDbSymbolTableRecord
100
AcDbBlockTableRecord
  2
*PAPER_SPACE
  0
ENDTAB
  0
ENDSEC
  0
SECTION
  2
BLOCKS
  0
BLOCK
  5
20
330
1F
100
AcDbEntity
  8
0
100
AcDbBlockBegin
  2
*MODEL_SPACE
 70
     0
 10
0.0
 20
0.0
 30
0.0
  3
*MODEL_SPACE
  1

  0
ENDBLK
  5
21
330
1F
100
AcDbEntity
  8
0
100
AcDbBlockEnd
  0
BLOCK
  5
1C
330
1B
100
AcDbEntity
 67
     1
  8
0
100
AcDbBlockBegin
  2
*PAPER_SPACE
  1

  0
ENDBLK
  5
1D
330
1B
100
AcDbEntity
 67
     1
  8
0
100
AcDbBlockEnd
  0
ENDSEC
  0
SECTION
  2
ENTITIES
  0
LWPOLYLINE
  5
100
100
AcDbEntity
  8
Capa_1
 62
7
100
AcDbPolyline
 90
77
 70
0
 10
3.253381
 20
6.285120
 30
0.0
 10
3.695870
 20
6.311932
 30
0.0
 10
4.120739
 20
6.392417
 30
0.0
 10
4.520918
 20
6.515817
 30
0.0
 10
4.889374
 20
6.671420
 30
0.0
 10
5.229613
 20
6.864575
 30
0.0
 10
5.531078
 20
7.079196
 30
0.0
 10
5.793748
 20
7.317959
 30
0.0
 10
6.003542
 20
7.562090
 30
0.0
 10
6.003542
 20
8.608357
 30
0.0
 10
6.003542
 20
9.654618
 30
0.0
 10
4.790650
 20
9.654618
 30
0.0
 10
3.577759
 20
9.654618
 30
0.0
 10
3.577759
 20
10.824291
 30
0.0
 10
3.577759
 20
11.993958
 30
0.0
 10
5.742629
 20
11.993958
 30
0.0
 10
7.907500
 20
11.993958
 30
0.0
 10
7.907500
 20
9.214645
 30
0.0
 10
7.907500
 20
6.435338
 30
0.0
 10
7.533752
 20
5.920253
 30
0.0
 10
7.089503
 20
5.426635
 30
0.0
 10
6.580012
 20
4.981300
 30
0.0
 10
6.010594
 20
4.589622
 30
0.0
 10
5.382987
 20
4.270374
 30
0.0
 10
4.698978
 20
4.020880
 30
0.0
 10
3.970886
 20
3.859921
 30
0.0
 10
3.196967
 20
3.806243
 30
0.0
 10
1.969969
 20
3.951109
 30
0.0
 10
0.926321
 20
4.385714
 30
0.0
 10
0.058961
 20
5.088586
 30
0.0
 10
-0.639156
 20
6.016815
 30
0.0
 10
-1.173322
 20
7.165022
 30
0.0
 10
-1.548824
 20
8.506389
 30
0.0
 10
-1.765664
 20
10.011397
 30
0.0
 10
-1.837944
 20
11.650547
 30
0.0
 10
-1.760375
 20
13.335299
 30
0.0
 10
-1.527669
 20
14.848361
 30
0.0
 10
-1.138065
 20
16.168257
 30
0.0
 10
-0.589794
 20
17.273554
 30
0.0
 10
0.124189
 20
18.164208
 30
0.0
 10
0.996838
 20
18.818808
 30
0.0
 10
2.038723
 20
19.229254
 30
0.0
 10
3.246329
 20
19.366083
 30
0.0
 10
4.131312
 20
19.296322
 30
0.0
 10
4.910529
 20
19.087080
 30
0.0
 10
5.596300
 20
18.749047
 30
0.0
 10
6.186886
 20
18.292993
 30
0.0
 10
6.691076
 20
17.724241
 30
0.0
 10
7.103607
 20
17.048203
 30
0.0
 10
7.438555
 20
16.283614
 30
0.0
 10
7.695949
 20
15.427832
 30
0.0
 10
6.736918
 20
14.987865
 30
0.0
 10
5.777888
 20
14.547898
 30
0.0
 10
5.629796
 20
15.006639
 30
0.0
 10
5.439406
 20
15.438563
 30
0.0
 10
5.201406
 20
15.838279
 30
0.0
 10
4.910529
 20
16.178999
 30
0.0
 10
4.573806
 20
16.466039
 30
0.0
 10
4.184204
 20
16.683353
 30
0.0
 10
3.745232
 20
16.828208
 30
0.0
 10
3.246329
 20
16.876503
 30
0.0
 10
2.523527
 20
16.782601
 30
0.0
 10
1.906507
 20
16.500922
 30
0.0
 10
1.391730
 20
16.055582
 30
0.0
 10
0.975683
 20
15.449287
 30
0.0
 10
0.656591
 20
14.692753
 30
0.0
 10
0.432702
 20
13.796726
 30
0.0
 10
0.300481
 20
12.782650
 30
0.0
 10
0.256410
 20
11.650541
 30
0.0
 10
0.300483
 20
10.518427
 30
0.0
 10
0.432702
 20
9.482896
 30
0.0
 10
0.661880
 20
8.565397
 30
0.0
 10
0.982735
 20
7.787408
 30
0.0
 10
1.404070
 20
7.156967
 30
0.0
 10
1.920610
 20
6.682122
 30
0.0
 10
2.535868
 20
6.384340
 30
0.0
 10
3.253381
 20
6.285082
 30
0.0
  0
LWPOLYLINE
  5
101
100
AcDbEntity
  8
Capa_1
 62
7
100
AcDbPolyline
 90
33
 70
0
 10
15.812451
 20
4.020891
 30
0.0
 10
13.647581
 20
9.842422
 30
0.0
 10
11.482710
 20
15.663947
 30
0.0
 10
11.516204
 20
15.191778
 30
0.0
 10
11.546175
 20
14.719626
 30
0.0
 10
11.570856
 20
14.295746
 30
0.0
 10
11.588486
 20
13.839691
 30
0.0
 10
11.604350
 20
13.378253
 30
0.0
 10
11.609639
 20
12.938291
 30
0.0
 10
11.609639
 20
8.479594
 30
0.0
 10
11.609639
 20
4.020891
 30
0.0
 10
10.685867
 20
4.020891
 30
0.0
 10
9.762095
 20
4.020891
 30
0.0
 10
9.762095
 20
11.580831
 30
0.0
 10
9.762095
 20
19.140764
 30
0.0
 10
10.950306
 20
19.140764
 30
0.0
 10
12.138516
 20
19.140764
 30
0.0
 10
14.335120
 20
13.270950
 30
0.0
 10
16.531723
 20
7.401136
 30
0.0
 10
16.498221
 20
7.862558
 30
0.0
 10
16.468258
 20
8.345458
 30
0.0
 10
16.441808
 20
8.790787
 30
0.0
 10
16.418896
 20
9.289779
 30
0.0
 10
16.408314
 20
9.818275
 30
0.0
 10
16.404811
 20
10.352139
 30
0.0
 10
16.404811
 20
14.746454
 30
0.0
 10
16.404811
 20
19.140764
 30
0.0
 10
17.328584
 20
19.140764
 30
0.0
 10
18.252356
 20
19.140764
 30
0.0
 10
18.252356
 20
11.580831
 30
0.0
 10
18.252356
 20
4.020891
 30
0.0
 10
17.032412
 20
4.020891
 30
0.0
 10
15.812469
 20
4.020891
 30
0.0
  0
LWPOLYLINE
  5
102
100
AcDbEntity
  8
Capa_1
 62
7
100
AcDbPolyline
 90
31
 70
0
 10
29.006173
 20
8.334727
 30
0.0
 10
28.930361
 20
7.266995
 30
0.0
 10
28.702952
 20
6.360237
 30
0.0
 10
28.343309
 20
5.617120
 30
0.0
 10
27.870851
 20
5.018869
 30
0.0
 10
27.304946
 20
4.570853
 30
0.0
 10
26.650910
 20
4.256973
 30
0.0
 10
25.931630
 20
4.079910
 30
0.0
 10
25.170052
 20
4.020891
 30
0.0
 10
22.684329
 20
4.020891
 30
0.0
 10
20.198606
 20
4.020891
 30
0.0
 10
20.198606
 20
11.580831
 30
0.0
 10
20.198606
 20
19.140764
 30
0.0
 10
22.472778
 20
19.140764
 30
0.0
 10
24.746950
 20
19.140764
 30
0.0
 10
25.579046
 20
19.081734
 30
0.0
 10
26.312428
 20
18.904688
 30
0.0
 10
26.948838
 20
18.617625
 30
0.0
 10
27.475956
 20
18.207178
 30
0.0
 10
27.890235
 20
17.673304
 30
0.0
 10
28.188178
 20
17.016045
 30
0.0
 10
28.373280
 20
16.243408
 30
0.0
 10
28.434986
 20
15.342018
 30
0.0
 10
28.316866
 20
14.153560
 30
0.0
 10
27.962524
 20
13.163642
 30
0.0
 10
27.373700
 20
12.425882
 30
0.0
 10
26.538083
 20
11.972509
 30
0.0
 10
27.599354
 20
11.575457
 30
0.0
 10
28.371522
 20
10.813566
 30
0.0
 10
28.847504
 20
9.727060
 30
0.0
 10
29.006173
 20
8.334727
 30
0.0
  0
LWPOLYLINE
  5
103
100
AcDbEntity
  8
Capa_1
 62
7
100
AcDbPolyline
 90
15
 70
0
 10
26.340633
 20
14.912781
 30
0.0
 10
26.233092
 20
15.784661
 30
0.0
 10
25.910480
 20
16.361457
 30
0.0
 10
25.383361
 20
16.683375
 30
0.0
 10
24.648226
 20
16.790694
 30
0.0
 10
23.463541
 20
16.790694
 30
0.0
 10
22.278856
 20
16.790694
 30
0.0
 10
22.278856
 20
14.918143
 30
0.0
 10
22.278856
 20
13.045599
 30
0.0
 10
23.470593
 20
13.045599
 30
0.0
 10
24.662329
 20
13.045599
 30
0.0
 10
25.422145
 20
13.160950
 30
0.0
 10
25.938687
 20
13.507032
 30
0.0
 10
26.240143
 20
14.094541
 30
0.0
 10
26.340633
 20
14.912781
 30
0.0
  0
LWPOLYLINE
  5
104
100
AcDbEntity
  8
Capa_1
 62
7
100
AcDbPolyline
 90
23
 70
0
 10
26.918871
 20
8.581534
 30
0.0
 10
26.880081
 20
9.134171
 30
0.0
 10
26.763737
 20
9.590242
 30
0.0
 10
26.578624
 20
9.957773
 30
0.0
 10
26.333582
 20
10.244831
 30
0.0
 10
26.040931
 20
10.456760
 30
0.0
 10
25.698929
 20
10.598951
 30
0.0
 10
25.323422
 20
10.679430
 30
0.0
 10
24.916190
 20
10.706242
 30
0.0
 10
23.597523
 20
10.706242
 30
0.0
 10
22.278856
 20
10.706242
 30
0.0
 10
22.278856
 20
8.538596
 30
0.0
 10
22.278856
 20
6.370951
 30
0.0
 10
23.636308
 20
6.370951
 30
0.0
 10
24.993759
 20
6.370951
 30
0.0
 10
25.388649
 20
6.395071
 30
0.0
 10
25.755342
 20
6.467507
 30
0.0
 10
26.083240
 20
6.609686
 30
0.0
 10
26.361787
 20
6.821626
 30
0.0
 10
26.594489
 20
7.122090
 30
0.0
 10
26.770788
 20
7.508406
 30
0.0
 10
26.881846
 20
7.991294
 30
0.0
 10
26.918871
 20
8.581495
 30
0.0
  0
LWPOLYLINE
  5
105
100
AcDbEntity
  8
Capa_1
 62
7
100
AcDbPolyline
 90
33
 70
0
 10
37.926568
 20
9.837054
 30
0.0
 10
37.864862
 20
8.562755
 30
0.0
 10
37.679760
 20
7.401136
 30
0.0
 10
37.378293
 20
6.370962
 30
0.0
 10
36.953435
 20
5.491027
 30
0.0
 10
36.406922
 20
4.782788
 30
0.0
 10
35.740545
 20
4.246243
 30
0.0
 10
34.954276
 20
3.916265
 30
0.0
 10
34.048138
 20
3.806276
 30
0.0
 10
33.171961
 20
3.916265
 30
0.0
 10
32.405094
 20
4.246243
 30
0.0
 10
31.749281
 20
4.774739
 30
0.0
 10
31.206303
 20
5.480297
 30
0.0
 10
30.784964
 20
6.352183
 30
0.0
 10
30.479977
 20
7.379670
 30
0.0
 10
30.294872
 20
8.552024
 30
0.0
 10
30.233169
 20
9.837054
 30
0.0
 10
30.291345
 20
11.084520
 30
0.0
 10
30.465875
 20
12.230051
 30
0.0
 10
30.765573
 20
13.260214
 30
0.0
 10
31.185149
 20
14.140154
 30
0.0
 10
31.726365
 20
14.856438
 30
0.0
 10
32.390987
 20
15.395675
 30
0.0
 10
33.179012
 20
15.733691
 30
0.0
 10
34.090446
 20
15.846372
 30
0.0
 10
35.044183
 20
15.733691
 30
0.0
 10
35.846321
 20
15.395675
 30
0.0
 10
36.505647
 20
14.856438
 30
0.0
 10
37.031002
 20
14.140154
 30
0.0
 10
37.432945
 20
13.268258
 30
0.0
 10
37.707965
 20
12.240781
 30
0.0
 10
37.871913
 20
11.092569
 30
0.0
 10
37.926568
 20
9.837054
 30
0.0
  0
LWPOLYLINE
  5
106
100
AcDbEntity
  8
Capa_1
 62
7
100
AcDbPolyline
 90
25
 70
0
 10
35.853372
 20
9.837054
 30
0.0
 10
35.742304
 20
11.623746
 30
0.0
 10
35.409115
 20
12.841713
 30
0.0
 10
34.864368
 20
13.541898
 30
0.0
 10
34.118654
 20
13.775304
 30
0.0
 10
33.346491
 20
13.539217
 30
0.0
 10
32.778831
 20
12.830983
 30
0.0
 10
32.429767
 20
11.610335
 30
0.0
 10
32.313420
 20
9.837054
 30
0.0
 10
32.343387
 20
8.868586
 30
0.0
 10
32.433295
 20
8.044989
 30
0.0
 10
32.584906
 20
7.360891
 30
0.0
 10
32.785879
 20
6.810935
 30
0.0
 10
33.034449
 20
6.389747
 30
0.0
 10
33.328861
 20
6.091959
 30
0.0
 10
33.662053
 20
5.922946
 30
0.0
 10
34.026977
 20
5.866613
 30
0.0
 10
34.439499
 20
5.922946
 30
0.0
 10
34.802665
 20
6.091959
 30
0.0
 10
35.119989
 20
6.389747
 30
0.0
 10
35.380903
 20
6.810935
 30
0.0
 10
35.585396
 20
7.360891
 30
0.0
 10
35.733490
 20
8.044989
 30
0.0
 10
35.823395
 20
8.868586
 30
0.0
 10
35.853362
 20
9.837054
 30
0.0
  0
LWPOLYLINE
  5
107
100
AcDbEntity
  8
Capa_1
 62
7
100
AcDbPolyline
 90
41
 70
0
 10
41.459469
 20
3.827736
 30
0.0
 10
40.685544
 20
4.007480
 30
0.0
 10
40.112595
 20
4.546706
 30
0.0
 10
39.758246
 20
5.461518
 30
0.0
 10
39.640133
 20
6.746548
 30
0.0
 10
39.640133
 20
10.169714
 30
0.0
 10
39.640133
 20
13.592879
 30
0.0
 10
39.157092
 20
13.592879
 30
0.0
 10
38.674051
 20
13.592879
 30
0.0
 10
38.674051
 20
14.612318
 30
0.0
 10
38.674051
 20
15.631756
 30
0.0
 10
39.206450
 20
15.631756
 30
0.0
 10
39.738854
 20
15.631756
 30
0.0
 10
40.049127
 20
16.994585
 30
0.0
 10
40.359403
 20
18.357407
 30
0.0
 10
40.979952
 20
18.357407
 30
0.0
 10
41.600501
 20
18.357407
 30
0.0
 10
41.600501
 20
16.994585
 30
0.0
 10
41.600501
 20
15.631756
 30
0.0
 10
42.323299
 20
15.631756
 30
0.0
 10
43.046100
 20
15.631756
 30
0.0
 10
43.046100
 20
14.612318
 30
0.0
 10
43.046100
 20
13.592879
 30
0.0
 10
42.323299
 20
13.592879
 30
0.0
 10
41.600501
 20
13.592879
 30
0.0
 10
41.600501
 20
10.577490
 30
0.0
 10
41.600501
 20
7.562101
 30
0.0
 10
41.653388
 20
6.824346
 30
0.0
 10
41.812053
 20
6.306581
 30
0.0
 10
42.081780
 20
6.008793
 30
0.0
 10
42.467862
 20
5.909534
 30
0.0
 10
42.642389
 20
5.920248
 30
0.0
 10
42.799292
 20
5.952444
 30
0.0
 10
42.956189
 20
6.000738
 30
0.0
 10
43.130723
 20
6.059758
 30
0.0
 10
43.130723
 20
5.126166
 30
0.0
 10
43.130723
 20
4.192575
 30
0.0
 10
42.753454
 20
4.034297
 30
0.0
 10
42.355035
 20
3.924303
 30
0.0
 10
41.926642
 20
3.851867
 30
0.0
 10
41.459469
 20
3.827747
 30
0.0
  0
ENDSEC
  0
SECTION
  2
OBJECTS
  0
DICTIONARY
  5
C
330
0
100
AcDbDictionary
  3
ACAD_GROUP
350
D
  3
ACAD_MLINESTYLE
350
17
  0
DICTIONARY
  5
D
330
C
100
AcDbDictionary
  0
DICTIONARY
  5
1A
330
C
100
AcDbDictionary
  0
DICTIONARY
  5
17
330
C
100
AcDbDictionary
  3
STANDARD
350
18
  0
DICTIONARY
  5
19
330
C
100
AcDbDictionary
  0
ENDSEC
  0
EOF
