G04 (created by PCBNEW (2013-june-11)-stable) date jue 06 feb 2014 18:29:20 CET*
%MOIN*%
G04 Gerber Fmt 3.4, Leading zero omitted, Abs format*
%FSLAX34Y34*%
G01*
G70*
G90*
G04 APERTURE LIST*
%ADD10C,0.00393701*%
%ADD11C,0.019685*%
%ADD12C,0.015748*%
%ADD13R,0.0984252X0.0984252*%
%ADD14C,0.0984252*%
%ADD15O,0.0705X0.141*%
%ADD16R,0.1X0.1*%
%ADD17C,0.1*%
%ADD18C,0.065*%
%ADD19R,0.06X0.06*%
%ADD20C,0.06*%
%ADD21R,0.065X0.065*%
%ADD22O,0.0590551X0.0984252*%
%ADD23O,0.0590551X0.0787402*%
%ADD24C,0.0394*%
%ADD25C,0.0787*%
%ADD26C,0.046*%
%ADD27O,0.06X0.1*%
%ADD28C,0.0590551*%
%ADD29C,0.01*%
G04 APERTURE END LIST*
G54D10*
G54D11*
X47924Y-22693D02*
X47962Y-22731D01*
X48074Y-22768D01*
X48149Y-22768D01*
X48262Y-22731D01*
X48337Y-22656D01*
X48374Y-22581D01*
X48412Y-22431D01*
X48412Y-22318D01*
X48374Y-22168D01*
X48337Y-22093D01*
X48262Y-22018D01*
X48149Y-21981D01*
X48074Y-21981D01*
X47962Y-22018D01*
X47924Y-22056D01*
X47174Y-22018D02*
X47249Y-21981D01*
X47362Y-21981D01*
X47474Y-22018D01*
X47549Y-22093D01*
X47587Y-22168D01*
X47624Y-22318D01*
X47624Y-22431D01*
X47587Y-22581D01*
X47549Y-22656D01*
X47474Y-22731D01*
X47362Y-22768D01*
X47287Y-22768D01*
X47174Y-22731D01*
X47137Y-22693D01*
X47137Y-22431D01*
X47287Y-22431D01*
X46837Y-22731D02*
X46724Y-22768D01*
X46537Y-22768D01*
X46462Y-22731D01*
X46424Y-22693D01*
X46387Y-22618D01*
X46387Y-22543D01*
X46424Y-22468D01*
X46462Y-22431D01*
X46537Y-22393D01*
X46687Y-22356D01*
X46762Y-22318D01*
X46799Y-22281D01*
X46837Y-22206D01*
X46837Y-22131D01*
X46799Y-22056D01*
X46762Y-22018D01*
X46687Y-21981D01*
X46499Y-21981D01*
X46387Y-22018D01*
X45487Y-22056D02*
X45450Y-22018D01*
X45375Y-21981D01*
X45187Y-21981D01*
X45112Y-22018D01*
X45075Y-22056D01*
X45037Y-22131D01*
X45037Y-22206D01*
X45075Y-22318D01*
X45525Y-22768D01*
X45037Y-22768D01*
X44550Y-21981D02*
X44475Y-21981D01*
X44400Y-22018D01*
X44362Y-22056D01*
X44325Y-22131D01*
X44287Y-22281D01*
X44287Y-22468D01*
X44325Y-22618D01*
X44362Y-22693D01*
X44400Y-22731D01*
X44475Y-22768D01*
X44550Y-22768D01*
X44625Y-22731D01*
X44662Y-22693D01*
X44700Y-22618D01*
X44737Y-22468D01*
X44737Y-22281D01*
X44700Y-22131D01*
X44662Y-22056D01*
X44625Y-22018D01*
X44550Y-21981D01*
X43537Y-22768D02*
X43987Y-22768D01*
X43762Y-22768D02*
X43762Y-21981D01*
X43837Y-22093D01*
X43912Y-22168D01*
X43987Y-22206D01*
X43275Y-21981D02*
X42787Y-21981D01*
X43050Y-22281D01*
X42937Y-22281D01*
X42862Y-22318D01*
X42825Y-22356D01*
X42787Y-22431D01*
X42787Y-22618D01*
X42825Y-22693D01*
X42862Y-22731D01*
X42937Y-22768D01*
X43162Y-22768D01*
X43237Y-22731D01*
X43275Y-22693D01*
G54D12*
X49099Y-20611D02*
X49174Y-20564D01*
X49287Y-20564D01*
X49399Y-20611D01*
X49474Y-20704D01*
X49512Y-20798D01*
X49549Y-20985D01*
X49549Y-21126D01*
X49512Y-21314D01*
X49474Y-21407D01*
X49399Y-21501D01*
X49287Y-21548D01*
X49212Y-21548D01*
X49099Y-21501D01*
X49062Y-21454D01*
X49062Y-21126D01*
X49212Y-21126D01*
X48724Y-21548D02*
X48724Y-20564D01*
X48274Y-21548D01*
X48274Y-20564D01*
X47637Y-21032D02*
X47524Y-21079D01*
X47487Y-21126D01*
X47449Y-21220D01*
X47449Y-21360D01*
X47487Y-21454D01*
X47524Y-21501D01*
X47599Y-21548D01*
X47899Y-21548D01*
X47899Y-20564D01*
X47637Y-20564D01*
X47562Y-20611D01*
X47524Y-20657D01*
X47487Y-20751D01*
X47487Y-20845D01*
X47524Y-20939D01*
X47562Y-20985D01*
X47637Y-21032D01*
X47899Y-21032D01*
X46999Y-21548D02*
X47074Y-21501D01*
X47112Y-21454D01*
X47149Y-21360D01*
X47149Y-21079D01*
X47112Y-20985D01*
X47074Y-20939D01*
X46999Y-20892D01*
X46887Y-20892D01*
X46812Y-20939D01*
X46774Y-20985D01*
X46737Y-21079D01*
X46737Y-21360D01*
X46774Y-21454D01*
X46812Y-21501D01*
X46887Y-21548D01*
X46999Y-21548D01*
X46062Y-21548D02*
X46062Y-21032D01*
X46099Y-20939D01*
X46174Y-20892D01*
X46324Y-20892D01*
X46399Y-20939D01*
X46062Y-21501D02*
X46137Y-21548D01*
X46324Y-21548D01*
X46399Y-21501D01*
X46437Y-21407D01*
X46437Y-21314D01*
X46399Y-21220D01*
X46324Y-21173D01*
X46137Y-21173D01*
X46062Y-21126D01*
X45687Y-21548D02*
X45687Y-20892D01*
X45687Y-21079D02*
X45650Y-20985D01*
X45612Y-20939D01*
X45537Y-20892D01*
X45462Y-20892D01*
X44862Y-21548D02*
X44862Y-20564D01*
X44862Y-21501D02*
X44937Y-21548D01*
X45087Y-21548D01*
X45162Y-21501D01*
X45200Y-21454D01*
X45237Y-21360D01*
X45237Y-21079D01*
X45200Y-20985D01*
X45162Y-20939D01*
X45087Y-20892D01*
X44937Y-20892D01*
X44862Y-20939D01*
X43962Y-20892D02*
X43775Y-21548D01*
X43587Y-20892D01*
X43137Y-20564D02*
X43062Y-20564D01*
X42987Y-20611D01*
X42950Y-20657D01*
X42912Y-20751D01*
X42875Y-20939D01*
X42875Y-21173D01*
X42912Y-21360D01*
X42950Y-21454D01*
X42987Y-21501D01*
X43062Y-21548D01*
X43137Y-21548D01*
X43212Y-21501D01*
X43250Y-21454D01*
X43287Y-21360D01*
X43325Y-21173D01*
X43325Y-20939D01*
X43287Y-20751D01*
X43250Y-20657D01*
X43212Y-20611D01*
X43137Y-20564D01*
X42537Y-21454D02*
X42500Y-21501D01*
X42537Y-21548D01*
X42575Y-21501D01*
X42537Y-21454D01*
X42537Y-21548D01*
X42200Y-20657D02*
X42162Y-20611D01*
X42087Y-20564D01*
X41900Y-20564D01*
X41825Y-20611D01*
X41787Y-20657D01*
X41750Y-20751D01*
X41750Y-20845D01*
X41787Y-20985D01*
X42237Y-21548D01*
X41750Y-21548D01*
G54D13*
X25350Y-25000D03*
G54D14*
X28350Y-25000D03*
G54D15*
X28050Y-26700D03*
X27400Y-28250D03*
X26700Y-26700D03*
X26000Y-28250D03*
X25350Y-26700D03*
G54D16*
X21950Y-22250D03*
G54D17*
X21950Y-20250D03*
G54D18*
X30400Y-23850D03*
X33400Y-23850D03*
X29300Y-13000D03*
X26300Y-13000D03*
X29300Y-14050D03*
X26300Y-14050D03*
X29300Y-15100D03*
X26300Y-15100D03*
X33500Y-26950D03*
X33500Y-29950D03*
G54D19*
X38300Y-22850D03*
G54D20*
X38300Y-21850D03*
X38300Y-20850D03*
X38300Y-19850D03*
X38300Y-18850D03*
G54D18*
X37300Y-18850D03*
X34300Y-18850D03*
X37300Y-19850D03*
X34300Y-19850D03*
X37300Y-20850D03*
X34300Y-20850D03*
X37300Y-21850D03*
X34300Y-21850D03*
G54D19*
X40050Y-29350D03*
G54D20*
X40050Y-28350D03*
X40050Y-27350D03*
G54D19*
X41050Y-29350D03*
G54D20*
X41050Y-28350D03*
X41050Y-27350D03*
G54D19*
X29700Y-16600D03*
G54D20*
X28700Y-16600D03*
G54D19*
X31550Y-13450D03*
G54D20*
X31550Y-14450D03*
X31550Y-15450D03*
G54D19*
X32550Y-13450D03*
G54D20*
X32550Y-14450D03*
X32550Y-15450D03*
G54D19*
X33550Y-13450D03*
G54D20*
X33550Y-14450D03*
X33550Y-15450D03*
G54D19*
X34550Y-13450D03*
G54D20*
X34550Y-14450D03*
X34550Y-15450D03*
G54D19*
X35550Y-13450D03*
G54D20*
X35550Y-14450D03*
X35550Y-15450D03*
G54D19*
X36550Y-13450D03*
G54D20*
X36550Y-14450D03*
X36550Y-15450D03*
G54D19*
X42050Y-29350D03*
G54D20*
X42050Y-28350D03*
X42050Y-27350D03*
G54D19*
X43050Y-29350D03*
G54D20*
X43050Y-28350D03*
X43050Y-27350D03*
G54D19*
X48800Y-14050D03*
G54D20*
X47800Y-14050D03*
X46800Y-14050D03*
X45800Y-14050D03*
G54D18*
X49950Y-14450D03*
X49950Y-11450D03*
X48800Y-12950D03*
X45800Y-12950D03*
G54D19*
X46200Y-29400D03*
G54D20*
X47200Y-29400D03*
X48200Y-29400D03*
X49200Y-29400D03*
G54D18*
X44450Y-28100D03*
X47450Y-28100D03*
G54D19*
X37550Y-13450D03*
G54D20*
X37550Y-14450D03*
X37550Y-15450D03*
G54D19*
X38550Y-13450D03*
G54D20*
X38550Y-14450D03*
X38550Y-15450D03*
G54D19*
X39550Y-13450D03*
G54D20*
X39550Y-14450D03*
X39550Y-15450D03*
G54D19*
X40550Y-13450D03*
G54D20*
X40550Y-14450D03*
X40550Y-15450D03*
G54D19*
X45150Y-26150D03*
G54D20*
X46150Y-26150D03*
G54D19*
X24950Y-18550D03*
G54D20*
X25950Y-18550D03*
G54D21*
X28600Y-23100D03*
G54D18*
X28600Y-22100D03*
G54D22*
X20300Y-27350D03*
X22300Y-27350D03*
X20300Y-30350D03*
X22300Y-30350D03*
X20950Y-15050D03*
X22950Y-15050D03*
X20950Y-18050D03*
X22950Y-18050D03*
G54D21*
X25300Y-23100D03*
G54D18*
X25300Y-22100D03*
G54D23*
X21112Y-24550D03*
X21900Y-24550D03*
X22687Y-24550D03*
G54D22*
X23474Y-24550D03*
X20325Y-24550D03*
G54D24*
X23900Y-14750D03*
X24400Y-14750D03*
X24900Y-14750D03*
X25400Y-14750D03*
G54D25*
X32450Y-27850D03*
X29450Y-27850D03*
G54D19*
X43000Y-13800D03*
G54D20*
X42000Y-13800D03*
G54D18*
X50550Y-41050D03*
X50550Y-38050D03*
G54D19*
X48550Y-36550D03*
G54D20*
X49550Y-36550D03*
X50550Y-36550D03*
G54D18*
X48800Y-18150D03*
X45800Y-18150D03*
X48800Y-19200D03*
X45800Y-19200D03*
X45800Y-17100D03*
X48800Y-17100D03*
X48550Y-41050D03*
X48550Y-38050D03*
X27400Y-16600D03*
X24400Y-16600D03*
G54D26*
X49593Y-15719D03*
X48805Y-15720D03*
X48018Y-15720D03*
X47231Y-15720D03*
X46443Y-15720D03*
X45657Y-15720D03*
X44869Y-15720D03*
X44082Y-15720D03*
X43295Y-15720D03*
X42507Y-15720D03*
X42507Y-24380D03*
X43295Y-24380D03*
X44082Y-24380D03*
X44869Y-24380D03*
X45657Y-24380D03*
X46443Y-24380D03*
X47231Y-24380D03*
X48018Y-24380D03*
X48805Y-24380D03*
X49593Y-24380D03*
G54D27*
X41300Y-11850D03*
X42300Y-11850D03*
X43300Y-11850D03*
X44300Y-11850D03*
X45300Y-11850D03*
X46300Y-11850D03*
X47300Y-11850D03*
X48300Y-11850D03*
X50300Y-30850D03*
X49300Y-30850D03*
X48300Y-30850D03*
X47300Y-30850D03*
X43300Y-30850D03*
X41300Y-30850D03*
X40300Y-30850D03*
X44300Y-30850D03*
X45300Y-30850D03*
X46300Y-30850D03*
X39300Y-30850D03*
X38300Y-30850D03*
X37300Y-30850D03*
X34300Y-30850D03*
X35300Y-30850D03*
X36300Y-30850D03*
X32300Y-30850D03*
X31300Y-30850D03*
X30300Y-30850D03*
X28300Y-30850D03*
X27300Y-30850D03*
X37300Y-11850D03*
X36300Y-11850D03*
X35300Y-11850D03*
X34300Y-11850D03*
X33300Y-11850D03*
X32300Y-11850D03*
X30700Y-11850D03*
X29700Y-11850D03*
X28700Y-11850D03*
X27700Y-11850D03*
X26700Y-11850D03*
X25700Y-11850D03*
X24700Y-11850D03*
X23700Y-11850D03*
X29300Y-30850D03*
G54D12*
X43000Y-13800D02*
X43700Y-13800D01*
X48999Y-15125D02*
X49593Y-15719D01*
X45025Y-15125D02*
X48999Y-15125D01*
X43700Y-13800D02*
X45025Y-15125D01*
X22950Y-18050D02*
X22950Y-15050D01*
X26700Y-11850D02*
X25900Y-12650D01*
X22950Y-14200D02*
X22950Y-15050D01*
X24500Y-12650D02*
X22950Y-14200D01*
X25900Y-12650D02*
X24500Y-12650D01*
X29700Y-16600D02*
X29700Y-16200D01*
X30350Y-12200D02*
X30700Y-11850D01*
X30350Y-15550D02*
X30350Y-12200D01*
X29700Y-16200D02*
X30350Y-15550D01*
X41300Y-11850D02*
X39150Y-11850D01*
X39150Y-11850D02*
X37550Y-13450D01*
X42300Y-11850D02*
X42300Y-12074D01*
X39350Y-12650D02*
X38550Y-13450D01*
X41724Y-12650D02*
X39350Y-12650D01*
X42300Y-12074D02*
X41724Y-12650D01*
X39550Y-13450D02*
X39625Y-13450D01*
X42200Y-12950D02*
X43300Y-11850D01*
X40125Y-12950D02*
X42200Y-12950D01*
X39625Y-13450D02*
X40125Y-12950D01*
X40550Y-13450D02*
X40775Y-13450D01*
X43600Y-12550D02*
X44300Y-11850D01*
X43000Y-12550D02*
X43600Y-12550D01*
X42300Y-13250D02*
X43000Y-12550D01*
X40975Y-13250D02*
X42300Y-13250D01*
X40775Y-13450D02*
X40975Y-13250D01*
X24400Y-14750D02*
X24400Y-15200D01*
X24400Y-14750D02*
X24400Y-14300D01*
G54D28*
X31300Y-30850D02*
X30300Y-30850D01*
X25350Y-26700D02*
X25350Y-25000D01*
X25350Y-25000D02*
X24200Y-23850D01*
X24200Y-22100D02*
X24050Y-22100D01*
X24200Y-23850D02*
X24200Y-22100D01*
X25300Y-22100D02*
X28600Y-22100D01*
X21950Y-20250D02*
X22200Y-20250D01*
X24050Y-22100D02*
X25300Y-22100D01*
X22200Y-20250D02*
X24050Y-22100D01*
G54D12*
X49950Y-11450D02*
X48700Y-11450D01*
X48700Y-11450D02*
X48300Y-11850D01*
X48300Y-11850D02*
X48300Y-12550D01*
X48300Y-12550D02*
X46800Y-14050D01*
X45800Y-14050D02*
X45800Y-14000D01*
X45800Y-14000D02*
X46850Y-12950D01*
X45800Y-12950D02*
X46850Y-12950D01*
X47300Y-12500D02*
X47300Y-11850D01*
X46850Y-12950D02*
X47300Y-12500D01*
X29300Y-15100D02*
X28600Y-15100D01*
X27700Y-14200D02*
X27700Y-11850D01*
X28600Y-15100D02*
X27700Y-14200D01*
X29300Y-14050D02*
X28900Y-14050D01*
X28700Y-13850D02*
X28700Y-11850D01*
X28900Y-14050D02*
X28700Y-13850D01*
X29300Y-13000D02*
X29450Y-13000D01*
X29700Y-12750D02*
X29700Y-11850D01*
X29450Y-13000D02*
X29700Y-12750D01*
X48800Y-17100D02*
X48800Y-15725D01*
X48800Y-15725D02*
X48805Y-15720D01*
X45800Y-19200D02*
X45800Y-18150D01*
X48018Y-15720D02*
X48018Y-15932D01*
X48018Y-15932D02*
X45800Y-18150D01*
X28700Y-16600D02*
X27400Y-16600D01*
X26300Y-13000D02*
X25000Y-13000D01*
X23900Y-14100D02*
X23900Y-14750D01*
X25000Y-13000D02*
X23900Y-14100D01*
X25400Y-14750D02*
X25950Y-14750D01*
X25950Y-14750D02*
X26300Y-15100D01*
X26300Y-14050D02*
X25150Y-14050D01*
X24900Y-14300D02*
X24900Y-14750D01*
X25150Y-14050D02*
X24900Y-14300D01*
X31550Y-13450D02*
X31550Y-12600D01*
X31550Y-12600D02*
X32300Y-11850D01*
X32550Y-13450D02*
X32550Y-12600D01*
X32550Y-12600D02*
X33300Y-11850D01*
X33550Y-13450D02*
X33550Y-12600D01*
X33550Y-12600D02*
X34300Y-11850D01*
X34550Y-13450D02*
X34550Y-12600D01*
X34550Y-12600D02*
X35300Y-11850D01*
X35550Y-13450D02*
X35550Y-12600D01*
X35550Y-12600D02*
X36300Y-11850D01*
X36550Y-13450D02*
X36550Y-12600D01*
X36550Y-12600D02*
X37300Y-11850D01*
X50100Y-15850D02*
X50100Y-16850D01*
X45150Y-12700D02*
X45150Y-14300D01*
X45150Y-14300D02*
X45700Y-14850D01*
X45700Y-14850D02*
X49450Y-14850D01*
X49450Y-14850D02*
X50100Y-15500D01*
X50100Y-15500D02*
X50100Y-15850D01*
X45300Y-11850D02*
X45300Y-12550D01*
X45300Y-12550D02*
X45150Y-12700D01*
X50100Y-16850D02*
X48800Y-18150D01*
G54D10*
G36*
X24476Y-14755D02*
X24405Y-14826D01*
X24400Y-14820D01*
X24394Y-14826D01*
X24323Y-14755D01*
X24329Y-14750D01*
X24323Y-14744D01*
X24394Y-14673D01*
X24400Y-14679D01*
X24405Y-14673D01*
X24476Y-14744D01*
X24470Y-14750D01*
X24476Y-14755D01*
X24476Y-14755D01*
G37*
G54D29*
X24476Y-14755D02*
X24405Y-14826D01*
X24400Y-14820D01*
X24394Y-14826D01*
X24323Y-14755D01*
X24329Y-14750D01*
X24323Y-14744D01*
X24394Y-14673D01*
X24400Y-14679D01*
X24405Y-14673D01*
X24476Y-14744D01*
X24470Y-14750D01*
X24476Y-14755D01*
G54D10*
G36*
X50513Y-32063D02*
X49787Y-32063D01*
X49787Y-31063D01*
X49787Y-30636D01*
X49750Y-30449D01*
X49692Y-30363D01*
X49692Y-29466D01*
X49680Y-29273D01*
X49629Y-29149D01*
X49551Y-29118D01*
X49481Y-29189D01*
X49481Y-29048D01*
X49450Y-28970D01*
X49266Y-28907D01*
X49073Y-28919D01*
X48949Y-28970D01*
X48918Y-29048D01*
X49200Y-29329D01*
X49481Y-29048D01*
X49481Y-29189D01*
X49270Y-29400D01*
X49551Y-29681D01*
X49629Y-29650D01*
X49692Y-29466D01*
X49692Y-30363D01*
X49644Y-30291D01*
X49486Y-30185D01*
X49481Y-30184D01*
X49481Y-29751D01*
X49200Y-29470D01*
X49129Y-29541D01*
X49129Y-29400D01*
X48848Y-29118D01*
X48770Y-29149D01*
X48707Y-29333D01*
X48719Y-29526D01*
X48770Y-29650D01*
X48848Y-29681D01*
X49129Y-29400D01*
X49129Y-29541D01*
X48918Y-29751D01*
X48949Y-29829D01*
X49133Y-29892D01*
X49326Y-29880D01*
X49450Y-29829D01*
X49481Y-29751D01*
X49481Y-30184D01*
X49300Y-30148D01*
X49113Y-30185D01*
X48955Y-30291D01*
X48849Y-30449D01*
X48812Y-30636D01*
X48812Y-31063D01*
X48849Y-31250D01*
X48955Y-31408D01*
X49113Y-31514D01*
X49300Y-31551D01*
X49486Y-31514D01*
X49644Y-31408D01*
X49750Y-31250D01*
X49787Y-31063D01*
X49787Y-32063D01*
X48787Y-32063D01*
X48787Y-31063D01*
X48787Y-30636D01*
X48750Y-30449D01*
X48687Y-30355D01*
X48687Y-29303D01*
X48613Y-29124D01*
X48476Y-28986D01*
X48297Y-28912D01*
X48103Y-28912D01*
X47962Y-28970D01*
X47962Y-27998D01*
X47884Y-27809D01*
X47740Y-27665D01*
X47552Y-27587D01*
X47348Y-27587D01*
X47159Y-27665D01*
X47015Y-27809D01*
X46937Y-27997D01*
X46937Y-28201D01*
X47015Y-28390D01*
X47159Y-28534D01*
X47347Y-28612D01*
X47551Y-28612D01*
X47740Y-28534D01*
X47884Y-28390D01*
X47962Y-28202D01*
X47962Y-27998D01*
X47962Y-28970D01*
X47924Y-28986D01*
X47786Y-29123D01*
X47712Y-29302D01*
X47712Y-29496D01*
X47786Y-29675D01*
X47923Y-29813D01*
X48102Y-29887D01*
X48296Y-29887D01*
X48475Y-29813D01*
X48613Y-29676D01*
X48687Y-29497D01*
X48687Y-29303D01*
X48687Y-30355D01*
X48644Y-30291D01*
X48486Y-30185D01*
X48300Y-30148D01*
X48113Y-30185D01*
X47955Y-30291D01*
X47849Y-30449D01*
X47812Y-30636D01*
X47812Y-31063D01*
X47849Y-31250D01*
X47955Y-31408D01*
X48113Y-31514D01*
X48300Y-31551D01*
X48486Y-31514D01*
X48644Y-31408D01*
X48750Y-31250D01*
X48787Y-31063D01*
X48787Y-32063D01*
X47787Y-32063D01*
X47787Y-31063D01*
X47787Y-30636D01*
X47750Y-30449D01*
X47687Y-30355D01*
X47687Y-29303D01*
X47613Y-29124D01*
X47476Y-28986D01*
X47297Y-28912D01*
X47103Y-28912D01*
X46924Y-28986D01*
X46786Y-29123D01*
X46712Y-29302D01*
X46712Y-29496D01*
X46786Y-29675D01*
X46923Y-29813D01*
X47102Y-29887D01*
X47296Y-29887D01*
X47475Y-29813D01*
X47613Y-29676D01*
X47687Y-29497D01*
X47687Y-29303D01*
X47687Y-30355D01*
X47644Y-30291D01*
X47486Y-30185D01*
X47300Y-30148D01*
X47113Y-30185D01*
X46955Y-30291D01*
X46849Y-30449D01*
X46812Y-30636D01*
X46812Y-31063D01*
X46849Y-31250D01*
X46955Y-31408D01*
X47113Y-31514D01*
X47300Y-31551D01*
X47486Y-31514D01*
X47644Y-31408D01*
X47750Y-31250D01*
X47787Y-31063D01*
X47787Y-32063D01*
X46787Y-32063D01*
X46787Y-31063D01*
X46787Y-30636D01*
X46750Y-30449D01*
X46687Y-30355D01*
X46687Y-29662D01*
X46687Y-29062D01*
X46659Y-28993D01*
X46642Y-28977D01*
X46642Y-26216D01*
X46630Y-26023D01*
X46579Y-25899D01*
X46501Y-25868D01*
X46431Y-25939D01*
X46431Y-25798D01*
X46400Y-25720D01*
X46216Y-25657D01*
X46023Y-25669D01*
X45899Y-25720D01*
X45868Y-25798D01*
X46150Y-26079D01*
X46431Y-25798D01*
X46431Y-25939D01*
X46220Y-26150D01*
X46501Y-26431D01*
X46579Y-26400D01*
X46642Y-26216D01*
X46642Y-28977D01*
X46606Y-28940D01*
X46537Y-28912D01*
X46462Y-28912D01*
X46431Y-28912D01*
X46431Y-26501D01*
X46150Y-26220D01*
X46079Y-26291D01*
X46079Y-26150D01*
X45798Y-25868D01*
X45720Y-25899D01*
X45657Y-26083D01*
X45669Y-26276D01*
X45720Y-26400D01*
X45798Y-26431D01*
X46079Y-26150D01*
X46079Y-26291D01*
X45868Y-26501D01*
X45899Y-26579D01*
X46083Y-26642D01*
X46276Y-26630D01*
X46400Y-26579D01*
X46431Y-26501D01*
X46431Y-28912D01*
X45862Y-28912D01*
X45793Y-28940D01*
X45740Y-28993D01*
X45712Y-29062D01*
X45712Y-29137D01*
X45712Y-29737D01*
X45740Y-29806D01*
X45793Y-29859D01*
X45862Y-29887D01*
X45937Y-29887D01*
X46537Y-29887D01*
X46606Y-29859D01*
X46659Y-29806D01*
X46687Y-29737D01*
X46687Y-29662D01*
X46687Y-30355D01*
X46644Y-30291D01*
X46486Y-30185D01*
X46300Y-30148D01*
X46113Y-30185D01*
X45955Y-30291D01*
X45849Y-30449D01*
X45812Y-30636D01*
X45812Y-31063D01*
X45849Y-31250D01*
X45955Y-31408D01*
X46113Y-31514D01*
X46300Y-31551D01*
X46486Y-31514D01*
X46644Y-31408D01*
X46750Y-31250D01*
X46787Y-31063D01*
X46787Y-32063D01*
X45787Y-32063D01*
X45787Y-31063D01*
X45787Y-30636D01*
X45750Y-30449D01*
X45644Y-30291D01*
X45637Y-30286D01*
X45637Y-26412D01*
X45637Y-25812D01*
X45609Y-25743D01*
X45556Y-25690D01*
X45487Y-25662D01*
X45412Y-25662D01*
X44812Y-25662D01*
X44743Y-25690D01*
X44690Y-25743D01*
X44662Y-25812D01*
X44662Y-25887D01*
X44662Y-26487D01*
X44690Y-26556D01*
X44743Y-26609D01*
X44812Y-26637D01*
X44887Y-26637D01*
X45487Y-26637D01*
X45556Y-26609D01*
X45609Y-26556D01*
X45637Y-26487D01*
X45637Y-26412D01*
X45637Y-30286D01*
X45486Y-30185D01*
X45300Y-30148D01*
X45113Y-30185D01*
X44962Y-30286D01*
X44962Y-27998D01*
X44884Y-27809D01*
X44740Y-27665D01*
X44552Y-27587D01*
X44348Y-27587D01*
X44159Y-27665D01*
X44015Y-27809D01*
X43937Y-27997D01*
X43937Y-28201D01*
X44015Y-28390D01*
X44159Y-28534D01*
X44347Y-28612D01*
X44551Y-28612D01*
X44740Y-28534D01*
X44884Y-28390D01*
X44962Y-28202D01*
X44962Y-27998D01*
X44962Y-30286D01*
X44955Y-30291D01*
X44849Y-30449D01*
X44812Y-30636D01*
X44812Y-31063D01*
X44849Y-31250D01*
X44955Y-31408D01*
X45113Y-31514D01*
X45300Y-31551D01*
X45486Y-31514D01*
X45644Y-31408D01*
X45750Y-31250D01*
X45787Y-31063D01*
X45787Y-32063D01*
X44787Y-32063D01*
X44787Y-31063D01*
X44787Y-30636D01*
X44750Y-30449D01*
X44644Y-30291D01*
X44486Y-30185D01*
X44300Y-30148D01*
X44113Y-30185D01*
X43955Y-30291D01*
X43849Y-30449D01*
X43812Y-30636D01*
X43812Y-31063D01*
X43849Y-31250D01*
X43955Y-31408D01*
X44113Y-31514D01*
X44300Y-31551D01*
X44486Y-31514D01*
X44644Y-31408D01*
X44750Y-31250D01*
X44787Y-31063D01*
X44787Y-32063D01*
X43787Y-32063D01*
X43787Y-31063D01*
X43787Y-30636D01*
X43750Y-30449D01*
X43644Y-30291D01*
X43542Y-30223D01*
X43542Y-28416D01*
X43537Y-28336D01*
X43537Y-27253D01*
X43463Y-27074D01*
X43326Y-26936D01*
X43147Y-26862D01*
X42953Y-26862D01*
X42774Y-26936D01*
X42636Y-27073D01*
X42562Y-27252D01*
X42562Y-27446D01*
X42636Y-27625D01*
X42773Y-27763D01*
X42952Y-27837D01*
X43146Y-27837D01*
X43325Y-27763D01*
X43463Y-27626D01*
X43537Y-27447D01*
X43537Y-27253D01*
X43537Y-28336D01*
X43530Y-28223D01*
X43479Y-28099D01*
X43401Y-28068D01*
X43331Y-28139D01*
X43331Y-27998D01*
X43300Y-27920D01*
X43116Y-27857D01*
X42923Y-27869D01*
X42799Y-27920D01*
X42768Y-27998D01*
X43050Y-28279D01*
X43331Y-27998D01*
X43331Y-28139D01*
X43120Y-28350D01*
X43401Y-28631D01*
X43479Y-28600D01*
X43542Y-28416D01*
X43542Y-30223D01*
X43537Y-30220D01*
X43537Y-29612D01*
X43537Y-29012D01*
X43509Y-28943D01*
X43456Y-28890D01*
X43387Y-28862D01*
X43331Y-28862D01*
X43331Y-28701D01*
X43050Y-28420D01*
X42979Y-28491D01*
X42979Y-28350D01*
X42698Y-28068D01*
X42620Y-28099D01*
X42557Y-28283D01*
X42569Y-28476D01*
X42620Y-28600D01*
X42698Y-28631D01*
X42979Y-28350D01*
X42979Y-28491D01*
X42768Y-28701D01*
X42799Y-28779D01*
X42983Y-28842D01*
X43176Y-28830D01*
X43300Y-28779D01*
X43331Y-28701D01*
X43331Y-28862D01*
X43312Y-28862D01*
X42712Y-28862D01*
X42643Y-28890D01*
X42590Y-28943D01*
X42562Y-29012D01*
X42562Y-29087D01*
X42562Y-29687D01*
X42590Y-29756D01*
X42643Y-29809D01*
X42712Y-29837D01*
X42787Y-29837D01*
X43387Y-29837D01*
X43456Y-29809D01*
X43509Y-29756D01*
X43537Y-29687D01*
X43537Y-29612D01*
X43537Y-30220D01*
X43486Y-30185D01*
X43300Y-30148D01*
X43113Y-30185D01*
X42955Y-30291D01*
X42849Y-30449D01*
X42812Y-30636D01*
X42812Y-31063D01*
X42849Y-31250D01*
X42955Y-31408D01*
X43113Y-31514D01*
X43300Y-31551D01*
X43486Y-31514D01*
X43644Y-31408D01*
X43750Y-31250D01*
X43787Y-31063D01*
X43787Y-32063D01*
X42542Y-32063D01*
X42542Y-28416D01*
X42537Y-28336D01*
X42537Y-27253D01*
X42463Y-27074D01*
X42326Y-26936D01*
X42147Y-26862D01*
X41953Y-26862D01*
X41774Y-26936D01*
X41636Y-27073D01*
X41562Y-27252D01*
X41562Y-27446D01*
X41636Y-27625D01*
X41773Y-27763D01*
X41952Y-27837D01*
X42146Y-27837D01*
X42325Y-27763D01*
X42463Y-27626D01*
X42537Y-27447D01*
X42537Y-27253D01*
X42537Y-28336D01*
X42530Y-28223D01*
X42479Y-28099D01*
X42401Y-28068D01*
X42331Y-28139D01*
X42331Y-27998D01*
X42300Y-27920D01*
X42116Y-27857D01*
X41923Y-27869D01*
X41799Y-27920D01*
X41768Y-27998D01*
X42050Y-28279D01*
X42331Y-27998D01*
X42331Y-28139D01*
X42120Y-28350D01*
X42401Y-28631D01*
X42479Y-28600D01*
X42542Y-28416D01*
X42542Y-32063D01*
X42537Y-32063D01*
X42537Y-29612D01*
X42537Y-29012D01*
X42509Y-28943D01*
X42456Y-28890D01*
X42387Y-28862D01*
X42331Y-28862D01*
X42331Y-28701D01*
X42050Y-28420D01*
X41979Y-28491D01*
X41979Y-28350D01*
X41698Y-28068D01*
X41620Y-28099D01*
X41557Y-28283D01*
X41569Y-28476D01*
X41620Y-28600D01*
X41698Y-28631D01*
X41979Y-28350D01*
X41979Y-28491D01*
X41768Y-28701D01*
X41799Y-28779D01*
X41983Y-28842D01*
X42176Y-28830D01*
X42300Y-28779D01*
X42331Y-28701D01*
X42331Y-28862D01*
X42312Y-28862D01*
X41712Y-28862D01*
X41643Y-28890D01*
X41590Y-28943D01*
X41562Y-29012D01*
X41562Y-29087D01*
X41562Y-29687D01*
X41590Y-29756D01*
X41643Y-29809D01*
X41712Y-29837D01*
X41787Y-29837D01*
X42387Y-29837D01*
X42456Y-29809D01*
X42509Y-29756D01*
X42537Y-29687D01*
X42537Y-29612D01*
X42537Y-32063D01*
X41787Y-32063D01*
X41787Y-31063D01*
X41787Y-30636D01*
X41750Y-30449D01*
X41644Y-30291D01*
X41542Y-30223D01*
X41542Y-28416D01*
X41537Y-28336D01*
X41537Y-27253D01*
X41463Y-27074D01*
X41326Y-26936D01*
X41147Y-26862D01*
X41042Y-26862D01*
X41042Y-15516D01*
X41037Y-15436D01*
X41037Y-14353D01*
X40963Y-14174D01*
X40826Y-14036D01*
X40647Y-13962D01*
X40453Y-13962D01*
X40274Y-14036D01*
X40136Y-14173D01*
X40062Y-14352D01*
X40062Y-14546D01*
X40136Y-14725D01*
X40273Y-14863D01*
X40452Y-14937D01*
X40646Y-14937D01*
X40825Y-14863D01*
X40963Y-14726D01*
X41037Y-14547D01*
X41037Y-14353D01*
X41037Y-15436D01*
X41030Y-15323D01*
X40979Y-15199D01*
X40901Y-15168D01*
X40831Y-15239D01*
X40831Y-15098D01*
X40800Y-15020D01*
X40616Y-14957D01*
X40423Y-14969D01*
X40299Y-15020D01*
X40268Y-15098D01*
X40550Y-15379D01*
X40831Y-15098D01*
X40831Y-15239D01*
X40620Y-15450D01*
X40901Y-15731D01*
X40979Y-15700D01*
X41042Y-15516D01*
X41042Y-26862D01*
X40953Y-26862D01*
X40831Y-26912D01*
X40831Y-15801D01*
X40550Y-15520D01*
X40479Y-15591D01*
X40479Y-15450D01*
X40198Y-15168D01*
X40120Y-15199D01*
X40057Y-15383D01*
X40069Y-15576D01*
X40120Y-15700D01*
X40198Y-15731D01*
X40479Y-15450D01*
X40479Y-15591D01*
X40268Y-15801D01*
X40299Y-15879D01*
X40483Y-15942D01*
X40676Y-15930D01*
X40800Y-15879D01*
X40831Y-15801D01*
X40831Y-26912D01*
X40774Y-26936D01*
X40636Y-27073D01*
X40562Y-27252D01*
X40562Y-27446D01*
X40636Y-27625D01*
X40773Y-27763D01*
X40952Y-27837D01*
X41146Y-27837D01*
X41325Y-27763D01*
X41463Y-27626D01*
X41537Y-27447D01*
X41537Y-27253D01*
X41537Y-28336D01*
X41530Y-28223D01*
X41479Y-28099D01*
X41401Y-28068D01*
X41331Y-28139D01*
X41331Y-27998D01*
X41300Y-27920D01*
X41116Y-27857D01*
X40923Y-27869D01*
X40799Y-27920D01*
X40768Y-27998D01*
X41050Y-28279D01*
X41331Y-27998D01*
X41331Y-28139D01*
X41120Y-28350D01*
X41401Y-28631D01*
X41479Y-28600D01*
X41542Y-28416D01*
X41542Y-30223D01*
X41537Y-30220D01*
X41537Y-29612D01*
X41537Y-29012D01*
X41509Y-28943D01*
X41456Y-28890D01*
X41387Y-28862D01*
X41331Y-28862D01*
X41331Y-28701D01*
X41050Y-28420D01*
X40979Y-28491D01*
X40979Y-28350D01*
X40698Y-28068D01*
X40620Y-28099D01*
X40557Y-28283D01*
X40569Y-28476D01*
X40620Y-28600D01*
X40698Y-28631D01*
X40979Y-28350D01*
X40979Y-28491D01*
X40768Y-28701D01*
X40799Y-28779D01*
X40983Y-28842D01*
X41176Y-28830D01*
X41300Y-28779D01*
X41331Y-28701D01*
X41331Y-28862D01*
X41312Y-28862D01*
X40712Y-28862D01*
X40643Y-28890D01*
X40590Y-28943D01*
X40562Y-29012D01*
X40562Y-29087D01*
X40562Y-29687D01*
X40590Y-29756D01*
X40643Y-29809D01*
X40712Y-29837D01*
X40787Y-29837D01*
X41387Y-29837D01*
X41456Y-29809D01*
X41509Y-29756D01*
X41537Y-29687D01*
X41537Y-29612D01*
X41537Y-30220D01*
X41486Y-30185D01*
X41300Y-30148D01*
X41113Y-30185D01*
X40955Y-30291D01*
X40849Y-30449D01*
X40812Y-30636D01*
X40812Y-31063D01*
X40849Y-31250D01*
X40955Y-31408D01*
X41113Y-31514D01*
X41300Y-31551D01*
X41486Y-31514D01*
X41644Y-31408D01*
X41750Y-31250D01*
X41787Y-31063D01*
X41787Y-32063D01*
X40787Y-32063D01*
X40787Y-31063D01*
X40787Y-30636D01*
X40750Y-30449D01*
X40644Y-30291D01*
X40542Y-30223D01*
X40542Y-28416D01*
X40537Y-28336D01*
X40537Y-27253D01*
X40463Y-27074D01*
X40326Y-26936D01*
X40147Y-26862D01*
X40042Y-26862D01*
X40042Y-15516D01*
X40037Y-15436D01*
X40037Y-14353D01*
X39963Y-14174D01*
X39826Y-14036D01*
X39647Y-13962D01*
X39453Y-13962D01*
X39274Y-14036D01*
X39136Y-14173D01*
X39062Y-14352D01*
X39062Y-14546D01*
X39136Y-14725D01*
X39273Y-14863D01*
X39452Y-14937D01*
X39646Y-14937D01*
X39825Y-14863D01*
X39963Y-14726D01*
X40037Y-14547D01*
X40037Y-14353D01*
X40037Y-15436D01*
X40030Y-15323D01*
X39979Y-15199D01*
X39901Y-15168D01*
X39831Y-15239D01*
X39831Y-15098D01*
X39800Y-15020D01*
X39616Y-14957D01*
X39423Y-14969D01*
X39299Y-15020D01*
X39268Y-15098D01*
X39550Y-15379D01*
X39831Y-15098D01*
X39831Y-15239D01*
X39620Y-15450D01*
X39901Y-15731D01*
X39979Y-15700D01*
X40042Y-15516D01*
X40042Y-26862D01*
X39953Y-26862D01*
X39831Y-26912D01*
X39831Y-15801D01*
X39550Y-15520D01*
X39479Y-15591D01*
X39479Y-15450D01*
X39198Y-15168D01*
X39120Y-15199D01*
X39057Y-15383D01*
X39069Y-15576D01*
X39120Y-15700D01*
X39198Y-15731D01*
X39479Y-15450D01*
X39479Y-15591D01*
X39268Y-15801D01*
X39299Y-15879D01*
X39483Y-15942D01*
X39676Y-15930D01*
X39800Y-15879D01*
X39831Y-15801D01*
X39831Y-26912D01*
X39774Y-26936D01*
X39636Y-27073D01*
X39562Y-27252D01*
X39562Y-27446D01*
X39636Y-27625D01*
X39773Y-27763D01*
X39952Y-27837D01*
X40146Y-27837D01*
X40325Y-27763D01*
X40463Y-27626D01*
X40537Y-27447D01*
X40537Y-27253D01*
X40537Y-28336D01*
X40530Y-28223D01*
X40479Y-28099D01*
X40401Y-28068D01*
X40331Y-28139D01*
X40331Y-27998D01*
X40300Y-27920D01*
X40116Y-27857D01*
X39923Y-27869D01*
X39799Y-27920D01*
X39768Y-27998D01*
X40050Y-28279D01*
X40331Y-27998D01*
X40331Y-28139D01*
X40120Y-28350D01*
X40401Y-28631D01*
X40479Y-28600D01*
X40542Y-28416D01*
X40542Y-30223D01*
X40537Y-30220D01*
X40537Y-29612D01*
X40537Y-29012D01*
X40509Y-28943D01*
X40456Y-28890D01*
X40387Y-28862D01*
X40331Y-28862D01*
X40331Y-28701D01*
X40050Y-28420D01*
X39979Y-28491D01*
X39979Y-28350D01*
X39698Y-28068D01*
X39620Y-28099D01*
X39557Y-28283D01*
X39569Y-28476D01*
X39620Y-28600D01*
X39698Y-28631D01*
X39979Y-28350D01*
X39979Y-28491D01*
X39768Y-28701D01*
X39799Y-28779D01*
X39983Y-28842D01*
X40176Y-28830D01*
X40300Y-28779D01*
X40331Y-28701D01*
X40331Y-28862D01*
X40312Y-28862D01*
X39712Y-28862D01*
X39643Y-28890D01*
X39590Y-28943D01*
X39562Y-29012D01*
X39562Y-29087D01*
X39562Y-29687D01*
X39590Y-29756D01*
X39643Y-29809D01*
X39712Y-29837D01*
X39787Y-29837D01*
X40387Y-29837D01*
X40456Y-29809D01*
X40509Y-29756D01*
X40537Y-29687D01*
X40537Y-29612D01*
X40537Y-30220D01*
X40486Y-30185D01*
X40300Y-30148D01*
X40113Y-30185D01*
X39955Y-30291D01*
X39849Y-30449D01*
X39812Y-30636D01*
X39812Y-31063D01*
X39849Y-31250D01*
X39955Y-31408D01*
X40113Y-31514D01*
X40300Y-31551D01*
X40486Y-31514D01*
X40644Y-31408D01*
X40750Y-31250D01*
X40787Y-31063D01*
X40787Y-32063D01*
X39787Y-32063D01*
X39787Y-31063D01*
X39787Y-30636D01*
X39750Y-30449D01*
X39644Y-30291D01*
X39486Y-30185D01*
X39300Y-30148D01*
X39113Y-30185D01*
X39042Y-30232D01*
X39042Y-15516D01*
X39037Y-15436D01*
X39037Y-14353D01*
X38963Y-14174D01*
X38826Y-14036D01*
X38647Y-13962D01*
X38453Y-13962D01*
X38274Y-14036D01*
X38136Y-14173D01*
X38062Y-14352D01*
X38062Y-14546D01*
X38136Y-14725D01*
X38273Y-14863D01*
X38452Y-14937D01*
X38646Y-14937D01*
X38825Y-14863D01*
X38963Y-14726D01*
X39037Y-14547D01*
X39037Y-14353D01*
X39037Y-15436D01*
X39030Y-15323D01*
X38979Y-15199D01*
X38901Y-15168D01*
X38831Y-15239D01*
X38831Y-15098D01*
X38800Y-15020D01*
X38616Y-14957D01*
X38423Y-14969D01*
X38299Y-15020D01*
X38268Y-15098D01*
X38550Y-15379D01*
X38831Y-15098D01*
X38831Y-15239D01*
X38620Y-15450D01*
X38901Y-15731D01*
X38979Y-15700D01*
X39042Y-15516D01*
X39042Y-30232D01*
X38955Y-30291D01*
X38849Y-30449D01*
X38831Y-30541D01*
X38831Y-15801D01*
X38550Y-15520D01*
X38479Y-15591D01*
X38479Y-15450D01*
X38198Y-15168D01*
X38120Y-15199D01*
X38057Y-15383D01*
X38069Y-15576D01*
X38120Y-15700D01*
X38198Y-15731D01*
X38479Y-15450D01*
X38479Y-15591D01*
X38268Y-15801D01*
X38299Y-15879D01*
X38483Y-15942D01*
X38676Y-15930D01*
X38800Y-15879D01*
X38831Y-15801D01*
X38831Y-30541D01*
X38812Y-30636D01*
X38812Y-31063D01*
X38849Y-31250D01*
X38955Y-31408D01*
X39113Y-31514D01*
X39300Y-31551D01*
X39486Y-31514D01*
X39644Y-31408D01*
X39750Y-31250D01*
X39787Y-31063D01*
X39787Y-32063D01*
X38787Y-32063D01*
X38787Y-21753D01*
X38713Y-21574D01*
X38576Y-21436D01*
X38397Y-21362D01*
X38203Y-21362D01*
X38024Y-21436D01*
X37886Y-21573D01*
X37812Y-21751D01*
X37812Y-21748D01*
X37734Y-21559D01*
X37590Y-21415D01*
X37432Y-21349D01*
X37590Y-21284D01*
X37734Y-21140D01*
X37812Y-20952D01*
X37812Y-20948D01*
X37886Y-21125D01*
X38023Y-21263D01*
X38202Y-21337D01*
X38396Y-21337D01*
X38575Y-21263D01*
X38713Y-21126D01*
X38787Y-20947D01*
X38787Y-20753D01*
X38713Y-20574D01*
X38576Y-20436D01*
X38397Y-20362D01*
X38203Y-20362D01*
X38024Y-20436D01*
X37886Y-20573D01*
X37812Y-20751D01*
X37812Y-20748D01*
X37734Y-20559D01*
X37590Y-20415D01*
X37432Y-20349D01*
X37590Y-20284D01*
X37734Y-20140D01*
X37812Y-19952D01*
X37812Y-19948D01*
X37886Y-20125D01*
X38023Y-20263D01*
X38202Y-20337D01*
X38396Y-20337D01*
X38575Y-20263D01*
X38713Y-20126D01*
X38787Y-19947D01*
X38787Y-19753D01*
X38713Y-19574D01*
X38576Y-19436D01*
X38397Y-19362D01*
X38203Y-19362D01*
X38024Y-19436D01*
X37886Y-19573D01*
X37812Y-19751D01*
X37812Y-19748D01*
X37734Y-19559D01*
X37590Y-19415D01*
X37432Y-19349D01*
X37590Y-19284D01*
X37734Y-19140D01*
X37812Y-18952D01*
X37812Y-18948D01*
X37886Y-19125D01*
X38023Y-19263D01*
X38202Y-19337D01*
X38396Y-19337D01*
X38575Y-19263D01*
X38713Y-19126D01*
X38787Y-18947D01*
X38787Y-18753D01*
X38713Y-18574D01*
X38576Y-18436D01*
X38397Y-18362D01*
X38203Y-18362D01*
X38042Y-18428D01*
X38042Y-15516D01*
X38037Y-15436D01*
X38037Y-14353D01*
X37963Y-14174D01*
X37826Y-14036D01*
X37647Y-13962D01*
X37453Y-13962D01*
X37274Y-14036D01*
X37136Y-14173D01*
X37062Y-14352D01*
X37062Y-14546D01*
X37136Y-14725D01*
X37273Y-14863D01*
X37452Y-14937D01*
X37646Y-14937D01*
X37825Y-14863D01*
X37963Y-14726D01*
X38037Y-14547D01*
X38037Y-14353D01*
X38037Y-15436D01*
X38030Y-15323D01*
X37979Y-15199D01*
X37901Y-15168D01*
X37831Y-15239D01*
X37831Y-15098D01*
X37800Y-15020D01*
X37616Y-14957D01*
X37423Y-14969D01*
X37299Y-15020D01*
X37268Y-15098D01*
X37550Y-15379D01*
X37831Y-15098D01*
X37831Y-15239D01*
X37620Y-15450D01*
X37901Y-15731D01*
X37979Y-15700D01*
X38042Y-15516D01*
X38042Y-18428D01*
X38024Y-18436D01*
X37886Y-18573D01*
X37831Y-18707D01*
X37831Y-15801D01*
X37550Y-15520D01*
X37479Y-15591D01*
X37479Y-15450D01*
X37198Y-15168D01*
X37120Y-15199D01*
X37057Y-15383D01*
X37069Y-15576D01*
X37120Y-15700D01*
X37198Y-15731D01*
X37479Y-15450D01*
X37479Y-15591D01*
X37268Y-15801D01*
X37299Y-15879D01*
X37483Y-15942D01*
X37676Y-15930D01*
X37800Y-15879D01*
X37831Y-15801D01*
X37831Y-18707D01*
X37812Y-18751D01*
X37812Y-18748D01*
X37734Y-18559D01*
X37590Y-18415D01*
X37402Y-18337D01*
X37198Y-18337D01*
X37042Y-18401D01*
X37042Y-15516D01*
X37037Y-15436D01*
X37037Y-14353D01*
X36963Y-14174D01*
X36826Y-14036D01*
X36647Y-13962D01*
X36453Y-13962D01*
X36274Y-14036D01*
X36136Y-14173D01*
X36062Y-14352D01*
X36062Y-14546D01*
X36136Y-14725D01*
X36273Y-14863D01*
X36452Y-14937D01*
X36646Y-14937D01*
X36825Y-14863D01*
X36963Y-14726D01*
X37037Y-14547D01*
X37037Y-14353D01*
X37037Y-15436D01*
X37030Y-15323D01*
X36979Y-15199D01*
X36901Y-15168D01*
X36831Y-15239D01*
X36831Y-15098D01*
X36800Y-15020D01*
X36616Y-14957D01*
X36423Y-14969D01*
X36299Y-15020D01*
X36268Y-15098D01*
X36550Y-15379D01*
X36831Y-15098D01*
X36831Y-15239D01*
X36620Y-15450D01*
X36901Y-15731D01*
X36979Y-15700D01*
X37042Y-15516D01*
X37042Y-18401D01*
X37009Y-18415D01*
X36865Y-18559D01*
X36831Y-18641D01*
X36831Y-15801D01*
X36550Y-15520D01*
X36479Y-15591D01*
X36479Y-15450D01*
X36198Y-15168D01*
X36120Y-15199D01*
X36057Y-15383D01*
X36069Y-15576D01*
X36120Y-15700D01*
X36198Y-15731D01*
X36479Y-15450D01*
X36479Y-15591D01*
X36268Y-15801D01*
X36299Y-15879D01*
X36483Y-15942D01*
X36676Y-15930D01*
X36800Y-15879D01*
X36831Y-15801D01*
X36831Y-18641D01*
X36787Y-18747D01*
X36787Y-18951D01*
X36865Y-19140D01*
X37009Y-19284D01*
X37167Y-19350D01*
X37009Y-19415D01*
X36865Y-19559D01*
X36787Y-19747D01*
X36787Y-19951D01*
X36865Y-20140D01*
X37009Y-20284D01*
X37167Y-20350D01*
X37009Y-20415D01*
X36865Y-20559D01*
X36787Y-20747D01*
X36787Y-20951D01*
X36865Y-21140D01*
X37009Y-21284D01*
X37167Y-21350D01*
X37009Y-21415D01*
X36865Y-21559D01*
X36787Y-21747D01*
X36787Y-21951D01*
X36865Y-22140D01*
X37009Y-22284D01*
X37197Y-22362D01*
X37401Y-22362D01*
X37590Y-22284D01*
X37734Y-22140D01*
X37812Y-21952D01*
X37812Y-21948D01*
X37886Y-22125D01*
X38023Y-22263D01*
X38202Y-22337D01*
X38396Y-22337D01*
X38575Y-22263D01*
X38713Y-22126D01*
X38787Y-21947D01*
X38787Y-21753D01*
X38787Y-32063D01*
X38787Y-32063D01*
X38787Y-23187D01*
X38787Y-22512D01*
X38759Y-22443D01*
X38706Y-22390D01*
X38637Y-22362D01*
X38562Y-22362D01*
X38396Y-22362D01*
X38350Y-22409D01*
X38350Y-22800D01*
X38740Y-22800D01*
X38787Y-22753D01*
X38787Y-22512D01*
X38787Y-23187D01*
X38787Y-22946D01*
X38740Y-22900D01*
X38350Y-22900D01*
X38350Y-23290D01*
X38396Y-23337D01*
X38562Y-23337D01*
X38637Y-23337D01*
X38706Y-23309D01*
X38759Y-23256D01*
X38787Y-23187D01*
X38787Y-32063D01*
X38787Y-32063D01*
X38787Y-31063D01*
X38787Y-30636D01*
X38750Y-30449D01*
X38644Y-30291D01*
X38486Y-30185D01*
X38300Y-30148D01*
X38250Y-30158D01*
X38250Y-23290D01*
X38250Y-22900D01*
X38250Y-22800D01*
X38250Y-22409D01*
X38203Y-22362D01*
X38037Y-22362D01*
X37962Y-22362D01*
X37893Y-22390D01*
X37840Y-22443D01*
X37812Y-22512D01*
X37812Y-22753D01*
X37859Y-22800D01*
X38250Y-22800D01*
X38250Y-22900D01*
X37859Y-22900D01*
X37812Y-22946D01*
X37812Y-23187D01*
X37840Y-23256D01*
X37893Y-23309D01*
X37962Y-23337D01*
X38037Y-23337D01*
X38203Y-23337D01*
X38250Y-23290D01*
X38250Y-30158D01*
X38113Y-30185D01*
X37955Y-30291D01*
X37849Y-30449D01*
X37812Y-30636D01*
X37812Y-31063D01*
X37849Y-31250D01*
X37955Y-31408D01*
X38113Y-31514D01*
X38300Y-31551D01*
X38486Y-31514D01*
X38644Y-31408D01*
X38750Y-31250D01*
X38787Y-31063D01*
X38787Y-32063D01*
X37787Y-32063D01*
X37787Y-31063D01*
X37787Y-30636D01*
X37750Y-30449D01*
X37644Y-30291D01*
X37486Y-30185D01*
X37300Y-30148D01*
X37113Y-30185D01*
X36955Y-30291D01*
X36849Y-30449D01*
X36812Y-30636D01*
X36812Y-31063D01*
X36849Y-31250D01*
X36955Y-31408D01*
X37113Y-31514D01*
X37300Y-31551D01*
X37486Y-31514D01*
X37644Y-31408D01*
X37750Y-31250D01*
X37787Y-31063D01*
X37787Y-32063D01*
X36787Y-32063D01*
X36787Y-31063D01*
X36787Y-30636D01*
X36750Y-30449D01*
X36644Y-30291D01*
X36486Y-30185D01*
X36300Y-30148D01*
X36113Y-30185D01*
X36042Y-30232D01*
X36042Y-15516D01*
X36037Y-15436D01*
X36037Y-14353D01*
X35963Y-14174D01*
X35826Y-14036D01*
X35647Y-13962D01*
X35453Y-13962D01*
X35274Y-14036D01*
X35136Y-14173D01*
X35062Y-14352D01*
X35062Y-14546D01*
X35136Y-14725D01*
X35273Y-14863D01*
X35452Y-14937D01*
X35646Y-14937D01*
X35825Y-14863D01*
X35963Y-14726D01*
X36037Y-14547D01*
X36037Y-14353D01*
X36037Y-15436D01*
X36030Y-15323D01*
X35979Y-15199D01*
X35901Y-15168D01*
X35831Y-15239D01*
X35831Y-15098D01*
X35800Y-15020D01*
X35616Y-14957D01*
X35423Y-14969D01*
X35299Y-15020D01*
X35268Y-15098D01*
X35550Y-15379D01*
X35831Y-15098D01*
X35831Y-15239D01*
X35620Y-15450D01*
X35901Y-15731D01*
X35979Y-15700D01*
X36042Y-15516D01*
X36042Y-30232D01*
X35955Y-30291D01*
X35849Y-30449D01*
X35831Y-30541D01*
X35831Y-15801D01*
X35550Y-15520D01*
X35479Y-15591D01*
X35479Y-15450D01*
X35198Y-15168D01*
X35120Y-15199D01*
X35057Y-15383D01*
X35069Y-15576D01*
X35120Y-15700D01*
X35198Y-15731D01*
X35479Y-15450D01*
X35479Y-15591D01*
X35268Y-15801D01*
X35299Y-15879D01*
X35483Y-15942D01*
X35676Y-15930D01*
X35800Y-15879D01*
X35831Y-15801D01*
X35831Y-30541D01*
X35812Y-30636D01*
X35812Y-31063D01*
X35849Y-31250D01*
X35955Y-31408D01*
X36113Y-31514D01*
X36300Y-31551D01*
X36486Y-31514D01*
X36644Y-31408D01*
X36750Y-31250D01*
X36787Y-31063D01*
X36787Y-32063D01*
X35787Y-32063D01*
X35787Y-31063D01*
X35787Y-30636D01*
X35750Y-30449D01*
X35644Y-30291D01*
X35486Y-30185D01*
X35300Y-30148D01*
X35113Y-30185D01*
X35042Y-30232D01*
X35042Y-15516D01*
X35037Y-15436D01*
X35037Y-14353D01*
X34963Y-14174D01*
X34826Y-14036D01*
X34647Y-13962D01*
X34453Y-13962D01*
X34274Y-14036D01*
X34136Y-14173D01*
X34062Y-14352D01*
X34062Y-14546D01*
X34136Y-14725D01*
X34273Y-14863D01*
X34452Y-14937D01*
X34646Y-14937D01*
X34825Y-14863D01*
X34963Y-14726D01*
X35037Y-14547D01*
X35037Y-14353D01*
X35037Y-15436D01*
X35030Y-15323D01*
X34979Y-15199D01*
X34901Y-15168D01*
X34831Y-15239D01*
X34831Y-15098D01*
X34800Y-15020D01*
X34616Y-14957D01*
X34423Y-14969D01*
X34299Y-15020D01*
X34268Y-15098D01*
X34550Y-15379D01*
X34831Y-15098D01*
X34831Y-15239D01*
X34620Y-15450D01*
X34901Y-15731D01*
X34979Y-15700D01*
X35042Y-15516D01*
X35042Y-30232D01*
X34955Y-30291D01*
X34849Y-30449D01*
X34831Y-30541D01*
X34831Y-15801D01*
X34550Y-15520D01*
X34479Y-15591D01*
X34479Y-15450D01*
X34198Y-15168D01*
X34120Y-15199D01*
X34057Y-15383D01*
X34069Y-15576D01*
X34120Y-15700D01*
X34198Y-15731D01*
X34479Y-15450D01*
X34479Y-15591D01*
X34268Y-15801D01*
X34299Y-15879D01*
X34483Y-15942D01*
X34676Y-15930D01*
X34800Y-15879D01*
X34831Y-15801D01*
X34831Y-30541D01*
X34812Y-30633D01*
X34812Y-21748D01*
X34734Y-21559D01*
X34590Y-21415D01*
X34432Y-21349D01*
X34590Y-21284D01*
X34734Y-21140D01*
X34812Y-20952D01*
X34812Y-20748D01*
X34734Y-20559D01*
X34590Y-20415D01*
X34432Y-20349D01*
X34590Y-20284D01*
X34734Y-20140D01*
X34812Y-19952D01*
X34812Y-19748D01*
X34734Y-19559D01*
X34590Y-19415D01*
X34432Y-19349D01*
X34590Y-19284D01*
X34734Y-19140D01*
X34812Y-18952D01*
X34812Y-18748D01*
X34734Y-18559D01*
X34590Y-18415D01*
X34402Y-18337D01*
X34198Y-18337D01*
X34042Y-18401D01*
X34042Y-15516D01*
X34037Y-15436D01*
X34037Y-14353D01*
X33963Y-14174D01*
X33826Y-14036D01*
X33647Y-13962D01*
X33453Y-13962D01*
X33274Y-14036D01*
X33136Y-14173D01*
X33062Y-14352D01*
X33062Y-14546D01*
X33136Y-14725D01*
X33273Y-14863D01*
X33452Y-14937D01*
X33646Y-14937D01*
X33825Y-14863D01*
X33963Y-14726D01*
X34037Y-14547D01*
X34037Y-14353D01*
X34037Y-15436D01*
X34030Y-15323D01*
X33979Y-15199D01*
X33901Y-15168D01*
X33831Y-15239D01*
X33831Y-15098D01*
X33800Y-15020D01*
X33616Y-14957D01*
X33423Y-14969D01*
X33299Y-15020D01*
X33268Y-15098D01*
X33550Y-15379D01*
X33831Y-15098D01*
X33831Y-15239D01*
X33620Y-15450D01*
X33901Y-15731D01*
X33979Y-15700D01*
X34042Y-15516D01*
X34042Y-18401D01*
X34009Y-18415D01*
X33865Y-18559D01*
X33831Y-18641D01*
X33831Y-15801D01*
X33550Y-15520D01*
X33479Y-15591D01*
X33479Y-15450D01*
X33198Y-15168D01*
X33120Y-15199D01*
X33057Y-15383D01*
X33069Y-15576D01*
X33120Y-15700D01*
X33198Y-15731D01*
X33479Y-15450D01*
X33479Y-15591D01*
X33268Y-15801D01*
X33299Y-15879D01*
X33483Y-15942D01*
X33676Y-15930D01*
X33800Y-15879D01*
X33831Y-15801D01*
X33831Y-18641D01*
X33787Y-18747D01*
X33787Y-18951D01*
X33865Y-19140D01*
X34009Y-19284D01*
X34167Y-19350D01*
X34009Y-19415D01*
X33865Y-19559D01*
X33787Y-19747D01*
X33787Y-19951D01*
X33865Y-20140D01*
X34009Y-20284D01*
X34167Y-20350D01*
X34009Y-20415D01*
X33865Y-20559D01*
X33787Y-20747D01*
X33787Y-20951D01*
X33865Y-21140D01*
X34009Y-21284D01*
X34167Y-21350D01*
X34009Y-21415D01*
X33865Y-21559D01*
X33787Y-21747D01*
X33787Y-21951D01*
X33865Y-22140D01*
X34009Y-22284D01*
X34197Y-22362D01*
X34401Y-22362D01*
X34590Y-22284D01*
X34734Y-22140D01*
X34812Y-21952D01*
X34812Y-21748D01*
X34812Y-30633D01*
X34812Y-30636D01*
X34812Y-31063D01*
X34849Y-31250D01*
X34955Y-31408D01*
X35113Y-31514D01*
X35300Y-31551D01*
X35486Y-31514D01*
X35644Y-31408D01*
X35750Y-31250D01*
X35787Y-31063D01*
X35787Y-32063D01*
X34787Y-32063D01*
X34787Y-31063D01*
X34787Y-30636D01*
X34750Y-30449D01*
X34644Y-30291D01*
X34486Y-30185D01*
X34300Y-30148D01*
X34113Y-30185D01*
X34017Y-30249D01*
X34017Y-30022D01*
X34012Y-29937D01*
X34012Y-26848D01*
X33934Y-26659D01*
X33912Y-26637D01*
X33912Y-23748D01*
X33834Y-23559D01*
X33690Y-23415D01*
X33502Y-23337D01*
X33298Y-23337D01*
X33109Y-23415D01*
X33042Y-23481D01*
X33042Y-15516D01*
X33037Y-15436D01*
X33037Y-14353D01*
X32963Y-14174D01*
X32826Y-14036D01*
X32647Y-13962D01*
X32453Y-13962D01*
X32274Y-14036D01*
X32136Y-14173D01*
X32062Y-14352D01*
X32062Y-14546D01*
X32136Y-14725D01*
X32273Y-14863D01*
X32452Y-14937D01*
X32646Y-14937D01*
X32825Y-14863D01*
X32963Y-14726D01*
X33037Y-14547D01*
X33037Y-14353D01*
X33037Y-15436D01*
X33030Y-15323D01*
X32979Y-15199D01*
X32901Y-15168D01*
X32831Y-15239D01*
X32831Y-15098D01*
X32800Y-15020D01*
X32616Y-14957D01*
X32423Y-14969D01*
X32299Y-15020D01*
X32268Y-15098D01*
X32550Y-15379D01*
X32831Y-15098D01*
X32831Y-15239D01*
X32620Y-15450D01*
X32901Y-15731D01*
X32979Y-15700D01*
X33042Y-15516D01*
X33042Y-23481D01*
X32965Y-23559D01*
X32887Y-23747D01*
X32887Y-23951D01*
X32965Y-24140D01*
X33109Y-24284D01*
X33297Y-24362D01*
X33501Y-24362D01*
X33690Y-24284D01*
X33834Y-24140D01*
X33912Y-23952D01*
X33912Y-23748D01*
X33912Y-26637D01*
X33790Y-26515D01*
X33602Y-26437D01*
X33398Y-26437D01*
X33209Y-26515D01*
X33065Y-26659D01*
X32987Y-26847D01*
X32987Y-27051D01*
X33065Y-27240D01*
X33209Y-27384D01*
X33397Y-27462D01*
X33601Y-27462D01*
X33790Y-27384D01*
X33934Y-27240D01*
X34012Y-27052D01*
X34012Y-26848D01*
X34012Y-29937D01*
X34006Y-29819D01*
X33950Y-29684D01*
X33869Y-29650D01*
X33799Y-29721D01*
X33799Y-29580D01*
X33765Y-29499D01*
X33572Y-29432D01*
X33369Y-29443D01*
X33234Y-29499D01*
X33200Y-29580D01*
X33500Y-29879D01*
X33799Y-29580D01*
X33799Y-29721D01*
X33570Y-29950D01*
X33869Y-30249D01*
X33950Y-30215D01*
X34017Y-30022D01*
X34017Y-30249D01*
X33955Y-30291D01*
X33849Y-30449D01*
X33812Y-30636D01*
X33812Y-31063D01*
X33849Y-31250D01*
X33955Y-31408D01*
X34113Y-31514D01*
X34300Y-31551D01*
X34486Y-31514D01*
X34644Y-31408D01*
X34750Y-31250D01*
X34787Y-31063D01*
X34787Y-32063D01*
X33799Y-32063D01*
X33799Y-30319D01*
X33500Y-30020D01*
X33429Y-30091D01*
X33429Y-29950D01*
X33130Y-29650D01*
X33049Y-29684D01*
X33031Y-29736D01*
X33031Y-27734D01*
X32943Y-27521D01*
X32831Y-27409D01*
X32831Y-15801D01*
X32550Y-15520D01*
X32479Y-15591D01*
X32479Y-15450D01*
X32198Y-15168D01*
X32120Y-15199D01*
X32057Y-15383D01*
X32069Y-15576D01*
X32120Y-15700D01*
X32198Y-15731D01*
X32479Y-15450D01*
X32479Y-15591D01*
X32268Y-15801D01*
X32299Y-15879D01*
X32483Y-15942D01*
X32676Y-15930D01*
X32800Y-15879D01*
X32831Y-15801D01*
X32831Y-27409D01*
X32779Y-27357D01*
X32566Y-27268D01*
X32334Y-27268D01*
X32121Y-27356D01*
X32042Y-27435D01*
X32042Y-15516D01*
X32037Y-15436D01*
X32037Y-14353D01*
X31963Y-14174D01*
X31826Y-14036D01*
X31647Y-13962D01*
X31453Y-13962D01*
X31274Y-14036D01*
X31136Y-14173D01*
X31062Y-14352D01*
X31062Y-14546D01*
X31136Y-14725D01*
X31273Y-14863D01*
X31452Y-14937D01*
X31646Y-14937D01*
X31825Y-14863D01*
X31963Y-14726D01*
X32037Y-14547D01*
X32037Y-14353D01*
X32037Y-15436D01*
X32030Y-15323D01*
X31979Y-15199D01*
X31901Y-15168D01*
X31831Y-15239D01*
X31831Y-15098D01*
X31800Y-15020D01*
X31616Y-14957D01*
X31423Y-14969D01*
X31299Y-15020D01*
X31268Y-15098D01*
X31550Y-15379D01*
X31831Y-15098D01*
X31831Y-15239D01*
X31620Y-15450D01*
X31901Y-15731D01*
X31979Y-15700D01*
X32042Y-15516D01*
X32042Y-27435D01*
X31957Y-27520D01*
X31868Y-27733D01*
X31868Y-27965D01*
X31956Y-28178D01*
X32120Y-28342D01*
X32333Y-28431D01*
X32565Y-28431D01*
X32778Y-28343D01*
X32942Y-28179D01*
X33031Y-27966D01*
X33031Y-27734D01*
X33031Y-29736D01*
X32982Y-29877D01*
X32993Y-30080D01*
X33049Y-30215D01*
X33130Y-30249D01*
X33429Y-29950D01*
X33429Y-30091D01*
X33200Y-30319D01*
X33234Y-30400D01*
X33427Y-30467D01*
X33630Y-30456D01*
X33765Y-30400D01*
X33799Y-30319D01*
X33799Y-32063D01*
X32787Y-32063D01*
X32787Y-31063D01*
X32787Y-30636D01*
X32750Y-30449D01*
X32644Y-30291D01*
X32486Y-30185D01*
X32300Y-30148D01*
X32113Y-30185D01*
X31955Y-30291D01*
X31849Y-30449D01*
X31831Y-30541D01*
X31831Y-15801D01*
X31550Y-15520D01*
X31479Y-15591D01*
X31479Y-15450D01*
X31198Y-15168D01*
X31120Y-15199D01*
X31057Y-15383D01*
X31069Y-15576D01*
X31120Y-15700D01*
X31198Y-15731D01*
X31479Y-15450D01*
X31479Y-15591D01*
X31268Y-15801D01*
X31299Y-15879D01*
X31483Y-15942D01*
X31676Y-15930D01*
X31800Y-15879D01*
X31831Y-15801D01*
X31831Y-30541D01*
X31812Y-30636D01*
X31812Y-31063D01*
X31849Y-31250D01*
X31955Y-31408D01*
X32113Y-31514D01*
X32300Y-31551D01*
X32486Y-31514D01*
X32644Y-31408D01*
X32750Y-31250D01*
X32787Y-31063D01*
X32787Y-32063D01*
X31787Y-32063D01*
X31787Y-31100D01*
X31787Y-30900D01*
X31787Y-30800D01*
X31787Y-30600D01*
X31731Y-30417D01*
X31609Y-30269D01*
X31440Y-30180D01*
X31425Y-30178D01*
X31350Y-30211D01*
X31350Y-30800D01*
X31787Y-30800D01*
X31787Y-30900D01*
X31350Y-30900D01*
X31350Y-31488D01*
X31425Y-31521D01*
X31440Y-31519D01*
X31609Y-31430D01*
X31731Y-31282D01*
X31787Y-31100D01*
X31787Y-32063D01*
X31250Y-32063D01*
X31250Y-31488D01*
X31250Y-30900D01*
X31250Y-30800D01*
X31250Y-30211D01*
X31174Y-30178D01*
X31159Y-30180D01*
X30990Y-30269D01*
X30912Y-30363D01*
X30912Y-23748D01*
X30834Y-23559D01*
X30690Y-23415D01*
X30502Y-23337D01*
X30298Y-23337D01*
X30109Y-23415D01*
X29965Y-23559D01*
X29887Y-23747D01*
X29887Y-23951D01*
X29965Y-24140D01*
X30109Y-24284D01*
X30297Y-24362D01*
X30501Y-24362D01*
X30690Y-24284D01*
X30834Y-24140D01*
X30912Y-23952D01*
X30912Y-23748D01*
X30912Y-30363D01*
X30868Y-30417D01*
X30812Y-30600D01*
X30812Y-30800D01*
X31250Y-30800D01*
X31250Y-30900D01*
X30812Y-30900D01*
X30812Y-31100D01*
X30868Y-31282D01*
X30990Y-31430D01*
X31159Y-31519D01*
X31174Y-31521D01*
X31250Y-31488D01*
X31250Y-32063D01*
X30787Y-32063D01*
X30787Y-31100D01*
X30787Y-30900D01*
X30787Y-30800D01*
X30787Y-30600D01*
X30731Y-30417D01*
X30609Y-30269D01*
X30440Y-30180D01*
X30425Y-30178D01*
X30350Y-30211D01*
X30350Y-30800D01*
X30787Y-30800D01*
X30787Y-30900D01*
X30350Y-30900D01*
X30350Y-31488D01*
X30425Y-31521D01*
X30440Y-31519D01*
X30609Y-31430D01*
X30731Y-31282D01*
X30787Y-31100D01*
X30787Y-32063D01*
X30250Y-32063D01*
X30250Y-31488D01*
X30250Y-30900D01*
X30250Y-30800D01*
X30250Y-30211D01*
X30174Y-30178D01*
X30159Y-30180D01*
X30031Y-30248D01*
X30031Y-27734D01*
X29943Y-27521D01*
X29779Y-27357D01*
X29566Y-27268D01*
X29334Y-27268D01*
X29187Y-27329D01*
X29187Y-16503D01*
X29113Y-16324D01*
X28976Y-16186D01*
X28797Y-16112D01*
X28603Y-16112D01*
X28424Y-16186D01*
X28286Y-16323D01*
X28282Y-16333D01*
X27844Y-16333D01*
X27834Y-16309D01*
X27690Y-16165D01*
X27502Y-16087D01*
X27298Y-16087D01*
X27187Y-16132D01*
X27187Y-12063D01*
X27187Y-11636D01*
X27150Y-11449D01*
X27044Y-11291D01*
X26886Y-11185D01*
X26700Y-11148D01*
X26513Y-11185D01*
X26355Y-11291D01*
X26249Y-11449D01*
X26212Y-11636D01*
X26212Y-11960D01*
X26187Y-11985D01*
X26187Y-11636D01*
X26150Y-11449D01*
X26044Y-11291D01*
X25886Y-11185D01*
X25700Y-11148D01*
X25513Y-11185D01*
X25355Y-11291D01*
X25249Y-11449D01*
X25212Y-11636D01*
X25212Y-12063D01*
X25249Y-12250D01*
X25338Y-12383D01*
X25048Y-12383D01*
X25131Y-12282D01*
X25187Y-12100D01*
X25187Y-11900D01*
X25187Y-11800D01*
X25187Y-11600D01*
X25131Y-11417D01*
X25009Y-11269D01*
X24840Y-11180D01*
X24825Y-11178D01*
X24750Y-11211D01*
X24750Y-11800D01*
X25187Y-11800D01*
X25187Y-11900D01*
X24750Y-11900D01*
X24750Y-11907D01*
X24650Y-11907D01*
X24650Y-11900D01*
X24650Y-11800D01*
X24650Y-11211D01*
X24574Y-11178D01*
X24559Y-11180D01*
X24390Y-11269D01*
X24268Y-11417D01*
X24212Y-11600D01*
X24212Y-11800D01*
X24650Y-11800D01*
X24650Y-11900D01*
X24212Y-11900D01*
X24212Y-12100D01*
X24268Y-12282D01*
X24378Y-12416D01*
X24311Y-12461D01*
X24187Y-12585D01*
X24187Y-12063D01*
X24187Y-11636D01*
X24150Y-11449D01*
X24044Y-11291D01*
X23886Y-11185D01*
X23700Y-11148D01*
X23513Y-11185D01*
X23355Y-11291D01*
X23249Y-11449D01*
X23212Y-11636D01*
X23212Y-12063D01*
X23249Y-12250D01*
X23355Y-12408D01*
X23513Y-12514D01*
X23700Y-12551D01*
X23886Y-12514D01*
X24044Y-12408D01*
X24150Y-12250D01*
X24187Y-12063D01*
X24187Y-12585D01*
X22761Y-14011D01*
X22703Y-14098D01*
X22683Y-14200D01*
X22683Y-14448D01*
X22608Y-14498D01*
X22503Y-14654D01*
X22466Y-14839D01*
X22466Y-15260D01*
X22503Y-15445D01*
X22608Y-15601D01*
X22683Y-15651D01*
X22683Y-17448D01*
X22608Y-17498D01*
X22503Y-17654D01*
X22466Y-17839D01*
X22466Y-18260D01*
X22503Y-18445D01*
X22608Y-18601D01*
X22765Y-18706D01*
X22950Y-18743D01*
X23134Y-18706D01*
X23291Y-18601D01*
X23396Y-18445D01*
X23433Y-18260D01*
X23433Y-17839D01*
X23396Y-17654D01*
X23291Y-17498D01*
X23216Y-17448D01*
X23216Y-15651D01*
X23291Y-15601D01*
X23396Y-15445D01*
X23433Y-15260D01*
X23433Y-14839D01*
X23396Y-14654D01*
X23291Y-14498D01*
X23216Y-14448D01*
X23216Y-14310D01*
X24610Y-12916D01*
X24706Y-12916D01*
X23711Y-13911D01*
X23653Y-13998D01*
X23633Y-14100D01*
X23633Y-14472D01*
X23573Y-14531D01*
X23515Y-14673D01*
X23515Y-14826D01*
X23573Y-14967D01*
X23681Y-15076D01*
X23823Y-15134D01*
X23976Y-15134D01*
X24117Y-15076D01*
X24145Y-15048D01*
X24158Y-15062D01*
X24193Y-15027D01*
X24211Y-15094D01*
X24357Y-15140D01*
X24510Y-15126D01*
X24588Y-15094D01*
X24606Y-15027D01*
X24606Y-15027D01*
X24641Y-15062D01*
X24654Y-15048D01*
X24681Y-15076D01*
X24823Y-15134D01*
X24976Y-15134D01*
X25117Y-15076D01*
X25149Y-15044D01*
X25181Y-15076D01*
X25323Y-15134D01*
X25476Y-15134D01*
X25617Y-15076D01*
X25677Y-15016D01*
X25787Y-15016D01*
X25787Y-15201D01*
X25865Y-15390D01*
X26009Y-15534D01*
X26197Y-15612D01*
X26401Y-15612D01*
X26590Y-15534D01*
X26734Y-15390D01*
X26812Y-15202D01*
X26812Y-14998D01*
X26734Y-14809D01*
X26590Y-14665D01*
X26402Y-14587D01*
X26198Y-14587D01*
X26174Y-14597D01*
X26138Y-14561D01*
X26051Y-14503D01*
X25950Y-14483D01*
X25677Y-14483D01*
X25618Y-14423D01*
X25476Y-14365D01*
X25323Y-14365D01*
X25182Y-14423D01*
X25166Y-14439D01*
X25166Y-14410D01*
X25260Y-14316D01*
X25855Y-14316D01*
X25865Y-14340D01*
X26009Y-14484D01*
X26197Y-14562D01*
X26401Y-14562D01*
X26590Y-14484D01*
X26734Y-14340D01*
X26812Y-14152D01*
X26812Y-13948D01*
X26734Y-13759D01*
X26590Y-13615D01*
X26402Y-13537D01*
X26198Y-13537D01*
X26009Y-13615D01*
X25865Y-13759D01*
X25855Y-13783D01*
X25150Y-13783D01*
X25048Y-13803D01*
X24961Y-13861D01*
X24711Y-14111D01*
X24653Y-14198D01*
X24633Y-14300D01*
X24633Y-14445D01*
X24606Y-14472D01*
X24588Y-14405D01*
X24442Y-14359D01*
X24289Y-14373D01*
X24211Y-14405D01*
X24193Y-14472D01*
X24166Y-14445D01*
X24166Y-14210D01*
X25110Y-13266D01*
X25855Y-13266D01*
X25865Y-13290D01*
X26009Y-13434D01*
X26197Y-13512D01*
X26401Y-13512D01*
X26590Y-13434D01*
X26734Y-13290D01*
X26812Y-13102D01*
X26812Y-12898D01*
X26734Y-12709D01*
X26590Y-12565D01*
X26428Y-12498D01*
X26453Y-12473D01*
X26513Y-12514D01*
X26700Y-12551D01*
X26886Y-12514D01*
X27044Y-12408D01*
X27150Y-12250D01*
X27187Y-12063D01*
X27187Y-16132D01*
X27109Y-16165D01*
X26965Y-16309D01*
X26887Y-16497D01*
X26887Y-16701D01*
X26965Y-16890D01*
X27109Y-17034D01*
X27297Y-17112D01*
X27501Y-17112D01*
X27690Y-17034D01*
X27834Y-16890D01*
X27844Y-16866D01*
X28282Y-16866D01*
X28286Y-16875D01*
X28423Y-17013D01*
X28602Y-17087D01*
X28796Y-17087D01*
X28975Y-17013D01*
X29113Y-16876D01*
X29187Y-16697D01*
X29187Y-16503D01*
X29187Y-27329D01*
X29121Y-27356D01*
X29117Y-27360D01*
X29117Y-22172D01*
X29106Y-21969D01*
X29050Y-21834D01*
X28969Y-21800D01*
X28899Y-21871D01*
X28899Y-21730D01*
X28865Y-21649D01*
X28672Y-21582D01*
X28469Y-21593D01*
X28334Y-21649D01*
X28300Y-21730D01*
X28600Y-22029D01*
X28899Y-21730D01*
X28899Y-21871D01*
X28670Y-22100D01*
X28969Y-22399D01*
X29050Y-22365D01*
X29117Y-22172D01*
X29117Y-27360D01*
X29112Y-27365D01*
X29112Y-23387D01*
X29112Y-22737D01*
X29084Y-22668D01*
X29031Y-22615D01*
X28962Y-22587D01*
X28887Y-22587D01*
X28776Y-22587D01*
X28865Y-22550D01*
X28899Y-22469D01*
X28600Y-22170D01*
X28529Y-22241D01*
X28529Y-22100D01*
X28230Y-21800D01*
X28149Y-21834D01*
X28082Y-22027D01*
X28093Y-22230D01*
X28149Y-22365D01*
X28230Y-22399D01*
X28529Y-22100D01*
X28529Y-22241D01*
X28300Y-22469D01*
X28334Y-22550D01*
X28439Y-22587D01*
X28237Y-22587D01*
X28168Y-22615D01*
X28115Y-22668D01*
X28087Y-22737D01*
X28087Y-22812D01*
X28087Y-23462D01*
X28115Y-23531D01*
X28168Y-23584D01*
X28237Y-23612D01*
X28312Y-23612D01*
X28962Y-23612D01*
X29031Y-23584D01*
X29084Y-23531D01*
X29112Y-23462D01*
X29112Y-23387D01*
X29112Y-27365D01*
X29030Y-27447D01*
X29030Y-24865D01*
X28926Y-24615D01*
X28735Y-24423D01*
X28485Y-24320D01*
X28215Y-24319D01*
X27965Y-24423D01*
X27773Y-24614D01*
X27670Y-24864D01*
X27669Y-25134D01*
X27773Y-25384D01*
X27964Y-25576D01*
X28214Y-25679D01*
X28484Y-25680D01*
X28734Y-25576D01*
X28926Y-25385D01*
X29029Y-25135D01*
X29030Y-24865D01*
X29030Y-27447D01*
X28957Y-27520D01*
X28868Y-27733D01*
X28868Y-27965D01*
X28956Y-28178D01*
X29120Y-28342D01*
X29333Y-28431D01*
X29565Y-28431D01*
X29778Y-28343D01*
X29942Y-28179D01*
X30031Y-27966D01*
X30031Y-27734D01*
X30031Y-30248D01*
X29990Y-30269D01*
X29868Y-30417D01*
X29812Y-30600D01*
X29812Y-30800D01*
X30250Y-30800D01*
X30250Y-30900D01*
X29812Y-30900D01*
X29812Y-31100D01*
X29868Y-31282D01*
X29990Y-31430D01*
X30159Y-31519D01*
X30174Y-31521D01*
X30250Y-31488D01*
X30250Y-32063D01*
X29787Y-32063D01*
X29787Y-31063D01*
X29787Y-30636D01*
X29750Y-30449D01*
X29644Y-30291D01*
X29486Y-30185D01*
X29300Y-30148D01*
X29113Y-30185D01*
X28955Y-30291D01*
X28849Y-30449D01*
X28812Y-30636D01*
X28812Y-31063D01*
X28849Y-31250D01*
X28955Y-31408D01*
X29113Y-31514D01*
X29300Y-31551D01*
X29486Y-31514D01*
X29644Y-31408D01*
X29750Y-31250D01*
X29787Y-31063D01*
X29787Y-32063D01*
X28787Y-32063D01*
X28787Y-31063D01*
X28787Y-30636D01*
X28750Y-30449D01*
X28644Y-30291D01*
X28590Y-30255D01*
X28590Y-27069D01*
X28590Y-26330D01*
X28549Y-26123D01*
X28432Y-25947D01*
X28256Y-25830D01*
X28050Y-25789D01*
X27843Y-25830D01*
X27667Y-25947D01*
X27550Y-26123D01*
X27509Y-26330D01*
X27509Y-27069D01*
X27550Y-27276D01*
X27631Y-27397D01*
X27606Y-27380D01*
X27400Y-27339D01*
X27240Y-27371D01*
X27240Y-27102D01*
X27240Y-26750D01*
X27240Y-26650D01*
X27240Y-26297D01*
X27180Y-26094D01*
X27046Y-25930D01*
X26860Y-25829D01*
X26833Y-25823D01*
X26812Y-25832D01*
X26750Y-25856D01*
X26750Y-26650D01*
X27240Y-26650D01*
X27240Y-26750D01*
X26750Y-26750D01*
X26750Y-27543D01*
X26833Y-27576D01*
X26860Y-27570D01*
X27046Y-27469D01*
X27180Y-27305D01*
X27240Y-27102D01*
X27240Y-27371D01*
X27193Y-27380D01*
X27017Y-27497D01*
X26900Y-27673D01*
X26859Y-27880D01*
X26859Y-28619D01*
X26900Y-28826D01*
X27017Y-29002D01*
X27193Y-29119D01*
X27400Y-29160D01*
X27606Y-29119D01*
X27782Y-29002D01*
X27899Y-28826D01*
X27940Y-28619D01*
X27940Y-27880D01*
X27899Y-27673D01*
X27818Y-27552D01*
X27843Y-27569D01*
X28050Y-27610D01*
X28256Y-27569D01*
X28432Y-27452D01*
X28549Y-27276D01*
X28590Y-27069D01*
X28590Y-30255D01*
X28486Y-30185D01*
X28300Y-30148D01*
X28113Y-30185D01*
X27955Y-30291D01*
X27849Y-30449D01*
X27812Y-30636D01*
X27812Y-31063D01*
X27849Y-31250D01*
X27955Y-31408D01*
X28113Y-31514D01*
X28300Y-31551D01*
X28486Y-31514D01*
X28644Y-31408D01*
X28750Y-31250D01*
X28787Y-31063D01*
X28787Y-32063D01*
X27787Y-32063D01*
X27787Y-31063D01*
X27787Y-30636D01*
X27750Y-30449D01*
X27644Y-30291D01*
X27486Y-30185D01*
X27300Y-30148D01*
X27113Y-30185D01*
X26955Y-30291D01*
X26849Y-30449D01*
X26812Y-30636D01*
X26812Y-31063D01*
X26849Y-31250D01*
X26955Y-31408D01*
X27113Y-31514D01*
X27300Y-31551D01*
X27486Y-31514D01*
X27644Y-31408D01*
X27750Y-31250D01*
X27787Y-31063D01*
X27787Y-32063D01*
X26650Y-32063D01*
X26650Y-27543D01*
X26650Y-26750D01*
X26650Y-26650D01*
X26650Y-25856D01*
X26566Y-25823D01*
X26539Y-25829D01*
X26442Y-25881D01*
X26442Y-18616D01*
X26430Y-18423D01*
X26379Y-18299D01*
X26301Y-18268D01*
X26231Y-18339D01*
X26231Y-18198D01*
X26200Y-18120D01*
X26016Y-18057D01*
X25823Y-18069D01*
X25699Y-18120D01*
X25668Y-18198D01*
X25950Y-18479D01*
X26231Y-18198D01*
X26231Y-18339D01*
X26020Y-18550D01*
X26301Y-18831D01*
X26379Y-18800D01*
X26442Y-18616D01*
X26442Y-25881D01*
X26353Y-25930D01*
X26231Y-26080D01*
X26231Y-18901D01*
X25950Y-18620D01*
X25879Y-18691D01*
X25879Y-18550D01*
X25598Y-18268D01*
X25520Y-18299D01*
X25457Y-18483D01*
X25469Y-18676D01*
X25520Y-18800D01*
X25598Y-18831D01*
X25879Y-18550D01*
X25879Y-18691D01*
X25668Y-18901D01*
X25699Y-18979D01*
X25883Y-19042D01*
X26076Y-19030D01*
X26200Y-18979D01*
X26231Y-18901D01*
X26231Y-26080D01*
X26219Y-26094D01*
X26159Y-26297D01*
X26159Y-26650D01*
X26650Y-26650D01*
X26650Y-26750D01*
X26159Y-26750D01*
X26159Y-27102D01*
X26219Y-27305D01*
X26353Y-27469D01*
X26539Y-27570D01*
X26566Y-27576D01*
X26650Y-27543D01*
X26650Y-32063D01*
X26540Y-32063D01*
X26540Y-28619D01*
X26540Y-27880D01*
X26499Y-27673D01*
X26382Y-27497D01*
X26206Y-27380D01*
X26029Y-27345D01*
X26029Y-25454D01*
X26029Y-24545D01*
X26029Y-24470D01*
X26001Y-24401D01*
X25948Y-24348D01*
X25879Y-24320D01*
X25817Y-24320D01*
X25817Y-22172D01*
X25806Y-21969D01*
X25750Y-21834D01*
X25669Y-21800D01*
X25599Y-21871D01*
X25599Y-21730D01*
X25565Y-21649D01*
X25437Y-21604D01*
X25437Y-18812D01*
X25437Y-18212D01*
X25409Y-18143D01*
X25356Y-18090D01*
X25287Y-18062D01*
X25212Y-18062D01*
X24917Y-18062D01*
X24917Y-16672D01*
X24906Y-16469D01*
X24850Y-16334D01*
X24769Y-16300D01*
X24699Y-16371D01*
X24699Y-16230D01*
X24665Y-16149D01*
X24606Y-16128D01*
X24472Y-16082D01*
X24269Y-16093D01*
X24134Y-16149D01*
X24100Y-16230D01*
X24400Y-16529D01*
X24699Y-16230D01*
X24699Y-16371D01*
X24470Y-16600D01*
X24769Y-16899D01*
X24850Y-16865D01*
X24917Y-16672D01*
X24917Y-18062D01*
X24699Y-18062D01*
X24699Y-16969D01*
X24400Y-16670D01*
X24329Y-16741D01*
X24329Y-16600D01*
X24030Y-16300D01*
X23949Y-16334D01*
X23882Y-16527D01*
X23893Y-16730D01*
X23949Y-16865D01*
X24030Y-16899D01*
X24329Y-16600D01*
X24329Y-16741D01*
X24100Y-16969D01*
X24134Y-17050D01*
X24327Y-17117D01*
X24530Y-17106D01*
X24665Y-17050D01*
X24699Y-16969D01*
X24699Y-18062D01*
X24612Y-18062D01*
X24543Y-18090D01*
X24490Y-18143D01*
X24462Y-18212D01*
X24462Y-18287D01*
X24462Y-18887D01*
X24490Y-18956D01*
X24543Y-19009D01*
X24612Y-19037D01*
X24687Y-19037D01*
X25287Y-19037D01*
X25356Y-19009D01*
X25409Y-18956D01*
X25437Y-18887D01*
X25437Y-18812D01*
X25437Y-21604D01*
X25372Y-21582D01*
X25169Y-21593D01*
X25034Y-21649D01*
X25000Y-21730D01*
X25300Y-22029D01*
X25599Y-21730D01*
X25599Y-21871D01*
X25370Y-22100D01*
X25669Y-22399D01*
X25750Y-22365D01*
X25817Y-22172D01*
X25817Y-24320D01*
X25812Y-24320D01*
X25812Y-23387D01*
X25812Y-22737D01*
X25784Y-22668D01*
X25731Y-22615D01*
X25662Y-22587D01*
X25587Y-22587D01*
X25476Y-22587D01*
X25565Y-22550D01*
X25599Y-22469D01*
X25300Y-22170D01*
X25229Y-22241D01*
X25229Y-22100D01*
X24930Y-21800D01*
X24849Y-21834D01*
X24782Y-22027D01*
X24793Y-22230D01*
X24849Y-22365D01*
X24930Y-22399D01*
X25229Y-22100D01*
X25229Y-22241D01*
X25000Y-22469D01*
X25034Y-22550D01*
X25139Y-22587D01*
X24937Y-22587D01*
X24868Y-22615D01*
X24815Y-22668D01*
X24787Y-22737D01*
X24787Y-22812D01*
X24787Y-23462D01*
X24815Y-23531D01*
X24868Y-23584D01*
X24937Y-23612D01*
X25012Y-23612D01*
X25662Y-23612D01*
X25731Y-23584D01*
X25784Y-23531D01*
X25812Y-23462D01*
X25812Y-23387D01*
X25812Y-24320D01*
X25446Y-24320D01*
X25400Y-24367D01*
X25400Y-24950D01*
X25982Y-24950D01*
X26029Y-24903D01*
X26029Y-24545D01*
X26029Y-25454D01*
X26029Y-25096D01*
X25982Y-25050D01*
X25400Y-25050D01*
X25400Y-25632D01*
X25446Y-25679D01*
X25879Y-25679D01*
X25948Y-25651D01*
X26001Y-25598D01*
X26029Y-25529D01*
X26029Y-25454D01*
X26029Y-27345D01*
X26000Y-27339D01*
X25793Y-27380D01*
X25740Y-27416D01*
X25830Y-27305D01*
X25890Y-27102D01*
X25890Y-26750D01*
X25890Y-26650D01*
X25890Y-26297D01*
X25830Y-26094D01*
X25696Y-25930D01*
X25510Y-25829D01*
X25483Y-25823D01*
X25400Y-25856D01*
X25400Y-26650D01*
X25890Y-26650D01*
X25890Y-26750D01*
X25400Y-26750D01*
X25400Y-27543D01*
X25483Y-27576D01*
X25510Y-27570D01*
X25602Y-27520D01*
X25500Y-27673D01*
X25459Y-27880D01*
X25459Y-28619D01*
X25500Y-28826D01*
X25617Y-29002D01*
X25793Y-29119D01*
X26000Y-29160D01*
X26206Y-29119D01*
X26382Y-29002D01*
X26499Y-28826D01*
X26540Y-28619D01*
X26540Y-32063D01*
X25300Y-32063D01*
X25300Y-27543D01*
X25300Y-26750D01*
X25300Y-26650D01*
X25300Y-25856D01*
X25300Y-25632D01*
X25300Y-25050D01*
X25300Y-24950D01*
X25300Y-24367D01*
X25253Y-24320D01*
X24820Y-24320D01*
X24751Y-24348D01*
X24698Y-24401D01*
X24670Y-24470D01*
X24670Y-24545D01*
X24670Y-24903D01*
X24717Y-24950D01*
X25300Y-24950D01*
X25300Y-25050D01*
X24717Y-25050D01*
X24670Y-25096D01*
X24670Y-25454D01*
X24670Y-25529D01*
X24698Y-25598D01*
X24751Y-25651D01*
X24820Y-25679D01*
X25253Y-25679D01*
X25300Y-25632D01*
X25300Y-25856D01*
X25216Y-25823D01*
X25189Y-25829D01*
X25003Y-25930D01*
X24869Y-26094D01*
X24809Y-26297D01*
X24809Y-26650D01*
X25300Y-26650D01*
X25300Y-26750D01*
X24809Y-26750D01*
X24809Y-27102D01*
X24869Y-27305D01*
X25003Y-27469D01*
X25189Y-27570D01*
X25216Y-27576D01*
X25300Y-27543D01*
X25300Y-32063D01*
X23957Y-32063D01*
X23957Y-24760D01*
X23957Y-24339D01*
X23921Y-24154D01*
X23816Y-23998D01*
X23659Y-23893D01*
X23474Y-23856D01*
X23289Y-23893D01*
X23133Y-23998D01*
X23047Y-24126D01*
X23028Y-24098D01*
X22872Y-23993D01*
X22687Y-23957D01*
X22641Y-23966D01*
X22641Y-20364D01*
X22633Y-20091D01*
X22545Y-19879D01*
X22446Y-19824D01*
X22375Y-19894D01*
X22375Y-19753D01*
X22320Y-19654D01*
X22064Y-19558D01*
X21791Y-19566D01*
X21579Y-19654D01*
X21524Y-19753D01*
X21950Y-20179D01*
X22375Y-19753D01*
X22375Y-19894D01*
X22020Y-20250D01*
X22446Y-20675D01*
X22545Y-20620D01*
X22641Y-20364D01*
X22641Y-23966D01*
X22637Y-23966D01*
X22637Y-22712D01*
X22637Y-21712D01*
X22609Y-21643D01*
X22556Y-21590D01*
X22487Y-21562D01*
X22412Y-21562D01*
X22375Y-21562D01*
X22375Y-20746D01*
X21950Y-20320D01*
X21879Y-20391D01*
X21879Y-20250D01*
X21453Y-19824D01*
X21433Y-19835D01*
X21433Y-18296D01*
X21433Y-18100D01*
X21433Y-18000D01*
X21433Y-17803D01*
X21433Y-15296D01*
X21433Y-15100D01*
X21433Y-15000D01*
X21433Y-14803D01*
X21377Y-14622D01*
X21256Y-14476D01*
X21088Y-14387D01*
X21074Y-14386D01*
X21000Y-14419D01*
X21000Y-15000D01*
X21433Y-15000D01*
X21433Y-15100D01*
X21000Y-15100D01*
X21000Y-15680D01*
X21074Y-15713D01*
X21088Y-15712D01*
X21256Y-15623D01*
X21377Y-15477D01*
X21433Y-15296D01*
X21433Y-17803D01*
X21377Y-17622D01*
X21256Y-17476D01*
X21088Y-17387D01*
X21074Y-17386D01*
X21000Y-17419D01*
X21000Y-18000D01*
X21433Y-18000D01*
X21433Y-18100D01*
X21000Y-18100D01*
X21000Y-18680D01*
X21074Y-18713D01*
X21088Y-18712D01*
X21256Y-18623D01*
X21377Y-18477D01*
X21433Y-18296D01*
X21433Y-19835D01*
X21354Y-19879D01*
X21258Y-20135D01*
X21266Y-20408D01*
X21354Y-20620D01*
X21453Y-20675D01*
X21879Y-20250D01*
X21879Y-20391D01*
X21524Y-20746D01*
X21579Y-20845D01*
X21835Y-20941D01*
X22108Y-20933D01*
X22320Y-20845D01*
X22375Y-20746D01*
X22375Y-21562D01*
X21412Y-21562D01*
X21343Y-21590D01*
X21290Y-21643D01*
X21262Y-21712D01*
X21262Y-21787D01*
X21262Y-22787D01*
X21290Y-22856D01*
X21343Y-22909D01*
X21412Y-22937D01*
X21487Y-22937D01*
X22487Y-22937D01*
X22556Y-22909D01*
X22609Y-22856D01*
X22637Y-22787D01*
X22637Y-22712D01*
X22637Y-23966D01*
X22502Y-23993D01*
X22345Y-24098D01*
X22293Y-24176D01*
X22241Y-24098D01*
X22084Y-23993D01*
X21900Y-23957D01*
X21715Y-23993D01*
X21558Y-24098D01*
X21506Y-24176D01*
X21454Y-24098D01*
X21297Y-23993D01*
X21112Y-23957D01*
X20927Y-23993D01*
X20900Y-24012D01*
X20900Y-18680D01*
X20900Y-18100D01*
X20900Y-18000D01*
X20900Y-17419D01*
X20900Y-15680D01*
X20900Y-15100D01*
X20900Y-15000D01*
X20900Y-14419D01*
X20825Y-14386D01*
X20811Y-14387D01*
X20643Y-14476D01*
X20522Y-14622D01*
X20466Y-14803D01*
X20466Y-15000D01*
X20900Y-15000D01*
X20900Y-15100D01*
X20466Y-15100D01*
X20466Y-15296D01*
X20522Y-15477D01*
X20643Y-15623D01*
X20811Y-15712D01*
X20825Y-15713D01*
X20900Y-15680D01*
X20900Y-17419D01*
X20825Y-17386D01*
X20811Y-17387D01*
X20643Y-17476D01*
X20522Y-17622D01*
X20466Y-17803D01*
X20466Y-18000D01*
X20900Y-18000D01*
X20900Y-18100D01*
X20466Y-18100D01*
X20466Y-18296D01*
X20522Y-18477D01*
X20643Y-18623D01*
X20811Y-18712D01*
X20825Y-18713D01*
X20900Y-18680D01*
X20900Y-24012D01*
X20771Y-24098D01*
X20752Y-24126D01*
X20666Y-23998D01*
X20510Y-23893D01*
X20325Y-23856D01*
X20140Y-23893D01*
X19983Y-23998D01*
X19878Y-24154D01*
X19842Y-24339D01*
X19842Y-24760D01*
X19878Y-24945D01*
X19983Y-25101D01*
X20140Y-25206D01*
X20325Y-25243D01*
X20510Y-25206D01*
X20666Y-25101D01*
X20752Y-24973D01*
X20771Y-25001D01*
X20927Y-25106D01*
X21112Y-25142D01*
X21297Y-25106D01*
X21454Y-25001D01*
X21506Y-24923D01*
X21558Y-25001D01*
X21715Y-25106D01*
X21900Y-25142D01*
X22084Y-25106D01*
X22241Y-25001D01*
X22293Y-24923D01*
X22345Y-25001D01*
X22502Y-25106D01*
X22687Y-25142D01*
X22872Y-25106D01*
X23028Y-25001D01*
X23047Y-24973D01*
X23133Y-25101D01*
X23289Y-25206D01*
X23474Y-25243D01*
X23659Y-25206D01*
X23816Y-25101D01*
X23921Y-24945D01*
X23957Y-24760D01*
X23957Y-32063D01*
X22783Y-32063D01*
X22783Y-30560D01*
X22783Y-30139D01*
X22783Y-27560D01*
X22783Y-27139D01*
X22746Y-26954D01*
X22641Y-26798D01*
X22484Y-26693D01*
X22300Y-26656D01*
X22115Y-26693D01*
X21958Y-26798D01*
X21853Y-26954D01*
X21816Y-27139D01*
X21816Y-27560D01*
X21853Y-27745D01*
X21958Y-27901D01*
X22115Y-28006D01*
X22300Y-28043D01*
X22484Y-28006D01*
X22641Y-27901D01*
X22746Y-27745D01*
X22783Y-27560D01*
X22783Y-30139D01*
X22746Y-29954D01*
X22641Y-29798D01*
X22484Y-29693D01*
X22300Y-29656D01*
X22115Y-29693D01*
X21958Y-29798D01*
X21853Y-29954D01*
X21816Y-30139D01*
X21816Y-30560D01*
X21853Y-30745D01*
X21958Y-30901D01*
X22115Y-31006D01*
X22300Y-31043D01*
X22484Y-31006D01*
X22641Y-30901D01*
X22746Y-30745D01*
X22783Y-30560D01*
X22783Y-32063D01*
X20783Y-32063D01*
X20783Y-30596D01*
X20783Y-30400D01*
X20783Y-30300D01*
X20783Y-30103D01*
X20783Y-27596D01*
X20783Y-27400D01*
X20783Y-27300D01*
X20783Y-27103D01*
X20727Y-26922D01*
X20606Y-26776D01*
X20438Y-26687D01*
X20424Y-26686D01*
X20350Y-26719D01*
X20350Y-27300D01*
X20783Y-27300D01*
X20783Y-27400D01*
X20350Y-27400D01*
X20350Y-27980D01*
X20424Y-28013D01*
X20438Y-28012D01*
X20606Y-27923D01*
X20727Y-27777D01*
X20783Y-27596D01*
X20783Y-30103D01*
X20727Y-29922D01*
X20606Y-29776D01*
X20438Y-29687D01*
X20424Y-29686D01*
X20350Y-29719D01*
X20350Y-30300D01*
X20783Y-30300D01*
X20783Y-30400D01*
X20350Y-30400D01*
X20350Y-30980D01*
X20424Y-31013D01*
X20438Y-31012D01*
X20606Y-30923D01*
X20727Y-30777D01*
X20783Y-30596D01*
X20783Y-32063D01*
X20250Y-32063D01*
X20250Y-30980D01*
X20250Y-30400D01*
X20250Y-30300D01*
X20250Y-29719D01*
X20250Y-27980D01*
X20250Y-27400D01*
X20250Y-27300D01*
X20250Y-26719D01*
X20175Y-26686D01*
X20161Y-26687D01*
X19993Y-26776D01*
X19872Y-26922D01*
X19816Y-27103D01*
X19816Y-27300D01*
X20250Y-27300D01*
X20250Y-27400D01*
X19816Y-27400D01*
X19816Y-27596D01*
X19872Y-27777D01*
X19993Y-27923D01*
X20161Y-28012D01*
X20175Y-28013D01*
X20250Y-27980D01*
X20250Y-29719D01*
X20175Y-29686D01*
X20161Y-29687D01*
X19993Y-29776D01*
X19872Y-29922D01*
X19816Y-30103D01*
X19816Y-30300D01*
X20250Y-30300D01*
X20250Y-30400D01*
X19816Y-30400D01*
X19816Y-30596D01*
X19872Y-30777D01*
X19993Y-30923D01*
X20161Y-31012D01*
X20175Y-31013D01*
X20250Y-30980D01*
X20250Y-32063D01*
X19485Y-32063D01*
X19502Y-32052D01*
X19564Y-31959D01*
X19586Y-31850D01*
X19586Y-10636D01*
X50513Y-10636D01*
X50513Y-30203D01*
X50486Y-30185D01*
X50462Y-30181D01*
X50462Y-14348D01*
X50384Y-14159D01*
X50240Y-14015D01*
X50052Y-13937D01*
X49848Y-13937D01*
X49659Y-14015D01*
X49515Y-14159D01*
X49437Y-14347D01*
X49437Y-14551D01*
X49450Y-14583D01*
X49450Y-14583D01*
X49287Y-14583D01*
X49287Y-14312D01*
X49287Y-13712D01*
X49259Y-13643D01*
X49206Y-13590D01*
X49137Y-13562D01*
X49062Y-13562D01*
X48462Y-13562D01*
X48393Y-13590D01*
X48340Y-13643D01*
X48312Y-13712D01*
X48312Y-13787D01*
X48312Y-14387D01*
X48340Y-14456D01*
X48393Y-14509D01*
X48462Y-14537D01*
X48537Y-14537D01*
X49137Y-14537D01*
X49206Y-14509D01*
X49259Y-14456D01*
X49287Y-14387D01*
X49287Y-14312D01*
X49287Y-14583D01*
X48292Y-14583D01*
X48292Y-14116D01*
X48280Y-13923D01*
X48229Y-13799D01*
X48151Y-13768D01*
X47870Y-14050D01*
X48151Y-14331D01*
X48229Y-14300D01*
X48292Y-14116D01*
X48292Y-14583D01*
X48081Y-14583D01*
X48081Y-14401D01*
X47800Y-14120D01*
X47518Y-14401D01*
X47549Y-14479D01*
X47733Y-14542D01*
X47926Y-14530D01*
X48050Y-14479D01*
X48081Y-14401D01*
X48081Y-14583D01*
X45810Y-14583D01*
X45764Y-14537D01*
X45896Y-14537D01*
X46075Y-14463D01*
X46213Y-14326D01*
X46287Y-14147D01*
X46287Y-13953D01*
X46269Y-13907D01*
X46374Y-13802D01*
X46312Y-13952D01*
X46312Y-14146D01*
X46386Y-14325D01*
X46523Y-14463D01*
X46702Y-14537D01*
X46896Y-14537D01*
X47075Y-14463D01*
X47213Y-14326D01*
X47287Y-14147D01*
X47287Y-13953D01*
X47283Y-13943D01*
X47340Y-13886D01*
X47307Y-13983D01*
X47319Y-14176D01*
X47370Y-14300D01*
X47448Y-14331D01*
X47729Y-14050D01*
X47723Y-14044D01*
X47794Y-13973D01*
X47800Y-13979D01*
X48081Y-13698D01*
X48050Y-13620D01*
X47866Y-13557D01*
X47673Y-13569D01*
X47647Y-13579D01*
X48287Y-12939D01*
X48287Y-13051D01*
X48365Y-13240D01*
X48509Y-13384D01*
X48697Y-13462D01*
X48901Y-13462D01*
X49090Y-13384D01*
X49234Y-13240D01*
X49312Y-13052D01*
X49312Y-12848D01*
X49234Y-12659D01*
X49090Y-12515D01*
X48902Y-12437D01*
X48698Y-12437D01*
X48566Y-12491D01*
X48566Y-12460D01*
X48644Y-12408D01*
X48750Y-12250D01*
X48787Y-12063D01*
X48787Y-11739D01*
X48810Y-11716D01*
X49505Y-11716D01*
X49515Y-11740D01*
X49659Y-11884D01*
X49847Y-11962D01*
X50051Y-11962D01*
X50240Y-11884D01*
X50384Y-11740D01*
X50462Y-11552D01*
X50462Y-11348D01*
X50384Y-11159D01*
X50240Y-11015D01*
X50052Y-10937D01*
X49848Y-10937D01*
X49659Y-11015D01*
X49515Y-11159D01*
X49505Y-11183D01*
X48700Y-11183D01*
X48598Y-11203D01*
X48555Y-11232D01*
X48555Y-11232D01*
X48486Y-11185D01*
X48300Y-11148D01*
X48113Y-11185D01*
X47955Y-11291D01*
X47849Y-11449D01*
X47812Y-11636D01*
X47812Y-12063D01*
X47849Y-12250D01*
X47955Y-12408D01*
X48020Y-12452D01*
X46906Y-13566D01*
X46897Y-13562D01*
X46703Y-13562D01*
X46552Y-13624D01*
X47038Y-13138D01*
X47038Y-13138D01*
X47038Y-13138D01*
X47488Y-12688D01*
X47546Y-12601D01*
X47546Y-12601D01*
X47566Y-12500D01*
X47566Y-12460D01*
X47644Y-12408D01*
X47750Y-12250D01*
X47787Y-12063D01*
X47787Y-11636D01*
X47750Y-11449D01*
X47644Y-11291D01*
X47486Y-11185D01*
X47300Y-11148D01*
X47113Y-11185D01*
X46955Y-11291D01*
X46849Y-11449D01*
X46812Y-11636D01*
X46812Y-12063D01*
X46849Y-12250D01*
X46955Y-12408D01*
X46990Y-12432D01*
X46787Y-12635D01*
X46787Y-12063D01*
X46787Y-11636D01*
X46750Y-11449D01*
X46644Y-11291D01*
X46486Y-11185D01*
X46300Y-11148D01*
X46113Y-11185D01*
X45955Y-11291D01*
X45849Y-11449D01*
X45812Y-11636D01*
X45812Y-12063D01*
X45849Y-12250D01*
X45955Y-12408D01*
X46113Y-12514D01*
X46300Y-12551D01*
X46486Y-12514D01*
X46644Y-12408D01*
X46750Y-12250D01*
X46787Y-12063D01*
X46787Y-12635D01*
X46739Y-12683D01*
X46244Y-12683D01*
X46234Y-12659D01*
X46090Y-12515D01*
X45902Y-12437D01*
X45698Y-12437D01*
X45566Y-12491D01*
X45566Y-12460D01*
X45644Y-12408D01*
X45750Y-12250D01*
X45787Y-12063D01*
X45787Y-11636D01*
X45750Y-11449D01*
X45644Y-11291D01*
X45486Y-11185D01*
X45300Y-11148D01*
X45113Y-11185D01*
X44955Y-11291D01*
X44849Y-11449D01*
X44812Y-11636D01*
X44812Y-12063D01*
X44849Y-12250D01*
X44955Y-12408D01*
X45020Y-12452D01*
X44961Y-12511D01*
X44903Y-12598D01*
X44883Y-12700D01*
X44883Y-14300D01*
X44903Y-14401D01*
X44961Y-14488D01*
X45332Y-14859D01*
X45135Y-14859D01*
X44787Y-14510D01*
X44787Y-12063D01*
X44787Y-11636D01*
X44750Y-11449D01*
X44644Y-11291D01*
X44486Y-11185D01*
X44300Y-11148D01*
X44113Y-11185D01*
X43955Y-11291D01*
X43849Y-11449D01*
X43812Y-11636D01*
X43812Y-11960D01*
X43787Y-11985D01*
X43787Y-11636D01*
X43750Y-11449D01*
X43644Y-11291D01*
X43486Y-11185D01*
X43300Y-11148D01*
X43113Y-11185D01*
X42955Y-11291D01*
X42849Y-11449D01*
X42812Y-11636D01*
X42812Y-11960D01*
X42787Y-11985D01*
X42787Y-11636D01*
X42750Y-11449D01*
X42644Y-11291D01*
X42486Y-11185D01*
X42300Y-11148D01*
X42113Y-11185D01*
X41955Y-11291D01*
X41849Y-11449D01*
X41812Y-11636D01*
X41812Y-12063D01*
X41832Y-12165D01*
X41751Y-12245D01*
X41787Y-12063D01*
X41787Y-11636D01*
X41750Y-11449D01*
X41644Y-11291D01*
X41486Y-11185D01*
X41300Y-11148D01*
X41113Y-11185D01*
X40955Y-11291D01*
X40849Y-11449D01*
X40822Y-11583D01*
X39150Y-11583D01*
X39048Y-11603D01*
X38961Y-11661D01*
X37787Y-12835D01*
X37787Y-12063D01*
X37787Y-11636D01*
X37750Y-11449D01*
X37644Y-11291D01*
X37486Y-11185D01*
X37300Y-11148D01*
X37113Y-11185D01*
X36955Y-11291D01*
X36849Y-11449D01*
X36812Y-11636D01*
X36812Y-11960D01*
X36787Y-11985D01*
X36787Y-11636D01*
X36750Y-11449D01*
X36644Y-11291D01*
X36486Y-11185D01*
X36300Y-11148D01*
X36113Y-11185D01*
X35955Y-11291D01*
X35849Y-11449D01*
X35812Y-11636D01*
X35812Y-11960D01*
X35787Y-11985D01*
X35787Y-11636D01*
X35750Y-11449D01*
X35644Y-11291D01*
X35486Y-11185D01*
X35300Y-11148D01*
X35113Y-11185D01*
X34955Y-11291D01*
X34849Y-11449D01*
X34812Y-11636D01*
X34812Y-11960D01*
X34787Y-11985D01*
X34787Y-11636D01*
X34750Y-11449D01*
X34644Y-11291D01*
X34486Y-11185D01*
X34300Y-11148D01*
X34113Y-11185D01*
X33955Y-11291D01*
X33849Y-11449D01*
X33812Y-11636D01*
X33812Y-11960D01*
X33787Y-11985D01*
X33787Y-11636D01*
X33750Y-11449D01*
X33644Y-11291D01*
X33486Y-11185D01*
X33300Y-11148D01*
X33113Y-11185D01*
X32955Y-11291D01*
X32849Y-11449D01*
X32812Y-11636D01*
X32812Y-11960D01*
X32787Y-11985D01*
X32787Y-11636D01*
X32750Y-11449D01*
X32644Y-11291D01*
X32486Y-11185D01*
X32300Y-11148D01*
X32113Y-11185D01*
X31955Y-11291D01*
X31849Y-11449D01*
X31812Y-11636D01*
X31812Y-11960D01*
X31361Y-12411D01*
X31303Y-12498D01*
X31283Y-12600D01*
X31283Y-12962D01*
X31212Y-12962D01*
X31187Y-12972D01*
X31187Y-12063D01*
X31187Y-11636D01*
X31150Y-11449D01*
X31044Y-11291D01*
X30886Y-11185D01*
X30700Y-11148D01*
X30513Y-11185D01*
X30355Y-11291D01*
X30249Y-11449D01*
X30212Y-11636D01*
X30212Y-11960D01*
X30187Y-11985D01*
X30187Y-11636D01*
X30150Y-11449D01*
X30044Y-11291D01*
X29886Y-11185D01*
X29700Y-11148D01*
X29513Y-11185D01*
X29355Y-11291D01*
X29249Y-11449D01*
X29212Y-11636D01*
X29212Y-12063D01*
X29249Y-12250D01*
X29355Y-12408D01*
X29433Y-12460D01*
X29433Y-12500D01*
X29402Y-12487D01*
X29198Y-12487D01*
X29009Y-12565D01*
X28966Y-12608D01*
X28966Y-12460D01*
X29044Y-12408D01*
X29150Y-12250D01*
X29187Y-12063D01*
X29187Y-11636D01*
X29150Y-11449D01*
X29044Y-11291D01*
X28886Y-11185D01*
X28700Y-11148D01*
X28513Y-11185D01*
X28355Y-11291D01*
X28249Y-11449D01*
X28212Y-11636D01*
X28212Y-12063D01*
X28249Y-12250D01*
X28355Y-12408D01*
X28433Y-12460D01*
X28433Y-13850D01*
X28453Y-13951D01*
X28511Y-14038D01*
X28711Y-14238D01*
X28711Y-14238D01*
X28754Y-14267D01*
X28798Y-14296D01*
X28798Y-14296D01*
X28851Y-14306D01*
X28865Y-14340D01*
X29009Y-14484D01*
X29197Y-14562D01*
X29401Y-14562D01*
X29590Y-14484D01*
X29734Y-14340D01*
X29812Y-14152D01*
X29812Y-13948D01*
X29734Y-13759D01*
X29590Y-13615D01*
X29402Y-13537D01*
X29198Y-13537D01*
X29009Y-13615D01*
X28966Y-13658D01*
X28966Y-13391D01*
X29009Y-13434D01*
X29197Y-13512D01*
X29401Y-13512D01*
X29590Y-13434D01*
X29734Y-13290D01*
X29812Y-13102D01*
X29812Y-13014D01*
X29888Y-12938D01*
X29888Y-12938D01*
X29946Y-12851D01*
X29966Y-12750D01*
X29966Y-12750D01*
X29966Y-12460D01*
X30044Y-12408D01*
X30083Y-12350D01*
X30083Y-15439D01*
X29812Y-15710D01*
X29812Y-14998D01*
X29734Y-14809D01*
X29590Y-14665D01*
X29402Y-14587D01*
X29198Y-14587D01*
X29009Y-14665D01*
X28865Y-14809D01*
X28855Y-14833D01*
X28710Y-14833D01*
X27966Y-14089D01*
X27966Y-12460D01*
X28044Y-12408D01*
X28150Y-12250D01*
X28187Y-12063D01*
X28187Y-11636D01*
X28150Y-11449D01*
X28044Y-11291D01*
X27886Y-11185D01*
X27700Y-11148D01*
X27513Y-11185D01*
X27355Y-11291D01*
X27249Y-11449D01*
X27212Y-11636D01*
X27212Y-12063D01*
X27249Y-12250D01*
X27355Y-12408D01*
X27433Y-12460D01*
X27433Y-14200D01*
X27453Y-14301D01*
X27511Y-14388D01*
X28411Y-15288D01*
X28498Y-15346D01*
X28498Y-15346D01*
X28600Y-15366D01*
X28855Y-15366D01*
X28865Y-15390D01*
X29009Y-15534D01*
X29197Y-15612D01*
X29401Y-15612D01*
X29590Y-15534D01*
X29734Y-15390D01*
X29812Y-15202D01*
X29812Y-14998D01*
X29812Y-15710D01*
X29511Y-16011D01*
X29453Y-16098D01*
X29450Y-16112D01*
X29362Y-16112D01*
X29293Y-16140D01*
X29240Y-16193D01*
X29212Y-16262D01*
X29212Y-16337D01*
X29212Y-16937D01*
X29240Y-17006D01*
X29293Y-17059D01*
X29362Y-17087D01*
X29437Y-17087D01*
X30037Y-17087D01*
X30106Y-17059D01*
X30159Y-17006D01*
X30187Y-16937D01*
X30187Y-16862D01*
X30187Y-16262D01*
X30159Y-16193D01*
X30121Y-16155D01*
X30538Y-15738D01*
X30538Y-15738D01*
X30596Y-15651D01*
X30616Y-15550D01*
X30616Y-15550D01*
X30616Y-12534D01*
X30700Y-12551D01*
X30886Y-12514D01*
X31044Y-12408D01*
X31150Y-12250D01*
X31187Y-12063D01*
X31187Y-12972D01*
X31143Y-12990D01*
X31090Y-13043D01*
X31062Y-13112D01*
X31062Y-13187D01*
X31062Y-13787D01*
X31090Y-13856D01*
X31143Y-13909D01*
X31212Y-13937D01*
X31287Y-13937D01*
X31887Y-13937D01*
X31956Y-13909D01*
X32009Y-13856D01*
X32037Y-13787D01*
X32037Y-13712D01*
X32037Y-13112D01*
X32009Y-13043D01*
X31956Y-12990D01*
X31887Y-12962D01*
X31816Y-12962D01*
X31816Y-12710D01*
X32053Y-12473D01*
X32113Y-12514D01*
X32293Y-12549D01*
X32283Y-12600D01*
X32283Y-12962D01*
X32212Y-12962D01*
X32143Y-12990D01*
X32090Y-13043D01*
X32062Y-13112D01*
X32062Y-13187D01*
X32062Y-13787D01*
X32090Y-13856D01*
X32143Y-13909D01*
X32212Y-13937D01*
X32287Y-13937D01*
X32887Y-13937D01*
X32956Y-13909D01*
X33009Y-13856D01*
X33037Y-13787D01*
X33037Y-13712D01*
X33037Y-13112D01*
X33009Y-13043D01*
X32956Y-12990D01*
X32887Y-12962D01*
X32816Y-12962D01*
X32816Y-12710D01*
X33053Y-12473D01*
X33113Y-12514D01*
X33293Y-12549D01*
X33283Y-12600D01*
X33283Y-12962D01*
X33212Y-12962D01*
X33143Y-12990D01*
X33090Y-13043D01*
X33062Y-13112D01*
X33062Y-13187D01*
X33062Y-13787D01*
X33090Y-13856D01*
X33143Y-13909D01*
X33212Y-13937D01*
X33287Y-13937D01*
X33887Y-13937D01*
X33956Y-13909D01*
X34009Y-13856D01*
X34037Y-13787D01*
X34037Y-13712D01*
X34037Y-13112D01*
X34009Y-13043D01*
X33956Y-12990D01*
X33887Y-12962D01*
X33816Y-12962D01*
X33816Y-12710D01*
X34053Y-12473D01*
X34113Y-12514D01*
X34293Y-12549D01*
X34283Y-12600D01*
X34283Y-12962D01*
X34212Y-12962D01*
X34143Y-12990D01*
X34090Y-13043D01*
X34062Y-13112D01*
X34062Y-13187D01*
X34062Y-13787D01*
X34090Y-13856D01*
X34143Y-13909D01*
X34212Y-13937D01*
X34287Y-13937D01*
X34887Y-13937D01*
X34956Y-13909D01*
X35009Y-13856D01*
X35037Y-13787D01*
X35037Y-13712D01*
X35037Y-13112D01*
X35009Y-13043D01*
X34956Y-12990D01*
X34887Y-12962D01*
X34816Y-12962D01*
X34816Y-12710D01*
X35053Y-12473D01*
X35113Y-12514D01*
X35293Y-12549D01*
X35283Y-12600D01*
X35283Y-12962D01*
X35212Y-12962D01*
X35143Y-12990D01*
X35090Y-13043D01*
X35062Y-13112D01*
X35062Y-13187D01*
X35062Y-13787D01*
X35090Y-13856D01*
X35143Y-13909D01*
X35212Y-13937D01*
X35287Y-13937D01*
X35887Y-13937D01*
X35956Y-13909D01*
X36009Y-13856D01*
X36037Y-13787D01*
X36037Y-13712D01*
X36037Y-13112D01*
X36009Y-13043D01*
X35956Y-12990D01*
X35887Y-12962D01*
X35816Y-12962D01*
X35816Y-12710D01*
X36053Y-12473D01*
X36113Y-12514D01*
X36293Y-12549D01*
X36283Y-12600D01*
X36283Y-12962D01*
X36212Y-12962D01*
X36143Y-12990D01*
X36090Y-13043D01*
X36062Y-13112D01*
X36062Y-13187D01*
X36062Y-13787D01*
X36090Y-13856D01*
X36143Y-13909D01*
X36212Y-13937D01*
X36287Y-13937D01*
X36887Y-13937D01*
X36956Y-13909D01*
X37009Y-13856D01*
X37037Y-13787D01*
X37037Y-13712D01*
X37037Y-13112D01*
X37009Y-13043D01*
X36956Y-12990D01*
X36887Y-12962D01*
X36816Y-12962D01*
X36816Y-12710D01*
X37053Y-12473D01*
X37113Y-12514D01*
X37300Y-12551D01*
X37486Y-12514D01*
X37644Y-12408D01*
X37750Y-12250D01*
X37787Y-12063D01*
X37787Y-12835D01*
X37660Y-12962D01*
X37212Y-12962D01*
X37143Y-12990D01*
X37090Y-13043D01*
X37062Y-13112D01*
X37062Y-13187D01*
X37062Y-13787D01*
X37090Y-13856D01*
X37143Y-13909D01*
X37212Y-13937D01*
X37287Y-13937D01*
X37887Y-13937D01*
X37956Y-13909D01*
X38009Y-13856D01*
X38037Y-13787D01*
X38037Y-13712D01*
X38037Y-13339D01*
X38062Y-13314D01*
X38062Y-13787D01*
X38090Y-13856D01*
X38143Y-13909D01*
X38212Y-13937D01*
X38287Y-13937D01*
X38887Y-13937D01*
X38956Y-13909D01*
X39009Y-13856D01*
X39037Y-13787D01*
X39037Y-13712D01*
X39037Y-13339D01*
X39062Y-13314D01*
X39062Y-13787D01*
X39090Y-13856D01*
X39143Y-13909D01*
X39212Y-13937D01*
X39287Y-13937D01*
X39887Y-13937D01*
X39956Y-13909D01*
X40009Y-13856D01*
X40037Y-13787D01*
X40037Y-13712D01*
X40037Y-13414D01*
X40062Y-13390D01*
X40062Y-13787D01*
X40090Y-13856D01*
X40143Y-13909D01*
X40212Y-13937D01*
X40287Y-13937D01*
X40887Y-13937D01*
X40956Y-13909D01*
X41009Y-13856D01*
X41037Y-13787D01*
X41037Y-13712D01*
X41037Y-13564D01*
X41085Y-13516D01*
X41645Y-13516D01*
X41648Y-13518D01*
X41570Y-13549D01*
X41507Y-13733D01*
X41519Y-13926D01*
X41570Y-14050D01*
X41648Y-14081D01*
X41929Y-13800D01*
X41923Y-13794D01*
X41994Y-13723D01*
X42000Y-13729D01*
X42005Y-13723D01*
X42076Y-13794D01*
X42070Y-13800D01*
X42351Y-14081D01*
X42429Y-14050D01*
X42492Y-13866D01*
X42480Y-13673D01*
X42429Y-13549D01*
X42351Y-13518D01*
X42367Y-13503D01*
X42401Y-13496D01*
X42401Y-13496D01*
X42488Y-13438D01*
X43110Y-12816D01*
X43600Y-12816D01*
X43701Y-12796D01*
X43701Y-12796D01*
X43788Y-12738D01*
X44053Y-12473D01*
X44113Y-12514D01*
X44300Y-12551D01*
X44486Y-12514D01*
X44644Y-12408D01*
X44750Y-12250D01*
X44787Y-12063D01*
X44787Y-14510D01*
X43888Y-13611D01*
X43801Y-13553D01*
X43700Y-13533D01*
X43487Y-13533D01*
X43487Y-13462D01*
X43459Y-13393D01*
X43406Y-13340D01*
X43337Y-13312D01*
X43262Y-13312D01*
X42662Y-13312D01*
X42593Y-13340D01*
X42540Y-13393D01*
X42512Y-13462D01*
X42512Y-13537D01*
X42512Y-14137D01*
X42540Y-14206D01*
X42593Y-14259D01*
X42662Y-14287D01*
X42737Y-14287D01*
X43337Y-14287D01*
X43406Y-14259D01*
X43459Y-14206D01*
X43487Y-14137D01*
X43487Y-14066D01*
X43589Y-14066D01*
X44825Y-15302D01*
X44786Y-15302D01*
X44632Y-15365D01*
X44515Y-15483D01*
X44475Y-15578D01*
X44436Y-15483D01*
X44318Y-15366D01*
X44165Y-15302D01*
X43999Y-15302D01*
X43845Y-15365D01*
X43728Y-15483D01*
X43688Y-15578D01*
X43649Y-15483D01*
X43531Y-15366D01*
X43378Y-15302D01*
X43212Y-15302D01*
X43058Y-15365D01*
X42941Y-15483D01*
X42903Y-15572D01*
X42878Y-15511D01*
X42808Y-15489D01*
X42737Y-15560D01*
X42737Y-15418D01*
X42715Y-15348D01*
X42557Y-15296D01*
X42492Y-15302D01*
X42391Y-15309D01*
X42298Y-15348D01*
X42281Y-15404D01*
X42281Y-14151D01*
X42000Y-13870D01*
X41929Y-13941D01*
X41718Y-14151D01*
X41749Y-14229D01*
X41933Y-14292D01*
X42126Y-14280D01*
X42250Y-14229D01*
X42281Y-14151D01*
X42281Y-15404D01*
X42276Y-15418D01*
X42507Y-15649D01*
X42737Y-15418D01*
X42737Y-15560D01*
X42577Y-15720D01*
X42808Y-15950D01*
X42878Y-15928D01*
X42900Y-15860D01*
X42940Y-15956D01*
X43058Y-16073D01*
X43211Y-16137D01*
X43377Y-16137D01*
X43531Y-16074D01*
X43648Y-15956D01*
X43688Y-15861D01*
X43727Y-15956D01*
X43845Y-16073D01*
X43998Y-16137D01*
X44164Y-16137D01*
X44318Y-16074D01*
X44435Y-15956D01*
X44475Y-15861D01*
X44514Y-15956D01*
X44632Y-16073D01*
X44785Y-16137D01*
X44951Y-16137D01*
X45105Y-16074D01*
X45222Y-15956D01*
X45263Y-15860D01*
X45302Y-15956D01*
X45420Y-16073D01*
X45573Y-16137D01*
X45739Y-16137D01*
X45893Y-16074D01*
X46010Y-15956D01*
X46050Y-15862D01*
X46088Y-15956D01*
X46206Y-16073D01*
X46359Y-16137D01*
X46525Y-16137D01*
X46679Y-16074D01*
X46796Y-15956D01*
X46837Y-15860D01*
X46876Y-15956D01*
X46994Y-16073D01*
X47147Y-16137D01*
X47313Y-16137D01*
X47467Y-16074D01*
X47584Y-15956D01*
X47624Y-15861D01*
X47649Y-15923D01*
X46271Y-17301D01*
X46312Y-17202D01*
X46312Y-16998D01*
X46234Y-16809D01*
X46090Y-16665D01*
X45902Y-16587D01*
X45698Y-16587D01*
X45509Y-16665D01*
X45365Y-16809D01*
X45287Y-16997D01*
X45287Y-17201D01*
X45365Y-17390D01*
X45509Y-17534D01*
X45697Y-17612D01*
X45901Y-17612D01*
X46001Y-17571D01*
X45925Y-17647D01*
X45902Y-17637D01*
X45698Y-17637D01*
X45509Y-17715D01*
X45365Y-17859D01*
X45287Y-18047D01*
X45287Y-18251D01*
X45365Y-18440D01*
X45509Y-18584D01*
X45533Y-18594D01*
X45533Y-18755D01*
X45509Y-18765D01*
X45365Y-18909D01*
X45287Y-19097D01*
X45287Y-19301D01*
X45365Y-19490D01*
X45509Y-19634D01*
X45697Y-19712D01*
X45901Y-19712D01*
X46090Y-19634D01*
X46234Y-19490D01*
X46312Y-19302D01*
X46312Y-19098D01*
X46234Y-18909D01*
X46090Y-18765D01*
X46066Y-18755D01*
X46066Y-18594D01*
X46090Y-18584D01*
X46234Y-18440D01*
X46312Y-18252D01*
X46312Y-18048D01*
X46302Y-18024D01*
X48206Y-16120D01*
X48230Y-16084D01*
X48254Y-16074D01*
X48371Y-15956D01*
X48411Y-15861D01*
X48450Y-15956D01*
X48533Y-16039D01*
X48533Y-16655D01*
X48509Y-16665D01*
X48365Y-16809D01*
X48287Y-16997D01*
X48287Y-17201D01*
X48365Y-17390D01*
X48509Y-17534D01*
X48697Y-17612D01*
X48901Y-17612D01*
X49001Y-17571D01*
X48925Y-17647D01*
X48902Y-17637D01*
X48698Y-17637D01*
X48509Y-17715D01*
X48365Y-17859D01*
X48287Y-18047D01*
X48287Y-18251D01*
X48365Y-18440D01*
X48509Y-18584D01*
X48697Y-18662D01*
X48901Y-18662D01*
X49090Y-18584D01*
X49234Y-18440D01*
X49312Y-18252D01*
X49312Y-18048D01*
X49302Y-18024D01*
X50288Y-17038D01*
X50346Y-16951D01*
X50346Y-16951D01*
X50366Y-16850D01*
X50366Y-16850D01*
X50366Y-15850D01*
X50366Y-15500D01*
X50346Y-15398D01*
X50288Y-15311D01*
X50288Y-15311D01*
X49939Y-14962D01*
X50051Y-14962D01*
X50240Y-14884D01*
X50384Y-14740D01*
X50462Y-14552D01*
X50462Y-14348D01*
X50462Y-30181D01*
X50300Y-30148D01*
X50113Y-30185D01*
X50010Y-30254D01*
X50010Y-24297D01*
X49966Y-24188D01*
X49966Y-22105D01*
X49966Y-20037D01*
X49317Y-20037D01*
X49317Y-19272D01*
X49306Y-19069D01*
X49250Y-18934D01*
X49169Y-18900D01*
X49099Y-18971D01*
X49099Y-18830D01*
X49065Y-18749D01*
X48872Y-18682D01*
X48669Y-18693D01*
X48534Y-18749D01*
X48500Y-18830D01*
X48800Y-19129D01*
X49099Y-18830D01*
X49099Y-18971D01*
X48870Y-19200D01*
X49169Y-19499D01*
X49250Y-19465D01*
X49317Y-19272D01*
X49317Y-20037D01*
X49099Y-20037D01*
X49099Y-19569D01*
X48800Y-19270D01*
X48729Y-19341D01*
X48729Y-19200D01*
X48430Y-18900D01*
X48349Y-18934D01*
X48282Y-19127D01*
X48293Y-19330D01*
X48349Y-19465D01*
X48430Y-19499D01*
X48729Y-19200D01*
X48729Y-19341D01*
X48500Y-19569D01*
X48534Y-19650D01*
X48727Y-19717D01*
X48930Y-19706D01*
X49065Y-19650D01*
X49099Y-19569D01*
X49099Y-20037D01*
X42737Y-20037D01*
X42737Y-16021D01*
X42507Y-15790D01*
X42436Y-15861D01*
X42436Y-15720D01*
X42205Y-15489D01*
X42135Y-15511D01*
X42083Y-15669D01*
X42096Y-15835D01*
X42135Y-15928D01*
X42205Y-15950D01*
X42436Y-15720D01*
X42436Y-15861D01*
X42276Y-16021D01*
X42298Y-16091D01*
X42456Y-16143D01*
X42622Y-16130D01*
X42715Y-16091D01*
X42737Y-16021D01*
X42737Y-20037D01*
X41333Y-20037D01*
X41333Y-22105D01*
X42351Y-22105D01*
X42351Y-23287D01*
X48848Y-23287D01*
X48848Y-22105D01*
X49966Y-22105D01*
X49966Y-24188D01*
X49947Y-24143D01*
X49829Y-24026D01*
X49676Y-23962D01*
X49510Y-23962D01*
X49356Y-24025D01*
X49239Y-24143D01*
X49198Y-24239D01*
X49159Y-24143D01*
X49041Y-24026D01*
X48888Y-23962D01*
X48722Y-23962D01*
X48568Y-24025D01*
X48451Y-24143D01*
X48411Y-24238D01*
X48372Y-24143D01*
X48254Y-24026D01*
X48101Y-23962D01*
X47935Y-23962D01*
X47781Y-24025D01*
X47664Y-24143D01*
X47624Y-24238D01*
X47585Y-24143D01*
X47467Y-24026D01*
X47314Y-23962D01*
X47148Y-23962D01*
X46994Y-24025D01*
X46877Y-24143D01*
X46836Y-24239D01*
X46797Y-24143D01*
X46679Y-24026D01*
X46526Y-23962D01*
X46360Y-23962D01*
X46206Y-24025D01*
X46089Y-24143D01*
X46049Y-24237D01*
X46011Y-24143D01*
X45893Y-24026D01*
X45740Y-23962D01*
X45574Y-23962D01*
X45420Y-24025D01*
X45303Y-24143D01*
X45262Y-24239D01*
X45223Y-24143D01*
X45105Y-24026D01*
X44952Y-23962D01*
X44786Y-23962D01*
X44632Y-24025D01*
X44515Y-24143D01*
X44475Y-24238D01*
X44436Y-24143D01*
X44318Y-24026D01*
X44165Y-23962D01*
X43999Y-23962D01*
X43845Y-24025D01*
X43728Y-24143D01*
X43688Y-24238D01*
X43649Y-24143D01*
X43531Y-24026D01*
X43378Y-23962D01*
X43212Y-23962D01*
X43058Y-24025D01*
X42941Y-24143D01*
X42900Y-24239D01*
X42861Y-24143D01*
X42743Y-24026D01*
X42590Y-23962D01*
X42424Y-23962D01*
X42270Y-24025D01*
X42153Y-24143D01*
X42089Y-24296D01*
X42089Y-24462D01*
X42152Y-24616D01*
X42270Y-24733D01*
X42423Y-24797D01*
X42589Y-24797D01*
X42743Y-24734D01*
X42860Y-24616D01*
X42901Y-24520D01*
X42940Y-24616D01*
X43058Y-24733D01*
X43211Y-24797D01*
X43377Y-24797D01*
X43531Y-24734D01*
X43648Y-24616D01*
X43688Y-24521D01*
X43727Y-24616D01*
X43845Y-24733D01*
X43998Y-24797D01*
X44164Y-24797D01*
X44318Y-24734D01*
X44435Y-24616D01*
X44475Y-24521D01*
X44514Y-24616D01*
X44632Y-24733D01*
X44785Y-24797D01*
X44951Y-24797D01*
X45105Y-24734D01*
X45222Y-24616D01*
X45263Y-24520D01*
X45302Y-24616D01*
X45420Y-24733D01*
X45573Y-24797D01*
X45739Y-24797D01*
X45893Y-24734D01*
X46010Y-24616D01*
X46050Y-24522D01*
X46088Y-24616D01*
X46206Y-24733D01*
X46359Y-24797D01*
X46525Y-24797D01*
X46679Y-24734D01*
X46796Y-24616D01*
X46837Y-24520D01*
X46876Y-24616D01*
X46994Y-24733D01*
X47147Y-24797D01*
X47313Y-24797D01*
X47467Y-24734D01*
X47584Y-24616D01*
X47624Y-24521D01*
X47663Y-24616D01*
X47781Y-24733D01*
X47934Y-24797D01*
X48100Y-24797D01*
X48254Y-24734D01*
X48371Y-24616D01*
X48411Y-24521D01*
X48450Y-24616D01*
X48568Y-24733D01*
X48721Y-24797D01*
X48887Y-24797D01*
X49041Y-24734D01*
X49158Y-24616D01*
X49199Y-24520D01*
X49238Y-24616D01*
X49356Y-24733D01*
X49509Y-24797D01*
X49675Y-24797D01*
X49829Y-24734D01*
X49946Y-24616D01*
X50010Y-24463D01*
X50010Y-24297D01*
X50010Y-30254D01*
X49955Y-30291D01*
X49849Y-30449D01*
X49812Y-30636D01*
X49812Y-31063D01*
X49849Y-31250D01*
X49955Y-31408D01*
X50113Y-31514D01*
X50300Y-31551D01*
X50486Y-31514D01*
X50513Y-31496D01*
X50513Y-32063D01*
X50513Y-32063D01*
G37*
G54D29*
X50513Y-32063D02*
X49787Y-32063D01*
X49787Y-31063D01*
X49787Y-30636D01*
X49750Y-30449D01*
X49692Y-30363D01*
X49692Y-29466D01*
X49680Y-29273D01*
X49629Y-29149D01*
X49551Y-29118D01*
X49481Y-29189D01*
X49481Y-29048D01*
X49450Y-28970D01*
X49266Y-28907D01*
X49073Y-28919D01*
X48949Y-28970D01*
X48918Y-29048D01*
X49200Y-29329D01*
X49481Y-29048D01*
X49481Y-29189D01*
X49270Y-29400D01*
X49551Y-29681D01*
X49629Y-29650D01*
X49692Y-29466D01*
X49692Y-30363D01*
X49644Y-30291D01*
X49486Y-30185D01*
X49481Y-30184D01*
X49481Y-29751D01*
X49200Y-29470D01*
X49129Y-29541D01*
X49129Y-29400D01*
X48848Y-29118D01*
X48770Y-29149D01*
X48707Y-29333D01*
X48719Y-29526D01*
X48770Y-29650D01*
X48848Y-29681D01*
X49129Y-29400D01*
X49129Y-29541D01*
X48918Y-29751D01*
X48949Y-29829D01*
X49133Y-29892D01*
X49326Y-29880D01*
X49450Y-29829D01*
X49481Y-29751D01*
X49481Y-30184D01*
X49300Y-30148D01*
X49113Y-30185D01*
X48955Y-30291D01*
X48849Y-30449D01*
X48812Y-30636D01*
X48812Y-31063D01*
X48849Y-31250D01*
X48955Y-31408D01*
X49113Y-31514D01*
X49300Y-31551D01*
X49486Y-31514D01*
X49644Y-31408D01*
X49750Y-31250D01*
X49787Y-31063D01*
X49787Y-32063D01*
X48787Y-32063D01*
X48787Y-31063D01*
X48787Y-30636D01*
X48750Y-30449D01*
X48687Y-30355D01*
X48687Y-29303D01*
X48613Y-29124D01*
X48476Y-28986D01*
X48297Y-28912D01*
X48103Y-28912D01*
X47962Y-28970D01*
X47962Y-27998D01*
X47884Y-27809D01*
X47740Y-27665D01*
X47552Y-27587D01*
X47348Y-27587D01*
X47159Y-27665D01*
X47015Y-27809D01*
X46937Y-27997D01*
X46937Y-28201D01*
X47015Y-28390D01*
X47159Y-28534D01*
X47347Y-28612D01*
X47551Y-28612D01*
X47740Y-28534D01*
X47884Y-28390D01*
X47962Y-28202D01*
X47962Y-27998D01*
X47962Y-28970D01*
X47924Y-28986D01*
X47786Y-29123D01*
X47712Y-29302D01*
X47712Y-29496D01*
X47786Y-29675D01*
X47923Y-29813D01*
X48102Y-29887D01*
X48296Y-29887D01*
X48475Y-29813D01*
X48613Y-29676D01*
X48687Y-29497D01*
X48687Y-29303D01*
X48687Y-30355D01*
X48644Y-30291D01*
X48486Y-30185D01*
X48300Y-30148D01*
X48113Y-30185D01*
X47955Y-30291D01*
X47849Y-30449D01*
X47812Y-30636D01*
X47812Y-31063D01*
X47849Y-31250D01*
X47955Y-31408D01*
X48113Y-31514D01*
X48300Y-31551D01*
X48486Y-31514D01*
X48644Y-31408D01*
X48750Y-31250D01*
X48787Y-31063D01*
X48787Y-32063D01*
X47787Y-32063D01*
X47787Y-31063D01*
X47787Y-30636D01*
X47750Y-30449D01*
X47687Y-30355D01*
X47687Y-29303D01*
X47613Y-29124D01*
X47476Y-28986D01*
X47297Y-28912D01*
X47103Y-28912D01*
X46924Y-28986D01*
X46786Y-29123D01*
X46712Y-29302D01*
X46712Y-29496D01*
X46786Y-29675D01*
X46923Y-29813D01*
X47102Y-29887D01*
X47296Y-29887D01*
X47475Y-29813D01*
X47613Y-29676D01*
X47687Y-29497D01*
X47687Y-29303D01*
X47687Y-30355D01*
X47644Y-30291D01*
X47486Y-30185D01*
X47300Y-30148D01*
X47113Y-30185D01*
X46955Y-30291D01*
X46849Y-30449D01*
X46812Y-30636D01*
X46812Y-31063D01*
X46849Y-31250D01*
X46955Y-31408D01*
X47113Y-31514D01*
X47300Y-31551D01*
X47486Y-31514D01*
X47644Y-31408D01*
X47750Y-31250D01*
X47787Y-31063D01*
X47787Y-32063D01*
X46787Y-32063D01*
X46787Y-31063D01*
X46787Y-30636D01*
X46750Y-30449D01*
X46687Y-30355D01*
X46687Y-29662D01*
X46687Y-29062D01*
X46659Y-28993D01*
X46642Y-28977D01*
X46642Y-26216D01*
X46630Y-26023D01*
X46579Y-25899D01*
X46501Y-25868D01*
X46431Y-25939D01*
X46431Y-25798D01*
X46400Y-25720D01*
X46216Y-25657D01*
X46023Y-25669D01*
X45899Y-25720D01*
X45868Y-25798D01*
X46150Y-26079D01*
X46431Y-25798D01*
X46431Y-25939D01*
X46220Y-26150D01*
X46501Y-26431D01*
X46579Y-26400D01*
X46642Y-26216D01*
X46642Y-28977D01*
X46606Y-28940D01*
X46537Y-28912D01*
X46462Y-28912D01*
X46431Y-28912D01*
X46431Y-26501D01*
X46150Y-26220D01*
X46079Y-26291D01*
X46079Y-26150D01*
X45798Y-25868D01*
X45720Y-25899D01*
X45657Y-26083D01*
X45669Y-26276D01*
X45720Y-26400D01*
X45798Y-26431D01*
X46079Y-26150D01*
X46079Y-26291D01*
X45868Y-26501D01*
X45899Y-26579D01*
X46083Y-26642D01*
X46276Y-26630D01*
X46400Y-26579D01*
X46431Y-26501D01*
X46431Y-28912D01*
X45862Y-28912D01*
X45793Y-28940D01*
X45740Y-28993D01*
X45712Y-29062D01*
X45712Y-29137D01*
X45712Y-29737D01*
X45740Y-29806D01*
X45793Y-29859D01*
X45862Y-29887D01*
X45937Y-29887D01*
X46537Y-29887D01*
X46606Y-29859D01*
X46659Y-29806D01*
X46687Y-29737D01*
X46687Y-29662D01*
X46687Y-30355D01*
X46644Y-30291D01*
X46486Y-30185D01*
X46300Y-30148D01*
X46113Y-30185D01*
X45955Y-30291D01*
X45849Y-30449D01*
X45812Y-30636D01*
X45812Y-31063D01*
X45849Y-31250D01*
X45955Y-31408D01*
X46113Y-31514D01*
X46300Y-31551D01*
X46486Y-31514D01*
X46644Y-31408D01*
X46750Y-31250D01*
X46787Y-31063D01*
X46787Y-32063D01*
X45787Y-32063D01*
X45787Y-31063D01*
X45787Y-30636D01*
X45750Y-30449D01*
X45644Y-30291D01*
X45637Y-30286D01*
X45637Y-26412D01*
X45637Y-25812D01*
X45609Y-25743D01*
X45556Y-25690D01*
X45487Y-25662D01*
X45412Y-25662D01*
X44812Y-25662D01*
X44743Y-25690D01*
X44690Y-25743D01*
X44662Y-25812D01*
X44662Y-25887D01*
X44662Y-26487D01*
X44690Y-26556D01*
X44743Y-26609D01*
X44812Y-26637D01*
X44887Y-26637D01*
X45487Y-26637D01*
X45556Y-26609D01*
X45609Y-26556D01*
X45637Y-26487D01*
X45637Y-26412D01*
X45637Y-30286D01*
X45486Y-30185D01*
X45300Y-30148D01*
X45113Y-30185D01*
X44962Y-30286D01*
X44962Y-27998D01*
X44884Y-27809D01*
X44740Y-27665D01*
X44552Y-27587D01*
X44348Y-27587D01*
X44159Y-27665D01*
X44015Y-27809D01*
X43937Y-27997D01*
X43937Y-28201D01*
X44015Y-28390D01*
X44159Y-28534D01*
X44347Y-28612D01*
X44551Y-28612D01*
X44740Y-28534D01*
X44884Y-28390D01*
X44962Y-28202D01*
X44962Y-27998D01*
X44962Y-30286D01*
X44955Y-30291D01*
X44849Y-30449D01*
X44812Y-30636D01*
X44812Y-31063D01*
X44849Y-31250D01*
X44955Y-31408D01*
X45113Y-31514D01*
X45300Y-31551D01*
X45486Y-31514D01*
X45644Y-31408D01*
X45750Y-31250D01*
X45787Y-31063D01*
X45787Y-32063D01*
X44787Y-32063D01*
X44787Y-31063D01*
X44787Y-30636D01*
X44750Y-30449D01*
X44644Y-30291D01*
X44486Y-30185D01*
X44300Y-30148D01*
X44113Y-30185D01*
X43955Y-30291D01*
X43849Y-30449D01*
X43812Y-30636D01*
X43812Y-31063D01*
X43849Y-31250D01*
X43955Y-31408D01*
X44113Y-31514D01*
X44300Y-31551D01*
X44486Y-31514D01*
X44644Y-31408D01*
X44750Y-31250D01*
X44787Y-31063D01*
X44787Y-32063D01*
X43787Y-32063D01*
X43787Y-31063D01*
X43787Y-30636D01*
X43750Y-30449D01*
X43644Y-30291D01*
X43542Y-30223D01*
X43542Y-28416D01*
X43537Y-28336D01*
X43537Y-27253D01*
X43463Y-27074D01*
X43326Y-26936D01*
X43147Y-26862D01*
X42953Y-26862D01*
X42774Y-26936D01*
X42636Y-27073D01*
X42562Y-27252D01*
X42562Y-27446D01*
X42636Y-27625D01*
X42773Y-27763D01*
X42952Y-27837D01*
X43146Y-27837D01*
X43325Y-27763D01*
X43463Y-27626D01*
X43537Y-27447D01*
X43537Y-27253D01*
X43537Y-28336D01*
X43530Y-28223D01*
X43479Y-28099D01*
X43401Y-28068D01*
X43331Y-28139D01*
X43331Y-27998D01*
X43300Y-27920D01*
X43116Y-27857D01*
X42923Y-27869D01*
X42799Y-27920D01*
X42768Y-27998D01*
X43050Y-28279D01*
X43331Y-27998D01*
X43331Y-28139D01*
X43120Y-28350D01*
X43401Y-28631D01*
X43479Y-28600D01*
X43542Y-28416D01*
X43542Y-30223D01*
X43537Y-30220D01*
X43537Y-29612D01*
X43537Y-29012D01*
X43509Y-28943D01*
X43456Y-28890D01*
X43387Y-28862D01*
X43331Y-28862D01*
X43331Y-28701D01*
X43050Y-28420D01*
X42979Y-28491D01*
X42979Y-28350D01*
X42698Y-28068D01*
X42620Y-28099D01*
X42557Y-28283D01*
X42569Y-28476D01*
X42620Y-28600D01*
X42698Y-28631D01*
X42979Y-28350D01*
X42979Y-28491D01*
X42768Y-28701D01*
X42799Y-28779D01*
X42983Y-28842D01*
X43176Y-28830D01*
X43300Y-28779D01*
X43331Y-28701D01*
X43331Y-28862D01*
X43312Y-28862D01*
X42712Y-28862D01*
X42643Y-28890D01*
X42590Y-28943D01*
X42562Y-29012D01*
X42562Y-29087D01*
X42562Y-29687D01*
X42590Y-29756D01*
X42643Y-29809D01*
X42712Y-29837D01*
X42787Y-29837D01*
X43387Y-29837D01*
X43456Y-29809D01*
X43509Y-29756D01*
X43537Y-29687D01*
X43537Y-29612D01*
X43537Y-30220D01*
X43486Y-30185D01*
X43300Y-30148D01*
X43113Y-30185D01*
X42955Y-30291D01*
X42849Y-30449D01*
X42812Y-30636D01*
X42812Y-31063D01*
X42849Y-31250D01*
X42955Y-31408D01*
X43113Y-31514D01*
X43300Y-31551D01*
X43486Y-31514D01*
X43644Y-31408D01*
X43750Y-31250D01*
X43787Y-31063D01*
X43787Y-32063D01*
X42542Y-32063D01*
X42542Y-28416D01*
X42537Y-28336D01*
X42537Y-27253D01*
X42463Y-27074D01*
X42326Y-26936D01*
X42147Y-26862D01*
X41953Y-26862D01*
X41774Y-26936D01*
X41636Y-27073D01*
X41562Y-27252D01*
X41562Y-27446D01*
X41636Y-27625D01*
X41773Y-27763D01*
X41952Y-27837D01*
X42146Y-27837D01*
X42325Y-27763D01*
X42463Y-27626D01*
X42537Y-27447D01*
X42537Y-27253D01*
X42537Y-28336D01*
X42530Y-28223D01*
X42479Y-28099D01*
X42401Y-28068D01*
X42331Y-28139D01*
X42331Y-27998D01*
X42300Y-27920D01*
X42116Y-27857D01*
X41923Y-27869D01*
X41799Y-27920D01*
X41768Y-27998D01*
X42050Y-28279D01*
X42331Y-27998D01*
X42331Y-28139D01*
X42120Y-28350D01*
X42401Y-28631D01*
X42479Y-28600D01*
X42542Y-28416D01*
X42542Y-32063D01*
X42537Y-32063D01*
X42537Y-29612D01*
X42537Y-29012D01*
X42509Y-28943D01*
X42456Y-28890D01*
X42387Y-28862D01*
X42331Y-28862D01*
X42331Y-28701D01*
X42050Y-28420D01*
X41979Y-28491D01*
X41979Y-28350D01*
X41698Y-28068D01*
X41620Y-28099D01*
X41557Y-28283D01*
X41569Y-28476D01*
X41620Y-28600D01*
X41698Y-28631D01*
X41979Y-28350D01*
X41979Y-28491D01*
X41768Y-28701D01*
X41799Y-28779D01*
X41983Y-28842D01*
X42176Y-28830D01*
X42300Y-28779D01*
X42331Y-28701D01*
X42331Y-28862D01*
X42312Y-28862D01*
X41712Y-28862D01*
X41643Y-28890D01*
X41590Y-28943D01*
X41562Y-29012D01*
X41562Y-29087D01*
X41562Y-29687D01*
X41590Y-29756D01*
X41643Y-29809D01*
X41712Y-29837D01*
X41787Y-29837D01*
X42387Y-29837D01*
X42456Y-29809D01*
X42509Y-29756D01*
X42537Y-29687D01*
X42537Y-29612D01*
X42537Y-32063D01*
X41787Y-32063D01*
X41787Y-31063D01*
X41787Y-30636D01*
X41750Y-30449D01*
X41644Y-30291D01*
X41542Y-30223D01*
X41542Y-28416D01*
X41537Y-28336D01*
X41537Y-27253D01*
X41463Y-27074D01*
X41326Y-26936D01*
X41147Y-26862D01*
X41042Y-26862D01*
X41042Y-15516D01*
X41037Y-15436D01*
X41037Y-14353D01*
X40963Y-14174D01*
X40826Y-14036D01*
X40647Y-13962D01*
X40453Y-13962D01*
X40274Y-14036D01*
X40136Y-14173D01*
X40062Y-14352D01*
X40062Y-14546D01*
X40136Y-14725D01*
X40273Y-14863D01*
X40452Y-14937D01*
X40646Y-14937D01*
X40825Y-14863D01*
X40963Y-14726D01*
X41037Y-14547D01*
X41037Y-14353D01*
X41037Y-15436D01*
X41030Y-15323D01*
X40979Y-15199D01*
X40901Y-15168D01*
X40831Y-15239D01*
X40831Y-15098D01*
X40800Y-15020D01*
X40616Y-14957D01*
X40423Y-14969D01*
X40299Y-15020D01*
X40268Y-15098D01*
X40550Y-15379D01*
X40831Y-15098D01*
X40831Y-15239D01*
X40620Y-15450D01*
X40901Y-15731D01*
X40979Y-15700D01*
X41042Y-15516D01*
X41042Y-26862D01*
X40953Y-26862D01*
X40831Y-26912D01*
X40831Y-15801D01*
X40550Y-15520D01*
X40479Y-15591D01*
X40479Y-15450D01*
X40198Y-15168D01*
X40120Y-15199D01*
X40057Y-15383D01*
X40069Y-15576D01*
X40120Y-15700D01*
X40198Y-15731D01*
X40479Y-15450D01*
X40479Y-15591D01*
X40268Y-15801D01*
X40299Y-15879D01*
X40483Y-15942D01*
X40676Y-15930D01*
X40800Y-15879D01*
X40831Y-15801D01*
X40831Y-26912D01*
X40774Y-26936D01*
X40636Y-27073D01*
X40562Y-27252D01*
X40562Y-27446D01*
X40636Y-27625D01*
X40773Y-27763D01*
X40952Y-27837D01*
X41146Y-27837D01*
X41325Y-27763D01*
X41463Y-27626D01*
X41537Y-27447D01*
X41537Y-27253D01*
X41537Y-28336D01*
X41530Y-28223D01*
X41479Y-28099D01*
X41401Y-28068D01*
X41331Y-28139D01*
X41331Y-27998D01*
X41300Y-27920D01*
X41116Y-27857D01*
X40923Y-27869D01*
X40799Y-27920D01*
X40768Y-27998D01*
X41050Y-28279D01*
X41331Y-27998D01*
X41331Y-28139D01*
X41120Y-28350D01*
X41401Y-28631D01*
X41479Y-28600D01*
X41542Y-28416D01*
X41542Y-30223D01*
X41537Y-30220D01*
X41537Y-29612D01*
X41537Y-29012D01*
X41509Y-28943D01*
X41456Y-28890D01*
X41387Y-28862D01*
X41331Y-28862D01*
X41331Y-28701D01*
X41050Y-28420D01*
X40979Y-28491D01*
X40979Y-28350D01*
X40698Y-28068D01*
X40620Y-28099D01*
X40557Y-28283D01*
X40569Y-28476D01*
X40620Y-28600D01*
X40698Y-28631D01*
X40979Y-28350D01*
X40979Y-28491D01*
X40768Y-28701D01*
X40799Y-28779D01*
X40983Y-28842D01*
X41176Y-28830D01*
X41300Y-28779D01*
X41331Y-28701D01*
X41331Y-28862D01*
X41312Y-28862D01*
X40712Y-28862D01*
X40643Y-28890D01*
X40590Y-28943D01*
X40562Y-29012D01*
X40562Y-29087D01*
X40562Y-29687D01*
X40590Y-29756D01*
X40643Y-29809D01*
X40712Y-29837D01*
X40787Y-29837D01*
X41387Y-29837D01*
X41456Y-29809D01*
X41509Y-29756D01*
X41537Y-29687D01*
X41537Y-29612D01*
X41537Y-30220D01*
X41486Y-30185D01*
X41300Y-30148D01*
X41113Y-30185D01*
X40955Y-30291D01*
X40849Y-30449D01*
X40812Y-30636D01*
X40812Y-31063D01*
X40849Y-31250D01*
X40955Y-31408D01*
X41113Y-31514D01*
X41300Y-31551D01*
X41486Y-31514D01*
X41644Y-31408D01*
X41750Y-31250D01*
X41787Y-31063D01*
X41787Y-32063D01*
X40787Y-32063D01*
X40787Y-31063D01*
X40787Y-30636D01*
X40750Y-30449D01*
X40644Y-30291D01*
X40542Y-30223D01*
X40542Y-28416D01*
X40537Y-28336D01*
X40537Y-27253D01*
X40463Y-27074D01*
X40326Y-26936D01*
X40147Y-26862D01*
X40042Y-26862D01*
X40042Y-15516D01*
X40037Y-15436D01*
X40037Y-14353D01*
X39963Y-14174D01*
X39826Y-14036D01*
X39647Y-13962D01*
X39453Y-13962D01*
X39274Y-14036D01*
X39136Y-14173D01*
X39062Y-14352D01*
X39062Y-14546D01*
X39136Y-14725D01*
X39273Y-14863D01*
X39452Y-14937D01*
X39646Y-14937D01*
X39825Y-14863D01*
X39963Y-14726D01*
X40037Y-14547D01*
X40037Y-14353D01*
X40037Y-15436D01*
X40030Y-15323D01*
X39979Y-15199D01*
X39901Y-15168D01*
X39831Y-15239D01*
X39831Y-15098D01*
X39800Y-15020D01*
X39616Y-14957D01*
X39423Y-14969D01*
X39299Y-15020D01*
X39268Y-15098D01*
X39550Y-15379D01*
X39831Y-15098D01*
X39831Y-15239D01*
X39620Y-15450D01*
X39901Y-15731D01*
X39979Y-15700D01*
X40042Y-15516D01*
X40042Y-26862D01*
X39953Y-26862D01*
X39831Y-26912D01*
X39831Y-15801D01*
X39550Y-15520D01*
X39479Y-15591D01*
X39479Y-15450D01*
X39198Y-15168D01*
X39120Y-15199D01*
X39057Y-15383D01*
X39069Y-15576D01*
X39120Y-15700D01*
X39198Y-15731D01*
X39479Y-15450D01*
X39479Y-15591D01*
X39268Y-15801D01*
X39299Y-15879D01*
X39483Y-15942D01*
X39676Y-15930D01*
X39800Y-15879D01*
X39831Y-15801D01*
X39831Y-26912D01*
X39774Y-26936D01*
X39636Y-27073D01*
X39562Y-27252D01*
X39562Y-27446D01*
X39636Y-27625D01*
X39773Y-27763D01*
X39952Y-27837D01*
X40146Y-27837D01*
X40325Y-27763D01*
X40463Y-27626D01*
X40537Y-27447D01*
X40537Y-27253D01*
X40537Y-28336D01*
X40530Y-28223D01*
X40479Y-28099D01*
X40401Y-28068D01*
X40331Y-28139D01*
X40331Y-27998D01*
X40300Y-27920D01*
X40116Y-27857D01*
X39923Y-27869D01*
X39799Y-27920D01*
X39768Y-27998D01*
X40050Y-28279D01*
X40331Y-27998D01*
X40331Y-28139D01*
X40120Y-28350D01*
X40401Y-28631D01*
X40479Y-28600D01*
X40542Y-28416D01*
X40542Y-30223D01*
X40537Y-30220D01*
X40537Y-29612D01*
X40537Y-29012D01*
X40509Y-28943D01*
X40456Y-28890D01*
X40387Y-28862D01*
X40331Y-28862D01*
X40331Y-28701D01*
X40050Y-28420D01*
X39979Y-28491D01*
X39979Y-28350D01*
X39698Y-28068D01*
X39620Y-28099D01*
X39557Y-28283D01*
X39569Y-28476D01*
X39620Y-28600D01*
X39698Y-28631D01*
X39979Y-28350D01*
X39979Y-28491D01*
X39768Y-28701D01*
X39799Y-28779D01*
X39983Y-28842D01*
X40176Y-28830D01*
X40300Y-28779D01*
X40331Y-28701D01*
X40331Y-28862D01*
X40312Y-28862D01*
X39712Y-28862D01*
X39643Y-28890D01*
X39590Y-28943D01*
X39562Y-29012D01*
X39562Y-29087D01*
X39562Y-29687D01*
X39590Y-29756D01*
X39643Y-29809D01*
X39712Y-29837D01*
X39787Y-29837D01*
X40387Y-29837D01*
X40456Y-29809D01*
X40509Y-29756D01*
X40537Y-29687D01*
X40537Y-29612D01*
X40537Y-30220D01*
X40486Y-30185D01*
X40300Y-30148D01*
X40113Y-30185D01*
X39955Y-30291D01*
X39849Y-30449D01*
X39812Y-30636D01*
X39812Y-31063D01*
X39849Y-31250D01*
X39955Y-31408D01*
X40113Y-31514D01*
X40300Y-31551D01*
X40486Y-31514D01*
X40644Y-31408D01*
X40750Y-31250D01*
X40787Y-31063D01*
X40787Y-32063D01*
X39787Y-32063D01*
X39787Y-31063D01*
X39787Y-30636D01*
X39750Y-30449D01*
X39644Y-30291D01*
X39486Y-30185D01*
X39300Y-30148D01*
X39113Y-30185D01*
X39042Y-30232D01*
X39042Y-15516D01*
X39037Y-15436D01*
X39037Y-14353D01*
X38963Y-14174D01*
X38826Y-14036D01*
X38647Y-13962D01*
X38453Y-13962D01*
X38274Y-14036D01*
X38136Y-14173D01*
X38062Y-14352D01*
X38062Y-14546D01*
X38136Y-14725D01*
X38273Y-14863D01*
X38452Y-14937D01*
X38646Y-14937D01*
X38825Y-14863D01*
X38963Y-14726D01*
X39037Y-14547D01*
X39037Y-14353D01*
X39037Y-15436D01*
X39030Y-15323D01*
X38979Y-15199D01*
X38901Y-15168D01*
X38831Y-15239D01*
X38831Y-15098D01*
X38800Y-15020D01*
X38616Y-14957D01*
X38423Y-14969D01*
X38299Y-15020D01*
X38268Y-15098D01*
X38550Y-15379D01*
X38831Y-15098D01*
X38831Y-15239D01*
X38620Y-15450D01*
X38901Y-15731D01*
X38979Y-15700D01*
X39042Y-15516D01*
X39042Y-30232D01*
X38955Y-30291D01*
X38849Y-30449D01*
X38831Y-30541D01*
X38831Y-15801D01*
X38550Y-15520D01*
X38479Y-15591D01*
X38479Y-15450D01*
X38198Y-15168D01*
X38120Y-15199D01*
X38057Y-15383D01*
X38069Y-15576D01*
X38120Y-15700D01*
X38198Y-15731D01*
X38479Y-15450D01*
X38479Y-15591D01*
X38268Y-15801D01*
X38299Y-15879D01*
X38483Y-15942D01*
X38676Y-15930D01*
X38800Y-15879D01*
X38831Y-15801D01*
X38831Y-30541D01*
X38812Y-30636D01*
X38812Y-31063D01*
X38849Y-31250D01*
X38955Y-31408D01*
X39113Y-31514D01*
X39300Y-31551D01*
X39486Y-31514D01*
X39644Y-31408D01*
X39750Y-31250D01*
X39787Y-31063D01*
X39787Y-32063D01*
X38787Y-32063D01*
X38787Y-21753D01*
X38713Y-21574D01*
X38576Y-21436D01*
X38397Y-21362D01*
X38203Y-21362D01*
X38024Y-21436D01*
X37886Y-21573D01*
X37812Y-21751D01*
X37812Y-21748D01*
X37734Y-21559D01*
X37590Y-21415D01*
X37432Y-21349D01*
X37590Y-21284D01*
X37734Y-21140D01*
X37812Y-20952D01*
X37812Y-20948D01*
X37886Y-21125D01*
X38023Y-21263D01*
X38202Y-21337D01*
X38396Y-21337D01*
X38575Y-21263D01*
X38713Y-21126D01*
X38787Y-20947D01*
X38787Y-20753D01*
X38713Y-20574D01*
X38576Y-20436D01*
X38397Y-20362D01*
X38203Y-20362D01*
X38024Y-20436D01*
X37886Y-20573D01*
X37812Y-20751D01*
X37812Y-20748D01*
X37734Y-20559D01*
X37590Y-20415D01*
X37432Y-20349D01*
X37590Y-20284D01*
X37734Y-20140D01*
X37812Y-19952D01*
X37812Y-19948D01*
X37886Y-20125D01*
X38023Y-20263D01*
X38202Y-20337D01*
X38396Y-20337D01*
X38575Y-20263D01*
X38713Y-20126D01*
X38787Y-19947D01*
X38787Y-19753D01*
X38713Y-19574D01*
X38576Y-19436D01*
X38397Y-19362D01*
X38203Y-19362D01*
X38024Y-19436D01*
X37886Y-19573D01*
X37812Y-19751D01*
X37812Y-19748D01*
X37734Y-19559D01*
X37590Y-19415D01*
X37432Y-19349D01*
X37590Y-19284D01*
X37734Y-19140D01*
X37812Y-18952D01*
X37812Y-18948D01*
X37886Y-19125D01*
X38023Y-19263D01*
X38202Y-19337D01*
X38396Y-19337D01*
X38575Y-19263D01*
X38713Y-19126D01*
X38787Y-18947D01*
X38787Y-18753D01*
X38713Y-18574D01*
X38576Y-18436D01*
X38397Y-18362D01*
X38203Y-18362D01*
X38042Y-18428D01*
X38042Y-15516D01*
X38037Y-15436D01*
X38037Y-14353D01*
X37963Y-14174D01*
X37826Y-14036D01*
X37647Y-13962D01*
X37453Y-13962D01*
X37274Y-14036D01*
X37136Y-14173D01*
X37062Y-14352D01*
X37062Y-14546D01*
X37136Y-14725D01*
X37273Y-14863D01*
X37452Y-14937D01*
X37646Y-14937D01*
X37825Y-14863D01*
X37963Y-14726D01*
X38037Y-14547D01*
X38037Y-14353D01*
X38037Y-15436D01*
X38030Y-15323D01*
X37979Y-15199D01*
X37901Y-15168D01*
X37831Y-15239D01*
X37831Y-15098D01*
X37800Y-15020D01*
X37616Y-14957D01*
X37423Y-14969D01*
X37299Y-15020D01*
X37268Y-15098D01*
X37550Y-15379D01*
X37831Y-15098D01*
X37831Y-15239D01*
X37620Y-15450D01*
X37901Y-15731D01*
X37979Y-15700D01*
X38042Y-15516D01*
X38042Y-18428D01*
X38024Y-18436D01*
X37886Y-18573D01*
X37831Y-18707D01*
X37831Y-15801D01*
X37550Y-15520D01*
X37479Y-15591D01*
X37479Y-15450D01*
X37198Y-15168D01*
X37120Y-15199D01*
X37057Y-15383D01*
X37069Y-15576D01*
X37120Y-15700D01*
X37198Y-15731D01*
X37479Y-15450D01*
X37479Y-15591D01*
X37268Y-15801D01*
X37299Y-15879D01*
X37483Y-15942D01*
X37676Y-15930D01*
X37800Y-15879D01*
X37831Y-15801D01*
X37831Y-18707D01*
X37812Y-18751D01*
X37812Y-18748D01*
X37734Y-18559D01*
X37590Y-18415D01*
X37402Y-18337D01*
X37198Y-18337D01*
X37042Y-18401D01*
X37042Y-15516D01*
X37037Y-15436D01*
X37037Y-14353D01*
X36963Y-14174D01*
X36826Y-14036D01*
X36647Y-13962D01*
X36453Y-13962D01*
X36274Y-14036D01*
X36136Y-14173D01*
X36062Y-14352D01*
X36062Y-14546D01*
X36136Y-14725D01*
X36273Y-14863D01*
X36452Y-14937D01*
X36646Y-14937D01*
X36825Y-14863D01*
X36963Y-14726D01*
X37037Y-14547D01*
X37037Y-14353D01*
X37037Y-15436D01*
X37030Y-15323D01*
X36979Y-15199D01*
X36901Y-15168D01*
X36831Y-15239D01*
X36831Y-15098D01*
X36800Y-15020D01*
X36616Y-14957D01*
X36423Y-14969D01*
X36299Y-15020D01*
X36268Y-15098D01*
X36550Y-15379D01*
X36831Y-15098D01*
X36831Y-15239D01*
X36620Y-15450D01*
X36901Y-15731D01*
X36979Y-15700D01*
X37042Y-15516D01*
X37042Y-18401D01*
X37009Y-18415D01*
X36865Y-18559D01*
X36831Y-18641D01*
X36831Y-15801D01*
X36550Y-15520D01*
X36479Y-15591D01*
X36479Y-15450D01*
X36198Y-15168D01*
X36120Y-15199D01*
X36057Y-15383D01*
X36069Y-15576D01*
X36120Y-15700D01*
X36198Y-15731D01*
X36479Y-15450D01*
X36479Y-15591D01*
X36268Y-15801D01*
X36299Y-15879D01*
X36483Y-15942D01*
X36676Y-15930D01*
X36800Y-15879D01*
X36831Y-15801D01*
X36831Y-18641D01*
X36787Y-18747D01*
X36787Y-18951D01*
X36865Y-19140D01*
X37009Y-19284D01*
X37167Y-19350D01*
X37009Y-19415D01*
X36865Y-19559D01*
X36787Y-19747D01*
X36787Y-19951D01*
X36865Y-20140D01*
X37009Y-20284D01*
X37167Y-20350D01*
X37009Y-20415D01*
X36865Y-20559D01*
X36787Y-20747D01*
X36787Y-20951D01*
X36865Y-21140D01*
X37009Y-21284D01*
X37167Y-21350D01*
X37009Y-21415D01*
X36865Y-21559D01*
X36787Y-21747D01*
X36787Y-21951D01*
X36865Y-22140D01*
X37009Y-22284D01*
X37197Y-22362D01*
X37401Y-22362D01*
X37590Y-22284D01*
X37734Y-22140D01*
X37812Y-21952D01*
X37812Y-21948D01*
X37886Y-22125D01*
X38023Y-22263D01*
X38202Y-22337D01*
X38396Y-22337D01*
X38575Y-22263D01*
X38713Y-22126D01*
X38787Y-21947D01*
X38787Y-21753D01*
X38787Y-32063D01*
X38787Y-32063D01*
X38787Y-23187D01*
X38787Y-22512D01*
X38759Y-22443D01*
X38706Y-22390D01*
X38637Y-22362D01*
X38562Y-22362D01*
X38396Y-22362D01*
X38350Y-22409D01*
X38350Y-22800D01*
X38740Y-22800D01*
X38787Y-22753D01*
X38787Y-22512D01*
X38787Y-23187D01*
X38787Y-22946D01*
X38740Y-22900D01*
X38350Y-22900D01*
X38350Y-23290D01*
X38396Y-23337D01*
X38562Y-23337D01*
X38637Y-23337D01*
X38706Y-23309D01*
X38759Y-23256D01*
X38787Y-23187D01*
X38787Y-32063D01*
X38787Y-32063D01*
X38787Y-31063D01*
X38787Y-30636D01*
X38750Y-30449D01*
X38644Y-30291D01*
X38486Y-30185D01*
X38300Y-30148D01*
X38250Y-30158D01*
X38250Y-23290D01*
X38250Y-22900D01*
X38250Y-22800D01*
X38250Y-22409D01*
X38203Y-22362D01*
X38037Y-22362D01*
X37962Y-22362D01*
X37893Y-22390D01*
X37840Y-22443D01*
X37812Y-22512D01*
X37812Y-22753D01*
X37859Y-22800D01*
X38250Y-22800D01*
X38250Y-22900D01*
X37859Y-22900D01*
X37812Y-22946D01*
X37812Y-23187D01*
X37840Y-23256D01*
X37893Y-23309D01*
X37962Y-23337D01*
X38037Y-23337D01*
X38203Y-23337D01*
X38250Y-23290D01*
X38250Y-30158D01*
X38113Y-30185D01*
X37955Y-30291D01*
X37849Y-30449D01*
X37812Y-30636D01*
X37812Y-31063D01*
X37849Y-31250D01*
X37955Y-31408D01*
X38113Y-31514D01*
X38300Y-31551D01*
X38486Y-31514D01*
X38644Y-31408D01*
X38750Y-31250D01*
X38787Y-31063D01*
X38787Y-32063D01*
X37787Y-32063D01*
X37787Y-31063D01*
X37787Y-30636D01*
X37750Y-30449D01*
X37644Y-30291D01*
X37486Y-30185D01*
X37300Y-30148D01*
X37113Y-30185D01*
X36955Y-30291D01*
X36849Y-30449D01*
X36812Y-30636D01*
X36812Y-31063D01*
X36849Y-31250D01*
X36955Y-31408D01*
X37113Y-31514D01*
X37300Y-31551D01*
X37486Y-31514D01*
X37644Y-31408D01*
X37750Y-31250D01*
X37787Y-31063D01*
X37787Y-32063D01*
X36787Y-32063D01*
X36787Y-31063D01*
X36787Y-30636D01*
X36750Y-30449D01*
X36644Y-30291D01*
X36486Y-30185D01*
X36300Y-30148D01*
X36113Y-30185D01*
X36042Y-30232D01*
X36042Y-15516D01*
X36037Y-15436D01*
X36037Y-14353D01*
X35963Y-14174D01*
X35826Y-14036D01*
X35647Y-13962D01*
X35453Y-13962D01*
X35274Y-14036D01*
X35136Y-14173D01*
X35062Y-14352D01*
X35062Y-14546D01*
X35136Y-14725D01*
X35273Y-14863D01*
X35452Y-14937D01*
X35646Y-14937D01*
X35825Y-14863D01*
X35963Y-14726D01*
X36037Y-14547D01*
X36037Y-14353D01*
X36037Y-15436D01*
X36030Y-15323D01*
X35979Y-15199D01*
X35901Y-15168D01*
X35831Y-15239D01*
X35831Y-15098D01*
X35800Y-15020D01*
X35616Y-14957D01*
X35423Y-14969D01*
X35299Y-15020D01*
X35268Y-15098D01*
X35550Y-15379D01*
X35831Y-15098D01*
X35831Y-15239D01*
X35620Y-15450D01*
X35901Y-15731D01*
X35979Y-15700D01*
X36042Y-15516D01*
X36042Y-30232D01*
X35955Y-30291D01*
X35849Y-30449D01*
X35831Y-30541D01*
X35831Y-15801D01*
X35550Y-15520D01*
X35479Y-15591D01*
X35479Y-15450D01*
X35198Y-15168D01*
X35120Y-15199D01*
X35057Y-15383D01*
X35069Y-15576D01*
X35120Y-15700D01*
X35198Y-15731D01*
X35479Y-15450D01*
X35479Y-15591D01*
X35268Y-15801D01*
X35299Y-15879D01*
X35483Y-15942D01*
X35676Y-15930D01*
X35800Y-15879D01*
X35831Y-15801D01*
X35831Y-30541D01*
X35812Y-30636D01*
X35812Y-31063D01*
X35849Y-31250D01*
X35955Y-31408D01*
X36113Y-31514D01*
X36300Y-31551D01*
X36486Y-31514D01*
X36644Y-31408D01*
X36750Y-31250D01*
X36787Y-31063D01*
X36787Y-32063D01*
X35787Y-32063D01*
X35787Y-31063D01*
X35787Y-30636D01*
X35750Y-30449D01*
X35644Y-30291D01*
X35486Y-30185D01*
X35300Y-30148D01*
X35113Y-30185D01*
X35042Y-30232D01*
X35042Y-15516D01*
X35037Y-15436D01*
X35037Y-14353D01*
X34963Y-14174D01*
X34826Y-14036D01*
X34647Y-13962D01*
X34453Y-13962D01*
X34274Y-14036D01*
X34136Y-14173D01*
X34062Y-14352D01*
X34062Y-14546D01*
X34136Y-14725D01*
X34273Y-14863D01*
X34452Y-14937D01*
X34646Y-14937D01*
X34825Y-14863D01*
X34963Y-14726D01*
X35037Y-14547D01*
X35037Y-14353D01*
X35037Y-15436D01*
X35030Y-15323D01*
X34979Y-15199D01*
X34901Y-15168D01*
X34831Y-15239D01*
X34831Y-15098D01*
X34800Y-15020D01*
X34616Y-14957D01*
X34423Y-14969D01*
X34299Y-15020D01*
X34268Y-15098D01*
X34550Y-15379D01*
X34831Y-15098D01*
X34831Y-15239D01*
X34620Y-15450D01*
X34901Y-15731D01*
X34979Y-15700D01*
X35042Y-15516D01*
X35042Y-30232D01*
X34955Y-30291D01*
X34849Y-30449D01*
X34831Y-30541D01*
X34831Y-15801D01*
X34550Y-15520D01*
X34479Y-15591D01*
X34479Y-15450D01*
X34198Y-15168D01*
X34120Y-15199D01*
X34057Y-15383D01*
X34069Y-15576D01*
X34120Y-15700D01*
X34198Y-15731D01*
X34479Y-15450D01*
X34479Y-15591D01*
X34268Y-15801D01*
X34299Y-15879D01*
X34483Y-15942D01*
X34676Y-15930D01*
X34800Y-15879D01*
X34831Y-15801D01*
X34831Y-30541D01*
X34812Y-30633D01*
X34812Y-21748D01*
X34734Y-21559D01*
X34590Y-21415D01*
X34432Y-21349D01*
X34590Y-21284D01*
X34734Y-21140D01*
X34812Y-20952D01*
X34812Y-20748D01*
X34734Y-20559D01*
X34590Y-20415D01*
X34432Y-20349D01*
X34590Y-20284D01*
X34734Y-20140D01*
X34812Y-19952D01*
X34812Y-19748D01*
X34734Y-19559D01*
X34590Y-19415D01*
X34432Y-19349D01*
X34590Y-19284D01*
X34734Y-19140D01*
X34812Y-18952D01*
X34812Y-18748D01*
X34734Y-18559D01*
X34590Y-18415D01*
X34402Y-18337D01*
X34198Y-18337D01*
X34042Y-18401D01*
X34042Y-15516D01*
X34037Y-15436D01*
X34037Y-14353D01*
X33963Y-14174D01*
X33826Y-14036D01*
X33647Y-13962D01*
X33453Y-13962D01*
X33274Y-14036D01*
X33136Y-14173D01*
X33062Y-14352D01*
X33062Y-14546D01*
X33136Y-14725D01*
X33273Y-14863D01*
X33452Y-14937D01*
X33646Y-14937D01*
X33825Y-14863D01*
X33963Y-14726D01*
X34037Y-14547D01*
X34037Y-14353D01*
X34037Y-15436D01*
X34030Y-15323D01*
X33979Y-15199D01*
X33901Y-15168D01*
X33831Y-15239D01*
X33831Y-15098D01*
X33800Y-15020D01*
X33616Y-14957D01*
X33423Y-14969D01*
X33299Y-15020D01*
X33268Y-15098D01*
X33550Y-15379D01*
X33831Y-15098D01*
X33831Y-15239D01*
X33620Y-15450D01*
X33901Y-15731D01*
X33979Y-15700D01*
X34042Y-15516D01*
X34042Y-18401D01*
X34009Y-18415D01*
X33865Y-18559D01*
X33831Y-18641D01*
X33831Y-15801D01*
X33550Y-15520D01*
X33479Y-15591D01*
X33479Y-15450D01*
X33198Y-15168D01*
X33120Y-15199D01*
X33057Y-15383D01*
X33069Y-15576D01*
X33120Y-15700D01*
X33198Y-15731D01*
X33479Y-15450D01*
X33479Y-15591D01*
X33268Y-15801D01*
X33299Y-15879D01*
X33483Y-15942D01*
X33676Y-15930D01*
X33800Y-15879D01*
X33831Y-15801D01*
X33831Y-18641D01*
X33787Y-18747D01*
X33787Y-18951D01*
X33865Y-19140D01*
X34009Y-19284D01*
X34167Y-19350D01*
X34009Y-19415D01*
X33865Y-19559D01*
X33787Y-19747D01*
X33787Y-19951D01*
X33865Y-20140D01*
X34009Y-20284D01*
X34167Y-20350D01*
X34009Y-20415D01*
X33865Y-20559D01*
X33787Y-20747D01*
X33787Y-20951D01*
X33865Y-21140D01*
X34009Y-21284D01*
X34167Y-21350D01*
X34009Y-21415D01*
X33865Y-21559D01*
X33787Y-21747D01*
X33787Y-21951D01*
X33865Y-22140D01*
X34009Y-22284D01*
X34197Y-22362D01*
X34401Y-22362D01*
X34590Y-22284D01*
X34734Y-22140D01*
X34812Y-21952D01*
X34812Y-21748D01*
X34812Y-30633D01*
X34812Y-30636D01*
X34812Y-31063D01*
X34849Y-31250D01*
X34955Y-31408D01*
X35113Y-31514D01*
X35300Y-31551D01*
X35486Y-31514D01*
X35644Y-31408D01*
X35750Y-31250D01*
X35787Y-31063D01*
X35787Y-32063D01*
X34787Y-32063D01*
X34787Y-31063D01*
X34787Y-30636D01*
X34750Y-30449D01*
X34644Y-30291D01*
X34486Y-30185D01*
X34300Y-30148D01*
X34113Y-30185D01*
X34017Y-30249D01*
X34017Y-30022D01*
X34012Y-29937D01*
X34012Y-26848D01*
X33934Y-26659D01*
X33912Y-26637D01*
X33912Y-23748D01*
X33834Y-23559D01*
X33690Y-23415D01*
X33502Y-23337D01*
X33298Y-23337D01*
X33109Y-23415D01*
X33042Y-23481D01*
X33042Y-15516D01*
X33037Y-15436D01*
X33037Y-14353D01*
X32963Y-14174D01*
X32826Y-14036D01*
X32647Y-13962D01*
X32453Y-13962D01*
X32274Y-14036D01*
X32136Y-14173D01*
X32062Y-14352D01*
X32062Y-14546D01*
X32136Y-14725D01*
X32273Y-14863D01*
X32452Y-14937D01*
X32646Y-14937D01*
X32825Y-14863D01*
X32963Y-14726D01*
X33037Y-14547D01*
X33037Y-14353D01*
X33037Y-15436D01*
X33030Y-15323D01*
X32979Y-15199D01*
X32901Y-15168D01*
X32831Y-15239D01*
X32831Y-15098D01*
X32800Y-15020D01*
X32616Y-14957D01*
X32423Y-14969D01*
X32299Y-15020D01*
X32268Y-15098D01*
X32550Y-15379D01*
X32831Y-15098D01*
X32831Y-15239D01*
X32620Y-15450D01*
X32901Y-15731D01*
X32979Y-15700D01*
X33042Y-15516D01*
X33042Y-23481D01*
X32965Y-23559D01*
X32887Y-23747D01*
X32887Y-23951D01*
X32965Y-24140D01*
X33109Y-24284D01*
X33297Y-24362D01*
X33501Y-24362D01*
X33690Y-24284D01*
X33834Y-24140D01*
X33912Y-23952D01*
X33912Y-23748D01*
X33912Y-26637D01*
X33790Y-26515D01*
X33602Y-26437D01*
X33398Y-26437D01*
X33209Y-26515D01*
X33065Y-26659D01*
X32987Y-26847D01*
X32987Y-27051D01*
X33065Y-27240D01*
X33209Y-27384D01*
X33397Y-27462D01*
X33601Y-27462D01*
X33790Y-27384D01*
X33934Y-27240D01*
X34012Y-27052D01*
X34012Y-26848D01*
X34012Y-29937D01*
X34006Y-29819D01*
X33950Y-29684D01*
X33869Y-29650D01*
X33799Y-29721D01*
X33799Y-29580D01*
X33765Y-29499D01*
X33572Y-29432D01*
X33369Y-29443D01*
X33234Y-29499D01*
X33200Y-29580D01*
X33500Y-29879D01*
X33799Y-29580D01*
X33799Y-29721D01*
X33570Y-29950D01*
X33869Y-30249D01*
X33950Y-30215D01*
X34017Y-30022D01*
X34017Y-30249D01*
X33955Y-30291D01*
X33849Y-30449D01*
X33812Y-30636D01*
X33812Y-31063D01*
X33849Y-31250D01*
X33955Y-31408D01*
X34113Y-31514D01*
X34300Y-31551D01*
X34486Y-31514D01*
X34644Y-31408D01*
X34750Y-31250D01*
X34787Y-31063D01*
X34787Y-32063D01*
X33799Y-32063D01*
X33799Y-30319D01*
X33500Y-30020D01*
X33429Y-30091D01*
X33429Y-29950D01*
X33130Y-29650D01*
X33049Y-29684D01*
X33031Y-29736D01*
X33031Y-27734D01*
X32943Y-27521D01*
X32831Y-27409D01*
X32831Y-15801D01*
X32550Y-15520D01*
X32479Y-15591D01*
X32479Y-15450D01*
X32198Y-15168D01*
X32120Y-15199D01*
X32057Y-15383D01*
X32069Y-15576D01*
X32120Y-15700D01*
X32198Y-15731D01*
X32479Y-15450D01*
X32479Y-15591D01*
X32268Y-15801D01*
X32299Y-15879D01*
X32483Y-15942D01*
X32676Y-15930D01*
X32800Y-15879D01*
X32831Y-15801D01*
X32831Y-27409D01*
X32779Y-27357D01*
X32566Y-27268D01*
X32334Y-27268D01*
X32121Y-27356D01*
X32042Y-27435D01*
X32042Y-15516D01*
X32037Y-15436D01*
X32037Y-14353D01*
X31963Y-14174D01*
X31826Y-14036D01*
X31647Y-13962D01*
X31453Y-13962D01*
X31274Y-14036D01*
X31136Y-14173D01*
X31062Y-14352D01*
X31062Y-14546D01*
X31136Y-14725D01*
X31273Y-14863D01*
X31452Y-14937D01*
X31646Y-14937D01*
X31825Y-14863D01*
X31963Y-14726D01*
X32037Y-14547D01*
X32037Y-14353D01*
X32037Y-15436D01*
X32030Y-15323D01*
X31979Y-15199D01*
X31901Y-15168D01*
X31831Y-15239D01*
X31831Y-15098D01*
X31800Y-15020D01*
X31616Y-14957D01*
X31423Y-14969D01*
X31299Y-15020D01*
X31268Y-15098D01*
X31550Y-15379D01*
X31831Y-15098D01*
X31831Y-15239D01*
X31620Y-15450D01*
X31901Y-15731D01*
X31979Y-15700D01*
X32042Y-15516D01*
X32042Y-27435D01*
X31957Y-27520D01*
X31868Y-27733D01*
X31868Y-27965D01*
X31956Y-28178D01*
X32120Y-28342D01*
X32333Y-28431D01*
X32565Y-28431D01*
X32778Y-28343D01*
X32942Y-28179D01*
X33031Y-27966D01*
X33031Y-27734D01*
X33031Y-29736D01*
X32982Y-29877D01*
X32993Y-30080D01*
X33049Y-30215D01*
X33130Y-30249D01*
X33429Y-29950D01*
X33429Y-30091D01*
X33200Y-30319D01*
X33234Y-30400D01*
X33427Y-30467D01*
X33630Y-30456D01*
X33765Y-30400D01*
X33799Y-30319D01*
X33799Y-32063D01*
X32787Y-32063D01*
X32787Y-31063D01*
X32787Y-30636D01*
X32750Y-30449D01*
X32644Y-30291D01*
X32486Y-30185D01*
X32300Y-30148D01*
X32113Y-30185D01*
X31955Y-30291D01*
X31849Y-30449D01*
X31831Y-30541D01*
X31831Y-15801D01*
X31550Y-15520D01*
X31479Y-15591D01*
X31479Y-15450D01*
X31198Y-15168D01*
X31120Y-15199D01*
X31057Y-15383D01*
X31069Y-15576D01*
X31120Y-15700D01*
X31198Y-15731D01*
X31479Y-15450D01*
X31479Y-15591D01*
X31268Y-15801D01*
X31299Y-15879D01*
X31483Y-15942D01*
X31676Y-15930D01*
X31800Y-15879D01*
X31831Y-15801D01*
X31831Y-30541D01*
X31812Y-30636D01*
X31812Y-31063D01*
X31849Y-31250D01*
X31955Y-31408D01*
X32113Y-31514D01*
X32300Y-31551D01*
X32486Y-31514D01*
X32644Y-31408D01*
X32750Y-31250D01*
X32787Y-31063D01*
X32787Y-32063D01*
X31787Y-32063D01*
X31787Y-31100D01*
X31787Y-30900D01*
X31787Y-30800D01*
X31787Y-30600D01*
X31731Y-30417D01*
X31609Y-30269D01*
X31440Y-30180D01*
X31425Y-30178D01*
X31350Y-30211D01*
X31350Y-30800D01*
X31787Y-30800D01*
X31787Y-30900D01*
X31350Y-30900D01*
X31350Y-31488D01*
X31425Y-31521D01*
X31440Y-31519D01*
X31609Y-31430D01*
X31731Y-31282D01*
X31787Y-31100D01*
X31787Y-32063D01*
X31250Y-32063D01*
X31250Y-31488D01*
X31250Y-30900D01*
X31250Y-30800D01*
X31250Y-30211D01*
X31174Y-30178D01*
X31159Y-30180D01*
X30990Y-30269D01*
X30912Y-30363D01*
X30912Y-23748D01*
X30834Y-23559D01*
X30690Y-23415D01*
X30502Y-23337D01*
X30298Y-23337D01*
X30109Y-23415D01*
X29965Y-23559D01*
X29887Y-23747D01*
X29887Y-23951D01*
X29965Y-24140D01*
X30109Y-24284D01*
X30297Y-24362D01*
X30501Y-24362D01*
X30690Y-24284D01*
X30834Y-24140D01*
X30912Y-23952D01*
X30912Y-23748D01*
X30912Y-30363D01*
X30868Y-30417D01*
X30812Y-30600D01*
X30812Y-30800D01*
X31250Y-30800D01*
X31250Y-30900D01*
X30812Y-30900D01*
X30812Y-31100D01*
X30868Y-31282D01*
X30990Y-31430D01*
X31159Y-31519D01*
X31174Y-31521D01*
X31250Y-31488D01*
X31250Y-32063D01*
X30787Y-32063D01*
X30787Y-31100D01*
X30787Y-30900D01*
X30787Y-30800D01*
X30787Y-30600D01*
X30731Y-30417D01*
X30609Y-30269D01*
X30440Y-30180D01*
X30425Y-30178D01*
X30350Y-30211D01*
X30350Y-30800D01*
X30787Y-30800D01*
X30787Y-30900D01*
X30350Y-30900D01*
X30350Y-31488D01*
X30425Y-31521D01*
X30440Y-31519D01*
X30609Y-31430D01*
X30731Y-31282D01*
X30787Y-31100D01*
X30787Y-32063D01*
X30250Y-32063D01*
X30250Y-31488D01*
X30250Y-30900D01*
X30250Y-30800D01*
X30250Y-30211D01*
X30174Y-30178D01*
X30159Y-30180D01*
X30031Y-30248D01*
X30031Y-27734D01*
X29943Y-27521D01*
X29779Y-27357D01*
X29566Y-27268D01*
X29334Y-27268D01*
X29187Y-27329D01*
X29187Y-16503D01*
X29113Y-16324D01*
X28976Y-16186D01*
X28797Y-16112D01*
X28603Y-16112D01*
X28424Y-16186D01*
X28286Y-16323D01*
X28282Y-16333D01*
X27844Y-16333D01*
X27834Y-16309D01*
X27690Y-16165D01*
X27502Y-16087D01*
X27298Y-16087D01*
X27187Y-16132D01*
X27187Y-12063D01*
X27187Y-11636D01*
X27150Y-11449D01*
X27044Y-11291D01*
X26886Y-11185D01*
X26700Y-11148D01*
X26513Y-11185D01*
X26355Y-11291D01*
X26249Y-11449D01*
X26212Y-11636D01*
X26212Y-11960D01*
X26187Y-11985D01*
X26187Y-11636D01*
X26150Y-11449D01*
X26044Y-11291D01*
X25886Y-11185D01*
X25700Y-11148D01*
X25513Y-11185D01*
X25355Y-11291D01*
X25249Y-11449D01*
X25212Y-11636D01*
X25212Y-12063D01*
X25249Y-12250D01*
X25338Y-12383D01*
X25048Y-12383D01*
X25131Y-12282D01*
X25187Y-12100D01*
X25187Y-11900D01*
X25187Y-11800D01*
X25187Y-11600D01*
X25131Y-11417D01*
X25009Y-11269D01*
X24840Y-11180D01*
X24825Y-11178D01*
X24750Y-11211D01*
X24750Y-11800D01*
X25187Y-11800D01*
X25187Y-11900D01*
X24750Y-11900D01*
X24750Y-11907D01*
X24650Y-11907D01*
X24650Y-11900D01*
X24650Y-11800D01*
X24650Y-11211D01*
X24574Y-11178D01*
X24559Y-11180D01*
X24390Y-11269D01*
X24268Y-11417D01*
X24212Y-11600D01*
X24212Y-11800D01*
X24650Y-11800D01*
X24650Y-11900D01*
X24212Y-11900D01*
X24212Y-12100D01*
X24268Y-12282D01*
X24378Y-12416D01*
X24311Y-12461D01*
X24187Y-12585D01*
X24187Y-12063D01*
X24187Y-11636D01*
X24150Y-11449D01*
X24044Y-11291D01*
X23886Y-11185D01*
X23700Y-11148D01*
X23513Y-11185D01*
X23355Y-11291D01*
X23249Y-11449D01*
X23212Y-11636D01*
X23212Y-12063D01*
X23249Y-12250D01*
X23355Y-12408D01*
X23513Y-12514D01*
X23700Y-12551D01*
X23886Y-12514D01*
X24044Y-12408D01*
X24150Y-12250D01*
X24187Y-12063D01*
X24187Y-12585D01*
X22761Y-14011D01*
X22703Y-14098D01*
X22683Y-14200D01*
X22683Y-14448D01*
X22608Y-14498D01*
X22503Y-14654D01*
X22466Y-14839D01*
X22466Y-15260D01*
X22503Y-15445D01*
X22608Y-15601D01*
X22683Y-15651D01*
X22683Y-17448D01*
X22608Y-17498D01*
X22503Y-17654D01*
X22466Y-17839D01*
X22466Y-18260D01*
X22503Y-18445D01*
X22608Y-18601D01*
X22765Y-18706D01*
X22950Y-18743D01*
X23134Y-18706D01*
X23291Y-18601D01*
X23396Y-18445D01*
X23433Y-18260D01*
X23433Y-17839D01*
X23396Y-17654D01*
X23291Y-17498D01*
X23216Y-17448D01*
X23216Y-15651D01*
X23291Y-15601D01*
X23396Y-15445D01*
X23433Y-15260D01*
X23433Y-14839D01*
X23396Y-14654D01*
X23291Y-14498D01*
X23216Y-14448D01*
X23216Y-14310D01*
X24610Y-12916D01*
X24706Y-12916D01*
X23711Y-13911D01*
X23653Y-13998D01*
X23633Y-14100D01*
X23633Y-14472D01*
X23573Y-14531D01*
X23515Y-14673D01*
X23515Y-14826D01*
X23573Y-14967D01*
X23681Y-15076D01*
X23823Y-15134D01*
X23976Y-15134D01*
X24117Y-15076D01*
X24145Y-15048D01*
X24158Y-15062D01*
X24193Y-15027D01*
X24211Y-15094D01*
X24357Y-15140D01*
X24510Y-15126D01*
X24588Y-15094D01*
X24606Y-15027D01*
X24606Y-15027D01*
X24641Y-15062D01*
X24654Y-15048D01*
X24681Y-15076D01*
X24823Y-15134D01*
X24976Y-15134D01*
X25117Y-15076D01*
X25149Y-15044D01*
X25181Y-15076D01*
X25323Y-15134D01*
X25476Y-15134D01*
X25617Y-15076D01*
X25677Y-15016D01*
X25787Y-15016D01*
X25787Y-15201D01*
X25865Y-15390D01*
X26009Y-15534D01*
X26197Y-15612D01*
X26401Y-15612D01*
X26590Y-15534D01*
X26734Y-15390D01*
X26812Y-15202D01*
X26812Y-14998D01*
X26734Y-14809D01*
X26590Y-14665D01*
X26402Y-14587D01*
X26198Y-14587D01*
X26174Y-14597D01*
X26138Y-14561D01*
X26051Y-14503D01*
X25950Y-14483D01*
X25677Y-14483D01*
X25618Y-14423D01*
X25476Y-14365D01*
X25323Y-14365D01*
X25182Y-14423D01*
X25166Y-14439D01*
X25166Y-14410D01*
X25260Y-14316D01*
X25855Y-14316D01*
X25865Y-14340D01*
X26009Y-14484D01*
X26197Y-14562D01*
X26401Y-14562D01*
X26590Y-14484D01*
X26734Y-14340D01*
X26812Y-14152D01*
X26812Y-13948D01*
X26734Y-13759D01*
X26590Y-13615D01*
X26402Y-13537D01*
X26198Y-13537D01*
X26009Y-13615D01*
X25865Y-13759D01*
X25855Y-13783D01*
X25150Y-13783D01*
X25048Y-13803D01*
X24961Y-13861D01*
X24711Y-14111D01*
X24653Y-14198D01*
X24633Y-14300D01*
X24633Y-14445D01*
X24606Y-14472D01*
X24588Y-14405D01*
X24442Y-14359D01*
X24289Y-14373D01*
X24211Y-14405D01*
X24193Y-14472D01*
X24166Y-14445D01*
X24166Y-14210D01*
X25110Y-13266D01*
X25855Y-13266D01*
X25865Y-13290D01*
X26009Y-13434D01*
X26197Y-13512D01*
X26401Y-13512D01*
X26590Y-13434D01*
X26734Y-13290D01*
X26812Y-13102D01*
X26812Y-12898D01*
X26734Y-12709D01*
X26590Y-12565D01*
X26428Y-12498D01*
X26453Y-12473D01*
X26513Y-12514D01*
X26700Y-12551D01*
X26886Y-12514D01*
X27044Y-12408D01*
X27150Y-12250D01*
X27187Y-12063D01*
X27187Y-16132D01*
X27109Y-16165D01*
X26965Y-16309D01*
X26887Y-16497D01*
X26887Y-16701D01*
X26965Y-16890D01*
X27109Y-17034D01*
X27297Y-17112D01*
X27501Y-17112D01*
X27690Y-17034D01*
X27834Y-16890D01*
X27844Y-16866D01*
X28282Y-16866D01*
X28286Y-16875D01*
X28423Y-17013D01*
X28602Y-17087D01*
X28796Y-17087D01*
X28975Y-17013D01*
X29113Y-16876D01*
X29187Y-16697D01*
X29187Y-16503D01*
X29187Y-27329D01*
X29121Y-27356D01*
X29117Y-27360D01*
X29117Y-22172D01*
X29106Y-21969D01*
X29050Y-21834D01*
X28969Y-21800D01*
X28899Y-21871D01*
X28899Y-21730D01*
X28865Y-21649D01*
X28672Y-21582D01*
X28469Y-21593D01*
X28334Y-21649D01*
X28300Y-21730D01*
X28600Y-22029D01*
X28899Y-21730D01*
X28899Y-21871D01*
X28670Y-22100D01*
X28969Y-22399D01*
X29050Y-22365D01*
X29117Y-22172D01*
X29117Y-27360D01*
X29112Y-27365D01*
X29112Y-23387D01*
X29112Y-22737D01*
X29084Y-22668D01*
X29031Y-22615D01*
X28962Y-22587D01*
X28887Y-22587D01*
X28776Y-22587D01*
X28865Y-22550D01*
X28899Y-22469D01*
X28600Y-22170D01*
X28529Y-22241D01*
X28529Y-22100D01*
X28230Y-21800D01*
X28149Y-21834D01*
X28082Y-22027D01*
X28093Y-22230D01*
X28149Y-22365D01*
X28230Y-22399D01*
X28529Y-22100D01*
X28529Y-22241D01*
X28300Y-22469D01*
X28334Y-22550D01*
X28439Y-22587D01*
X28237Y-22587D01*
X28168Y-22615D01*
X28115Y-22668D01*
X28087Y-22737D01*
X28087Y-22812D01*
X28087Y-23462D01*
X28115Y-23531D01*
X28168Y-23584D01*
X28237Y-23612D01*
X28312Y-23612D01*
X28962Y-23612D01*
X29031Y-23584D01*
X29084Y-23531D01*
X29112Y-23462D01*
X29112Y-23387D01*
X29112Y-27365D01*
X29030Y-27447D01*
X29030Y-24865D01*
X28926Y-24615D01*
X28735Y-24423D01*
X28485Y-24320D01*
X28215Y-24319D01*
X27965Y-24423D01*
X27773Y-24614D01*
X27670Y-24864D01*
X27669Y-25134D01*
X27773Y-25384D01*
X27964Y-25576D01*
X28214Y-25679D01*
X28484Y-25680D01*
X28734Y-25576D01*
X28926Y-25385D01*
X29029Y-25135D01*
X29030Y-24865D01*
X29030Y-27447D01*
X28957Y-27520D01*
X28868Y-27733D01*
X28868Y-27965D01*
X28956Y-28178D01*
X29120Y-28342D01*
X29333Y-28431D01*
X29565Y-28431D01*
X29778Y-28343D01*
X29942Y-28179D01*
X30031Y-27966D01*
X30031Y-27734D01*
X30031Y-30248D01*
X29990Y-30269D01*
X29868Y-30417D01*
X29812Y-30600D01*
X29812Y-30800D01*
X30250Y-30800D01*
X30250Y-30900D01*
X29812Y-30900D01*
X29812Y-31100D01*
X29868Y-31282D01*
X29990Y-31430D01*
X30159Y-31519D01*
X30174Y-31521D01*
X30250Y-31488D01*
X30250Y-32063D01*
X29787Y-32063D01*
X29787Y-31063D01*
X29787Y-30636D01*
X29750Y-30449D01*
X29644Y-30291D01*
X29486Y-30185D01*
X29300Y-30148D01*
X29113Y-30185D01*
X28955Y-30291D01*
X28849Y-30449D01*
X28812Y-30636D01*
X28812Y-31063D01*
X28849Y-31250D01*
X28955Y-31408D01*
X29113Y-31514D01*
X29300Y-31551D01*
X29486Y-31514D01*
X29644Y-31408D01*
X29750Y-31250D01*
X29787Y-31063D01*
X29787Y-32063D01*
X28787Y-32063D01*
X28787Y-31063D01*
X28787Y-30636D01*
X28750Y-30449D01*
X28644Y-30291D01*
X28590Y-30255D01*
X28590Y-27069D01*
X28590Y-26330D01*
X28549Y-26123D01*
X28432Y-25947D01*
X28256Y-25830D01*
X28050Y-25789D01*
X27843Y-25830D01*
X27667Y-25947D01*
X27550Y-26123D01*
X27509Y-26330D01*
X27509Y-27069D01*
X27550Y-27276D01*
X27631Y-27397D01*
X27606Y-27380D01*
X27400Y-27339D01*
X27240Y-27371D01*
X27240Y-27102D01*
X27240Y-26750D01*
X27240Y-26650D01*
X27240Y-26297D01*
X27180Y-26094D01*
X27046Y-25930D01*
X26860Y-25829D01*
X26833Y-25823D01*
X26812Y-25832D01*
X26750Y-25856D01*
X26750Y-26650D01*
X27240Y-26650D01*
X27240Y-26750D01*
X26750Y-26750D01*
X26750Y-27543D01*
X26833Y-27576D01*
X26860Y-27570D01*
X27046Y-27469D01*
X27180Y-27305D01*
X27240Y-27102D01*
X27240Y-27371D01*
X27193Y-27380D01*
X27017Y-27497D01*
X26900Y-27673D01*
X26859Y-27880D01*
X26859Y-28619D01*
X26900Y-28826D01*
X27017Y-29002D01*
X27193Y-29119D01*
X27400Y-29160D01*
X27606Y-29119D01*
X27782Y-29002D01*
X27899Y-28826D01*
X27940Y-28619D01*
X27940Y-27880D01*
X27899Y-27673D01*
X27818Y-27552D01*
X27843Y-27569D01*
X28050Y-27610D01*
X28256Y-27569D01*
X28432Y-27452D01*
X28549Y-27276D01*
X28590Y-27069D01*
X28590Y-30255D01*
X28486Y-30185D01*
X28300Y-30148D01*
X28113Y-30185D01*
X27955Y-30291D01*
X27849Y-30449D01*
X27812Y-30636D01*
X27812Y-31063D01*
X27849Y-31250D01*
X27955Y-31408D01*
X28113Y-31514D01*
X28300Y-31551D01*
X28486Y-31514D01*
X28644Y-31408D01*
X28750Y-31250D01*
X28787Y-31063D01*
X28787Y-32063D01*
X27787Y-32063D01*
X27787Y-31063D01*
X27787Y-30636D01*
X27750Y-30449D01*
X27644Y-30291D01*
X27486Y-30185D01*
X27300Y-30148D01*
X27113Y-30185D01*
X26955Y-30291D01*
X26849Y-30449D01*
X26812Y-30636D01*
X26812Y-31063D01*
X26849Y-31250D01*
X26955Y-31408D01*
X27113Y-31514D01*
X27300Y-31551D01*
X27486Y-31514D01*
X27644Y-31408D01*
X27750Y-31250D01*
X27787Y-31063D01*
X27787Y-32063D01*
X26650Y-32063D01*
X26650Y-27543D01*
X26650Y-26750D01*
X26650Y-26650D01*
X26650Y-25856D01*
X26566Y-25823D01*
X26539Y-25829D01*
X26442Y-25881D01*
X26442Y-18616D01*
X26430Y-18423D01*
X26379Y-18299D01*
X26301Y-18268D01*
X26231Y-18339D01*
X26231Y-18198D01*
X26200Y-18120D01*
X26016Y-18057D01*
X25823Y-18069D01*
X25699Y-18120D01*
X25668Y-18198D01*
X25950Y-18479D01*
X26231Y-18198D01*
X26231Y-18339D01*
X26020Y-18550D01*
X26301Y-18831D01*
X26379Y-18800D01*
X26442Y-18616D01*
X26442Y-25881D01*
X26353Y-25930D01*
X26231Y-26080D01*
X26231Y-18901D01*
X25950Y-18620D01*
X25879Y-18691D01*
X25879Y-18550D01*
X25598Y-18268D01*
X25520Y-18299D01*
X25457Y-18483D01*
X25469Y-18676D01*
X25520Y-18800D01*
X25598Y-18831D01*
X25879Y-18550D01*
X25879Y-18691D01*
X25668Y-18901D01*
X25699Y-18979D01*
X25883Y-19042D01*
X26076Y-19030D01*
X26200Y-18979D01*
X26231Y-18901D01*
X26231Y-26080D01*
X26219Y-26094D01*
X26159Y-26297D01*
X26159Y-26650D01*
X26650Y-26650D01*
X26650Y-26750D01*
X26159Y-26750D01*
X26159Y-27102D01*
X26219Y-27305D01*
X26353Y-27469D01*
X26539Y-27570D01*
X26566Y-27576D01*
X26650Y-27543D01*
X26650Y-32063D01*
X26540Y-32063D01*
X26540Y-28619D01*
X26540Y-27880D01*
X26499Y-27673D01*
X26382Y-27497D01*
X26206Y-27380D01*
X26029Y-27345D01*
X26029Y-25454D01*
X26029Y-24545D01*
X26029Y-24470D01*
X26001Y-24401D01*
X25948Y-24348D01*
X25879Y-24320D01*
X25817Y-24320D01*
X25817Y-22172D01*
X25806Y-21969D01*
X25750Y-21834D01*
X25669Y-21800D01*
X25599Y-21871D01*
X25599Y-21730D01*
X25565Y-21649D01*
X25437Y-21604D01*
X25437Y-18812D01*
X25437Y-18212D01*
X25409Y-18143D01*
X25356Y-18090D01*
X25287Y-18062D01*
X25212Y-18062D01*
X24917Y-18062D01*
X24917Y-16672D01*
X24906Y-16469D01*
X24850Y-16334D01*
X24769Y-16300D01*
X24699Y-16371D01*
X24699Y-16230D01*
X24665Y-16149D01*
X24606Y-16128D01*
X24472Y-16082D01*
X24269Y-16093D01*
X24134Y-16149D01*
X24100Y-16230D01*
X24400Y-16529D01*
X24699Y-16230D01*
X24699Y-16371D01*
X24470Y-16600D01*
X24769Y-16899D01*
X24850Y-16865D01*
X24917Y-16672D01*
X24917Y-18062D01*
X24699Y-18062D01*
X24699Y-16969D01*
X24400Y-16670D01*
X24329Y-16741D01*
X24329Y-16600D01*
X24030Y-16300D01*
X23949Y-16334D01*
X23882Y-16527D01*
X23893Y-16730D01*
X23949Y-16865D01*
X24030Y-16899D01*
X24329Y-16600D01*
X24329Y-16741D01*
X24100Y-16969D01*
X24134Y-17050D01*
X24327Y-17117D01*
X24530Y-17106D01*
X24665Y-17050D01*
X24699Y-16969D01*
X24699Y-18062D01*
X24612Y-18062D01*
X24543Y-18090D01*
X24490Y-18143D01*
X24462Y-18212D01*
X24462Y-18287D01*
X24462Y-18887D01*
X24490Y-18956D01*
X24543Y-19009D01*
X24612Y-19037D01*
X24687Y-19037D01*
X25287Y-19037D01*
X25356Y-19009D01*
X25409Y-18956D01*
X25437Y-18887D01*
X25437Y-18812D01*
X25437Y-21604D01*
X25372Y-21582D01*
X25169Y-21593D01*
X25034Y-21649D01*
X25000Y-21730D01*
X25300Y-22029D01*
X25599Y-21730D01*
X25599Y-21871D01*
X25370Y-22100D01*
X25669Y-22399D01*
X25750Y-22365D01*
X25817Y-22172D01*
X25817Y-24320D01*
X25812Y-24320D01*
X25812Y-23387D01*
X25812Y-22737D01*
X25784Y-22668D01*
X25731Y-22615D01*
X25662Y-22587D01*
X25587Y-22587D01*
X25476Y-22587D01*
X25565Y-22550D01*
X25599Y-22469D01*
X25300Y-22170D01*
X25229Y-22241D01*
X25229Y-22100D01*
X24930Y-21800D01*
X24849Y-21834D01*
X24782Y-22027D01*
X24793Y-22230D01*
X24849Y-22365D01*
X24930Y-22399D01*
X25229Y-22100D01*
X25229Y-22241D01*
X25000Y-22469D01*
X25034Y-22550D01*
X25139Y-22587D01*
X24937Y-22587D01*
X24868Y-22615D01*
X24815Y-22668D01*
X24787Y-22737D01*
X24787Y-22812D01*
X24787Y-23462D01*
X24815Y-23531D01*
X24868Y-23584D01*
X24937Y-23612D01*
X25012Y-23612D01*
X25662Y-23612D01*
X25731Y-23584D01*
X25784Y-23531D01*
X25812Y-23462D01*
X25812Y-23387D01*
X25812Y-24320D01*
X25446Y-24320D01*
X25400Y-24367D01*
X25400Y-24950D01*
X25982Y-24950D01*
X26029Y-24903D01*
X26029Y-24545D01*
X26029Y-25454D01*
X26029Y-25096D01*
X25982Y-25050D01*
X25400Y-25050D01*
X25400Y-25632D01*
X25446Y-25679D01*
X25879Y-25679D01*
X25948Y-25651D01*
X26001Y-25598D01*
X26029Y-25529D01*
X26029Y-25454D01*
X26029Y-27345D01*
X26000Y-27339D01*
X25793Y-27380D01*
X25740Y-27416D01*
X25830Y-27305D01*
X25890Y-27102D01*
X25890Y-26750D01*
X25890Y-26650D01*
X25890Y-26297D01*
X25830Y-26094D01*
X25696Y-25930D01*
X25510Y-25829D01*
X25483Y-25823D01*
X25400Y-25856D01*
X25400Y-26650D01*
X25890Y-26650D01*
X25890Y-26750D01*
X25400Y-26750D01*
X25400Y-27543D01*
X25483Y-27576D01*
X25510Y-27570D01*
X25602Y-27520D01*
X25500Y-27673D01*
X25459Y-27880D01*
X25459Y-28619D01*
X25500Y-28826D01*
X25617Y-29002D01*
X25793Y-29119D01*
X26000Y-29160D01*
X26206Y-29119D01*
X26382Y-29002D01*
X26499Y-28826D01*
X26540Y-28619D01*
X26540Y-32063D01*
X25300Y-32063D01*
X25300Y-27543D01*
X25300Y-26750D01*
X25300Y-26650D01*
X25300Y-25856D01*
X25300Y-25632D01*
X25300Y-25050D01*
X25300Y-24950D01*
X25300Y-24367D01*
X25253Y-24320D01*
X24820Y-24320D01*
X24751Y-24348D01*
X24698Y-24401D01*
X24670Y-24470D01*
X24670Y-24545D01*
X24670Y-24903D01*
X24717Y-24950D01*
X25300Y-24950D01*
X25300Y-25050D01*
X24717Y-25050D01*
X24670Y-25096D01*
X24670Y-25454D01*
X24670Y-25529D01*
X24698Y-25598D01*
X24751Y-25651D01*
X24820Y-25679D01*
X25253Y-25679D01*
X25300Y-25632D01*
X25300Y-25856D01*
X25216Y-25823D01*
X25189Y-25829D01*
X25003Y-25930D01*
X24869Y-26094D01*
X24809Y-26297D01*
X24809Y-26650D01*
X25300Y-26650D01*
X25300Y-26750D01*
X24809Y-26750D01*
X24809Y-27102D01*
X24869Y-27305D01*
X25003Y-27469D01*
X25189Y-27570D01*
X25216Y-27576D01*
X25300Y-27543D01*
X25300Y-32063D01*
X23957Y-32063D01*
X23957Y-24760D01*
X23957Y-24339D01*
X23921Y-24154D01*
X23816Y-23998D01*
X23659Y-23893D01*
X23474Y-23856D01*
X23289Y-23893D01*
X23133Y-23998D01*
X23047Y-24126D01*
X23028Y-24098D01*
X22872Y-23993D01*
X22687Y-23957D01*
X22641Y-23966D01*
X22641Y-20364D01*
X22633Y-20091D01*
X22545Y-19879D01*
X22446Y-19824D01*
X22375Y-19894D01*
X22375Y-19753D01*
X22320Y-19654D01*
X22064Y-19558D01*
X21791Y-19566D01*
X21579Y-19654D01*
X21524Y-19753D01*
X21950Y-20179D01*
X22375Y-19753D01*
X22375Y-19894D01*
X22020Y-20250D01*
X22446Y-20675D01*
X22545Y-20620D01*
X22641Y-20364D01*
X22641Y-23966D01*
X22637Y-23966D01*
X22637Y-22712D01*
X22637Y-21712D01*
X22609Y-21643D01*
X22556Y-21590D01*
X22487Y-21562D01*
X22412Y-21562D01*
X22375Y-21562D01*
X22375Y-20746D01*
X21950Y-20320D01*
X21879Y-20391D01*
X21879Y-20250D01*
X21453Y-19824D01*
X21433Y-19835D01*
X21433Y-18296D01*
X21433Y-18100D01*
X21433Y-18000D01*
X21433Y-17803D01*
X21433Y-15296D01*
X21433Y-15100D01*
X21433Y-15000D01*
X21433Y-14803D01*
X21377Y-14622D01*
X21256Y-14476D01*
X21088Y-14387D01*
X21074Y-14386D01*
X21000Y-14419D01*
X21000Y-15000D01*
X21433Y-15000D01*
X21433Y-15100D01*
X21000Y-15100D01*
X21000Y-15680D01*
X21074Y-15713D01*
X21088Y-15712D01*
X21256Y-15623D01*
X21377Y-15477D01*
X21433Y-15296D01*
X21433Y-17803D01*
X21377Y-17622D01*
X21256Y-17476D01*
X21088Y-17387D01*
X21074Y-17386D01*
X21000Y-17419D01*
X21000Y-18000D01*
X21433Y-18000D01*
X21433Y-18100D01*
X21000Y-18100D01*
X21000Y-18680D01*
X21074Y-18713D01*
X21088Y-18712D01*
X21256Y-18623D01*
X21377Y-18477D01*
X21433Y-18296D01*
X21433Y-19835D01*
X21354Y-19879D01*
X21258Y-20135D01*
X21266Y-20408D01*
X21354Y-20620D01*
X21453Y-20675D01*
X21879Y-20250D01*
X21879Y-20391D01*
X21524Y-20746D01*
X21579Y-20845D01*
X21835Y-20941D01*
X22108Y-20933D01*
X22320Y-20845D01*
X22375Y-20746D01*
X22375Y-21562D01*
X21412Y-21562D01*
X21343Y-21590D01*
X21290Y-21643D01*
X21262Y-21712D01*
X21262Y-21787D01*
X21262Y-22787D01*
X21290Y-22856D01*
X21343Y-22909D01*
X21412Y-22937D01*
X21487Y-22937D01*
X22487Y-22937D01*
X22556Y-22909D01*
X22609Y-22856D01*
X22637Y-22787D01*
X22637Y-22712D01*
X22637Y-23966D01*
X22502Y-23993D01*
X22345Y-24098D01*
X22293Y-24176D01*
X22241Y-24098D01*
X22084Y-23993D01*
X21900Y-23957D01*
X21715Y-23993D01*
X21558Y-24098D01*
X21506Y-24176D01*
X21454Y-24098D01*
X21297Y-23993D01*
X21112Y-23957D01*
X20927Y-23993D01*
X20900Y-24012D01*
X20900Y-18680D01*
X20900Y-18100D01*
X20900Y-18000D01*
X20900Y-17419D01*
X20900Y-15680D01*
X20900Y-15100D01*
X20900Y-15000D01*
X20900Y-14419D01*
X20825Y-14386D01*
X20811Y-14387D01*
X20643Y-14476D01*
X20522Y-14622D01*
X20466Y-14803D01*
X20466Y-15000D01*
X20900Y-15000D01*
X20900Y-15100D01*
X20466Y-15100D01*
X20466Y-15296D01*
X20522Y-15477D01*
X20643Y-15623D01*
X20811Y-15712D01*
X20825Y-15713D01*
X20900Y-15680D01*
X20900Y-17419D01*
X20825Y-17386D01*
X20811Y-17387D01*
X20643Y-17476D01*
X20522Y-17622D01*
X20466Y-17803D01*
X20466Y-18000D01*
X20900Y-18000D01*
X20900Y-18100D01*
X20466Y-18100D01*
X20466Y-18296D01*
X20522Y-18477D01*
X20643Y-18623D01*
X20811Y-18712D01*
X20825Y-18713D01*
X20900Y-18680D01*
X20900Y-24012D01*
X20771Y-24098D01*
X20752Y-24126D01*
X20666Y-23998D01*
X20510Y-23893D01*
X20325Y-23856D01*
X20140Y-23893D01*
X19983Y-23998D01*
X19878Y-24154D01*
X19842Y-24339D01*
X19842Y-24760D01*
X19878Y-24945D01*
X19983Y-25101D01*
X20140Y-25206D01*
X20325Y-25243D01*
X20510Y-25206D01*
X20666Y-25101D01*
X20752Y-24973D01*
X20771Y-25001D01*
X20927Y-25106D01*
X21112Y-25142D01*
X21297Y-25106D01*
X21454Y-25001D01*
X21506Y-24923D01*
X21558Y-25001D01*
X21715Y-25106D01*
X21900Y-25142D01*
X22084Y-25106D01*
X22241Y-25001D01*
X22293Y-24923D01*
X22345Y-25001D01*
X22502Y-25106D01*
X22687Y-25142D01*
X22872Y-25106D01*
X23028Y-25001D01*
X23047Y-24973D01*
X23133Y-25101D01*
X23289Y-25206D01*
X23474Y-25243D01*
X23659Y-25206D01*
X23816Y-25101D01*
X23921Y-24945D01*
X23957Y-24760D01*
X23957Y-32063D01*
X22783Y-32063D01*
X22783Y-30560D01*
X22783Y-30139D01*
X22783Y-27560D01*
X22783Y-27139D01*
X22746Y-26954D01*
X22641Y-26798D01*
X22484Y-26693D01*
X22300Y-26656D01*
X22115Y-26693D01*
X21958Y-26798D01*
X21853Y-26954D01*
X21816Y-27139D01*
X21816Y-27560D01*
X21853Y-27745D01*
X21958Y-27901D01*
X22115Y-28006D01*
X22300Y-28043D01*
X22484Y-28006D01*
X22641Y-27901D01*
X22746Y-27745D01*
X22783Y-27560D01*
X22783Y-30139D01*
X22746Y-29954D01*
X22641Y-29798D01*
X22484Y-29693D01*
X22300Y-29656D01*
X22115Y-29693D01*
X21958Y-29798D01*
X21853Y-29954D01*
X21816Y-30139D01*
X21816Y-30560D01*
X21853Y-30745D01*
X21958Y-30901D01*
X22115Y-31006D01*
X22300Y-31043D01*
X22484Y-31006D01*
X22641Y-30901D01*
X22746Y-30745D01*
X22783Y-30560D01*
X22783Y-32063D01*
X20783Y-32063D01*
X20783Y-30596D01*
X20783Y-30400D01*
X20783Y-30300D01*
X20783Y-30103D01*
X20783Y-27596D01*
X20783Y-27400D01*
X20783Y-27300D01*
X20783Y-27103D01*
X20727Y-26922D01*
X20606Y-26776D01*
X20438Y-26687D01*
X20424Y-26686D01*
X20350Y-26719D01*
X20350Y-27300D01*
X20783Y-27300D01*
X20783Y-27400D01*
X20350Y-27400D01*
X20350Y-27980D01*
X20424Y-28013D01*
X20438Y-28012D01*
X20606Y-27923D01*
X20727Y-27777D01*
X20783Y-27596D01*
X20783Y-30103D01*
X20727Y-29922D01*
X20606Y-29776D01*
X20438Y-29687D01*
X20424Y-29686D01*
X20350Y-29719D01*
X20350Y-30300D01*
X20783Y-30300D01*
X20783Y-30400D01*
X20350Y-30400D01*
X20350Y-30980D01*
X20424Y-31013D01*
X20438Y-31012D01*
X20606Y-30923D01*
X20727Y-30777D01*
X20783Y-30596D01*
X20783Y-32063D01*
X20250Y-32063D01*
X20250Y-30980D01*
X20250Y-30400D01*
X20250Y-30300D01*
X20250Y-29719D01*
X20250Y-27980D01*
X20250Y-27400D01*
X20250Y-27300D01*
X20250Y-26719D01*
X20175Y-26686D01*
X20161Y-26687D01*
X19993Y-26776D01*
X19872Y-26922D01*
X19816Y-27103D01*
X19816Y-27300D01*
X20250Y-27300D01*
X20250Y-27400D01*
X19816Y-27400D01*
X19816Y-27596D01*
X19872Y-27777D01*
X19993Y-27923D01*
X20161Y-28012D01*
X20175Y-28013D01*
X20250Y-27980D01*
X20250Y-29719D01*
X20175Y-29686D01*
X20161Y-29687D01*
X19993Y-29776D01*
X19872Y-29922D01*
X19816Y-30103D01*
X19816Y-30300D01*
X20250Y-30300D01*
X20250Y-30400D01*
X19816Y-30400D01*
X19816Y-30596D01*
X19872Y-30777D01*
X19993Y-30923D01*
X20161Y-31012D01*
X20175Y-31013D01*
X20250Y-30980D01*
X20250Y-32063D01*
X19485Y-32063D01*
X19502Y-32052D01*
X19564Y-31959D01*
X19586Y-31850D01*
X19586Y-10636D01*
X50513Y-10636D01*
X50513Y-30203D01*
X50486Y-30185D01*
X50462Y-30181D01*
X50462Y-14348D01*
X50384Y-14159D01*
X50240Y-14015D01*
X50052Y-13937D01*
X49848Y-13937D01*
X49659Y-14015D01*
X49515Y-14159D01*
X49437Y-14347D01*
X49437Y-14551D01*
X49450Y-14583D01*
X49450Y-14583D01*
X49287Y-14583D01*
X49287Y-14312D01*
X49287Y-13712D01*
X49259Y-13643D01*
X49206Y-13590D01*
X49137Y-13562D01*
X49062Y-13562D01*
X48462Y-13562D01*
X48393Y-13590D01*
X48340Y-13643D01*
X48312Y-13712D01*
X48312Y-13787D01*
X48312Y-14387D01*
X48340Y-14456D01*
X48393Y-14509D01*
X48462Y-14537D01*
X48537Y-14537D01*
X49137Y-14537D01*
X49206Y-14509D01*
X49259Y-14456D01*
X49287Y-14387D01*
X49287Y-14312D01*
X49287Y-14583D01*
X48292Y-14583D01*
X48292Y-14116D01*
X48280Y-13923D01*
X48229Y-13799D01*
X48151Y-13768D01*
X47870Y-14050D01*
X48151Y-14331D01*
X48229Y-14300D01*
X48292Y-14116D01*
X48292Y-14583D01*
X48081Y-14583D01*
X48081Y-14401D01*
X47800Y-14120D01*
X47518Y-14401D01*
X47549Y-14479D01*
X47733Y-14542D01*
X47926Y-14530D01*
X48050Y-14479D01*
X48081Y-14401D01*
X48081Y-14583D01*
X45810Y-14583D01*
X45764Y-14537D01*
X45896Y-14537D01*
X46075Y-14463D01*
X46213Y-14326D01*
X46287Y-14147D01*
X46287Y-13953D01*
X46269Y-13907D01*
X46374Y-13802D01*
X46312Y-13952D01*
X46312Y-14146D01*
X46386Y-14325D01*
X46523Y-14463D01*
X46702Y-14537D01*
X46896Y-14537D01*
X47075Y-14463D01*
X47213Y-14326D01*
X47287Y-14147D01*
X47287Y-13953D01*
X47283Y-13943D01*
X47340Y-13886D01*
X47307Y-13983D01*
X47319Y-14176D01*
X47370Y-14300D01*
X47448Y-14331D01*
X47729Y-14050D01*
X47723Y-14044D01*
X47794Y-13973D01*
X47800Y-13979D01*
X48081Y-13698D01*
X48050Y-13620D01*
X47866Y-13557D01*
X47673Y-13569D01*
X47647Y-13579D01*
X48287Y-12939D01*
X48287Y-13051D01*
X48365Y-13240D01*
X48509Y-13384D01*
X48697Y-13462D01*
X48901Y-13462D01*
X49090Y-13384D01*
X49234Y-13240D01*
X49312Y-13052D01*
X49312Y-12848D01*
X49234Y-12659D01*
X49090Y-12515D01*
X48902Y-12437D01*
X48698Y-12437D01*
X48566Y-12491D01*
X48566Y-12460D01*
X48644Y-12408D01*
X48750Y-12250D01*
X48787Y-12063D01*
X48787Y-11739D01*
X48810Y-11716D01*
X49505Y-11716D01*
X49515Y-11740D01*
X49659Y-11884D01*
X49847Y-11962D01*
X50051Y-11962D01*
X50240Y-11884D01*
X50384Y-11740D01*
X50462Y-11552D01*
X50462Y-11348D01*
X50384Y-11159D01*
X50240Y-11015D01*
X50052Y-10937D01*
X49848Y-10937D01*
X49659Y-11015D01*
X49515Y-11159D01*
X49505Y-11183D01*
X48700Y-11183D01*
X48598Y-11203D01*
X48555Y-11232D01*
X48555Y-11232D01*
X48486Y-11185D01*
X48300Y-11148D01*
X48113Y-11185D01*
X47955Y-11291D01*
X47849Y-11449D01*
X47812Y-11636D01*
X47812Y-12063D01*
X47849Y-12250D01*
X47955Y-12408D01*
X48020Y-12452D01*
X46906Y-13566D01*
X46897Y-13562D01*
X46703Y-13562D01*
X46552Y-13624D01*
X47038Y-13138D01*
X47038Y-13138D01*
X47038Y-13138D01*
X47488Y-12688D01*
X47546Y-12601D01*
X47546Y-12601D01*
X47566Y-12500D01*
X47566Y-12460D01*
X47644Y-12408D01*
X47750Y-12250D01*
X47787Y-12063D01*
X47787Y-11636D01*
X47750Y-11449D01*
X47644Y-11291D01*
X47486Y-11185D01*
X47300Y-11148D01*
X47113Y-11185D01*
X46955Y-11291D01*
X46849Y-11449D01*
X46812Y-11636D01*
X46812Y-12063D01*
X46849Y-12250D01*
X46955Y-12408D01*
X46990Y-12432D01*
X46787Y-12635D01*
X46787Y-12063D01*
X46787Y-11636D01*
X46750Y-11449D01*
X46644Y-11291D01*
X46486Y-11185D01*
X46300Y-11148D01*
X46113Y-11185D01*
X45955Y-11291D01*
X45849Y-11449D01*
X45812Y-11636D01*
X45812Y-12063D01*
X45849Y-12250D01*
X45955Y-12408D01*
X46113Y-12514D01*
X46300Y-12551D01*
X46486Y-12514D01*
X46644Y-12408D01*
X46750Y-12250D01*
X46787Y-12063D01*
X46787Y-12635D01*
X46739Y-12683D01*
X46244Y-12683D01*
X46234Y-12659D01*
X46090Y-12515D01*
X45902Y-12437D01*
X45698Y-12437D01*
X45566Y-12491D01*
X45566Y-12460D01*
X45644Y-12408D01*
X45750Y-12250D01*
X45787Y-12063D01*
X45787Y-11636D01*
X45750Y-11449D01*
X45644Y-11291D01*
X45486Y-11185D01*
X45300Y-11148D01*
X45113Y-11185D01*
X44955Y-11291D01*
X44849Y-11449D01*
X44812Y-11636D01*
X44812Y-12063D01*
X44849Y-12250D01*
X44955Y-12408D01*
X45020Y-12452D01*
X44961Y-12511D01*
X44903Y-12598D01*
X44883Y-12700D01*
X44883Y-14300D01*
X44903Y-14401D01*
X44961Y-14488D01*
X45332Y-14859D01*
X45135Y-14859D01*
X44787Y-14510D01*
X44787Y-12063D01*
X44787Y-11636D01*
X44750Y-11449D01*
X44644Y-11291D01*
X44486Y-11185D01*
X44300Y-11148D01*
X44113Y-11185D01*
X43955Y-11291D01*
X43849Y-11449D01*
X43812Y-11636D01*
X43812Y-11960D01*
X43787Y-11985D01*
X43787Y-11636D01*
X43750Y-11449D01*
X43644Y-11291D01*
X43486Y-11185D01*
X43300Y-11148D01*
X43113Y-11185D01*
X42955Y-11291D01*
X42849Y-11449D01*
X42812Y-11636D01*
X42812Y-11960D01*
X42787Y-11985D01*
X42787Y-11636D01*
X42750Y-11449D01*
X42644Y-11291D01*
X42486Y-11185D01*
X42300Y-11148D01*
X42113Y-11185D01*
X41955Y-11291D01*
X41849Y-11449D01*
X41812Y-11636D01*
X41812Y-12063D01*
X41832Y-12165D01*
X41751Y-12245D01*
X41787Y-12063D01*
X41787Y-11636D01*
X41750Y-11449D01*
X41644Y-11291D01*
X41486Y-11185D01*
X41300Y-11148D01*
X41113Y-11185D01*
X40955Y-11291D01*
X40849Y-11449D01*
X40822Y-11583D01*
X39150Y-11583D01*
X39048Y-11603D01*
X38961Y-11661D01*
X37787Y-12835D01*
X37787Y-12063D01*
X37787Y-11636D01*
X37750Y-11449D01*
X37644Y-11291D01*
X37486Y-11185D01*
X37300Y-11148D01*
X37113Y-11185D01*
X36955Y-11291D01*
X36849Y-11449D01*
X36812Y-11636D01*
X36812Y-11960D01*
X36787Y-11985D01*
X36787Y-11636D01*
X36750Y-11449D01*
X36644Y-11291D01*
X36486Y-11185D01*
X36300Y-11148D01*
X36113Y-11185D01*
X35955Y-11291D01*
X35849Y-11449D01*
X35812Y-11636D01*
X35812Y-11960D01*
X35787Y-11985D01*
X35787Y-11636D01*
X35750Y-11449D01*
X35644Y-11291D01*
X35486Y-11185D01*
X35300Y-11148D01*
X35113Y-11185D01*
X34955Y-11291D01*
X34849Y-11449D01*
X34812Y-11636D01*
X34812Y-11960D01*
X34787Y-11985D01*
X34787Y-11636D01*
X34750Y-11449D01*
X34644Y-11291D01*
X34486Y-11185D01*
X34300Y-11148D01*
X34113Y-11185D01*
X33955Y-11291D01*
X33849Y-11449D01*
X33812Y-11636D01*
X33812Y-11960D01*
X33787Y-11985D01*
X33787Y-11636D01*
X33750Y-11449D01*
X33644Y-11291D01*
X33486Y-11185D01*
X33300Y-11148D01*
X33113Y-11185D01*
X32955Y-11291D01*
X32849Y-11449D01*
X32812Y-11636D01*
X32812Y-11960D01*
X32787Y-11985D01*
X32787Y-11636D01*
X32750Y-11449D01*
X32644Y-11291D01*
X32486Y-11185D01*
X32300Y-11148D01*
X32113Y-11185D01*
X31955Y-11291D01*
X31849Y-11449D01*
X31812Y-11636D01*
X31812Y-11960D01*
X31361Y-12411D01*
X31303Y-12498D01*
X31283Y-12600D01*
X31283Y-12962D01*
X31212Y-12962D01*
X31187Y-12972D01*
X31187Y-12063D01*
X31187Y-11636D01*
X31150Y-11449D01*
X31044Y-11291D01*
X30886Y-11185D01*
X30700Y-11148D01*
X30513Y-11185D01*
X30355Y-11291D01*
X30249Y-11449D01*
X30212Y-11636D01*
X30212Y-11960D01*
X30187Y-11985D01*
X30187Y-11636D01*
X30150Y-11449D01*
X30044Y-11291D01*
X29886Y-11185D01*
X29700Y-11148D01*
X29513Y-11185D01*
X29355Y-11291D01*
X29249Y-11449D01*
X29212Y-11636D01*
X29212Y-12063D01*
X29249Y-12250D01*
X29355Y-12408D01*
X29433Y-12460D01*
X29433Y-12500D01*
X29402Y-12487D01*
X29198Y-12487D01*
X29009Y-12565D01*
X28966Y-12608D01*
X28966Y-12460D01*
X29044Y-12408D01*
X29150Y-12250D01*
X29187Y-12063D01*
X29187Y-11636D01*
X29150Y-11449D01*
X29044Y-11291D01*
X28886Y-11185D01*
X28700Y-11148D01*
X28513Y-11185D01*
X28355Y-11291D01*
X28249Y-11449D01*
X28212Y-11636D01*
X28212Y-12063D01*
X28249Y-12250D01*
X28355Y-12408D01*
X28433Y-12460D01*
X28433Y-13850D01*
X28453Y-13951D01*
X28511Y-14038D01*
X28711Y-14238D01*
X28711Y-14238D01*
X28754Y-14267D01*
X28798Y-14296D01*
X28798Y-14296D01*
X28851Y-14306D01*
X28865Y-14340D01*
X29009Y-14484D01*
X29197Y-14562D01*
X29401Y-14562D01*
X29590Y-14484D01*
X29734Y-14340D01*
X29812Y-14152D01*
X29812Y-13948D01*
X29734Y-13759D01*
X29590Y-13615D01*
X29402Y-13537D01*
X29198Y-13537D01*
X29009Y-13615D01*
X28966Y-13658D01*
X28966Y-13391D01*
X29009Y-13434D01*
X29197Y-13512D01*
X29401Y-13512D01*
X29590Y-13434D01*
X29734Y-13290D01*
X29812Y-13102D01*
X29812Y-13014D01*
X29888Y-12938D01*
X29888Y-12938D01*
X29946Y-12851D01*
X29966Y-12750D01*
X29966Y-12750D01*
X29966Y-12460D01*
X30044Y-12408D01*
X30083Y-12350D01*
X30083Y-15439D01*
X29812Y-15710D01*
X29812Y-14998D01*
X29734Y-14809D01*
X29590Y-14665D01*
X29402Y-14587D01*
X29198Y-14587D01*
X29009Y-14665D01*
X28865Y-14809D01*
X28855Y-14833D01*
X28710Y-14833D01*
X27966Y-14089D01*
X27966Y-12460D01*
X28044Y-12408D01*
X28150Y-12250D01*
X28187Y-12063D01*
X28187Y-11636D01*
X28150Y-11449D01*
X28044Y-11291D01*
X27886Y-11185D01*
X27700Y-11148D01*
X27513Y-11185D01*
X27355Y-11291D01*
X27249Y-11449D01*
X27212Y-11636D01*
X27212Y-12063D01*
X27249Y-12250D01*
X27355Y-12408D01*
X27433Y-12460D01*
X27433Y-14200D01*
X27453Y-14301D01*
X27511Y-14388D01*
X28411Y-15288D01*
X28498Y-15346D01*
X28498Y-15346D01*
X28600Y-15366D01*
X28855Y-15366D01*
X28865Y-15390D01*
X29009Y-15534D01*
X29197Y-15612D01*
X29401Y-15612D01*
X29590Y-15534D01*
X29734Y-15390D01*
X29812Y-15202D01*
X29812Y-14998D01*
X29812Y-15710D01*
X29511Y-16011D01*
X29453Y-16098D01*
X29450Y-16112D01*
X29362Y-16112D01*
X29293Y-16140D01*
X29240Y-16193D01*
X29212Y-16262D01*
X29212Y-16337D01*
X29212Y-16937D01*
X29240Y-17006D01*
X29293Y-17059D01*
X29362Y-17087D01*
X29437Y-17087D01*
X30037Y-17087D01*
X30106Y-17059D01*
X30159Y-17006D01*
X30187Y-16937D01*
X30187Y-16862D01*
X30187Y-16262D01*
X30159Y-16193D01*
X30121Y-16155D01*
X30538Y-15738D01*
X30538Y-15738D01*
X30596Y-15651D01*
X30616Y-15550D01*
X30616Y-15550D01*
X30616Y-12534D01*
X30700Y-12551D01*
X30886Y-12514D01*
X31044Y-12408D01*
X31150Y-12250D01*
X31187Y-12063D01*
X31187Y-12972D01*
X31143Y-12990D01*
X31090Y-13043D01*
X31062Y-13112D01*
X31062Y-13187D01*
X31062Y-13787D01*
X31090Y-13856D01*
X31143Y-13909D01*
X31212Y-13937D01*
X31287Y-13937D01*
X31887Y-13937D01*
X31956Y-13909D01*
X32009Y-13856D01*
X32037Y-13787D01*
X32037Y-13712D01*
X32037Y-13112D01*
X32009Y-13043D01*
X31956Y-12990D01*
X31887Y-12962D01*
X31816Y-12962D01*
X31816Y-12710D01*
X32053Y-12473D01*
X32113Y-12514D01*
X32293Y-12549D01*
X32283Y-12600D01*
X32283Y-12962D01*
X32212Y-12962D01*
X32143Y-12990D01*
X32090Y-13043D01*
X32062Y-13112D01*
X32062Y-13187D01*
X32062Y-13787D01*
X32090Y-13856D01*
X32143Y-13909D01*
X32212Y-13937D01*
X32287Y-13937D01*
X32887Y-13937D01*
X32956Y-13909D01*
X33009Y-13856D01*
X33037Y-13787D01*
X33037Y-13712D01*
X33037Y-13112D01*
X33009Y-13043D01*
X32956Y-12990D01*
X32887Y-12962D01*
X32816Y-12962D01*
X32816Y-12710D01*
X33053Y-12473D01*
X33113Y-12514D01*
X33293Y-12549D01*
X33283Y-12600D01*
X33283Y-12962D01*
X33212Y-12962D01*
X33143Y-12990D01*
X33090Y-13043D01*
X33062Y-13112D01*
X33062Y-13187D01*
X33062Y-13787D01*
X33090Y-13856D01*
X33143Y-13909D01*
X33212Y-13937D01*
X33287Y-13937D01*
X33887Y-13937D01*
X33956Y-13909D01*
X34009Y-13856D01*
X34037Y-13787D01*
X34037Y-13712D01*
X34037Y-13112D01*
X34009Y-13043D01*
X33956Y-12990D01*
X33887Y-12962D01*
X33816Y-12962D01*
X33816Y-12710D01*
X34053Y-12473D01*
X34113Y-12514D01*
X34293Y-12549D01*
X34283Y-12600D01*
X34283Y-12962D01*
X34212Y-12962D01*
X34143Y-12990D01*
X34090Y-13043D01*
X34062Y-13112D01*
X34062Y-13187D01*
X34062Y-13787D01*
X34090Y-13856D01*
X34143Y-13909D01*
X34212Y-13937D01*
X34287Y-13937D01*
X34887Y-13937D01*
X34956Y-13909D01*
X35009Y-13856D01*
X35037Y-13787D01*
X35037Y-13712D01*
X35037Y-13112D01*
X35009Y-13043D01*
X34956Y-12990D01*
X34887Y-12962D01*
X34816Y-12962D01*
X34816Y-12710D01*
X35053Y-12473D01*
X35113Y-12514D01*
X35293Y-12549D01*
X35283Y-12600D01*
X35283Y-12962D01*
X35212Y-12962D01*
X35143Y-12990D01*
X35090Y-13043D01*
X35062Y-13112D01*
X35062Y-13187D01*
X35062Y-13787D01*
X35090Y-13856D01*
X35143Y-13909D01*
X35212Y-13937D01*
X35287Y-13937D01*
X35887Y-13937D01*
X35956Y-13909D01*
X36009Y-13856D01*
X36037Y-13787D01*
X36037Y-13712D01*
X36037Y-13112D01*
X36009Y-13043D01*
X35956Y-12990D01*
X35887Y-12962D01*
X35816Y-12962D01*
X35816Y-12710D01*
X36053Y-12473D01*
X36113Y-12514D01*
X36293Y-12549D01*
X36283Y-12600D01*
X36283Y-12962D01*
X36212Y-12962D01*
X36143Y-12990D01*
X36090Y-13043D01*
X36062Y-13112D01*
X36062Y-13187D01*
X36062Y-13787D01*
X36090Y-13856D01*
X36143Y-13909D01*
X36212Y-13937D01*
X36287Y-13937D01*
X36887Y-13937D01*
X36956Y-13909D01*
X37009Y-13856D01*
X37037Y-13787D01*
X37037Y-13712D01*
X37037Y-13112D01*
X37009Y-13043D01*
X36956Y-12990D01*
X36887Y-12962D01*
X36816Y-12962D01*
X36816Y-12710D01*
X37053Y-12473D01*
X37113Y-12514D01*
X37300Y-12551D01*
X37486Y-12514D01*
X37644Y-12408D01*
X37750Y-12250D01*
X37787Y-12063D01*
X37787Y-12835D01*
X37660Y-12962D01*
X37212Y-12962D01*
X37143Y-12990D01*
X37090Y-13043D01*
X37062Y-13112D01*
X37062Y-13187D01*
X37062Y-13787D01*
X37090Y-13856D01*
X37143Y-13909D01*
X37212Y-13937D01*
X37287Y-13937D01*
X37887Y-13937D01*
X37956Y-13909D01*
X38009Y-13856D01*
X38037Y-13787D01*
X38037Y-13712D01*
X38037Y-13339D01*
X38062Y-13314D01*
X38062Y-13787D01*
X38090Y-13856D01*
X38143Y-13909D01*
X38212Y-13937D01*
X38287Y-13937D01*
X38887Y-13937D01*
X38956Y-13909D01*
X39009Y-13856D01*
X39037Y-13787D01*
X39037Y-13712D01*
X39037Y-13339D01*
X39062Y-13314D01*
X39062Y-13787D01*
X39090Y-13856D01*
X39143Y-13909D01*
X39212Y-13937D01*
X39287Y-13937D01*
X39887Y-13937D01*
X39956Y-13909D01*
X40009Y-13856D01*
X40037Y-13787D01*
X40037Y-13712D01*
X40037Y-13414D01*
X40062Y-13390D01*
X40062Y-13787D01*
X40090Y-13856D01*
X40143Y-13909D01*
X40212Y-13937D01*
X40287Y-13937D01*
X40887Y-13937D01*
X40956Y-13909D01*
X41009Y-13856D01*
X41037Y-13787D01*
X41037Y-13712D01*
X41037Y-13564D01*
X41085Y-13516D01*
X41645Y-13516D01*
X41648Y-13518D01*
X41570Y-13549D01*
X41507Y-13733D01*
X41519Y-13926D01*
X41570Y-14050D01*
X41648Y-14081D01*
X41929Y-13800D01*
X41923Y-13794D01*
X41994Y-13723D01*
X42000Y-13729D01*
X42005Y-13723D01*
X42076Y-13794D01*
X42070Y-13800D01*
X42351Y-14081D01*
X42429Y-14050D01*
X42492Y-13866D01*
X42480Y-13673D01*
X42429Y-13549D01*
X42351Y-13518D01*
X42367Y-13503D01*
X42401Y-13496D01*
X42401Y-13496D01*
X42488Y-13438D01*
X43110Y-12816D01*
X43600Y-12816D01*
X43701Y-12796D01*
X43701Y-12796D01*
X43788Y-12738D01*
X44053Y-12473D01*
X44113Y-12514D01*
X44300Y-12551D01*
X44486Y-12514D01*
X44644Y-12408D01*
X44750Y-12250D01*
X44787Y-12063D01*
X44787Y-14510D01*
X43888Y-13611D01*
X43801Y-13553D01*
X43700Y-13533D01*
X43487Y-13533D01*
X43487Y-13462D01*
X43459Y-13393D01*
X43406Y-13340D01*
X43337Y-13312D01*
X43262Y-13312D01*
X42662Y-13312D01*
X42593Y-13340D01*
X42540Y-13393D01*
X42512Y-13462D01*
X42512Y-13537D01*
X42512Y-14137D01*
X42540Y-14206D01*
X42593Y-14259D01*
X42662Y-14287D01*
X42737Y-14287D01*
X43337Y-14287D01*
X43406Y-14259D01*
X43459Y-14206D01*
X43487Y-14137D01*
X43487Y-14066D01*
X43589Y-14066D01*
X44825Y-15302D01*
X44786Y-15302D01*
X44632Y-15365D01*
X44515Y-15483D01*
X44475Y-15578D01*
X44436Y-15483D01*
X44318Y-15366D01*
X44165Y-15302D01*
X43999Y-15302D01*
X43845Y-15365D01*
X43728Y-15483D01*
X43688Y-15578D01*
X43649Y-15483D01*
X43531Y-15366D01*
X43378Y-15302D01*
X43212Y-15302D01*
X43058Y-15365D01*
X42941Y-15483D01*
X42903Y-15572D01*
X42878Y-15511D01*
X42808Y-15489D01*
X42737Y-15560D01*
X42737Y-15418D01*
X42715Y-15348D01*
X42557Y-15296D01*
X42492Y-15302D01*
X42391Y-15309D01*
X42298Y-15348D01*
X42281Y-15404D01*
X42281Y-14151D01*
X42000Y-13870D01*
X41929Y-13941D01*
X41718Y-14151D01*
X41749Y-14229D01*
X41933Y-14292D01*
X42126Y-14280D01*
X42250Y-14229D01*
X42281Y-14151D01*
X42281Y-15404D01*
X42276Y-15418D01*
X42507Y-15649D01*
X42737Y-15418D01*
X42737Y-15560D01*
X42577Y-15720D01*
X42808Y-15950D01*
X42878Y-15928D01*
X42900Y-15860D01*
X42940Y-15956D01*
X43058Y-16073D01*
X43211Y-16137D01*
X43377Y-16137D01*
X43531Y-16074D01*
X43648Y-15956D01*
X43688Y-15861D01*
X43727Y-15956D01*
X43845Y-16073D01*
X43998Y-16137D01*
X44164Y-16137D01*
X44318Y-16074D01*
X44435Y-15956D01*
X44475Y-15861D01*
X44514Y-15956D01*
X44632Y-16073D01*
X44785Y-16137D01*
X44951Y-16137D01*
X45105Y-16074D01*
X45222Y-15956D01*
X45263Y-15860D01*
X45302Y-15956D01*
X45420Y-16073D01*
X45573Y-16137D01*
X45739Y-16137D01*
X45893Y-16074D01*
X46010Y-15956D01*
X46050Y-15862D01*
X46088Y-15956D01*
X46206Y-16073D01*
X46359Y-16137D01*
X46525Y-16137D01*
X46679Y-16074D01*
X46796Y-15956D01*
X46837Y-15860D01*
X46876Y-15956D01*
X46994Y-16073D01*
X47147Y-16137D01*
X47313Y-16137D01*
X47467Y-16074D01*
X47584Y-15956D01*
X47624Y-15861D01*
X47649Y-15923D01*
X46271Y-17301D01*
X46312Y-17202D01*
X46312Y-16998D01*
X46234Y-16809D01*
X46090Y-16665D01*
X45902Y-16587D01*
X45698Y-16587D01*
X45509Y-16665D01*
X45365Y-16809D01*
X45287Y-16997D01*
X45287Y-17201D01*
X45365Y-17390D01*
X45509Y-17534D01*
X45697Y-17612D01*
X45901Y-17612D01*
X46001Y-17571D01*
X45925Y-17647D01*
X45902Y-17637D01*
X45698Y-17637D01*
X45509Y-17715D01*
X45365Y-17859D01*
X45287Y-18047D01*
X45287Y-18251D01*
X45365Y-18440D01*
X45509Y-18584D01*
X45533Y-18594D01*
X45533Y-18755D01*
X45509Y-18765D01*
X45365Y-18909D01*
X45287Y-19097D01*
X45287Y-19301D01*
X45365Y-19490D01*
X45509Y-19634D01*
X45697Y-19712D01*
X45901Y-19712D01*
X46090Y-19634D01*
X46234Y-19490D01*
X46312Y-19302D01*
X46312Y-19098D01*
X46234Y-18909D01*
X46090Y-18765D01*
X46066Y-18755D01*
X46066Y-18594D01*
X46090Y-18584D01*
X46234Y-18440D01*
X46312Y-18252D01*
X46312Y-18048D01*
X46302Y-18024D01*
X48206Y-16120D01*
X48230Y-16084D01*
X48254Y-16074D01*
X48371Y-15956D01*
X48411Y-15861D01*
X48450Y-15956D01*
X48533Y-16039D01*
X48533Y-16655D01*
X48509Y-16665D01*
X48365Y-16809D01*
X48287Y-16997D01*
X48287Y-17201D01*
X48365Y-17390D01*
X48509Y-17534D01*
X48697Y-17612D01*
X48901Y-17612D01*
X49001Y-17571D01*
X48925Y-17647D01*
X48902Y-17637D01*
X48698Y-17637D01*
X48509Y-17715D01*
X48365Y-17859D01*
X48287Y-18047D01*
X48287Y-18251D01*
X48365Y-18440D01*
X48509Y-18584D01*
X48697Y-18662D01*
X48901Y-18662D01*
X49090Y-18584D01*
X49234Y-18440D01*
X49312Y-18252D01*
X49312Y-18048D01*
X49302Y-18024D01*
X50288Y-17038D01*
X50346Y-16951D01*
X50346Y-16951D01*
X50366Y-16850D01*
X50366Y-16850D01*
X50366Y-15850D01*
X50366Y-15500D01*
X50346Y-15398D01*
X50288Y-15311D01*
X50288Y-15311D01*
X49939Y-14962D01*
X50051Y-14962D01*
X50240Y-14884D01*
X50384Y-14740D01*
X50462Y-14552D01*
X50462Y-14348D01*
X50462Y-30181D01*
X50300Y-30148D01*
X50113Y-30185D01*
X50010Y-30254D01*
X50010Y-24297D01*
X49966Y-24188D01*
X49966Y-22105D01*
X49966Y-20037D01*
X49317Y-20037D01*
X49317Y-19272D01*
X49306Y-19069D01*
X49250Y-18934D01*
X49169Y-18900D01*
X49099Y-18971D01*
X49099Y-18830D01*
X49065Y-18749D01*
X48872Y-18682D01*
X48669Y-18693D01*
X48534Y-18749D01*
X48500Y-18830D01*
X48800Y-19129D01*
X49099Y-18830D01*
X49099Y-18971D01*
X48870Y-19200D01*
X49169Y-19499D01*
X49250Y-19465D01*
X49317Y-19272D01*
X49317Y-20037D01*
X49099Y-20037D01*
X49099Y-19569D01*
X48800Y-19270D01*
X48729Y-19341D01*
X48729Y-19200D01*
X48430Y-18900D01*
X48349Y-18934D01*
X48282Y-19127D01*
X48293Y-19330D01*
X48349Y-19465D01*
X48430Y-19499D01*
X48729Y-19200D01*
X48729Y-19341D01*
X48500Y-19569D01*
X48534Y-19650D01*
X48727Y-19717D01*
X48930Y-19706D01*
X49065Y-19650D01*
X49099Y-19569D01*
X49099Y-20037D01*
X42737Y-20037D01*
X42737Y-16021D01*
X42507Y-15790D01*
X42436Y-15861D01*
X42436Y-15720D01*
X42205Y-15489D01*
X42135Y-15511D01*
X42083Y-15669D01*
X42096Y-15835D01*
X42135Y-15928D01*
X42205Y-15950D01*
X42436Y-15720D01*
X42436Y-15861D01*
X42276Y-16021D01*
X42298Y-16091D01*
X42456Y-16143D01*
X42622Y-16130D01*
X42715Y-16091D01*
X42737Y-16021D01*
X42737Y-20037D01*
X41333Y-20037D01*
X41333Y-22105D01*
X42351Y-22105D01*
X42351Y-23287D01*
X48848Y-23287D01*
X48848Y-22105D01*
X49966Y-22105D01*
X49966Y-24188D01*
X49947Y-24143D01*
X49829Y-24026D01*
X49676Y-23962D01*
X49510Y-23962D01*
X49356Y-24025D01*
X49239Y-24143D01*
X49198Y-24239D01*
X49159Y-24143D01*
X49041Y-24026D01*
X48888Y-23962D01*
X48722Y-23962D01*
X48568Y-24025D01*
X48451Y-24143D01*
X48411Y-24238D01*
X48372Y-24143D01*
X48254Y-24026D01*
X48101Y-23962D01*
X47935Y-23962D01*
X47781Y-24025D01*
X47664Y-24143D01*
X47624Y-24238D01*
X47585Y-24143D01*
X47467Y-24026D01*
X47314Y-23962D01*
X47148Y-23962D01*
X46994Y-24025D01*
X46877Y-24143D01*
X46836Y-24239D01*
X46797Y-24143D01*
X46679Y-24026D01*
X46526Y-23962D01*
X46360Y-23962D01*
X46206Y-24025D01*
X46089Y-24143D01*
X46049Y-24237D01*
X46011Y-24143D01*
X45893Y-24026D01*
X45740Y-23962D01*
X45574Y-23962D01*
X45420Y-24025D01*
X45303Y-24143D01*
X45262Y-24239D01*
X45223Y-24143D01*
X45105Y-24026D01*
X44952Y-23962D01*
X44786Y-23962D01*
X44632Y-24025D01*
X44515Y-24143D01*
X44475Y-24238D01*
X44436Y-24143D01*
X44318Y-24026D01*
X44165Y-23962D01*
X43999Y-23962D01*
X43845Y-24025D01*
X43728Y-24143D01*
X43688Y-24238D01*
X43649Y-24143D01*
X43531Y-24026D01*
X43378Y-23962D01*
X43212Y-23962D01*
X43058Y-24025D01*
X42941Y-24143D01*
X42900Y-24239D01*
X42861Y-24143D01*
X42743Y-24026D01*
X42590Y-23962D01*
X42424Y-23962D01*
X42270Y-24025D01*
X42153Y-24143D01*
X42089Y-24296D01*
X42089Y-24462D01*
X42152Y-24616D01*
X42270Y-24733D01*
X42423Y-24797D01*
X42589Y-24797D01*
X42743Y-24734D01*
X42860Y-24616D01*
X42901Y-24520D01*
X42940Y-24616D01*
X43058Y-24733D01*
X43211Y-24797D01*
X43377Y-24797D01*
X43531Y-24734D01*
X43648Y-24616D01*
X43688Y-24521D01*
X43727Y-24616D01*
X43845Y-24733D01*
X43998Y-24797D01*
X44164Y-24797D01*
X44318Y-24734D01*
X44435Y-24616D01*
X44475Y-24521D01*
X44514Y-24616D01*
X44632Y-24733D01*
X44785Y-24797D01*
X44951Y-24797D01*
X45105Y-24734D01*
X45222Y-24616D01*
X45263Y-24520D01*
X45302Y-24616D01*
X45420Y-24733D01*
X45573Y-24797D01*
X45739Y-24797D01*
X45893Y-24734D01*
X46010Y-24616D01*
X46050Y-24522D01*
X46088Y-24616D01*
X46206Y-24733D01*
X46359Y-24797D01*
X46525Y-24797D01*
X46679Y-24734D01*
X46796Y-24616D01*
X46837Y-24520D01*
X46876Y-24616D01*
X46994Y-24733D01*
X47147Y-24797D01*
X47313Y-24797D01*
X47467Y-24734D01*
X47584Y-24616D01*
X47624Y-24521D01*
X47663Y-24616D01*
X47781Y-24733D01*
X47934Y-24797D01*
X48100Y-24797D01*
X48254Y-24734D01*
X48371Y-24616D01*
X48411Y-24521D01*
X48450Y-24616D01*
X48568Y-24733D01*
X48721Y-24797D01*
X48887Y-24797D01*
X49041Y-24734D01*
X49158Y-24616D01*
X49199Y-24520D01*
X49238Y-24616D01*
X49356Y-24733D01*
X49509Y-24797D01*
X49675Y-24797D01*
X49829Y-24734D01*
X49946Y-24616D01*
X50010Y-24463D01*
X50010Y-24297D01*
X50010Y-30254D01*
X49955Y-30291D01*
X49849Y-30449D01*
X49812Y-30636D01*
X49812Y-31063D01*
X49849Y-31250D01*
X49955Y-31408D01*
X50113Y-31514D01*
X50300Y-31551D01*
X50486Y-31514D01*
X50513Y-31496D01*
X50513Y-32063D01*
M02*
