G04 (created by PCBNEW (2013-june-11)-stable) date vie 07 feb 2014 03:14:29 CET*
%MOIN*%
G04 Gerber Fmt 3.4, Leading zero omitted, Abs format*
%FSLAX34Y34*%
G01*
G70*
G90*
G04 APERTURE LIST*
%ADD10C,0.00393701*%
%ADD11C,0.00688976*%
%ADD12C,0.019685*%
%ADD13C,0.012*%
%ADD14C,0.015*%
%ADD15C,0.008*%
%ADD16C,0.006*%
%ADD17C,0.01*%
%ADD18C,0.005*%
%ADD19C,0.0026*%
%ADD20C,0.007*%
%ADD21C,0.01125*%
%ADD22C,0.0125*%
%ADD23C,0.00885827*%
G04 APERTURE END LIST*
G54D10*
G54D11*
X47978Y-30211D02*
X47978Y-29935D01*
X48044Y-29935D01*
X48083Y-29949D01*
X48109Y-29975D01*
X48122Y-30001D01*
X48135Y-30054D01*
X48135Y-30093D01*
X48122Y-30145D01*
X48109Y-30172D01*
X48083Y-30198D01*
X48044Y-30211D01*
X47978Y-30211D01*
X48254Y-30211D02*
X48254Y-29935D01*
X48254Y-30067D02*
X48411Y-30067D01*
X48411Y-30211D02*
X48411Y-29935D01*
X48503Y-29935D02*
X48660Y-29935D01*
X48582Y-30211D02*
X48582Y-29935D01*
X48866Y-30211D02*
X48866Y-29935D01*
X49024Y-30211D01*
X49024Y-29935D01*
X49195Y-30211D02*
X49168Y-30198D01*
X49155Y-30185D01*
X49142Y-30159D01*
X49142Y-30080D01*
X49155Y-30054D01*
X49168Y-30040D01*
X49195Y-30027D01*
X49234Y-30027D01*
X49260Y-30040D01*
X49273Y-30054D01*
X49286Y-30080D01*
X49286Y-30159D01*
X49273Y-30185D01*
X49260Y-30198D01*
X49234Y-30211D01*
X49195Y-30211D01*
X49391Y-30198D02*
X49418Y-30211D01*
X49470Y-30211D01*
X49496Y-30198D01*
X49509Y-30172D01*
X49509Y-30159D01*
X49496Y-30132D01*
X49470Y-30119D01*
X49431Y-30119D01*
X49404Y-30106D01*
X49391Y-30080D01*
X49391Y-30067D01*
X49404Y-30040D01*
X49431Y-30027D01*
X49470Y-30027D01*
X49496Y-30040D01*
X49733Y-30198D02*
X49706Y-30211D01*
X49654Y-30211D01*
X49628Y-30198D01*
X49614Y-30172D01*
X49614Y-30067D01*
X49628Y-30040D01*
X49654Y-30027D01*
X49706Y-30027D01*
X49733Y-30040D01*
X49746Y-30067D01*
X49746Y-30093D01*
X49614Y-30119D01*
X50122Y-29949D02*
X50096Y-29935D01*
X50057Y-29935D01*
X50017Y-29949D01*
X49991Y-29975D01*
X49978Y-30001D01*
X49965Y-30054D01*
X49965Y-30093D01*
X49978Y-30145D01*
X49991Y-30172D01*
X50017Y-30198D01*
X50057Y-30211D01*
X50083Y-30211D01*
X50122Y-30198D01*
X50135Y-30185D01*
X50135Y-30093D01*
X50083Y-30093D01*
X50254Y-30027D02*
X50254Y-30211D01*
X50254Y-30054D02*
X50267Y-30040D01*
X50293Y-30027D01*
X50332Y-30027D01*
X50359Y-30040D01*
X50372Y-30067D01*
X50372Y-30211D01*
X50621Y-30211D02*
X50621Y-29935D01*
X50621Y-30198D02*
X50595Y-30211D01*
X50542Y-30211D01*
X50516Y-30198D01*
X50503Y-30185D01*
X50490Y-30159D01*
X50490Y-30080D01*
X50503Y-30054D01*
X50516Y-30040D01*
X50542Y-30027D01*
X50595Y-30027D01*
X50621Y-30040D01*
G54D12*
X29206Y-20046D02*
X29274Y-20103D01*
X29387Y-20103D01*
X29506Y-20046D01*
X29595Y-19934D01*
X29647Y-19821D01*
X29712Y-19596D01*
X29734Y-19428D01*
X29724Y-19203D01*
X29701Y-19090D01*
X29640Y-18978D01*
X29534Y-18921D01*
X29459Y-18921D01*
X29340Y-18978D01*
X29295Y-19034D01*
X29246Y-19428D01*
X29396Y-19428D01*
X28972Y-18921D02*
X28824Y-20103D01*
X28522Y-18921D01*
X28374Y-20103D01*
X27807Y-19540D02*
X27702Y-19484D01*
X27671Y-19428D01*
X27648Y-19315D01*
X27669Y-19146D01*
X27721Y-19034D01*
X27765Y-18978D01*
X27847Y-18921D01*
X28147Y-18921D01*
X27999Y-20103D01*
X27737Y-20103D01*
X27669Y-20046D01*
X27639Y-19990D01*
X27615Y-19878D01*
X27629Y-19765D01*
X27681Y-19653D01*
X27725Y-19596D01*
X27807Y-19540D01*
X28070Y-19540D01*
X27247Y-18921D02*
X27315Y-18978D01*
X27346Y-19034D01*
X27369Y-19146D01*
X27327Y-19484D01*
X27275Y-19596D01*
X27231Y-19653D01*
X27149Y-19709D01*
X27036Y-19709D01*
X26968Y-19653D01*
X26938Y-19596D01*
X26914Y-19484D01*
X26957Y-19146D01*
X27008Y-19034D01*
X27053Y-18978D01*
X27135Y-18921D01*
X27247Y-18921D01*
X26310Y-18921D02*
X26232Y-19540D01*
X26256Y-19653D01*
X26324Y-19709D01*
X26474Y-19709D01*
X26556Y-19653D01*
X26303Y-18978D02*
X26385Y-18921D01*
X26572Y-18921D01*
X26640Y-18978D01*
X26664Y-19090D01*
X26650Y-19203D01*
X26598Y-19315D01*
X26516Y-19371D01*
X26329Y-19371D01*
X26247Y-19428D01*
X25935Y-18921D02*
X25836Y-19709D01*
X25865Y-19484D02*
X25813Y-19596D01*
X25768Y-19653D01*
X25686Y-19709D01*
X25611Y-19709D01*
X25110Y-18921D02*
X24962Y-20103D01*
X25103Y-18978D02*
X25185Y-18921D01*
X25335Y-18921D01*
X25403Y-18978D01*
X25433Y-19034D01*
X25457Y-19146D01*
X25415Y-19484D01*
X25363Y-19596D01*
X25319Y-19653D01*
X25236Y-19709D01*
X25087Y-19709D01*
X25019Y-19653D01*
G54D11*
X30504Y-16993D02*
X30295Y-16993D01*
X30400Y-16888D02*
X30400Y-17098D01*
G54D13*
X42957Y-27961D02*
X42900Y-27923D01*
X42814Y-27923D01*
X42728Y-27961D01*
X42671Y-28038D01*
X42642Y-28114D01*
X42614Y-28266D01*
X42614Y-28380D01*
X42642Y-28533D01*
X42671Y-28609D01*
X42728Y-28685D01*
X42814Y-28723D01*
X42871Y-28723D01*
X42957Y-28685D01*
X42985Y-28647D01*
X42985Y-28380D01*
X42871Y-28380D01*
X42914Y-26723D02*
X42628Y-26723D01*
X42600Y-27104D01*
X42628Y-27066D01*
X42685Y-27028D01*
X42828Y-27028D01*
X42885Y-27066D01*
X42914Y-27104D01*
X42942Y-27180D01*
X42942Y-27371D01*
X42914Y-27447D01*
X42885Y-27485D01*
X42828Y-27523D01*
X42685Y-27523D01*
X42628Y-27485D01*
X42600Y-27447D01*
X43142Y-26990D02*
X43285Y-27523D01*
X43428Y-26990D01*
X42928Y-29923D02*
X42928Y-29123D01*
X42928Y-29885D02*
X42871Y-29923D01*
X42757Y-29923D01*
X42700Y-29885D01*
X42671Y-29847D01*
X42642Y-29771D01*
X42642Y-29542D01*
X42671Y-29466D01*
X42700Y-29428D01*
X42757Y-29390D01*
X42871Y-29390D01*
X42928Y-29428D01*
G54D11*
X41603Y-30032D02*
X41734Y-30032D01*
X41576Y-30111D02*
X41668Y-29835D01*
X41760Y-30111D01*
X41891Y-29954D02*
X41865Y-29940D01*
X41852Y-29927D01*
X41839Y-29901D01*
X41839Y-29888D01*
X41852Y-29862D01*
X41865Y-29849D01*
X41891Y-29835D01*
X41944Y-29835D01*
X41970Y-29849D01*
X41983Y-29862D01*
X41996Y-29888D01*
X41996Y-29901D01*
X41983Y-29927D01*
X41970Y-29940D01*
X41944Y-29954D01*
X41891Y-29954D01*
X41865Y-29967D01*
X41852Y-29980D01*
X41839Y-30006D01*
X41839Y-30059D01*
X41852Y-30085D01*
X41865Y-30098D01*
X41891Y-30111D01*
X41944Y-30111D01*
X41970Y-30098D01*
X41983Y-30085D01*
X41996Y-30059D01*
X41996Y-30006D01*
X41983Y-29980D01*
X41970Y-29967D01*
X41944Y-29954D01*
X40603Y-30032D02*
X40734Y-30032D01*
X40576Y-30111D02*
X40668Y-29835D01*
X40760Y-30111D01*
X40826Y-29835D02*
X41009Y-29835D01*
X40891Y-30111D01*
X39603Y-30032D02*
X39734Y-30032D01*
X39576Y-30111D02*
X39668Y-29835D01*
X39760Y-30111D01*
X39970Y-29835D02*
X39918Y-29835D01*
X39891Y-29849D01*
X39878Y-29862D01*
X39852Y-29901D01*
X39839Y-29954D01*
X39839Y-30059D01*
X39852Y-30085D01*
X39865Y-30098D01*
X39891Y-30111D01*
X39944Y-30111D01*
X39970Y-30098D01*
X39983Y-30085D01*
X39996Y-30059D01*
X39996Y-29993D01*
X39983Y-29967D01*
X39970Y-29954D01*
X39944Y-29940D01*
X39891Y-29940D01*
X39865Y-29954D01*
X39852Y-29967D01*
X39839Y-29993D01*
X38603Y-30032D02*
X38734Y-30032D01*
X38576Y-30111D02*
X38668Y-29835D01*
X38760Y-30111D01*
X38983Y-29835D02*
X38852Y-29835D01*
X38839Y-29967D01*
X38852Y-29954D01*
X38878Y-29940D01*
X38944Y-29940D01*
X38970Y-29954D01*
X38983Y-29967D01*
X38996Y-29993D01*
X38996Y-30059D01*
X38983Y-30085D01*
X38970Y-30098D01*
X38944Y-30111D01*
X38878Y-30111D01*
X38852Y-30098D01*
X38839Y-30085D01*
X48852Y-14964D02*
X48983Y-14964D01*
X48996Y-14832D01*
X48983Y-14845D01*
X48957Y-14859D01*
X48891Y-14859D01*
X48865Y-14845D01*
X48852Y-14832D01*
X48839Y-14806D01*
X48839Y-14740D01*
X48852Y-14714D01*
X48865Y-14701D01*
X48891Y-14688D01*
X48957Y-14688D01*
X48983Y-14701D01*
X48996Y-14714D01*
X48760Y-14964D02*
X48668Y-14688D01*
X48576Y-14964D01*
X48009Y-14950D02*
X48036Y-14964D01*
X48075Y-14964D01*
X48114Y-14950D01*
X48141Y-14924D01*
X48154Y-14898D01*
X48167Y-14845D01*
X48167Y-14806D01*
X48154Y-14754D01*
X48141Y-14727D01*
X48114Y-14701D01*
X48075Y-14688D01*
X48049Y-14688D01*
X48009Y-14701D01*
X47996Y-14714D01*
X47996Y-14806D01*
X48049Y-14806D01*
X47878Y-14688D02*
X47878Y-14964D01*
X47721Y-14688D01*
X47721Y-14964D01*
X47590Y-14688D02*
X47590Y-14964D01*
X47524Y-14964D01*
X47485Y-14950D01*
X47458Y-14924D01*
X47445Y-14898D01*
X47432Y-14845D01*
X47432Y-14806D01*
X47445Y-14754D01*
X47458Y-14727D01*
X47485Y-14701D01*
X47524Y-14688D01*
X47590Y-14688D01*
X47128Y-14701D02*
X47088Y-14688D01*
X47023Y-14688D01*
X46996Y-14701D01*
X46983Y-14714D01*
X46970Y-14740D01*
X46970Y-14767D01*
X46983Y-14793D01*
X46996Y-14806D01*
X47023Y-14819D01*
X47075Y-14832D01*
X47101Y-14845D01*
X47114Y-14859D01*
X47128Y-14885D01*
X47128Y-14911D01*
X47114Y-14937D01*
X47101Y-14950D01*
X47075Y-14964D01*
X47009Y-14964D01*
X46970Y-14950D01*
X46695Y-14714D02*
X46708Y-14701D01*
X46747Y-14688D01*
X46773Y-14688D01*
X46813Y-14701D01*
X46839Y-14727D01*
X46852Y-14754D01*
X46865Y-14806D01*
X46865Y-14845D01*
X46852Y-14898D01*
X46839Y-14924D01*
X46813Y-14950D01*
X46773Y-14964D01*
X46747Y-14964D01*
X46708Y-14950D01*
X46695Y-14937D01*
X46445Y-14688D02*
X46576Y-14688D01*
X46576Y-14964D01*
X46134Y-14701D02*
X46095Y-14688D01*
X46029Y-14688D01*
X46003Y-14701D01*
X45990Y-14714D01*
X45977Y-14740D01*
X45977Y-14767D01*
X45990Y-14793D01*
X46003Y-14806D01*
X46029Y-14819D01*
X46082Y-14832D01*
X46108Y-14845D01*
X46121Y-14859D01*
X46134Y-14885D01*
X46134Y-14911D01*
X46121Y-14937D01*
X46108Y-14950D01*
X46082Y-14964D01*
X46016Y-14964D01*
X45977Y-14950D01*
X45859Y-14688D02*
X45859Y-14964D01*
X45793Y-14964D01*
X45754Y-14950D01*
X45727Y-14924D01*
X45714Y-14898D01*
X45701Y-14845D01*
X45701Y-14806D01*
X45714Y-14754D01*
X45727Y-14727D01*
X45754Y-14701D01*
X45793Y-14688D01*
X45859Y-14688D01*
X45596Y-14767D02*
X45465Y-14767D01*
X45622Y-14688D02*
X45530Y-14964D01*
X45439Y-14688D01*
X40652Y-12488D02*
X40809Y-12488D01*
X40731Y-12488D02*
X40731Y-12764D01*
X40757Y-12724D01*
X40783Y-12698D01*
X40809Y-12685D01*
X40560Y-12764D02*
X40376Y-12764D01*
X40495Y-12488D01*
X39652Y-12488D02*
X39809Y-12488D01*
X39731Y-12488D02*
X39731Y-12764D01*
X39757Y-12724D01*
X39783Y-12698D01*
X39809Y-12685D01*
X39416Y-12764D02*
X39468Y-12764D01*
X39495Y-12750D01*
X39508Y-12737D01*
X39534Y-12698D01*
X39547Y-12645D01*
X39547Y-12540D01*
X39534Y-12514D01*
X39521Y-12501D01*
X39495Y-12488D01*
X39442Y-12488D01*
X39416Y-12501D01*
X39403Y-12514D01*
X39390Y-12540D01*
X39390Y-12606D01*
X39403Y-12632D01*
X39416Y-12645D01*
X39442Y-12659D01*
X39495Y-12659D01*
X39521Y-12645D01*
X39534Y-12632D01*
X39547Y-12606D01*
X38652Y-12488D02*
X38809Y-12488D01*
X38731Y-12488D02*
X38731Y-12764D01*
X38757Y-12724D01*
X38783Y-12698D01*
X38809Y-12685D01*
X38403Y-12764D02*
X38534Y-12764D01*
X38547Y-12632D01*
X38534Y-12645D01*
X38508Y-12659D01*
X38442Y-12659D01*
X38416Y-12645D01*
X38403Y-12632D01*
X38390Y-12606D01*
X38390Y-12540D01*
X38403Y-12514D01*
X38416Y-12501D01*
X38442Y-12488D01*
X38508Y-12488D01*
X38534Y-12501D01*
X38547Y-12514D01*
X37652Y-12488D02*
X37809Y-12488D01*
X37731Y-12488D02*
X37731Y-12764D01*
X37757Y-12724D01*
X37783Y-12698D01*
X37809Y-12685D01*
X37416Y-12672D02*
X37416Y-12488D01*
X37481Y-12777D02*
X37547Y-12580D01*
X37376Y-12580D01*
X36678Y-12737D02*
X36665Y-12750D01*
X36639Y-12764D01*
X36573Y-12764D01*
X36547Y-12750D01*
X36534Y-12737D01*
X36521Y-12711D01*
X36521Y-12685D01*
X36534Y-12645D01*
X36691Y-12488D01*
X36521Y-12488D01*
X35691Y-12764D02*
X35521Y-12764D01*
X35613Y-12659D01*
X35573Y-12659D01*
X35547Y-12645D01*
X35534Y-12632D01*
X35521Y-12606D01*
X35521Y-12540D01*
X35534Y-12514D01*
X35547Y-12501D01*
X35573Y-12488D01*
X35652Y-12488D01*
X35678Y-12501D01*
X35691Y-12514D01*
X34547Y-12672D02*
X34547Y-12488D01*
X34613Y-12777D02*
X34678Y-12580D01*
X34508Y-12580D01*
X33534Y-12764D02*
X33665Y-12764D01*
X33678Y-12632D01*
X33665Y-12645D01*
X33639Y-12659D01*
X33573Y-12659D01*
X33547Y-12645D01*
X33534Y-12632D01*
X33521Y-12606D01*
X33521Y-12540D01*
X33534Y-12514D01*
X33547Y-12501D01*
X33573Y-12488D01*
X33639Y-12488D01*
X33665Y-12501D01*
X33678Y-12514D01*
X32547Y-12764D02*
X32600Y-12764D01*
X32626Y-12750D01*
X32639Y-12737D01*
X32665Y-12698D01*
X32678Y-12645D01*
X32678Y-12540D01*
X32665Y-12514D01*
X32652Y-12501D01*
X32626Y-12488D01*
X32573Y-12488D01*
X32547Y-12501D01*
X32534Y-12514D01*
X32521Y-12540D01*
X32521Y-12606D01*
X32534Y-12632D01*
X32547Y-12645D01*
X32573Y-12659D01*
X32626Y-12659D01*
X32652Y-12645D01*
X32665Y-12632D01*
X32678Y-12606D01*
X31691Y-12764D02*
X31508Y-12764D01*
X31626Y-12488D01*
G54D14*
X31000Y-16400D02*
X31000Y-16000D01*
X37000Y-16400D02*
X37000Y-16000D01*
G54D13*
X34071Y-16476D02*
X34071Y-17276D01*
X33842Y-17276D01*
X33785Y-17238D01*
X33757Y-17200D01*
X33728Y-17123D01*
X33728Y-17009D01*
X33757Y-16933D01*
X33785Y-16895D01*
X33842Y-16857D01*
X34071Y-16857D01*
X33528Y-17009D02*
X33414Y-16476D01*
X33299Y-16857D01*
X33185Y-16476D01*
X33071Y-17009D01*
X32842Y-16476D02*
X32842Y-17009D01*
X32842Y-16933D02*
X32814Y-16971D01*
X32757Y-17009D01*
X32671Y-17009D01*
X32614Y-16971D01*
X32585Y-16895D01*
X32585Y-16476D01*
X32585Y-16895D02*
X32557Y-16971D01*
X32500Y-17009D01*
X32414Y-17009D01*
X32357Y-16971D01*
X32328Y-16895D01*
X32328Y-16476D01*
G54D14*
X31000Y-16200D02*
X37000Y-16200D01*
G54D13*
X30442Y-16038D02*
X30500Y-16076D01*
X30585Y-16076D01*
X30671Y-16038D01*
X30728Y-15961D01*
X30757Y-15885D01*
X30785Y-15733D01*
X30785Y-15619D01*
X30757Y-15466D01*
X30728Y-15390D01*
X30671Y-15314D01*
X30585Y-15276D01*
X30528Y-15276D01*
X30442Y-15314D01*
X30414Y-15352D01*
X30414Y-15619D01*
X30528Y-15619D01*
X30485Y-14876D02*
X30771Y-14876D01*
X30800Y-14495D01*
X30771Y-14533D01*
X30714Y-14571D01*
X30571Y-14571D01*
X30514Y-14533D01*
X30485Y-14495D01*
X30457Y-14419D01*
X30457Y-14228D01*
X30485Y-14152D01*
X30514Y-14114D01*
X30571Y-14076D01*
X30714Y-14076D01*
X30771Y-14114D01*
X30800Y-14152D01*
X30257Y-14609D02*
X30114Y-14076D01*
X29971Y-14609D01*
X30471Y-12876D02*
X30471Y-13676D01*
X30471Y-12914D02*
X30528Y-12876D01*
X30642Y-12876D01*
X30699Y-12914D01*
X30728Y-12952D01*
X30757Y-13028D01*
X30757Y-13257D01*
X30728Y-13333D01*
X30699Y-13371D01*
X30642Y-13409D01*
X30528Y-13409D01*
X30471Y-13371D01*
G54D14*
X20407Y-31742D02*
X20207Y-31457D01*
X20064Y-31742D02*
X20064Y-31142D01*
X20292Y-31142D01*
X20350Y-31171D01*
X20378Y-31200D01*
X20407Y-31257D01*
X20407Y-31342D01*
X20378Y-31400D01*
X20350Y-31428D01*
X20292Y-31457D01*
X20064Y-31457D01*
X20892Y-31714D02*
X20835Y-31742D01*
X20721Y-31742D01*
X20664Y-31714D01*
X20635Y-31657D01*
X20635Y-31428D01*
X20664Y-31371D01*
X20721Y-31342D01*
X20835Y-31342D01*
X20892Y-31371D01*
X20921Y-31428D01*
X20921Y-31485D01*
X20635Y-31542D01*
X21150Y-31714D02*
X21207Y-31742D01*
X21321Y-31742D01*
X21378Y-31714D01*
X21407Y-31657D01*
X21407Y-31628D01*
X21378Y-31571D01*
X21321Y-31542D01*
X21235Y-31542D01*
X21178Y-31514D01*
X21150Y-31457D01*
X21150Y-31428D01*
X21178Y-31371D01*
X21235Y-31342D01*
X21321Y-31342D01*
X21378Y-31371D01*
X21892Y-31714D02*
X21835Y-31742D01*
X21721Y-31742D01*
X21664Y-31714D01*
X21635Y-31657D01*
X21635Y-31428D01*
X21664Y-31371D01*
X21721Y-31342D01*
X21835Y-31342D01*
X21892Y-31371D01*
X21921Y-31428D01*
X21921Y-31485D01*
X21635Y-31542D01*
X22092Y-31342D02*
X22321Y-31342D01*
X22178Y-31142D02*
X22178Y-31657D01*
X22207Y-31714D01*
X22264Y-31742D01*
X22321Y-31742D01*
X21657Y-13707D02*
X22257Y-13707D01*
X22257Y-13935D01*
X22228Y-13992D01*
X22200Y-14021D01*
X22142Y-14050D01*
X22057Y-14050D01*
X22000Y-14021D01*
X21971Y-13992D01*
X21942Y-13935D01*
X21942Y-13707D01*
X21657Y-14621D02*
X21657Y-14278D01*
X21657Y-14450D02*
X22257Y-14450D01*
X22171Y-14392D01*
X22114Y-14335D01*
X22085Y-14278D01*
X20035Y-19914D02*
X20035Y-20371D01*
X20035Y-22028D02*
X20035Y-22485D01*
X19807Y-22257D02*
X20264Y-22257D01*
X22557Y-25407D02*
X22557Y-25521D01*
X22528Y-25578D01*
X22471Y-25635D01*
X22357Y-25664D01*
X22157Y-25664D01*
X22042Y-25635D01*
X21985Y-25578D01*
X21957Y-25521D01*
X21957Y-25407D01*
X21985Y-25350D01*
X22042Y-25292D01*
X22157Y-25264D01*
X22357Y-25264D01*
X22471Y-25292D01*
X22528Y-25350D01*
X22557Y-25407D01*
X22357Y-25835D02*
X22357Y-26064D01*
X21957Y-25921D02*
X22471Y-25921D01*
X22528Y-25950D01*
X22557Y-26007D01*
X22557Y-26064D01*
X22357Y-26178D02*
X22357Y-26407D01*
X21957Y-26264D02*
X22471Y-26264D01*
X22528Y-26292D01*
X22557Y-26349D01*
X22557Y-26407D01*
X21567Y-25407D02*
X21567Y-25521D01*
X21538Y-25578D01*
X21481Y-25635D01*
X21367Y-25664D01*
X21167Y-25664D01*
X21052Y-25635D01*
X20995Y-25578D01*
X20967Y-25521D01*
X20967Y-25407D01*
X20995Y-25350D01*
X21052Y-25292D01*
X21167Y-25264D01*
X21367Y-25264D01*
X21481Y-25292D01*
X21538Y-25350D01*
X21567Y-25407D01*
X21367Y-25921D02*
X20967Y-25921D01*
X21310Y-25921D02*
X21338Y-25950D01*
X21367Y-26007D01*
X21367Y-26092D01*
X21338Y-26150D01*
X21281Y-26178D01*
X20967Y-26178D01*
X37600Y-21200D02*
X42000Y-21200D01*
X37600Y-21200D02*
X33200Y-21200D01*
X37600Y-21200D02*
X37600Y-25600D01*
X37600Y-21200D02*
X37600Y-16800D01*
X41986Y-21200D02*
G75*
G03X41986Y-21200I-4386J0D01*
G74*
G01*
X40724Y-21200D02*
G75*
G03X40724Y-21200I-3124J0D01*
G74*
G01*
G54D15*
X25350Y-25000D02*
X25850Y-25000D01*
X27850Y-25000D02*
X28350Y-25000D01*
X27550Y-24500D02*
X27550Y-25500D01*
X27850Y-24500D02*
X25850Y-24500D01*
X25850Y-24500D02*
X25850Y-25500D01*
X25850Y-25500D02*
X27850Y-25500D01*
X27850Y-25500D02*
X27850Y-24500D01*
G54D13*
X22950Y-19250D02*
X22950Y-23250D01*
X23450Y-19250D02*
X20450Y-19250D01*
X20450Y-19250D02*
X20450Y-23250D01*
X20450Y-23250D02*
X23450Y-23250D01*
X23450Y-23250D02*
X23450Y-19250D01*
X30400Y-23850D02*
X30600Y-23850D01*
X33400Y-23850D02*
X33200Y-23850D01*
X33200Y-23850D02*
X33200Y-23450D01*
X33200Y-23450D02*
X30600Y-23450D01*
X30600Y-23450D02*
X30600Y-24250D01*
X30600Y-24250D02*
X33200Y-24250D01*
X33200Y-24250D02*
X33200Y-23850D01*
X30600Y-23650D02*
X30800Y-23450D01*
X29300Y-13000D02*
X29100Y-13000D01*
X26300Y-13000D02*
X26500Y-13000D01*
X26500Y-13000D02*
X26500Y-13400D01*
X26500Y-13400D02*
X29100Y-13400D01*
X29100Y-13400D02*
X29100Y-12600D01*
X29100Y-12600D02*
X26500Y-12600D01*
X26500Y-12600D02*
X26500Y-13000D01*
X29100Y-13200D02*
X28900Y-13400D01*
X29300Y-14050D02*
X29100Y-14050D01*
X26300Y-14050D02*
X26500Y-14050D01*
X26500Y-14050D02*
X26500Y-14450D01*
X26500Y-14450D02*
X29100Y-14450D01*
X29100Y-14450D02*
X29100Y-13650D01*
X29100Y-13650D02*
X26500Y-13650D01*
X26500Y-13650D02*
X26500Y-14050D01*
X29100Y-14250D02*
X28900Y-14450D01*
X29300Y-15100D02*
X29100Y-15100D01*
X26300Y-15100D02*
X26500Y-15100D01*
X26500Y-15100D02*
X26500Y-15500D01*
X26500Y-15500D02*
X29100Y-15500D01*
X29100Y-15500D02*
X29100Y-14700D01*
X29100Y-14700D02*
X26500Y-14700D01*
X26500Y-14700D02*
X26500Y-15100D01*
X29100Y-15300D02*
X28900Y-15500D01*
X33500Y-26950D02*
X33500Y-27150D01*
X33500Y-29950D02*
X33500Y-29750D01*
X33500Y-29750D02*
X33900Y-29750D01*
X33900Y-29750D02*
X33900Y-27150D01*
X33900Y-27150D02*
X33100Y-27150D01*
X33100Y-27150D02*
X33100Y-29750D01*
X33100Y-29750D02*
X33500Y-29750D01*
X33700Y-27150D02*
X33900Y-27350D01*
X34750Y-29300D02*
X34750Y-29100D01*
X34750Y-26300D02*
X34750Y-26500D01*
X34750Y-26500D02*
X34350Y-26500D01*
X34350Y-26500D02*
X34350Y-29100D01*
X34350Y-29100D02*
X35150Y-29100D01*
X35150Y-29100D02*
X35150Y-26500D01*
X35150Y-26500D02*
X34750Y-26500D01*
X34550Y-29100D02*
X34350Y-28900D01*
X37800Y-29300D02*
X37800Y-29100D01*
X37800Y-26300D02*
X37800Y-26500D01*
X37800Y-26500D02*
X37400Y-26500D01*
X37400Y-26500D02*
X37400Y-29100D01*
X37400Y-29100D02*
X38200Y-29100D01*
X38200Y-29100D02*
X38200Y-26500D01*
X38200Y-26500D02*
X37800Y-26500D01*
X37600Y-29100D02*
X37400Y-28900D01*
X41500Y-17600D02*
X41700Y-17600D01*
X44500Y-17600D02*
X44300Y-17600D01*
X44300Y-17600D02*
X44300Y-17200D01*
X44300Y-17200D02*
X41700Y-17200D01*
X41700Y-17200D02*
X41700Y-18000D01*
X41700Y-18000D02*
X44300Y-18000D01*
X44300Y-18000D02*
X44300Y-17600D01*
X41700Y-17400D02*
X41900Y-17200D01*
X35800Y-29300D02*
X35800Y-29100D01*
X35800Y-26300D02*
X35800Y-26500D01*
X35800Y-26500D02*
X35400Y-26500D01*
X35400Y-26500D02*
X35400Y-29100D01*
X35400Y-29100D02*
X36200Y-29100D01*
X36200Y-29100D02*
X36200Y-26500D01*
X36200Y-26500D02*
X35800Y-26500D01*
X35600Y-29100D02*
X35400Y-28900D01*
G54D16*
X39400Y-29700D02*
X38400Y-29700D01*
X38400Y-29700D02*
X38400Y-26700D01*
X38400Y-26700D02*
X39400Y-26700D01*
X39400Y-26700D02*
X39400Y-29700D01*
X38400Y-28700D02*
X39400Y-28700D01*
X40400Y-29700D02*
X39400Y-29700D01*
X39400Y-29700D02*
X39400Y-26700D01*
X39400Y-26700D02*
X40400Y-26700D01*
X40400Y-26700D02*
X40400Y-29700D01*
X39400Y-28700D02*
X40400Y-28700D01*
X30200Y-16100D02*
X30200Y-17100D01*
X30200Y-17100D02*
X28200Y-17100D01*
X28200Y-17100D02*
X28200Y-16100D01*
X28200Y-16100D02*
X30200Y-16100D01*
X31050Y-12950D02*
X32050Y-12950D01*
X32050Y-12950D02*
X32050Y-15950D01*
X32050Y-15950D02*
X31050Y-15950D01*
X31050Y-15950D02*
X31050Y-12950D01*
X32050Y-13950D02*
X31050Y-13950D01*
X32050Y-12950D02*
X33050Y-12950D01*
X33050Y-12950D02*
X33050Y-15950D01*
X33050Y-15950D02*
X32050Y-15950D01*
X32050Y-15950D02*
X32050Y-12950D01*
X33050Y-13950D02*
X32050Y-13950D01*
X33050Y-12950D02*
X34050Y-12950D01*
X34050Y-12950D02*
X34050Y-15950D01*
X34050Y-15950D02*
X33050Y-15950D01*
X33050Y-15950D02*
X33050Y-12950D01*
X34050Y-13950D02*
X33050Y-13950D01*
X34050Y-12950D02*
X35050Y-12950D01*
X35050Y-12950D02*
X35050Y-15950D01*
X35050Y-15950D02*
X34050Y-15950D01*
X34050Y-15950D02*
X34050Y-12950D01*
X35050Y-13950D02*
X34050Y-13950D01*
X35050Y-12950D02*
X36050Y-12950D01*
X36050Y-12950D02*
X36050Y-15950D01*
X36050Y-15950D02*
X35050Y-15950D01*
X35050Y-15950D02*
X35050Y-12950D01*
X36050Y-13950D02*
X35050Y-13950D01*
X36050Y-12950D02*
X37050Y-12950D01*
X37050Y-12950D02*
X37050Y-15950D01*
X37050Y-15950D02*
X36050Y-15950D01*
X36050Y-15950D02*
X36050Y-12950D01*
X37050Y-13950D02*
X36050Y-13950D01*
X41400Y-29700D02*
X40400Y-29700D01*
X40400Y-29700D02*
X40400Y-26700D01*
X40400Y-26700D02*
X41400Y-26700D01*
X41400Y-26700D02*
X41400Y-29700D01*
X40400Y-28700D02*
X41400Y-28700D01*
X42400Y-29700D02*
X41400Y-29700D01*
X41400Y-29700D02*
X41400Y-26700D01*
X41400Y-26700D02*
X42400Y-26700D01*
X42400Y-26700D02*
X42400Y-29700D01*
X41400Y-28700D02*
X42400Y-28700D01*
G54D17*
X45300Y-13550D02*
X49300Y-13550D01*
X45300Y-14550D02*
X49300Y-14550D01*
X49300Y-14550D02*
X49300Y-13550D01*
X45300Y-13550D02*
X45300Y-14550D01*
G54D13*
X49950Y-14450D02*
X49950Y-14250D01*
X49950Y-11450D02*
X49950Y-11650D01*
X49950Y-11650D02*
X49550Y-11650D01*
X49550Y-11650D02*
X49550Y-14250D01*
X49550Y-14250D02*
X50350Y-14250D01*
X50350Y-14250D02*
X50350Y-11650D01*
X50350Y-11650D02*
X49950Y-11650D01*
X49750Y-14250D02*
X49550Y-14050D01*
X48800Y-12950D02*
X48600Y-12950D01*
X45800Y-12950D02*
X46000Y-12950D01*
X46000Y-12950D02*
X46000Y-13350D01*
X46000Y-13350D02*
X48600Y-13350D01*
X48600Y-13350D02*
X48600Y-12550D01*
X48600Y-12550D02*
X46000Y-12550D01*
X46000Y-12550D02*
X46000Y-12950D01*
X48600Y-13150D02*
X48400Y-13350D01*
G54D17*
X50800Y-29800D02*
X46800Y-29800D01*
X50800Y-28800D02*
X46800Y-28800D01*
X46800Y-28800D02*
X46800Y-29800D01*
X50800Y-29800D02*
X50800Y-28800D01*
G54D13*
X45100Y-25500D02*
X45300Y-25500D01*
X48100Y-25500D02*
X47900Y-25500D01*
X47900Y-25500D02*
X47900Y-25100D01*
X47900Y-25100D02*
X45300Y-25100D01*
X45300Y-25100D02*
X45300Y-25900D01*
X45300Y-25900D02*
X47900Y-25900D01*
X47900Y-25900D02*
X47900Y-25500D01*
X45300Y-25300D02*
X45500Y-25100D01*
G54D16*
X37050Y-12950D02*
X38050Y-12950D01*
X38050Y-12950D02*
X38050Y-15950D01*
X38050Y-15950D02*
X37050Y-15950D01*
X37050Y-15950D02*
X37050Y-12950D01*
X38050Y-13950D02*
X37050Y-13950D01*
X38050Y-12950D02*
X39050Y-12950D01*
X39050Y-12950D02*
X39050Y-15950D01*
X39050Y-15950D02*
X38050Y-15950D01*
X38050Y-15950D02*
X38050Y-12950D01*
X39050Y-13950D02*
X38050Y-13950D01*
X39050Y-12950D02*
X40050Y-12950D01*
X40050Y-12950D02*
X40050Y-15950D01*
X40050Y-15950D02*
X39050Y-15950D01*
X39050Y-15950D02*
X39050Y-12950D01*
X40050Y-13950D02*
X39050Y-13950D01*
X40050Y-12950D02*
X41050Y-12950D01*
X41050Y-12950D02*
X41050Y-15950D01*
X41050Y-15950D02*
X40050Y-15950D01*
X40050Y-15950D02*
X40050Y-12950D01*
X41050Y-13950D02*
X40050Y-13950D01*
G54D18*
X50950Y-26300D02*
G75*
G03X50950Y-26300I-1250J0D01*
G74*
G01*
G54D15*
X30200Y-22600D02*
G75*
G03X30200Y-22600I-1600J0D01*
G74*
G01*
G54D18*
X22300Y-28850D02*
G75*
G03X22300Y-28850I-1000J0D01*
G74*
G01*
X19800Y-30350D02*
X19800Y-27350D01*
X19800Y-27350D02*
X22800Y-27350D01*
X22800Y-27350D02*
X22800Y-30350D01*
X19800Y-30350D02*
X22800Y-30350D01*
X22950Y-16550D02*
G75*
G03X22950Y-16550I-1000J0D01*
G74*
G01*
X20450Y-18050D02*
X20450Y-15050D01*
X20450Y-15050D02*
X23450Y-15050D01*
X23450Y-15050D02*
X23450Y-18050D01*
X20450Y-18050D02*
X23450Y-18050D01*
G54D15*
X26900Y-22600D02*
G75*
G03X26900Y-22600I-1600J0D01*
G74*
G01*
G54D14*
X23474Y-24156D02*
X20325Y-24156D01*
X23474Y-24156D02*
X23474Y-24943D01*
X23474Y-24943D02*
X20325Y-24943D01*
X20325Y-24943D02*
X20325Y-24156D01*
X25650Y-14750D02*
G75*
G03X25650Y-14750I-1000J0D01*
G74*
G01*
X32450Y-24550D02*
X32450Y-27250D01*
X32450Y-30850D02*
X32450Y-28450D01*
X29300Y-28450D02*
X29300Y-30850D01*
X29300Y-24550D02*
X29300Y-27250D01*
X32450Y-24550D02*
X29300Y-24550D01*
X29300Y-30850D02*
X32450Y-30850D01*
G54D18*
X43750Y-13800D02*
G75*
G03X43750Y-13800I-1250J0D01*
G74*
G01*
G54D13*
X50550Y-41050D02*
X50550Y-40850D01*
X50550Y-38050D02*
X50550Y-38250D01*
X50550Y-38250D02*
X50150Y-38250D01*
X50150Y-38250D02*
X50150Y-40850D01*
X50150Y-40850D02*
X50950Y-40850D01*
X50950Y-40850D02*
X50950Y-38250D01*
X50950Y-38250D02*
X50550Y-38250D01*
X50350Y-40850D02*
X50150Y-40650D01*
G54D16*
X48050Y-37050D02*
X48050Y-36050D01*
X48050Y-36050D02*
X51050Y-36050D01*
X51050Y-36050D02*
X51050Y-37050D01*
X51050Y-37050D02*
X48050Y-37050D01*
X49050Y-36050D02*
X49050Y-37050D01*
G54D13*
X48800Y-18150D02*
X48600Y-18150D01*
X45800Y-18150D02*
X46000Y-18150D01*
X46000Y-18150D02*
X46000Y-18550D01*
X46000Y-18550D02*
X48600Y-18550D01*
X48600Y-18550D02*
X48600Y-17750D01*
X48600Y-17750D02*
X46000Y-17750D01*
X46000Y-17750D02*
X46000Y-18150D01*
X48600Y-18350D02*
X48400Y-18550D01*
X48800Y-19200D02*
X48600Y-19200D01*
X45800Y-19200D02*
X46000Y-19200D01*
X46000Y-19200D02*
X46000Y-19600D01*
X46000Y-19600D02*
X48600Y-19600D01*
X48600Y-19600D02*
X48600Y-18800D01*
X48600Y-18800D02*
X46000Y-18800D01*
X46000Y-18800D02*
X46000Y-19200D01*
X48600Y-19400D02*
X48400Y-19600D01*
X45800Y-17100D02*
X46000Y-17100D01*
X48800Y-17100D02*
X48600Y-17100D01*
X48600Y-17100D02*
X48600Y-16700D01*
X48600Y-16700D02*
X46000Y-16700D01*
X46000Y-16700D02*
X46000Y-17500D01*
X46000Y-17500D02*
X48600Y-17500D01*
X48600Y-17500D02*
X48600Y-17100D01*
X46000Y-16900D02*
X46200Y-16700D01*
X47300Y-28200D02*
X47500Y-28200D01*
X50300Y-28200D02*
X50100Y-28200D01*
X50100Y-28200D02*
X50100Y-27800D01*
X50100Y-27800D02*
X47500Y-27800D01*
X47500Y-27800D02*
X47500Y-28600D01*
X47500Y-28600D02*
X50100Y-28600D01*
X50100Y-28600D02*
X50100Y-28200D01*
X47500Y-28000D02*
X47700Y-27800D01*
X27400Y-16600D02*
X27200Y-16600D01*
X24400Y-16600D02*
X24600Y-16600D01*
X24600Y-16600D02*
X24600Y-17000D01*
X24600Y-17000D02*
X27200Y-17000D01*
X27200Y-17000D02*
X27200Y-16200D01*
X27200Y-16200D02*
X24600Y-16200D01*
X24600Y-16200D02*
X24600Y-16600D01*
X27200Y-16800D02*
X27000Y-17000D01*
G54D19*
X28450Y-29500D02*
X24950Y-29500D01*
X24950Y-29500D02*
X24950Y-30050D01*
X28450Y-30050D02*
X24950Y-30050D01*
X28450Y-29500D02*
X28450Y-30050D01*
X25550Y-27150D02*
X25150Y-27150D01*
X25150Y-27150D02*
X25150Y-28150D01*
X25550Y-28150D02*
X25150Y-28150D01*
X25550Y-27150D02*
X25550Y-28150D01*
X25550Y-26700D02*
X25150Y-26700D01*
X25150Y-26700D02*
X25150Y-27150D01*
X25550Y-27150D02*
X25150Y-27150D01*
X25550Y-26700D02*
X25550Y-27150D01*
X26900Y-26700D02*
X26500Y-26700D01*
X26500Y-26700D02*
X26500Y-27150D01*
X26900Y-27150D02*
X26500Y-27150D01*
X26900Y-26700D02*
X26900Y-27150D01*
X28250Y-26700D02*
X27850Y-26700D01*
X27850Y-26700D02*
X27850Y-27150D01*
X28250Y-27150D02*
X27850Y-27150D01*
X28250Y-26700D02*
X28250Y-27150D01*
X26900Y-27150D02*
X26500Y-27150D01*
X26500Y-27150D02*
X26500Y-28150D01*
X26900Y-28150D02*
X26500Y-28150D01*
X26900Y-27150D02*
X26900Y-28150D01*
X28250Y-27150D02*
X27850Y-27150D01*
X27850Y-27150D02*
X27850Y-28150D01*
X28250Y-28150D02*
X27850Y-28150D01*
X28250Y-27150D02*
X28250Y-28150D01*
G54D20*
X24650Y-30050D02*
X28750Y-30050D01*
X24650Y-30050D02*
X24650Y-29500D01*
X28750Y-30050D02*
X28750Y-29500D01*
X24700Y-28900D02*
X28700Y-28900D01*
X28750Y-29500D02*
X24650Y-29500D01*
X28750Y-29500D02*
X28650Y-28150D01*
X24650Y-29500D02*
X24750Y-28150D01*
X26450Y-28150D02*
X26950Y-28150D01*
X24750Y-28150D02*
X25550Y-28150D01*
G54D16*
X25550Y-28150D02*
X26450Y-28150D01*
G54D20*
X28650Y-28150D02*
X27850Y-28150D01*
G54D16*
X27850Y-28150D02*
X26950Y-28150D01*
G54D20*
X49750Y-15246D02*
X50695Y-16191D01*
X50695Y-16191D02*
X50695Y-23908D01*
X50695Y-23908D02*
X49750Y-24853D01*
X41764Y-15250D02*
X41764Y-24850D01*
X41764Y-24850D02*
X49750Y-24850D01*
X49750Y-15250D02*
X41764Y-15250D01*
G54D18*
X41764Y-15250D02*
X41764Y-24850D01*
X41764Y-24850D02*
X49750Y-24850D01*
X49750Y-15250D02*
X41764Y-15250D01*
G54D16*
X33939Y-23446D02*
X34646Y-22739D01*
X34646Y-22739D02*
X36060Y-24153D01*
X36060Y-24153D02*
X35353Y-24860D01*
X35353Y-24860D02*
X33939Y-23446D01*
X39846Y-24860D02*
X39139Y-24153D01*
X39139Y-24153D02*
X40553Y-22739D01*
X40553Y-22739D02*
X41260Y-23446D01*
X41260Y-23446D02*
X39846Y-24860D01*
X39139Y-18246D02*
X39846Y-17539D01*
X39846Y-17539D02*
X41260Y-18953D01*
X41260Y-18953D02*
X40553Y-19660D01*
X40553Y-19660D02*
X39139Y-18246D01*
X35353Y-17539D02*
X36060Y-18246D01*
X36060Y-18246D02*
X34646Y-19660D01*
X34646Y-19660D02*
X33939Y-18953D01*
X33939Y-18953D02*
X35353Y-17539D01*
G54D14*
X38500Y-21200D02*
G75*
G03X38500Y-21200I-900J0D01*
G74*
G01*
G54D18*
X33000Y-18400D02*
G75*
G03X33000Y-18400I-1250J0D01*
G74*
G01*
G54D17*
X26554Y-25161D02*
X26554Y-24761D01*
X26650Y-24761D01*
X26707Y-24780D01*
X26745Y-24819D01*
X26764Y-24857D01*
X26783Y-24933D01*
X26783Y-24990D01*
X26764Y-25066D01*
X26745Y-25104D01*
X26707Y-25142D01*
X26650Y-25161D01*
X26554Y-25161D01*
X27164Y-25161D02*
X26935Y-25161D01*
X27050Y-25161D02*
X27050Y-24761D01*
X27011Y-24819D01*
X26973Y-24857D01*
X26935Y-24876D01*
G54D14*
X24242Y-20807D02*
X23642Y-20807D01*
X23642Y-20578D01*
X23671Y-20521D01*
X23700Y-20492D01*
X23757Y-20464D01*
X23842Y-20464D01*
X23900Y-20492D01*
X23928Y-20521D01*
X23957Y-20578D01*
X23957Y-20807D01*
X23842Y-20264D02*
X24242Y-20150D01*
X23957Y-20035D01*
X24242Y-19921D01*
X23842Y-19807D01*
X24242Y-19578D02*
X23842Y-19578D01*
X23957Y-19578D02*
X23900Y-19550D01*
X23871Y-19521D01*
X23842Y-19464D01*
X23842Y-19407D01*
G54D15*
X31816Y-24072D02*
X31650Y-23810D01*
X31530Y-24072D02*
X31530Y-23522D01*
X31721Y-23522D01*
X31769Y-23548D01*
X31792Y-23575D01*
X31816Y-23627D01*
X31816Y-23705D01*
X31792Y-23758D01*
X31769Y-23784D01*
X31721Y-23810D01*
X31530Y-23810D01*
X32292Y-24072D02*
X32007Y-24072D01*
X32150Y-24072D02*
X32150Y-23522D01*
X32102Y-23601D01*
X32054Y-23653D01*
X32007Y-23679D01*
X27716Y-13222D02*
X27550Y-12960D01*
X27430Y-13222D02*
X27430Y-12672D01*
X27621Y-12672D01*
X27669Y-12698D01*
X27692Y-12725D01*
X27716Y-12777D01*
X27716Y-12855D01*
X27692Y-12908D01*
X27669Y-12934D01*
X27621Y-12960D01*
X27430Y-12960D01*
X27907Y-12725D02*
X27930Y-12698D01*
X27978Y-12672D01*
X28097Y-12672D01*
X28145Y-12698D01*
X28169Y-12725D01*
X28192Y-12777D01*
X28192Y-12829D01*
X28169Y-12908D01*
X27883Y-13222D01*
X28192Y-13222D01*
X27716Y-14272D02*
X27550Y-14010D01*
X27430Y-14272D02*
X27430Y-13722D01*
X27621Y-13722D01*
X27669Y-13748D01*
X27692Y-13775D01*
X27716Y-13827D01*
X27716Y-13905D01*
X27692Y-13958D01*
X27669Y-13984D01*
X27621Y-14010D01*
X27430Y-14010D01*
X27883Y-13722D02*
X28192Y-13722D01*
X28026Y-13932D01*
X28097Y-13932D01*
X28145Y-13958D01*
X28169Y-13984D01*
X28192Y-14036D01*
X28192Y-14167D01*
X28169Y-14220D01*
X28145Y-14246D01*
X28097Y-14272D01*
X27954Y-14272D01*
X27907Y-14246D01*
X27883Y-14220D01*
X27716Y-15322D02*
X27550Y-15060D01*
X27430Y-15322D02*
X27430Y-14772D01*
X27621Y-14772D01*
X27669Y-14798D01*
X27692Y-14825D01*
X27716Y-14877D01*
X27716Y-14955D01*
X27692Y-15008D01*
X27669Y-15034D01*
X27621Y-15060D01*
X27430Y-15060D01*
X28145Y-14955D02*
X28145Y-15322D01*
X28026Y-14746D02*
X27907Y-15139D01*
X28216Y-15139D01*
X33722Y-28533D02*
X33460Y-28700D01*
X33722Y-28819D02*
X33172Y-28819D01*
X33172Y-28628D01*
X33198Y-28580D01*
X33225Y-28557D01*
X33277Y-28533D01*
X33355Y-28533D01*
X33408Y-28557D01*
X33434Y-28580D01*
X33460Y-28628D01*
X33460Y-28819D01*
X33172Y-28080D02*
X33172Y-28319D01*
X33434Y-28342D01*
X33408Y-28319D01*
X33382Y-28271D01*
X33382Y-28152D01*
X33408Y-28104D01*
X33434Y-28080D01*
X33486Y-28057D01*
X33617Y-28057D01*
X33670Y-28080D01*
X33696Y-28104D01*
X33722Y-28152D01*
X33722Y-28271D01*
X33696Y-28319D01*
X33670Y-28342D01*
X34972Y-27883D02*
X34710Y-28050D01*
X34972Y-28169D02*
X34422Y-28169D01*
X34422Y-27978D01*
X34448Y-27930D01*
X34475Y-27907D01*
X34527Y-27883D01*
X34605Y-27883D01*
X34658Y-27907D01*
X34684Y-27930D01*
X34710Y-27978D01*
X34710Y-28169D01*
X34422Y-27454D02*
X34422Y-27550D01*
X34448Y-27597D01*
X34475Y-27621D01*
X34553Y-27669D01*
X34658Y-27692D01*
X34867Y-27692D01*
X34920Y-27669D01*
X34946Y-27645D01*
X34972Y-27597D01*
X34972Y-27502D01*
X34946Y-27454D01*
X34920Y-27430D01*
X34867Y-27407D01*
X34736Y-27407D01*
X34684Y-27430D01*
X34658Y-27454D01*
X34632Y-27502D01*
X34632Y-27597D01*
X34658Y-27645D01*
X34684Y-27669D01*
X34736Y-27692D01*
X38022Y-27883D02*
X37760Y-28050D01*
X38022Y-28169D02*
X37472Y-28169D01*
X37472Y-27978D01*
X37498Y-27930D01*
X37525Y-27907D01*
X37577Y-27883D01*
X37655Y-27883D01*
X37708Y-27907D01*
X37734Y-27930D01*
X37760Y-27978D01*
X37760Y-28169D01*
X37472Y-27716D02*
X37472Y-27383D01*
X38022Y-27597D01*
X42916Y-17822D02*
X42750Y-17560D01*
X42630Y-17822D02*
X42630Y-17272D01*
X42821Y-17272D01*
X42869Y-17298D01*
X42892Y-17325D01*
X42916Y-17377D01*
X42916Y-17455D01*
X42892Y-17508D01*
X42869Y-17534D01*
X42821Y-17560D01*
X42630Y-17560D01*
X43202Y-17508D02*
X43154Y-17482D01*
X43130Y-17455D01*
X43107Y-17403D01*
X43107Y-17377D01*
X43130Y-17325D01*
X43154Y-17298D01*
X43202Y-17272D01*
X43297Y-17272D01*
X43345Y-17298D01*
X43369Y-17325D01*
X43392Y-17377D01*
X43392Y-17403D01*
X43369Y-17455D01*
X43345Y-17482D01*
X43297Y-17508D01*
X43202Y-17508D01*
X43154Y-17534D01*
X43130Y-17560D01*
X43107Y-17613D01*
X43107Y-17717D01*
X43130Y-17770D01*
X43154Y-17796D01*
X43202Y-17822D01*
X43297Y-17822D01*
X43345Y-17796D01*
X43369Y-17770D01*
X43392Y-17717D01*
X43392Y-17613D01*
X43369Y-17560D01*
X43345Y-17534D01*
X43297Y-17508D01*
X36022Y-27883D02*
X35760Y-28050D01*
X36022Y-28169D02*
X35472Y-28169D01*
X35472Y-27978D01*
X35498Y-27930D01*
X35525Y-27907D01*
X35577Y-27883D01*
X35655Y-27883D01*
X35708Y-27907D01*
X35734Y-27930D01*
X35760Y-27978D01*
X35760Y-28169D01*
X36022Y-27645D02*
X36022Y-27550D01*
X35996Y-27502D01*
X35970Y-27478D01*
X35891Y-27430D01*
X35786Y-27407D01*
X35577Y-27407D01*
X35525Y-27430D01*
X35498Y-27454D01*
X35472Y-27502D01*
X35472Y-27597D01*
X35498Y-27645D01*
X35525Y-27669D01*
X35577Y-27692D01*
X35708Y-27692D01*
X35760Y-27669D01*
X35786Y-27645D01*
X35813Y-27597D01*
X35813Y-27502D01*
X35786Y-27454D01*
X35760Y-27430D01*
X35708Y-27407D01*
G54D14*
X28564Y-17864D02*
X28650Y-17892D01*
X28792Y-17892D01*
X28850Y-17864D01*
X28878Y-17835D01*
X28907Y-17778D01*
X28907Y-17721D01*
X28878Y-17664D01*
X28850Y-17635D01*
X28792Y-17607D01*
X28678Y-17578D01*
X28621Y-17550D01*
X28592Y-17521D01*
X28564Y-17464D01*
X28564Y-17407D01*
X28592Y-17350D01*
X28621Y-17321D01*
X28678Y-17292D01*
X28821Y-17292D01*
X28907Y-17321D01*
X29164Y-17492D02*
X29164Y-18092D01*
X29164Y-17521D02*
X29221Y-17492D01*
X29335Y-17492D01*
X29392Y-17521D01*
X29421Y-17550D01*
X29450Y-17607D01*
X29450Y-17778D01*
X29421Y-17835D01*
X29392Y-17864D01*
X29335Y-17892D01*
X29221Y-17892D01*
X29164Y-17864D01*
X29707Y-17892D02*
X29707Y-17292D01*
X29764Y-17664D02*
X29935Y-17892D01*
X29935Y-17492D02*
X29707Y-17721D01*
G54D15*
X50172Y-13271D02*
X49910Y-13438D01*
X50172Y-13557D02*
X49622Y-13557D01*
X49622Y-13366D01*
X49648Y-13319D01*
X49675Y-13295D01*
X49727Y-13271D01*
X49805Y-13271D01*
X49858Y-13295D01*
X49884Y-13319D01*
X49910Y-13366D01*
X49910Y-13557D01*
X50172Y-12795D02*
X50172Y-13080D01*
X50172Y-12938D02*
X49622Y-12938D01*
X49701Y-12985D01*
X49753Y-13033D01*
X49779Y-13080D01*
X49622Y-12485D02*
X49622Y-12438D01*
X49648Y-12390D01*
X49675Y-12366D01*
X49727Y-12342D01*
X49832Y-12319D01*
X49963Y-12319D01*
X50067Y-12342D01*
X50120Y-12366D01*
X50146Y-12390D01*
X50172Y-12438D01*
X50172Y-12485D01*
X50146Y-12533D01*
X50120Y-12557D01*
X50067Y-12580D01*
X49963Y-12604D01*
X49832Y-12604D01*
X49727Y-12580D01*
X49675Y-12557D01*
X49648Y-12533D01*
X49622Y-12485D01*
X46978Y-13172D02*
X46811Y-12910D01*
X46692Y-13172D02*
X46692Y-12622D01*
X46883Y-12622D01*
X46930Y-12648D01*
X46954Y-12675D01*
X46978Y-12727D01*
X46978Y-12805D01*
X46954Y-12858D01*
X46930Y-12884D01*
X46883Y-12910D01*
X46692Y-12910D01*
X47454Y-13172D02*
X47169Y-13172D01*
X47311Y-13172D02*
X47311Y-12622D01*
X47264Y-12701D01*
X47216Y-12753D01*
X47169Y-12779D01*
X47930Y-13172D02*
X47645Y-13172D01*
X47788Y-13172D02*
X47788Y-12622D01*
X47740Y-12701D01*
X47692Y-12753D01*
X47645Y-12779D01*
X48504Y-28461D02*
X48504Y-28061D01*
X48657Y-28061D01*
X48695Y-28080D01*
X48714Y-28100D01*
X48733Y-28138D01*
X48733Y-28195D01*
X48714Y-28233D01*
X48695Y-28252D01*
X48657Y-28271D01*
X48504Y-28271D01*
X49076Y-28061D02*
X49000Y-28061D01*
X48961Y-28080D01*
X48942Y-28100D01*
X48904Y-28157D01*
X48885Y-28233D01*
X48885Y-28385D01*
X48904Y-28423D01*
X48923Y-28442D01*
X48961Y-28461D01*
X49038Y-28461D01*
X49076Y-28442D01*
X49095Y-28423D01*
X49114Y-28385D01*
X49114Y-28290D01*
X49095Y-28252D01*
X49076Y-28233D01*
X49038Y-28214D01*
X48961Y-28214D01*
X48923Y-28233D01*
X48904Y-28252D01*
X48885Y-28290D01*
X46278Y-25722D02*
X46111Y-25460D01*
X45992Y-25722D02*
X45992Y-25172D01*
X46183Y-25172D01*
X46230Y-25198D01*
X46254Y-25225D01*
X46278Y-25277D01*
X46278Y-25355D01*
X46254Y-25408D01*
X46230Y-25434D01*
X46183Y-25460D01*
X45992Y-25460D01*
X46754Y-25722D02*
X46469Y-25722D01*
X46611Y-25722D02*
X46611Y-25172D01*
X46564Y-25251D01*
X46516Y-25303D01*
X46469Y-25329D01*
X46945Y-25225D02*
X46969Y-25198D01*
X47016Y-25172D01*
X47135Y-25172D01*
X47183Y-25198D01*
X47207Y-25225D01*
X47230Y-25277D01*
X47230Y-25329D01*
X47207Y-25408D01*
X46921Y-25722D01*
X47230Y-25722D01*
X50439Y-26358D02*
X50460Y-26375D01*
X50482Y-26425D01*
X50482Y-26458D01*
X50460Y-26508D01*
X50417Y-26541D01*
X50375Y-26558D01*
X50289Y-26575D01*
X50225Y-26575D01*
X50139Y-26558D01*
X50096Y-26541D01*
X50053Y-26508D01*
X50032Y-26458D01*
X50032Y-26425D01*
X50053Y-26375D01*
X50075Y-26358D01*
X50032Y-26241D02*
X50032Y-26025D01*
X50203Y-26141D01*
X50203Y-26091D01*
X50225Y-26058D01*
X50246Y-26041D01*
X50289Y-26025D01*
X50396Y-26025D01*
X50439Y-26041D01*
X50460Y-26058D01*
X50482Y-26091D01*
X50482Y-26191D01*
X50460Y-26225D01*
X50439Y-26241D01*
X49282Y-26841D02*
X49282Y-27041D01*
X49282Y-26941D02*
X48832Y-26941D01*
X48896Y-26975D01*
X48939Y-27008D01*
X48960Y-27041D01*
X48832Y-26625D02*
X48832Y-26591D01*
X48853Y-26558D01*
X48875Y-26541D01*
X48917Y-26525D01*
X49003Y-26508D01*
X49110Y-26508D01*
X49196Y-26525D01*
X49239Y-26541D01*
X49260Y-26558D01*
X49282Y-26591D01*
X49282Y-26625D01*
X49260Y-26658D01*
X49239Y-26675D01*
X49196Y-26691D01*
X49110Y-26708D01*
X49003Y-26708D01*
X48917Y-26691D01*
X48875Y-26675D01*
X48853Y-26658D01*
X48832Y-26625D01*
X48832Y-26291D02*
X48832Y-26258D01*
X48853Y-26225D01*
X48875Y-26208D01*
X48917Y-26191D01*
X49003Y-26175D01*
X49110Y-26175D01*
X49196Y-26191D01*
X49239Y-26208D01*
X49260Y-26225D01*
X49282Y-26258D01*
X49282Y-26291D01*
X49260Y-26325D01*
X49239Y-26341D01*
X49196Y-26358D01*
X49110Y-26375D01*
X49003Y-26375D01*
X48917Y-26358D01*
X48875Y-26341D01*
X48853Y-26325D01*
X48832Y-26291D01*
X48982Y-25874D02*
X49282Y-25874D01*
X48982Y-26024D02*
X49217Y-26024D01*
X49260Y-26008D01*
X49282Y-25974D01*
X49282Y-25924D01*
X49260Y-25891D01*
X49239Y-25874D01*
X49046Y-25591D02*
X49046Y-25708D01*
X49282Y-25708D02*
X48832Y-25708D01*
X48832Y-25541D01*
G54D21*
X49710Y-27471D02*
X49710Y-27128D01*
X49882Y-27300D02*
X49539Y-27300D01*
G54D13*
G54D15*
X29523Y-22658D02*
X29542Y-22675D01*
X29561Y-22725D01*
X29561Y-22758D01*
X29542Y-22808D01*
X29504Y-22841D01*
X29466Y-22858D01*
X29390Y-22875D01*
X29333Y-22875D01*
X29257Y-22858D01*
X29219Y-22841D01*
X29180Y-22808D01*
X29161Y-22758D01*
X29161Y-22725D01*
X29180Y-22675D01*
X29200Y-22658D01*
X29200Y-22525D02*
X29180Y-22508D01*
X29161Y-22475D01*
X29161Y-22391D01*
X29180Y-22358D01*
X29200Y-22341D01*
X29238Y-22325D01*
X29276Y-22325D01*
X29333Y-22341D01*
X29561Y-22541D01*
X29561Y-22325D01*
X28062Y-23308D02*
X28062Y-23508D01*
X28062Y-23408D02*
X27662Y-23408D01*
X27720Y-23441D01*
X27758Y-23475D01*
X27777Y-23508D01*
X27662Y-23091D02*
X27662Y-23058D01*
X27681Y-23025D01*
X27701Y-23008D01*
X27739Y-22991D01*
X27815Y-22975D01*
X27910Y-22975D01*
X27986Y-22991D01*
X28024Y-23008D01*
X28043Y-23025D01*
X28062Y-23058D01*
X28062Y-23091D01*
X28043Y-23125D01*
X28024Y-23141D01*
X27986Y-23158D01*
X27910Y-23175D01*
X27815Y-23175D01*
X27739Y-23158D01*
X27701Y-23141D01*
X27681Y-23125D01*
X27662Y-23091D01*
X27662Y-22758D02*
X27662Y-22724D01*
X27681Y-22691D01*
X27701Y-22674D01*
X27739Y-22658D01*
X27815Y-22641D01*
X27910Y-22641D01*
X27986Y-22658D01*
X28024Y-22674D01*
X28043Y-22691D01*
X28062Y-22724D01*
X28062Y-22758D01*
X28043Y-22791D01*
X28024Y-22808D01*
X27986Y-22824D01*
X27910Y-22841D01*
X27815Y-22841D01*
X27739Y-22824D01*
X27701Y-22808D01*
X27681Y-22791D01*
X27662Y-22758D01*
X27662Y-22424D02*
X27662Y-22391D01*
X27681Y-22358D01*
X27701Y-22341D01*
X27739Y-22324D01*
X27815Y-22308D01*
X27910Y-22308D01*
X27986Y-22324D01*
X28024Y-22341D01*
X28043Y-22358D01*
X28062Y-22391D01*
X28062Y-22424D01*
X28043Y-22458D01*
X28024Y-22474D01*
X27986Y-22491D01*
X27910Y-22508D01*
X27815Y-22508D01*
X27739Y-22491D01*
X27701Y-22474D01*
X27681Y-22458D01*
X27662Y-22424D01*
X27796Y-22008D02*
X28062Y-22008D01*
X27796Y-22158D02*
X28005Y-22158D01*
X28043Y-22141D01*
X28062Y-22108D01*
X28062Y-22058D01*
X28043Y-22024D01*
X28024Y-22008D01*
X27853Y-21724D02*
X27853Y-21841D01*
X28062Y-21841D02*
X27662Y-21841D01*
X27662Y-21674D01*
X28614Y-24027D02*
X28614Y-23570D01*
X28842Y-23798D02*
X28385Y-23798D01*
X21142Y-29383D02*
X21161Y-29326D01*
X21161Y-29230D01*
X21142Y-29192D01*
X21123Y-29173D01*
X21085Y-29154D01*
X21047Y-29154D01*
X21009Y-29173D01*
X20990Y-29192D01*
X20971Y-29230D01*
X20952Y-29307D01*
X20933Y-29345D01*
X20914Y-29364D01*
X20876Y-29383D01*
X20838Y-29383D01*
X20800Y-29364D01*
X20780Y-29345D01*
X20761Y-29307D01*
X20761Y-29211D01*
X20780Y-29154D01*
X20761Y-29021D02*
X21161Y-28926D01*
X20876Y-28850D01*
X21161Y-28773D01*
X20761Y-28678D01*
X20761Y-28564D02*
X20761Y-28316D01*
X20914Y-28449D01*
X20914Y-28392D01*
X20933Y-28354D01*
X20952Y-28335D01*
X20990Y-28316D01*
X21085Y-28316D01*
X21123Y-28335D01*
X21142Y-28354D01*
X21161Y-28392D01*
X21161Y-28507D01*
X21142Y-28545D01*
X21123Y-28564D01*
X21792Y-17083D02*
X21811Y-17026D01*
X21811Y-16930D01*
X21792Y-16892D01*
X21773Y-16873D01*
X21735Y-16854D01*
X21697Y-16854D01*
X21659Y-16873D01*
X21640Y-16892D01*
X21621Y-16930D01*
X21602Y-17007D01*
X21583Y-17045D01*
X21564Y-17064D01*
X21526Y-17083D01*
X21488Y-17083D01*
X21450Y-17064D01*
X21430Y-17045D01*
X21411Y-17007D01*
X21411Y-16911D01*
X21430Y-16854D01*
X21411Y-16721D02*
X21811Y-16626D01*
X21526Y-16550D01*
X21811Y-16473D01*
X21411Y-16378D01*
X21450Y-16245D02*
X21430Y-16226D01*
X21411Y-16188D01*
X21411Y-16092D01*
X21430Y-16054D01*
X21450Y-16035D01*
X21488Y-16016D01*
X21526Y-16016D01*
X21583Y-16035D01*
X21811Y-16264D01*
X21811Y-16016D01*
X26223Y-22658D02*
X26242Y-22675D01*
X26261Y-22725D01*
X26261Y-22758D01*
X26242Y-22808D01*
X26204Y-22841D01*
X26166Y-22858D01*
X26090Y-22875D01*
X26033Y-22875D01*
X25957Y-22858D01*
X25919Y-22841D01*
X25880Y-22808D01*
X25861Y-22758D01*
X25861Y-22725D01*
X25880Y-22675D01*
X25900Y-22658D01*
X26261Y-22325D02*
X26261Y-22525D01*
X26261Y-22425D02*
X25861Y-22425D01*
X25919Y-22458D01*
X25957Y-22491D01*
X25976Y-22525D01*
X24762Y-23141D02*
X24762Y-23341D01*
X24762Y-23241D02*
X24362Y-23241D01*
X24420Y-23275D01*
X24458Y-23308D01*
X24477Y-23341D01*
X24362Y-22925D02*
X24362Y-22891D01*
X24381Y-22858D01*
X24401Y-22841D01*
X24439Y-22825D01*
X24515Y-22808D01*
X24610Y-22808D01*
X24686Y-22825D01*
X24724Y-22841D01*
X24743Y-22858D01*
X24762Y-22891D01*
X24762Y-22925D01*
X24743Y-22958D01*
X24724Y-22975D01*
X24686Y-22991D01*
X24610Y-23008D01*
X24515Y-23008D01*
X24439Y-22991D01*
X24401Y-22975D01*
X24381Y-22958D01*
X24362Y-22925D01*
X24362Y-22591D02*
X24362Y-22558D01*
X24381Y-22525D01*
X24401Y-22508D01*
X24439Y-22491D01*
X24515Y-22475D01*
X24610Y-22475D01*
X24686Y-22491D01*
X24724Y-22508D01*
X24743Y-22525D01*
X24762Y-22558D01*
X24762Y-22591D01*
X24743Y-22625D01*
X24724Y-22641D01*
X24686Y-22658D01*
X24610Y-22675D01*
X24515Y-22675D01*
X24439Y-22658D01*
X24401Y-22641D01*
X24381Y-22625D01*
X24362Y-22591D01*
X24496Y-22174D02*
X24762Y-22174D01*
X24496Y-22324D02*
X24705Y-22324D01*
X24743Y-22308D01*
X24762Y-22274D01*
X24762Y-22224D01*
X24743Y-22191D01*
X24724Y-22174D01*
X24553Y-21891D02*
X24553Y-22008D01*
X24762Y-22008D02*
X24362Y-22008D01*
X24362Y-21841D01*
X25314Y-24027D02*
X25314Y-23570D01*
X25542Y-23798D02*
X25085Y-23798D01*
G54D13*
X23978Y-13492D02*
X23692Y-13492D01*
X23692Y-12892D01*
X24178Y-13178D02*
X24378Y-13178D01*
X24464Y-13492D02*
X24178Y-13492D01*
X24178Y-12892D01*
X24464Y-12892D01*
X24721Y-13492D02*
X24721Y-12892D01*
X24864Y-12892D01*
X24950Y-12921D01*
X25007Y-12978D01*
X25035Y-13035D01*
X25064Y-13150D01*
X25064Y-13235D01*
X25035Y-13350D01*
X25007Y-13407D01*
X24950Y-13464D01*
X24864Y-13492D01*
X24721Y-13492D01*
X25635Y-13492D02*
X25292Y-13492D01*
X25464Y-13492D02*
X25464Y-12892D01*
X25407Y-12978D01*
X25350Y-13035D01*
X25292Y-13064D01*
X30342Y-25550D02*
X30342Y-25835D01*
X29742Y-25835D01*
X30342Y-25035D02*
X30342Y-25378D01*
X30342Y-25207D02*
X29742Y-25207D01*
X29828Y-25264D01*
X29885Y-25321D01*
X29914Y-25378D01*
G54D15*
X42341Y-13139D02*
X42325Y-13160D01*
X42275Y-13182D01*
X42241Y-13182D01*
X42191Y-13160D01*
X42158Y-13117D01*
X42141Y-13075D01*
X42125Y-12989D01*
X42125Y-12925D01*
X42141Y-12839D01*
X42158Y-12796D01*
X42191Y-12753D01*
X42241Y-12732D01*
X42275Y-12732D01*
X42325Y-12753D01*
X42341Y-12775D01*
X42658Y-12732D02*
X42491Y-12732D01*
X42475Y-12946D01*
X42491Y-12925D01*
X42525Y-12903D01*
X42608Y-12903D01*
X42641Y-12925D01*
X42658Y-12946D01*
X42675Y-12989D01*
X42675Y-13096D01*
X42658Y-13139D01*
X42641Y-13160D01*
X42608Y-13182D01*
X42525Y-13182D01*
X42491Y-13160D01*
X42475Y-13139D01*
X42008Y-14782D02*
X41808Y-14782D01*
X41908Y-14782D02*
X41908Y-14332D01*
X41875Y-14396D01*
X41841Y-14439D01*
X41808Y-14460D01*
X42225Y-14332D02*
X42258Y-14332D01*
X42291Y-14353D01*
X42308Y-14375D01*
X42325Y-14417D01*
X42341Y-14503D01*
X42341Y-14610D01*
X42325Y-14696D01*
X42308Y-14739D01*
X42291Y-14760D01*
X42258Y-14782D01*
X42225Y-14782D01*
X42191Y-14760D01*
X42175Y-14739D01*
X42158Y-14696D01*
X42141Y-14610D01*
X42141Y-14503D01*
X42158Y-14417D01*
X42175Y-14375D01*
X42191Y-14353D01*
X42225Y-14332D01*
X42558Y-14332D02*
X42591Y-14332D01*
X42625Y-14353D01*
X42641Y-14375D01*
X42658Y-14417D01*
X42675Y-14503D01*
X42675Y-14610D01*
X42658Y-14696D01*
X42641Y-14739D01*
X42625Y-14760D01*
X42591Y-14782D01*
X42558Y-14782D01*
X42525Y-14760D01*
X42508Y-14739D01*
X42491Y-14696D01*
X42475Y-14610D01*
X42475Y-14503D01*
X42491Y-14417D01*
X42508Y-14375D01*
X42525Y-14353D01*
X42558Y-14332D01*
X42975Y-14482D02*
X42975Y-14782D01*
X42825Y-14482D02*
X42825Y-14717D01*
X42841Y-14760D01*
X42875Y-14782D01*
X42925Y-14782D01*
X42958Y-14760D01*
X42975Y-14739D01*
X43258Y-14546D02*
X43141Y-14546D01*
X43141Y-14782D02*
X43141Y-14332D01*
X43308Y-14332D01*
G54D21*
X42878Y-13110D02*
X43221Y-13110D01*
X43050Y-13282D02*
X43050Y-12939D01*
G54D13*
G54D15*
X50772Y-39871D02*
X50510Y-40038D01*
X50772Y-40157D02*
X50222Y-40157D01*
X50222Y-39966D01*
X50248Y-39919D01*
X50275Y-39895D01*
X50327Y-39871D01*
X50405Y-39871D01*
X50458Y-39895D01*
X50484Y-39919D01*
X50510Y-39966D01*
X50510Y-40157D01*
X50772Y-39395D02*
X50772Y-39680D01*
X50772Y-39538D02*
X50222Y-39538D01*
X50301Y-39585D01*
X50353Y-39633D01*
X50379Y-39680D01*
X50222Y-39228D02*
X50222Y-38919D01*
X50432Y-39085D01*
X50432Y-39014D01*
X50458Y-38966D01*
X50484Y-38942D01*
X50536Y-38919D01*
X50667Y-38919D01*
X50720Y-38942D01*
X50746Y-38966D01*
X50772Y-39014D01*
X50772Y-39157D01*
X50746Y-39204D01*
X50720Y-39228D01*
G54D16*
X49164Y-35861D02*
X49164Y-35461D01*
X49392Y-35861D02*
X49221Y-35633D01*
X49392Y-35461D02*
X49164Y-35690D01*
X49773Y-35861D02*
X49545Y-35861D01*
X49659Y-35861D02*
X49659Y-35461D01*
X49621Y-35519D01*
X49583Y-35557D01*
X49545Y-35576D01*
X49907Y-35461D02*
X50173Y-35461D01*
X50002Y-35861D01*
G54D15*
X46978Y-18372D02*
X46811Y-18110D01*
X46692Y-18372D02*
X46692Y-17822D01*
X46883Y-17822D01*
X46930Y-17848D01*
X46954Y-17875D01*
X46978Y-17927D01*
X46978Y-18005D01*
X46954Y-18058D01*
X46930Y-18084D01*
X46883Y-18110D01*
X46692Y-18110D01*
X47454Y-18372D02*
X47169Y-18372D01*
X47311Y-18372D02*
X47311Y-17822D01*
X47264Y-17901D01*
X47216Y-17953D01*
X47169Y-17979D01*
X47883Y-17822D02*
X47788Y-17822D01*
X47740Y-17848D01*
X47716Y-17875D01*
X47669Y-17953D01*
X47645Y-18058D01*
X47645Y-18267D01*
X47669Y-18320D01*
X47692Y-18346D01*
X47740Y-18372D01*
X47835Y-18372D01*
X47883Y-18346D01*
X47907Y-18320D01*
X47930Y-18267D01*
X47930Y-18136D01*
X47907Y-18084D01*
X47883Y-18058D01*
X47835Y-18032D01*
X47740Y-18032D01*
X47692Y-18058D01*
X47669Y-18084D01*
X47645Y-18136D01*
X46978Y-19422D02*
X46811Y-19160D01*
X46692Y-19422D02*
X46692Y-18872D01*
X46883Y-18872D01*
X46930Y-18898D01*
X46954Y-18925D01*
X46978Y-18977D01*
X46978Y-19055D01*
X46954Y-19108D01*
X46930Y-19134D01*
X46883Y-19160D01*
X46692Y-19160D01*
X47454Y-19422D02*
X47169Y-19422D01*
X47311Y-19422D02*
X47311Y-18872D01*
X47264Y-18951D01*
X47216Y-19003D01*
X47169Y-19029D01*
X47621Y-18872D02*
X47954Y-18872D01*
X47740Y-19422D01*
X46978Y-17322D02*
X46811Y-17060D01*
X46692Y-17322D02*
X46692Y-16772D01*
X46883Y-16772D01*
X46930Y-16798D01*
X46954Y-16825D01*
X46978Y-16877D01*
X46978Y-16955D01*
X46954Y-17008D01*
X46930Y-17034D01*
X46883Y-17060D01*
X46692Y-17060D01*
X47454Y-17322D02*
X47169Y-17322D01*
X47311Y-17322D02*
X47311Y-16772D01*
X47264Y-16851D01*
X47216Y-16903D01*
X47169Y-16929D01*
X47907Y-16772D02*
X47669Y-16772D01*
X47645Y-17034D01*
X47669Y-17008D01*
X47716Y-16982D01*
X47835Y-16982D01*
X47883Y-17008D01*
X47907Y-17034D01*
X47930Y-17086D01*
X47930Y-17217D01*
X47907Y-17270D01*
X47883Y-17296D01*
X47835Y-17322D01*
X47716Y-17322D01*
X47669Y-17296D01*
X47645Y-17270D01*
X48478Y-28422D02*
X48311Y-28160D01*
X48192Y-28422D02*
X48192Y-27872D01*
X48383Y-27872D01*
X48430Y-27898D01*
X48454Y-27925D01*
X48478Y-27977D01*
X48478Y-28055D01*
X48454Y-28108D01*
X48430Y-28134D01*
X48383Y-28160D01*
X48192Y-28160D01*
X48954Y-28422D02*
X48669Y-28422D01*
X48811Y-28422D02*
X48811Y-27872D01*
X48764Y-27951D01*
X48716Y-28003D01*
X48669Y-28029D01*
X49383Y-28055D02*
X49383Y-28422D01*
X49264Y-27846D02*
X49145Y-28239D01*
X49454Y-28239D01*
X25578Y-16822D02*
X25411Y-16560D01*
X25292Y-16822D02*
X25292Y-16272D01*
X25483Y-16272D01*
X25530Y-16298D01*
X25554Y-16325D01*
X25578Y-16377D01*
X25578Y-16455D01*
X25554Y-16508D01*
X25530Y-16534D01*
X25483Y-16560D01*
X25292Y-16560D01*
X26054Y-16822D02*
X25769Y-16822D01*
X25911Y-16822D02*
X25911Y-16272D01*
X25864Y-16351D01*
X25816Y-16403D01*
X25769Y-16429D01*
X26340Y-16508D02*
X26292Y-16482D01*
X26269Y-16455D01*
X26245Y-16403D01*
X26245Y-16377D01*
X26269Y-16325D01*
X26292Y-16298D01*
X26340Y-16272D01*
X26435Y-16272D01*
X26483Y-16298D01*
X26507Y-16325D01*
X26530Y-16377D01*
X26530Y-16403D01*
X26507Y-16455D01*
X26483Y-16482D01*
X26435Y-16508D01*
X26340Y-16508D01*
X26292Y-16534D01*
X26269Y-16560D01*
X26245Y-16613D01*
X26245Y-16717D01*
X26269Y-16770D01*
X26292Y-16796D01*
X26340Y-16822D01*
X26435Y-16822D01*
X26483Y-16796D01*
X26507Y-16770D01*
X26530Y-16717D01*
X26530Y-16613D01*
X26507Y-16560D01*
X26483Y-16534D01*
X26435Y-16508D01*
G54D22*
X24402Y-29833D02*
X24402Y-30071D01*
X23902Y-30071D01*
X24402Y-29666D02*
X23902Y-29666D01*
X24259Y-29500D01*
X23902Y-29333D01*
X24402Y-29333D01*
X23950Y-29119D02*
X23926Y-29095D01*
X23902Y-29047D01*
X23902Y-28928D01*
X23926Y-28880D01*
X23950Y-28857D01*
X23997Y-28833D01*
X24045Y-28833D01*
X24116Y-28857D01*
X24402Y-29142D01*
X24402Y-28833D01*
X23902Y-28380D02*
X23902Y-28619D01*
X24140Y-28642D01*
X24116Y-28619D01*
X24092Y-28571D01*
X24092Y-28452D01*
X24116Y-28404D01*
X24140Y-28380D01*
X24188Y-28357D01*
X24307Y-28357D01*
X24354Y-28380D01*
X24378Y-28404D01*
X24402Y-28452D01*
X24402Y-28571D01*
X24378Y-28619D01*
X24354Y-28642D01*
X23902Y-28190D02*
X23902Y-27857D01*
X24402Y-28071D01*
X23902Y-27452D02*
X23902Y-27547D01*
X23926Y-27595D01*
X23950Y-27619D01*
X24021Y-27666D01*
X24116Y-27690D01*
X24307Y-27690D01*
X24354Y-27666D01*
X24378Y-27642D01*
X24402Y-27595D01*
X24402Y-27500D01*
X24378Y-27452D01*
X24354Y-27428D01*
X24307Y-27404D01*
X24188Y-27404D01*
X24140Y-27428D01*
X24116Y-27452D01*
X24092Y-27500D01*
X24092Y-27595D01*
X24116Y-27642D01*
X24140Y-27666D01*
X24188Y-27690D01*
G54D12*
X43462Y-21296D02*
X44512Y-22478D01*
X44512Y-21296D02*
X43462Y-22478D01*
X45637Y-21859D02*
X45862Y-21915D01*
X45937Y-21971D01*
X46012Y-22084D01*
X46012Y-22253D01*
X45937Y-22365D01*
X45862Y-22421D01*
X45712Y-22478D01*
X45112Y-22478D01*
X45112Y-21296D01*
X45637Y-21296D01*
X45787Y-21353D01*
X45862Y-21409D01*
X45937Y-21521D01*
X45937Y-21634D01*
X45862Y-21746D01*
X45787Y-21803D01*
X45637Y-21859D01*
X45112Y-21859D01*
X46687Y-21859D02*
X47212Y-21859D01*
X47437Y-22478D02*
X46687Y-22478D01*
X46687Y-21296D01*
X47437Y-21296D01*
X48112Y-21859D02*
X48637Y-21859D01*
X48862Y-22478D02*
X48112Y-22478D01*
X48112Y-21296D01*
X48862Y-21296D01*
G54D23*
X33910Y-24513D02*
X33791Y-24394D01*
X34042Y-24143D01*
X33994Y-24597D02*
X34244Y-24346D01*
X34304Y-24406D01*
X34328Y-24454D01*
X34328Y-24501D01*
X34316Y-24537D01*
X34280Y-24597D01*
X34244Y-24632D01*
X34185Y-24668D01*
X34149Y-24680D01*
X34101Y-24680D01*
X34054Y-24656D01*
X33994Y-24597D01*
X34388Y-24990D02*
X34423Y-24788D01*
X34244Y-24847D02*
X34495Y-24597D01*
X34590Y-24692D01*
X34602Y-24728D01*
X34602Y-24752D01*
X34590Y-24788D01*
X34555Y-24823D01*
X34519Y-24835D01*
X34495Y-24835D01*
X34459Y-24823D01*
X34364Y-24728D01*
X34411Y-25062D02*
X34602Y-25253D01*
X34960Y-25229D02*
X34793Y-25396D01*
X34996Y-25074D02*
X34757Y-25193D01*
X34913Y-25348D01*
X40663Y-25139D02*
X40544Y-25258D01*
X40293Y-25007D01*
X40747Y-25055D02*
X40496Y-24805D01*
X40556Y-24745D01*
X40604Y-24721D01*
X40651Y-24721D01*
X40687Y-24733D01*
X40747Y-24769D01*
X40782Y-24805D01*
X40818Y-24864D01*
X40830Y-24900D01*
X40830Y-24948D01*
X40806Y-24995D01*
X40747Y-25055D01*
X41140Y-24661D02*
X40938Y-24626D01*
X40997Y-24805D02*
X40747Y-24554D01*
X40842Y-24459D01*
X40878Y-24447D01*
X40902Y-24447D01*
X40938Y-24459D01*
X40973Y-24494D01*
X40985Y-24530D01*
X40985Y-24554D01*
X40973Y-24590D01*
X40878Y-24685D01*
X41212Y-24638D02*
X41403Y-24447D01*
X41164Y-24136D02*
X41319Y-23981D01*
X41331Y-24160D01*
X41367Y-24125D01*
X41403Y-24113D01*
X41427Y-24113D01*
X41463Y-24125D01*
X41522Y-24184D01*
X41534Y-24220D01*
X41534Y-24244D01*
X41522Y-24280D01*
X41451Y-24351D01*
X41415Y-24363D01*
X41391Y-24363D01*
X39710Y-16713D02*
X39591Y-16594D01*
X39842Y-16343D01*
X39794Y-16797D02*
X40044Y-16546D01*
X40104Y-16606D01*
X40128Y-16654D01*
X40128Y-16701D01*
X40116Y-16737D01*
X40080Y-16797D01*
X40044Y-16832D01*
X39985Y-16868D01*
X39949Y-16880D01*
X39901Y-16880D01*
X39854Y-16856D01*
X39794Y-16797D01*
X40188Y-17190D02*
X40223Y-16988D01*
X40044Y-17047D02*
X40295Y-16797D01*
X40390Y-16892D01*
X40402Y-16928D01*
X40402Y-16952D01*
X40390Y-16988D01*
X40355Y-17023D01*
X40319Y-17035D01*
X40295Y-17035D01*
X40259Y-17023D01*
X40164Y-16928D01*
X40211Y-17262D02*
X40402Y-17453D01*
X40701Y-17250D02*
X40724Y-17250D01*
X40760Y-17262D01*
X40820Y-17322D01*
X40832Y-17357D01*
X40832Y-17381D01*
X40820Y-17417D01*
X40796Y-17441D01*
X40748Y-17465D01*
X40462Y-17465D01*
X40617Y-17620D01*
X33963Y-18289D02*
X33844Y-18408D01*
X33593Y-18157D01*
X34047Y-18205D02*
X33796Y-17955D01*
X33856Y-17895D01*
X33904Y-17871D01*
X33951Y-17871D01*
X33987Y-17883D01*
X34047Y-17919D01*
X34082Y-17955D01*
X34118Y-18014D01*
X34130Y-18050D01*
X34130Y-18098D01*
X34106Y-18145D01*
X34047Y-18205D01*
X34440Y-17811D02*
X34238Y-17776D01*
X34297Y-17955D02*
X34047Y-17704D01*
X34142Y-17609D01*
X34178Y-17597D01*
X34202Y-17597D01*
X34238Y-17609D01*
X34273Y-17644D01*
X34285Y-17680D01*
X34285Y-17704D01*
X34273Y-17740D01*
X34178Y-17835D01*
X34512Y-17788D02*
X34703Y-17597D01*
X34870Y-17382D02*
X34727Y-17525D01*
X34798Y-17454D02*
X34548Y-17203D01*
X34560Y-17263D01*
X34560Y-17310D01*
X34548Y-17346D01*
G54D15*
X31691Y-19289D02*
X31675Y-19310D01*
X31625Y-19332D01*
X31591Y-19332D01*
X31541Y-19310D01*
X31508Y-19267D01*
X31491Y-19225D01*
X31475Y-19139D01*
X31475Y-19075D01*
X31491Y-18989D01*
X31508Y-18946D01*
X31541Y-18903D01*
X31591Y-18882D01*
X31625Y-18882D01*
X31675Y-18903D01*
X31691Y-18925D01*
X31991Y-19032D02*
X31991Y-19332D01*
X31908Y-18860D02*
X31825Y-19182D01*
X32041Y-19182D01*
X31108Y-17782D02*
X30908Y-17782D01*
X31008Y-17782D02*
X31008Y-17332D01*
X30975Y-17396D01*
X30941Y-17439D01*
X30908Y-17460D01*
X31325Y-17332D02*
X31358Y-17332D01*
X31391Y-17353D01*
X31408Y-17375D01*
X31425Y-17417D01*
X31441Y-17503D01*
X31441Y-17610D01*
X31425Y-17696D01*
X31408Y-17739D01*
X31391Y-17760D01*
X31358Y-17782D01*
X31325Y-17782D01*
X31291Y-17760D01*
X31275Y-17739D01*
X31258Y-17696D01*
X31241Y-17610D01*
X31241Y-17503D01*
X31258Y-17417D01*
X31275Y-17375D01*
X31291Y-17353D01*
X31325Y-17332D01*
X31658Y-17332D02*
X31691Y-17332D01*
X31725Y-17353D01*
X31741Y-17375D01*
X31758Y-17417D01*
X31775Y-17503D01*
X31775Y-17610D01*
X31758Y-17696D01*
X31741Y-17739D01*
X31725Y-17760D01*
X31691Y-17782D01*
X31658Y-17782D01*
X31625Y-17760D01*
X31608Y-17739D01*
X31591Y-17696D01*
X31575Y-17610D01*
X31575Y-17503D01*
X31591Y-17417D01*
X31608Y-17375D01*
X31625Y-17353D01*
X31658Y-17332D01*
X32075Y-17482D02*
X32075Y-17782D01*
X31925Y-17482D02*
X31925Y-17717D01*
X31941Y-17760D01*
X31975Y-17782D01*
X32025Y-17782D01*
X32058Y-17760D01*
X32075Y-17739D01*
X32358Y-17546D02*
X32241Y-17546D01*
X32241Y-17782D02*
X32241Y-17332D01*
X32408Y-17332D01*
G54D21*
X30878Y-19060D02*
X31221Y-19060D01*
X31050Y-19232D02*
X31050Y-18889D01*
G54D13*
M02*
