G04 (created by PCBNEW (2013-june-11)-stable) date jue 06 feb 2014 18:29:20 CET*
%MOIN*%
G04 Gerber Fmt 3.4, Leading zero omitted, Abs format*
%FSLAX34Y34*%
G01*
G70*
G90*
G04 APERTURE LIST*
%ADD10C,0.00393701*%
%ADD11R,0.114173X0.114173*%
%ADD12C,0.114173*%
%ADD13R,0.115748X0.115748*%
%ADD14C,0.115748*%
%ADD15C,0.080748*%
%ADD16R,0.075748X0.075748*%
%ADD17C,0.075748*%
%ADD18R,0.080748X0.080748*%
%ADD19O,0.0748031X0.114173*%
%ADD20O,0.0748031X0.0944882*%
%ADD21C,0.055148*%
%ADD22C,0.094448*%
%ADD23O,0.075748X0.115748*%
G04 APERTURE END LIST*
G54D10*
G54D11*
X25350Y-25000D03*
G54D12*
X28350Y-25000D03*
G54D13*
X21950Y-22250D03*
G54D14*
X21950Y-20250D03*
G54D15*
X30400Y-23850D03*
X33400Y-23850D03*
X29300Y-13000D03*
X26300Y-13000D03*
X29300Y-14050D03*
X26300Y-14050D03*
X29300Y-15100D03*
X26300Y-15100D03*
X33500Y-26950D03*
X33500Y-29950D03*
G54D16*
X38300Y-22850D03*
G54D17*
X38300Y-21850D03*
X38300Y-20850D03*
X38300Y-19850D03*
X38300Y-18850D03*
G54D15*
X37300Y-18850D03*
X34300Y-18850D03*
X37300Y-19850D03*
X34300Y-19850D03*
X37300Y-20850D03*
X34300Y-20850D03*
X37300Y-21850D03*
X34300Y-21850D03*
G54D16*
X40050Y-29350D03*
G54D17*
X40050Y-28350D03*
X40050Y-27350D03*
G54D16*
X41050Y-29350D03*
G54D17*
X41050Y-28350D03*
X41050Y-27350D03*
G54D16*
X29700Y-16600D03*
G54D17*
X28700Y-16600D03*
G54D16*
X31550Y-13450D03*
G54D17*
X31550Y-14450D03*
X31550Y-15450D03*
G54D16*
X32550Y-13450D03*
G54D17*
X32550Y-14450D03*
X32550Y-15450D03*
G54D16*
X33550Y-13450D03*
G54D17*
X33550Y-14450D03*
X33550Y-15450D03*
G54D16*
X34550Y-13450D03*
G54D17*
X34550Y-14450D03*
X34550Y-15450D03*
G54D16*
X35550Y-13450D03*
G54D17*
X35550Y-14450D03*
X35550Y-15450D03*
G54D16*
X36550Y-13450D03*
G54D17*
X36550Y-14450D03*
X36550Y-15450D03*
G54D16*
X42050Y-29350D03*
G54D17*
X42050Y-28350D03*
X42050Y-27350D03*
G54D16*
X43050Y-29350D03*
G54D17*
X43050Y-28350D03*
X43050Y-27350D03*
G54D16*
X48800Y-14050D03*
G54D17*
X47800Y-14050D03*
X46800Y-14050D03*
X45800Y-14050D03*
G54D15*
X49950Y-14450D03*
X49950Y-11450D03*
X48800Y-12950D03*
X45800Y-12950D03*
G54D16*
X46200Y-29400D03*
G54D17*
X47200Y-29400D03*
X48200Y-29400D03*
X49200Y-29400D03*
G54D15*
X44450Y-28100D03*
X47450Y-28100D03*
G54D16*
X37550Y-13450D03*
G54D17*
X37550Y-14450D03*
X37550Y-15450D03*
G54D16*
X38550Y-13450D03*
G54D17*
X38550Y-14450D03*
X38550Y-15450D03*
G54D16*
X39550Y-13450D03*
G54D17*
X39550Y-14450D03*
X39550Y-15450D03*
G54D16*
X40550Y-13450D03*
G54D17*
X40550Y-14450D03*
X40550Y-15450D03*
G54D16*
X45150Y-26150D03*
G54D17*
X46150Y-26150D03*
G54D16*
X24950Y-18550D03*
G54D17*
X25950Y-18550D03*
G54D18*
X28600Y-23100D03*
G54D15*
X28600Y-22100D03*
G54D19*
X20300Y-27350D03*
X22300Y-27350D03*
X20300Y-30350D03*
X22300Y-30350D03*
X20950Y-15050D03*
X22950Y-15050D03*
X20950Y-18050D03*
X22950Y-18050D03*
G54D18*
X25300Y-23100D03*
G54D15*
X25300Y-22100D03*
G54D20*
X21112Y-24550D03*
X21900Y-24550D03*
X22687Y-24550D03*
G54D19*
X23474Y-24550D03*
X20325Y-24550D03*
G54D21*
X23900Y-14750D03*
X24400Y-14750D03*
X24900Y-14750D03*
X25400Y-14750D03*
G54D22*
X32450Y-27850D03*
X29450Y-27850D03*
G54D16*
X43000Y-13800D03*
G54D17*
X42000Y-13800D03*
G54D15*
X50550Y-41050D03*
X50550Y-38050D03*
G54D16*
X48550Y-36550D03*
G54D17*
X49550Y-36550D03*
X50550Y-36550D03*
G54D15*
X48800Y-18150D03*
X45800Y-18150D03*
X48800Y-19200D03*
X45800Y-19200D03*
X45800Y-17100D03*
X48800Y-17100D03*
X48550Y-41050D03*
X48550Y-38050D03*
X27400Y-16600D03*
X24400Y-16600D03*
G54D23*
X41300Y-11850D03*
X42300Y-11850D03*
X43300Y-11850D03*
X44300Y-11850D03*
X45300Y-11850D03*
X46300Y-11850D03*
X47300Y-11850D03*
X48300Y-11850D03*
X50300Y-30850D03*
X49300Y-30850D03*
X48300Y-30850D03*
X47300Y-30850D03*
X43300Y-30850D03*
X41300Y-30850D03*
X40300Y-30850D03*
X44300Y-30850D03*
X45300Y-30850D03*
X46300Y-30850D03*
X39300Y-30850D03*
X38300Y-30850D03*
X37300Y-30850D03*
X34300Y-30850D03*
X35300Y-30850D03*
X36300Y-30850D03*
X32300Y-30850D03*
X31300Y-30850D03*
X30300Y-30850D03*
X28300Y-30850D03*
X27300Y-30850D03*
X37300Y-11850D03*
X36300Y-11850D03*
X35300Y-11850D03*
X34300Y-11850D03*
X33300Y-11850D03*
X32300Y-11850D03*
X30700Y-11850D03*
X29700Y-11850D03*
X28700Y-11850D03*
X27700Y-11850D03*
X26700Y-11850D03*
X25700Y-11850D03*
X24700Y-11850D03*
X23700Y-11850D03*
X29300Y-30850D03*
M02*
