M48
;DRILL file {Pcbnew (2013-june-11)-stable} date jue 06 feb 2014 19:57:53 CET
;FORMAT={-:-/ absolute / inch / decimal}
FMAT,2
INCH,TZ
T1C0.020
T2C0.026
T3C0.028
T4C0.028
T5C0.032
T6C0.039
T7C0.039
T8C0.040
T9C0.047
T10C0.059
T11C0.060
T12C0.120
%
G90
G05
M72
T1
X3.136Y-2.605
T2
X4.2507Y-1.572
X4.2507Y-2.438
X4.3295Y-1.572
X4.3295Y-2.438
X4.4082Y-1.572
X4.4082Y-2.438
X4.4869Y-1.572
X4.4869Y-2.438
X4.5657Y-1.572
X4.5657Y-2.438
X4.6443Y-1.572
X4.6443Y-2.438
X4.7231Y-1.572
X4.7231Y-2.438
X4.8018Y-1.572
X4.8018Y-2.438
X4.8805Y-1.572
X4.8805Y-2.438
X4.9593Y-2.438
X4.9593Y-1.5719
T3
X2.1113Y-2.455
X2.19Y-2.455
X2.2687Y-2.455
T4
X2.39Y-1.475
X2.44Y-1.475
X2.49Y-1.475
X2.54Y-1.475
T5
X2.03Y-2.735
X2.03Y-3.035
X2.095Y-1.505
X2.095Y-1.805
X2.23Y-2.735
X2.23Y-3.035
X2.295Y-1.505
X2.295Y-1.805
X2.37Y-1.185
X2.44Y-1.66
X2.47Y-1.185
X2.495Y-1.855
X2.53Y-2.21
X2.53Y-2.31
X2.57Y-1.185
X2.595Y-1.855
X2.63Y-1.3
X2.63Y-1.405
X2.63Y-1.51
X2.67Y-1.185
X2.73Y-3.085
X2.74Y-1.66
X2.77Y-1.185
X2.83Y-3.085
X2.86Y-2.21
X2.86Y-2.31
X2.87Y-1.185
X2.925Y-1.825
X2.925Y-2.035
X2.93Y-1.3
X2.93Y-1.405
X2.93Y-1.51
X2.93Y-3.085
X2.97Y-1.185
X3.03Y-3.085
X3.04Y-2.385
X3.07Y-1.185
X3.13Y-3.085
X3.225Y-1.825
X3.225Y-2.035
X3.23Y-1.185
X3.23Y-3.085
X3.33Y-1.185
X3.34Y-2.385
X3.35Y-2.695
X3.35Y-2.995
X3.43Y-1.185
X3.43Y-3.085
X3.53Y-1.185
X3.53Y-3.085
X3.63Y-1.185
X3.63Y-3.085
X3.73Y-1.185
X3.73Y-3.085
X3.83Y-3.085
X3.93Y-3.085
X4.03Y-3.085
X4.05Y-2.57
X4.13Y-1.185
X4.13Y-3.085
X4.14Y-1.73
X4.2Y-1.38
X4.23Y-1.185
X4.3Y-1.38
X4.33Y-1.185
X4.33Y-3.085
X4.35Y-2.57
X4.43Y-1.185
X4.43Y-3.085
X4.44Y-1.73
X4.445Y-2.81
X4.515Y-2.615
X4.53Y-1.185
X4.53Y-3.085
X4.58Y-1.295
X4.58Y-1.71
X4.58Y-1.815
X4.58Y-1.92
X4.615Y-2.615
X4.63Y-1.185
X4.63Y-3.085
X4.73Y-1.185
X4.73Y-3.085
X4.745Y-2.81
X4.83Y-1.185
X4.83Y-3.085
X4.855Y-3.805
X4.855Y-4.105
X4.88Y-1.295
X4.88Y-1.71
X4.88Y-1.815
X4.88Y-1.92
X4.93Y-3.085
X4.995Y-1.145
X4.995Y-1.445
X5.03Y-3.085
X5.055Y-3.805
X5.055Y-4.105
T6
X2.0325Y-2.455
X2.3475Y-2.455
T7
X2.945Y-2.785
X3.245Y-2.785
T8
X2.87Y-1.66
X2.97Y-1.66
X3.155Y-1.345
X3.155Y-1.445
X3.155Y-1.545
X3.255Y-1.345
X3.255Y-1.445
X3.255Y-1.545
X3.355Y-1.345
X3.355Y-1.445
X3.355Y-1.545
X3.455Y-1.345
X3.455Y-1.445
X3.455Y-1.545
X3.4646Y-1.8954
X3.4646Y-2.3446
X3.5354Y-1.8246
X3.5354Y-2.4154
X3.555Y-1.345
X3.555Y-1.445
X3.555Y-1.545
X3.655Y-1.345
X3.655Y-1.445
X3.655Y-1.545
X3.755Y-1.345
X3.755Y-1.445
X3.755Y-1.545
X3.855Y-1.345
X3.855Y-1.445
X3.855Y-1.545
X3.955Y-1.345
X3.955Y-1.445
X3.955Y-1.545
X3.9846Y-1.8246
X3.9846Y-2.4154
X4.005Y-2.735
X4.005Y-2.835
X4.005Y-2.935
X4.055Y-1.345
X4.055Y-1.445
X4.055Y-1.545
X4.0554Y-1.8954
X4.0554Y-2.3446
X4.105Y-2.735
X4.105Y-2.835
X4.105Y-2.935
X4.205Y-2.735
X4.205Y-2.835
X4.205Y-2.935
X4.305Y-2.735
X4.305Y-2.835
X4.305Y-2.935
X4.58Y-1.405
X4.62Y-2.94
X4.68Y-1.405
X4.72Y-2.94
X4.78Y-1.405
X4.82Y-2.94
X4.855Y-3.655
X4.88Y-1.405
X4.92Y-2.94
X4.955Y-3.655
X5.055Y-3.655
T9
X2.535Y-2.67
X2.6Y-2.825
X2.67Y-2.67
X2.74Y-2.825
X2.805Y-2.67
T10
X2.535Y-2.5
X2.835Y-2.5
T11
X2.195Y-2.025
X2.195Y-2.225
T12
X3.76Y-2.12
T0
M30
