solid OpenSCAD_Model
  facet normal -0.96614 -0.25802 0
    outer loop
      vertex 10.489 -3.09 0
      vertex 10.489 -3.09 2
      vertex 10.219 -2.079 0
    endloop
  endfacet
  facet normal -0.96614 -0.25802 0
    outer loop
      vertex 10.219 -2.079 0
      vertex 10.489 -3.09 2
      vertex 10.219 -2.079 2
    endloop
  endfacet
  facet normal 0 0 -1
    outer loop
      vertex 10.055 1.045 0
      vertex 10.219 2.079 0
      vertex 10 0 0
    endloop
  endfacet
  facet normal 0 0 -1
    outer loop
      vertex 10 0 0
      vertex 10.219 2.079 0
      vertex 10.489 3.09 0
    endloop
  endfacet
  facet normal 0 0 -1
    outer loop
      vertex 10 0 0
      vertex 10.489 3.09 0
      vertex 10.865 4.067 0
    endloop
  endfacet
  facet normal 0 0 -1
    outer loop
      vertex 10 0 0
      vertex 10.865 4.067 0
      vertex 11.34 5 0
    endloop
  endfacet
  facet normal 0 0 -1
    outer loop
      vertex 10 0 0
      vertex 11.34 5 0
      vertex 11.91 5.878 0
    endloop
  endfacet
  facet normal 0 0 -1
    outer loop
      vertex 10 0 0
      vertex 11.91 5.878 0
      vertex 12.569 6.691 0
    endloop
  endfacet
  facet normal 0 0 -1
    outer loop
      vertex 10 0 0
      vertex 12.569 6.691 0
      vertex 13.309 7.431 0
    endloop
  endfacet
  facet normal 0 0 -1
    outer loop
      vertex 10 0 0
      vertex 13.309 7.431 0
      vertex 14.122 8.09 0
    endloop
  endfacet
  facet normal 0 0 -1
    outer loop
      vertex 10 0 0
      vertex 14.122 8.09 0
      vertex 15 8.66 0
    endloop
  endfacet
  facet normal 0 0 -1
    outer loop
      vertex 10 0 0
      vertex 15 8.66 0
      vertex 15.933 9.135 0
    endloop
  endfacet
  facet normal 0 0 -1
    outer loop
      vertex 10 0 0
      vertex 15.933 9.135 0
      vertex 16.91 9.511 0
    endloop
  endfacet
  facet normal 0 0 -1
    outer loop
      vertex 10 0 0
      vertex 16.91 9.511 0
      vertex 17.921 9.781 0
    endloop
  endfacet
  facet normal 0 0 -1
    outer loop
      vertex 10 0 0
      vertex 17.921 9.781 0
      vertex 18.955 9.945 0
    endloop
  endfacet
  facet normal 0 0 -1
    outer loop
      vertex 10 0 0
      vertex 18.955 9.945 0
      vertex 20 10 0
    endloop
  endfacet
  facet normal 0 0 -1
    outer loop
      vertex 10 0 0
      vertex 20 10 0
      vertex 35 10 0
    endloop
  endfacet
  facet normal 0 0 -1
    outer loop
      vertex 10 0 0
      vertex 35 10 0
      vertex 36.045 9.945 0
    endloop
  endfacet
  facet normal 0 0 -1
    outer loop
      vertex 10 0 0
      vertex 36.045 9.945 0
      vertex 37.079 9.781 0
    endloop
  endfacet
  facet normal 0 0 -1
    outer loop
      vertex 10 0 0
      vertex 37.079 9.781 0
      vertex 38.09 9.511 0
    endloop
  endfacet
  facet normal 0 0 -1
    outer loop
      vertex 10 0 0
      vertex 38.09 9.511 0
      vertex 39.067 9.135 0
    endloop
  endfacet
  facet normal 0 0 -1
    outer loop
      vertex 10 0 0
      vertex 39.067 9.135 0
      vertex 40 8.66 0
    endloop
  endfacet
  facet normal 0 0 -1
    outer loop
      vertex 10 0 0
      vertex 40 8.66 0
      vertex 40.878 8.09 0
    endloop
  endfacet
  facet normal 0 0 -1
    outer loop
      vertex 10 0 0
      vertex 40.878 8.09 0
      vertex 41.691 7.431 0
    endloop
  endfacet
  facet normal 0 0 -1
    outer loop
      vertex 10 0 0
      vertex 41.691 7.431 0
      vertex 42.431 6.691 0
    endloop
  endfacet
  facet normal 0 0 -1
    outer loop
      vertex 10 0 0
      vertex 42.431 6.691 0
      vertex 43.09 5.878 0
    endloop
  endfacet
  facet normal 0 0 -1
    outer loop
      vertex 10 0 0
      vertex 43.09 5.878 0
      vertex 43.66 5 0
    endloop
  endfacet
  facet normal 0 0 -1
    outer loop
      vertex 10 0 0
      vertex 43.66 5 0
      vertex 44.135 4.067 0
    endloop
  endfacet
  facet normal 0 0 -1
    outer loop
      vertex 10 0 0
      vertex 44.135 4.067 0
      vertex 44.511 3.09 0
    endloop
  endfacet
  facet normal 0 0 -1
    outer loop
      vertex 10 0 0
      vertex 44.511 3.09 0
      vertex 44.781 2.079 0
    endloop
  endfacet
  facet normal 0 0 -1
    outer loop
      vertex 10 0 0
      vertex 44.781 2.079 0
      vertex 44.945 1.045 0
    endloop
  endfacet
  facet normal 0 0 -1
    outer loop
      vertex 10 0 0
      vertex 44.945 1.045 0
      vertex 45 0 0
    endloop
  endfacet
  facet normal 0 0 -1
    outer loop
      vertex 10 0 0
      vertex 45 0 0
      vertex 44.945 -1.045 0
    endloop
  endfacet
  facet normal 0 0 -1
    outer loop
      vertex 10 0 0
      vertex 44.945 -1.045 0
      vertex 44.781 -2.079 0
    endloop
  endfacet
  facet normal 0 0 -1
    outer loop
      vertex 10 0 0
      vertex 44.781 -2.079 0
      vertex 44.511 -3.09 0
    endloop
  endfacet
  facet normal 0 0 -1
    outer loop
      vertex 10 0 0
      vertex 44.511 -3.09 0
      vertex 44.135 -4.067 0
    endloop
  endfacet
  facet normal 0 0 -1
    outer loop
      vertex 10 0 0
      vertex 44.135 -4.067 0
      vertex 43.66 -5 0
    endloop
  endfacet
  facet normal 0 0 -1
    outer loop
      vertex 10 0 0
      vertex 43.66 -5 0
      vertex 43.09 -5.878 0
    endloop
  endfacet
  facet normal 0 0 -1
    outer loop
      vertex 10 0 0
      vertex 43.09 -5.878 0
      vertex 42.431 -6.691 0
    endloop
  endfacet
  facet normal 0 0 -1
    outer loop
      vertex 10 0 0
      vertex 42.431 -6.691 0
      vertex 41.691 -7.431 0
    endloop
  endfacet
  facet normal 0 0 -1
    outer loop
      vertex 10 0 0
      vertex 41.691 -7.431 0
      vertex 40.878 -8.09 0
    endloop
  endfacet
  facet normal 0 0 -1
    outer loop
      vertex 10 0 0
      vertex 40.878 -8.09 0
      vertex 40 -8.66 0
    endloop
  endfacet
  facet normal 0 0 -1
    outer loop
      vertex 10 0 0
      vertex 40 -8.66 0
      vertex 39.067 -9.135 0
    endloop
  endfacet
  facet normal 0 0 -1
    outer loop
      vertex 10 0 0
      vertex 39.067 -9.135 0
      vertex 38.09 -9.511 0
    endloop
  endfacet
  facet normal 0 0 -1
    outer loop
      vertex 10 0 0
      vertex 38.09 -9.511 0
      vertex 37.079 -9.781 0
    endloop
  endfacet
  facet normal 0 0 -1
    outer loop
      vertex 10 0 0
      vertex 37.079 -9.781 0
      vertex 36.045 -9.945 0
    endloop
  endfacet
  facet normal 0 0 -1
    outer loop
      vertex 10 0 0
      vertex 36.045 -9.945 0
      vertex 35 -10 0
    endloop
  endfacet
  facet normal 0 0 -1
    outer loop
      vertex 10 0 0
      vertex 35 -10 0
      vertex 20 -10 0
    endloop
  endfacet
  facet normal 0 0 -1
    outer loop
      vertex 10 0 0
      vertex 20 -10 0
      vertex 18.955 -9.945 0
    endloop
  endfacet
  facet normal 0 0 -1
    outer loop
      vertex 10 0 0
      vertex 18.955 -9.945 0
      vertex 17.921 -9.781 0
    endloop
  endfacet
  facet normal 0 0 -1
    outer loop
      vertex 10 0 0
      vertex 17.921 -9.781 0
      vertex 16.91 -9.511 0
    endloop
  endfacet
  facet normal 0 0 -1
    outer loop
      vertex 10 0 0
      vertex 16.91 -9.511 0
      vertex 15.933 -9.135 0
    endloop
  endfacet
  facet normal 0 0 -1
    outer loop
      vertex 10 0 0
      vertex 15.933 -9.135 0
      vertex 15 -8.66 0
    endloop
  endfacet
  facet normal 0 0 -1
    outer loop
      vertex 10 0 0
      vertex 15 -8.66 0
      vertex 14.122 -8.09 0
    endloop
  endfacet
  facet normal 0 0 -1
    outer loop
      vertex 10 0 0
      vertex 14.122 -8.09 0
      vertex 13.309 -7.431 0
    endloop
  endfacet
  facet normal 0 0 -1
    outer loop
      vertex 10 0 0
      vertex 13.309 -7.431 0
      vertex 12.569 -6.691 0
    endloop
  endfacet
  facet normal 0 0 -1
    outer loop
      vertex 10 0 0
      vertex 12.569 -6.691 0
      vertex 11.91 -5.878 0
    endloop
  endfacet
  facet normal 0 0 -1
    outer loop
      vertex 10 0 0
      vertex 11.91 -5.878 0
      vertex 11.34 -5 0
    endloop
  endfacet
  facet normal 0 0 -1
    outer loop
      vertex 10 0 0
      vertex 11.34 -5 0
      vertex 10.865 -4.067 0
    endloop
  endfacet
  facet normal 0 0 -1
    outer loop
      vertex 10 0 0
      vertex 10.865 -4.067 0
      vertex 10.489 -3.09 0
    endloop
  endfacet
  facet normal 0 0 -1
    outer loop
      vertex 10 0 0
      vertex 10.489 -3.09 0
      vertex 10.219 -2.079 0
    endloop
  endfacet
  facet normal 0 0 -1
    outer loop
      vertex 10 0 0
      vertex 10.219 -2.079 0
      vertex 10.055 -1.045 0
    endloop
  endfacet
  facet normal -0.987654 -0.156649 0
    outer loop
      vertex 10.219 -2.079 0
      vertex 10.219 -2.079 2
      vertex 10.055 -1.045 0
    endloop
  endfacet
  facet normal -0.987654 -0.156649 0
    outer loop
      vertex 10.055 -1.045 0
      vertex 10.219 -2.079 2
      vertex 10.055 -1.045 2
    endloop
  endfacet
  facet normal 0 0 1
    outer loop
      vertex 10 0 2
      vertex 10.055 -1.045 2
      vertex 10.219 -2.079 2
    endloop
  endfacet
  facet normal 0 0 1
    outer loop
      vertex 10.865 -4.067 2
      vertex 10 0 2
      vertex 10.489 -3.09 2
    endloop
  endfacet
  facet normal 0 0 1
    outer loop
      vertex 10.489 -3.09 2
      vertex 10 0 2
      vertex 10.219 -2.079 2
    endloop
  endfacet
  facet normal 0 0 1
    outer loop
      vertex 11.34 -5 2
      vertex 10 0 2
      vertex 10.865 -4.067 2
    endloop
  endfacet
  facet normal 0 0 1
    outer loop
      vertex 11.91 -5.878 2
      vertex 10 0 2
      vertex 11.34 -5 2
    endloop
  endfacet
  facet normal 0 0 1
    outer loop
      vertex 12.569 -6.691 2
      vertex 10 0 2
      vertex 11.91 -5.878 2
    endloop
  endfacet
  facet normal 0 0 1
    outer loop
      vertex 13.309 -7.431 2
      vertex 10 0 2
      vertex 12.569 -6.691 2
    endloop
  endfacet
  facet normal 0 0 1
    outer loop
      vertex 14.122 -8.09 2
      vertex 10 0 2
      vertex 13.309 -7.431 2
    endloop
  endfacet
  facet normal 0 0 1
    outer loop
      vertex 15 -8.66 2
      vertex 10 0 2
      vertex 14.122 -8.09 2
    endloop
  endfacet
  facet normal 0 0 1
    outer loop
      vertex 15.933 -9.135 2
      vertex 10 0 2
      vertex 15 -8.66 2
    endloop
  endfacet
  facet normal 0 0 1
    outer loop
      vertex 16.91 -9.511 2
      vertex 10 0 2
      vertex 15.933 -9.135 2
    endloop
  endfacet
  facet normal 0 0 1
    outer loop
      vertex 17.921 -9.781 2
      vertex 10 0 2
      vertex 16.91 -9.511 2
    endloop
  endfacet
  facet normal 0 0 1
    outer loop
      vertex 18.955 -9.945 2
      vertex 10 0 2
      vertex 17.921 -9.781 2
    endloop
  endfacet
  facet normal 0 0 1
    outer loop
      vertex 20 -10 2
      vertex 10 0 2
      vertex 18.955 -9.945 2
    endloop
  endfacet
  facet normal 0 0 1
    outer loop
      vertex 35 -10 2
      vertex 10 0 2
      vertex 20 -10 2
    endloop
  endfacet
  facet normal 0 0 1
    outer loop
      vertex 36.045 -9.945 2
      vertex 10 0 2
      vertex 35 -10 2
    endloop
  endfacet
  facet normal 0 0 1
    outer loop
      vertex 37.079 -9.781 2
      vertex 10 0 2
      vertex 36.045 -9.945 2
    endloop
  endfacet
  facet normal 0 0 1
    outer loop
      vertex 38.09 -9.511 2
      vertex 10 0 2
      vertex 37.079 -9.781 2
    endloop
  endfacet
  facet normal 0 0 1
    outer loop
      vertex 39.067 -9.135 2
      vertex 10 0 2
      vertex 38.09 -9.511 2
    endloop
  endfacet
  facet normal 0 0 1
    outer loop
      vertex 40 -8.66 2
      vertex 10 0 2
      vertex 39.067 -9.135 2
    endloop
  endfacet
  facet normal 0 0 1
    outer loop
      vertex 40.878 -8.09 2
      vertex 10 0 2
      vertex 40 -8.66 2
    endloop
  endfacet
  facet normal 0 0 1
    outer loop
      vertex 41.691 -7.431 2
      vertex 10 0 2
      vertex 40.878 -8.09 2
    endloop
  endfacet
  facet normal 0 0 1
    outer loop
      vertex 42.431 -6.691 2
      vertex 10 0 2
      vertex 41.691 -7.431 2
    endloop
  endfacet
  facet normal 0 0 1
    outer loop
      vertex 43.09 -5.878 2
      vertex 10 0 2
      vertex 42.431 -6.691 2
    endloop
  endfacet
  facet normal 0 0 1
    outer loop
      vertex 43.66 -5 2
      vertex 10 0 2
      vertex 43.09 -5.878 2
    endloop
  endfacet
  facet normal 0 0 1
    outer loop
      vertex 44.135 -4.067 2
      vertex 10 0 2
      vertex 43.66 -5 2
    endloop
  endfacet
  facet normal 0 0 1
    outer loop
      vertex 44.511 -3.09 2
      vertex 10 0 2
      vertex 44.135 -4.067 2
    endloop
  endfacet
  facet normal 0 0 1
    outer loop
      vertex 44.781 -2.079 2
      vertex 10 0 2
      vertex 44.511 -3.09 2
    endloop
  endfacet
  facet normal 0 0 1
    outer loop
      vertex 44.945 -1.045 2
      vertex 10 0 2
      vertex 44.781 -2.079 2
    endloop
  endfacet
  facet normal 0 0 1
    outer loop
      vertex 45 0 2
      vertex 10 0 2
      vertex 44.945 -1.045 2
    endloop
  endfacet
  facet normal 0 0 1
    outer loop
      vertex 44.945 1.045 2
      vertex 10 0 2
      vertex 45 0 2
    endloop
  endfacet
  facet normal 0 0 1
    outer loop
      vertex 44.781 2.079 2
      vertex 10 0 2
      vertex 44.945 1.045 2
    endloop
  endfacet
  facet normal 0 0 1
    outer loop
      vertex 44.511 3.09 2
      vertex 10 0 2
      vertex 44.781 2.079 2
    endloop
  endfacet
  facet normal 0 0 1
    outer loop
      vertex 44.135 4.067 2
      vertex 10 0 2
      vertex 44.511 3.09 2
    endloop
  endfacet
  facet normal 0 0 1
    outer loop
      vertex 43.66 5 2
      vertex 10 0 2
      vertex 44.135 4.067 2
    endloop
  endfacet
  facet normal 0 0 1
    outer loop
      vertex 43.09 5.878 2
      vertex 10 0 2
      vertex 43.66 5 2
    endloop
  endfacet
  facet normal 0 0 1
    outer loop
      vertex 42.431 6.691 2
      vertex 10 0 2
      vertex 43.09 5.878 2
    endloop
  endfacet
  facet normal 0 0 1
    outer loop
      vertex 41.691 7.431 2
      vertex 10 0 2
      vertex 42.431 6.691 2
    endloop
  endfacet
  facet normal 0 0 1
    outer loop
      vertex 40.878 8.09 2
      vertex 10 0 2
      vertex 41.691 7.431 2
    endloop
  endfacet
  facet normal 0 0 1
    outer loop
      vertex 40 8.66 2
      vertex 10 0 2
      vertex 40.878 8.09 2
    endloop
  endfacet
  facet normal 0 0 1
    outer loop
      vertex 39.067 9.135 2
      vertex 10 0 2
      vertex 40 8.66 2
    endloop
  endfacet
  facet normal 0 0 1
    outer loop
      vertex 38.09 9.511 2
      vertex 10 0 2
      vertex 39.067 9.135 2
    endloop
  endfacet
  facet normal 0 0 1
    outer loop
      vertex 37.079 9.781 2
      vertex 10 0 2
      vertex 38.09 9.511 2
    endloop
  endfacet
  facet normal 0 0 1
    outer loop
      vertex 36.045 9.945 2
      vertex 10 0 2
      vertex 37.079 9.781 2
    endloop
  endfacet
  facet normal 0 0 1
    outer loop
      vertex 35 10 2
      vertex 10 0 2
      vertex 36.045 9.945 2
    endloop
  endfacet
  facet normal 0 0 1
    outer loop
      vertex 20 10 2
      vertex 10 0 2
      vertex 35 10 2
    endloop
  endfacet
  facet normal 0 0 1
    outer loop
      vertex 18.955 9.945 2
      vertex 10 0 2
      vertex 20 10 2
    endloop
  endfacet
  facet normal 0 0 1
    outer loop
      vertex 17.921 9.781 2
      vertex 10 0 2
      vertex 18.955 9.945 2
    endloop
  endfacet
  facet normal 0 0 1
    outer loop
      vertex 16.91 9.511 2
      vertex 10 0 2
      vertex 17.921 9.781 2
    endloop
  endfacet
  facet normal 0 0 1
    outer loop
      vertex 15.933 9.135 2
      vertex 10 0 2
      vertex 16.91 9.511 2
    endloop
  endfacet
  facet normal 0 0 1
    outer loop
      vertex 15 8.66 2
      vertex 10 0 2
      vertex 15.933 9.135 2
    endloop
  endfacet
  facet normal 0 0 1
    outer loop
      vertex 14.122 8.09 2
      vertex 10 0 2
      vertex 15 8.66 2
    endloop
  endfacet
  facet normal 0 0 1
    outer loop
      vertex 13.309 7.431 2
      vertex 10 0 2
      vertex 14.122 8.09 2
    endloop
  endfacet
  facet normal 0 0 1
    outer loop
      vertex 12.569 6.691 2
      vertex 10 0 2
      vertex 13.309 7.431 2
    endloop
  endfacet
  facet normal 0 0 1
    outer loop
      vertex 11.91 5.878 2
      vertex 10 0 2
      vertex 12.569 6.691 2
    endloop
  endfacet
  facet normal 0 0 1
    outer loop
      vertex 11.34 5 2
      vertex 10 0 2
      vertex 11.91 5.878 2
    endloop
  endfacet
  facet normal 0 0 1
    outer loop
      vertex 10.865 4.067 2
      vertex 10 0 2
      vertex 11.34 5 2
    endloop
  endfacet
  facet normal 0 0 1
    outer loop
      vertex 10.489 3.09 2
      vertex 10 0 2
      vertex 10.865 4.067 2
    endloop
  endfacet
  facet normal 0 0 1
    outer loop
      vertex 10.219 2.079 2
      vertex 10 0 2
      vertex 10.489 3.09 2
    endloop
  endfacet
  facet normal 0 0 1
    outer loop
      vertex 10.055 1.045 2
      vertex 10 0 2
      vertex 10.219 2.079 2
    endloop
  endfacet
  facet normal -0.933272 -0.359171 0
    outer loop
      vertex 10.865 -4.067 0
      vertex 10.865 -4.067 2
      vertex 10.489 -3.09 0
    endloop
  endfacet
  facet normal -0.933272 -0.359171 0
    outer loop
      vertex 10.489 -3.09 0
      vertex 10.865 -4.067 2
      vertex 10.489 -3.09 2
    endloop
  endfacet
  facet normal -0.998618 -0.0525588 0
    outer loop
      vertex 10.055 -1.045 0
      vertex 10.055 -1.045 2
      vertex 10 0 0
    endloop
  endfacet
  facet normal -0.998618 -0.0525588 0
    outer loop
      vertex 10 0 0
      vertex 10.055 -1.045 2
      vertex 10 0 2
    endloop
  endfacet
  facet normal -0.998618 0.0525588 0
    outer loop
      vertex 10 0 2
      vertex 10.055 1.045 2
      vertex 10 0 0
    endloop
  endfacet
  facet normal -0.998618 0.0525588 0
    outer loop
      vertex 10 0 0
      vertex 10.055 1.045 2
      vertex 10.055 1.045 0
    endloop
  endfacet
  facet normal -0.891156 -0.453697 0
    outer loop
      vertex 11.34 -5 0
      vertex 11.34 -5 2
      vertex 10.865 -4.067 0
    endloop
  endfacet
  facet normal -0.891156 -0.453697 0
    outer loop
      vertex 10.865 -4.067 0
      vertex 11.34 -5 2
      vertex 10.865 -4.067 2
    endloop
  endfacet
  facet normal -0.838749 -0.544518 0
    outer loop
      vertex 11.91 -5.878 0
      vertex 11.91 -5.878 2
      vertex 11.34 -5 0
    endloop
  endfacet
  facet normal -0.838749 -0.544518 0
    outer loop
      vertex 11.34 -5 0
      vertex 11.91 -5.878 2
      vertex 11.34 -5 2
    endloop
  endfacet
  facet normal -0.776844 -0.629693 0
    outer loop
      vertex 12.569 -6.691 0
      vertex 12.569 -6.691 2
      vertex 11.91 -5.878 0
    endloop
  endfacet
  facet normal -0.776844 -0.629693 0
    outer loop
      vertex 11.91 -5.878 0
      vertex 12.569 -6.691 2
      vertex 11.91 -5.878 2
    endloop
  endfacet
  facet normal -0.707107 -0.707107 0
    outer loop
      vertex 12.569 -6.691 0
      vertex 13.309 -7.431 0
      vertex 13.309 -7.431 2
    endloop
  endfacet
  facet normal -0.707107 -0.707107 0
    outer loop
      vertex 12.569 -6.691 2
      vertex 12.569 -6.691 0
      vertex 13.309 -7.431 2
    endloop
  endfacet
  facet normal -0.629693 -0.776844 0
    outer loop
      vertex 13.309 -7.431 0
      vertex 14.122 -8.09 0
      vertex 14.122 -8.09 2
    endloop
  endfacet
  facet normal -0.629693 -0.776844 0
    outer loop
      vertex 13.309 -7.431 2
      vertex 13.309 -7.431 0
      vertex 14.122 -8.09 2
    endloop
  endfacet
  facet normal -0.544518 -0.838749 0
    outer loop
      vertex 14.122 -8.09 0
      vertex 15 -8.66 0
      vertex 15 -8.66 2
    endloop
  endfacet
  facet normal -0.544518 -0.838749 0
    outer loop
      vertex 14.122 -8.09 2
      vertex 14.122 -8.09 0
      vertex 15 -8.66 2
    endloop
  endfacet
  facet normal -0.453697 -0.891156 0
    outer loop
      vertex 15 -8.66 0
      vertex 15.933 -9.135 0
      vertex 15.933 -9.135 2
    endloop
  endfacet
  facet normal -0.453697 -0.891156 0
    outer loop
      vertex 15 -8.66 2
      vertex 15 -8.66 0
      vertex 15.933 -9.135 2
    endloop
  endfacet
  facet normal -0.359171 -0.933272 0
    outer loop
      vertex 15.933 -9.135 0
      vertex 16.91 -9.511 0
      vertex 16.91 -9.511 2
    endloop
  endfacet
  facet normal -0.359171 -0.933272 0
    outer loop
      vertex 15.933 -9.135 2
      vertex 15.933 -9.135 0
      vertex 16.91 -9.511 2
    endloop
  endfacet
  facet normal -0.25802 -0.96614 0
    outer loop
      vertex 16.91 -9.511 0
      vertex 17.921 -9.781 0
      vertex 17.921 -9.781 2
    endloop
  endfacet
  facet normal -0.25802 -0.96614 0
    outer loop
      vertex 16.91 -9.511 2
      vertex 16.91 -9.511 0
      vertex 17.921 -9.781 2
    endloop
  endfacet
  facet normal -0.156649 -0.987654 0
    outer loop
      vertex 17.921 -9.781 0
      vertex 18.955 -9.945 0
      vertex 18.955 -9.945 2
    endloop
  endfacet
  facet normal -0.156649 -0.987654 0
    outer loop
      vertex 17.921 -9.781 2
      vertex 17.921 -9.781 0
      vertex 18.955 -9.945 2
    endloop
  endfacet
  facet normal -0.0525588 -0.998618 0
    outer loop
      vertex 18.955 -9.945 0
      vertex 20 -10 0
      vertex 20 -10 2
    endloop
  endfacet
  facet normal -0.0525588 -0.998618 0
    outer loop
      vertex 18.955 -9.945 2
      vertex 18.955 -9.945 0
      vertex 20 -10 2
    endloop
  endfacet
  facet normal 0 -1 0
    outer loop
      vertex 20 -10 0
      vertex 35 -10 0
      vertex 35 -10 2
    endloop
  endfacet
  facet normal 0 -1 0
    outer loop
      vertex 20 -10 2
      vertex 20 -10 0
      vertex 35 -10 2
    endloop
  endfacet
  facet normal 0.0525588 -0.998618 0
    outer loop
      vertex 35 -10 0
      vertex 36.045 -9.945 0
      vertex 36.045 -9.945 2
    endloop
  endfacet
  facet normal 0.0525588 -0.998618 0
    outer loop
      vertex 35 -10 2
      vertex 35 -10 0
      vertex 36.045 -9.945 2
    endloop
  endfacet
  facet normal 0.156649 -0.987654 0
    outer loop
      vertex 36.045 -9.945 0
      vertex 37.079 -9.781 0
      vertex 37.079 -9.781 2
    endloop
  endfacet
  facet normal 0.156649 -0.987654 0
    outer loop
      vertex 36.045 -9.945 2
      vertex 36.045 -9.945 0
      vertex 37.079 -9.781 2
    endloop
  endfacet
  facet normal 0.25802 -0.96614 0
    outer loop
      vertex 37.079 -9.781 0
      vertex 38.09 -9.511 0
      vertex 38.09 -9.511 2
    endloop
  endfacet
  facet normal 0.25802 -0.96614 0
    outer loop
      vertex 37.079 -9.781 2
      vertex 37.079 -9.781 0
      vertex 38.09 -9.511 2
    endloop
  endfacet
  facet normal 0.359171 -0.933272 0
    outer loop
      vertex 38.09 -9.511 0
      vertex 39.067 -9.135 0
      vertex 39.067 -9.135 2
    endloop
  endfacet
  facet normal 0.359171 -0.933272 0
    outer loop
      vertex 38.09 -9.511 2
      vertex 38.09 -9.511 0
      vertex 39.067 -9.135 2
    endloop
  endfacet
  facet normal 0.453697 -0.891156 0
    outer loop
      vertex 39.067 -9.135 0
      vertex 40 -8.66 0
      vertex 40 -8.66 2
    endloop
  endfacet
  facet normal 0.453697 -0.891156 0
    outer loop
      vertex 39.067 -9.135 2
      vertex 39.067 -9.135 0
      vertex 40 -8.66 2
    endloop
  endfacet
  facet normal 0.544518 -0.838749 0
    outer loop
      vertex 40 -8.66 0
      vertex 40.878 -8.09 0
      vertex 40.878 -8.09 2
    endloop
  endfacet
  facet normal 0.544518 -0.838749 0
    outer loop
      vertex 40 -8.66 2
      vertex 40 -8.66 0
      vertex 40.878 -8.09 2
    endloop
  endfacet
  facet normal 0.629693 -0.776844 0
    outer loop
      vertex 40.878 -8.09 0
      vertex 41.691 -7.431 0
      vertex 41.691 -7.431 2
    endloop
  endfacet
  facet normal 0.629693 -0.776844 0
    outer loop
      vertex 40.878 -8.09 2
      vertex 40.878 -8.09 0
      vertex 41.691 -7.431 2
    endloop
  endfacet
  facet normal 0.707107 -0.707107 0
    outer loop
      vertex 41.691 -7.431 0
      vertex 42.431 -6.691 0
      vertex 42.431 -6.691 2
    endloop
  endfacet
  facet normal 0.707107 -0.707107 0
    outer loop
      vertex 41.691 -7.431 2
      vertex 41.691 -7.431 0
      vertex 42.431 -6.691 2
    endloop
  endfacet
  facet normal 0.776844 -0.629693 0
    outer loop
      vertex 42.431 -6.691 0
      vertex 43.09 -5.878 0
      vertex 43.09 -5.878 2
    endloop
  endfacet
  facet normal 0.776844 -0.629693 0
    outer loop
      vertex 42.431 -6.691 2
      vertex 42.431 -6.691 0
      vertex 43.09 -5.878 2
    endloop
  endfacet
  facet normal 0.838749 -0.544518 0
    outer loop
      vertex 43.09 -5.878 0
      vertex 43.66 -5 0
      vertex 43.66 -5 2
    endloop
  endfacet
  facet normal 0.838749 -0.544518 0
    outer loop
      vertex 43.09 -5.878 2
      vertex 43.09 -5.878 0
      vertex 43.66 -5 2
    endloop
  endfacet
  facet normal 0.891156 -0.453697 0
    outer loop
      vertex 43.66 -5 0
      vertex 44.135 -4.067 0
      vertex 44.135 -4.067 2
    endloop
  endfacet
  facet normal 0.891156 -0.453697 0
    outer loop
      vertex 43.66 -5 2
      vertex 43.66 -5 0
      vertex 44.135 -4.067 2
    endloop
  endfacet
  facet normal 0.933272 -0.359171 0
    outer loop
      vertex 44.135 -4.067 0
      vertex 44.511 -3.09 0
      vertex 44.511 -3.09 2
    endloop
  endfacet
  facet normal 0.933272 -0.359171 0
    outer loop
      vertex 44.135 -4.067 2
      vertex 44.135 -4.067 0
      vertex 44.511 -3.09 2
    endloop
  endfacet
  facet normal 0.96614 -0.25802 0
    outer loop
      vertex 44.511 -3.09 0
      vertex 44.781 -2.079 0
      vertex 44.781 -2.079 2
    endloop
  endfacet
  facet normal 0.96614 -0.25802 0
    outer loop
      vertex 44.511 -3.09 2
      vertex 44.511 -3.09 0
      vertex 44.781 -2.079 2
    endloop
  endfacet
  facet normal 0.987654 -0.156649 0
    outer loop
      vertex 44.781 -2.079 0
      vertex 44.945 -1.045 0
      vertex 44.945 -1.045 2
    endloop
  endfacet
  facet normal 0.987654 -0.156649 0
    outer loop
      vertex 44.781 -2.079 2
      vertex 44.781 -2.079 0
      vertex 44.945 -1.045 2
    endloop
  endfacet
  facet normal 0.998618 -0.0525588 0
    outer loop
      vertex 44.945 -1.045 0
      vertex 45 0 0
      vertex 45 0 2
    endloop
  endfacet
  facet normal 0.998618 -0.0525588 0
    outer loop
      vertex 44.945 -1.045 2
      vertex 44.945 -1.045 0
      vertex 45 0 2
    endloop
  endfacet
  facet normal 0.998618 0.0525588 0
    outer loop
      vertex 44.945 1.045 0
      vertex 44.945 1.045 2
      vertex 45 0 2
    endloop
  endfacet
  facet normal 0.998618 0.0525588 0
    outer loop
      vertex 45 0 0
      vertex 44.945 1.045 0
      vertex 45 0 2
    endloop
  endfacet
  facet normal 0.987654 0.156649 0
    outer loop
      vertex 44.781 2.079 0
      vertex 44.781 2.079 2
      vertex 44.945 1.045 2
    endloop
  endfacet
  facet normal 0.987654 0.156649 0
    outer loop
      vertex 44.945 1.045 0
      vertex 44.781 2.079 0
      vertex 44.945 1.045 2
    endloop
  endfacet
  facet normal 0.96614 0.25802 0
    outer loop
      vertex 44.511 3.09 0
      vertex 44.511 3.09 2
      vertex 44.781 2.079 2
    endloop
  endfacet
  facet normal 0.96614 0.25802 0
    outer loop
      vertex 44.781 2.079 0
      vertex 44.511 3.09 0
      vertex 44.781 2.079 2
    endloop
  endfacet
  facet normal 0.933272 0.359171 0
    outer loop
      vertex 44.135 4.067 0
      vertex 44.135 4.067 2
      vertex 44.511 3.09 2
    endloop
  endfacet
  facet normal 0.933272 0.359171 0
    outer loop
      vertex 44.511 3.09 0
      vertex 44.135 4.067 0
      vertex 44.511 3.09 2
    endloop
  endfacet
  facet normal 0.891156 0.453697 0
    outer loop
      vertex 43.66 5 0
      vertex 43.66 5 2
      vertex 44.135 4.067 2
    endloop
  endfacet
  facet normal 0.891156 0.453697 0
    outer loop
      vertex 44.135 4.067 0
      vertex 43.66 5 0
      vertex 44.135 4.067 2
    endloop
  endfacet
  facet normal 0.838749 0.544518 0
    outer loop
      vertex 43.09 5.878 0
      vertex 43.09 5.878 2
      vertex 43.66 5 2
    endloop
  endfacet
  facet normal 0.838749 0.544518 0
    outer loop
      vertex 43.66 5 0
      vertex 43.09 5.878 0
      vertex 43.66 5 2
    endloop
  endfacet
  facet normal 0.776844 0.629693 0
    outer loop
      vertex 42.431 6.691 0
      vertex 42.431 6.691 2
      vertex 43.09 5.878 2
    endloop
  endfacet
  facet normal 0.776844 0.629693 0
    outer loop
      vertex 43.09 5.878 0
      vertex 42.431 6.691 0
      vertex 43.09 5.878 2
    endloop
  endfacet
  facet normal 0.707107 0.707107 0
    outer loop
      vertex 41.691 7.431 0
      vertex 41.691 7.431 2
      vertex 42.431 6.691 2
    endloop
  endfacet
  facet normal 0.707107 0.707107 0
    outer loop
      vertex 42.431 6.691 0
      vertex 41.691 7.431 0
      vertex 42.431 6.691 2
    endloop
  endfacet
  facet normal 0.629693 0.776844 0
    outer loop
      vertex 40.878 8.09 2
      vertex 41.691 7.431 2
      vertex 40.878 8.09 0
    endloop
  endfacet
  facet normal 0.629693 0.776844 0
    outer loop
      vertex 40.878 8.09 0
      vertex 41.691 7.431 2
      vertex 41.691 7.431 0
    endloop
  endfacet
  facet normal 0.544518 0.838749 0
    outer loop
      vertex 40 8.66 2
      vertex 40.878 8.09 2
      vertex 40 8.66 0
    endloop
  endfacet
  facet normal 0.544518 0.838749 0
    outer loop
      vertex 40 8.66 0
      vertex 40.878 8.09 2
      vertex 40.878 8.09 0
    endloop
  endfacet
  facet normal 0.453697 0.891156 0
    outer loop
      vertex 39.067 9.135 2
      vertex 40 8.66 2
      vertex 39.067 9.135 0
    endloop
  endfacet
  facet normal 0.453697 0.891156 0
    outer loop
      vertex 39.067 9.135 0
      vertex 40 8.66 2
      vertex 40 8.66 0
    endloop
  endfacet
  facet normal 0.359171 0.933272 0
    outer loop
      vertex 38.09 9.511 2
      vertex 39.067 9.135 2
      vertex 38.09 9.511 0
    endloop
  endfacet
  facet normal 0.359171 0.933272 0
    outer loop
      vertex 38.09 9.511 0
      vertex 39.067 9.135 2
      vertex 39.067 9.135 0
    endloop
  endfacet
  facet normal 0.25802 0.96614 0
    outer loop
      vertex 37.079 9.781 2
      vertex 38.09 9.511 2
      vertex 37.079 9.781 0
    endloop
  endfacet
  facet normal 0.25802 0.96614 0
    outer loop
      vertex 37.079 9.781 0
      vertex 38.09 9.511 2
      vertex 38.09 9.511 0
    endloop
  endfacet
  facet normal 0.156649 0.987654 0
    outer loop
      vertex 36.045 9.945 2
      vertex 37.079 9.781 2
      vertex 36.045 9.945 0
    endloop
  endfacet
  facet normal 0.156649 0.987654 0
    outer loop
      vertex 36.045 9.945 0
      vertex 37.079 9.781 2
      vertex 37.079 9.781 0
    endloop
  endfacet
  facet normal 0.0525588 0.998618 0
    outer loop
      vertex 35 10 2
      vertex 36.045 9.945 2
      vertex 35 10 0
    endloop
  endfacet
  facet normal 0.0525588 0.998618 0
    outer loop
      vertex 35 10 0
      vertex 36.045 9.945 2
      vertex 36.045 9.945 0
    endloop
  endfacet
  facet normal 0 1 0
    outer loop
      vertex 20 10 2
      vertex 35 10 2
      vertex 20 10 0
    endloop
  endfacet
  facet normal 0 1 0
    outer loop
      vertex 20 10 0
      vertex 35 10 2
      vertex 35 10 0
    endloop
  endfacet
  facet normal -0.0525588 0.998618 0
    outer loop
      vertex 18.955 9.945 2
      vertex 20 10 2
      vertex 18.955 9.945 0
    endloop
  endfacet
  facet normal -0.0525588 0.998618 0
    outer loop
      vertex 18.955 9.945 0
      vertex 20 10 2
      vertex 20 10 0
    endloop
  endfacet
  facet normal -0.156649 0.987654 0
    outer loop
      vertex 17.921 9.781 2
      vertex 18.955 9.945 2
      vertex 17.921 9.781 0
    endloop
  endfacet
  facet normal -0.156649 0.987654 0
    outer loop
      vertex 17.921 9.781 0
      vertex 18.955 9.945 2
      vertex 18.955 9.945 0
    endloop
  endfacet
  facet normal -0.25802 0.96614 0
    outer loop
      vertex 16.91 9.511 2
      vertex 17.921 9.781 2
      vertex 16.91 9.511 0
    endloop
  endfacet
  facet normal -0.25802 0.96614 0
    outer loop
      vertex 16.91 9.511 0
      vertex 17.921 9.781 2
      vertex 17.921 9.781 0
    endloop
  endfacet
  facet normal -0.359171 0.933272 0
    outer loop
      vertex 15.933 9.135 2
      vertex 16.91 9.511 2
      vertex 15.933 9.135 0
    endloop
  endfacet
  facet normal -0.359171 0.933272 0
    outer loop
      vertex 15.933 9.135 0
      vertex 16.91 9.511 2
      vertex 16.91 9.511 0
    endloop
  endfacet
  facet normal -0.453697 0.891156 0
    outer loop
      vertex 15 8.66 2
      vertex 15.933 9.135 2
      vertex 15 8.66 0
    endloop
  endfacet
  facet normal -0.453697 0.891156 0
    outer loop
      vertex 15 8.66 0
      vertex 15.933 9.135 2
      vertex 15.933 9.135 0
    endloop
  endfacet
  facet normal -0.544518 0.838749 0
    outer loop
      vertex 14.122 8.09 2
      vertex 15 8.66 2
      vertex 14.122 8.09 0
    endloop
  endfacet
  facet normal -0.544518 0.838749 0
    outer loop
      vertex 14.122 8.09 0
      vertex 15 8.66 2
      vertex 15 8.66 0
    endloop
  endfacet
  facet normal -0.629693 0.776844 0
    outer loop
      vertex 13.309 7.431 2
      vertex 14.122 8.09 2
      vertex 13.309 7.431 0
    endloop
  endfacet
  facet normal -0.629693 0.776844 0
    outer loop
      vertex 13.309 7.431 0
      vertex 14.122 8.09 2
      vertex 14.122 8.09 0
    endloop
  endfacet
  facet normal -0.707107 0.707107 0
    outer loop
      vertex 12.569 6.691 2
      vertex 13.309 7.431 2
      vertex 12.569 6.691 0
    endloop
  endfacet
  facet normal -0.707107 0.707107 0
    outer loop
      vertex 12.569 6.691 0
      vertex 13.309 7.431 2
      vertex 13.309 7.431 0
    endloop
  endfacet
  facet normal -0.776844 0.629693 0
    outer loop
      vertex 11.91 5.878 2
      vertex 12.569 6.691 2
      vertex 11.91 5.878 0
    endloop
  endfacet
  facet normal -0.776844 0.629693 0
    outer loop
      vertex 11.91 5.878 0
      vertex 12.569 6.691 2
      vertex 12.569 6.691 0
    endloop
  endfacet
  facet normal -0.838749 0.544518 0
    outer loop
      vertex 11.34 5 2
      vertex 11.91 5.878 2
      vertex 11.34 5 0
    endloop
  endfacet
  facet normal -0.838749 0.544518 0
    outer loop
      vertex 11.34 5 0
      vertex 11.91 5.878 2
      vertex 11.91 5.878 0
    endloop
  endfacet
  facet normal -0.891156 0.453697 0
    outer loop
      vertex 10.865 4.067 2
      vertex 11.34 5 2
      vertex 10.865 4.067 0
    endloop
  endfacet
  facet normal -0.891156 0.453697 0
    outer loop
      vertex 10.865 4.067 0
      vertex 11.34 5 2
      vertex 11.34 5 0
    endloop
  endfacet
  facet normal -0.933272 0.359171 0
    outer loop
      vertex 10.489 3.09 2
      vertex 10.865 4.067 2
      vertex 10.489 3.09 0
    endloop
  endfacet
  facet normal -0.933272 0.359171 0
    outer loop
      vertex 10.489 3.09 0
      vertex 10.865 4.067 2
      vertex 10.865 4.067 0
    endloop
  endfacet
  facet normal -0.96614 0.25802 0
    outer loop
      vertex 10.219 2.079 2
      vertex 10.489 3.09 2
      vertex 10.219 2.079 0
    endloop
  endfacet
  facet normal -0.96614 0.25802 0
    outer loop
      vertex 10.219 2.079 0
      vertex 10.489 3.09 2
      vertex 10.489 3.09 0
    endloop
  endfacet
  facet normal -0.987654 0.156649 0
    outer loop
      vertex 10.055 1.045 2
      vertex 10.219 2.079 2
      vertex 10.055 1.045 0
    endloop
  endfacet
  facet normal -0.987654 0.156649 0
    outer loop
      vertex 10.055 1.045 0
      vertex 10.219 2.079 2
      vertex 10.219 2.079 0
    endloop
  endfacet
endsolid OpenSCAD_Model
