G04 (created by PCBNEW (2013-june-11)-stable) date dom 09 feb 2014 10:49:42 CET*
%MOIN*%
G04 Gerber Fmt 3.4, Leading zero omitted, Abs format*
%FSLAX34Y34*%
G01*
G70*
G90*
G04 APERTURE LIST*
%ADD10C,0.00393701*%
%ADD11C,0.00984252*%
%ADD12C,0.015*%
%ADD13C,0.00787402*%
%ADD14C,0.00590551*%
%ADD15C,0.019685*%
%ADD16C,0.0393701*%
%ADD17C,0.00688976*%
%ADD18C,0.008*%
%ADD19C,0.012*%
%ADD20C,0.006*%
%ADD21C,0.01*%
%ADD22C,0.005*%
%ADD23C,0.0026*%
%ADD24C,0.007*%
%ADD25C,0.01125*%
%ADD26C,0.00885827*%
G04 APERTURE END LIST*
G54D10*
G54D11*
X27624Y-15196D02*
X27642Y-15158D01*
X27699Y-15121D01*
X27736Y-15121D01*
X27792Y-15158D01*
X27830Y-15233D01*
X27849Y-15308D01*
X27867Y-15458D01*
X27867Y-15571D01*
X27849Y-15721D01*
X27830Y-15796D01*
X27792Y-15871D01*
X27736Y-15908D01*
X27699Y-15908D01*
X27642Y-15871D01*
X27624Y-15833D01*
X27230Y-15196D02*
X27249Y-15158D01*
X27305Y-15121D01*
X27342Y-15121D01*
X27399Y-15158D01*
X27436Y-15233D01*
X27455Y-15308D01*
X27474Y-15458D01*
X27474Y-15571D01*
X27455Y-15721D01*
X27436Y-15796D01*
X27399Y-15871D01*
X27342Y-15908D01*
X27305Y-15908D01*
X27249Y-15871D01*
X27230Y-15833D01*
X27061Y-15421D02*
X26761Y-15421D01*
X26443Y-15533D02*
X26386Y-15496D01*
X26368Y-15458D01*
X26349Y-15383D01*
X26349Y-15271D01*
X26368Y-15196D01*
X26386Y-15158D01*
X26424Y-15121D01*
X26574Y-15121D01*
X26574Y-15908D01*
X26443Y-15908D01*
X26405Y-15871D01*
X26386Y-15833D01*
X26368Y-15758D01*
X26368Y-15683D01*
X26386Y-15608D01*
X26405Y-15571D01*
X26443Y-15533D01*
X26574Y-15533D01*
X26105Y-15496D02*
X26105Y-15121D01*
X26236Y-15908D02*
X26105Y-15496D01*
X25974Y-15908D01*
X25843Y-15421D02*
X25543Y-15421D01*
X25374Y-15158D02*
X25318Y-15121D01*
X25224Y-15121D01*
X25187Y-15158D01*
X25168Y-15196D01*
X25149Y-15271D01*
X25149Y-15346D01*
X25168Y-15421D01*
X25187Y-15458D01*
X25224Y-15496D01*
X25299Y-15533D01*
X25337Y-15571D01*
X25355Y-15608D01*
X25374Y-15683D01*
X25374Y-15758D01*
X25355Y-15833D01*
X25337Y-15871D01*
X25299Y-15908D01*
X25205Y-15908D01*
X25149Y-15871D01*
X24999Y-15346D02*
X24812Y-15346D01*
X25037Y-15121D02*
X24905Y-15908D01*
X24774Y-15121D01*
G54D12*
X25280Y-16320D02*
X30380Y-16320D01*
X24980Y-16620D02*
X30680Y-16620D01*
X24980Y-18320D02*
X24980Y-16620D01*
X30680Y-18320D02*
X24980Y-18320D01*
X30680Y-16620D02*
X30680Y-18320D01*
G54D13*
X24120Y-17015D02*
X24514Y-17015D01*
X24233Y-17120D01*
X24514Y-17225D01*
X24120Y-17225D01*
X24120Y-17510D02*
X24326Y-17510D01*
X24364Y-17495D01*
X24383Y-17465D01*
X24383Y-17405D01*
X24364Y-17375D01*
X24139Y-17510D02*
X24120Y-17480D01*
X24120Y-17405D01*
X24139Y-17375D01*
X24176Y-17360D01*
X24214Y-17360D01*
X24251Y-17375D01*
X24270Y-17405D01*
X24270Y-17480D01*
X24289Y-17510D01*
X24120Y-17630D02*
X24383Y-17795D01*
X24383Y-17630D02*
X24120Y-17795D01*
X24158Y-17915D02*
X24139Y-17930D01*
X24120Y-17915D01*
X24139Y-17900D01*
X24158Y-17915D01*
X24120Y-17915D01*
X24364Y-17915D02*
X24345Y-17930D01*
X24326Y-17915D01*
X24345Y-17900D01*
X24364Y-17915D01*
X24326Y-17915D01*
X24476Y-18289D02*
X24495Y-18304D01*
X24514Y-18334D01*
X24514Y-18409D01*
X24495Y-18439D01*
X24476Y-18454D01*
X24439Y-18469D01*
X24401Y-18469D01*
X24345Y-18454D01*
X24120Y-18274D01*
X24120Y-18469D01*
X24514Y-18664D02*
X24514Y-18694D01*
X24495Y-18724D01*
X24476Y-18739D01*
X24439Y-18754D01*
X24364Y-18769D01*
X24270Y-18769D01*
X24195Y-18754D01*
X24158Y-18739D01*
X24139Y-18724D01*
X24120Y-18694D01*
X24120Y-18664D01*
X24139Y-18634D01*
X24158Y-18619D01*
X24195Y-18604D01*
X24270Y-18589D01*
X24364Y-18589D01*
X24439Y-18604D01*
X24476Y-18619D01*
X24495Y-18634D01*
X24514Y-18664D01*
X24514Y-18859D02*
X24120Y-18964D01*
X24514Y-19069D01*
G54D14*
X24939Y-11819D02*
X24913Y-11805D01*
X24874Y-11805D01*
X24834Y-11819D01*
X24808Y-11845D01*
X24795Y-11871D01*
X24782Y-11924D01*
X24782Y-11963D01*
X24795Y-12015D01*
X24808Y-12042D01*
X24834Y-12068D01*
X24874Y-12081D01*
X24900Y-12081D01*
X24939Y-12068D01*
X24953Y-12055D01*
X24953Y-11963D01*
X24900Y-11963D01*
G54D15*
X33217Y-20113D02*
X32954Y-20113D01*
X32842Y-19701D02*
X33217Y-19701D01*
X33217Y-20488D01*
X32842Y-20488D01*
X32504Y-19701D02*
X32504Y-20488D01*
X32205Y-20488D01*
X32130Y-20451D01*
X32092Y-20413D01*
X32055Y-20338D01*
X32055Y-20226D01*
X32092Y-20151D01*
X32130Y-20113D01*
X32205Y-20076D01*
X32504Y-20076D01*
X31755Y-19738D02*
X31642Y-19701D01*
X31455Y-19701D01*
X31380Y-19738D01*
X31342Y-19776D01*
X31305Y-19851D01*
X31305Y-19926D01*
X31342Y-20001D01*
X31380Y-20038D01*
X31455Y-20076D01*
X31605Y-20113D01*
X31680Y-20151D01*
X31717Y-20188D01*
X31755Y-20263D01*
X31755Y-20338D01*
X31717Y-20413D01*
X31680Y-20451D01*
X31605Y-20488D01*
X31417Y-20488D01*
X31305Y-20451D01*
X33292Y-19189D02*
X33292Y-18552D01*
X33254Y-18477D01*
X33217Y-18439D01*
X33142Y-18402D01*
X32992Y-18402D01*
X32917Y-18439D01*
X32879Y-18477D01*
X32842Y-18552D01*
X32842Y-19189D01*
X32504Y-18627D02*
X32130Y-18627D01*
X32579Y-18402D02*
X32317Y-19189D01*
X32055Y-18402D01*
X31792Y-18402D02*
X31792Y-19189D01*
X31530Y-18627D01*
X31267Y-19189D01*
X31267Y-18402D01*
G54D14*
X48648Y-23293D02*
X48667Y-23293D01*
X48694Y-23302D01*
X48741Y-23349D01*
X48750Y-23377D01*
X48750Y-23395D01*
X48741Y-23423D01*
X48722Y-23442D01*
X48685Y-23460D01*
X48462Y-23460D01*
X48583Y-23581D01*
X48667Y-23664D02*
X48861Y-23469D01*
X48778Y-23776D01*
X48973Y-23581D01*
X49038Y-23683D02*
X49056Y-23683D01*
X49084Y-23692D01*
X49131Y-23739D01*
X49140Y-23766D01*
X49140Y-23785D01*
X49131Y-23813D01*
X49112Y-23831D01*
X49075Y-23850D01*
X48852Y-23850D01*
X48973Y-23971D01*
X49223Y-23868D02*
X49242Y-23868D01*
X49270Y-23878D01*
X49316Y-23924D01*
X49325Y-23952D01*
X49325Y-23971D01*
X49316Y-23998D01*
X49298Y-24017D01*
X49260Y-24035D01*
X49038Y-24035D01*
X49158Y-24156D01*
X49409Y-24054D02*
X49427Y-24054D01*
X49455Y-24063D01*
X49502Y-24110D01*
X49511Y-24138D01*
X49511Y-24156D01*
X49502Y-24184D01*
X49483Y-24203D01*
X49446Y-24221D01*
X49223Y-24221D01*
X49344Y-24342D01*
X49595Y-24240D02*
X49613Y-24240D01*
X49641Y-24249D01*
X49687Y-24295D01*
X49697Y-24323D01*
X49697Y-24342D01*
X49687Y-24370D01*
X49669Y-24388D01*
X49632Y-24407D01*
X49409Y-24407D01*
X49530Y-24527D01*
G54D16*
X49980Y-25720D02*
X49980Y-25420D01*
G54D12*
X49980Y-25220D02*
X49980Y-25920D01*
X51146Y-26720D02*
G75*
G03X51146Y-26720I-1166J0D01*
G74*
G01*
G54D14*
X50991Y-25553D02*
X50715Y-25553D01*
X50991Y-25395D01*
X50715Y-25395D01*
X50991Y-25224D02*
X50978Y-25251D01*
X50965Y-25264D01*
X50939Y-25277D01*
X50860Y-25277D01*
X50834Y-25264D01*
X50820Y-25251D01*
X50807Y-25224D01*
X50807Y-25185D01*
X50820Y-25159D01*
X50834Y-25146D01*
X50860Y-25133D01*
X50939Y-25133D01*
X50965Y-25146D01*
X50978Y-25159D01*
X50991Y-25185D01*
X50991Y-25224D01*
X50978Y-25028D02*
X50991Y-25001D01*
X50991Y-24949D01*
X50978Y-24923D01*
X50952Y-24910D01*
X50939Y-24910D01*
X50912Y-24923D01*
X50899Y-24949D01*
X50899Y-24988D01*
X50886Y-25015D01*
X50860Y-25028D01*
X50847Y-25028D01*
X50820Y-25015D01*
X50807Y-24988D01*
X50807Y-24949D01*
X50820Y-24923D01*
X50978Y-24686D02*
X50991Y-24713D01*
X50991Y-24765D01*
X50978Y-24791D01*
X50952Y-24805D01*
X50847Y-24805D01*
X50820Y-24791D01*
X50807Y-24765D01*
X50807Y-24713D01*
X50820Y-24686D01*
X50847Y-24673D01*
X50873Y-24673D01*
X50899Y-24805D01*
X51378Y-27769D02*
X51391Y-27729D01*
X51391Y-27664D01*
X51378Y-27638D01*
X51365Y-27624D01*
X51339Y-27611D01*
X51312Y-27611D01*
X51286Y-27624D01*
X51273Y-27638D01*
X51260Y-27664D01*
X51247Y-27716D01*
X51234Y-27743D01*
X51220Y-27756D01*
X51194Y-27769D01*
X51168Y-27769D01*
X51142Y-27756D01*
X51129Y-27743D01*
X51115Y-27716D01*
X51115Y-27651D01*
X51129Y-27611D01*
X51286Y-27493D02*
X51286Y-27283D01*
X51391Y-27388D02*
X51181Y-27388D01*
X48778Y-27769D02*
X48791Y-27729D01*
X48791Y-27664D01*
X48778Y-27638D01*
X48765Y-27624D01*
X48739Y-27611D01*
X48712Y-27611D01*
X48686Y-27624D01*
X48673Y-27638D01*
X48660Y-27664D01*
X48647Y-27716D01*
X48634Y-27743D01*
X48620Y-27756D01*
X48594Y-27769D01*
X48568Y-27769D01*
X48542Y-27756D01*
X48529Y-27743D01*
X48515Y-27716D01*
X48515Y-27651D01*
X48529Y-27611D01*
X48686Y-27493D02*
X48686Y-27283D01*
X48791Y-26069D02*
X48515Y-26069D01*
X48647Y-26069D02*
X48647Y-25911D01*
X48791Y-25911D02*
X48515Y-25911D01*
X48686Y-25780D02*
X48686Y-25570D01*
X51391Y-26069D02*
X51115Y-26069D01*
X51247Y-26069D02*
X51247Y-25911D01*
X51391Y-25911D02*
X51115Y-25911D01*
X51286Y-25780D02*
X51286Y-25570D01*
X51391Y-25675D02*
X51181Y-25675D01*
X48515Y-24959D02*
X48515Y-25090D01*
X48647Y-25103D01*
X48634Y-25090D01*
X48620Y-25064D01*
X48620Y-24998D01*
X48634Y-24972D01*
X48647Y-24959D01*
X48673Y-24946D01*
X48739Y-24946D01*
X48765Y-24959D01*
X48778Y-24972D01*
X48791Y-24998D01*
X48791Y-25064D01*
X48778Y-25090D01*
X48765Y-25103D01*
X48607Y-24854D02*
X48791Y-24788D01*
X48607Y-24723D01*
X50451Y-29452D02*
X50583Y-29452D01*
X50425Y-29531D02*
X50517Y-29255D01*
X50609Y-29531D01*
X50845Y-29531D02*
X50688Y-29531D01*
X50766Y-29531D02*
X50766Y-29255D01*
X50740Y-29295D01*
X50714Y-29321D01*
X50688Y-29334D01*
X51094Y-29255D02*
X50963Y-29255D01*
X50950Y-29387D01*
X50963Y-29374D01*
X50989Y-29360D01*
X51055Y-29360D01*
X51081Y-29374D01*
X51094Y-29387D01*
X51108Y-29413D01*
X51108Y-29479D01*
X51094Y-29505D01*
X51081Y-29518D01*
X51055Y-29531D01*
X50989Y-29531D01*
X50963Y-29518D01*
X50950Y-29505D01*
X49451Y-29452D02*
X49583Y-29452D01*
X49425Y-29531D02*
X49517Y-29255D01*
X49609Y-29531D01*
X49845Y-29531D02*
X49688Y-29531D01*
X49766Y-29531D02*
X49766Y-29255D01*
X49740Y-29295D01*
X49714Y-29321D01*
X49688Y-29334D01*
X50081Y-29347D02*
X50081Y-29531D01*
X50016Y-29242D02*
X49950Y-29439D01*
X50121Y-29439D01*
X48451Y-29452D02*
X48583Y-29452D01*
X48425Y-29531D02*
X48517Y-29255D01*
X48609Y-29531D01*
X48845Y-29531D02*
X48688Y-29531D01*
X48766Y-29531D02*
X48766Y-29255D01*
X48740Y-29295D01*
X48714Y-29321D01*
X48688Y-29334D01*
X48937Y-29255D02*
X49108Y-29255D01*
X49016Y-29360D01*
X49055Y-29360D01*
X49081Y-29374D01*
X49094Y-29387D01*
X49108Y-29413D01*
X49108Y-29479D01*
X49094Y-29505D01*
X49081Y-29518D01*
X49055Y-29531D01*
X48976Y-29531D01*
X48950Y-29518D01*
X48937Y-29505D01*
X47451Y-29452D02*
X47583Y-29452D01*
X47425Y-29531D02*
X47517Y-29255D01*
X47609Y-29531D01*
X47845Y-29531D02*
X47688Y-29531D01*
X47766Y-29531D02*
X47766Y-29255D01*
X47740Y-29295D01*
X47714Y-29321D01*
X47688Y-29334D01*
X47950Y-29282D02*
X47963Y-29269D01*
X47989Y-29255D01*
X48055Y-29255D01*
X48081Y-29269D01*
X48094Y-29282D01*
X48108Y-29308D01*
X48108Y-29334D01*
X48094Y-29374D01*
X47937Y-29531D01*
X48108Y-29531D01*
X46451Y-29452D02*
X46583Y-29452D01*
X46425Y-29531D02*
X46517Y-29255D01*
X46609Y-29531D01*
X46845Y-29531D02*
X46688Y-29531D01*
X46766Y-29531D02*
X46766Y-29255D01*
X46740Y-29295D01*
X46714Y-29321D01*
X46688Y-29334D01*
X47108Y-29531D02*
X46950Y-29531D01*
X47029Y-29531D02*
X47029Y-29255D01*
X47003Y-29295D01*
X46976Y-29321D01*
X46950Y-29334D01*
G54D11*
X43242Y-27159D02*
X43242Y-26849D01*
X43223Y-26793D01*
X43186Y-26765D01*
X43111Y-26765D01*
X43073Y-26793D01*
X43242Y-27130D02*
X43204Y-27159D01*
X43111Y-27159D01*
X43073Y-27130D01*
X43054Y-27074D01*
X43054Y-27018D01*
X43073Y-26962D01*
X43111Y-26934D01*
X43204Y-26934D01*
X43242Y-26905D01*
X43261Y-24568D02*
X43073Y-24568D01*
X43054Y-24849D01*
X43073Y-24821D01*
X43111Y-24793D01*
X43204Y-24793D01*
X43242Y-24821D01*
X43261Y-24849D01*
X43279Y-24905D01*
X43279Y-25046D01*
X43261Y-25102D01*
X43242Y-25130D01*
X43204Y-25159D01*
X43111Y-25159D01*
X43073Y-25130D01*
X43054Y-25102D01*
X43411Y-24765D02*
X43504Y-25159D01*
X43598Y-24765D01*
X43279Y-25596D02*
X43242Y-25568D01*
X43186Y-25568D01*
X43129Y-25596D01*
X43092Y-25652D01*
X43073Y-25709D01*
X43054Y-25821D01*
X43054Y-25905D01*
X43073Y-26018D01*
X43092Y-26074D01*
X43129Y-26130D01*
X43186Y-26159D01*
X43223Y-26159D01*
X43279Y-26130D01*
X43298Y-26102D01*
X43298Y-25905D01*
X43223Y-25905D01*
X31080Y-13443D02*
X31117Y-13471D01*
X31173Y-13471D01*
X31230Y-13443D01*
X31267Y-13387D01*
X31286Y-13330D01*
X31305Y-13218D01*
X31305Y-13134D01*
X31286Y-13021D01*
X31267Y-12965D01*
X31230Y-12909D01*
X31173Y-12880D01*
X31136Y-12880D01*
X31080Y-12909D01*
X31061Y-12937D01*
X31061Y-13134D01*
X31136Y-13134D01*
X31117Y-10880D02*
X31117Y-11471D01*
X31117Y-10909D02*
X31155Y-10880D01*
X31230Y-10880D01*
X31267Y-10909D01*
X31286Y-10937D01*
X31305Y-10993D01*
X31305Y-11162D01*
X31286Y-11218D01*
X31267Y-11246D01*
X31230Y-11274D01*
X31155Y-11274D01*
X31117Y-11246D01*
G54D12*
X48980Y-27720D02*
X48980Y-24720D01*
X49980Y-27720D02*
X48980Y-27720D01*
X49980Y-24720D02*
X49980Y-27720D01*
X48980Y-24720D02*
X49980Y-24720D01*
G54D14*
X43996Y-26231D02*
X43996Y-25955D01*
X44061Y-25955D01*
X44100Y-25969D01*
X44127Y-25995D01*
X44140Y-26021D01*
X44153Y-26074D01*
X44153Y-26113D01*
X44140Y-26165D01*
X44127Y-26192D01*
X44100Y-26218D01*
X44061Y-26231D01*
X43996Y-26231D01*
X44271Y-26231D02*
X44271Y-25955D01*
X44271Y-26087D02*
X44429Y-26087D01*
X44429Y-26231D02*
X44429Y-25955D01*
X44520Y-25955D02*
X44678Y-25955D01*
X44599Y-26231D02*
X44599Y-25955D01*
X44914Y-26231D02*
X44757Y-26231D01*
X44835Y-26231D02*
X44835Y-25955D01*
X44809Y-25995D01*
X44783Y-26021D01*
X44757Y-26034D01*
X45177Y-26231D02*
X45019Y-26231D01*
X45098Y-26231D02*
X45098Y-25955D01*
X45072Y-25995D01*
X45045Y-26021D01*
X45019Y-26034D01*
X44440Y-27555D02*
X44309Y-27555D01*
X44296Y-27687D01*
X44309Y-27674D01*
X44335Y-27660D01*
X44401Y-27660D01*
X44427Y-27674D01*
X44440Y-27687D01*
X44453Y-27713D01*
X44453Y-27779D01*
X44440Y-27805D01*
X44427Y-27818D01*
X44401Y-27831D01*
X44335Y-27831D01*
X44309Y-27818D01*
X44296Y-27805D01*
X44545Y-27647D02*
X44611Y-27831D01*
X44676Y-27647D01*
G54D12*
X36580Y-13920D02*
X31480Y-13920D01*
G54D14*
X45283Y-27752D02*
X45414Y-27752D01*
X45256Y-27831D02*
X45348Y-27555D01*
X45440Y-27831D01*
X45545Y-27831D02*
X45598Y-27831D01*
X45624Y-27818D01*
X45637Y-27805D01*
X45663Y-27765D01*
X45676Y-27713D01*
X45676Y-27608D01*
X45663Y-27582D01*
X45650Y-27569D01*
X45624Y-27555D01*
X45571Y-27555D01*
X45545Y-27569D01*
X45532Y-27582D01*
X45519Y-27608D01*
X45519Y-27674D01*
X45532Y-27700D01*
X45545Y-27713D01*
X45571Y-27726D01*
X45624Y-27726D01*
X45650Y-27713D01*
X45663Y-27700D01*
X45676Y-27674D01*
X46263Y-27831D02*
X46263Y-27555D01*
X46420Y-27831D01*
X46420Y-27555D01*
X46709Y-27805D02*
X46696Y-27818D01*
X46657Y-27831D01*
X46630Y-27831D01*
X46591Y-27818D01*
X46565Y-27792D01*
X46552Y-27765D01*
X46539Y-27713D01*
X46539Y-27674D01*
X46552Y-27621D01*
X46565Y-27595D01*
X46591Y-27569D01*
X46630Y-27555D01*
X46657Y-27555D01*
X46696Y-27569D01*
X46709Y-27582D01*
X47302Y-27569D02*
X47276Y-27555D01*
X47237Y-27555D01*
X47197Y-27569D01*
X47171Y-27595D01*
X47158Y-27621D01*
X47145Y-27674D01*
X47145Y-27713D01*
X47158Y-27765D01*
X47171Y-27792D01*
X47197Y-27818D01*
X47237Y-27831D01*
X47263Y-27831D01*
X47302Y-27818D01*
X47315Y-27805D01*
X47315Y-27713D01*
X47263Y-27713D01*
X47434Y-27647D02*
X47434Y-27831D01*
X47434Y-27674D02*
X47447Y-27660D01*
X47473Y-27647D01*
X47512Y-27647D01*
X47539Y-27660D01*
X47552Y-27687D01*
X47552Y-27831D01*
X47801Y-27831D02*
X47801Y-27555D01*
X47801Y-27818D02*
X47775Y-27831D01*
X47722Y-27831D01*
X47696Y-27818D01*
X47683Y-27805D01*
X47670Y-27779D01*
X47670Y-27700D01*
X47683Y-27674D01*
X47696Y-27660D01*
X47722Y-27647D01*
X47775Y-27647D01*
X47801Y-27660D01*
G54D15*
X29882Y-18016D02*
X29958Y-18073D01*
X30082Y-18073D01*
X30212Y-18016D01*
X30309Y-17904D01*
X30364Y-17791D01*
X30434Y-17566D01*
X30455Y-17398D01*
X30442Y-17173D01*
X30414Y-17060D01*
X30346Y-16948D01*
X30229Y-16891D01*
X30147Y-16891D01*
X30016Y-16948D01*
X29968Y-17004D01*
X29919Y-17398D01*
X30084Y-17398D01*
X29611Y-16891D02*
X29463Y-18073D01*
X29116Y-16891D01*
X28968Y-18073D01*
X28337Y-17510D02*
X28220Y-17454D01*
X28186Y-17398D01*
X28159Y-17285D01*
X28180Y-17116D01*
X28235Y-17004D01*
X28284Y-16948D01*
X28373Y-16891D01*
X28703Y-16891D01*
X28556Y-18073D01*
X28267Y-18073D01*
X28191Y-18016D01*
X28157Y-17960D01*
X28130Y-17848D01*
X28144Y-17735D01*
X28199Y-17623D01*
X28248Y-17566D01*
X28337Y-17510D01*
X28626Y-17510D01*
X27713Y-16891D02*
X27789Y-16948D01*
X27823Y-17004D01*
X27850Y-17116D01*
X27808Y-17454D01*
X27753Y-17566D01*
X27704Y-17623D01*
X27615Y-17679D01*
X27491Y-17679D01*
X27416Y-17623D01*
X27382Y-17566D01*
X27354Y-17454D01*
X27397Y-17116D01*
X27452Y-17004D01*
X27500Y-16948D01*
X27590Y-16891D01*
X27713Y-16891D01*
X26682Y-16891D02*
X26605Y-17510D01*
X26632Y-17623D01*
X26708Y-17679D01*
X26873Y-17679D01*
X26962Y-17623D01*
X26675Y-16948D02*
X26765Y-16891D01*
X26971Y-16891D01*
X27046Y-16948D01*
X27074Y-17060D01*
X27060Y-17173D01*
X27004Y-17285D01*
X26915Y-17341D01*
X26708Y-17341D01*
X26619Y-17398D01*
X26270Y-16891D02*
X26171Y-17679D01*
X26199Y-17454D02*
X26144Y-17566D01*
X26096Y-17623D01*
X26006Y-17679D01*
X25924Y-17679D01*
X25362Y-16891D02*
X25215Y-18073D01*
X25355Y-16948D02*
X25445Y-16891D01*
X25610Y-16891D01*
X25685Y-16948D01*
X25720Y-17004D01*
X25747Y-17116D01*
X25705Y-17454D01*
X25649Y-17566D01*
X25601Y-17623D01*
X25511Y-17679D01*
X25346Y-17679D01*
X25271Y-17623D01*
G54D17*
X30984Y-14713D02*
X30775Y-14713D01*
X30880Y-14608D02*
X30880Y-14818D01*
G54D14*
X42083Y-27752D02*
X42214Y-27752D01*
X42056Y-27831D02*
X42148Y-27555D01*
X42240Y-27831D01*
X42371Y-27674D02*
X42345Y-27660D01*
X42332Y-27647D01*
X42319Y-27621D01*
X42319Y-27608D01*
X42332Y-27582D01*
X42345Y-27569D01*
X42371Y-27555D01*
X42424Y-27555D01*
X42450Y-27569D01*
X42463Y-27582D01*
X42476Y-27608D01*
X42476Y-27621D01*
X42463Y-27647D01*
X42450Y-27660D01*
X42424Y-27674D01*
X42371Y-27674D01*
X42345Y-27687D01*
X42332Y-27700D01*
X42319Y-27726D01*
X42319Y-27779D01*
X42332Y-27805D01*
X42345Y-27818D01*
X42371Y-27831D01*
X42424Y-27831D01*
X42450Y-27818D01*
X42463Y-27805D01*
X42476Y-27779D01*
X42476Y-27726D01*
X42463Y-27700D01*
X42450Y-27687D01*
X42424Y-27674D01*
X41083Y-27752D02*
X41214Y-27752D01*
X41056Y-27831D02*
X41148Y-27555D01*
X41240Y-27831D01*
X41306Y-27555D02*
X41489Y-27555D01*
X41371Y-27831D01*
X40083Y-27752D02*
X40214Y-27752D01*
X40056Y-27831D02*
X40148Y-27555D01*
X40240Y-27831D01*
X40450Y-27555D02*
X40398Y-27555D01*
X40371Y-27569D01*
X40358Y-27582D01*
X40332Y-27621D01*
X40319Y-27674D01*
X40319Y-27779D01*
X40332Y-27805D01*
X40345Y-27818D01*
X40371Y-27831D01*
X40424Y-27831D01*
X40450Y-27818D01*
X40463Y-27805D01*
X40476Y-27779D01*
X40476Y-27713D01*
X40463Y-27687D01*
X40450Y-27674D01*
X40424Y-27660D01*
X40371Y-27660D01*
X40345Y-27674D01*
X40332Y-27687D01*
X40319Y-27713D01*
X39083Y-27752D02*
X39214Y-27752D01*
X39056Y-27831D02*
X39148Y-27555D01*
X39240Y-27831D01*
X39463Y-27555D02*
X39332Y-27555D01*
X39319Y-27687D01*
X39332Y-27674D01*
X39358Y-27660D01*
X39424Y-27660D01*
X39450Y-27674D01*
X39463Y-27687D01*
X39476Y-27713D01*
X39476Y-27779D01*
X39463Y-27805D01*
X39450Y-27818D01*
X39424Y-27831D01*
X39358Y-27831D01*
X39332Y-27818D01*
X39319Y-27805D01*
X49332Y-12684D02*
X49463Y-12684D01*
X49476Y-12552D01*
X49463Y-12565D01*
X49437Y-12579D01*
X49371Y-12579D01*
X49345Y-12565D01*
X49332Y-12552D01*
X49319Y-12526D01*
X49319Y-12460D01*
X49332Y-12434D01*
X49345Y-12421D01*
X49371Y-12408D01*
X49437Y-12408D01*
X49463Y-12421D01*
X49476Y-12434D01*
X49240Y-12684D02*
X49148Y-12408D01*
X49056Y-12684D01*
X48489Y-12670D02*
X48516Y-12684D01*
X48555Y-12684D01*
X48594Y-12670D01*
X48621Y-12644D01*
X48634Y-12618D01*
X48647Y-12565D01*
X48647Y-12526D01*
X48634Y-12474D01*
X48621Y-12447D01*
X48594Y-12421D01*
X48555Y-12408D01*
X48529Y-12408D01*
X48489Y-12421D01*
X48476Y-12434D01*
X48476Y-12526D01*
X48529Y-12526D01*
X48358Y-12408D02*
X48358Y-12684D01*
X48201Y-12408D01*
X48201Y-12684D01*
X48070Y-12408D02*
X48070Y-12684D01*
X48004Y-12684D01*
X47965Y-12670D01*
X47938Y-12644D01*
X47925Y-12618D01*
X47912Y-12565D01*
X47912Y-12526D01*
X47925Y-12474D01*
X47938Y-12447D01*
X47965Y-12421D01*
X48004Y-12408D01*
X48070Y-12408D01*
X47608Y-12421D02*
X47568Y-12408D01*
X47503Y-12408D01*
X47476Y-12421D01*
X47463Y-12434D01*
X47450Y-12460D01*
X47450Y-12487D01*
X47463Y-12513D01*
X47476Y-12526D01*
X47503Y-12539D01*
X47555Y-12552D01*
X47581Y-12565D01*
X47594Y-12579D01*
X47608Y-12605D01*
X47608Y-12631D01*
X47594Y-12657D01*
X47581Y-12670D01*
X47555Y-12684D01*
X47489Y-12684D01*
X47450Y-12670D01*
X47175Y-12434D02*
X47188Y-12421D01*
X47227Y-12408D01*
X47253Y-12408D01*
X47293Y-12421D01*
X47319Y-12447D01*
X47332Y-12474D01*
X47345Y-12526D01*
X47345Y-12565D01*
X47332Y-12618D01*
X47319Y-12644D01*
X47293Y-12670D01*
X47253Y-12684D01*
X47227Y-12684D01*
X47188Y-12670D01*
X47175Y-12657D01*
X46925Y-12408D02*
X47056Y-12408D01*
X47056Y-12684D01*
X46614Y-12421D02*
X46575Y-12408D01*
X46509Y-12408D01*
X46483Y-12421D01*
X46470Y-12434D01*
X46457Y-12460D01*
X46457Y-12487D01*
X46470Y-12513D01*
X46483Y-12526D01*
X46509Y-12539D01*
X46562Y-12552D01*
X46588Y-12565D01*
X46601Y-12579D01*
X46614Y-12605D01*
X46614Y-12631D01*
X46601Y-12657D01*
X46588Y-12670D01*
X46562Y-12684D01*
X46496Y-12684D01*
X46457Y-12670D01*
X46339Y-12408D02*
X46339Y-12684D01*
X46273Y-12684D01*
X46234Y-12670D01*
X46207Y-12644D01*
X46194Y-12618D01*
X46181Y-12565D01*
X46181Y-12526D01*
X46194Y-12474D01*
X46207Y-12447D01*
X46234Y-12421D01*
X46273Y-12408D01*
X46339Y-12408D01*
X46076Y-12487D02*
X45945Y-12487D01*
X46102Y-12408D02*
X46010Y-12684D01*
X45919Y-12408D01*
G54D17*
X40132Y-10208D02*
X40289Y-10208D01*
X40211Y-10208D02*
X40211Y-10484D01*
X40237Y-10444D01*
X40263Y-10418D01*
X40289Y-10405D01*
X40040Y-10484D02*
X39856Y-10484D01*
X39975Y-10208D01*
X39132Y-10208D02*
X39289Y-10208D01*
X39211Y-10208D02*
X39211Y-10484D01*
X39237Y-10444D01*
X39263Y-10418D01*
X39289Y-10405D01*
X38896Y-10484D02*
X38948Y-10484D01*
X38975Y-10470D01*
X38988Y-10457D01*
X39014Y-10418D01*
X39027Y-10365D01*
X39027Y-10260D01*
X39014Y-10234D01*
X39001Y-10221D01*
X38975Y-10208D01*
X38922Y-10208D01*
X38896Y-10221D01*
X38883Y-10234D01*
X38870Y-10260D01*
X38870Y-10326D01*
X38883Y-10352D01*
X38896Y-10365D01*
X38922Y-10379D01*
X38975Y-10379D01*
X39001Y-10365D01*
X39014Y-10352D01*
X39027Y-10326D01*
X38132Y-10208D02*
X38289Y-10208D01*
X38211Y-10208D02*
X38211Y-10484D01*
X38237Y-10444D01*
X38263Y-10418D01*
X38289Y-10405D01*
X37883Y-10484D02*
X38014Y-10484D01*
X38027Y-10352D01*
X38014Y-10365D01*
X37988Y-10379D01*
X37922Y-10379D01*
X37896Y-10365D01*
X37883Y-10352D01*
X37870Y-10326D01*
X37870Y-10260D01*
X37883Y-10234D01*
X37896Y-10221D01*
X37922Y-10208D01*
X37988Y-10208D01*
X38014Y-10221D01*
X38027Y-10234D01*
X37132Y-10208D02*
X37289Y-10208D01*
X37211Y-10208D02*
X37211Y-10484D01*
X37237Y-10444D01*
X37263Y-10418D01*
X37289Y-10405D01*
X36896Y-10392D02*
X36896Y-10208D01*
X36961Y-10497D02*
X37027Y-10300D01*
X36856Y-10300D01*
X36171Y-10484D02*
X36001Y-10484D01*
X36093Y-10379D01*
X36053Y-10379D01*
X36027Y-10365D01*
X36014Y-10352D01*
X36001Y-10326D01*
X36001Y-10260D01*
X36014Y-10234D01*
X36027Y-10221D01*
X36053Y-10208D01*
X36132Y-10208D01*
X36158Y-10221D01*
X36171Y-10234D01*
X35027Y-10392D02*
X35027Y-10208D01*
X35093Y-10497D02*
X35158Y-10300D01*
X34988Y-10300D01*
X34014Y-10484D02*
X34145Y-10484D01*
X34158Y-10352D01*
X34145Y-10365D01*
X34119Y-10379D01*
X34053Y-10379D01*
X34027Y-10365D01*
X34014Y-10352D01*
X34001Y-10326D01*
X34001Y-10260D01*
X34014Y-10234D01*
X34027Y-10221D01*
X34053Y-10208D01*
X34119Y-10208D01*
X34145Y-10221D01*
X34158Y-10234D01*
X33027Y-10484D02*
X33080Y-10484D01*
X33106Y-10470D01*
X33119Y-10457D01*
X33145Y-10418D01*
X33158Y-10365D01*
X33158Y-10260D01*
X33145Y-10234D01*
X33132Y-10221D01*
X33106Y-10208D01*
X33053Y-10208D01*
X33027Y-10221D01*
X33014Y-10234D01*
X33001Y-10260D01*
X33001Y-10326D01*
X33014Y-10352D01*
X33027Y-10365D01*
X33053Y-10379D01*
X33106Y-10379D01*
X33132Y-10365D01*
X33145Y-10352D01*
X33158Y-10326D01*
X32171Y-10484D02*
X31988Y-10484D01*
X32106Y-10208D01*
G54D12*
X31480Y-14120D02*
X31480Y-13720D01*
X36580Y-14120D02*
X36580Y-13720D01*
G54D11*
X34851Y-14180D02*
X34851Y-14771D01*
X34622Y-14771D01*
X34565Y-14743D01*
X34537Y-14715D01*
X34508Y-14659D01*
X34508Y-14574D01*
X34537Y-14518D01*
X34565Y-14490D01*
X34622Y-14462D01*
X34851Y-14462D01*
X34308Y-14574D02*
X34194Y-14180D01*
X34079Y-14462D01*
X33965Y-14180D01*
X33851Y-14574D01*
X33622Y-14180D02*
X33622Y-14574D01*
X33622Y-14518D02*
X33594Y-14546D01*
X33537Y-14574D01*
X33451Y-14574D01*
X33394Y-14546D01*
X33365Y-14490D01*
X33365Y-14180D01*
X33365Y-14490D02*
X33337Y-14546D01*
X33280Y-14574D01*
X33194Y-14574D01*
X33137Y-14546D01*
X33108Y-14490D01*
X33108Y-14180D01*
X31098Y-12471D02*
X31286Y-12471D01*
X31305Y-12190D01*
X31286Y-12218D01*
X31248Y-12246D01*
X31155Y-12246D01*
X31117Y-12218D01*
X31098Y-12190D01*
X31080Y-12134D01*
X31080Y-11993D01*
X31098Y-11937D01*
X31117Y-11909D01*
X31155Y-11880D01*
X31248Y-11880D01*
X31286Y-11909D01*
X31305Y-11937D01*
X30948Y-12274D02*
X30855Y-11880D01*
X30761Y-12274D01*
X20887Y-29462D02*
X20687Y-29177D01*
X20544Y-29462D02*
X20544Y-28862D01*
X20772Y-28862D01*
X20830Y-28891D01*
X20858Y-28920D01*
X20887Y-28977D01*
X20887Y-29062D01*
X20858Y-29120D01*
X20830Y-29148D01*
X20772Y-29177D01*
X20544Y-29177D01*
X21372Y-29434D02*
X21315Y-29462D01*
X21201Y-29462D01*
X21144Y-29434D01*
X21115Y-29377D01*
X21115Y-29148D01*
X21144Y-29091D01*
X21201Y-29062D01*
X21315Y-29062D01*
X21372Y-29091D01*
X21401Y-29148D01*
X21401Y-29205D01*
X21115Y-29262D01*
X21630Y-29434D02*
X21687Y-29462D01*
X21801Y-29462D01*
X21858Y-29434D01*
X21887Y-29377D01*
X21887Y-29348D01*
X21858Y-29291D01*
X21801Y-29262D01*
X21715Y-29262D01*
X21658Y-29234D01*
X21630Y-29177D01*
X21630Y-29148D01*
X21658Y-29091D01*
X21715Y-29062D01*
X21801Y-29062D01*
X21858Y-29091D01*
X22372Y-29434D02*
X22315Y-29462D01*
X22201Y-29462D01*
X22144Y-29434D01*
X22115Y-29377D01*
X22115Y-29148D01*
X22144Y-29091D01*
X22201Y-29062D01*
X22315Y-29062D01*
X22372Y-29091D01*
X22401Y-29148D01*
X22401Y-29205D01*
X22115Y-29262D01*
X22572Y-29062D02*
X22801Y-29062D01*
X22658Y-28862D02*
X22658Y-29377D01*
X22687Y-29434D01*
X22744Y-29462D01*
X22801Y-29462D01*
X22137Y-11577D02*
X22737Y-11577D01*
X22737Y-11805D01*
X22708Y-11862D01*
X22680Y-11891D01*
X22622Y-11920D01*
X22537Y-11920D01*
X22480Y-11891D01*
X22451Y-11862D01*
X22422Y-11805D01*
X22422Y-11577D01*
X22137Y-12491D02*
X22137Y-12148D01*
X22137Y-12320D02*
X22737Y-12320D01*
X22651Y-12262D01*
X22594Y-12205D01*
X22565Y-12148D01*
G54D12*
X20515Y-17634D02*
X20515Y-18091D01*
X20515Y-19748D02*
X20515Y-20205D01*
X20287Y-19977D02*
X20744Y-19977D01*
G54D11*
X23037Y-23127D02*
X23037Y-23241D01*
X23008Y-23298D01*
X22951Y-23355D01*
X22837Y-23384D01*
X22637Y-23384D01*
X22522Y-23355D01*
X22465Y-23298D01*
X22437Y-23241D01*
X22437Y-23127D01*
X22465Y-23070D01*
X22522Y-23012D01*
X22637Y-22984D01*
X22837Y-22984D01*
X22951Y-23012D01*
X23008Y-23070D01*
X23037Y-23127D01*
X22837Y-23555D02*
X22837Y-23784D01*
X22437Y-23641D02*
X22951Y-23641D01*
X23008Y-23670D01*
X23037Y-23727D01*
X23037Y-23784D01*
X22837Y-23898D02*
X22837Y-24127D01*
X22437Y-23984D02*
X22951Y-23984D01*
X23008Y-24012D01*
X23037Y-24069D01*
X23037Y-24127D01*
X22098Y-23127D02*
X22098Y-23241D01*
X22070Y-23298D01*
X22013Y-23355D01*
X21898Y-23384D01*
X21698Y-23384D01*
X21584Y-23355D01*
X21527Y-23298D01*
X21498Y-23241D01*
X21498Y-23127D01*
X21527Y-23070D01*
X21584Y-23012D01*
X21698Y-22984D01*
X21898Y-22984D01*
X22013Y-23012D01*
X22070Y-23070D01*
X22098Y-23127D01*
X21898Y-23641D02*
X21498Y-23641D01*
X21841Y-23641D02*
X21870Y-23670D01*
X21898Y-23727D01*
X21898Y-23812D01*
X21870Y-23870D01*
X21813Y-23898D01*
X21498Y-23898D01*
G54D12*
X38080Y-18920D02*
X42480Y-18920D01*
X38080Y-18920D02*
X33680Y-18920D01*
X38080Y-18920D02*
X38080Y-23320D01*
X38080Y-18920D02*
X38080Y-14520D01*
X42466Y-18920D02*
G75*
G03X42466Y-18920I-4386J0D01*
G74*
G01*
X41204Y-18920D02*
G75*
G03X41204Y-18920I-3124J0D01*
G74*
G01*
G54D18*
X25830Y-22720D02*
X26330Y-22720D01*
X28330Y-22720D02*
X28830Y-22720D01*
X28030Y-22220D02*
X28030Y-23220D01*
X28330Y-22220D02*
X26330Y-22220D01*
X26330Y-22220D02*
X26330Y-23220D01*
X26330Y-23220D02*
X28330Y-23220D01*
X28330Y-23220D02*
X28330Y-22220D01*
G54D19*
X23430Y-16970D02*
X23430Y-20970D01*
X23930Y-16970D02*
X20930Y-16970D01*
X20930Y-16970D02*
X20930Y-20970D01*
X20930Y-20970D02*
X23930Y-20970D01*
X23930Y-20970D02*
X23930Y-16970D01*
X30880Y-21570D02*
X31080Y-21570D01*
X33880Y-21570D02*
X33680Y-21570D01*
X33680Y-21570D02*
X33680Y-21170D01*
X33680Y-21170D02*
X31080Y-21170D01*
X31080Y-21170D02*
X31080Y-21970D01*
X31080Y-21970D02*
X33680Y-21970D01*
X33680Y-21970D02*
X33680Y-21570D01*
X31080Y-21370D02*
X31280Y-21170D01*
X29780Y-10720D02*
X29580Y-10720D01*
X26780Y-10720D02*
X26980Y-10720D01*
X26980Y-10720D02*
X26980Y-11120D01*
X26980Y-11120D02*
X29580Y-11120D01*
X29580Y-11120D02*
X29580Y-10320D01*
X29580Y-10320D02*
X26980Y-10320D01*
X26980Y-10320D02*
X26980Y-10720D01*
X29580Y-10920D02*
X29380Y-11120D01*
X29780Y-11770D02*
X29580Y-11770D01*
X26780Y-11770D02*
X26980Y-11770D01*
X26980Y-11770D02*
X26980Y-12170D01*
X26980Y-12170D02*
X29580Y-12170D01*
X29580Y-12170D02*
X29580Y-11370D01*
X29580Y-11370D02*
X26980Y-11370D01*
X26980Y-11370D02*
X26980Y-11770D01*
X29580Y-11970D02*
X29380Y-12170D01*
X29780Y-12820D02*
X29580Y-12820D01*
X26780Y-12820D02*
X26980Y-12820D01*
X26980Y-12820D02*
X26980Y-13220D01*
X26980Y-13220D02*
X29580Y-13220D01*
X29580Y-13220D02*
X29580Y-12420D01*
X29580Y-12420D02*
X26980Y-12420D01*
X26980Y-12420D02*
X26980Y-12820D01*
X29580Y-13020D02*
X29380Y-13220D01*
X33980Y-24670D02*
X33980Y-24870D01*
X33980Y-27670D02*
X33980Y-27470D01*
X33980Y-27470D02*
X34380Y-27470D01*
X34380Y-27470D02*
X34380Y-24870D01*
X34380Y-24870D02*
X33580Y-24870D01*
X33580Y-24870D02*
X33580Y-27470D01*
X33580Y-27470D02*
X33980Y-27470D01*
X34180Y-24870D02*
X34380Y-25070D01*
X35230Y-27020D02*
X35230Y-26820D01*
X35230Y-24020D02*
X35230Y-24220D01*
X35230Y-24220D02*
X34830Y-24220D01*
X34830Y-24220D02*
X34830Y-26820D01*
X34830Y-26820D02*
X35630Y-26820D01*
X35630Y-26820D02*
X35630Y-24220D01*
X35630Y-24220D02*
X35230Y-24220D01*
X35030Y-26820D02*
X34830Y-26620D01*
X38280Y-27020D02*
X38280Y-26820D01*
X38280Y-24020D02*
X38280Y-24220D01*
X38280Y-24220D02*
X37880Y-24220D01*
X37880Y-24220D02*
X37880Y-26820D01*
X37880Y-26820D02*
X38680Y-26820D01*
X38680Y-26820D02*
X38680Y-24220D01*
X38680Y-24220D02*
X38280Y-24220D01*
X38080Y-26820D02*
X37880Y-26620D01*
X41980Y-15320D02*
X42180Y-15320D01*
X44980Y-15320D02*
X44780Y-15320D01*
X44780Y-15320D02*
X44780Y-14920D01*
X44780Y-14920D02*
X42180Y-14920D01*
X42180Y-14920D02*
X42180Y-15720D01*
X42180Y-15720D02*
X44780Y-15720D01*
X44780Y-15720D02*
X44780Y-15320D01*
X42180Y-15120D02*
X42380Y-14920D01*
X36280Y-27020D02*
X36280Y-26820D01*
X36280Y-24020D02*
X36280Y-24220D01*
X36280Y-24220D02*
X35880Y-24220D01*
X35880Y-24220D02*
X35880Y-26820D01*
X35880Y-26820D02*
X36680Y-26820D01*
X36680Y-26820D02*
X36680Y-24220D01*
X36680Y-24220D02*
X36280Y-24220D01*
X36080Y-26820D02*
X35880Y-26620D01*
G54D20*
X39880Y-27420D02*
X38880Y-27420D01*
X38880Y-27420D02*
X38880Y-24420D01*
X38880Y-24420D02*
X39880Y-24420D01*
X39880Y-24420D02*
X39880Y-27420D01*
X38880Y-26420D02*
X39880Y-26420D01*
X40880Y-27420D02*
X39880Y-27420D01*
X39880Y-27420D02*
X39880Y-24420D01*
X39880Y-24420D02*
X40880Y-24420D01*
X40880Y-24420D02*
X40880Y-27420D01*
X39880Y-26420D02*
X40880Y-26420D01*
X30680Y-13820D02*
X30680Y-14820D01*
X30680Y-14820D02*
X28680Y-14820D01*
X28680Y-14820D02*
X28680Y-13820D01*
X28680Y-13820D02*
X30680Y-13820D01*
X31530Y-10670D02*
X32530Y-10670D01*
X32530Y-10670D02*
X32530Y-13670D01*
X32530Y-13670D02*
X31530Y-13670D01*
X31530Y-13670D02*
X31530Y-10670D01*
X32530Y-11670D02*
X31530Y-11670D01*
X32530Y-10670D02*
X33530Y-10670D01*
X33530Y-10670D02*
X33530Y-13670D01*
X33530Y-13670D02*
X32530Y-13670D01*
X32530Y-13670D02*
X32530Y-10670D01*
X33530Y-11670D02*
X32530Y-11670D01*
X33530Y-10670D02*
X34530Y-10670D01*
X34530Y-10670D02*
X34530Y-13670D01*
X34530Y-13670D02*
X33530Y-13670D01*
X33530Y-13670D02*
X33530Y-10670D01*
X34530Y-11670D02*
X33530Y-11670D01*
X34530Y-10670D02*
X35530Y-10670D01*
X35530Y-10670D02*
X35530Y-13670D01*
X35530Y-13670D02*
X34530Y-13670D01*
X34530Y-13670D02*
X34530Y-10670D01*
X35530Y-11670D02*
X34530Y-11670D01*
X35530Y-10670D02*
X36530Y-10670D01*
X36530Y-10670D02*
X36530Y-13670D01*
X36530Y-13670D02*
X35530Y-13670D01*
X35530Y-13670D02*
X35530Y-10670D01*
X36530Y-11670D02*
X35530Y-11670D01*
X41880Y-27420D02*
X40880Y-27420D01*
X40880Y-27420D02*
X40880Y-24420D01*
X40880Y-24420D02*
X41880Y-24420D01*
X41880Y-24420D02*
X41880Y-27420D01*
X40880Y-26420D02*
X41880Y-26420D01*
X42880Y-27420D02*
X41880Y-27420D01*
X41880Y-27420D02*
X41880Y-24420D01*
X41880Y-24420D02*
X42880Y-24420D01*
X42880Y-24420D02*
X42880Y-27420D01*
X41880Y-26420D02*
X42880Y-26420D01*
G54D21*
X45780Y-11270D02*
X49780Y-11270D01*
X45780Y-12270D02*
X49780Y-12270D01*
X49780Y-12270D02*
X49780Y-11270D01*
X45780Y-11270D02*
X45780Y-12270D01*
G54D19*
X50430Y-12170D02*
X50430Y-11970D01*
X50430Y-9170D02*
X50430Y-9370D01*
X50430Y-9370D02*
X50030Y-9370D01*
X50030Y-9370D02*
X50030Y-11970D01*
X50030Y-11970D02*
X50830Y-11970D01*
X50830Y-11970D02*
X50830Y-9370D01*
X50830Y-9370D02*
X50430Y-9370D01*
X50230Y-11970D02*
X50030Y-11770D01*
X49280Y-10670D02*
X49080Y-10670D01*
X46280Y-10670D02*
X46480Y-10670D01*
X46480Y-10670D02*
X46480Y-11070D01*
X46480Y-11070D02*
X49080Y-11070D01*
X49080Y-11070D02*
X49080Y-10270D01*
X49080Y-10270D02*
X46480Y-10270D01*
X46480Y-10270D02*
X46480Y-10670D01*
X49080Y-10870D02*
X48880Y-11070D01*
G54D20*
X36530Y-10670D02*
X37530Y-10670D01*
X37530Y-10670D02*
X37530Y-13670D01*
X37530Y-13670D02*
X36530Y-13670D01*
X36530Y-13670D02*
X36530Y-10670D01*
X37530Y-11670D02*
X36530Y-11670D01*
X37530Y-10670D02*
X38530Y-10670D01*
X38530Y-10670D02*
X38530Y-13670D01*
X38530Y-13670D02*
X37530Y-13670D01*
X37530Y-13670D02*
X37530Y-10670D01*
X38530Y-11670D02*
X37530Y-11670D01*
X38530Y-10670D02*
X39530Y-10670D01*
X39530Y-10670D02*
X39530Y-13670D01*
X39530Y-13670D02*
X38530Y-13670D01*
X38530Y-13670D02*
X38530Y-10670D01*
X39530Y-11670D02*
X38530Y-11670D01*
X39530Y-10670D02*
X40530Y-10670D01*
X40530Y-10670D02*
X40530Y-13670D01*
X40530Y-13670D02*
X39530Y-13670D01*
X39530Y-13670D02*
X39530Y-10670D01*
X40530Y-11670D02*
X39530Y-11670D01*
G54D22*
X48430Y-24920D02*
G75*
G03X48430Y-24920I-1250J0D01*
G74*
G01*
G54D18*
X30680Y-20320D02*
G75*
G03X30680Y-20320I-1600J0D01*
G74*
G01*
G54D22*
X22780Y-26570D02*
G75*
G03X22780Y-26570I-1000J0D01*
G74*
G01*
X20280Y-28070D02*
X20280Y-25070D01*
X20280Y-25070D02*
X23280Y-25070D01*
X23280Y-25070D02*
X23280Y-28070D01*
X20280Y-28070D02*
X23280Y-28070D01*
X23430Y-14270D02*
G75*
G03X23430Y-14270I-1000J0D01*
G74*
G01*
X20930Y-15770D02*
X20930Y-12770D01*
X20930Y-12770D02*
X23930Y-12770D01*
X23930Y-12770D02*
X23930Y-15770D01*
X20930Y-15770D02*
X23930Y-15770D01*
G54D18*
X27380Y-20320D02*
G75*
G03X27380Y-20320I-1600J0D01*
G74*
G01*
G54D12*
X23954Y-21876D02*
X20805Y-21876D01*
X23954Y-21876D02*
X23954Y-22663D01*
X23954Y-22663D02*
X20805Y-22663D01*
X20805Y-22663D02*
X20805Y-21876D01*
X26130Y-12470D02*
G75*
G03X26130Y-12470I-1000J0D01*
G74*
G01*
X32930Y-22270D02*
X32930Y-24970D01*
X32930Y-28570D02*
X32930Y-26170D01*
X29780Y-26170D02*
X29780Y-28570D01*
X29780Y-22270D02*
X29780Y-24970D01*
X32930Y-22270D02*
X29780Y-22270D01*
X29780Y-28570D02*
X32930Y-28570D01*
G54D22*
X45630Y-11520D02*
G75*
G03X45630Y-11520I-1250J0D01*
G74*
G01*
G54D19*
X49280Y-15870D02*
X49080Y-15870D01*
X46280Y-15870D02*
X46480Y-15870D01*
X46480Y-15870D02*
X46480Y-16270D01*
X46480Y-16270D02*
X49080Y-16270D01*
X49080Y-16270D02*
X49080Y-15470D01*
X49080Y-15470D02*
X46480Y-15470D01*
X46480Y-15470D02*
X46480Y-15870D01*
X49080Y-16070D02*
X48880Y-16270D01*
X49280Y-16920D02*
X49080Y-16920D01*
X46280Y-16920D02*
X46480Y-16920D01*
X46480Y-16920D02*
X46480Y-17320D01*
X46480Y-17320D02*
X49080Y-17320D01*
X49080Y-17320D02*
X49080Y-16520D01*
X49080Y-16520D02*
X46480Y-16520D01*
X46480Y-16520D02*
X46480Y-16920D01*
X49080Y-17120D02*
X48880Y-17320D01*
X46280Y-14820D02*
X46480Y-14820D01*
X49280Y-14820D02*
X49080Y-14820D01*
X49080Y-14820D02*
X49080Y-14420D01*
X49080Y-14420D02*
X46480Y-14420D01*
X46480Y-14420D02*
X46480Y-15220D01*
X46480Y-15220D02*
X49080Y-15220D01*
X49080Y-15220D02*
X49080Y-14820D01*
X46480Y-14620D02*
X46680Y-14420D01*
X27880Y-14320D02*
X27680Y-14320D01*
X24880Y-14320D02*
X25080Y-14320D01*
X25080Y-14320D02*
X25080Y-14720D01*
X25080Y-14720D02*
X27680Y-14720D01*
X27680Y-14720D02*
X27680Y-13920D01*
X27680Y-13920D02*
X25080Y-13920D01*
X25080Y-13920D02*
X25080Y-14320D01*
X27680Y-14520D02*
X27480Y-14720D01*
G54D23*
X28930Y-27220D02*
X25430Y-27220D01*
X25430Y-27220D02*
X25430Y-27770D01*
X28930Y-27770D02*
X25430Y-27770D01*
X28930Y-27220D02*
X28930Y-27770D01*
X26030Y-24870D02*
X25630Y-24870D01*
X25630Y-24870D02*
X25630Y-25870D01*
X26030Y-25870D02*
X25630Y-25870D01*
X26030Y-24870D02*
X26030Y-25870D01*
X26030Y-24420D02*
X25630Y-24420D01*
X25630Y-24420D02*
X25630Y-24870D01*
X26030Y-24870D02*
X25630Y-24870D01*
X26030Y-24420D02*
X26030Y-24870D01*
X27380Y-24420D02*
X26980Y-24420D01*
X26980Y-24420D02*
X26980Y-24870D01*
X27380Y-24870D02*
X26980Y-24870D01*
X27380Y-24420D02*
X27380Y-24870D01*
X28730Y-24420D02*
X28330Y-24420D01*
X28330Y-24420D02*
X28330Y-24870D01*
X28730Y-24870D02*
X28330Y-24870D01*
X28730Y-24420D02*
X28730Y-24870D01*
X27380Y-24870D02*
X26980Y-24870D01*
X26980Y-24870D02*
X26980Y-25870D01*
X27380Y-25870D02*
X26980Y-25870D01*
X27380Y-24870D02*
X27380Y-25870D01*
X28730Y-24870D02*
X28330Y-24870D01*
X28330Y-24870D02*
X28330Y-25870D01*
X28730Y-25870D02*
X28330Y-25870D01*
X28730Y-24870D02*
X28730Y-25870D01*
G54D24*
X25130Y-27770D02*
X29230Y-27770D01*
X25130Y-27770D02*
X25130Y-27220D01*
X29230Y-27770D02*
X29230Y-27220D01*
X25180Y-26620D02*
X29180Y-26620D01*
X29230Y-27220D02*
X25130Y-27220D01*
X29230Y-27220D02*
X29130Y-25870D01*
X25130Y-27220D02*
X25230Y-25870D01*
X26930Y-25870D02*
X27430Y-25870D01*
X25230Y-25870D02*
X26030Y-25870D01*
G54D20*
X26030Y-25870D02*
X26930Y-25870D01*
G54D24*
X29130Y-25870D02*
X28330Y-25870D01*
G54D20*
X28330Y-25870D02*
X27430Y-25870D01*
G54D24*
X50230Y-12966D02*
X51175Y-13911D01*
X51175Y-13911D02*
X51175Y-21628D01*
X51175Y-21628D02*
X50230Y-22573D01*
X42244Y-12970D02*
X42244Y-22570D01*
X42244Y-22570D02*
X50230Y-22570D01*
X50230Y-12970D02*
X42244Y-12970D01*
G54D22*
X42244Y-12970D02*
X42244Y-22570D01*
X42244Y-22570D02*
X50230Y-22570D01*
X50230Y-12970D02*
X42244Y-12970D01*
G54D20*
X34419Y-21166D02*
X35126Y-20459D01*
X35126Y-20459D02*
X36540Y-21873D01*
X36540Y-21873D02*
X35833Y-22580D01*
X35833Y-22580D02*
X34419Y-21166D01*
X40326Y-22580D02*
X39619Y-21873D01*
X39619Y-21873D02*
X41033Y-20459D01*
X41033Y-20459D02*
X41740Y-21166D01*
X41740Y-21166D02*
X40326Y-22580D01*
X39619Y-15966D02*
X40326Y-15259D01*
X40326Y-15259D02*
X41740Y-16673D01*
X41740Y-16673D02*
X41033Y-17380D01*
X41033Y-17380D02*
X39619Y-15966D01*
X35833Y-15259D02*
X36540Y-15966D01*
X36540Y-15966D02*
X35126Y-17380D01*
X35126Y-17380D02*
X34419Y-16673D01*
X34419Y-16673D02*
X35833Y-15259D01*
G54D12*
X38980Y-18920D02*
G75*
G03X38980Y-18920I-900J0D01*
G74*
G01*
G54D22*
X33480Y-16120D02*
G75*
G03X33480Y-16120I-1250J0D01*
G74*
G01*
G54D19*
X50940Y-22766D02*
X48819Y-22766D01*
X48819Y-22766D02*
X48465Y-23120D01*
X48465Y-23120D02*
X48465Y-23827D01*
X48465Y-23827D02*
X49172Y-24534D01*
X49172Y-24534D02*
X50587Y-24534D01*
X50587Y-24534D02*
X51294Y-23827D01*
X51294Y-23827D02*
X51294Y-23120D01*
X51294Y-23120D02*
X50940Y-22766D01*
X47780Y-23120D02*
X47580Y-23120D01*
X44780Y-23120D02*
X44980Y-23120D01*
X44980Y-23120D02*
X44980Y-23520D01*
X44980Y-23520D02*
X47580Y-23520D01*
X47580Y-23520D02*
X47580Y-22720D01*
X47580Y-22720D02*
X44980Y-22720D01*
X44980Y-22720D02*
X44980Y-23120D01*
X47580Y-23320D02*
X47380Y-23520D01*
X40780Y-23720D02*
X40980Y-23720D01*
X43780Y-23720D02*
X43580Y-23720D01*
X43580Y-23720D02*
X43580Y-23320D01*
X43580Y-23320D02*
X40980Y-23320D01*
X40980Y-23320D02*
X40980Y-24120D01*
X40980Y-24120D02*
X43580Y-24120D01*
X43580Y-24120D02*
X43580Y-23720D01*
X40980Y-23520D02*
X41180Y-23320D01*
X43280Y-18020D02*
X43480Y-18020D01*
X46280Y-18020D02*
X46080Y-18020D01*
X46080Y-18020D02*
X46080Y-17620D01*
X46080Y-17620D02*
X43480Y-17620D01*
X43480Y-17620D02*
X43480Y-18420D01*
X43480Y-18420D02*
X46080Y-18420D01*
X46080Y-18420D02*
X46080Y-18020D01*
X43480Y-17820D02*
X43680Y-17620D01*
G54D21*
X47980Y-27420D02*
X43980Y-27420D01*
X47980Y-26420D02*
X43980Y-26420D01*
X43980Y-26420D02*
X43980Y-27420D01*
X47980Y-27420D02*
X47980Y-26420D01*
G54D20*
X50980Y-25720D02*
X50980Y-26720D01*
X50980Y-26720D02*
X48980Y-26720D01*
X48980Y-26720D02*
X48980Y-25720D01*
X48980Y-25720D02*
X50980Y-25720D01*
X48980Y-27720D02*
X48980Y-26720D01*
X48980Y-26720D02*
X50980Y-26720D01*
X50980Y-26720D02*
X50980Y-27720D01*
X50980Y-27720D02*
X48980Y-27720D01*
X49980Y-25720D02*
X48980Y-25720D01*
X48980Y-24720D02*
X49980Y-24720D01*
X48980Y-25720D02*
X48980Y-24720D01*
X49980Y-24720D02*
X49980Y-25720D01*
G54D21*
X27034Y-22881D02*
X27034Y-22481D01*
X27130Y-22481D01*
X27187Y-22500D01*
X27225Y-22539D01*
X27244Y-22577D01*
X27263Y-22653D01*
X27263Y-22710D01*
X27244Y-22786D01*
X27225Y-22824D01*
X27187Y-22862D01*
X27130Y-22881D01*
X27034Y-22881D01*
X27644Y-22881D02*
X27415Y-22881D01*
X27530Y-22881D02*
X27530Y-22481D01*
X27491Y-22539D01*
X27453Y-22577D01*
X27415Y-22596D01*
G54D19*
X21722Y-20762D02*
X21122Y-20762D01*
X21122Y-20534D01*
X21151Y-20477D01*
X21180Y-20448D01*
X21237Y-20420D01*
X21322Y-20420D01*
X21380Y-20448D01*
X21408Y-20477D01*
X21437Y-20534D01*
X21437Y-20762D01*
X21722Y-19848D02*
X21722Y-20191D01*
X21722Y-20020D02*
X21122Y-20020D01*
X21208Y-20077D01*
X21265Y-20134D01*
X21294Y-20191D01*
G54D18*
X32296Y-21792D02*
X32130Y-21530D01*
X32010Y-21792D02*
X32010Y-21242D01*
X32201Y-21242D01*
X32249Y-21268D01*
X32272Y-21295D01*
X32296Y-21347D01*
X32296Y-21425D01*
X32272Y-21478D01*
X32249Y-21504D01*
X32201Y-21530D01*
X32010Y-21530D01*
X32772Y-21792D02*
X32487Y-21792D01*
X32630Y-21792D02*
X32630Y-21242D01*
X32582Y-21321D01*
X32534Y-21373D01*
X32487Y-21399D01*
X28196Y-10942D02*
X28030Y-10680D01*
X27910Y-10942D02*
X27910Y-10392D01*
X28101Y-10392D01*
X28149Y-10418D01*
X28172Y-10445D01*
X28196Y-10497D01*
X28196Y-10575D01*
X28172Y-10628D01*
X28149Y-10654D01*
X28101Y-10680D01*
X27910Y-10680D01*
X28387Y-10445D02*
X28410Y-10418D01*
X28458Y-10392D01*
X28577Y-10392D01*
X28625Y-10418D01*
X28649Y-10445D01*
X28672Y-10497D01*
X28672Y-10549D01*
X28649Y-10628D01*
X28363Y-10942D01*
X28672Y-10942D01*
X28196Y-11992D02*
X28030Y-11730D01*
X27910Y-11992D02*
X27910Y-11442D01*
X28101Y-11442D01*
X28149Y-11468D01*
X28172Y-11495D01*
X28196Y-11547D01*
X28196Y-11625D01*
X28172Y-11678D01*
X28149Y-11704D01*
X28101Y-11730D01*
X27910Y-11730D01*
X28363Y-11442D02*
X28672Y-11442D01*
X28506Y-11652D01*
X28577Y-11652D01*
X28625Y-11678D01*
X28649Y-11704D01*
X28672Y-11756D01*
X28672Y-11887D01*
X28649Y-11940D01*
X28625Y-11966D01*
X28577Y-11992D01*
X28434Y-11992D01*
X28387Y-11966D01*
X28363Y-11940D01*
X28196Y-13042D02*
X28030Y-12780D01*
X27910Y-13042D02*
X27910Y-12492D01*
X28101Y-12492D01*
X28149Y-12518D01*
X28172Y-12545D01*
X28196Y-12597D01*
X28196Y-12675D01*
X28172Y-12728D01*
X28149Y-12754D01*
X28101Y-12780D01*
X27910Y-12780D01*
X28625Y-12675D02*
X28625Y-13042D01*
X28506Y-12466D02*
X28387Y-12859D01*
X28696Y-12859D01*
X34202Y-26253D02*
X33940Y-26420D01*
X34202Y-26539D02*
X33652Y-26539D01*
X33652Y-26348D01*
X33678Y-26300D01*
X33705Y-26277D01*
X33757Y-26253D01*
X33835Y-26253D01*
X33888Y-26277D01*
X33914Y-26300D01*
X33940Y-26348D01*
X33940Y-26539D01*
X33652Y-25800D02*
X33652Y-26039D01*
X33914Y-26062D01*
X33888Y-26039D01*
X33862Y-25991D01*
X33862Y-25872D01*
X33888Y-25824D01*
X33914Y-25800D01*
X33966Y-25777D01*
X34097Y-25777D01*
X34150Y-25800D01*
X34176Y-25824D01*
X34202Y-25872D01*
X34202Y-25991D01*
X34176Y-26039D01*
X34150Y-26062D01*
X35452Y-25603D02*
X35190Y-25770D01*
X35452Y-25889D02*
X34902Y-25889D01*
X34902Y-25698D01*
X34928Y-25650D01*
X34955Y-25627D01*
X35007Y-25603D01*
X35085Y-25603D01*
X35138Y-25627D01*
X35164Y-25650D01*
X35190Y-25698D01*
X35190Y-25889D01*
X34902Y-25174D02*
X34902Y-25270D01*
X34928Y-25317D01*
X34955Y-25341D01*
X35033Y-25389D01*
X35138Y-25412D01*
X35347Y-25412D01*
X35400Y-25389D01*
X35426Y-25365D01*
X35452Y-25317D01*
X35452Y-25222D01*
X35426Y-25174D01*
X35400Y-25150D01*
X35347Y-25127D01*
X35216Y-25127D01*
X35164Y-25150D01*
X35138Y-25174D01*
X35112Y-25222D01*
X35112Y-25317D01*
X35138Y-25365D01*
X35164Y-25389D01*
X35216Y-25412D01*
X38502Y-25603D02*
X38240Y-25770D01*
X38502Y-25889D02*
X37952Y-25889D01*
X37952Y-25698D01*
X37978Y-25650D01*
X38005Y-25627D01*
X38057Y-25603D01*
X38135Y-25603D01*
X38188Y-25627D01*
X38214Y-25650D01*
X38240Y-25698D01*
X38240Y-25889D01*
X37952Y-25436D02*
X37952Y-25103D01*
X38502Y-25317D01*
X43396Y-15542D02*
X43230Y-15280D01*
X43110Y-15542D02*
X43110Y-14992D01*
X43301Y-14992D01*
X43349Y-15018D01*
X43372Y-15045D01*
X43396Y-15097D01*
X43396Y-15175D01*
X43372Y-15228D01*
X43349Y-15254D01*
X43301Y-15280D01*
X43110Y-15280D01*
X43682Y-15228D02*
X43634Y-15202D01*
X43610Y-15175D01*
X43587Y-15123D01*
X43587Y-15097D01*
X43610Y-15045D01*
X43634Y-15018D01*
X43682Y-14992D01*
X43777Y-14992D01*
X43825Y-15018D01*
X43849Y-15045D01*
X43872Y-15097D01*
X43872Y-15123D01*
X43849Y-15175D01*
X43825Y-15202D01*
X43777Y-15228D01*
X43682Y-15228D01*
X43634Y-15254D01*
X43610Y-15280D01*
X43587Y-15333D01*
X43587Y-15437D01*
X43610Y-15490D01*
X43634Y-15516D01*
X43682Y-15542D01*
X43777Y-15542D01*
X43825Y-15516D01*
X43849Y-15490D01*
X43872Y-15437D01*
X43872Y-15333D01*
X43849Y-15280D01*
X43825Y-15254D01*
X43777Y-15228D01*
X36502Y-25603D02*
X36240Y-25770D01*
X36502Y-25889D02*
X35952Y-25889D01*
X35952Y-25698D01*
X35978Y-25650D01*
X36005Y-25627D01*
X36057Y-25603D01*
X36135Y-25603D01*
X36188Y-25627D01*
X36214Y-25650D01*
X36240Y-25698D01*
X36240Y-25889D01*
X36502Y-25365D02*
X36502Y-25270D01*
X36476Y-25222D01*
X36450Y-25198D01*
X36371Y-25150D01*
X36266Y-25127D01*
X36057Y-25127D01*
X36005Y-25150D01*
X35978Y-25174D01*
X35952Y-25222D01*
X35952Y-25317D01*
X35978Y-25365D01*
X36005Y-25389D01*
X36057Y-25412D01*
X36188Y-25412D01*
X36240Y-25389D01*
X36266Y-25365D01*
X36293Y-25317D01*
X36293Y-25222D01*
X36266Y-25174D01*
X36240Y-25150D01*
X36188Y-25127D01*
G54D11*
X29044Y-15584D02*
X29130Y-15612D01*
X29272Y-15612D01*
X29330Y-15584D01*
X29358Y-15555D01*
X29387Y-15498D01*
X29387Y-15441D01*
X29358Y-15384D01*
X29330Y-15355D01*
X29272Y-15327D01*
X29158Y-15298D01*
X29101Y-15270D01*
X29072Y-15241D01*
X29044Y-15184D01*
X29044Y-15127D01*
X29072Y-15070D01*
X29101Y-15041D01*
X29158Y-15012D01*
X29301Y-15012D01*
X29387Y-15041D01*
X29644Y-15212D02*
X29644Y-15812D01*
X29644Y-15241D02*
X29701Y-15212D01*
X29815Y-15212D01*
X29872Y-15241D01*
X29901Y-15270D01*
X29930Y-15327D01*
X29930Y-15498D01*
X29901Y-15555D01*
X29872Y-15584D01*
X29815Y-15612D01*
X29701Y-15612D01*
X29644Y-15584D01*
X30187Y-15612D02*
X30187Y-15012D01*
X30244Y-15384D02*
X30415Y-15612D01*
X30415Y-15212D02*
X30187Y-15441D01*
G54D18*
X50652Y-10991D02*
X50390Y-11158D01*
X50652Y-11277D02*
X50102Y-11277D01*
X50102Y-11086D01*
X50128Y-11039D01*
X50155Y-11015D01*
X50207Y-10991D01*
X50285Y-10991D01*
X50338Y-11015D01*
X50364Y-11039D01*
X50390Y-11086D01*
X50390Y-11277D01*
X50652Y-10515D02*
X50652Y-10800D01*
X50652Y-10658D02*
X50102Y-10658D01*
X50181Y-10705D01*
X50233Y-10753D01*
X50259Y-10800D01*
X50102Y-10205D02*
X50102Y-10158D01*
X50128Y-10110D01*
X50155Y-10086D01*
X50207Y-10062D01*
X50312Y-10039D01*
X50443Y-10039D01*
X50547Y-10062D01*
X50600Y-10086D01*
X50626Y-10110D01*
X50652Y-10158D01*
X50652Y-10205D01*
X50626Y-10253D01*
X50600Y-10277D01*
X50547Y-10300D01*
X50443Y-10324D01*
X50312Y-10324D01*
X50207Y-10300D01*
X50155Y-10277D01*
X50128Y-10253D01*
X50102Y-10205D01*
X47458Y-10892D02*
X47291Y-10630D01*
X47172Y-10892D02*
X47172Y-10342D01*
X47363Y-10342D01*
X47410Y-10368D01*
X47434Y-10395D01*
X47458Y-10447D01*
X47458Y-10525D01*
X47434Y-10578D01*
X47410Y-10604D01*
X47363Y-10630D01*
X47172Y-10630D01*
X47934Y-10892D02*
X47649Y-10892D01*
X47791Y-10892D02*
X47791Y-10342D01*
X47744Y-10421D01*
X47696Y-10473D01*
X47649Y-10499D01*
X48410Y-10892D02*
X48125Y-10892D01*
X48268Y-10892D02*
X48268Y-10342D01*
X48220Y-10421D01*
X48172Y-10473D01*
X48125Y-10499D01*
X48219Y-24978D02*
X48240Y-24995D01*
X48262Y-25045D01*
X48262Y-25078D01*
X48240Y-25128D01*
X48197Y-25161D01*
X48155Y-25178D01*
X48069Y-25195D01*
X48005Y-25195D01*
X47919Y-25178D01*
X47876Y-25161D01*
X47833Y-25128D01*
X47812Y-25078D01*
X47812Y-25045D01*
X47833Y-24995D01*
X47855Y-24978D01*
X47812Y-24861D02*
X47812Y-24645D01*
X47983Y-24761D01*
X47983Y-24711D01*
X48005Y-24678D01*
X48026Y-24661D01*
X48069Y-24645D01*
X48176Y-24645D01*
X48219Y-24661D01*
X48240Y-24678D01*
X48262Y-24711D01*
X48262Y-24811D01*
X48240Y-24845D01*
X48219Y-24861D01*
X46662Y-25461D02*
X46662Y-25661D01*
X46662Y-25561D02*
X46212Y-25561D01*
X46276Y-25595D01*
X46319Y-25628D01*
X46340Y-25661D01*
X46212Y-25245D02*
X46212Y-25211D01*
X46233Y-25178D01*
X46255Y-25161D01*
X46297Y-25145D01*
X46383Y-25128D01*
X46490Y-25128D01*
X46576Y-25145D01*
X46619Y-25161D01*
X46640Y-25178D01*
X46662Y-25211D01*
X46662Y-25245D01*
X46640Y-25278D01*
X46619Y-25295D01*
X46576Y-25311D01*
X46490Y-25328D01*
X46383Y-25328D01*
X46297Y-25311D01*
X46255Y-25295D01*
X46233Y-25278D01*
X46212Y-25245D01*
X46212Y-24911D02*
X46212Y-24878D01*
X46233Y-24845D01*
X46255Y-24828D01*
X46297Y-24811D01*
X46383Y-24795D01*
X46490Y-24795D01*
X46576Y-24811D01*
X46619Y-24828D01*
X46640Y-24845D01*
X46662Y-24878D01*
X46662Y-24911D01*
X46640Y-24945D01*
X46619Y-24961D01*
X46576Y-24978D01*
X46490Y-24995D01*
X46383Y-24995D01*
X46297Y-24978D01*
X46255Y-24961D01*
X46233Y-24945D01*
X46212Y-24911D01*
X46362Y-24494D02*
X46662Y-24494D01*
X46362Y-24644D02*
X46597Y-24644D01*
X46640Y-24628D01*
X46662Y-24594D01*
X46662Y-24544D01*
X46640Y-24511D01*
X46619Y-24494D01*
X46426Y-24211D02*
X46426Y-24328D01*
X46662Y-24328D02*
X46212Y-24328D01*
X46212Y-24161D01*
G54D25*
X47190Y-24091D02*
X47190Y-23748D01*
X47362Y-23920D02*
X47019Y-23920D01*
G54D19*
G54D18*
X30003Y-20378D02*
X30022Y-20395D01*
X30041Y-20445D01*
X30041Y-20478D01*
X30022Y-20528D01*
X29984Y-20561D01*
X29946Y-20578D01*
X29870Y-20595D01*
X29813Y-20595D01*
X29737Y-20578D01*
X29699Y-20561D01*
X29660Y-20528D01*
X29641Y-20478D01*
X29641Y-20445D01*
X29660Y-20395D01*
X29680Y-20378D01*
X29680Y-20245D02*
X29660Y-20228D01*
X29641Y-20195D01*
X29641Y-20111D01*
X29660Y-20078D01*
X29680Y-20061D01*
X29718Y-20045D01*
X29756Y-20045D01*
X29813Y-20061D01*
X30041Y-20261D01*
X30041Y-20045D01*
X28542Y-21028D02*
X28542Y-21228D01*
X28542Y-21128D02*
X28142Y-21128D01*
X28200Y-21161D01*
X28238Y-21195D01*
X28257Y-21228D01*
X28142Y-20811D02*
X28142Y-20778D01*
X28161Y-20745D01*
X28181Y-20728D01*
X28219Y-20711D01*
X28295Y-20695D01*
X28390Y-20695D01*
X28466Y-20711D01*
X28504Y-20728D01*
X28523Y-20745D01*
X28542Y-20778D01*
X28542Y-20811D01*
X28523Y-20845D01*
X28504Y-20861D01*
X28466Y-20878D01*
X28390Y-20895D01*
X28295Y-20895D01*
X28219Y-20878D01*
X28181Y-20861D01*
X28161Y-20845D01*
X28142Y-20811D01*
X28142Y-20478D02*
X28142Y-20444D01*
X28161Y-20411D01*
X28181Y-20394D01*
X28219Y-20378D01*
X28295Y-20361D01*
X28390Y-20361D01*
X28466Y-20378D01*
X28504Y-20394D01*
X28523Y-20411D01*
X28542Y-20444D01*
X28542Y-20478D01*
X28523Y-20511D01*
X28504Y-20528D01*
X28466Y-20544D01*
X28390Y-20561D01*
X28295Y-20561D01*
X28219Y-20544D01*
X28181Y-20528D01*
X28161Y-20511D01*
X28142Y-20478D01*
X28142Y-20144D02*
X28142Y-20111D01*
X28161Y-20078D01*
X28181Y-20061D01*
X28219Y-20044D01*
X28295Y-20028D01*
X28390Y-20028D01*
X28466Y-20044D01*
X28504Y-20061D01*
X28523Y-20078D01*
X28542Y-20111D01*
X28542Y-20144D01*
X28523Y-20178D01*
X28504Y-20194D01*
X28466Y-20211D01*
X28390Y-20228D01*
X28295Y-20228D01*
X28219Y-20211D01*
X28181Y-20194D01*
X28161Y-20178D01*
X28142Y-20144D01*
X28276Y-19728D02*
X28542Y-19728D01*
X28276Y-19878D02*
X28485Y-19878D01*
X28523Y-19861D01*
X28542Y-19828D01*
X28542Y-19778D01*
X28523Y-19744D01*
X28504Y-19728D01*
X28333Y-19444D02*
X28333Y-19561D01*
X28542Y-19561D02*
X28142Y-19561D01*
X28142Y-19394D01*
X29094Y-21747D02*
X29094Y-21290D01*
X29322Y-21518D02*
X28865Y-21518D01*
X21622Y-27103D02*
X21641Y-27046D01*
X21641Y-26950D01*
X21622Y-26912D01*
X21603Y-26893D01*
X21565Y-26874D01*
X21527Y-26874D01*
X21489Y-26893D01*
X21470Y-26912D01*
X21451Y-26950D01*
X21432Y-27027D01*
X21413Y-27065D01*
X21394Y-27084D01*
X21356Y-27103D01*
X21318Y-27103D01*
X21280Y-27084D01*
X21260Y-27065D01*
X21241Y-27027D01*
X21241Y-26931D01*
X21260Y-26874D01*
X21241Y-26741D02*
X21641Y-26646D01*
X21356Y-26570D01*
X21641Y-26493D01*
X21241Y-26398D01*
X21241Y-26284D02*
X21241Y-26036D01*
X21394Y-26169D01*
X21394Y-26112D01*
X21413Y-26074D01*
X21432Y-26055D01*
X21470Y-26036D01*
X21565Y-26036D01*
X21603Y-26055D01*
X21622Y-26074D01*
X21641Y-26112D01*
X21641Y-26227D01*
X21622Y-26265D01*
X21603Y-26284D01*
X22272Y-14803D02*
X22291Y-14746D01*
X22291Y-14650D01*
X22272Y-14612D01*
X22253Y-14593D01*
X22215Y-14574D01*
X22177Y-14574D01*
X22139Y-14593D01*
X22120Y-14612D01*
X22101Y-14650D01*
X22082Y-14727D01*
X22063Y-14765D01*
X22044Y-14784D01*
X22006Y-14803D01*
X21968Y-14803D01*
X21930Y-14784D01*
X21910Y-14765D01*
X21891Y-14727D01*
X21891Y-14631D01*
X21910Y-14574D01*
X21891Y-14441D02*
X22291Y-14346D01*
X22006Y-14270D01*
X22291Y-14193D01*
X21891Y-14098D01*
X21930Y-13965D02*
X21910Y-13946D01*
X21891Y-13908D01*
X21891Y-13812D01*
X21910Y-13774D01*
X21930Y-13755D01*
X21968Y-13736D01*
X22006Y-13736D01*
X22063Y-13755D01*
X22291Y-13984D01*
X22291Y-13736D01*
X26703Y-20378D02*
X26722Y-20395D01*
X26741Y-20445D01*
X26741Y-20478D01*
X26722Y-20528D01*
X26684Y-20561D01*
X26646Y-20578D01*
X26570Y-20595D01*
X26513Y-20595D01*
X26437Y-20578D01*
X26399Y-20561D01*
X26360Y-20528D01*
X26341Y-20478D01*
X26341Y-20445D01*
X26360Y-20395D01*
X26380Y-20378D01*
X26741Y-20045D02*
X26741Y-20245D01*
X26741Y-20145D02*
X26341Y-20145D01*
X26399Y-20178D01*
X26437Y-20211D01*
X26456Y-20245D01*
X25242Y-20861D02*
X25242Y-21061D01*
X25242Y-20961D02*
X24842Y-20961D01*
X24900Y-20995D01*
X24938Y-21028D01*
X24957Y-21061D01*
X24842Y-20645D02*
X24842Y-20611D01*
X24861Y-20578D01*
X24881Y-20561D01*
X24919Y-20545D01*
X24995Y-20528D01*
X25090Y-20528D01*
X25166Y-20545D01*
X25204Y-20561D01*
X25223Y-20578D01*
X25242Y-20611D01*
X25242Y-20645D01*
X25223Y-20678D01*
X25204Y-20695D01*
X25166Y-20711D01*
X25090Y-20728D01*
X24995Y-20728D01*
X24919Y-20711D01*
X24881Y-20695D01*
X24861Y-20678D01*
X24842Y-20645D01*
X24842Y-20311D02*
X24842Y-20278D01*
X24861Y-20245D01*
X24881Y-20228D01*
X24919Y-20211D01*
X24995Y-20195D01*
X25090Y-20195D01*
X25166Y-20211D01*
X25204Y-20228D01*
X25223Y-20245D01*
X25242Y-20278D01*
X25242Y-20311D01*
X25223Y-20345D01*
X25204Y-20361D01*
X25166Y-20378D01*
X25090Y-20395D01*
X24995Y-20395D01*
X24919Y-20378D01*
X24881Y-20361D01*
X24861Y-20345D01*
X24842Y-20311D01*
X24976Y-19894D02*
X25242Y-19894D01*
X24976Y-20044D02*
X25185Y-20044D01*
X25223Y-20028D01*
X25242Y-19994D01*
X25242Y-19944D01*
X25223Y-19911D01*
X25204Y-19894D01*
X25033Y-19611D02*
X25033Y-19728D01*
X25242Y-19728D02*
X24842Y-19728D01*
X24842Y-19561D01*
X25794Y-21747D02*
X25794Y-21290D01*
X26022Y-21518D02*
X25565Y-21518D01*
G54D11*
X24458Y-11212D02*
X24172Y-11212D01*
X24172Y-10612D01*
X24658Y-10898D02*
X24858Y-10898D01*
X24944Y-11212D02*
X24658Y-11212D01*
X24658Y-10612D01*
X24944Y-10612D01*
X25201Y-11212D02*
X25201Y-10612D01*
X25344Y-10612D01*
X25430Y-10641D01*
X25487Y-10698D01*
X25515Y-10755D01*
X25544Y-10870D01*
X25544Y-10955D01*
X25515Y-11070D01*
X25487Y-11127D01*
X25430Y-11184D01*
X25344Y-11212D01*
X25201Y-11212D01*
X26115Y-11212D02*
X25772Y-11212D01*
X25944Y-11212D02*
X25944Y-10612D01*
X25887Y-10698D01*
X25830Y-10755D01*
X25772Y-10784D01*
G54D19*
X30822Y-23270D02*
X30822Y-23555D01*
X30222Y-23555D01*
X30822Y-22755D02*
X30822Y-23098D01*
X30822Y-22927D02*
X30222Y-22927D01*
X30308Y-22984D01*
X30365Y-23041D01*
X30394Y-23098D01*
G54D18*
X45319Y-11478D02*
X45340Y-11495D01*
X45362Y-11545D01*
X45362Y-11578D01*
X45340Y-11628D01*
X45297Y-11661D01*
X45255Y-11678D01*
X45169Y-11695D01*
X45105Y-11695D01*
X45019Y-11678D01*
X44976Y-11661D01*
X44933Y-11628D01*
X44912Y-11578D01*
X44912Y-11545D01*
X44933Y-11495D01*
X44955Y-11478D01*
X44912Y-11161D02*
X44912Y-11328D01*
X45126Y-11345D01*
X45105Y-11328D01*
X45083Y-11295D01*
X45083Y-11211D01*
X45105Y-11178D01*
X45126Y-11161D01*
X45169Y-11145D01*
X45276Y-11145D01*
X45319Y-11161D01*
X45340Y-11178D01*
X45362Y-11211D01*
X45362Y-11295D01*
X45340Y-11328D01*
X45319Y-11345D01*
X43862Y-12061D02*
X43862Y-12261D01*
X43862Y-12161D02*
X43412Y-12161D01*
X43476Y-12195D01*
X43519Y-12228D01*
X43540Y-12261D01*
X43412Y-11845D02*
X43412Y-11811D01*
X43433Y-11778D01*
X43455Y-11761D01*
X43497Y-11745D01*
X43583Y-11728D01*
X43690Y-11728D01*
X43776Y-11745D01*
X43819Y-11761D01*
X43840Y-11778D01*
X43862Y-11811D01*
X43862Y-11845D01*
X43840Y-11878D01*
X43819Y-11895D01*
X43776Y-11911D01*
X43690Y-11928D01*
X43583Y-11928D01*
X43497Y-11911D01*
X43455Y-11895D01*
X43433Y-11878D01*
X43412Y-11845D01*
X43412Y-11511D02*
X43412Y-11478D01*
X43433Y-11445D01*
X43455Y-11428D01*
X43497Y-11411D01*
X43583Y-11395D01*
X43690Y-11395D01*
X43776Y-11411D01*
X43819Y-11428D01*
X43840Y-11445D01*
X43862Y-11478D01*
X43862Y-11511D01*
X43840Y-11545D01*
X43819Y-11561D01*
X43776Y-11578D01*
X43690Y-11595D01*
X43583Y-11595D01*
X43497Y-11578D01*
X43455Y-11561D01*
X43433Y-11545D01*
X43412Y-11511D01*
X43562Y-11094D02*
X43862Y-11094D01*
X43562Y-11244D02*
X43797Y-11244D01*
X43840Y-11228D01*
X43862Y-11194D01*
X43862Y-11144D01*
X43840Y-11111D01*
X43819Y-11094D01*
X43626Y-10811D02*
X43626Y-10928D01*
X43862Y-10928D02*
X43412Y-10928D01*
X43412Y-10761D01*
G54D25*
X45090Y-12241D02*
X45090Y-11898D01*
X45262Y-12070D02*
X44919Y-12070D01*
G54D19*
G54D18*
X47458Y-16092D02*
X47291Y-15830D01*
X47172Y-16092D02*
X47172Y-15542D01*
X47363Y-15542D01*
X47410Y-15568D01*
X47434Y-15595D01*
X47458Y-15647D01*
X47458Y-15725D01*
X47434Y-15778D01*
X47410Y-15804D01*
X47363Y-15830D01*
X47172Y-15830D01*
X47934Y-16092D02*
X47649Y-16092D01*
X47791Y-16092D02*
X47791Y-15542D01*
X47744Y-15621D01*
X47696Y-15673D01*
X47649Y-15699D01*
X48363Y-15542D02*
X48268Y-15542D01*
X48220Y-15568D01*
X48196Y-15595D01*
X48149Y-15673D01*
X48125Y-15778D01*
X48125Y-15987D01*
X48149Y-16040D01*
X48172Y-16066D01*
X48220Y-16092D01*
X48315Y-16092D01*
X48363Y-16066D01*
X48387Y-16040D01*
X48410Y-15987D01*
X48410Y-15856D01*
X48387Y-15804D01*
X48363Y-15778D01*
X48315Y-15752D01*
X48220Y-15752D01*
X48172Y-15778D01*
X48149Y-15804D01*
X48125Y-15856D01*
X47458Y-17142D02*
X47291Y-16880D01*
X47172Y-17142D02*
X47172Y-16592D01*
X47363Y-16592D01*
X47410Y-16618D01*
X47434Y-16645D01*
X47458Y-16697D01*
X47458Y-16775D01*
X47434Y-16828D01*
X47410Y-16854D01*
X47363Y-16880D01*
X47172Y-16880D01*
X47934Y-17142D02*
X47649Y-17142D01*
X47791Y-17142D02*
X47791Y-16592D01*
X47744Y-16671D01*
X47696Y-16723D01*
X47649Y-16749D01*
X48101Y-16592D02*
X48434Y-16592D01*
X48220Y-17142D01*
X47458Y-15042D02*
X47291Y-14780D01*
X47172Y-15042D02*
X47172Y-14492D01*
X47363Y-14492D01*
X47410Y-14518D01*
X47434Y-14545D01*
X47458Y-14597D01*
X47458Y-14675D01*
X47434Y-14728D01*
X47410Y-14754D01*
X47363Y-14780D01*
X47172Y-14780D01*
X47934Y-15042D02*
X47649Y-15042D01*
X47791Y-15042D02*
X47791Y-14492D01*
X47744Y-14571D01*
X47696Y-14623D01*
X47649Y-14649D01*
X48387Y-14492D02*
X48149Y-14492D01*
X48125Y-14754D01*
X48149Y-14728D01*
X48196Y-14702D01*
X48315Y-14702D01*
X48363Y-14728D01*
X48387Y-14754D01*
X48410Y-14806D01*
X48410Y-14937D01*
X48387Y-14990D01*
X48363Y-15016D01*
X48315Y-15042D01*
X48196Y-15042D01*
X48149Y-15016D01*
X48125Y-14990D01*
X26058Y-14542D02*
X25891Y-14280D01*
X25772Y-14542D02*
X25772Y-13992D01*
X25963Y-13992D01*
X26010Y-14018D01*
X26034Y-14045D01*
X26058Y-14097D01*
X26058Y-14175D01*
X26034Y-14228D01*
X26010Y-14254D01*
X25963Y-14280D01*
X25772Y-14280D01*
X26534Y-14542D02*
X26249Y-14542D01*
X26391Y-14542D02*
X26391Y-13992D01*
X26344Y-14071D01*
X26296Y-14123D01*
X26249Y-14149D01*
X26820Y-14228D02*
X26772Y-14202D01*
X26749Y-14175D01*
X26725Y-14123D01*
X26725Y-14097D01*
X26749Y-14045D01*
X26772Y-14018D01*
X26820Y-13992D01*
X26915Y-13992D01*
X26963Y-14018D01*
X26987Y-14045D01*
X27010Y-14097D01*
X27010Y-14123D01*
X26987Y-14175D01*
X26963Y-14202D01*
X26915Y-14228D01*
X26820Y-14228D01*
X26772Y-14254D01*
X26749Y-14280D01*
X26725Y-14333D01*
X26725Y-14437D01*
X26749Y-14490D01*
X26772Y-14516D01*
X26820Y-14542D01*
X26915Y-14542D01*
X26963Y-14516D01*
X26987Y-14490D01*
X27010Y-14437D01*
X27010Y-14333D01*
X26987Y-14280D01*
X26963Y-14254D01*
X26915Y-14228D01*
G54D11*
X24882Y-27553D02*
X24882Y-27791D01*
X24382Y-27791D01*
X24882Y-27386D02*
X24382Y-27386D01*
X24739Y-27220D01*
X24382Y-27053D01*
X24882Y-27053D01*
X24430Y-26839D02*
X24406Y-26815D01*
X24382Y-26767D01*
X24382Y-26648D01*
X24406Y-26600D01*
X24430Y-26577D01*
X24477Y-26553D01*
X24525Y-26553D01*
X24596Y-26577D01*
X24882Y-26862D01*
X24882Y-26553D01*
X24382Y-26100D02*
X24382Y-26339D01*
X24620Y-26362D01*
X24596Y-26339D01*
X24572Y-26291D01*
X24572Y-26172D01*
X24596Y-26124D01*
X24620Y-26100D01*
X24668Y-26077D01*
X24787Y-26077D01*
X24834Y-26100D01*
X24858Y-26124D01*
X24882Y-26172D01*
X24882Y-26291D01*
X24858Y-26339D01*
X24834Y-26362D01*
X24382Y-25910D02*
X24382Y-25577D01*
X24882Y-25791D01*
X24382Y-25172D02*
X24382Y-25267D01*
X24406Y-25315D01*
X24430Y-25339D01*
X24501Y-25386D01*
X24596Y-25410D01*
X24787Y-25410D01*
X24834Y-25386D01*
X24858Y-25362D01*
X24882Y-25315D01*
X24882Y-25220D01*
X24858Y-25172D01*
X24834Y-25148D01*
X24787Y-25124D01*
X24668Y-25124D01*
X24620Y-25148D01*
X24596Y-25172D01*
X24572Y-25220D01*
X24572Y-25315D01*
X24596Y-25362D01*
X24620Y-25386D01*
X24668Y-25410D01*
G54D15*
X43942Y-19016D02*
X44992Y-20198D01*
X44992Y-19016D02*
X43942Y-20198D01*
X46117Y-19579D02*
X46342Y-19635D01*
X46417Y-19691D01*
X46492Y-19804D01*
X46492Y-19973D01*
X46417Y-20085D01*
X46342Y-20141D01*
X46192Y-20198D01*
X45592Y-20198D01*
X45592Y-19016D01*
X46117Y-19016D01*
X46267Y-19073D01*
X46342Y-19129D01*
X46417Y-19241D01*
X46417Y-19354D01*
X46342Y-19466D01*
X46267Y-19523D01*
X46117Y-19579D01*
X45592Y-19579D01*
X47167Y-19579D02*
X47692Y-19579D01*
X47917Y-20198D02*
X47167Y-20198D01*
X47167Y-19016D01*
X47917Y-19016D01*
X48592Y-19579D02*
X49117Y-19579D01*
X49342Y-20198D02*
X48592Y-20198D01*
X48592Y-19016D01*
X49342Y-19016D01*
G54D26*
X34390Y-22233D02*
X34271Y-22114D01*
X34522Y-21863D01*
X34474Y-22317D02*
X34724Y-22066D01*
X34784Y-22126D01*
X34808Y-22174D01*
X34808Y-22221D01*
X34796Y-22257D01*
X34760Y-22317D01*
X34724Y-22352D01*
X34665Y-22388D01*
X34629Y-22400D01*
X34581Y-22400D01*
X34534Y-22376D01*
X34474Y-22317D01*
X34868Y-22710D02*
X34903Y-22508D01*
X34724Y-22567D02*
X34975Y-22317D01*
X35070Y-22412D01*
X35082Y-22448D01*
X35082Y-22472D01*
X35070Y-22508D01*
X35035Y-22543D01*
X34999Y-22555D01*
X34975Y-22555D01*
X34939Y-22543D01*
X34844Y-22448D01*
X34891Y-22782D02*
X35082Y-22973D01*
X35440Y-22949D02*
X35273Y-23116D01*
X35476Y-22794D02*
X35237Y-22913D01*
X35393Y-23068D01*
X41143Y-22859D02*
X41024Y-22978D01*
X40773Y-22727D01*
X41227Y-22775D02*
X40976Y-22525D01*
X41036Y-22465D01*
X41084Y-22441D01*
X41131Y-22441D01*
X41167Y-22453D01*
X41227Y-22489D01*
X41262Y-22525D01*
X41298Y-22584D01*
X41310Y-22620D01*
X41310Y-22668D01*
X41286Y-22715D01*
X41227Y-22775D01*
X41620Y-22381D02*
X41418Y-22346D01*
X41477Y-22525D02*
X41227Y-22274D01*
X41322Y-22179D01*
X41358Y-22167D01*
X41382Y-22167D01*
X41418Y-22179D01*
X41453Y-22214D01*
X41465Y-22250D01*
X41465Y-22274D01*
X41453Y-22310D01*
X41358Y-22405D01*
X41692Y-22358D02*
X41883Y-22167D01*
X41644Y-21856D02*
X41799Y-21701D01*
X41811Y-21880D01*
X41847Y-21845D01*
X41883Y-21833D01*
X41907Y-21833D01*
X41943Y-21845D01*
X42002Y-21904D01*
X42014Y-21940D01*
X42014Y-21964D01*
X42002Y-22000D01*
X41931Y-22071D01*
X41895Y-22083D01*
X41871Y-22083D01*
X40190Y-14433D02*
X40071Y-14314D01*
X40322Y-14063D01*
X40274Y-14517D02*
X40524Y-14266D01*
X40584Y-14326D01*
X40608Y-14374D01*
X40608Y-14421D01*
X40596Y-14457D01*
X40560Y-14517D01*
X40524Y-14552D01*
X40465Y-14588D01*
X40429Y-14600D01*
X40381Y-14600D01*
X40334Y-14576D01*
X40274Y-14517D01*
X40668Y-14910D02*
X40703Y-14708D01*
X40524Y-14767D02*
X40775Y-14517D01*
X40870Y-14612D01*
X40882Y-14648D01*
X40882Y-14672D01*
X40870Y-14708D01*
X40835Y-14743D01*
X40799Y-14755D01*
X40775Y-14755D01*
X40739Y-14743D01*
X40644Y-14648D01*
X40691Y-14982D02*
X40882Y-15173D01*
X41181Y-14970D02*
X41204Y-14970D01*
X41240Y-14982D01*
X41300Y-15042D01*
X41312Y-15077D01*
X41312Y-15101D01*
X41300Y-15137D01*
X41276Y-15161D01*
X41228Y-15185D01*
X40942Y-15185D01*
X41097Y-15340D01*
X34443Y-16009D02*
X34324Y-16128D01*
X34073Y-15877D01*
X34527Y-15925D02*
X34276Y-15675D01*
X34336Y-15615D01*
X34384Y-15591D01*
X34431Y-15591D01*
X34467Y-15603D01*
X34527Y-15639D01*
X34562Y-15675D01*
X34598Y-15734D01*
X34610Y-15770D01*
X34610Y-15818D01*
X34586Y-15865D01*
X34527Y-15925D01*
X34920Y-15531D02*
X34718Y-15496D01*
X34777Y-15675D02*
X34527Y-15424D01*
X34622Y-15329D01*
X34658Y-15317D01*
X34682Y-15317D01*
X34718Y-15329D01*
X34753Y-15364D01*
X34765Y-15400D01*
X34765Y-15424D01*
X34753Y-15460D01*
X34658Y-15555D01*
X34992Y-15508D02*
X35183Y-15317D01*
X35350Y-15102D02*
X35207Y-15245D01*
X35278Y-15174D02*
X35028Y-14923D01*
X35040Y-14983D01*
X35040Y-15030D01*
X35028Y-15066D01*
G54D18*
X32171Y-17009D02*
X32155Y-17030D01*
X32105Y-17052D01*
X32071Y-17052D01*
X32021Y-17030D01*
X31988Y-16987D01*
X31971Y-16945D01*
X31955Y-16859D01*
X31955Y-16795D01*
X31971Y-16709D01*
X31988Y-16666D01*
X32021Y-16623D01*
X32071Y-16602D01*
X32105Y-16602D01*
X32155Y-16623D01*
X32171Y-16645D01*
X32471Y-16752D02*
X32471Y-17052D01*
X32388Y-16580D02*
X32305Y-16902D01*
X32521Y-16902D01*
X31638Y-15602D02*
X31438Y-15602D01*
X31538Y-15602D02*
X31538Y-15152D01*
X31505Y-15216D01*
X31471Y-15259D01*
X31438Y-15280D01*
X31855Y-15152D02*
X31888Y-15152D01*
X31921Y-15173D01*
X31938Y-15195D01*
X31955Y-15237D01*
X31971Y-15323D01*
X31971Y-15430D01*
X31955Y-15516D01*
X31938Y-15559D01*
X31921Y-15580D01*
X31888Y-15602D01*
X31855Y-15602D01*
X31821Y-15580D01*
X31805Y-15559D01*
X31788Y-15516D01*
X31771Y-15430D01*
X31771Y-15323D01*
X31788Y-15237D01*
X31805Y-15195D01*
X31821Y-15173D01*
X31855Y-15152D01*
X32188Y-15152D02*
X32221Y-15152D01*
X32255Y-15173D01*
X32271Y-15195D01*
X32288Y-15237D01*
X32305Y-15323D01*
X32305Y-15430D01*
X32288Y-15516D01*
X32271Y-15559D01*
X32255Y-15580D01*
X32221Y-15602D01*
X32188Y-15602D01*
X32155Y-15580D01*
X32138Y-15559D01*
X32121Y-15516D01*
X32105Y-15430D01*
X32105Y-15323D01*
X32121Y-15237D01*
X32138Y-15195D01*
X32155Y-15173D01*
X32188Y-15152D01*
X32605Y-15302D02*
X32605Y-15602D01*
X32455Y-15302D02*
X32455Y-15537D01*
X32471Y-15580D01*
X32505Y-15602D01*
X32555Y-15602D01*
X32588Y-15580D01*
X32605Y-15559D01*
X32888Y-15366D02*
X32771Y-15366D01*
X32771Y-15602D02*
X32771Y-15152D01*
X32938Y-15152D01*
G54D25*
X31358Y-16780D02*
X31701Y-16780D01*
X31530Y-16952D02*
X31530Y-16609D01*
G54D19*
G54D18*
X45958Y-23342D02*
X45791Y-23080D01*
X45672Y-23342D02*
X45672Y-22792D01*
X45863Y-22792D01*
X45910Y-22818D01*
X45934Y-22845D01*
X45958Y-22897D01*
X45958Y-22975D01*
X45934Y-23028D01*
X45910Y-23054D01*
X45863Y-23080D01*
X45672Y-23080D01*
X46434Y-23342D02*
X46149Y-23342D01*
X46291Y-23342D02*
X46291Y-22792D01*
X46244Y-22871D01*
X46196Y-22923D01*
X46149Y-22949D01*
X46625Y-22845D02*
X46649Y-22818D01*
X46696Y-22792D01*
X46815Y-22792D01*
X46863Y-22818D01*
X46887Y-22845D01*
X46910Y-22897D01*
X46910Y-22949D01*
X46887Y-23028D01*
X46601Y-23342D01*
X46910Y-23342D01*
X41958Y-23942D02*
X41791Y-23680D01*
X41672Y-23942D02*
X41672Y-23392D01*
X41863Y-23392D01*
X41910Y-23418D01*
X41934Y-23445D01*
X41958Y-23497D01*
X41958Y-23575D01*
X41934Y-23628D01*
X41910Y-23654D01*
X41863Y-23680D01*
X41672Y-23680D01*
X42434Y-23942D02*
X42149Y-23942D01*
X42291Y-23942D02*
X42291Y-23392D01*
X42244Y-23471D01*
X42196Y-23523D01*
X42149Y-23549D01*
X42863Y-23575D02*
X42863Y-23942D01*
X42744Y-23366D02*
X42625Y-23759D01*
X42934Y-23759D01*
X44458Y-18242D02*
X44291Y-17980D01*
X44172Y-18242D02*
X44172Y-17692D01*
X44363Y-17692D01*
X44410Y-17718D01*
X44434Y-17745D01*
X44458Y-17797D01*
X44458Y-17875D01*
X44434Y-17928D01*
X44410Y-17954D01*
X44363Y-17980D01*
X44172Y-17980D01*
X44934Y-18242D02*
X44649Y-18242D01*
X44791Y-18242D02*
X44791Y-17692D01*
X44744Y-17771D01*
X44696Y-17823D01*
X44649Y-17849D01*
X45101Y-17692D02*
X45410Y-17692D01*
X45244Y-17902D01*
X45315Y-17902D01*
X45363Y-17928D01*
X45387Y-17954D01*
X45410Y-18006D01*
X45410Y-18137D01*
X45387Y-18190D01*
X45363Y-18216D01*
X45315Y-18242D01*
X45172Y-18242D01*
X45125Y-18216D01*
X45101Y-18190D01*
M02*
