G04 This is an RS-274x file exported by *
G04 gerbv version 2.6.0 *
G04 More information is available about gerbv at *
G04 http://gerbv.gpleda.org/ *
G04 --End of header info--*
%MOIN*%
%FSLAX34Y34*%
%IPPOS*%
G04 --Define apertures--*
%ADD10C,0.0039*%
%ADD11C,0.0120*%
G04 --Start main section--*
G54D11*
G01X0031937Y-017943D02*
G01X0031937Y-017143D01*
G01X0031679Y-017943D02*
G01X0031679Y-017524D01*
G01X0031679Y-017524D02*
G01X0031708Y-017448D01*
G01X0031708Y-017448D02*
G01X0031765Y-017410D01*
G01X0031765Y-017410D02*
G01X0031851Y-017410D01*
G01X0031851Y-017410D02*
G01X0031908Y-017448D01*
G01X0031908Y-017448D02*
G01X0031937Y-017486D01*
G01X0031479Y-017410D02*
G01X0031251Y-017410D01*
G01X0031394Y-017143D02*
G01X0031394Y-017829D01*
G01X0031394Y-017829D02*
G01X0031365Y-017905D01*
G01X0031365Y-017905D02*
G01X0031308Y-017943D01*
G01X0031308Y-017943D02*
G01X0031251Y-017943D01*
G01X0031137Y-017410D02*
G01X0030908Y-017410D01*
G01X0031051Y-017143D02*
G01X0031051Y-017829D01*
G01X0031051Y-017829D02*
G01X0031022Y-017905D01*
G01X0031022Y-017905D02*
G01X0030965Y-017943D01*
G01X0030965Y-017943D02*
G01X0030908Y-017943D01*
G01X0030708Y-017410D02*
G01X0030708Y-018210D01*
G01X0030708Y-017448D02*
G01X0030651Y-017410D01*
G01X0030651Y-017410D02*
G01X0030537Y-017410D01*
G01X0030537Y-017410D02*
G01X0030479Y-017448D01*
G01X0030479Y-017448D02*
G01X0030451Y-017486D01*
G01X0030451Y-017486D02*
G01X0030422Y-017562D01*
G01X0030422Y-017562D02*
G01X0030422Y-017791D01*
G01X0030422Y-017791D02*
G01X0030451Y-017867D01*
G01X0030451Y-017867D02*
G01X0030479Y-017905D01*
G01X0030479Y-017905D02*
G01X0030537Y-017943D01*
G01X0030537Y-017943D02*
G01X0030651Y-017943D01*
G01X0030651Y-017943D02*
G01X0030708Y-017905D01*
G01X0030165Y-017867D02*
G01X0030137Y-017905D01*
G01X0030137Y-017905D02*
G01X0030165Y-017943D01*
G01X0030165Y-017943D02*
G01X0030194Y-017905D01*
G01X0030194Y-017905D02*
G01X0030165Y-017867D01*
G01X0030165Y-017867D02*
G01X0030165Y-017943D01*
G01X0030165Y-017448D02*
G01X0030137Y-017486D01*
G01X0030137Y-017486D02*
G01X0030165Y-017524D01*
G01X0030165Y-017524D02*
G01X0030194Y-017486D01*
G01X0030194Y-017486D02*
G01X0030165Y-017448D01*
G01X0030165Y-017448D02*
G01X0030165Y-017524D01*
G01X0029451Y-017105D02*
G01X0029965Y-018134D01*
G01X0028822Y-017105D02*
G01X0029337Y-018134D01*
G01X0028365Y-017905D02*
G01X0028422Y-017943D01*
G01X0028422Y-017943D02*
G01X0028537Y-017943D01*
G01X0028537Y-017943D02*
G01X0028594Y-017905D01*
G01X0028594Y-017905D02*
G01X0028622Y-017867D01*
G01X0028622Y-017867D02*
G01X0028651Y-017791D01*
G01X0028651Y-017791D02*
G01X0028651Y-017562D01*
G01X0028651Y-017562D02*
G01X0028622Y-017486D01*
G01X0028622Y-017486D02*
G01X0028594Y-017448D01*
G01X0028594Y-017448D02*
G01X0028537Y-017410D01*
G01X0028537Y-017410D02*
G01X0028422Y-017410D01*
G01X0028422Y-017410D02*
G01X0028365Y-017448D01*
G01X0027851Y-017943D02*
G01X0027851Y-017524D01*
G01X0027851Y-017524D02*
G01X0027880Y-017448D01*
G01X0027880Y-017448D02*
G01X0027937Y-017410D01*
G01X0027937Y-017410D02*
G01X0028051Y-017410D01*
G01X0028051Y-017410D02*
G01X0028108Y-017448D01*
G01X0027851Y-017905D02*
G01X0027908Y-017943D01*
G01X0027908Y-017943D02*
G01X0028051Y-017943D01*
G01X0028051Y-017943D02*
G01X0028108Y-017905D01*
G01X0028108Y-017905D02*
G01X0028137Y-017829D01*
G01X0028137Y-017829D02*
G01X0028137Y-017753D01*
G01X0028137Y-017753D02*
G01X0028108Y-017677D01*
G01X0028108Y-017677D02*
G01X0028051Y-017639D01*
G01X0028051Y-017639D02*
G01X0027908Y-017639D01*
G01X0027908Y-017639D02*
G01X0027851Y-017600D01*
G01X0027565Y-017943D02*
G01X0027565Y-017410D01*
G01X0027565Y-017562D02*
G01X0027537Y-017486D01*
G01X0027537Y-017486D02*
G01X0027508Y-017448D01*
G01X0027508Y-017448D02*
G01X0027451Y-017410D01*
G01X0027451Y-017410D02*
G01X0027394Y-017410D01*
G01X0027108Y-017943D02*
G01X0027165Y-017905D01*
G01X0027165Y-017905D02*
G01X0027194Y-017829D01*
G01X0027194Y-017829D02*
G01X0027194Y-017143D01*
G01X0026794Y-017943D02*
G01X0026851Y-017905D01*
G01X0026851Y-017905D02*
G01X0026880Y-017867D01*
G01X0026880Y-017867D02*
G01X0026908Y-017791D01*
G01X0026908Y-017791D02*
G01X0026908Y-017562D01*
G01X0026908Y-017562D02*
G01X0026880Y-017486D01*
G01X0026880Y-017486D02*
G01X0026851Y-017448D01*
G01X0026851Y-017448D02*
G01X0026794Y-017410D01*
G01X0026794Y-017410D02*
G01X0026708Y-017410D01*
G01X0026708Y-017410D02*
G01X0026651Y-017448D01*
G01X0026651Y-017448D02*
G01X0026622Y-017486D01*
G01X0026622Y-017486D02*
G01X0026594Y-017562D01*
G01X0026594Y-017562D02*
G01X0026594Y-017791D01*
G01X0026594Y-017791D02*
G01X0026622Y-017867D01*
G01X0026622Y-017867D02*
G01X0026651Y-017905D01*
G01X0026651Y-017905D02*
G01X0026708Y-017943D01*
G01X0026708Y-017943D02*
G01X0026794Y-017943D01*
G01X0026365Y-017905D02*
G01X0026308Y-017943D01*
G01X0026308Y-017943D02*
G01X0026194Y-017943D01*
G01X0026194Y-017943D02*
G01X0026137Y-017905D01*
G01X0026137Y-017905D02*
G01X0026108Y-017829D01*
G01X0026108Y-017829D02*
G01X0026108Y-017791D01*
G01X0026108Y-017791D02*
G01X0026137Y-017715D01*
G01X0026137Y-017715D02*
G01X0026194Y-017677D01*
G01X0026194Y-017677D02*
G01X0026280Y-017677D01*
G01X0026280Y-017677D02*
G01X0026337Y-017639D01*
G01X0026337Y-017639D02*
G01X0026365Y-017562D01*
G01X0026365Y-017562D02*
G01X0026365Y-017524D01*
G01X0026365Y-017524D02*
G01X0026337Y-017448D01*
G01X0026337Y-017448D02*
G01X0026280Y-017410D01*
G01X0026280Y-017410D02*
G01X0026194Y-017410D01*
G01X0026194Y-017410D02*
G01X0026137Y-017448D01*
G01X0025594Y-017410D02*
G01X0025594Y-018058D01*
G01X0025594Y-018058D02*
G01X0025622Y-018134D01*
G01X0025622Y-018134D02*
G01X0025651Y-018172D01*
G01X0025651Y-018172D02*
G01X0025708Y-018210D01*
G01X0025708Y-018210D02*
G01X0025794Y-018210D01*
G01X0025794Y-018210D02*
G01X0025851Y-018172D01*
G01X0025594Y-017905D02*
G01X0025651Y-017943D01*
G01X0025651Y-017943D02*
G01X0025765Y-017943D01*
G01X0025765Y-017943D02*
G01X0025822Y-017905D01*
G01X0025822Y-017905D02*
G01X0025851Y-017867D01*
G01X0025851Y-017867D02*
G01X0025880Y-017791D01*
G01X0025880Y-017791D02*
G01X0025880Y-017562D01*
G01X0025880Y-017562D02*
G01X0025851Y-017486D01*
G01X0025851Y-017486D02*
G01X0025822Y-017448D01*
G01X0025822Y-017448D02*
G01X0025765Y-017410D01*
G01X0025765Y-017410D02*
G01X0025651Y-017410D01*
G01X0025651Y-017410D02*
G01X0025594Y-017448D01*
G01X0025337Y-017905D02*
G01X0025280Y-017943D01*
G01X0025280Y-017943D02*
G01X0025165Y-017943D01*
G01X0025165Y-017943D02*
G01X0025108Y-017905D01*
G01X0025108Y-017905D02*
G01X0025080Y-017829D01*
G01X0025080Y-017829D02*
G01X0025080Y-017791D01*
G01X0025080Y-017791D02*
G01X0025108Y-017715D01*
G01X0025108Y-017715D02*
G01X0025165Y-017677D01*
G01X0025165Y-017677D02*
G01X0025251Y-017677D01*
G01X0025251Y-017677D02*
G01X0025308Y-017639D01*
G01X0025308Y-017639D02*
G01X0025337Y-017562D01*
G01X0025337Y-017562D02*
G01X0025337Y-017524D01*
G01X0025337Y-017524D02*
G01X0025308Y-017448D01*
G01X0025308Y-017448D02*
G01X0025251Y-017410D01*
G01X0025251Y-017410D02*
G01X0025165Y-017410D01*
G01X0025165Y-017410D02*
G01X0025108Y-017448D01*
G01X0024822Y-017867D02*
G01X0024794Y-017905D01*
G01X0024794Y-017905D02*
G01X0024822Y-017943D01*
G01X0024822Y-017943D02*
G01X0024851Y-017905D01*
G01X0024851Y-017905D02*
G01X0024822Y-017867D01*
G01X0024822Y-017867D02*
G01X0024822Y-017943D01*
G01X0024308Y-017905D02*
G01X0024365Y-017943D01*
G01X0024365Y-017943D02*
G01X0024480Y-017943D01*
G01X0024480Y-017943D02*
G01X0024537Y-017905D01*
G01X0024537Y-017905D02*
G01X0024565Y-017829D01*
G01X0024565Y-017829D02*
G01X0024565Y-017524D01*
G01X0024565Y-017524D02*
G01X0024537Y-017448D01*
G01X0024537Y-017448D02*
G01X0024480Y-017410D01*
G01X0024480Y-017410D02*
G01X0024365Y-017410D01*
G01X0024365Y-017410D02*
G01X0024308Y-017448D01*
G01X0024308Y-017448D02*
G01X0024280Y-017524D01*
G01X0024280Y-017524D02*
G01X0024280Y-017600D01*
G01X0024280Y-017600D02*
G01X0024565Y-017677D01*
G01X0024051Y-017905D02*
G01X0023994Y-017943D01*
G01X0023994Y-017943D02*
G01X0023880Y-017943D01*
G01X0023880Y-017943D02*
G01X0023822Y-017905D01*
G01X0023822Y-017905D02*
G01X0023794Y-017829D01*
G01X0023794Y-017829D02*
G01X0023794Y-017791D01*
G01X0023794Y-017791D02*
G01X0023822Y-017715D01*
G01X0023822Y-017715D02*
G01X0023880Y-017677D01*
G01X0023880Y-017677D02*
G01X0023965Y-017677D01*
G01X0023965Y-017677D02*
G01X0024022Y-017639D01*
G01X0024022Y-017639D02*
G01X0024051Y-017562D01*
G01X0024051Y-017562D02*
G01X0024051Y-017524D01*
G01X0024051Y-017524D02*
G01X0024022Y-017448D01*
G01X0024022Y-017448D02*
G01X0023965Y-017410D01*
G01X0023965Y-017410D02*
G01X0023880Y-017410D01*
G01X0023880Y-017410D02*
G01X0023822Y-017448D01*
M02*
