M48
INCH,TZ
T10C0.020
T11C0.026
T12C0.028
T13C0.028
T14C0.032
T15C0.039
T16C0.039
T17C0.040
T18C0.047
T19C0.059
T20C0.060
T21C0.120
%
T10
X031840Y-23770
X036280Y-17620
X039780Y-14520
X041380Y-11520
X043080Y-15020
X044080Y-25520
X044880Y-25320
X050880Y-19520
T11
X042987Y-13440
X042987Y-22100
X043775Y-13440
X043775Y-22100
X044562Y-13440
X044562Y-22100
X045349Y-13440
X045349Y-22100
X046137Y-13440
X046137Y-22100
X046923Y-13440
X046923Y-22100
X047711Y-13440
X047711Y-22100
X048498Y-13440
X048498Y-22100
X049285Y-13440
X049285Y-22100
X050073Y-22100
X050073Y-13439
T12
X021593Y-22270
X022380Y-22270
X023167Y-22270
T13
X024380Y-12470
X024880Y-12470
X025380Y-12470
X025880Y-12470
T14
X020780Y-25070
X020780Y-28070
X021430Y-12770
X021430Y-15770
X022780Y-25070
X022780Y-28070
X023430Y-12770
X023430Y-15770
X024880Y-14320
X025780Y-19820
X025780Y-20820
X026780Y-10720
X026780Y-11770
X026780Y-12820
X027880Y-14320
X029080Y-19820
X029080Y-20820
X029780Y-10720
X029780Y-11770
X029780Y-12820
X030880Y-21570
X031730Y-16120
X032730Y-16120
X033880Y-21570
X033980Y-24670
X033980Y-27670
X035230Y-24020
X035230Y-27020
X036280Y-24020
X036280Y-27020
X038280Y-24020
X038280Y-27020
X040780Y-23720
X041980Y-15320
X043280Y-18020
X043780Y-23720
X044380Y-11020
X044380Y-12020
X044780Y-23120
X044980Y-15320
X046280Y-10670
X046280Y-14820
X046280Y-15870
X046280Y-16920
X046280Y-18020
X047180Y-24420
X047180Y-25420
X047780Y-23120
X049173Y-23120
X049280Y-10670
X049280Y-14820
X049280Y-15870
X049280Y-16920
X049880Y-23827
X050430Y-09170
X050430Y-12170
X050587Y-23120
T15
X020805Y-22270
X023955Y-22270
T16
X029930Y-25570
X032930Y-25570
T17
X024180Y-09570
X025180Y-09570
X026180Y-09570
X027180Y-09570
X027780Y-28570
X028180Y-09570
X028780Y-28570
X029180Y-09570
X029180Y-14320
X029780Y-28570
X030180Y-09570
X030180Y-14320
X030780Y-28570
X031180Y-09570
X031780Y-28570
X032030Y-11170
X032030Y-12170
X032030Y-13170
X032780Y-09570
X032780Y-28570
X033030Y-11170
X033030Y-12170
X033030Y-13170
X033780Y-09570
X034030Y-11170
X034030Y-12170
X034030Y-13170
X034780Y-09570
X034780Y-28570
X035030Y-11170
X035030Y-12170
X035030Y-13170
X035126Y-16674
X035126Y-21166
X035780Y-09570
X035780Y-28570
X035834Y-15966
X035834Y-21874
X036030Y-11170
X036030Y-12170
X036030Y-13170
X036780Y-09570
X036780Y-28570
X037030Y-11170
X037030Y-12170
X037030Y-13170
X037780Y-09570
X037780Y-28570
X038030Y-11170
X038030Y-12170
X038030Y-13170
X038780Y-28570
X039030Y-11170
X039030Y-12170
X039030Y-13170
X039380Y-24920
X039380Y-25920
X039380Y-26920
X039780Y-28570
X040030Y-11170
X040030Y-12170
X040030Y-13170
X040326Y-15966
X040326Y-21874
X040380Y-24920
X040380Y-25920
X040380Y-26920
X040780Y-28570
X041034Y-16674
X041034Y-21166
X041380Y-24920
X041380Y-25920
X041380Y-26920
X041780Y-09570
X041780Y-28570
X042380Y-24920
X042380Y-25920
X042380Y-26920
X042780Y-09570
X043780Y-09570
X043780Y-28570
X044480Y-26920
X044780Y-09570
X044780Y-28570
X045480Y-26920
X045780Y-09570
X045780Y-28570
X046280Y-11770
X046480Y-26920
X046780Y-09570
X046780Y-28570
X047280Y-11770
X047480Y-26920
X047780Y-09570
X047780Y-28570
X048280Y-11770
X048780Y-09570
X048780Y-28570
X049280Y-11770
X049480Y-25220
X049480Y-26220
X049480Y-27220
X049780Y-28570
X050480Y-26220
X050480Y-27220
X050780Y-28570
T18
X025830Y-24420
X026480Y-25970
X027180Y-24420
X027880Y-25970
X028530Y-24420
T19
X025830Y-22720
X028830Y-22720
T20
X022430Y-17970
X022430Y-19970
T21
X038080Y-18920
M30

