G04 This is an RS-274x file exported by *
G04 gerbv version 2.6.0 *
G04 More information is available about gerbv at *
G04 http://gerbv.gpleda.org/ *
G04 --End of header info--*
%MOIN*%
%FSLAX34Y34*%
%IPPOS*%
G04 --Define apertures--*
%ADD10C,0.0039*%
%ADD11C,0.0098*%
%ADD12C,0.0150*%
%ADD13C,0.0079*%
%ADD14C,0.0059*%
%ADD15C,0.0197*%
%ADD16C,0.0394*%
%ADD17C,0.0069*%
%ADD18C,0.0080*%
%ADD19C,0.0120*%
%ADD20C,0.0060*%
%ADD21C,0.0100*%
%ADD22C,0.0050*%
%ADD23C,0.0026*%
%ADD24C,0.0070*%
%ADD25C,0.0112*%
%ADD26C,0.0079*%
%ADD27C,0.0089*%
G04 --Start main section--*
G54D11*
G01X0027624Y-015196D02*
G01X0027642Y-015158D01*
G01X0027642Y-015158D02*
G01X0027699Y-015121D01*
G01X0027699Y-015121D02*
G01X0027736Y-015121D01*
G01X0027736Y-015121D02*
G01X0027792Y-015158D01*
G01X0027792Y-015158D02*
G01X0027830Y-015233D01*
G01X0027830Y-015233D02*
G01X0027849Y-015308D01*
G01X0027849Y-015308D02*
G01X0027867Y-015458D01*
G01X0027867Y-015458D02*
G01X0027867Y-015571D01*
G01X0027867Y-015571D02*
G01X0027849Y-015721D01*
G01X0027849Y-015721D02*
G01X0027830Y-015796D01*
G01X0027830Y-015796D02*
G01X0027792Y-015871D01*
G01X0027792Y-015871D02*
G01X0027736Y-015908D01*
G01X0027736Y-015908D02*
G01X0027699Y-015908D01*
G01X0027699Y-015908D02*
G01X0027642Y-015871D01*
G01X0027642Y-015871D02*
G01X0027624Y-015833D01*
G01X0027230Y-015196D02*
G01X0027249Y-015158D01*
G01X0027249Y-015158D02*
G01X0027305Y-015121D01*
G01X0027305Y-015121D02*
G01X0027342Y-015121D01*
G01X0027342Y-015121D02*
G01X0027399Y-015158D01*
G01X0027399Y-015158D02*
G01X0027436Y-015233D01*
G01X0027436Y-015233D02*
G01X0027455Y-015308D01*
G01X0027455Y-015308D02*
G01X0027474Y-015458D01*
G01X0027474Y-015458D02*
G01X0027474Y-015571D01*
G01X0027474Y-015571D02*
G01X0027455Y-015721D01*
G01X0027455Y-015721D02*
G01X0027436Y-015796D01*
G01X0027436Y-015796D02*
G01X0027399Y-015871D01*
G01X0027399Y-015871D02*
G01X0027342Y-015908D01*
G01X0027342Y-015908D02*
G01X0027305Y-015908D01*
G01X0027305Y-015908D02*
G01X0027249Y-015871D01*
G01X0027249Y-015871D02*
G01X0027230Y-015833D01*
G01X0027061Y-015421D02*
G01X0026761Y-015421D01*
G01X0026443Y-015533D02*
G01X0026386Y-015496D01*
G01X0026386Y-015496D02*
G01X0026368Y-015458D01*
G01X0026368Y-015458D02*
G01X0026349Y-015383D01*
G01X0026349Y-015383D02*
G01X0026349Y-015271D01*
G01X0026349Y-015271D02*
G01X0026368Y-015196D01*
G01X0026368Y-015196D02*
G01X0026386Y-015158D01*
G01X0026386Y-015158D02*
G01X0026424Y-015121D01*
G01X0026424Y-015121D02*
G01X0026574Y-015121D01*
G01X0026574Y-015121D02*
G01X0026574Y-015908D01*
G01X0026574Y-015908D02*
G01X0026443Y-015908D01*
G01X0026443Y-015908D02*
G01X0026405Y-015871D01*
G01X0026405Y-015871D02*
G01X0026386Y-015833D01*
G01X0026386Y-015833D02*
G01X0026368Y-015758D01*
G01X0026368Y-015758D02*
G01X0026368Y-015683D01*
G01X0026368Y-015683D02*
G01X0026386Y-015608D01*
G01X0026386Y-015608D02*
G01X0026405Y-015571D01*
G01X0026405Y-015571D02*
G01X0026443Y-015533D01*
G01X0026443Y-015533D02*
G01X0026574Y-015533D01*
G01X0026105Y-015496D02*
G01X0026105Y-015121D01*
G01X0026236Y-015908D02*
G01X0026105Y-015496D01*
G01X0026105Y-015496D02*
G01X0025974Y-015908D01*
G01X0025843Y-015421D02*
G01X0025543Y-015421D01*
G01X0025374Y-015158D02*
G01X0025318Y-015121D01*
G01X0025318Y-015121D02*
G01X0025224Y-015121D01*
G01X0025224Y-015121D02*
G01X0025187Y-015158D01*
G01X0025187Y-015158D02*
G01X0025168Y-015196D01*
G01X0025168Y-015196D02*
G01X0025149Y-015271D01*
G01X0025149Y-015271D02*
G01X0025149Y-015346D01*
G01X0025149Y-015346D02*
G01X0025168Y-015421D01*
G01X0025168Y-015421D02*
G01X0025187Y-015458D01*
G01X0025187Y-015458D02*
G01X0025224Y-015496D01*
G01X0025224Y-015496D02*
G01X0025299Y-015533D01*
G01X0025299Y-015533D02*
G01X0025337Y-015571D01*
G01X0025337Y-015571D02*
G01X0025355Y-015608D01*
G01X0025355Y-015608D02*
G01X0025374Y-015683D01*
G01X0025374Y-015683D02*
G01X0025374Y-015758D01*
G01X0025374Y-015758D02*
G01X0025355Y-015833D01*
G01X0025355Y-015833D02*
G01X0025337Y-015871D01*
G01X0025337Y-015871D02*
G01X0025299Y-015908D01*
G01X0025299Y-015908D02*
G01X0025205Y-015908D01*
G01X0025205Y-015908D02*
G01X0025149Y-015871D01*
G01X0024999Y-015346D02*
G01X0024812Y-015346D01*
G01X0025037Y-015121D02*
G01X0024905Y-015908D01*
G01X0024905Y-015908D02*
G01X0024774Y-015121D01*
G54D12*
G01X0025280Y-016320D02*
G01X0030380Y-016320D01*
G01X0024980Y-016620D02*
G01X0030680Y-016620D01*
G01X0024980Y-018320D02*
G01X0024980Y-016620D01*
G01X0030680Y-018320D02*
G01X0024980Y-018320D01*
G01X0030680Y-016620D02*
G01X0030680Y-018320D01*
G54D13*
G01X0024120Y-017015D02*
G01X0024514Y-017015D01*
G01X0024514Y-017015D02*
G01X0024233Y-017120D01*
G01X0024233Y-017120D02*
G01X0024514Y-017225D01*
G01X0024514Y-017225D02*
G01X0024120Y-017225D01*
G01X0024120Y-017510D02*
G01X0024326Y-017510D01*
G01X0024326Y-017510D02*
G01X0024364Y-017495D01*
G01X0024364Y-017495D02*
G01X0024383Y-017465D01*
G01X0024383Y-017465D02*
G01X0024383Y-017405D01*
G01X0024383Y-017405D02*
G01X0024364Y-017375D01*
G01X0024139Y-017510D02*
G01X0024120Y-017480D01*
G01X0024120Y-017480D02*
G01X0024120Y-017405D01*
G01X0024120Y-017405D02*
G01X0024139Y-017375D01*
G01X0024139Y-017375D02*
G01X0024176Y-017360D01*
G01X0024176Y-017360D02*
G01X0024214Y-017360D01*
G01X0024214Y-017360D02*
G01X0024251Y-017375D01*
G01X0024251Y-017375D02*
G01X0024270Y-017405D01*
G01X0024270Y-017405D02*
G01X0024270Y-017480D01*
G01X0024270Y-017480D02*
G01X0024289Y-017510D01*
G01X0024120Y-017630D02*
G01X0024383Y-017795D01*
G01X0024383Y-017630D02*
G01X0024120Y-017795D01*
G01X0024158Y-017915D02*
G01X0024139Y-017930D01*
G01X0024139Y-017930D02*
G01X0024120Y-017915D01*
G01X0024120Y-017915D02*
G01X0024139Y-017900D01*
G01X0024139Y-017900D02*
G01X0024158Y-017915D01*
G01X0024158Y-017915D02*
G01X0024120Y-017915D01*
G01X0024364Y-017915D02*
G01X0024345Y-017930D01*
G01X0024345Y-017930D02*
G01X0024326Y-017915D01*
G01X0024326Y-017915D02*
G01X0024345Y-017900D01*
G01X0024345Y-017900D02*
G01X0024364Y-017915D01*
G01X0024364Y-017915D02*
G01X0024326Y-017915D01*
G01X0024476Y-018289D02*
G01X0024495Y-018304D01*
G01X0024495Y-018304D02*
G01X0024514Y-018334D01*
G01X0024514Y-018334D02*
G01X0024514Y-018409D01*
G01X0024514Y-018409D02*
G01X0024495Y-018439D01*
G01X0024495Y-018439D02*
G01X0024476Y-018454D01*
G01X0024476Y-018454D02*
G01X0024439Y-018469D01*
G01X0024439Y-018469D02*
G01X0024401Y-018469D01*
G01X0024401Y-018469D02*
G01X0024345Y-018454D01*
G01X0024345Y-018454D02*
G01X0024120Y-018274D01*
G01X0024120Y-018274D02*
G01X0024120Y-018469D01*
G01X0024514Y-018664D02*
G01X0024514Y-018694D01*
G01X0024514Y-018694D02*
G01X0024495Y-018724D01*
G01X0024495Y-018724D02*
G01X0024476Y-018739D01*
G01X0024476Y-018739D02*
G01X0024439Y-018754D01*
G01X0024439Y-018754D02*
G01X0024364Y-018769D01*
G01X0024364Y-018769D02*
G01X0024270Y-018769D01*
G01X0024270Y-018769D02*
G01X0024195Y-018754D01*
G01X0024195Y-018754D02*
G01X0024158Y-018739D01*
G01X0024158Y-018739D02*
G01X0024139Y-018724D01*
G01X0024139Y-018724D02*
G01X0024120Y-018694D01*
G01X0024120Y-018694D02*
G01X0024120Y-018664D01*
G01X0024120Y-018664D02*
G01X0024139Y-018634D01*
G01X0024139Y-018634D02*
G01X0024158Y-018619D01*
G01X0024158Y-018619D02*
G01X0024195Y-018604D01*
G01X0024195Y-018604D02*
G01X0024270Y-018589D01*
G01X0024270Y-018589D02*
G01X0024364Y-018589D01*
G01X0024364Y-018589D02*
G01X0024439Y-018604D01*
G01X0024439Y-018604D02*
G01X0024476Y-018619D01*
G01X0024476Y-018619D02*
G01X0024495Y-018634D01*
G01X0024495Y-018634D02*
G01X0024514Y-018664D01*
G01X0024514Y-018859D02*
G01X0024120Y-018964D01*
G01X0024120Y-018964D02*
G01X0024514Y-019069D01*
G54D14*
G01X0024939Y-011819D02*
G01X0024913Y-011805D01*
G01X0024913Y-011805D02*
G01X0024874Y-011805D01*
G01X0024874Y-011805D02*
G01X0024834Y-011819D01*
G01X0024834Y-011819D02*
G01X0024808Y-011845D01*
G01X0024808Y-011845D02*
G01X0024795Y-011871D01*
G01X0024795Y-011871D02*
G01X0024782Y-011924D01*
G01X0024782Y-011924D02*
G01X0024782Y-011963D01*
G01X0024782Y-011963D02*
G01X0024795Y-012015D01*
G01X0024795Y-012015D02*
G01X0024808Y-012042D01*
G01X0024808Y-012042D02*
G01X0024834Y-012068D01*
G01X0024834Y-012068D02*
G01X0024874Y-012081D01*
G01X0024874Y-012081D02*
G01X0024900Y-012081D01*
G01X0024900Y-012081D02*
G01X0024939Y-012068D01*
G01X0024939Y-012068D02*
G01X0024953Y-012055D01*
G01X0024953Y-012055D02*
G01X0024953Y-011963D01*
G01X0024953Y-011963D02*
G01X0024900Y-011963D01*
G54D15*
G01X0033217Y-020113D02*
G01X0032954Y-020113D01*
G01X0032842Y-019701D02*
G01X0033217Y-019701D01*
G01X0033217Y-019701D02*
G01X0033217Y-020488D01*
G01X0033217Y-020488D02*
G01X0032842Y-020488D01*
G01X0032504Y-019701D02*
G01X0032504Y-020488D01*
G01X0032504Y-020488D02*
G01X0032205Y-020488D01*
G01X0032205Y-020488D02*
G01X0032130Y-020451D01*
G01X0032130Y-020451D02*
G01X0032092Y-020413D01*
G01X0032092Y-020413D02*
G01X0032055Y-020338D01*
G01X0032055Y-020338D02*
G01X0032055Y-020226D01*
G01X0032055Y-020226D02*
G01X0032092Y-020151D01*
G01X0032092Y-020151D02*
G01X0032130Y-020113D01*
G01X0032130Y-020113D02*
G01X0032205Y-020076D01*
G01X0032205Y-020076D02*
G01X0032504Y-020076D01*
G01X0031755Y-019738D02*
G01X0031642Y-019701D01*
G01X0031642Y-019701D02*
G01X0031455Y-019701D01*
G01X0031455Y-019701D02*
G01X0031380Y-019738D01*
G01X0031380Y-019738D02*
G01X0031342Y-019776D01*
G01X0031342Y-019776D02*
G01X0031305Y-019851D01*
G01X0031305Y-019851D02*
G01X0031305Y-019926D01*
G01X0031305Y-019926D02*
G01X0031342Y-020001D01*
G01X0031342Y-020001D02*
G01X0031380Y-020038D01*
G01X0031380Y-020038D02*
G01X0031455Y-020076D01*
G01X0031455Y-020076D02*
G01X0031605Y-020113D01*
G01X0031605Y-020113D02*
G01X0031680Y-020151D01*
G01X0031680Y-020151D02*
G01X0031717Y-020188D01*
G01X0031717Y-020188D02*
G01X0031755Y-020263D01*
G01X0031755Y-020263D02*
G01X0031755Y-020338D01*
G01X0031755Y-020338D02*
G01X0031717Y-020413D01*
G01X0031717Y-020413D02*
G01X0031680Y-020451D01*
G01X0031680Y-020451D02*
G01X0031605Y-020488D01*
G01X0031605Y-020488D02*
G01X0031417Y-020488D01*
G01X0031417Y-020488D02*
G01X0031305Y-020451D01*
G01X0033292Y-019189D02*
G01X0033292Y-018552D01*
G01X0033292Y-018552D02*
G01X0033254Y-018477D01*
G01X0033254Y-018477D02*
G01X0033217Y-018439D01*
G01X0033217Y-018439D02*
G01X0033142Y-018402D01*
G01X0033142Y-018402D02*
G01X0032992Y-018402D01*
G01X0032992Y-018402D02*
G01X0032917Y-018439D01*
G01X0032917Y-018439D02*
G01X0032879Y-018477D01*
G01X0032879Y-018477D02*
G01X0032842Y-018552D01*
G01X0032842Y-018552D02*
G01X0032842Y-019189D01*
G01X0032504Y-018627D02*
G01X0032130Y-018627D01*
G01X0032579Y-018402D02*
G01X0032317Y-019189D01*
G01X0032317Y-019189D02*
G01X0032055Y-018402D01*
G01X0031792Y-018402D02*
G01X0031792Y-019189D01*
G01X0031792Y-019189D02*
G01X0031530Y-018627D01*
G01X0031530Y-018627D02*
G01X0031267Y-019189D01*
G01X0031267Y-019189D02*
G01X0031267Y-018402D01*
G54D14*
G01X0048648Y-023293D02*
G01X0048667Y-023293D01*
G01X0048667Y-023293D02*
G01X0048694Y-023302D01*
G01X0048694Y-023302D02*
G01X0048741Y-023349D01*
G01X0048741Y-023349D02*
G01X0048750Y-023377D01*
G01X0048750Y-023377D02*
G01X0048750Y-023395D01*
G01X0048750Y-023395D02*
G01X0048741Y-023423D01*
G01X0048741Y-023423D02*
G01X0048722Y-023442D01*
G01X0048722Y-023442D02*
G01X0048685Y-023460D01*
G01X0048685Y-023460D02*
G01X0048462Y-023460D01*
G01X0048462Y-023460D02*
G01X0048583Y-023581D01*
G01X0048667Y-023664D02*
G01X0048861Y-023469D01*
G01X0048861Y-023469D02*
G01X0048778Y-023776D01*
G01X0048778Y-023776D02*
G01X0048973Y-023581D01*
G01X0049038Y-023683D02*
G01X0049056Y-023683D01*
G01X0049056Y-023683D02*
G01X0049084Y-023692D01*
G01X0049084Y-023692D02*
G01X0049131Y-023739D01*
G01X0049131Y-023739D02*
G01X0049140Y-023766D01*
G01X0049140Y-023766D02*
G01X0049140Y-023785D01*
G01X0049140Y-023785D02*
G01X0049131Y-023813D01*
G01X0049131Y-023813D02*
G01X0049112Y-023831D01*
G01X0049112Y-023831D02*
G01X0049075Y-023850D01*
G01X0049075Y-023850D02*
G01X0048852Y-023850D01*
G01X0048852Y-023850D02*
G01X0048973Y-023971D01*
G01X0049223Y-023868D02*
G01X0049242Y-023868D01*
G01X0049242Y-023868D02*
G01X0049270Y-023878D01*
G01X0049270Y-023878D02*
G01X0049316Y-023924D01*
G01X0049316Y-023924D02*
G01X0049325Y-023952D01*
G01X0049325Y-023952D02*
G01X0049325Y-023971D01*
G01X0049325Y-023971D02*
G01X0049316Y-023998D01*
G01X0049316Y-023998D02*
G01X0049298Y-024017D01*
G01X0049298Y-024017D02*
G01X0049260Y-024035D01*
G01X0049260Y-024035D02*
G01X0049038Y-024035D01*
G01X0049038Y-024035D02*
G01X0049158Y-024156D01*
G01X0049409Y-024054D02*
G01X0049427Y-024054D01*
G01X0049427Y-024054D02*
G01X0049455Y-024063D01*
G01X0049455Y-024063D02*
G01X0049502Y-024110D01*
G01X0049502Y-024110D02*
G01X0049511Y-024138D01*
G01X0049511Y-024138D02*
G01X0049511Y-024156D01*
G01X0049511Y-024156D02*
G01X0049502Y-024184D01*
G01X0049502Y-024184D02*
G01X0049483Y-024203D01*
G01X0049483Y-024203D02*
G01X0049446Y-024221D01*
G01X0049446Y-024221D02*
G01X0049223Y-024221D01*
G01X0049223Y-024221D02*
G01X0049344Y-024342D01*
G01X0049595Y-024240D02*
G01X0049613Y-024240D01*
G01X0049613Y-024240D02*
G01X0049641Y-024249D01*
G01X0049641Y-024249D02*
G01X0049687Y-024295D01*
G01X0049687Y-024295D02*
G01X0049697Y-024323D01*
G01X0049697Y-024323D02*
G01X0049697Y-024342D01*
G01X0049697Y-024342D02*
G01X0049687Y-024370D01*
G01X0049687Y-024370D02*
G01X0049669Y-024388D01*
G01X0049669Y-024388D02*
G01X0049632Y-024407D01*
G01X0049632Y-024407D02*
G01X0049409Y-024407D01*
G01X0049409Y-024407D02*
G01X0049530Y-024527D01*
G54D16*
G01X0049980Y-025720D02*
G01X0049980Y-025420D01*
G54D12*
G01X0049980Y-025220D02*
G01X0049980Y-025920D01*
G01X0051146Y-026720D02*
G75*
G03X0051146Y-026720I-001166J0000000D01*
G54D14*
G01X0050991Y-025553D02*
G01X0050715Y-025553D01*
G01X0050715Y-025553D02*
G01X0050991Y-025395D01*
G01X0050991Y-025395D02*
G01X0050715Y-025395D01*
G01X0050991Y-025224D02*
G01X0050978Y-025251D01*
G01X0050978Y-025251D02*
G01X0050965Y-025264D01*
G01X0050965Y-025264D02*
G01X0050939Y-025277D01*
G01X0050939Y-025277D02*
G01X0050860Y-025277D01*
G01X0050860Y-025277D02*
G01X0050834Y-025264D01*
G01X0050834Y-025264D02*
G01X0050820Y-025251D01*
G01X0050820Y-025251D02*
G01X0050807Y-025224D01*
G01X0050807Y-025224D02*
G01X0050807Y-025185D01*
G01X0050807Y-025185D02*
G01X0050820Y-025159D01*
G01X0050820Y-025159D02*
G01X0050834Y-025146D01*
G01X0050834Y-025146D02*
G01X0050860Y-025133D01*
G01X0050860Y-025133D02*
G01X0050939Y-025133D01*
G01X0050939Y-025133D02*
G01X0050965Y-025146D01*
G01X0050965Y-025146D02*
G01X0050978Y-025159D01*
G01X0050978Y-025159D02*
G01X0050991Y-025185D01*
G01X0050991Y-025185D02*
G01X0050991Y-025224D01*
G01X0050978Y-025028D02*
G01X0050991Y-025001D01*
G01X0050991Y-025001D02*
G01X0050991Y-024949D01*
G01X0050991Y-024949D02*
G01X0050978Y-024923D01*
G01X0050978Y-024923D02*
G01X0050952Y-024910D01*
G01X0050952Y-024910D02*
G01X0050939Y-024910D01*
G01X0050939Y-024910D02*
G01X0050912Y-024923D01*
G01X0050912Y-024923D02*
G01X0050899Y-024949D01*
G01X0050899Y-024949D02*
G01X0050899Y-024988D01*
G01X0050899Y-024988D02*
G01X0050886Y-025015D01*
G01X0050886Y-025015D02*
G01X0050860Y-025028D01*
G01X0050860Y-025028D02*
G01X0050847Y-025028D01*
G01X0050847Y-025028D02*
G01X0050820Y-025015D01*
G01X0050820Y-025015D02*
G01X0050807Y-024988D01*
G01X0050807Y-024988D02*
G01X0050807Y-024949D01*
G01X0050807Y-024949D02*
G01X0050820Y-024923D01*
G01X0050978Y-024686D02*
G01X0050991Y-024713D01*
G01X0050991Y-024713D02*
G01X0050991Y-024765D01*
G01X0050991Y-024765D02*
G01X0050978Y-024791D01*
G01X0050978Y-024791D02*
G01X0050952Y-024805D01*
G01X0050952Y-024805D02*
G01X0050847Y-024805D01*
G01X0050847Y-024805D02*
G01X0050820Y-024791D01*
G01X0050820Y-024791D02*
G01X0050807Y-024765D01*
G01X0050807Y-024765D02*
G01X0050807Y-024713D01*
G01X0050807Y-024713D02*
G01X0050820Y-024686D01*
G01X0050820Y-024686D02*
G01X0050847Y-024673D01*
G01X0050847Y-024673D02*
G01X0050873Y-024673D01*
G01X0050873Y-024673D02*
G01X0050899Y-024805D01*
G01X0051378Y-027769D02*
G01X0051391Y-027729D01*
G01X0051391Y-027729D02*
G01X0051391Y-027664D01*
G01X0051391Y-027664D02*
G01X0051378Y-027638D01*
G01X0051378Y-027638D02*
G01X0051365Y-027624D01*
G01X0051365Y-027624D02*
G01X0051339Y-027611D01*
G01X0051339Y-027611D02*
G01X0051312Y-027611D01*
G01X0051312Y-027611D02*
G01X0051286Y-027624D01*
G01X0051286Y-027624D02*
G01X0051273Y-027638D01*
G01X0051273Y-027638D02*
G01X0051260Y-027664D01*
G01X0051260Y-027664D02*
G01X0051247Y-027716D01*
G01X0051247Y-027716D02*
G01X0051234Y-027743D01*
G01X0051234Y-027743D02*
G01X0051220Y-027756D01*
G01X0051220Y-027756D02*
G01X0051194Y-027769D01*
G01X0051194Y-027769D02*
G01X0051168Y-027769D01*
G01X0051168Y-027769D02*
G01X0051142Y-027756D01*
G01X0051142Y-027756D02*
G01X0051129Y-027743D01*
G01X0051129Y-027743D02*
G01X0051115Y-027716D01*
G01X0051115Y-027716D02*
G01X0051115Y-027651D01*
G01X0051115Y-027651D02*
G01X0051129Y-027611D01*
G01X0051286Y-027493D02*
G01X0051286Y-027283D01*
G01X0051391Y-027388D02*
G01X0051181Y-027388D01*
G01X0048778Y-027769D02*
G01X0048791Y-027729D01*
G01X0048791Y-027729D02*
G01X0048791Y-027664D01*
G01X0048791Y-027664D02*
G01X0048778Y-027638D01*
G01X0048778Y-027638D02*
G01X0048765Y-027624D01*
G01X0048765Y-027624D02*
G01X0048739Y-027611D01*
G01X0048739Y-027611D02*
G01X0048712Y-027611D01*
G01X0048712Y-027611D02*
G01X0048686Y-027624D01*
G01X0048686Y-027624D02*
G01X0048673Y-027638D01*
G01X0048673Y-027638D02*
G01X0048660Y-027664D01*
G01X0048660Y-027664D02*
G01X0048647Y-027716D01*
G01X0048647Y-027716D02*
G01X0048634Y-027743D01*
G01X0048634Y-027743D02*
G01X0048620Y-027756D01*
G01X0048620Y-027756D02*
G01X0048594Y-027769D01*
G01X0048594Y-027769D02*
G01X0048568Y-027769D01*
G01X0048568Y-027769D02*
G01X0048542Y-027756D01*
G01X0048542Y-027756D02*
G01X0048529Y-027743D01*
G01X0048529Y-027743D02*
G01X0048515Y-027716D01*
G01X0048515Y-027716D02*
G01X0048515Y-027651D01*
G01X0048515Y-027651D02*
G01X0048529Y-027611D01*
G01X0048686Y-027493D02*
G01X0048686Y-027283D01*
G01X0048791Y-026069D02*
G01X0048515Y-026069D01*
G01X0048647Y-026069D02*
G01X0048647Y-025911D01*
G01X0048791Y-025911D02*
G01X0048515Y-025911D01*
G01X0048686Y-025780D02*
G01X0048686Y-025570D01*
G01X0051391Y-026069D02*
G01X0051115Y-026069D01*
G01X0051247Y-026069D02*
G01X0051247Y-025911D01*
G01X0051391Y-025911D02*
G01X0051115Y-025911D01*
G01X0051286Y-025780D02*
G01X0051286Y-025570D01*
G01X0051391Y-025675D02*
G01X0051181Y-025675D01*
G01X0048515Y-024959D02*
G01X0048515Y-025090D01*
G01X0048515Y-025090D02*
G01X0048647Y-025103D01*
G01X0048647Y-025103D02*
G01X0048634Y-025090D01*
G01X0048634Y-025090D02*
G01X0048620Y-025064D01*
G01X0048620Y-025064D02*
G01X0048620Y-024998D01*
G01X0048620Y-024998D02*
G01X0048634Y-024972D01*
G01X0048634Y-024972D02*
G01X0048647Y-024959D01*
G01X0048647Y-024959D02*
G01X0048673Y-024946D01*
G01X0048673Y-024946D02*
G01X0048739Y-024946D01*
G01X0048739Y-024946D02*
G01X0048765Y-024959D01*
G01X0048765Y-024959D02*
G01X0048778Y-024972D01*
G01X0048778Y-024972D02*
G01X0048791Y-024998D01*
G01X0048791Y-024998D02*
G01X0048791Y-025064D01*
G01X0048791Y-025064D02*
G01X0048778Y-025090D01*
G01X0048778Y-025090D02*
G01X0048765Y-025103D01*
G01X0048607Y-024854D02*
G01X0048791Y-024788D01*
G01X0048791Y-024788D02*
G01X0048607Y-024723D01*
G01X0050451Y-029452D02*
G01X0050583Y-029452D01*
G01X0050425Y-029531D02*
G01X0050517Y-029255D01*
G01X0050517Y-029255D02*
G01X0050609Y-029531D01*
G01X0050845Y-029531D02*
G01X0050688Y-029531D01*
G01X0050766Y-029531D02*
G01X0050766Y-029255D01*
G01X0050766Y-029255D02*
G01X0050740Y-029295D01*
G01X0050740Y-029295D02*
G01X0050714Y-029321D01*
G01X0050714Y-029321D02*
G01X0050688Y-029334D01*
G01X0051094Y-029255D02*
G01X0050963Y-029255D01*
G01X0050963Y-029255D02*
G01X0050950Y-029387D01*
G01X0050950Y-029387D02*
G01X0050963Y-029374D01*
G01X0050963Y-029374D02*
G01X0050989Y-029360D01*
G01X0050989Y-029360D02*
G01X0051055Y-029360D01*
G01X0051055Y-029360D02*
G01X0051081Y-029374D01*
G01X0051081Y-029374D02*
G01X0051094Y-029387D01*
G01X0051094Y-029387D02*
G01X0051108Y-029413D01*
G01X0051108Y-029413D02*
G01X0051108Y-029479D01*
G01X0051108Y-029479D02*
G01X0051094Y-029505D01*
G01X0051094Y-029505D02*
G01X0051081Y-029518D01*
G01X0051081Y-029518D02*
G01X0051055Y-029531D01*
G01X0051055Y-029531D02*
G01X0050989Y-029531D01*
G01X0050989Y-029531D02*
G01X0050963Y-029518D01*
G01X0050963Y-029518D02*
G01X0050950Y-029505D01*
G01X0049451Y-029452D02*
G01X0049583Y-029452D01*
G01X0049425Y-029531D02*
G01X0049517Y-029255D01*
G01X0049517Y-029255D02*
G01X0049609Y-029531D01*
G01X0049845Y-029531D02*
G01X0049688Y-029531D01*
G01X0049766Y-029531D02*
G01X0049766Y-029255D01*
G01X0049766Y-029255D02*
G01X0049740Y-029295D01*
G01X0049740Y-029295D02*
G01X0049714Y-029321D01*
G01X0049714Y-029321D02*
G01X0049688Y-029334D01*
G01X0050081Y-029347D02*
G01X0050081Y-029531D01*
G01X0050016Y-029242D02*
G01X0049950Y-029439D01*
G01X0049950Y-029439D02*
G01X0050121Y-029439D01*
G01X0048451Y-029452D02*
G01X0048583Y-029452D01*
G01X0048425Y-029531D02*
G01X0048517Y-029255D01*
G01X0048517Y-029255D02*
G01X0048609Y-029531D01*
G01X0048845Y-029531D02*
G01X0048688Y-029531D01*
G01X0048766Y-029531D02*
G01X0048766Y-029255D01*
G01X0048766Y-029255D02*
G01X0048740Y-029295D01*
G01X0048740Y-029295D02*
G01X0048714Y-029321D01*
G01X0048714Y-029321D02*
G01X0048688Y-029334D01*
G01X0048937Y-029255D02*
G01X0049108Y-029255D01*
G01X0049108Y-029255D02*
G01X0049016Y-029360D01*
G01X0049016Y-029360D02*
G01X0049055Y-029360D01*
G01X0049055Y-029360D02*
G01X0049081Y-029374D01*
G01X0049081Y-029374D02*
G01X0049094Y-029387D01*
G01X0049094Y-029387D02*
G01X0049108Y-029413D01*
G01X0049108Y-029413D02*
G01X0049108Y-029479D01*
G01X0049108Y-029479D02*
G01X0049094Y-029505D01*
G01X0049094Y-029505D02*
G01X0049081Y-029518D01*
G01X0049081Y-029518D02*
G01X0049055Y-029531D01*
G01X0049055Y-029531D02*
G01X0048976Y-029531D01*
G01X0048976Y-029531D02*
G01X0048950Y-029518D01*
G01X0048950Y-029518D02*
G01X0048937Y-029505D01*
G01X0047451Y-029452D02*
G01X0047583Y-029452D01*
G01X0047425Y-029531D02*
G01X0047517Y-029255D01*
G01X0047517Y-029255D02*
G01X0047609Y-029531D01*
G01X0047845Y-029531D02*
G01X0047688Y-029531D01*
G01X0047766Y-029531D02*
G01X0047766Y-029255D01*
G01X0047766Y-029255D02*
G01X0047740Y-029295D01*
G01X0047740Y-029295D02*
G01X0047714Y-029321D01*
G01X0047714Y-029321D02*
G01X0047688Y-029334D01*
G01X0047950Y-029282D02*
G01X0047963Y-029269D01*
G01X0047963Y-029269D02*
G01X0047989Y-029255D01*
G01X0047989Y-029255D02*
G01X0048055Y-029255D01*
G01X0048055Y-029255D02*
G01X0048081Y-029269D01*
G01X0048081Y-029269D02*
G01X0048094Y-029282D01*
G01X0048094Y-029282D02*
G01X0048108Y-029308D01*
G01X0048108Y-029308D02*
G01X0048108Y-029334D01*
G01X0048108Y-029334D02*
G01X0048094Y-029374D01*
G01X0048094Y-029374D02*
G01X0047937Y-029531D01*
G01X0047937Y-029531D02*
G01X0048108Y-029531D01*
G01X0046451Y-029452D02*
G01X0046583Y-029452D01*
G01X0046425Y-029531D02*
G01X0046517Y-029255D01*
G01X0046517Y-029255D02*
G01X0046609Y-029531D01*
G01X0046845Y-029531D02*
G01X0046688Y-029531D01*
G01X0046766Y-029531D02*
G01X0046766Y-029255D01*
G01X0046766Y-029255D02*
G01X0046740Y-029295D01*
G01X0046740Y-029295D02*
G01X0046714Y-029321D01*
G01X0046714Y-029321D02*
G01X0046688Y-029334D01*
G01X0047108Y-029531D02*
G01X0046950Y-029531D01*
G01X0047029Y-029531D02*
G01X0047029Y-029255D01*
G01X0047029Y-029255D02*
G01X0047003Y-029295D01*
G01X0047003Y-029295D02*
G01X0046976Y-029321D01*
G01X0046976Y-029321D02*
G01X0046950Y-029334D01*
G54D11*
G01X0043242Y-027159D02*
G01X0043242Y-026849D01*
G01X0043242Y-026849D02*
G01X0043223Y-026793D01*
G01X0043223Y-026793D02*
G01X0043186Y-026765D01*
G01X0043186Y-026765D02*
G01X0043111Y-026765D01*
G01X0043111Y-026765D02*
G01X0043073Y-026793D01*
G01X0043242Y-027130D02*
G01X0043204Y-027159D01*
G01X0043204Y-027159D02*
G01X0043111Y-027159D01*
G01X0043111Y-027159D02*
G01X0043073Y-027130D01*
G01X0043073Y-027130D02*
G01X0043054Y-027074D01*
G01X0043054Y-027074D02*
G01X0043054Y-027018D01*
G01X0043054Y-027018D02*
G01X0043073Y-026962D01*
G01X0043073Y-026962D02*
G01X0043111Y-026934D01*
G01X0043111Y-026934D02*
G01X0043204Y-026934D01*
G01X0043204Y-026934D02*
G01X0043242Y-026905D01*
G01X0043261Y-024568D02*
G01X0043073Y-024568D01*
G01X0043073Y-024568D02*
G01X0043054Y-024849D01*
G01X0043054Y-024849D02*
G01X0043073Y-024821D01*
G01X0043073Y-024821D02*
G01X0043111Y-024793D01*
G01X0043111Y-024793D02*
G01X0043204Y-024793D01*
G01X0043204Y-024793D02*
G01X0043242Y-024821D01*
G01X0043242Y-024821D02*
G01X0043261Y-024849D01*
G01X0043261Y-024849D02*
G01X0043279Y-024905D01*
G01X0043279Y-024905D02*
G01X0043279Y-025046D01*
G01X0043279Y-025046D02*
G01X0043261Y-025102D01*
G01X0043261Y-025102D02*
G01X0043242Y-025130D01*
G01X0043242Y-025130D02*
G01X0043204Y-025159D01*
G01X0043204Y-025159D02*
G01X0043111Y-025159D01*
G01X0043111Y-025159D02*
G01X0043073Y-025130D01*
G01X0043073Y-025130D02*
G01X0043054Y-025102D01*
G01X0043411Y-024765D02*
G01X0043504Y-025159D01*
G01X0043504Y-025159D02*
G01X0043598Y-024765D01*
G01X0043279Y-025596D02*
G01X0043242Y-025568D01*
G01X0043242Y-025568D02*
G01X0043186Y-025568D01*
G01X0043186Y-025568D02*
G01X0043129Y-025596D01*
G01X0043129Y-025596D02*
G01X0043092Y-025652D01*
G01X0043092Y-025652D02*
G01X0043073Y-025709D01*
G01X0043073Y-025709D02*
G01X0043054Y-025821D01*
G01X0043054Y-025821D02*
G01X0043054Y-025905D01*
G01X0043054Y-025905D02*
G01X0043073Y-026018D01*
G01X0043073Y-026018D02*
G01X0043092Y-026074D01*
G01X0043092Y-026074D02*
G01X0043129Y-026130D01*
G01X0043129Y-026130D02*
G01X0043186Y-026159D01*
G01X0043186Y-026159D02*
G01X0043223Y-026159D01*
G01X0043223Y-026159D02*
G01X0043279Y-026130D01*
G01X0043279Y-026130D02*
G01X0043298Y-026102D01*
G01X0043298Y-026102D02*
G01X0043298Y-025905D01*
G01X0043298Y-025905D02*
G01X0043223Y-025905D01*
G01X0031080Y-013443D02*
G01X0031117Y-013471D01*
G01X0031117Y-013471D02*
G01X0031173Y-013471D01*
G01X0031173Y-013471D02*
G01X0031230Y-013443D01*
G01X0031230Y-013443D02*
G01X0031267Y-013387D01*
G01X0031267Y-013387D02*
G01X0031286Y-013330D01*
G01X0031286Y-013330D02*
G01X0031305Y-013218D01*
G01X0031305Y-013218D02*
G01X0031305Y-013134D01*
G01X0031305Y-013134D02*
G01X0031286Y-013021D01*
G01X0031286Y-013021D02*
G01X0031267Y-012965D01*
G01X0031267Y-012965D02*
G01X0031230Y-012909D01*
G01X0031230Y-012909D02*
G01X0031173Y-012880D01*
G01X0031173Y-012880D02*
G01X0031136Y-012880D01*
G01X0031136Y-012880D02*
G01X0031080Y-012909D01*
G01X0031080Y-012909D02*
G01X0031061Y-012937D01*
G01X0031061Y-012937D02*
G01X0031061Y-013134D01*
G01X0031061Y-013134D02*
G01X0031136Y-013134D01*
G01X0031117Y-010880D02*
G01X0031117Y-011471D01*
G01X0031117Y-010909D02*
G01X0031155Y-010880D01*
G01X0031155Y-010880D02*
G01X0031230Y-010880D01*
G01X0031230Y-010880D02*
G01X0031267Y-010909D01*
G01X0031267Y-010909D02*
G01X0031286Y-010937D01*
G01X0031286Y-010937D02*
G01X0031305Y-010993D01*
G01X0031305Y-010993D02*
G01X0031305Y-011162D01*
G01X0031305Y-011162D02*
G01X0031286Y-011218D01*
G01X0031286Y-011218D02*
G01X0031267Y-011246D01*
G01X0031267Y-011246D02*
G01X0031230Y-011274D01*
G01X0031230Y-011274D02*
G01X0031155Y-011274D01*
G01X0031155Y-011274D02*
G01X0031117Y-011246D01*
G54D12*
G01X0048980Y-027720D02*
G01X0048980Y-024720D01*
G01X0049980Y-027720D02*
G01X0048980Y-027720D01*
G01X0049980Y-024720D02*
G01X0049980Y-027720D01*
G01X0048980Y-024720D02*
G01X0049980Y-024720D01*
G54D14*
G01X0043996Y-026231D02*
G01X0043996Y-025955D01*
G01X0043996Y-025955D02*
G01X0044061Y-025955D01*
G01X0044061Y-025955D02*
G01X0044100Y-025969D01*
G01X0044100Y-025969D02*
G01X0044127Y-025995D01*
G01X0044127Y-025995D02*
G01X0044140Y-026021D01*
G01X0044140Y-026021D02*
G01X0044153Y-026074D01*
G01X0044153Y-026074D02*
G01X0044153Y-026113D01*
G01X0044153Y-026113D02*
G01X0044140Y-026165D01*
G01X0044140Y-026165D02*
G01X0044127Y-026192D01*
G01X0044127Y-026192D02*
G01X0044100Y-026218D01*
G01X0044100Y-026218D02*
G01X0044061Y-026231D01*
G01X0044061Y-026231D02*
G01X0043996Y-026231D01*
G01X0044271Y-026231D02*
G01X0044271Y-025955D01*
G01X0044271Y-026087D02*
G01X0044429Y-026087D01*
G01X0044429Y-026231D02*
G01X0044429Y-025955D01*
G01X0044520Y-025955D02*
G01X0044678Y-025955D01*
G01X0044599Y-026231D02*
G01X0044599Y-025955D01*
G01X0044914Y-026231D02*
G01X0044757Y-026231D01*
G01X0044835Y-026231D02*
G01X0044835Y-025955D01*
G01X0044835Y-025955D02*
G01X0044809Y-025995D01*
G01X0044809Y-025995D02*
G01X0044783Y-026021D01*
G01X0044783Y-026021D02*
G01X0044757Y-026034D01*
G01X0045177Y-026231D02*
G01X0045019Y-026231D01*
G01X0045098Y-026231D02*
G01X0045098Y-025955D01*
G01X0045098Y-025955D02*
G01X0045072Y-025995D01*
G01X0045072Y-025995D02*
G01X0045045Y-026021D01*
G01X0045045Y-026021D02*
G01X0045019Y-026034D01*
G01X0044440Y-027555D02*
G01X0044309Y-027555D01*
G01X0044309Y-027555D02*
G01X0044296Y-027687D01*
G01X0044296Y-027687D02*
G01X0044309Y-027674D01*
G01X0044309Y-027674D02*
G01X0044335Y-027660D01*
G01X0044335Y-027660D02*
G01X0044401Y-027660D01*
G01X0044401Y-027660D02*
G01X0044427Y-027674D01*
G01X0044427Y-027674D02*
G01X0044440Y-027687D01*
G01X0044440Y-027687D02*
G01X0044453Y-027713D01*
G01X0044453Y-027713D02*
G01X0044453Y-027779D01*
G01X0044453Y-027779D02*
G01X0044440Y-027805D01*
G01X0044440Y-027805D02*
G01X0044427Y-027818D01*
G01X0044427Y-027818D02*
G01X0044401Y-027831D01*
G01X0044401Y-027831D02*
G01X0044335Y-027831D01*
G01X0044335Y-027831D02*
G01X0044309Y-027818D01*
G01X0044309Y-027818D02*
G01X0044296Y-027805D01*
G01X0044545Y-027647D02*
G01X0044611Y-027831D01*
G01X0044611Y-027831D02*
G01X0044676Y-027647D01*
G54D12*
G01X0036580Y-013920D02*
G01X0031480Y-013920D01*
G54D14*
G01X0045283Y-027752D02*
G01X0045414Y-027752D01*
G01X0045256Y-027831D02*
G01X0045348Y-027555D01*
G01X0045348Y-027555D02*
G01X0045440Y-027831D01*
G01X0045545Y-027831D02*
G01X0045598Y-027831D01*
G01X0045598Y-027831D02*
G01X0045624Y-027818D01*
G01X0045624Y-027818D02*
G01X0045637Y-027805D01*
G01X0045637Y-027805D02*
G01X0045663Y-027765D01*
G01X0045663Y-027765D02*
G01X0045676Y-027713D01*
G01X0045676Y-027713D02*
G01X0045676Y-027608D01*
G01X0045676Y-027608D02*
G01X0045663Y-027582D01*
G01X0045663Y-027582D02*
G01X0045650Y-027569D01*
G01X0045650Y-027569D02*
G01X0045624Y-027555D01*
G01X0045624Y-027555D02*
G01X0045571Y-027555D01*
G01X0045571Y-027555D02*
G01X0045545Y-027569D01*
G01X0045545Y-027569D02*
G01X0045532Y-027582D01*
G01X0045532Y-027582D02*
G01X0045519Y-027608D01*
G01X0045519Y-027608D02*
G01X0045519Y-027674D01*
G01X0045519Y-027674D02*
G01X0045532Y-027700D01*
G01X0045532Y-027700D02*
G01X0045545Y-027713D01*
G01X0045545Y-027713D02*
G01X0045571Y-027726D01*
G01X0045571Y-027726D02*
G01X0045624Y-027726D01*
G01X0045624Y-027726D02*
G01X0045650Y-027713D01*
G01X0045650Y-027713D02*
G01X0045663Y-027700D01*
G01X0045663Y-027700D02*
G01X0045676Y-027674D01*
G01X0046263Y-027831D02*
G01X0046263Y-027555D01*
G01X0046263Y-027555D02*
G01X0046420Y-027831D01*
G01X0046420Y-027831D02*
G01X0046420Y-027555D01*
G01X0046709Y-027805D02*
G01X0046696Y-027818D01*
G01X0046696Y-027818D02*
G01X0046657Y-027831D01*
G01X0046657Y-027831D02*
G01X0046630Y-027831D01*
G01X0046630Y-027831D02*
G01X0046591Y-027818D01*
G01X0046591Y-027818D02*
G01X0046565Y-027792D01*
G01X0046565Y-027792D02*
G01X0046552Y-027765D01*
G01X0046552Y-027765D02*
G01X0046539Y-027713D01*
G01X0046539Y-027713D02*
G01X0046539Y-027674D01*
G01X0046539Y-027674D02*
G01X0046552Y-027621D01*
G01X0046552Y-027621D02*
G01X0046565Y-027595D01*
G01X0046565Y-027595D02*
G01X0046591Y-027569D01*
G01X0046591Y-027569D02*
G01X0046630Y-027555D01*
G01X0046630Y-027555D02*
G01X0046657Y-027555D01*
G01X0046657Y-027555D02*
G01X0046696Y-027569D01*
G01X0046696Y-027569D02*
G01X0046709Y-027582D01*
G01X0047302Y-027569D02*
G01X0047276Y-027555D01*
G01X0047276Y-027555D02*
G01X0047237Y-027555D01*
G01X0047237Y-027555D02*
G01X0047197Y-027569D01*
G01X0047197Y-027569D02*
G01X0047171Y-027595D01*
G01X0047171Y-027595D02*
G01X0047158Y-027621D01*
G01X0047158Y-027621D02*
G01X0047145Y-027674D01*
G01X0047145Y-027674D02*
G01X0047145Y-027713D01*
G01X0047145Y-027713D02*
G01X0047158Y-027765D01*
G01X0047158Y-027765D02*
G01X0047171Y-027792D01*
G01X0047171Y-027792D02*
G01X0047197Y-027818D01*
G01X0047197Y-027818D02*
G01X0047237Y-027831D01*
G01X0047237Y-027831D02*
G01X0047263Y-027831D01*
G01X0047263Y-027831D02*
G01X0047302Y-027818D01*
G01X0047302Y-027818D02*
G01X0047315Y-027805D01*
G01X0047315Y-027805D02*
G01X0047315Y-027713D01*
G01X0047315Y-027713D02*
G01X0047263Y-027713D01*
G01X0047434Y-027647D02*
G01X0047434Y-027831D01*
G01X0047434Y-027674D02*
G01X0047447Y-027660D01*
G01X0047447Y-027660D02*
G01X0047473Y-027647D01*
G01X0047473Y-027647D02*
G01X0047512Y-027647D01*
G01X0047512Y-027647D02*
G01X0047539Y-027660D01*
G01X0047539Y-027660D02*
G01X0047552Y-027687D01*
G01X0047552Y-027687D02*
G01X0047552Y-027831D01*
G01X0047801Y-027831D02*
G01X0047801Y-027555D01*
G01X0047801Y-027818D02*
G01X0047775Y-027831D01*
G01X0047775Y-027831D02*
G01X0047722Y-027831D01*
G01X0047722Y-027831D02*
G01X0047696Y-027818D01*
G01X0047696Y-027818D02*
G01X0047683Y-027805D01*
G01X0047683Y-027805D02*
G01X0047670Y-027779D01*
G01X0047670Y-027779D02*
G01X0047670Y-027700D01*
G01X0047670Y-027700D02*
G01X0047683Y-027674D01*
G01X0047683Y-027674D02*
G01X0047696Y-027660D01*
G01X0047696Y-027660D02*
G01X0047722Y-027647D01*
G01X0047722Y-027647D02*
G01X0047775Y-027647D01*
G01X0047775Y-027647D02*
G01X0047801Y-027660D01*
G54D15*
G01X0029882Y-018016D02*
G01X0029958Y-018073D01*
G01X0029958Y-018073D02*
G01X0030082Y-018073D01*
G01X0030082Y-018073D02*
G01X0030212Y-018016D01*
G01X0030212Y-018016D02*
G01X0030309Y-017904D01*
G01X0030309Y-017904D02*
G01X0030364Y-017791D01*
G01X0030364Y-017791D02*
G01X0030434Y-017566D01*
G01X0030434Y-017566D02*
G01X0030455Y-017398D01*
G01X0030455Y-017398D02*
G01X0030442Y-017173D01*
G01X0030442Y-017173D02*
G01X0030414Y-017060D01*
G01X0030414Y-017060D02*
G01X0030346Y-016948D01*
G01X0030346Y-016948D02*
G01X0030229Y-016891D01*
G01X0030229Y-016891D02*
G01X0030147Y-016891D01*
G01X0030147Y-016891D02*
G01X0030016Y-016948D01*
G01X0030016Y-016948D02*
G01X0029968Y-017004D01*
G01X0029968Y-017004D02*
G01X0029919Y-017398D01*
G01X0029919Y-017398D02*
G01X0030084Y-017398D01*
G01X0029611Y-016891D02*
G01X0029463Y-018073D01*
G01X0029463Y-018073D02*
G01X0029116Y-016891D01*
G01X0029116Y-016891D02*
G01X0028968Y-018073D01*
G01X0028337Y-017510D02*
G01X0028220Y-017454D01*
G01X0028220Y-017454D02*
G01X0028186Y-017398D01*
G01X0028186Y-017398D02*
G01X0028159Y-017285D01*
G01X0028159Y-017285D02*
G01X0028180Y-017116D01*
G01X0028180Y-017116D02*
G01X0028235Y-017004D01*
G01X0028235Y-017004D02*
G01X0028284Y-016948D01*
G01X0028284Y-016948D02*
G01X0028373Y-016891D01*
G01X0028373Y-016891D02*
G01X0028703Y-016891D01*
G01X0028703Y-016891D02*
G01X0028556Y-018073D01*
G01X0028556Y-018073D02*
G01X0028267Y-018073D01*
G01X0028267Y-018073D02*
G01X0028191Y-018016D01*
G01X0028191Y-018016D02*
G01X0028157Y-017960D01*
G01X0028157Y-017960D02*
G01X0028130Y-017848D01*
G01X0028130Y-017848D02*
G01X0028144Y-017735D01*
G01X0028144Y-017735D02*
G01X0028199Y-017623D01*
G01X0028199Y-017623D02*
G01X0028248Y-017566D01*
G01X0028248Y-017566D02*
G01X0028337Y-017510D01*
G01X0028337Y-017510D02*
G01X0028626Y-017510D01*
G01X0027713Y-016891D02*
G01X0027789Y-016948D01*
G01X0027789Y-016948D02*
G01X0027823Y-017004D01*
G01X0027823Y-017004D02*
G01X0027850Y-017116D01*
G01X0027850Y-017116D02*
G01X0027808Y-017454D01*
G01X0027808Y-017454D02*
G01X0027753Y-017566D01*
G01X0027753Y-017566D02*
G01X0027704Y-017623D01*
G01X0027704Y-017623D02*
G01X0027615Y-017679D01*
G01X0027615Y-017679D02*
G01X0027491Y-017679D01*
G01X0027491Y-017679D02*
G01X0027416Y-017623D01*
G01X0027416Y-017623D02*
G01X0027382Y-017566D01*
G01X0027382Y-017566D02*
G01X0027354Y-017454D01*
G01X0027354Y-017454D02*
G01X0027397Y-017116D01*
G01X0027397Y-017116D02*
G01X0027452Y-017004D01*
G01X0027452Y-017004D02*
G01X0027500Y-016948D01*
G01X0027500Y-016948D02*
G01X0027590Y-016891D01*
G01X0027590Y-016891D02*
G01X0027713Y-016891D01*
G01X0026682Y-016891D02*
G01X0026605Y-017510D01*
G01X0026605Y-017510D02*
G01X0026632Y-017623D01*
G01X0026632Y-017623D02*
G01X0026708Y-017679D01*
G01X0026708Y-017679D02*
G01X0026873Y-017679D01*
G01X0026873Y-017679D02*
G01X0026962Y-017623D01*
G01X0026675Y-016948D02*
G01X0026765Y-016891D01*
G01X0026765Y-016891D02*
G01X0026971Y-016891D01*
G01X0026971Y-016891D02*
G01X0027046Y-016948D01*
G01X0027046Y-016948D02*
G01X0027074Y-017060D01*
G01X0027074Y-017060D02*
G01X0027060Y-017173D01*
G01X0027060Y-017173D02*
G01X0027004Y-017285D01*
G01X0027004Y-017285D02*
G01X0026915Y-017341D01*
G01X0026915Y-017341D02*
G01X0026708Y-017341D01*
G01X0026708Y-017341D02*
G01X0026619Y-017398D01*
G01X0026270Y-016891D02*
G01X0026171Y-017679D01*
G01X0026199Y-017454D02*
G01X0026144Y-017566D01*
G01X0026144Y-017566D02*
G01X0026096Y-017623D01*
G01X0026096Y-017623D02*
G01X0026006Y-017679D01*
G01X0026006Y-017679D02*
G01X0025924Y-017679D01*
G01X0025362Y-016891D02*
G01X0025215Y-018073D01*
G01X0025355Y-016948D02*
G01X0025445Y-016891D01*
G01X0025445Y-016891D02*
G01X0025610Y-016891D01*
G01X0025610Y-016891D02*
G01X0025685Y-016948D01*
G01X0025685Y-016948D02*
G01X0025720Y-017004D01*
G01X0025720Y-017004D02*
G01X0025747Y-017116D01*
G01X0025747Y-017116D02*
G01X0025705Y-017454D01*
G01X0025705Y-017454D02*
G01X0025649Y-017566D01*
G01X0025649Y-017566D02*
G01X0025601Y-017623D01*
G01X0025601Y-017623D02*
G01X0025511Y-017679D01*
G01X0025511Y-017679D02*
G01X0025346Y-017679D01*
G01X0025346Y-017679D02*
G01X0025271Y-017623D01*
G54D17*
G01X0030984Y-014713D02*
G01X0030775Y-014713D01*
G01X0030880Y-014608D02*
G01X0030880Y-014818D01*
G54D14*
G01X0042083Y-027752D02*
G01X0042214Y-027752D01*
G01X0042056Y-027831D02*
G01X0042148Y-027555D01*
G01X0042148Y-027555D02*
G01X0042240Y-027831D01*
G01X0042371Y-027674D02*
G01X0042345Y-027660D01*
G01X0042345Y-027660D02*
G01X0042332Y-027647D01*
G01X0042332Y-027647D02*
G01X0042319Y-027621D01*
G01X0042319Y-027621D02*
G01X0042319Y-027608D01*
G01X0042319Y-027608D02*
G01X0042332Y-027582D01*
G01X0042332Y-027582D02*
G01X0042345Y-027569D01*
G01X0042345Y-027569D02*
G01X0042371Y-027555D01*
G01X0042371Y-027555D02*
G01X0042424Y-027555D01*
G01X0042424Y-027555D02*
G01X0042450Y-027569D01*
G01X0042450Y-027569D02*
G01X0042463Y-027582D01*
G01X0042463Y-027582D02*
G01X0042476Y-027608D01*
G01X0042476Y-027608D02*
G01X0042476Y-027621D01*
G01X0042476Y-027621D02*
G01X0042463Y-027647D01*
G01X0042463Y-027647D02*
G01X0042450Y-027660D01*
G01X0042450Y-027660D02*
G01X0042424Y-027674D01*
G01X0042424Y-027674D02*
G01X0042371Y-027674D01*
G01X0042371Y-027674D02*
G01X0042345Y-027687D01*
G01X0042345Y-027687D02*
G01X0042332Y-027700D01*
G01X0042332Y-027700D02*
G01X0042319Y-027726D01*
G01X0042319Y-027726D02*
G01X0042319Y-027779D01*
G01X0042319Y-027779D02*
G01X0042332Y-027805D01*
G01X0042332Y-027805D02*
G01X0042345Y-027818D01*
G01X0042345Y-027818D02*
G01X0042371Y-027831D01*
G01X0042371Y-027831D02*
G01X0042424Y-027831D01*
G01X0042424Y-027831D02*
G01X0042450Y-027818D01*
G01X0042450Y-027818D02*
G01X0042463Y-027805D01*
G01X0042463Y-027805D02*
G01X0042476Y-027779D01*
G01X0042476Y-027779D02*
G01X0042476Y-027726D01*
G01X0042476Y-027726D02*
G01X0042463Y-027700D01*
G01X0042463Y-027700D02*
G01X0042450Y-027687D01*
G01X0042450Y-027687D02*
G01X0042424Y-027674D01*
G01X0041083Y-027752D02*
G01X0041214Y-027752D01*
G01X0041056Y-027831D02*
G01X0041148Y-027555D01*
G01X0041148Y-027555D02*
G01X0041240Y-027831D01*
G01X0041306Y-027555D02*
G01X0041489Y-027555D01*
G01X0041489Y-027555D02*
G01X0041371Y-027831D01*
G01X0040083Y-027752D02*
G01X0040214Y-027752D01*
G01X0040056Y-027831D02*
G01X0040148Y-027555D01*
G01X0040148Y-027555D02*
G01X0040240Y-027831D01*
G01X0040450Y-027555D02*
G01X0040398Y-027555D01*
G01X0040398Y-027555D02*
G01X0040371Y-027569D01*
G01X0040371Y-027569D02*
G01X0040358Y-027582D01*
G01X0040358Y-027582D02*
G01X0040332Y-027621D01*
G01X0040332Y-027621D02*
G01X0040319Y-027674D01*
G01X0040319Y-027674D02*
G01X0040319Y-027779D01*
G01X0040319Y-027779D02*
G01X0040332Y-027805D01*
G01X0040332Y-027805D02*
G01X0040345Y-027818D01*
G01X0040345Y-027818D02*
G01X0040371Y-027831D01*
G01X0040371Y-027831D02*
G01X0040424Y-027831D01*
G01X0040424Y-027831D02*
G01X0040450Y-027818D01*
G01X0040450Y-027818D02*
G01X0040463Y-027805D01*
G01X0040463Y-027805D02*
G01X0040476Y-027779D01*
G01X0040476Y-027779D02*
G01X0040476Y-027713D01*
G01X0040476Y-027713D02*
G01X0040463Y-027687D01*
G01X0040463Y-027687D02*
G01X0040450Y-027674D01*
G01X0040450Y-027674D02*
G01X0040424Y-027660D01*
G01X0040424Y-027660D02*
G01X0040371Y-027660D01*
G01X0040371Y-027660D02*
G01X0040345Y-027674D01*
G01X0040345Y-027674D02*
G01X0040332Y-027687D01*
G01X0040332Y-027687D02*
G01X0040319Y-027713D01*
G01X0039083Y-027752D02*
G01X0039214Y-027752D01*
G01X0039056Y-027831D02*
G01X0039148Y-027555D01*
G01X0039148Y-027555D02*
G01X0039240Y-027831D01*
G01X0039463Y-027555D02*
G01X0039332Y-027555D01*
G01X0039332Y-027555D02*
G01X0039319Y-027687D01*
G01X0039319Y-027687D02*
G01X0039332Y-027674D01*
G01X0039332Y-027674D02*
G01X0039358Y-027660D01*
G01X0039358Y-027660D02*
G01X0039424Y-027660D01*
G01X0039424Y-027660D02*
G01X0039450Y-027674D01*
G01X0039450Y-027674D02*
G01X0039463Y-027687D01*
G01X0039463Y-027687D02*
G01X0039476Y-027713D01*
G01X0039476Y-027713D02*
G01X0039476Y-027779D01*
G01X0039476Y-027779D02*
G01X0039463Y-027805D01*
G01X0039463Y-027805D02*
G01X0039450Y-027818D01*
G01X0039450Y-027818D02*
G01X0039424Y-027831D01*
G01X0039424Y-027831D02*
G01X0039358Y-027831D01*
G01X0039358Y-027831D02*
G01X0039332Y-027818D01*
G01X0039332Y-027818D02*
G01X0039319Y-027805D01*
G01X0049332Y-012684D02*
G01X0049463Y-012684D01*
G01X0049463Y-012684D02*
G01X0049476Y-012552D01*
G01X0049476Y-012552D02*
G01X0049463Y-012565D01*
G01X0049463Y-012565D02*
G01X0049437Y-012579D01*
G01X0049437Y-012579D02*
G01X0049371Y-012579D01*
G01X0049371Y-012579D02*
G01X0049345Y-012565D01*
G01X0049345Y-012565D02*
G01X0049332Y-012552D01*
G01X0049332Y-012552D02*
G01X0049319Y-012526D01*
G01X0049319Y-012526D02*
G01X0049319Y-012460D01*
G01X0049319Y-012460D02*
G01X0049332Y-012434D01*
G01X0049332Y-012434D02*
G01X0049345Y-012421D01*
G01X0049345Y-012421D02*
G01X0049371Y-012408D01*
G01X0049371Y-012408D02*
G01X0049437Y-012408D01*
G01X0049437Y-012408D02*
G01X0049463Y-012421D01*
G01X0049463Y-012421D02*
G01X0049476Y-012434D01*
G01X0049240Y-012684D02*
G01X0049148Y-012408D01*
G01X0049148Y-012408D02*
G01X0049056Y-012684D01*
G01X0048489Y-012670D02*
G01X0048516Y-012684D01*
G01X0048516Y-012684D02*
G01X0048555Y-012684D01*
G01X0048555Y-012684D02*
G01X0048594Y-012670D01*
G01X0048594Y-012670D02*
G01X0048621Y-012644D01*
G01X0048621Y-012644D02*
G01X0048634Y-012618D01*
G01X0048634Y-012618D02*
G01X0048647Y-012565D01*
G01X0048647Y-012565D02*
G01X0048647Y-012526D01*
G01X0048647Y-012526D02*
G01X0048634Y-012474D01*
G01X0048634Y-012474D02*
G01X0048621Y-012447D01*
G01X0048621Y-012447D02*
G01X0048594Y-012421D01*
G01X0048594Y-012421D02*
G01X0048555Y-012408D01*
G01X0048555Y-012408D02*
G01X0048529Y-012408D01*
G01X0048529Y-012408D02*
G01X0048489Y-012421D01*
G01X0048489Y-012421D02*
G01X0048476Y-012434D01*
G01X0048476Y-012434D02*
G01X0048476Y-012526D01*
G01X0048476Y-012526D02*
G01X0048529Y-012526D01*
G01X0048358Y-012408D02*
G01X0048358Y-012684D01*
G01X0048358Y-012684D02*
G01X0048201Y-012408D01*
G01X0048201Y-012408D02*
G01X0048201Y-012684D01*
G01X0048070Y-012408D02*
G01X0048070Y-012684D01*
G01X0048070Y-012684D02*
G01X0048004Y-012684D01*
G01X0048004Y-012684D02*
G01X0047965Y-012670D01*
G01X0047965Y-012670D02*
G01X0047938Y-012644D01*
G01X0047938Y-012644D02*
G01X0047925Y-012618D01*
G01X0047925Y-012618D02*
G01X0047912Y-012565D01*
G01X0047912Y-012565D02*
G01X0047912Y-012526D01*
G01X0047912Y-012526D02*
G01X0047925Y-012474D01*
G01X0047925Y-012474D02*
G01X0047938Y-012447D01*
G01X0047938Y-012447D02*
G01X0047965Y-012421D01*
G01X0047965Y-012421D02*
G01X0048004Y-012408D01*
G01X0048004Y-012408D02*
G01X0048070Y-012408D01*
G01X0047608Y-012421D02*
G01X0047568Y-012408D01*
G01X0047568Y-012408D02*
G01X0047503Y-012408D01*
G01X0047503Y-012408D02*
G01X0047476Y-012421D01*
G01X0047476Y-012421D02*
G01X0047463Y-012434D01*
G01X0047463Y-012434D02*
G01X0047450Y-012460D01*
G01X0047450Y-012460D02*
G01X0047450Y-012487D01*
G01X0047450Y-012487D02*
G01X0047463Y-012513D01*
G01X0047463Y-012513D02*
G01X0047476Y-012526D01*
G01X0047476Y-012526D02*
G01X0047503Y-012539D01*
G01X0047503Y-012539D02*
G01X0047555Y-012552D01*
G01X0047555Y-012552D02*
G01X0047581Y-012565D01*
G01X0047581Y-012565D02*
G01X0047594Y-012579D01*
G01X0047594Y-012579D02*
G01X0047608Y-012605D01*
G01X0047608Y-012605D02*
G01X0047608Y-012631D01*
G01X0047608Y-012631D02*
G01X0047594Y-012657D01*
G01X0047594Y-012657D02*
G01X0047581Y-012670D01*
G01X0047581Y-012670D02*
G01X0047555Y-012684D01*
G01X0047555Y-012684D02*
G01X0047489Y-012684D01*
G01X0047489Y-012684D02*
G01X0047450Y-012670D01*
G01X0047175Y-012434D02*
G01X0047188Y-012421D01*
G01X0047188Y-012421D02*
G01X0047227Y-012408D01*
G01X0047227Y-012408D02*
G01X0047253Y-012408D01*
G01X0047253Y-012408D02*
G01X0047293Y-012421D01*
G01X0047293Y-012421D02*
G01X0047319Y-012447D01*
G01X0047319Y-012447D02*
G01X0047332Y-012474D01*
G01X0047332Y-012474D02*
G01X0047345Y-012526D01*
G01X0047345Y-012526D02*
G01X0047345Y-012565D01*
G01X0047345Y-012565D02*
G01X0047332Y-012618D01*
G01X0047332Y-012618D02*
G01X0047319Y-012644D01*
G01X0047319Y-012644D02*
G01X0047293Y-012670D01*
G01X0047293Y-012670D02*
G01X0047253Y-012684D01*
G01X0047253Y-012684D02*
G01X0047227Y-012684D01*
G01X0047227Y-012684D02*
G01X0047188Y-012670D01*
G01X0047188Y-012670D02*
G01X0047175Y-012657D01*
G01X0046925Y-012408D02*
G01X0047056Y-012408D01*
G01X0047056Y-012408D02*
G01X0047056Y-012684D01*
G01X0046614Y-012421D02*
G01X0046575Y-012408D01*
G01X0046575Y-012408D02*
G01X0046509Y-012408D01*
G01X0046509Y-012408D02*
G01X0046483Y-012421D01*
G01X0046483Y-012421D02*
G01X0046470Y-012434D01*
G01X0046470Y-012434D02*
G01X0046457Y-012460D01*
G01X0046457Y-012460D02*
G01X0046457Y-012487D01*
G01X0046457Y-012487D02*
G01X0046470Y-012513D01*
G01X0046470Y-012513D02*
G01X0046483Y-012526D01*
G01X0046483Y-012526D02*
G01X0046509Y-012539D01*
G01X0046509Y-012539D02*
G01X0046562Y-012552D01*
G01X0046562Y-012552D02*
G01X0046588Y-012565D01*
G01X0046588Y-012565D02*
G01X0046601Y-012579D01*
G01X0046601Y-012579D02*
G01X0046614Y-012605D01*
G01X0046614Y-012605D02*
G01X0046614Y-012631D01*
G01X0046614Y-012631D02*
G01X0046601Y-012657D01*
G01X0046601Y-012657D02*
G01X0046588Y-012670D01*
G01X0046588Y-012670D02*
G01X0046562Y-012684D01*
G01X0046562Y-012684D02*
G01X0046496Y-012684D01*
G01X0046496Y-012684D02*
G01X0046457Y-012670D01*
G01X0046339Y-012408D02*
G01X0046339Y-012684D01*
G01X0046339Y-012684D02*
G01X0046273Y-012684D01*
G01X0046273Y-012684D02*
G01X0046234Y-012670D01*
G01X0046234Y-012670D02*
G01X0046207Y-012644D01*
G01X0046207Y-012644D02*
G01X0046194Y-012618D01*
G01X0046194Y-012618D02*
G01X0046181Y-012565D01*
G01X0046181Y-012565D02*
G01X0046181Y-012526D01*
G01X0046181Y-012526D02*
G01X0046194Y-012474D01*
G01X0046194Y-012474D02*
G01X0046207Y-012447D01*
G01X0046207Y-012447D02*
G01X0046234Y-012421D01*
G01X0046234Y-012421D02*
G01X0046273Y-012408D01*
G01X0046273Y-012408D02*
G01X0046339Y-012408D01*
G01X0046076Y-012487D02*
G01X0045945Y-012487D01*
G01X0046102Y-012408D02*
G01X0046010Y-012684D01*
G01X0046010Y-012684D02*
G01X0045919Y-012408D01*
G54D17*
G01X0040132Y-010208D02*
G01X0040289Y-010208D01*
G01X0040211Y-010208D02*
G01X0040211Y-010484D01*
G01X0040211Y-010484D02*
G01X0040237Y-010444D01*
G01X0040237Y-010444D02*
G01X0040263Y-010418D01*
G01X0040263Y-010418D02*
G01X0040289Y-010405D01*
G01X0040040Y-010484D02*
G01X0039856Y-010484D01*
G01X0039856Y-010484D02*
G01X0039975Y-010208D01*
G01X0039132Y-010208D02*
G01X0039289Y-010208D01*
G01X0039211Y-010208D02*
G01X0039211Y-010484D01*
G01X0039211Y-010484D02*
G01X0039237Y-010444D01*
G01X0039237Y-010444D02*
G01X0039263Y-010418D01*
G01X0039263Y-010418D02*
G01X0039289Y-010405D01*
G01X0038896Y-010484D02*
G01X0038948Y-010484D01*
G01X0038948Y-010484D02*
G01X0038975Y-010470D01*
G01X0038975Y-010470D02*
G01X0038988Y-010457D01*
G01X0038988Y-010457D02*
G01X0039014Y-010418D01*
G01X0039014Y-010418D02*
G01X0039027Y-010365D01*
G01X0039027Y-010365D02*
G01X0039027Y-010260D01*
G01X0039027Y-010260D02*
G01X0039014Y-010234D01*
G01X0039014Y-010234D02*
G01X0039001Y-010221D01*
G01X0039001Y-010221D02*
G01X0038975Y-010208D01*
G01X0038975Y-010208D02*
G01X0038922Y-010208D01*
G01X0038922Y-010208D02*
G01X0038896Y-010221D01*
G01X0038896Y-010221D02*
G01X0038883Y-010234D01*
G01X0038883Y-010234D02*
G01X0038870Y-010260D01*
G01X0038870Y-010260D02*
G01X0038870Y-010326D01*
G01X0038870Y-010326D02*
G01X0038883Y-010352D01*
G01X0038883Y-010352D02*
G01X0038896Y-010365D01*
G01X0038896Y-010365D02*
G01X0038922Y-010379D01*
G01X0038922Y-010379D02*
G01X0038975Y-010379D01*
G01X0038975Y-010379D02*
G01X0039001Y-010365D01*
G01X0039001Y-010365D02*
G01X0039014Y-010352D01*
G01X0039014Y-010352D02*
G01X0039027Y-010326D01*
G01X0038132Y-010208D02*
G01X0038289Y-010208D01*
G01X0038211Y-010208D02*
G01X0038211Y-010484D01*
G01X0038211Y-010484D02*
G01X0038237Y-010444D01*
G01X0038237Y-010444D02*
G01X0038263Y-010418D01*
G01X0038263Y-010418D02*
G01X0038289Y-010405D01*
G01X0037883Y-010484D02*
G01X0038014Y-010484D01*
G01X0038014Y-010484D02*
G01X0038027Y-010352D01*
G01X0038027Y-010352D02*
G01X0038014Y-010365D01*
G01X0038014Y-010365D02*
G01X0037988Y-010379D01*
G01X0037988Y-010379D02*
G01X0037922Y-010379D01*
G01X0037922Y-010379D02*
G01X0037896Y-010365D01*
G01X0037896Y-010365D02*
G01X0037883Y-010352D01*
G01X0037883Y-010352D02*
G01X0037870Y-010326D01*
G01X0037870Y-010326D02*
G01X0037870Y-010260D01*
G01X0037870Y-010260D02*
G01X0037883Y-010234D01*
G01X0037883Y-010234D02*
G01X0037896Y-010221D01*
G01X0037896Y-010221D02*
G01X0037922Y-010208D01*
G01X0037922Y-010208D02*
G01X0037988Y-010208D01*
G01X0037988Y-010208D02*
G01X0038014Y-010221D01*
G01X0038014Y-010221D02*
G01X0038027Y-010234D01*
G01X0037132Y-010208D02*
G01X0037289Y-010208D01*
G01X0037211Y-010208D02*
G01X0037211Y-010484D01*
G01X0037211Y-010484D02*
G01X0037237Y-010444D01*
G01X0037237Y-010444D02*
G01X0037263Y-010418D01*
G01X0037263Y-010418D02*
G01X0037289Y-010405D01*
G01X0036896Y-010392D02*
G01X0036896Y-010208D01*
G01X0036961Y-010497D02*
G01X0037027Y-010300D01*
G01X0037027Y-010300D02*
G01X0036856Y-010300D01*
G01X0036171Y-010484D02*
G01X0036001Y-010484D01*
G01X0036001Y-010484D02*
G01X0036093Y-010379D01*
G01X0036093Y-010379D02*
G01X0036053Y-010379D01*
G01X0036053Y-010379D02*
G01X0036027Y-010365D01*
G01X0036027Y-010365D02*
G01X0036014Y-010352D01*
G01X0036014Y-010352D02*
G01X0036001Y-010326D01*
G01X0036001Y-010326D02*
G01X0036001Y-010260D01*
G01X0036001Y-010260D02*
G01X0036014Y-010234D01*
G01X0036014Y-010234D02*
G01X0036027Y-010221D01*
G01X0036027Y-010221D02*
G01X0036053Y-010208D01*
G01X0036053Y-010208D02*
G01X0036132Y-010208D01*
G01X0036132Y-010208D02*
G01X0036158Y-010221D01*
G01X0036158Y-010221D02*
G01X0036171Y-010234D01*
G01X0035027Y-010392D02*
G01X0035027Y-010208D01*
G01X0035093Y-010497D02*
G01X0035158Y-010300D01*
G01X0035158Y-010300D02*
G01X0034988Y-010300D01*
G01X0034014Y-010484D02*
G01X0034145Y-010484D01*
G01X0034145Y-010484D02*
G01X0034158Y-010352D01*
G01X0034158Y-010352D02*
G01X0034145Y-010365D01*
G01X0034145Y-010365D02*
G01X0034119Y-010379D01*
G01X0034119Y-010379D02*
G01X0034053Y-010379D01*
G01X0034053Y-010379D02*
G01X0034027Y-010365D01*
G01X0034027Y-010365D02*
G01X0034014Y-010352D01*
G01X0034014Y-010352D02*
G01X0034001Y-010326D01*
G01X0034001Y-010326D02*
G01X0034001Y-010260D01*
G01X0034001Y-010260D02*
G01X0034014Y-010234D01*
G01X0034014Y-010234D02*
G01X0034027Y-010221D01*
G01X0034027Y-010221D02*
G01X0034053Y-010208D01*
G01X0034053Y-010208D02*
G01X0034119Y-010208D01*
G01X0034119Y-010208D02*
G01X0034145Y-010221D01*
G01X0034145Y-010221D02*
G01X0034158Y-010234D01*
G01X0033027Y-010484D02*
G01X0033080Y-010484D01*
G01X0033080Y-010484D02*
G01X0033106Y-010470D01*
G01X0033106Y-010470D02*
G01X0033119Y-010457D01*
G01X0033119Y-010457D02*
G01X0033145Y-010418D01*
G01X0033145Y-010418D02*
G01X0033158Y-010365D01*
G01X0033158Y-010365D02*
G01X0033158Y-010260D01*
G01X0033158Y-010260D02*
G01X0033145Y-010234D01*
G01X0033145Y-010234D02*
G01X0033132Y-010221D01*
G01X0033132Y-010221D02*
G01X0033106Y-010208D01*
G01X0033106Y-010208D02*
G01X0033053Y-010208D01*
G01X0033053Y-010208D02*
G01X0033027Y-010221D01*
G01X0033027Y-010221D02*
G01X0033014Y-010234D01*
G01X0033014Y-010234D02*
G01X0033001Y-010260D01*
G01X0033001Y-010260D02*
G01X0033001Y-010326D01*
G01X0033001Y-010326D02*
G01X0033014Y-010352D01*
G01X0033014Y-010352D02*
G01X0033027Y-010365D01*
G01X0033027Y-010365D02*
G01X0033053Y-010379D01*
G01X0033053Y-010379D02*
G01X0033106Y-010379D01*
G01X0033106Y-010379D02*
G01X0033132Y-010365D01*
G01X0033132Y-010365D02*
G01X0033145Y-010352D01*
G01X0033145Y-010352D02*
G01X0033158Y-010326D01*
G01X0032171Y-010484D02*
G01X0031988Y-010484D01*
G01X0031988Y-010484D02*
G01X0032106Y-010208D01*
G54D12*
G01X0031480Y-014120D02*
G01X0031480Y-013720D01*
G01X0036580Y-014120D02*
G01X0036580Y-013720D01*
G54D11*
G01X0034851Y-014180D02*
G01X0034851Y-014771D01*
G01X0034851Y-014771D02*
G01X0034622Y-014771D01*
G01X0034622Y-014771D02*
G01X0034565Y-014743D01*
G01X0034565Y-014743D02*
G01X0034537Y-014715D01*
G01X0034537Y-014715D02*
G01X0034508Y-014659D01*
G01X0034508Y-014659D02*
G01X0034508Y-014574D01*
G01X0034508Y-014574D02*
G01X0034537Y-014518D01*
G01X0034537Y-014518D02*
G01X0034565Y-014490D01*
G01X0034565Y-014490D02*
G01X0034622Y-014462D01*
G01X0034622Y-014462D02*
G01X0034851Y-014462D01*
G01X0034308Y-014574D02*
G01X0034194Y-014180D01*
G01X0034194Y-014180D02*
G01X0034079Y-014462D01*
G01X0034079Y-014462D02*
G01X0033965Y-014180D01*
G01X0033965Y-014180D02*
G01X0033851Y-014574D01*
G01X0033622Y-014180D02*
G01X0033622Y-014574D01*
G01X0033622Y-014518D02*
G01X0033594Y-014546D01*
G01X0033594Y-014546D02*
G01X0033537Y-014574D01*
G01X0033537Y-014574D02*
G01X0033451Y-014574D01*
G01X0033451Y-014574D02*
G01X0033394Y-014546D01*
G01X0033394Y-014546D02*
G01X0033365Y-014490D01*
G01X0033365Y-014490D02*
G01X0033365Y-014180D01*
G01X0033365Y-014490D02*
G01X0033337Y-014546D01*
G01X0033337Y-014546D02*
G01X0033280Y-014574D01*
G01X0033280Y-014574D02*
G01X0033194Y-014574D01*
G01X0033194Y-014574D02*
G01X0033137Y-014546D01*
G01X0033137Y-014546D02*
G01X0033108Y-014490D01*
G01X0033108Y-014490D02*
G01X0033108Y-014180D01*
G01X0031098Y-012471D02*
G01X0031286Y-012471D01*
G01X0031286Y-012471D02*
G01X0031305Y-012190D01*
G01X0031305Y-012190D02*
G01X0031286Y-012218D01*
G01X0031286Y-012218D02*
G01X0031248Y-012246D01*
G01X0031248Y-012246D02*
G01X0031155Y-012246D01*
G01X0031155Y-012246D02*
G01X0031117Y-012218D01*
G01X0031117Y-012218D02*
G01X0031098Y-012190D01*
G01X0031098Y-012190D02*
G01X0031080Y-012134D01*
G01X0031080Y-012134D02*
G01X0031080Y-011993D01*
G01X0031080Y-011993D02*
G01X0031098Y-011937D01*
G01X0031098Y-011937D02*
G01X0031117Y-011909D01*
G01X0031117Y-011909D02*
G01X0031155Y-011880D01*
G01X0031155Y-011880D02*
G01X0031248Y-011880D01*
G01X0031248Y-011880D02*
G01X0031286Y-011909D01*
G01X0031286Y-011909D02*
G01X0031305Y-011937D01*
G01X0030948Y-012274D02*
G01X0030855Y-011880D01*
G01X0030855Y-011880D02*
G01X0030761Y-012274D01*
G01X0020887Y-029462D02*
G01X0020687Y-029177D01*
G01X0020544Y-029462D02*
G01X0020544Y-028862D01*
G01X0020544Y-028862D02*
G01X0020772Y-028862D01*
G01X0020772Y-028862D02*
G01X0020830Y-028891D01*
G01X0020830Y-028891D02*
G01X0020858Y-028920D01*
G01X0020858Y-028920D02*
G01X0020887Y-028977D01*
G01X0020887Y-028977D02*
G01X0020887Y-029062D01*
G01X0020887Y-029062D02*
G01X0020858Y-029120D01*
G01X0020858Y-029120D02*
G01X0020830Y-029148D01*
G01X0020830Y-029148D02*
G01X0020772Y-029177D01*
G01X0020772Y-029177D02*
G01X0020544Y-029177D01*
G01X0021372Y-029434D02*
G01X0021315Y-029462D01*
G01X0021315Y-029462D02*
G01X0021201Y-029462D01*
G01X0021201Y-029462D02*
G01X0021144Y-029434D01*
G01X0021144Y-029434D02*
G01X0021115Y-029377D01*
G01X0021115Y-029377D02*
G01X0021115Y-029148D01*
G01X0021115Y-029148D02*
G01X0021144Y-029091D01*
G01X0021144Y-029091D02*
G01X0021201Y-029062D01*
G01X0021201Y-029062D02*
G01X0021315Y-029062D01*
G01X0021315Y-029062D02*
G01X0021372Y-029091D01*
G01X0021372Y-029091D02*
G01X0021401Y-029148D01*
G01X0021401Y-029148D02*
G01X0021401Y-029205D01*
G01X0021401Y-029205D02*
G01X0021115Y-029262D01*
G01X0021630Y-029434D02*
G01X0021687Y-029462D01*
G01X0021687Y-029462D02*
G01X0021801Y-029462D01*
G01X0021801Y-029462D02*
G01X0021858Y-029434D01*
G01X0021858Y-029434D02*
G01X0021887Y-029377D01*
G01X0021887Y-029377D02*
G01X0021887Y-029348D01*
G01X0021887Y-029348D02*
G01X0021858Y-029291D01*
G01X0021858Y-029291D02*
G01X0021801Y-029262D01*
G01X0021801Y-029262D02*
G01X0021715Y-029262D01*
G01X0021715Y-029262D02*
G01X0021658Y-029234D01*
G01X0021658Y-029234D02*
G01X0021630Y-029177D01*
G01X0021630Y-029177D02*
G01X0021630Y-029148D01*
G01X0021630Y-029148D02*
G01X0021658Y-029091D01*
G01X0021658Y-029091D02*
G01X0021715Y-029062D01*
G01X0021715Y-029062D02*
G01X0021801Y-029062D01*
G01X0021801Y-029062D02*
G01X0021858Y-029091D01*
G01X0022372Y-029434D02*
G01X0022315Y-029462D01*
G01X0022315Y-029462D02*
G01X0022201Y-029462D01*
G01X0022201Y-029462D02*
G01X0022144Y-029434D01*
G01X0022144Y-029434D02*
G01X0022115Y-029377D01*
G01X0022115Y-029377D02*
G01X0022115Y-029148D01*
G01X0022115Y-029148D02*
G01X0022144Y-029091D01*
G01X0022144Y-029091D02*
G01X0022201Y-029062D01*
G01X0022201Y-029062D02*
G01X0022315Y-029062D01*
G01X0022315Y-029062D02*
G01X0022372Y-029091D01*
G01X0022372Y-029091D02*
G01X0022401Y-029148D01*
G01X0022401Y-029148D02*
G01X0022401Y-029205D01*
G01X0022401Y-029205D02*
G01X0022115Y-029262D01*
G01X0022572Y-029062D02*
G01X0022801Y-029062D01*
G01X0022658Y-028862D02*
G01X0022658Y-029377D01*
G01X0022658Y-029377D02*
G01X0022687Y-029434D01*
G01X0022687Y-029434D02*
G01X0022744Y-029462D01*
G01X0022744Y-029462D02*
G01X0022801Y-029462D01*
G01X0022137Y-011577D02*
G01X0022737Y-011577D01*
G01X0022737Y-011577D02*
G01X0022737Y-011805D01*
G01X0022737Y-011805D02*
G01X0022708Y-011862D01*
G01X0022708Y-011862D02*
G01X0022680Y-011891D01*
G01X0022680Y-011891D02*
G01X0022622Y-011920D01*
G01X0022622Y-011920D02*
G01X0022537Y-011920D01*
G01X0022537Y-011920D02*
G01X0022480Y-011891D01*
G01X0022480Y-011891D02*
G01X0022451Y-011862D01*
G01X0022451Y-011862D02*
G01X0022422Y-011805D01*
G01X0022422Y-011805D02*
G01X0022422Y-011577D01*
G01X0022137Y-012491D02*
G01X0022137Y-012148D01*
G01X0022137Y-012320D02*
G01X0022737Y-012320D01*
G01X0022737Y-012320D02*
G01X0022651Y-012262D01*
G01X0022651Y-012262D02*
G01X0022594Y-012205D01*
G01X0022594Y-012205D02*
G01X0022565Y-012148D01*
G54D12*
G01X0020515Y-017634D02*
G01X0020515Y-018091D01*
G01X0020515Y-019748D02*
G01X0020515Y-020205D01*
G01X0020287Y-019977D02*
G01X0020744Y-019977D01*
G54D11*
G01X0023037Y-023127D02*
G01X0023037Y-023241D01*
G01X0023037Y-023241D02*
G01X0023008Y-023298D01*
G01X0023008Y-023298D02*
G01X0022951Y-023355D01*
G01X0022951Y-023355D02*
G01X0022837Y-023384D01*
G01X0022837Y-023384D02*
G01X0022637Y-023384D01*
G01X0022637Y-023384D02*
G01X0022522Y-023355D01*
G01X0022522Y-023355D02*
G01X0022465Y-023298D01*
G01X0022465Y-023298D02*
G01X0022437Y-023241D01*
G01X0022437Y-023241D02*
G01X0022437Y-023127D01*
G01X0022437Y-023127D02*
G01X0022465Y-023070D01*
G01X0022465Y-023070D02*
G01X0022522Y-023012D01*
G01X0022522Y-023012D02*
G01X0022637Y-022984D01*
G01X0022637Y-022984D02*
G01X0022837Y-022984D01*
G01X0022837Y-022984D02*
G01X0022951Y-023012D01*
G01X0022951Y-023012D02*
G01X0023008Y-023070D01*
G01X0023008Y-023070D02*
G01X0023037Y-023127D01*
G01X0022837Y-023555D02*
G01X0022837Y-023784D01*
G01X0022437Y-023641D02*
G01X0022951Y-023641D01*
G01X0022951Y-023641D02*
G01X0023008Y-023670D01*
G01X0023008Y-023670D02*
G01X0023037Y-023727D01*
G01X0023037Y-023727D02*
G01X0023037Y-023784D01*
G01X0022837Y-023898D02*
G01X0022837Y-024127D01*
G01X0022437Y-023984D02*
G01X0022951Y-023984D01*
G01X0022951Y-023984D02*
G01X0023008Y-024012D01*
G01X0023008Y-024012D02*
G01X0023037Y-024069D01*
G01X0023037Y-024069D02*
G01X0023037Y-024127D01*
G01X0022098Y-023127D02*
G01X0022098Y-023241D01*
G01X0022098Y-023241D02*
G01X0022070Y-023298D01*
G01X0022070Y-023298D02*
G01X0022013Y-023355D01*
G01X0022013Y-023355D02*
G01X0021898Y-023384D01*
G01X0021898Y-023384D02*
G01X0021698Y-023384D01*
G01X0021698Y-023384D02*
G01X0021584Y-023355D01*
G01X0021584Y-023355D02*
G01X0021527Y-023298D01*
G01X0021527Y-023298D02*
G01X0021498Y-023241D01*
G01X0021498Y-023241D02*
G01X0021498Y-023127D01*
G01X0021498Y-023127D02*
G01X0021527Y-023070D01*
G01X0021527Y-023070D02*
G01X0021584Y-023012D01*
G01X0021584Y-023012D02*
G01X0021698Y-022984D01*
G01X0021698Y-022984D02*
G01X0021898Y-022984D01*
G01X0021898Y-022984D02*
G01X0022013Y-023012D01*
G01X0022013Y-023012D02*
G01X0022070Y-023070D01*
G01X0022070Y-023070D02*
G01X0022098Y-023127D01*
G01X0021898Y-023641D02*
G01X0021498Y-023641D01*
G01X0021841Y-023641D02*
G01X0021870Y-023670D01*
G01X0021870Y-023670D02*
G01X0021898Y-023727D01*
G01X0021898Y-023727D02*
G01X0021898Y-023812D01*
G01X0021898Y-023812D02*
G01X0021870Y-023870D01*
G01X0021870Y-023870D02*
G01X0021813Y-023898D01*
G01X0021813Y-023898D02*
G01X0021498Y-023898D01*
G54D12*
G01X0038080Y-018920D02*
G01X0042480Y-018920D01*
G01X0038080Y-018920D02*
G01X0033680Y-018920D01*
G01X0038080Y-018920D02*
G01X0038080Y-023320D01*
G01X0038080Y-018920D02*
G01X0038080Y-014520D01*
G01X0042466Y-018920D02*
G75*
G03X0042466Y-018920I-004386J0000000D01*
G01X0041204Y-018920D02*
G75*
G03X0041204Y-018920I-003124J0000000D01*
G54D18*
G01X0025830Y-022720D02*
G01X0026330Y-022720D01*
G01X0028330Y-022720D02*
G01X0028830Y-022720D01*
G01X0028030Y-022220D02*
G01X0028030Y-023220D01*
G01X0028330Y-022220D02*
G01X0026330Y-022220D01*
G01X0026330Y-022220D02*
G01X0026330Y-023220D01*
G01X0026330Y-023220D02*
G01X0028330Y-023220D01*
G01X0028330Y-023220D02*
G01X0028330Y-022220D01*
G54D19*
G01X0023430Y-016970D02*
G01X0023430Y-020970D01*
G01X0023930Y-016970D02*
G01X0020930Y-016970D01*
G01X0020930Y-016970D02*
G01X0020930Y-020970D01*
G01X0020930Y-020970D02*
G01X0023930Y-020970D01*
G01X0023930Y-020970D02*
G01X0023930Y-016970D01*
G01X0030880Y-021570D02*
G01X0031080Y-021570D01*
G01X0033880Y-021570D02*
G01X0033680Y-021570D01*
G01X0033680Y-021570D02*
G01X0033680Y-021170D01*
G01X0033680Y-021170D02*
G01X0031080Y-021170D01*
G01X0031080Y-021170D02*
G01X0031080Y-021970D01*
G01X0031080Y-021970D02*
G01X0033680Y-021970D01*
G01X0033680Y-021970D02*
G01X0033680Y-021570D01*
G01X0031080Y-021370D02*
G01X0031280Y-021170D01*
G01X0029780Y-010720D02*
G01X0029580Y-010720D01*
G01X0026780Y-010720D02*
G01X0026980Y-010720D01*
G01X0026980Y-010720D02*
G01X0026980Y-011120D01*
G01X0026980Y-011120D02*
G01X0029580Y-011120D01*
G01X0029580Y-011120D02*
G01X0029580Y-010320D01*
G01X0029580Y-010320D02*
G01X0026980Y-010320D01*
G01X0026980Y-010320D02*
G01X0026980Y-010720D01*
G01X0029580Y-010920D02*
G01X0029380Y-011120D01*
G01X0029780Y-011770D02*
G01X0029580Y-011770D01*
G01X0026780Y-011770D02*
G01X0026980Y-011770D01*
G01X0026980Y-011770D02*
G01X0026980Y-012170D01*
G01X0026980Y-012170D02*
G01X0029580Y-012170D01*
G01X0029580Y-012170D02*
G01X0029580Y-011370D01*
G01X0029580Y-011370D02*
G01X0026980Y-011370D01*
G01X0026980Y-011370D02*
G01X0026980Y-011770D01*
G01X0029580Y-011970D02*
G01X0029380Y-012170D01*
G01X0029780Y-012820D02*
G01X0029580Y-012820D01*
G01X0026780Y-012820D02*
G01X0026980Y-012820D01*
G01X0026980Y-012820D02*
G01X0026980Y-013220D01*
G01X0026980Y-013220D02*
G01X0029580Y-013220D01*
G01X0029580Y-013220D02*
G01X0029580Y-012420D01*
G01X0029580Y-012420D02*
G01X0026980Y-012420D01*
G01X0026980Y-012420D02*
G01X0026980Y-012820D01*
G01X0029580Y-013020D02*
G01X0029380Y-013220D01*
G01X0033980Y-024670D02*
G01X0033980Y-024870D01*
G01X0033980Y-027670D02*
G01X0033980Y-027470D01*
G01X0033980Y-027470D02*
G01X0034380Y-027470D01*
G01X0034380Y-027470D02*
G01X0034380Y-024870D01*
G01X0034380Y-024870D02*
G01X0033580Y-024870D01*
G01X0033580Y-024870D02*
G01X0033580Y-027470D01*
G01X0033580Y-027470D02*
G01X0033980Y-027470D01*
G01X0034180Y-024870D02*
G01X0034380Y-025070D01*
G01X0035230Y-027020D02*
G01X0035230Y-026820D01*
G01X0035230Y-024020D02*
G01X0035230Y-024220D01*
G01X0035230Y-024220D02*
G01X0034830Y-024220D01*
G01X0034830Y-024220D02*
G01X0034830Y-026820D01*
G01X0034830Y-026820D02*
G01X0035630Y-026820D01*
G01X0035630Y-026820D02*
G01X0035630Y-024220D01*
G01X0035630Y-024220D02*
G01X0035230Y-024220D01*
G01X0035030Y-026820D02*
G01X0034830Y-026620D01*
G01X0038280Y-027020D02*
G01X0038280Y-026820D01*
G01X0038280Y-024020D02*
G01X0038280Y-024220D01*
G01X0038280Y-024220D02*
G01X0037880Y-024220D01*
G01X0037880Y-024220D02*
G01X0037880Y-026820D01*
G01X0037880Y-026820D02*
G01X0038680Y-026820D01*
G01X0038680Y-026820D02*
G01X0038680Y-024220D01*
G01X0038680Y-024220D02*
G01X0038280Y-024220D01*
G01X0038080Y-026820D02*
G01X0037880Y-026620D01*
G01X0041980Y-015320D02*
G01X0042180Y-015320D01*
G01X0044980Y-015320D02*
G01X0044780Y-015320D01*
G01X0044780Y-015320D02*
G01X0044780Y-014920D01*
G01X0044780Y-014920D02*
G01X0042180Y-014920D01*
G01X0042180Y-014920D02*
G01X0042180Y-015720D01*
G01X0042180Y-015720D02*
G01X0044780Y-015720D01*
G01X0044780Y-015720D02*
G01X0044780Y-015320D01*
G01X0042180Y-015120D02*
G01X0042380Y-014920D01*
G01X0036280Y-027020D02*
G01X0036280Y-026820D01*
G01X0036280Y-024020D02*
G01X0036280Y-024220D01*
G01X0036280Y-024220D02*
G01X0035880Y-024220D01*
G01X0035880Y-024220D02*
G01X0035880Y-026820D01*
G01X0035880Y-026820D02*
G01X0036680Y-026820D01*
G01X0036680Y-026820D02*
G01X0036680Y-024220D01*
G01X0036680Y-024220D02*
G01X0036280Y-024220D01*
G01X0036080Y-026820D02*
G01X0035880Y-026620D01*
G54D20*
G01X0039880Y-027420D02*
G01X0038880Y-027420D01*
G01X0038880Y-027420D02*
G01X0038880Y-024420D01*
G01X0038880Y-024420D02*
G01X0039880Y-024420D01*
G01X0039880Y-024420D02*
G01X0039880Y-027420D01*
G01X0038880Y-026420D02*
G01X0039880Y-026420D01*
G01X0040880Y-027420D02*
G01X0039880Y-027420D01*
G01X0039880Y-027420D02*
G01X0039880Y-024420D01*
G01X0039880Y-024420D02*
G01X0040880Y-024420D01*
G01X0040880Y-024420D02*
G01X0040880Y-027420D01*
G01X0039880Y-026420D02*
G01X0040880Y-026420D01*
G01X0030680Y-013820D02*
G01X0030680Y-014820D01*
G01X0030680Y-014820D02*
G01X0028680Y-014820D01*
G01X0028680Y-014820D02*
G01X0028680Y-013820D01*
G01X0028680Y-013820D02*
G01X0030680Y-013820D01*
G01X0031530Y-010670D02*
G01X0032530Y-010670D01*
G01X0032530Y-010670D02*
G01X0032530Y-013670D01*
G01X0032530Y-013670D02*
G01X0031530Y-013670D01*
G01X0031530Y-013670D02*
G01X0031530Y-010670D01*
G01X0032530Y-011670D02*
G01X0031530Y-011670D01*
G01X0032530Y-010670D02*
G01X0033530Y-010670D01*
G01X0033530Y-010670D02*
G01X0033530Y-013670D01*
G01X0033530Y-013670D02*
G01X0032530Y-013670D01*
G01X0032530Y-013670D02*
G01X0032530Y-010670D01*
G01X0033530Y-011670D02*
G01X0032530Y-011670D01*
G01X0033530Y-010670D02*
G01X0034530Y-010670D01*
G01X0034530Y-010670D02*
G01X0034530Y-013670D01*
G01X0034530Y-013670D02*
G01X0033530Y-013670D01*
G01X0033530Y-013670D02*
G01X0033530Y-010670D01*
G01X0034530Y-011670D02*
G01X0033530Y-011670D01*
G01X0034530Y-010670D02*
G01X0035530Y-010670D01*
G01X0035530Y-010670D02*
G01X0035530Y-013670D01*
G01X0035530Y-013670D02*
G01X0034530Y-013670D01*
G01X0034530Y-013670D02*
G01X0034530Y-010670D01*
G01X0035530Y-011670D02*
G01X0034530Y-011670D01*
G01X0035530Y-010670D02*
G01X0036530Y-010670D01*
G01X0036530Y-010670D02*
G01X0036530Y-013670D01*
G01X0036530Y-013670D02*
G01X0035530Y-013670D01*
G01X0035530Y-013670D02*
G01X0035530Y-010670D01*
G01X0036530Y-011670D02*
G01X0035530Y-011670D01*
G01X0041880Y-027420D02*
G01X0040880Y-027420D01*
G01X0040880Y-027420D02*
G01X0040880Y-024420D01*
G01X0040880Y-024420D02*
G01X0041880Y-024420D01*
G01X0041880Y-024420D02*
G01X0041880Y-027420D01*
G01X0040880Y-026420D02*
G01X0041880Y-026420D01*
G01X0042880Y-027420D02*
G01X0041880Y-027420D01*
G01X0041880Y-027420D02*
G01X0041880Y-024420D01*
G01X0041880Y-024420D02*
G01X0042880Y-024420D01*
G01X0042880Y-024420D02*
G01X0042880Y-027420D01*
G01X0041880Y-026420D02*
G01X0042880Y-026420D01*
G54D21*
G01X0045780Y-011270D02*
G01X0049780Y-011270D01*
G01X0045780Y-012270D02*
G01X0049780Y-012270D01*
G01X0049780Y-012270D02*
G01X0049780Y-011270D01*
G01X0045780Y-011270D02*
G01X0045780Y-012270D01*
G54D19*
G01X0050430Y-012170D02*
G01X0050430Y-011970D01*
G01X0050430Y-009170D02*
G01X0050430Y-009370D01*
G01X0050430Y-009370D02*
G01X0050030Y-009370D01*
G01X0050030Y-009370D02*
G01X0050030Y-011970D01*
G01X0050030Y-011970D02*
G01X0050830Y-011970D01*
G01X0050830Y-011970D02*
G01X0050830Y-009370D01*
G01X0050830Y-009370D02*
G01X0050430Y-009370D01*
G01X0050230Y-011970D02*
G01X0050030Y-011770D01*
G01X0049280Y-010670D02*
G01X0049080Y-010670D01*
G01X0046280Y-010670D02*
G01X0046480Y-010670D01*
G01X0046480Y-010670D02*
G01X0046480Y-011070D01*
G01X0046480Y-011070D02*
G01X0049080Y-011070D01*
G01X0049080Y-011070D02*
G01X0049080Y-010270D01*
G01X0049080Y-010270D02*
G01X0046480Y-010270D01*
G01X0046480Y-010270D02*
G01X0046480Y-010670D01*
G01X0049080Y-010870D02*
G01X0048880Y-011070D01*
G54D20*
G01X0036530Y-010670D02*
G01X0037530Y-010670D01*
G01X0037530Y-010670D02*
G01X0037530Y-013670D01*
G01X0037530Y-013670D02*
G01X0036530Y-013670D01*
G01X0036530Y-013670D02*
G01X0036530Y-010670D01*
G01X0037530Y-011670D02*
G01X0036530Y-011670D01*
G01X0037530Y-010670D02*
G01X0038530Y-010670D01*
G01X0038530Y-010670D02*
G01X0038530Y-013670D01*
G01X0038530Y-013670D02*
G01X0037530Y-013670D01*
G01X0037530Y-013670D02*
G01X0037530Y-010670D01*
G01X0038530Y-011670D02*
G01X0037530Y-011670D01*
G01X0038530Y-010670D02*
G01X0039530Y-010670D01*
G01X0039530Y-010670D02*
G01X0039530Y-013670D01*
G01X0039530Y-013670D02*
G01X0038530Y-013670D01*
G01X0038530Y-013670D02*
G01X0038530Y-010670D01*
G01X0039530Y-011670D02*
G01X0038530Y-011670D01*
G01X0039530Y-010670D02*
G01X0040530Y-010670D01*
G01X0040530Y-010670D02*
G01X0040530Y-013670D01*
G01X0040530Y-013670D02*
G01X0039530Y-013670D01*
G01X0039530Y-013670D02*
G01X0039530Y-010670D01*
G01X0040530Y-011670D02*
G01X0039530Y-011670D01*
G54D22*
G01X0048430Y-024920D02*
G75*
G03X0048430Y-024920I-001250J0000000D01*
G54D18*
G01X0030680Y-020320D02*
G75*
G03X0030680Y-020320I-001600J0000000D01*
G54D22*
G01X0022780Y-026570D02*
G75*
G03X0022780Y-026570I-001000J0000000D01*
G01X0020280Y-028070D02*
G01X0020280Y-025070D01*
G01X0020280Y-025070D02*
G01X0023280Y-025070D01*
G01X0023280Y-025070D02*
G01X0023280Y-028070D01*
G01X0020280Y-028070D02*
G01X0023280Y-028070D01*
G01X0023430Y-014270D02*
G75*
G03X0023430Y-014270I-001000J0000000D01*
G01X0020930Y-015770D02*
G01X0020930Y-012770D01*
G01X0020930Y-012770D02*
G01X0023930Y-012770D01*
G01X0023930Y-012770D02*
G01X0023930Y-015770D01*
G01X0020930Y-015770D02*
G01X0023930Y-015770D01*
G54D18*
G01X0027380Y-020320D02*
G75*
G03X0027380Y-020320I-001600J0000000D01*
G54D12*
G01X0023954Y-021876D02*
G01X0020805Y-021876D01*
G01X0023954Y-021876D02*
G01X0023954Y-022663D01*
G01X0023954Y-022663D02*
G01X0020805Y-022663D01*
G01X0020805Y-022663D02*
G01X0020805Y-021876D01*
G01X0026130Y-012470D02*
G75*
G03X0026130Y-012470I-001000J0000000D01*
G01X0032930Y-022270D02*
G01X0032930Y-024970D01*
G01X0032930Y-028570D02*
G01X0032930Y-026170D01*
G01X0029780Y-026170D02*
G01X0029780Y-028570D01*
G01X0029780Y-022270D02*
G01X0029780Y-024970D01*
G01X0032930Y-022270D02*
G01X0029780Y-022270D01*
G01X0029780Y-028570D02*
G01X0032930Y-028570D01*
G54D22*
G01X0045630Y-011520D02*
G75*
G03X0045630Y-011520I-001250J0000000D01*
G54D19*
G01X0049280Y-015870D02*
G01X0049080Y-015870D01*
G01X0046280Y-015870D02*
G01X0046480Y-015870D01*
G01X0046480Y-015870D02*
G01X0046480Y-016270D01*
G01X0046480Y-016270D02*
G01X0049080Y-016270D01*
G01X0049080Y-016270D02*
G01X0049080Y-015470D01*
G01X0049080Y-015470D02*
G01X0046480Y-015470D01*
G01X0046480Y-015470D02*
G01X0046480Y-015870D01*
G01X0049080Y-016070D02*
G01X0048880Y-016270D01*
G01X0049280Y-016920D02*
G01X0049080Y-016920D01*
G01X0046280Y-016920D02*
G01X0046480Y-016920D01*
G01X0046480Y-016920D02*
G01X0046480Y-017320D01*
G01X0046480Y-017320D02*
G01X0049080Y-017320D01*
G01X0049080Y-017320D02*
G01X0049080Y-016520D01*
G01X0049080Y-016520D02*
G01X0046480Y-016520D01*
G01X0046480Y-016520D02*
G01X0046480Y-016920D01*
G01X0049080Y-017120D02*
G01X0048880Y-017320D01*
G01X0046280Y-014820D02*
G01X0046480Y-014820D01*
G01X0049280Y-014820D02*
G01X0049080Y-014820D01*
G01X0049080Y-014820D02*
G01X0049080Y-014420D01*
G01X0049080Y-014420D02*
G01X0046480Y-014420D01*
G01X0046480Y-014420D02*
G01X0046480Y-015220D01*
G01X0046480Y-015220D02*
G01X0049080Y-015220D01*
G01X0049080Y-015220D02*
G01X0049080Y-014820D01*
G01X0046480Y-014620D02*
G01X0046680Y-014420D01*
G01X0027880Y-014320D02*
G01X0027680Y-014320D01*
G01X0024880Y-014320D02*
G01X0025080Y-014320D01*
G01X0025080Y-014320D02*
G01X0025080Y-014720D01*
G01X0025080Y-014720D02*
G01X0027680Y-014720D01*
G01X0027680Y-014720D02*
G01X0027680Y-013920D01*
G01X0027680Y-013920D02*
G01X0025080Y-013920D01*
G01X0025080Y-013920D02*
G01X0025080Y-014320D01*
G01X0027680Y-014520D02*
G01X0027480Y-014720D01*
G54D23*
G01X0028930Y-027220D02*
G01X0025430Y-027220D01*
G01X0025430Y-027220D02*
G01X0025430Y-027770D01*
G01X0028930Y-027770D02*
G01X0025430Y-027770D01*
G01X0028930Y-027220D02*
G01X0028930Y-027770D01*
G01X0026030Y-024870D02*
G01X0025630Y-024870D01*
G01X0025630Y-024870D02*
G01X0025630Y-025870D01*
G01X0026030Y-025870D02*
G01X0025630Y-025870D01*
G01X0026030Y-024870D02*
G01X0026030Y-025870D01*
G01X0026030Y-024420D02*
G01X0025630Y-024420D01*
G01X0025630Y-024420D02*
G01X0025630Y-024870D01*
G01X0026030Y-024870D02*
G01X0025630Y-024870D01*
G01X0026030Y-024420D02*
G01X0026030Y-024870D01*
G01X0027380Y-024420D02*
G01X0026980Y-024420D01*
G01X0026980Y-024420D02*
G01X0026980Y-024870D01*
G01X0027380Y-024870D02*
G01X0026980Y-024870D01*
G01X0027380Y-024420D02*
G01X0027380Y-024870D01*
G01X0028730Y-024420D02*
G01X0028330Y-024420D01*
G01X0028330Y-024420D02*
G01X0028330Y-024870D01*
G01X0028730Y-024870D02*
G01X0028330Y-024870D01*
G01X0028730Y-024420D02*
G01X0028730Y-024870D01*
G01X0027380Y-024870D02*
G01X0026980Y-024870D01*
G01X0026980Y-024870D02*
G01X0026980Y-025870D01*
G01X0027380Y-025870D02*
G01X0026980Y-025870D01*
G01X0027380Y-024870D02*
G01X0027380Y-025870D01*
G01X0028730Y-024870D02*
G01X0028330Y-024870D01*
G01X0028330Y-024870D02*
G01X0028330Y-025870D01*
G01X0028730Y-025870D02*
G01X0028330Y-025870D01*
G01X0028730Y-024870D02*
G01X0028730Y-025870D01*
G54D24*
G01X0025130Y-027770D02*
G01X0029230Y-027770D01*
G01X0025130Y-027770D02*
G01X0025130Y-027220D01*
G01X0029230Y-027770D02*
G01X0029230Y-027220D01*
G01X0025180Y-026620D02*
G01X0029180Y-026620D01*
G01X0029230Y-027220D02*
G01X0025130Y-027220D01*
G01X0029230Y-027220D02*
G01X0029130Y-025870D01*
G01X0025130Y-027220D02*
G01X0025230Y-025870D01*
G01X0026930Y-025870D02*
G01X0027430Y-025870D01*
G01X0025230Y-025870D02*
G01X0026030Y-025870D01*
G54D20*
G01X0026030Y-025870D02*
G01X0026930Y-025870D01*
G54D24*
G01X0029130Y-025870D02*
G01X0028330Y-025870D01*
G54D20*
G01X0028330Y-025870D02*
G01X0027430Y-025870D01*
G54D24*
G01X0050230Y-012966D02*
G01X0051175Y-013911D01*
G01X0051175Y-013911D02*
G01X0051175Y-021628D01*
G01X0051175Y-021628D02*
G01X0050230Y-022573D01*
G01X0042244Y-012970D02*
G01X0042244Y-022570D01*
G01X0042244Y-022570D02*
G01X0050230Y-022570D01*
G01X0050230Y-012970D02*
G01X0042244Y-012970D01*
G54D22*
G01X0042244Y-012970D02*
G01X0042244Y-022570D01*
G01X0042244Y-022570D02*
G01X0050230Y-022570D01*
G01X0050230Y-012970D02*
G01X0042244Y-012970D01*
G54D20*
G01X0034419Y-021166D02*
G01X0035126Y-020459D01*
G01X0035126Y-020459D02*
G01X0036540Y-021873D01*
G01X0036540Y-021873D02*
G01X0035833Y-022580D01*
G01X0035833Y-022580D02*
G01X0034419Y-021166D01*
G01X0040326Y-022580D02*
G01X0039619Y-021873D01*
G01X0039619Y-021873D02*
G01X0041033Y-020459D01*
G01X0041033Y-020459D02*
G01X0041740Y-021166D01*
G01X0041740Y-021166D02*
G01X0040326Y-022580D01*
G01X0039619Y-015966D02*
G01X0040326Y-015259D01*
G01X0040326Y-015259D02*
G01X0041740Y-016673D01*
G01X0041740Y-016673D02*
G01X0041033Y-017380D01*
G01X0041033Y-017380D02*
G01X0039619Y-015966D01*
G01X0035833Y-015259D02*
G01X0036540Y-015966D01*
G01X0036540Y-015966D02*
G01X0035126Y-017380D01*
G01X0035126Y-017380D02*
G01X0034419Y-016673D01*
G01X0034419Y-016673D02*
G01X0035833Y-015259D01*
G54D12*
G01X0038980Y-018920D02*
G75*
G03X0038980Y-018920I-000900J0000000D01*
G54D22*
G01X0033480Y-016120D02*
G75*
G03X0033480Y-016120I-001250J0000000D01*
G54D19*
G01X0050940Y-022766D02*
G01X0048819Y-022766D01*
G01X0048819Y-022766D02*
G01X0048465Y-023120D01*
G01X0048465Y-023120D02*
G01X0048465Y-023827D01*
G01X0048465Y-023827D02*
G01X0049172Y-024534D01*
G01X0049172Y-024534D02*
G01X0050587Y-024534D01*
G01X0050587Y-024534D02*
G01X0051294Y-023827D01*
G01X0051294Y-023827D02*
G01X0051294Y-023120D01*
G01X0051294Y-023120D02*
G01X0050940Y-022766D01*
G01X0047780Y-023120D02*
G01X0047580Y-023120D01*
G01X0044780Y-023120D02*
G01X0044980Y-023120D01*
G01X0044980Y-023120D02*
G01X0044980Y-023520D01*
G01X0044980Y-023520D02*
G01X0047580Y-023520D01*
G01X0047580Y-023520D02*
G01X0047580Y-022720D01*
G01X0047580Y-022720D02*
G01X0044980Y-022720D01*
G01X0044980Y-022720D02*
G01X0044980Y-023120D01*
G01X0047580Y-023320D02*
G01X0047380Y-023520D01*
G01X0040780Y-023720D02*
G01X0040980Y-023720D01*
G01X0043780Y-023720D02*
G01X0043580Y-023720D01*
G01X0043580Y-023720D02*
G01X0043580Y-023320D01*
G01X0043580Y-023320D02*
G01X0040980Y-023320D01*
G01X0040980Y-023320D02*
G01X0040980Y-024120D01*
G01X0040980Y-024120D02*
G01X0043580Y-024120D01*
G01X0043580Y-024120D02*
G01X0043580Y-023720D01*
G01X0040980Y-023520D02*
G01X0041180Y-023320D01*
G01X0043280Y-018020D02*
G01X0043480Y-018020D01*
G01X0046280Y-018020D02*
G01X0046080Y-018020D01*
G01X0046080Y-018020D02*
G01X0046080Y-017620D01*
G01X0046080Y-017620D02*
G01X0043480Y-017620D01*
G01X0043480Y-017620D02*
G01X0043480Y-018420D01*
G01X0043480Y-018420D02*
G01X0046080Y-018420D01*
G01X0046080Y-018420D02*
G01X0046080Y-018020D01*
G01X0043480Y-017820D02*
G01X0043680Y-017620D01*
G54D21*
G01X0047980Y-027420D02*
G01X0043980Y-027420D01*
G01X0047980Y-026420D02*
G01X0043980Y-026420D01*
G01X0043980Y-026420D02*
G01X0043980Y-027420D01*
G01X0047980Y-027420D02*
G01X0047980Y-026420D01*
G54D20*
G01X0050980Y-025720D02*
G01X0050980Y-026720D01*
G01X0050980Y-026720D02*
G01X0048980Y-026720D01*
G01X0048980Y-026720D02*
G01X0048980Y-025720D01*
G01X0048980Y-025720D02*
G01X0050980Y-025720D01*
G01X0048980Y-027720D02*
G01X0048980Y-026720D01*
G01X0048980Y-026720D02*
G01X0050980Y-026720D01*
G01X0050980Y-026720D02*
G01X0050980Y-027720D01*
G01X0050980Y-027720D02*
G01X0048980Y-027720D01*
G01X0049980Y-025720D02*
G01X0048980Y-025720D01*
G01X0048980Y-024720D02*
G01X0049980Y-024720D01*
G01X0048980Y-025720D02*
G01X0048980Y-024720D01*
G01X0049980Y-024720D02*
G01X0049980Y-025720D01*
G54D21*
G01X0027034Y-022881D02*
G01X0027034Y-022481D01*
G01X0027034Y-022481D02*
G01X0027130Y-022481D01*
G01X0027130Y-022481D02*
G01X0027187Y-022500D01*
G01X0027187Y-022500D02*
G01X0027225Y-022539D01*
G01X0027225Y-022539D02*
G01X0027244Y-022577D01*
G01X0027244Y-022577D02*
G01X0027263Y-022653D01*
G01X0027263Y-022653D02*
G01X0027263Y-022710D01*
G01X0027263Y-022710D02*
G01X0027244Y-022786D01*
G01X0027244Y-022786D02*
G01X0027225Y-022824D01*
G01X0027225Y-022824D02*
G01X0027187Y-022862D01*
G01X0027187Y-022862D02*
G01X0027130Y-022881D01*
G01X0027130Y-022881D02*
G01X0027034Y-022881D01*
G01X0027644Y-022881D02*
G01X0027415Y-022881D01*
G01X0027530Y-022881D02*
G01X0027530Y-022481D01*
G01X0027530Y-022481D02*
G01X0027491Y-022539D01*
G01X0027491Y-022539D02*
G01X0027453Y-022577D01*
G01X0027453Y-022577D02*
G01X0027415Y-022596D01*
G54D17*
G01X0026729Y-022111D02*
G01X0026571Y-022111D01*
G01X0026650Y-022111D02*
G01X0026650Y-021835D01*
G01X0026650Y-021835D02*
G01X0026624Y-021875D01*
G01X0026624Y-021875D02*
G01X0026598Y-021901D01*
G01X0026598Y-021901D02*
G01X0026571Y-021914D01*
G01X0026847Y-022111D02*
G01X0026847Y-021835D01*
G01X0026847Y-021835D02*
G01X0027005Y-022111D01*
G01X0027005Y-022111D02*
G01X0027005Y-021835D01*
G01X0027267Y-021835D02*
G01X0027136Y-021835D01*
G01X0027136Y-021835D02*
G01X0027123Y-021967D01*
G01X0027123Y-021967D02*
G01X0027136Y-021954D01*
G01X0027136Y-021954D02*
G01X0027162Y-021940D01*
G01X0027162Y-021940D02*
G01X0027228Y-021940D01*
G01X0027228Y-021940D02*
G01X0027254Y-021954D01*
G01X0027254Y-021954D02*
G01X0027267Y-021967D01*
G01X0027267Y-021967D02*
G01X0027280Y-021993D01*
G01X0027280Y-021993D02*
G01X0027280Y-022059D01*
G01X0027280Y-022059D02*
G01X0027267Y-022085D01*
G01X0027267Y-022085D02*
G01X0027254Y-022098D01*
G01X0027254Y-022098D02*
G01X0027228Y-022111D01*
G01X0027228Y-022111D02*
G01X0027162Y-022111D01*
G01X0027162Y-022111D02*
G01X0027136Y-022098D01*
G01X0027136Y-022098D02*
G01X0027123Y-022085D01*
G01X0027438Y-021954D02*
G01X0027411Y-021940D01*
G01X0027411Y-021940D02*
G01X0027398Y-021927D01*
G01X0027398Y-021927D02*
G01X0027385Y-021901D01*
G01X0027385Y-021901D02*
G01X0027385Y-021888D01*
G01X0027385Y-021888D02*
G01X0027398Y-021862D01*
G01X0027398Y-021862D02*
G01X0027411Y-021849D01*
G01X0027411Y-021849D02*
G01X0027438Y-021835D01*
G01X0027438Y-021835D02*
G01X0027490Y-021835D01*
G01X0027490Y-021835D02*
G01X0027516Y-021849D01*
G01X0027516Y-021849D02*
G01X0027529Y-021862D01*
G01X0027529Y-021862D02*
G01X0027543Y-021888D01*
G01X0027543Y-021888D02*
G01X0027543Y-021901D01*
G01X0027543Y-021901D02*
G01X0027529Y-021927D01*
G01X0027529Y-021927D02*
G01X0027516Y-021940D01*
G01X0027516Y-021940D02*
G01X0027490Y-021954D01*
G01X0027490Y-021954D02*
G01X0027438Y-021954D01*
G01X0027438Y-021954D02*
G01X0027411Y-021967D01*
G01X0027411Y-021967D02*
G01X0027398Y-021980D01*
G01X0027398Y-021980D02*
G01X0027385Y-022006D01*
G01X0027385Y-022006D02*
G01X0027385Y-022059D01*
G01X0027385Y-022059D02*
G01X0027398Y-022085D01*
G01X0027398Y-022085D02*
G01X0027411Y-022098D01*
G01X0027411Y-022098D02*
G01X0027438Y-022111D01*
G01X0027438Y-022111D02*
G01X0027490Y-022111D01*
G01X0027490Y-022111D02*
G01X0027516Y-022098D01*
G01X0027516Y-022098D02*
G01X0027529Y-022085D01*
G01X0027529Y-022085D02*
G01X0027543Y-022059D01*
G01X0027543Y-022059D02*
G01X0027543Y-022006D01*
G01X0027543Y-022006D02*
G01X0027529Y-021980D01*
G01X0027529Y-021980D02*
G01X0027516Y-021967D01*
G01X0027516Y-021967D02*
G01X0027490Y-021954D01*
G01X0027648Y-021862D02*
G01X0027661Y-021849D01*
G01X0027661Y-021849D02*
G01X0027687Y-021835D01*
G01X0027687Y-021835D02*
G01X0027753Y-021835D01*
G01X0027753Y-021835D02*
G01X0027779Y-021849D01*
G01X0027779Y-021849D02*
G01X0027792Y-021862D01*
G01X0027792Y-021862D02*
G01X0027805Y-021888D01*
G01X0027805Y-021888D02*
G01X0027805Y-021914D01*
G01X0027805Y-021914D02*
G01X0027792Y-021954D01*
G01X0027792Y-021954D02*
G01X0027634Y-022111D01*
G01X0027634Y-022111D02*
G01X0027805Y-022111D01*
G01X0027910Y-021862D02*
G01X0027923Y-021849D01*
G01X0027923Y-021849D02*
G01X0027949Y-021835D01*
G01X0027949Y-021835D02*
G01X0028015Y-021835D01*
G01X0028015Y-021835D02*
G01X0028041Y-021849D01*
G01X0028041Y-021849D02*
G01X0028054Y-021862D01*
G01X0028054Y-021862D02*
G01X0028068Y-021888D01*
G01X0028068Y-021888D02*
G01X0028068Y-021914D01*
G01X0028068Y-021914D02*
G01X0028054Y-021954D01*
G01X0028054Y-021954D02*
G01X0027897Y-022111D01*
G01X0027897Y-022111D02*
G01X0028068Y-022111D01*
G54D19*
G01X0021722Y-020762D02*
G01X0021122Y-020762D01*
G01X0021122Y-020762D02*
G01X0021122Y-020534D01*
G01X0021122Y-020534D02*
G01X0021151Y-020477D01*
G01X0021151Y-020477D02*
G01X0021180Y-020448D01*
G01X0021180Y-020448D02*
G01X0021237Y-020420D01*
G01X0021237Y-020420D02*
G01X0021322Y-020420D01*
G01X0021322Y-020420D02*
G01X0021380Y-020448D01*
G01X0021380Y-020448D02*
G01X0021408Y-020477D01*
G01X0021408Y-020477D02*
G01X0021437Y-020534D01*
G01X0021437Y-020534D02*
G01X0021437Y-020762D01*
G01X0021722Y-019848D02*
G01X0021722Y-020191D01*
G01X0021722Y-020020D02*
G01X0021122Y-020020D01*
G01X0021122Y-020020D02*
G01X0021208Y-020077D01*
G01X0021208Y-020077D02*
G01X0021265Y-020134D01*
G01X0021265Y-020134D02*
G01X0021294Y-020191D01*
G54D18*
G01X0032296Y-021792D02*
G01X0032130Y-021530D01*
G01X0032010Y-021792D02*
G01X0032010Y-021242D01*
G01X0032010Y-021242D02*
G01X0032201Y-021242D01*
G01X0032201Y-021242D02*
G01X0032249Y-021268D01*
G01X0032249Y-021268D02*
G01X0032272Y-021295D01*
G01X0032272Y-021295D02*
G01X0032296Y-021347D01*
G01X0032296Y-021347D02*
G01X0032296Y-021425D01*
G01X0032296Y-021425D02*
G01X0032272Y-021478D01*
G01X0032272Y-021478D02*
G01X0032249Y-021504D01*
G01X0032249Y-021504D02*
G01X0032201Y-021530D01*
G01X0032201Y-021530D02*
G01X0032010Y-021530D01*
G01X0032772Y-021792D02*
G01X0032487Y-021792D01*
G01X0032630Y-021792D02*
G01X0032630Y-021242D01*
G01X0032630Y-021242D02*
G01X0032582Y-021321D01*
G01X0032582Y-021321D02*
G01X0032534Y-021373D01*
G01X0032534Y-021373D02*
G01X0032487Y-021399D01*
G01X0028196Y-010942D02*
G01X0028030Y-010680D01*
G01X0027910Y-010942D02*
G01X0027910Y-010392D01*
G01X0027910Y-010392D02*
G01X0028101Y-010392D01*
G01X0028101Y-010392D02*
G01X0028149Y-010418D01*
G01X0028149Y-010418D02*
G01X0028172Y-010445D01*
G01X0028172Y-010445D02*
G01X0028196Y-010497D01*
G01X0028196Y-010497D02*
G01X0028196Y-010575D01*
G01X0028196Y-010575D02*
G01X0028172Y-010628D01*
G01X0028172Y-010628D02*
G01X0028149Y-010654D01*
G01X0028149Y-010654D02*
G01X0028101Y-010680D01*
G01X0028101Y-010680D02*
G01X0027910Y-010680D01*
G01X0028387Y-010445D02*
G01X0028410Y-010418D01*
G01X0028410Y-010418D02*
G01X0028458Y-010392D01*
G01X0028458Y-010392D02*
G01X0028577Y-010392D01*
G01X0028577Y-010392D02*
G01X0028625Y-010418D01*
G01X0028625Y-010418D02*
G01X0028649Y-010445D01*
G01X0028649Y-010445D02*
G01X0028672Y-010497D01*
G01X0028672Y-010497D02*
G01X0028672Y-010549D01*
G01X0028672Y-010549D02*
G01X0028649Y-010628D01*
G01X0028649Y-010628D02*
G01X0028363Y-010942D01*
G01X0028363Y-010942D02*
G01X0028672Y-010942D01*
G01X0028196Y-011992D02*
G01X0028030Y-011730D01*
G01X0027910Y-011992D02*
G01X0027910Y-011442D01*
G01X0027910Y-011442D02*
G01X0028101Y-011442D01*
G01X0028101Y-011442D02*
G01X0028149Y-011468D01*
G01X0028149Y-011468D02*
G01X0028172Y-011495D01*
G01X0028172Y-011495D02*
G01X0028196Y-011547D01*
G01X0028196Y-011547D02*
G01X0028196Y-011625D01*
G01X0028196Y-011625D02*
G01X0028172Y-011678D01*
G01X0028172Y-011678D02*
G01X0028149Y-011704D01*
G01X0028149Y-011704D02*
G01X0028101Y-011730D01*
G01X0028101Y-011730D02*
G01X0027910Y-011730D01*
G01X0028363Y-011442D02*
G01X0028672Y-011442D01*
G01X0028672Y-011442D02*
G01X0028506Y-011652D01*
G01X0028506Y-011652D02*
G01X0028577Y-011652D01*
G01X0028577Y-011652D02*
G01X0028625Y-011678D01*
G01X0028625Y-011678D02*
G01X0028649Y-011704D01*
G01X0028649Y-011704D02*
G01X0028672Y-011756D01*
G01X0028672Y-011756D02*
G01X0028672Y-011887D01*
G01X0028672Y-011887D02*
G01X0028649Y-011940D01*
G01X0028649Y-011940D02*
G01X0028625Y-011966D01*
G01X0028625Y-011966D02*
G01X0028577Y-011992D01*
G01X0028577Y-011992D02*
G01X0028434Y-011992D01*
G01X0028434Y-011992D02*
G01X0028387Y-011966D01*
G01X0028387Y-011966D02*
G01X0028363Y-011940D01*
G01X0028196Y-013042D02*
G01X0028030Y-012780D01*
G01X0027910Y-013042D02*
G01X0027910Y-012492D01*
G01X0027910Y-012492D02*
G01X0028101Y-012492D01*
G01X0028101Y-012492D02*
G01X0028149Y-012518D01*
G01X0028149Y-012518D02*
G01X0028172Y-012545D01*
G01X0028172Y-012545D02*
G01X0028196Y-012597D01*
G01X0028196Y-012597D02*
G01X0028196Y-012675D01*
G01X0028196Y-012675D02*
G01X0028172Y-012728D01*
G01X0028172Y-012728D02*
G01X0028149Y-012754D01*
G01X0028149Y-012754D02*
G01X0028101Y-012780D01*
G01X0028101Y-012780D02*
G01X0027910Y-012780D01*
G01X0028625Y-012675D02*
G01X0028625Y-013042D01*
G01X0028506Y-012466D02*
G01X0028387Y-012859D01*
G01X0028387Y-012859D02*
G01X0028696Y-012859D01*
G01X0034202Y-026253D02*
G01X0033940Y-026420D01*
G01X0034202Y-026539D02*
G01X0033652Y-026539D01*
G01X0033652Y-026539D02*
G01X0033652Y-026348D01*
G01X0033652Y-026348D02*
G01X0033678Y-026300D01*
G01X0033678Y-026300D02*
G01X0033705Y-026277D01*
G01X0033705Y-026277D02*
G01X0033757Y-026253D01*
G01X0033757Y-026253D02*
G01X0033835Y-026253D01*
G01X0033835Y-026253D02*
G01X0033888Y-026277D01*
G01X0033888Y-026277D02*
G01X0033914Y-026300D01*
G01X0033914Y-026300D02*
G01X0033940Y-026348D01*
G01X0033940Y-026348D02*
G01X0033940Y-026539D01*
G01X0033652Y-025800D02*
G01X0033652Y-026039D01*
G01X0033652Y-026039D02*
G01X0033914Y-026062D01*
G01X0033914Y-026062D02*
G01X0033888Y-026039D01*
G01X0033888Y-026039D02*
G01X0033862Y-025991D01*
G01X0033862Y-025991D02*
G01X0033862Y-025872D01*
G01X0033862Y-025872D02*
G01X0033888Y-025824D01*
G01X0033888Y-025824D02*
G01X0033914Y-025800D01*
G01X0033914Y-025800D02*
G01X0033966Y-025777D01*
G01X0033966Y-025777D02*
G01X0034097Y-025777D01*
G01X0034097Y-025777D02*
G01X0034150Y-025800D01*
G01X0034150Y-025800D02*
G01X0034176Y-025824D01*
G01X0034176Y-025824D02*
G01X0034202Y-025872D01*
G01X0034202Y-025872D02*
G01X0034202Y-025991D01*
G01X0034202Y-025991D02*
G01X0034176Y-026039D01*
G01X0034176Y-026039D02*
G01X0034150Y-026062D01*
G01X0035452Y-025603D02*
G01X0035190Y-025770D01*
G01X0035452Y-025889D02*
G01X0034902Y-025889D01*
G01X0034902Y-025889D02*
G01X0034902Y-025698D01*
G01X0034902Y-025698D02*
G01X0034928Y-025650D01*
G01X0034928Y-025650D02*
G01X0034955Y-025627D01*
G01X0034955Y-025627D02*
G01X0035007Y-025603D01*
G01X0035007Y-025603D02*
G01X0035085Y-025603D01*
G01X0035085Y-025603D02*
G01X0035138Y-025627D01*
G01X0035138Y-025627D02*
G01X0035164Y-025650D01*
G01X0035164Y-025650D02*
G01X0035190Y-025698D01*
G01X0035190Y-025698D02*
G01X0035190Y-025889D01*
G01X0034902Y-025174D02*
G01X0034902Y-025270D01*
G01X0034902Y-025270D02*
G01X0034928Y-025317D01*
G01X0034928Y-025317D02*
G01X0034955Y-025341D01*
G01X0034955Y-025341D02*
G01X0035033Y-025389D01*
G01X0035033Y-025389D02*
G01X0035138Y-025412D01*
G01X0035138Y-025412D02*
G01X0035347Y-025412D01*
G01X0035347Y-025412D02*
G01X0035400Y-025389D01*
G01X0035400Y-025389D02*
G01X0035426Y-025365D01*
G01X0035426Y-025365D02*
G01X0035452Y-025317D01*
G01X0035452Y-025317D02*
G01X0035452Y-025222D01*
G01X0035452Y-025222D02*
G01X0035426Y-025174D01*
G01X0035426Y-025174D02*
G01X0035400Y-025150D01*
G01X0035400Y-025150D02*
G01X0035347Y-025127D01*
G01X0035347Y-025127D02*
G01X0035216Y-025127D01*
G01X0035216Y-025127D02*
G01X0035164Y-025150D01*
G01X0035164Y-025150D02*
G01X0035138Y-025174D01*
G01X0035138Y-025174D02*
G01X0035112Y-025222D01*
G01X0035112Y-025222D02*
G01X0035112Y-025317D01*
G01X0035112Y-025317D02*
G01X0035138Y-025365D01*
G01X0035138Y-025365D02*
G01X0035164Y-025389D01*
G01X0035164Y-025389D02*
G01X0035216Y-025412D01*
G01X0038502Y-025603D02*
G01X0038240Y-025770D01*
G01X0038502Y-025889D02*
G01X0037952Y-025889D01*
G01X0037952Y-025889D02*
G01X0037952Y-025698D01*
G01X0037952Y-025698D02*
G01X0037978Y-025650D01*
G01X0037978Y-025650D02*
G01X0038005Y-025627D01*
G01X0038005Y-025627D02*
G01X0038057Y-025603D01*
G01X0038057Y-025603D02*
G01X0038135Y-025603D01*
G01X0038135Y-025603D02*
G01X0038188Y-025627D01*
G01X0038188Y-025627D02*
G01X0038214Y-025650D01*
G01X0038214Y-025650D02*
G01X0038240Y-025698D01*
G01X0038240Y-025698D02*
G01X0038240Y-025889D01*
G01X0037952Y-025436D02*
G01X0037952Y-025103D01*
G01X0037952Y-025103D02*
G01X0038502Y-025317D01*
G01X0043396Y-015542D02*
G01X0043230Y-015280D01*
G01X0043110Y-015542D02*
G01X0043110Y-014992D01*
G01X0043110Y-014992D02*
G01X0043301Y-014992D01*
G01X0043301Y-014992D02*
G01X0043349Y-015018D01*
G01X0043349Y-015018D02*
G01X0043372Y-015045D01*
G01X0043372Y-015045D02*
G01X0043396Y-015097D01*
G01X0043396Y-015097D02*
G01X0043396Y-015175D01*
G01X0043396Y-015175D02*
G01X0043372Y-015228D01*
G01X0043372Y-015228D02*
G01X0043349Y-015254D01*
G01X0043349Y-015254D02*
G01X0043301Y-015280D01*
G01X0043301Y-015280D02*
G01X0043110Y-015280D01*
G01X0043682Y-015228D02*
G01X0043634Y-015202D01*
G01X0043634Y-015202D02*
G01X0043610Y-015175D01*
G01X0043610Y-015175D02*
G01X0043587Y-015123D01*
G01X0043587Y-015123D02*
G01X0043587Y-015097D01*
G01X0043587Y-015097D02*
G01X0043610Y-015045D01*
G01X0043610Y-015045D02*
G01X0043634Y-015018D01*
G01X0043634Y-015018D02*
G01X0043682Y-014992D01*
G01X0043682Y-014992D02*
G01X0043777Y-014992D01*
G01X0043777Y-014992D02*
G01X0043825Y-015018D01*
G01X0043825Y-015018D02*
G01X0043849Y-015045D01*
G01X0043849Y-015045D02*
G01X0043872Y-015097D01*
G01X0043872Y-015097D02*
G01X0043872Y-015123D01*
G01X0043872Y-015123D02*
G01X0043849Y-015175D01*
G01X0043849Y-015175D02*
G01X0043825Y-015202D01*
G01X0043825Y-015202D02*
G01X0043777Y-015228D01*
G01X0043777Y-015228D02*
G01X0043682Y-015228D01*
G01X0043682Y-015228D02*
G01X0043634Y-015254D01*
G01X0043634Y-015254D02*
G01X0043610Y-015280D01*
G01X0043610Y-015280D02*
G01X0043587Y-015333D01*
G01X0043587Y-015333D02*
G01X0043587Y-015437D01*
G01X0043587Y-015437D02*
G01X0043610Y-015490D01*
G01X0043610Y-015490D02*
G01X0043634Y-015516D01*
G01X0043634Y-015516D02*
G01X0043682Y-015542D01*
G01X0043682Y-015542D02*
G01X0043777Y-015542D01*
G01X0043777Y-015542D02*
G01X0043825Y-015516D01*
G01X0043825Y-015516D02*
G01X0043849Y-015490D01*
G01X0043849Y-015490D02*
G01X0043872Y-015437D01*
G01X0043872Y-015437D02*
G01X0043872Y-015333D01*
G01X0043872Y-015333D02*
G01X0043849Y-015280D01*
G01X0043849Y-015280D02*
G01X0043825Y-015254D01*
G01X0043825Y-015254D02*
G01X0043777Y-015228D01*
G01X0036502Y-025603D02*
G01X0036240Y-025770D01*
G01X0036502Y-025889D02*
G01X0035952Y-025889D01*
G01X0035952Y-025889D02*
G01X0035952Y-025698D01*
G01X0035952Y-025698D02*
G01X0035978Y-025650D01*
G01X0035978Y-025650D02*
G01X0036005Y-025627D01*
G01X0036005Y-025627D02*
G01X0036057Y-025603D01*
G01X0036057Y-025603D02*
G01X0036135Y-025603D01*
G01X0036135Y-025603D02*
G01X0036188Y-025627D01*
G01X0036188Y-025627D02*
G01X0036214Y-025650D01*
G01X0036214Y-025650D02*
G01X0036240Y-025698D01*
G01X0036240Y-025698D02*
G01X0036240Y-025889D01*
G01X0036502Y-025365D02*
G01X0036502Y-025270D01*
G01X0036502Y-025270D02*
G01X0036476Y-025222D01*
G01X0036476Y-025222D02*
G01X0036450Y-025198D01*
G01X0036450Y-025198D02*
G01X0036371Y-025150D01*
G01X0036371Y-025150D02*
G01X0036266Y-025127D01*
G01X0036266Y-025127D02*
G01X0036057Y-025127D01*
G01X0036057Y-025127D02*
G01X0036005Y-025150D01*
G01X0036005Y-025150D02*
G01X0035978Y-025174D01*
G01X0035978Y-025174D02*
G01X0035952Y-025222D01*
G01X0035952Y-025222D02*
G01X0035952Y-025317D01*
G01X0035952Y-025317D02*
G01X0035978Y-025365D01*
G01X0035978Y-025365D02*
G01X0036005Y-025389D01*
G01X0036005Y-025389D02*
G01X0036057Y-025412D01*
G01X0036057Y-025412D02*
G01X0036188Y-025412D01*
G01X0036188Y-025412D02*
G01X0036240Y-025389D01*
G01X0036240Y-025389D02*
G01X0036266Y-025365D01*
G01X0036266Y-025365D02*
G01X0036293Y-025317D01*
G01X0036293Y-025317D02*
G01X0036293Y-025222D01*
G01X0036293Y-025222D02*
G01X0036266Y-025174D01*
G01X0036266Y-025174D02*
G01X0036240Y-025150D01*
G01X0036240Y-025150D02*
G01X0036188Y-025127D01*
G54D11*
G01X0029044Y-015584D02*
G01X0029130Y-015612D01*
G01X0029130Y-015612D02*
G01X0029272Y-015612D01*
G01X0029272Y-015612D02*
G01X0029330Y-015584D01*
G01X0029330Y-015584D02*
G01X0029358Y-015555D01*
G01X0029358Y-015555D02*
G01X0029387Y-015498D01*
G01X0029387Y-015498D02*
G01X0029387Y-015441D01*
G01X0029387Y-015441D02*
G01X0029358Y-015384D01*
G01X0029358Y-015384D02*
G01X0029330Y-015355D01*
G01X0029330Y-015355D02*
G01X0029272Y-015327D01*
G01X0029272Y-015327D02*
G01X0029158Y-015298D01*
G01X0029158Y-015298D02*
G01X0029101Y-015270D01*
G01X0029101Y-015270D02*
G01X0029072Y-015241D01*
G01X0029072Y-015241D02*
G01X0029044Y-015184D01*
G01X0029044Y-015184D02*
G01X0029044Y-015127D01*
G01X0029044Y-015127D02*
G01X0029072Y-015070D01*
G01X0029072Y-015070D02*
G01X0029101Y-015041D01*
G01X0029101Y-015041D02*
G01X0029158Y-015012D01*
G01X0029158Y-015012D02*
G01X0029301Y-015012D01*
G01X0029301Y-015012D02*
G01X0029387Y-015041D01*
G01X0029644Y-015212D02*
G01X0029644Y-015812D01*
G01X0029644Y-015241D02*
G01X0029701Y-015212D01*
G01X0029701Y-015212D02*
G01X0029815Y-015212D01*
G01X0029815Y-015212D02*
G01X0029872Y-015241D01*
G01X0029872Y-015241D02*
G01X0029901Y-015270D01*
G01X0029901Y-015270D02*
G01X0029930Y-015327D01*
G01X0029930Y-015327D02*
G01X0029930Y-015498D01*
G01X0029930Y-015498D02*
G01X0029901Y-015555D01*
G01X0029901Y-015555D02*
G01X0029872Y-015584D01*
G01X0029872Y-015584D02*
G01X0029815Y-015612D01*
G01X0029815Y-015612D02*
G01X0029701Y-015612D01*
G01X0029701Y-015612D02*
G01X0029644Y-015584D01*
G01X0030187Y-015612D02*
G01X0030187Y-015012D01*
G01X0030244Y-015384D02*
G01X0030415Y-015612D01*
G01X0030415Y-015212D02*
G01X0030187Y-015441D01*
G54D18*
G01X0050652Y-010991D02*
G01X0050390Y-011158D01*
G01X0050652Y-011277D02*
G01X0050102Y-011277D01*
G01X0050102Y-011277D02*
G01X0050102Y-011086D01*
G01X0050102Y-011086D02*
G01X0050128Y-011039D01*
G01X0050128Y-011039D02*
G01X0050155Y-011015D01*
G01X0050155Y-011015D02*
G01X0050207Y-010991D01*
G01X0050207Y-010991D02*
G01X0050285Y-010991D01*
G01X0050285Y-010991D02*
G01X0050338Y-011015D01*
G01X0050338Y-011015D02*
G01X0050364Y-011039D01*
G01X0050364Y-011039D02*
G01X0050390Y-011086D01*
G01X0050390Y-011086D02*
G01X0050390Y-011277D01*
G01X0050652Y-010515D02*
G01X0050652Y-010800D01*
G01X0050652Y-010658D02*
G01X0050102Y-010658D01*
G01X0050102Y-010658D02*
G01X0050181Y-010705D01*
G01X0050181Y-010705D02*
G01X0050233Y-010753D01*
G01X0050233Y-010753D02*
G01X0050259Y-010800D01*
G01X0050102Y-010205D02*
G01X0050102Y-010158D01*
G01X0050102Y-010158D02*
G01X0050128Y-010110D01*
G01X0050128Y-010110D02*
G01X0050155Y-010086D01*
G01X0050155Y-010086D02*
G01X0050207Y-010062D01*
G01X0050207Y-010062D02*
G01X0050312Y-010039D01*
G01X0050312Y-010039D02*
G01X0050443Y-010039D01*
G01X0050443Y-010039D02*
G01X0050547Y-010062D01*
G01X0050547Y-010062D02*
G01X0050600Y-010086D01*
G01X0050600Y-010086D02*
G01X0050626Y-010110D01*
G01X0050626Y-010110D02*
G01X0050652Y-010158D01*
G01X0050652Y-010158D02*
G01X0050652Y-010205D01*
G01X0050652Y-010205D02*
G01X0050626Y-010253D01*
G01X0050626Y-010253D02*
G01X0050600Y-010277D01*
G01X0050600Y-010277D02*
G01X0050547Y-010300D01*
G01X0050547Y-010300D02*
G01X0050443Y-010324D01*
G01X0050443Y-010324D02*
G01X0050312Y-010324D01*
G01X0050312Y-010324D02*
G01X0050207Y-010300D01*
G01X0050207Y-010300D02*
G01X0050155Y-010277D01*
G01X0050155Y-010277D02*
G01X0050128Y-010253D01*
G01X0050128Y-010253D02*
G01X0050102Y-010205D01*
G01X0047458Y-010892D02*
G01X0047291Y-010630D01*
G01X0047172Y-010892D02*
G01X0047172Y-010342D01*
G01X0047172Y-010342D02*
G01X0047363Y-010342D01*
G01X0047363Y-010342D02*
G01X0047410Y-010368D01*
G01X0047410Y-010368D02*
G01X0047434Y-010395D01*
G01X0047434Y-010395D02*
G01X0047458Y-010447D01*
G01X0047458Y-010447D02*
G01X0047458Y-010525D01*
G01X0047458Y-010525D02*
G01X0047434Y-010578D01*
G01X0047434Y-010578D02*
G01X0047410Y-010604D01*
G01X0047410Y-010604D02*
G01X0047363Y-010630D01*
G01X0047363Y-010630D02*
G01X0047172Y-010630D01*
G01X0047934Y-010892D02*
G01X0047649Y-010892D01*
G01X0047791Y-010892D02*
G01X0047791Y-010342D01*
G01X0047791Y-010342D02*
G01X0047744Y-010421D01*
G01X0047744Y-010421D02*
G01X0047696Y-010473D01*
G01X0047696Y-010473D02*
G01X0047649Y-010499D01*
G01X0048410Y-010892D02*
G01X0048125Y-010892D01*
G01X0048268Y-010892D02*
G01X0048268Y-010342D01*
G01X0048268Y-010342D02*
G01X0048220Y-010421D01*
G01X0048220Y-010421D02*
G01X0048172Y-010473D01*
G01X0048172Y-010473D02*
G01X0048125Y-010499D01*
G01X0048219Y-024978D02*
G01X0048240Y-024995D01*
G01X0048240Y-024995D02*
G01X0048262Y-025045D01*
G01X0048262Y-025045D02*
G01X0048262Y-025078D01*
G01X0048262Y-025078D02*
G01X0048240Y-025128D01*
G01X0048240Y-025128D02*
G01X0048197Y-025161D01*
G01X0048197Y-025161D02*
G01X0048155Y-025178D01*
G01X0048155Y-025178D02*
G01X0048069Y-025195D01*
G01X0048069Y-025195D02*
G01X0048005Y-025195D01*
G01X0048005Y-025195D02*
G01X0047919Y-025178D01*
G01X0047919Y-025178D02*
G01X0047876Y-025161D01*
G01X0047876Y-025161D02*
G01X0047833Y-025128D01*
G01X0047833Y-025128D02*
G01X0047812Y-025078D01*
G01X0047812Y-025078D02*
G01X0047812Y-025045D01*
G01X0047812Y-025045D02*
G01X0047833Y-024995D01*
G01X0047833Y-024995D02*
G01X0047855Y-024978D01*
G01X0047812Y-024861D02*
G01X0047812Y-024645D01*
G01X0047812Y-024645D02*
G01X0047983Y-024761D01*
G01X0047983Y-024761D02*
G01X0047983Y-024711D01*
G01X0047983Y-024711D02*
G01X0048005Y-024678D01*
G01X0048005Y-024678D02*
G01X0048026Y-024661D01*
G01X0048026Y-024661D02*
G01X0048069Y-024645D01*
G01X0048069Y-024645D02*
G01X0048176Y-024645D01*
G01X0048176Y-024645D02*
G01X0048219Y-024661D01*
G01X0048219Y-024661D02*
G01X0048240Y-024678D01*
G01X0048240Y-024678D02*
G01X0048262Y-024711D01*
G01X0048262Y-024711D02*
G01X0048262Y-024811D01*
G01X0048262Y-024811D02*
G01X0048240Y-024845D01*
G01X0048240Y-024845D02*
G01X0048219Y-024861D01*
G01X0046662Y-025461D02*
G01X0046662Y-025661D01*
G01X0046662Y-025561D02*
G01X0046212Y-025561D01*
G01X0046212Y-025561D02*
G01X0046276Y-025595D01*
G01X0046276Y-025595D02*
G01X0046319Y-025628D01*
G01X0046319Y-025628D02*
G01X0046340Y-025661D01*
G01X0046212Y-025245D02*
G01X0046212Y-025211D01*
G01X0046212Y-025211D02*
G01X0046233Y-025178D01*
G01X0046233Y-025178D02*
G01X0046255Y-025161D01*
G01X0046255Y-025161D02*
G01X0046297Y-025145D01*
G01X0046297Y-025145D02*
G01X0046383Y-025128D01*
G01X0046383Y-025128D02*
G01X0046490Y-025128D01*
G01X0046490Y-025128D02*
G01X0046576Y-025145D01*
G01X0046576Y-025145D02*
G01X0046619Y-025161D01*
G01X0046619Y-025161D02*
G01X0046640Y-025178D01*
G01X0046640Y-025178D02*
G01X0046662Y-025211D01*
G01X0046662Y-025211D02*
G01X0046662Y-025245D01*
G01X0046662Y-025245D02*
G01X0046640Y-025278D01*
G01X0046640Y-025278D02*
G01X0046619Y-025295D01*
G01X0046619Y-025295D02*
G01X0046576Y-025311D01*
G01X0046576Y-025311D02*
G01X0046490Y-025328D01*
G01X0046490Y-025328D02*
G01X0046383Y-025328D01*
G01X0046383Y-025328D02*
G01X0046297Y-025311D01*
G01X0046297Y-025311D02*
G01X0046255Y-025295D01*
G01X0046255Y-025295D02*
G01X0046233Y-025278D01*
G01X0046233Y-025278D02*
G01X0046212Y-025245D01*
G01X0046212Y-024911D02*
G01X0046212Y-024878D01*
G01X0046212Y-024878D02*
G01X0046233Y-024845D01*
G01X0046233Y-024845D02*
G01X0046255Y-024828D01*
G01X0046255Y-024828D02*
G01X0046297Y-024811D01*
G01X0046297Y-024811D02*
G01X0046383Y-024795D01*
G01X0046383Y-024795D02*
G01X0046490Y-024795D01*
G01X0046490Y-024795D02*
G01X0046576Y-024811D01*
G01X0046576Y-024811D02*
G01X0046619Y-024828D01*
G01X0046619Y-024828D02*
G01X0046640Y-024845D01*
G01X0046640Y-024845D02*
G01X0046662Y-024878D01*
G01X0046662Y-024878D02*
G01X0046662Y-024911D01*
G01X0046662Y-024911D02*
G01X0046640Y-024945D01*
G01X0046640Y-024945D02*
G01X0046619Y-024961D01*
G01X0046619Y-024961D02*
G01X0046576Y-024978D01*
G01X0046576Y-024978D02*
G01X0046490Y-024995D01*
G01X0046490Y-024995D02*
G01X0046383Y-024995D01*
G01X0046383Y-024995D02*
G01X0046297Y-024978D01*
G01X0046297Y-024978D02*
G01X0046255Y-024961D01*
G01X0046255Y-024961D02*
G01X0046233Y-024945D01*
G01X0046233Y-024945D02*
G01X0046212Y-024911D01*
G01X0046362Y-024494D02*
G01X0046662Y-024494D01*
G01X0046362Y-024644D02*
G01X0046597Y-024644D01*
G01X0046597Y-024644D02*
G01X0046640Y-024628D01*
G01X0046640Y-024628D02*
G01X0046662Y-024594D01*
G01X0046662Y-024594D02*
G01X0046662Y-024544D01*
G01X0046662Y-024544D02*
G01X0046640Y-024511D01*
G01X0046640Y-024511D02*
G01X0046619Y-024494D01*
G01X0046426Y-024211D02*
G01X0046426Y-024328D01*
G01X0046662Y-024328D02*
G01X0046212Y-024328D01*
G01X0046212Y-024328D02*
G01X0046212Y-024161D01*
G54D25*
G01X0047190Y-024091D02*
G01X0047190Y-023748D01*
G01X0047362Y-023920D02*
G01X0047019Y-023920D01*
G54D18*
G01X0030003Y-020378D02*
G01X0030022Y-020395D01*
G01X0030022Y-020395D02*
G01X0030041Y-020445D01*
G01X0030041Y-020445D02*
G01X0030041Y-020478D01*
G01X0030041Y-020478D02*
G01X0030022Y-020528D01*
G01X0030022Y-020528D02*
G01X0029984Y-020561D01*
G01X0029984Y-020561D02*
G01X0029946Y-020578D01*
G01X0029946Y-020578D02*
G01X0029870Y-020595D01*
G01X0029870Y-020595D02*
G01X0029813Y-020595D01*
G01X0029813Y-020595D02*
G01X0029737Y-020578D01*
G01X0029737Y-020578D02*
G01X0029699Y-020561D01*
G01X0029699Y-020561D02*
G01X0029660Y-020528D01*
G01X0029660Y-020528D02*
G01X0029641Y-020478D01*
G01X0029641Y-020478D02*
G01X0029641Y-020445D01*
G01X0029641Y-020445D02*
G01X0029660Y-020395D01*
G01X0029660Y-020395D02*
G01X0029680Y-020378D01*
G01X0029680Y-020245D02*
G01X0029660Y-020228D01*
G01X0029660Y-020228D02*
G01X0029641Y-020195D01*
G01X0029641Y-020195D02*
G01X0029641Y-020111D01*
G01X0029641Y-020111D02*
G01X0029660Y-020078D01*
G01X0029660Y-020078D02*
G01X0029680Y-020061D01*
G01X0029680Y-020061D02*
G01X0029718Y-020045D01*
G01X0029718Y-020045D02*
G01X0029756Y-020045D01*
G01X0029756Y-020045D02*
G01X0029813Y-020061D01*
G01X0029813Y-020061D02*
G01X0030041Y-020261D01*
G01X0030041Y-020261D02*
G01X0030041Y-020045D01*
G01X0028542Y-021028D02*
G01X0028542Y-021228D01*
G01X0028542Y-021128D02*
G01X0028142Y-021128D01*
G01X0028142Y-021128D02*
G01X0028200Y-021161D01*
G01X0028200Y-021161D02*
G01X0028238Y-021195D01*
G01X0028238Y-021195D02*
G01X0028257Y-021228D01*
G01X0028142Y-020811D02*
G01X0028142Y-020778D01*
G01X0028142Y-020778D02*
G01X0028161Y-020745D01*
G01X0028161Y-020745D02*
G01X0028181Y-020728D01*
G01X0028181Y-020728D02*
G01X0028219Y-020711D01*
G01X0028219Y-020711D02*
G01X0028295Y-020695D01*
G01X0028295Y-020695D02*
G01X0028390Y-020695D01*
G01X0028390Y-020695D02*
G01X0028466Y-020711D01*
G01X0028466Y-020711D02*
G01X0028504Y-020728D01*
G01X0028504Y-020728D02*
G01X0028523Y-020745D01*
G01X0028523Y-020745D02*
G01X0028542Y-020778D01*
G01X0028542Y-020778D02*
G01X0028542Y-020811D01*
G01X0028542Y-020811D02*
G01X0028523Y-020845D01*
G01X0028523Y-020845D02*
G01X0028504Y-020861D01*
G01X0028504Y-020861D02*
G01X0028466Y-020878D01*
G01X0028466Y-020878D02*
G01X0028390Y-020895D01*
G01X0028390Y-020895D02*
G01X0028295Y-020895D01*
G01X0028295Y-020895D02*
G01X0028219Y-020878D01*
G01X0028219Y-020878D02*
G01X0028181Y-020861D01*
G01X0028181Y-020861D02*
G01X0028161Y-020845D01*
G01X0028161Y-020845D02*
G01X0028142Y-020811D01*
G01X0028142Y-020478D02*
G01X0028142Y-020444D01*
G01X0028142Y-020444D02*
G01X0028161Y-020411D01*
G01X0028161Y-020411D02*
G01X0028181Y-020394D01*
G01X0028181Y-020394D02*
G01X0028219Y-020378D01*
G01X0028219Y-020378D02*
G01X0028295Y-020361D01*
G01X0028295Y-020361D02*
G01X0028390Y-020361D01*
G01X0028390Y-020361D02*
G01X0028466Y-020378D01*
G01X0028466Y-020378D02*
G01X0028504Y-020394D01*
G01X0028504Y-020394D02*
G01X0028523Y-020411D01*
G01X0028523Y-020411D02*
G01X0028542Y-020444D01*
G01X0028542Y-020444D02*
G01X0028542Y-020478D01*
G01X0028542Y-020478D02*
G01X0028523Y-020511D01*
G01X0028523Y-020511D02*
G01X0028504Y-020528D01*
G01X0028504Y-020528D02*
G01X0028466Y-020544D01*
G01X0028466Y-020544D02*
G01X0028390Y-020561D01*
G01X0028390Y-020561D02*
G01X0028295Y-020561D01*
G01X0028295Y-020561D02*
G01X0028219Y-020544D01*
G01X0028219Y-020544D02*
G01X0028181Y-020528D01*
G01X0028181Y-020528D02*
G01X0028161Y-020511D01*
G01X0028161Y-020511D02*
G01X0028142Y-020478D01*
G01X0028142Y-020144D02*
G01X0028142Y-020111D01*
G01X0028142Y-020111D02*
G01X0028161Y-020078D01*
G01X0028161Y-020078D02*
G01X0028181Y-020061D01*
G01X0028181Y-020061D02*
G01X0028219Y-020044D01*
G01X0028219Y-020044D02*
G01X0028295Y-020028D01*
G01X0028295Y-020028D02*
G01X0028390Y-020028D01*
G01X0028390Y-020028D02*
G01X0028466Y-020044D01*
G01X0028466Y-020044D02*
G01X0028504Y-020061D01*
G01X0028504Y-020061D02*
G01X0028523Y-020078D01*
G01X0028523Y-020078D02*
G01X0028542Y-020111D01*
G01X0028542Y-020111D02*
G01X0028542Y-020144D01*
G01X0028542Y-020144D02*
G01X0028523Y-020178D01*
G01X0028523Y-020178D02*
G01X0028504Y-020194D01*
G01X0028504Y-020194D02*
G01X0028466Y-020211D01*
G01X0028466Y-020211D02*
G01X0028390Y-020228D01*
G01X0028390Y-020228D02*
G01X0028295Y-020228D01*
G01X0028295Y-020228D02*
G01X0028219Y-020211D01*
G01X0028219Y-020211D02*
G01X0028181Y-020194D01*
G01X0028181Y-020194D02*
G01X0028161Y-020178D01*
G01X0028161Y-020178D02*
G01X0028142Y-020144D01*
G01X0028276Y-019728D02*
G01X0028542Y-019728D01*
G01X0028276Y-019878D02*
G01X0028485Y-019878D01*
G01X0028485Y-019878D02*
G01X0028523Y-019861D01*
G01X0028523Y-019861D02*
G01X0028542Y-019828D01*
G01X0028542Y-019828D02*
G01X0028542Y-019778D01*
G01X0028542Y-019778D02*
G01X0028523Y-019744D01*
G01X0028523Y-019744D02*
G01X0028504Y-019728D01*
G01X0028333Y-019444D02*
G01X0028333Y-019561D01*
G01X0028542Y-019561D02*
G01X0028142Y-019561D01*
G01X0028142Y-019561D02*
G01X0028142Y-019394D01*
G01X0029094Y-021747D02*
G01X0029094Y-021290D01*
G01X0029322Y-021518D02*
G01X0028865Y-021518D01*
G01X0021622Y-027103D02*
G01X0021641Y-027046D01*
G01X0021641Y-027046D02*
G01X0021641Y-026950D01*
G01X0021641Y-026950D02*
G01X0021622Y-026912D01*
G01X0021622Y-026912D02*
G01X0021603Y-026893D01*
G01X0021603Y-026893D02*
G01X0021565Y-026874D01*
G01X0021565Y-026874D02*
G01X0021527Y-026874D01*
G01X0021527Y-026874D02*
G01X0021489Y-026893D01*
G01X0021489Y-026893D02*
G01X0021470Y-026912D01*
G01X0021470Y-026912D02*
G01X0021451Y-026950D01*
G01X0021451Y-026950D02*
G01X0021432Y-027027D01*
G01X0021432Y-027027D02*
G01X0021413Y-027065D01*
G01X0021413Y-027065D02*
G01X0021394Y-027084D01*
G01X0021394Y-027084D02*
G01X0021356Y-027103D01*
G01X0021356Y-027103D02*
G01X0021318Y-027103D01*
G01X0021318Y-027103D02*
G01X0021280Y-027084D01*
G01X0021280Y-027084D02*
G01X0021260Y-027065D01*
G01X0021260Y-027065D02*
G01X0021241Y-027027D01*
G01X0021241Y-027027D02*
G01X0021241Y-026931D01*
G01X0021241Y-026931D02*
G01X0021260Y-026874D01*
G01X0021241Y-026741D02*
G01X0021641Y-026646D01*
G01X0021641Y-026646D02*
G01X0021356Y-026570D01*
G01X0021356Y-026570D02*
G01X0021641Y-026493D01*
G01X0021641Y-026493D02*
G01X0021241Y-026398D01*
G01X0021241Y-026284D02*
G01X0021241Y-026036D01*
G01X0021241Y-026036D02*
G01X0021394Y-026169D01*
G01X0021394Y-026169D02*
G01X0021394Y-026112D01*
G01X0021394Y-026112D02*
G01X0021413Y-026074D01*
G01X0021413Y-026074D02*
G01X0021432Y-026055D01*
G01X0021432Y-026055D02*
G01X0021470Y-026036D01*
G01X0021470Y-026036D02*
G01X0021565Y-026036D01*
G01X0021565Y-026036D02*
G01X0021603Y-026055D01*
G01X0021603Y-026055D02*
G01X0021622Y-026074D01*
G01X0021622Y-026074D02*
G01X0021641Y-026112D01*
G01X0021641Y-026112D02*
G01X0021641Y-026227D01*
G01X0021641Y-026227D02*
G01X0021622Y-026265D01*
G01X0021622Y-026265D02*
G01X0021603Y-026284D01*
G01X0022272Y-014803D02*
G01X0022291Y-014746D01*
G01X0022291Y-014746D02*
G01X0022291Y-014650D01*
G01X0022291Y-014650D02*
G01X0022272Y-014612D01*
G01X0022272Y-014612D02*
G01X0022253Y-014593D01*
G01X0022253Y-014593D02*
G01X0022215Y-014574D01*
G01X0022215Y-014574D02*
G01X0022177Y-014574D01*
G01X0022177Y-014574D02*
G01X0022139Y-014593D01*
G01X0022139Y-014593D02*
G01X0022120Y-014612D01*
G01X0022120Y-014612D02*
G01X0022101Y-014650D01*
G01X0022101Y-014650D02*
G01X0022082Y-014727D01*
G01X0022082Y-014727D02*
G01X0022063Y-014765D01*
G01X0022063Y-014765D02*
G01X0022044Y-014784D01*
G01X0022044Y-014784D02*
G01X0022006Y-014803D01*
G01X0022006Y-014803D02*
G01X0021968Y-014803D01*
G01X0021968Y-014803D02*
G01X0021930Y-014784D01*
G01X0021930Y-014784D02*
G01X0021910Y-014765D01*
G01X0021910Y-014765D02*
G01X0021891Y-014727D01*
G01X0021891Y-014727D02*
G01X0021891Y-014631D01*
G01X0021891Y-014631D02*
G01X0021910Y-014574D01*
G01X0021891Y-014441D02*
G01X0022291Y-014346D01*
G01X0022291Y-014346D02*
G01X0022006Y-014270D01*
G01X0022006Y-014270D02*
G01X0022291Y-014193D01*
G01X0022291Y-014193D02*
G01X0021891Y-014098D01*
G01X0021930Y-013965D02*
G01X0021910Y-013946D01*
G01X0021910Y-013946D02*
G01X0021891Y-013908D01*
G01X0021891Y-013908D02*
G01X0021891Y-013812D01*
G01X0021891Y-013812D02*
G01X0021910Y-013774D01*
G01X0021910Y-013774D02*
G01X0021930Y-013755D01*
G01X0021930Y-013755D02*
G01X0021968Y-013736D01*
G01X0021968Y-013736D02*
G01X0022006Y-013736D01*
G01X0022006Y-013736D02*
G01X0022063Y-013755D01*
G01X0022063Y-013755D02*
G01X0022291Y-013984D01*
G01X0022291Y-013984D02*
G01X0022291Y-013736D01*
G01X0026703Y-020378D02*
G01X0026722Y-020395D01*
G01X0026722Y-020395D02*
G01X0026741Y-020445D01*
G01X0026741Y-020445D02*
G01X0026741Y-020478D01*
G01X0026741Y-020478D02*
G01X0026722Y-020528D01*
G01X0026722Y-020528D02*
G01X0026684Y-020561D01*
G01X0026684Y-020561D02*
G01X0026646Y-020578D01*
G01X0026646Y-020578D02*
G01X0026570Y-020595D01*
G01X0026570Y-020595D02*
G01X0026513Y-020595D01*
G01X0026513Y-020595D02*
G01X0026437Y-020578D01*
G01X0026437Y-020578D02*
G01X0026399Y-020561D01*
G01X0026399Y-020561D02*
G01X0026360Y-020528D01*
G01X0026360Y-020528D02*
G01X0026341Y-020478D01*
G01X0026341Y-020478D02*
G01X0026341Y-020445D01*
G01X0026341Y-020445D02*
G01X0026360Y-020395D01*
G01X0026360Y-020395D02*
G01X0026380Y-020378D01*
G01X0026741Y-020045D02*
G01X0026741Y-020245D01*
G01X0026741Y-020145D02*
G01X0026341Y-020145D01*
G01X0026341Y-020145D02*
G01X0026399Y-020178D01*
G01X0026399Y-020178D02*
G01X0026437Y-020211D01*
G01X0026437Y-020211D02*
G01X0026456Y-020245D01*
G01X0025242Y-020861D02*
G01X0025242Y-021061D01*
G01X0025242Y-020961D02*
G01X0024842Y-020961D01*
G01X0024842Y-020961D02*
G01X0024900Y-020995D01*
G01X0024900Y-020995D02*
G01X0024938Y-021028D01*
G01X0024938Y-021028D02*
G01X0024957Y-021061D01*
G01X0024842Y-020645D02*
G01X0024842Y-020611D01*
G01X0024842Y-020611D02*
G01X0024861Y-020578D01*
G01X0024861Y-020578D02*
G01X0024881Y-020561D01*
G01X0024881Y-020561D02*
G01X0024919Y-020545D01*
G01X0024919Y-020545D02*
G01X0024995Y-020528D01*
G01X0024995Y-020528D02*
G01X0025090Y-020528D01*
G01X0025090Y-020528D02*
G01X0025166Y-020545D01*
G01X0025166Y-020545D02*
G01X0025204Y-020561D01*
G01X0025204Y-020561D02*
G01X0025223Y-020578D01*
G01X0025223Y-020578D02*
G01X0025242Y-020611D01*
G01X0025242Y-020611D02*
G01X0025242Y-020645D01*
G01X0025242Y-020645D02*
G01X0025223Y-020678D01*
G01X0025223Y-020678D02*
G01X0025204Y-020695D01*
G01X0025204Y-020695D02*
G01X0025166Y-020711D01*
G01X0025166Y-020711D02*
G01X0025090Y-020728D01*
G01X0025090Y-020728D02*
G01X0024995Y-020728D01*
G01X0024995Y-020728D02*
G01X0024919Y-020711D01*
G01X0024919Y-020711D02*
G01X0024881Y-020695D01*
G01X0024881Y-020695D02*
G01X0024861Y-020678D01*
G01X0024861Y-020678D02*
G01X0024842Y-020645D01*
G01X0024842Y-020311D02*
G01X0024842Y-020278D01*
G01X0024842Y-020278D02*
G01X0024861Y-020245D01*
G01X0024861Y-020245D02*
G01X0024881Y-020228D01*
G01X0024881Y-020228D02*
G01X0024919Y-020211D01*
G01X0024919Y-020211D02*
G01X0024995Y-020195D01*
G01X0024995Y-020195D02*
G01X0025090Y-020195D01*
G01X0025090Y-020195D02*
G01X0025166Y-020211D01*
G01X0025166Y-020211D02*
G01X0025204Y-020228D01*
G01X0025204Y-020228D02*
G01X0025223Y-020245D01*
G01X0025223Y-020245D02*
G01X0025242Y-020278D01*
G01X0025242Y-020278D02*
G01X0025242Y-020311D01*
G01X0025242Y-020311D02*
G01X0025223Y-020345D01*
G01X0025223Y-020345D02*
G01X0025204Y-020361D01*
G01X0025204Y-020361D02*
G01X0025166Y-020378D01*
G01X0025166Y-020378D02*
G01X0025090Y-020395D01*
G01X0025090Y-020395D02*
G01X0024995Y-020395D01*
G01X0024995Y-020395D02*
G01X0024919Y-020378D01*
G01X0024919Y-020378D02*
G01X0024881Y-020361D01*
G01X0024881Y-020361D02*
G01X0024861Y-020345D01*
G01X0024861Y-020345D02*
G01X0024842Y-020311D01*
G01X0024976Y-019894D02*
G01X0025242Y-019894D01*
G01X0024976Y-020044D02*
G01X0025185Y-020044D01*
G01X0025185Y-020044D02*
G01X0025223Y-020028D01*
G01X0025223Y-020028D02*
G01X0025242Y-019994D01*
G01X0025242Y-019994D02*
G01X0025242Y-019944D01*
G01X0025242Y-019944D02*
G01X0025223Y-019911D01*
G01X0025223Y-019911D02*
G01X0025204Y-019894D01*
G01X0025033Y-019611D02*
G01X0025033Y-019728D01*
G01X0025242Y-019728D02*
G01X0024842Y-019728D01*
G01X0024842Y-019728D02*
G01X0024842Y-019561D01*
G01X0025794Y-021747D02*
G01X0025794Y-021290D01*
G01X0026022Y-021518D02*
G01X0025565Y-021518D01*
G54D21*
G01X0021846Y-021642D02*
G01X0021903Y-021661D01*
G01X0021903Y-021661D02*
G01X0021999Y-021661D01*
G01X0021999Y-021661D02*
G01X0022037Y-021642D01*
G01X0022037Y-021642D02*
G01X0022056Y-021623D01*
G01X0022056Y-021623D02*
G01X0022075Y-021585D01*
G01X0022075Y-021585D02*
G01X0022075Y-021547D01*
G01X0022075Y-021547D02*
G01X0022056Y-021509D01*
G01X0022056Y-021509D02*
G01X0022037Y-021490D01*
G01X0022037Y-021490D02*
G01X0021999Y-021471D01*
G01X0021999Y-021471D02*
G01X0021922Y-021452D01*
G01X0021922Y-021452D02*
G01X0021884Y-021433D01*
G01X0021884Y-021433D02*
G01X0021865Y-021414D01*
G01X0021865Y-021414D02*
G01X0021846Y-021376D01*
G01X0021846Y-021376D02*
G01X0021846Y-021338D01*
G01X0021846Y-021338D02*
G01X0021865Y-021300D01*
G01X0021865Y-021300D02*
G01X0021884Y-021280D01*
G01X0021884Y-021280D02*
G01X0021922Y-021261D01*
G01X0021922Y-021261D02*
G01X0022018Y-021261D01*
G01X0022018Y-021261D02*
G01X0022075Y-021280D01*
G01X0022208Y-021261D02*
G01X0022303Y-021661D01*
G01X0022303Y-021661D02*
G01X0022380Y-021376D01*
G01X0022380Y-021376D02*
G01X0022456Y-021661D01*
G01X0022456Y-021661D02*
G01X0022551Y-021261D01*
G01X0022913Y-021661D02*
G01X0022684Y-021661D01*
G01X0022799Y-021661D02*
G01X0022799Y-021261D01*
G01X0022799Y-021261D02*
G01X0022760Y-021319D01*
G01X0022760Y-021319D02*
G01X0022722Y-021357D01*
G01X0022722Y-021357D02*
G01X0022684Y-021376D01*
G54D11*
G01X0024458Y-011212D02*
G01X0024172Y-011212D01*
G01X0024172Y-011212D02*
G01X0024172Y-010612D01*
G01X0024658Y-010898D02*
G01X0024858Y-010898D01*
G01X0024944Y-011212D02*
G01X0024658Y-011212D01*
G01X0024658Y-011212D02*
G01X0024658Y-010612D01*
G01X0024658Y-010612D02*
G01X0024944Y-010612D01*
G01X0025201Y-011212D02*
G01X0025201Y-010612D01*
G01X0025201Y-010612D02*
G01X0025344Y-010612D01*
G01X0025344Y-010612D02*
G01X0025430Y-010641D01*
G01X0025430Y-010641D02*
G01X0025487Y-010698D01*
G01X0025487Y-010698D02*
G01X0025515Y-010755D01*
G01X0025515Y-010755D02*
G01X0025544Y-010870D01*
G01X0025544Y-010870D02*
G01X0025544Y-010955D01*
G01X0025544Y-010955D02*
G01X0025515Y-011070D01*
G01X0025515Y-011070D02*
G01X0025487Y-011127D01*
G01X0025487Y-011127D02*
G01X0025430Y-011184D01*
G01X0025430Y-011184D02*
G01X0025344Y-011212D01*
G01X0025344Y-011212D02*
G01X0025201Y-011212D01*
G01X0026115Y-011212D02*
G01X0025772Y-011212D01*
G01X0025944Y-011212D02*
G01X0025944Y-010612D01*
G01X0025944Y-010612D02*
G01X0025887Y-010698D01*
G01X0025887Y-010698D02*
G01X0025830Y-010755D01*
G01X0025830Y-010755D02*
G01X0025772Y-010784D01*
G54D19*
G01X0030822Y-023270D02*
G01X0030822Y-023555D01*
G01X0030822Y-023555D02*
G01X0030222Y-023555D01*
G01X0030822Y-022755D02*
G01X0030822Y-023098D01*
G01X0030822Y-022927D02*
G01X0030222Y-022927D01*
G01X0030222Y-022927D02*
G01X0030308Y-022984D01*
G01X0030308Y-022984D02*
G01X0030365Y-023041D01*
G01X0030365Y-023041D02*
G01X0030394Y-023098D01*
G54D26*
G01X0031679Y-026530D02*
G01X0031679Y-026868D01*
G01X0031679Y-026699D02*
G01X0031088Y-026699D01*
G01X0031088Y-026699D02*
G01X0031172Y-026756D01*
G01X0031172Y-026756D02*
G01X0031228Y-026812D01*
G01X0031228Y-026812D02*
G01X0031257Y-026868D01*
G01X0031088Y-026165D02*
G01X0031088Y-026108D01*
G01X0031088Y-026108D02*
G01X0031116Y-026052D01*
G01X0031116Y-026052D02*
G01X0031144Y-026024D01*
G01X0031144Y-026024D02*
G01X0031200Y-025996D01*
G01X0031200Y-025996D02*
G01X0031313Y-025968D01*
G01X0031313Y-025968D02*
G01X0031454Y-025968D01*
G01X0031454Y-025968D02*
G01X0031566Y-025996D01*
G01X0031566Y-025996D02*
G01X0031622Y-026024D01*
G01X0031622Y-026024D02*
G01X0031651Y-026052D01*
G01X0031651Y-026052D02*
G01X0031679Y-026108D01*
G01X0031679Y-026108D02*
G01X0031679Y-026165D01*
G01X0031679Y-026165D02*
G01X0031651Y-026221D01*
G01X0031651Y-026221D02*
G01X0031622Y-026249D01*
G01X0031622Y-026249D02*
G01X0031566Y-026277D01*
G01X0031566Y-026277D02*
G01X0031454Y-026305D01*
G01X0031454Y-026305D02*
G01X0031313Y-026305D01*
G01X0031313Y-026305D02*
G01X0031200Y-026277D01*
G01X0031200Y-026277D02*
G01X0031144Y-026249D01*
G01X0031144Y-026249D02*
G01X0031116Y-026221D01*
G01X0031116Y-026221D02*
G01X0031088Y-026165D01*
G01X0031088Y-025602D02*
G01X0031088Y-025545D01*
G01X0031088Y-025545D02*
G01X0031116Y-025489D01*
G01X0031116Y-025489D02*
G01X0031144Y-025461D01*
G01X0031144Y-025461D02*
G01X0031200Y-025433D01*
G01X0031200Y-025433D02*
G01X0031313Y-025405D01*
G01X0031313Y-025405D02*
G01X0031454Y-025405D01*
G01X0031454Y-025405D02*
G01X0031566Y-025433D01*
G01X0031566Y-025433D02*
G01X0031622Y-025461D01*
G01X0031622Y-025461D02*
G01X0031651Y-025489D01*
G01X0031651Y-025489D02*
G01X0031679Y-025545D01*
G01X0031679Y-025545D02*
G01X0031679Y-025602D01*
G01X0031679Y-025602D02*
G01X0031651Y-025658D01*
G01X0031651Y-025658D02*
G01X0031622Y-025686D01*
G01X0031622Y-025686D02*
G01X0031566Y-025714D01*
G01X0031566Y-025714D02*
G01X0031454Y-025742D01*
G01X0031454Y-025742D02*
G01X0031313Y-025742D01*
G01X0031313Y-025742D02*
G01X0031200Y-025714D01*
G01X0031200Y-025714D02*
G01X0031144Y-025686D01*
G01X0031144Y-025686D02*
G01X0031116Y-025658D01*
G01X0031116Y-025658D02*
G01X0031088Y-025602D01*
G01X0031285Y-024898D02*
G01X0031679Y-024898D01*
G01X0031285Y-025151D02*
G01X0031594Y-025151D01*
G01X0031594Y-025151D02*
G01X0031651Y-025123D01*
G01X0031651Y-025123D02*
G01X0031679Y-025067D01*
G01X0031679Y-025067D02*
G01X0031679Y-024983D01*
G01X0031679Y-024983D02*
G01X0031651Y-024926D01*
G01X0031651Y-024926D02*
G01X0031622Y-024898D01*
G01X0031679Y-024617D02*
G01X0031088Y-024617D01*
G01X0031369Y-024617D02*
G01X0031369Y-024279D01*
G01X0031679Y-024279D02*
G01X0031088Y-024279D01*
G54D18*
G01X0045319Y-011478D02*
G01X0045340Y-011495D01*
G01X0045340Y-011495D02*
G01X0045362Y-011545D01*
G01X0045362Y-011545D02*
G01X0045362Y-011578D01*
G01X0045362Y-011578D02*
G01X0045340Y-011628D01*
G01X0045340Y-011628D02*
G01X0045297Y-011661D01*
G01X0045297Y-011661D02*
G01X0045255Y-011678D01*
G01X0045255Y-011678D02*
G01X0045169Y-011695D01*
G01X0045169Y-011695D02*
G01X0045105Y-011695D01*
G01X0045105Y-011695D02*
G01X0045019Y-011678D01*
G01X0045019Y-011678D02*
G01X0044976Y-011661D01*
G01X0044976Y-011661D02*
G01X0044933Y-011628D01*
G01X0044933Y-011628D02*
G01X0044912Y-011578D01*
G01X0044912Y-011578D02*
G01X0044912Y-011545D01*
G01X0044912Y-011545D02*
G01X0044933Y-011495D01*
G01X0044933Y-011495D02*
G01X0044955Y-011478D01*
G01X0044912Y-011161D02*
G01X0044912Y-011328D01*
G01X0044912Y-011328D02*
G01X0045126Y-011345D01*
G01X0045126Y-011345D02*
G01X0045105Y-011328D01*
G01X0045105Y-011328D02*
G01X0045083Y-011295D01*
G01X0045083Y-011295D02*
G01X0045083Y-011211D01*
G01X0045083Y-011211D02*
G01X0045105Y-011178D01*
G01X0045105Y-011178D02*
G01X0045126Y-011161D01*
G01X0045126Y-011161D02*
G01X0045169Y-011145D01*
G01X0045169Y-011145D02*
G01X0045276Y-011145D01*
G01X0045276Y-011145D02*
G01X0045319Y-011161D01*
G01X0045319Y-011161D02*
G01X0045340Y-011178D01*
G01X0045340Y-011178D02*
G01X0045362Y-011211D01*
G01X0045362Y-011211D02*
G01X0045362Y-011295D01*
G01X0045362Y-011295D02*
G01X0045340Y-011328D01*
G01X0045340Y-011328D02*
G01X0045319Y-011345D01*
G01X0043862Y-012061D02*
G01X0043862Y-012261D01*
G01X0043862Y-012161D02*
G01X0043412Y-012161D01*
G01X0043412Y-012161D02*
G01X0043476Y-012195D01*
G01X0043476Y-012195D02*
G01X0043519Y-012228D01*
G01X0043519Y-012228D02*
G01X0043540Y-012261D01*
G01X0043412Y-011845D02*
G01X0043412Y-011811D01*
G01X0043412Y-011811D02*
G01X0043433Y-011778D01*
G01X0043433Y-011778D02*
G01X0043455Y-011761D01*
G01X0043455Y-011761D02*
G01X0043497Y-011745D01*
G01X0043497Y-011745D02*
G01X0043583Y-011728D01*
G01X0043583Y-011728D02*
G01X0043690Y-011728D01*
G01X0043690Y-011728D02*
G01X0043776Y-011745D01*
G01X0043776Y-011745D02*
G01X0043819Y-011761D01*
G01X0043819Y-011761D02*
G01X0043840Y-011778D01*
G01X0043840Y-011778D02*
G01X0043862Y-011811D01*
G01X0043862Y-011811D02*
G01X0043862Y-011845D01*
G01X0043862Y-011845D02*
G01X0043840Y-011878D01*
G01X0043840Y-011878D02*
G01X0043819Y-011895D01*
G01X0043819Y-011895D02*
G01X0043776Y-011911D01*
G01X0043776Y-011911D02*
G01X0043690Y-011928D01*
G01X0043690Y-011928D02*
G01X0043583Y-011928D01*
G01X0043583Y-011928D02*
G01X0043497Y-011911D01*
G01X0043497Y-011911D02*
G01X0043455Y-011895D01*
G01X0043455Y-011895D02*
G01X0043433Y-011878D01*
G01X0043433Y-011878D02*
G01X0043412Y-011845D01*
G01X0043412Y-011511D02*
G01X0043412Y-011478D01*
G01X0043412Y-011478D02*
G01X0043433Y-011445D01*
G01X0043433Y-011445D02*
G01X0043455Y-011428D01*
G01X0043455Y-011428D02*
G01X0043497Y-011411D01*
G01X0043497Y-011411D02*
G01X0043583Y-011395D01*
G01X0043583Y-011395D02*
G01X0043690Y-011395D01*
G01X0043690Y-011395D02*
G01X0043776Y-011411D01*
G01X0043776Y-011411D02*
G01X0043819Y-011428D01*
G01X0043819Y-011428D02*
G01X0043840Y-011445D01*
G01X0043840Y-011445D02*
G01X0043862Y-011478D01*
G01X0043862Y-011478D02*
G01X0043862Y-011511D01*
G01X0043862Y-011511D02*
G01X0043840Y-011545D01*
G01X0043840Y-011545D02*
G01X0043819Y-011561D01*
G01X0043819Y-011561D02*
G01X0043776Y-011578D01*
G01X0043776Y-011578D02*
G01X0043690Y-011595D01*
G01X0043690Y-011595D02*
G01X0043583Y-011595D01*
G01X0043583Y-011595D02*
G01X0043497Y-011578D01*
G01X0043497Y-011578D02*
G01X0043455Y-011561D01*
G01X0043455Y-011561D02*
G01X0043433Y-011545D01*
G01X0043433Y-011545D02*
G01X0043412Y-011511D01*
G01X0043562Y-011094D02*
G01X0043862Y-011094D01*
G01X0043562Y-011244D02*
G01X0043797Y-011244D01*
G01X0043797Y-011244D02*
G01X0043840Y-011228D01*
G01X0043840Y-011228D02*
G01X0043862Y-011194D01*
G01X0043862Y-011194D02*
G01X0043862Y-011144D01*
G01X0043862Y-011144D02*
G01X0043840Y-011111D01*
G01X0043840Y-011111D02*
G01X0043819Y-011094D01*
G01X0043626Y-010811D02*
G01X0043626Y-010928D01*
G01X0043862Y-010928D02*
G01X0043412Y-010928D01*
G01X0043412Y-010928D02*
G01X0043412Y-010761D01*
G54D25*
G01X0045090Y-012241D02*
G01X0045090Y-011898D01*
G01X0045262Y-012070D02*
G01X0044919Y-012070D01*
G54D18*
G01X0047458Y-016092D02*
G01X0047291Y-015830D01*
G01X0047172Y-016092D02*
G01X0047172Y-015542D01*
G01X0047172Y-015542D02*
G01X0047363Y-015542D01*
G01X0047363Y-015542D02*
G01X0047410Y-015568D01*
G01X0047410Y-015568D02*
G01X0047434Y-015595D01*
G01X0047434Y-015595D02*
G01X0047458Y-015647D01*
G01X0047458Y-015647D02*
G01X0047458Y-015725D01*
G01X0047458Y-015725D02*
G01X0047434Y-015778D01*
G01X0047434Y-015778D02*
G01X0047410Y-015804D01*
G01X0047410Y-015804D02*
G01X0047363Y-015830D01*
G01X0047363Y-015830D02*
G01X0047172Y-015830D01*
G01X0047934Y-016092D02*
G01X0047649Y-016092D01*
G01X0047791Y-016092D02*
G01X0047791Y-015542D01*
G01X0047791Y-015542D02*
G01X0047744Y-015621D01*
G01X0047744Y-015621D02*
G01X0047696Y-015673D01*
G01X0047696Y-015673D02*
G01X0047649Y-015699D01*
G01X0048363Y-015542D02*
G01X0048268Y-015542D01*
G01X0048268Y-015542D02*
G01X0048220Y-015568D01*
G01X0048220Y-015568D02*
G01X0048196Y-015595D01*
G01X0048196Y-015595D02*
G01X0048149Y-015673D01*
G01X0048149Y-015673D02*
G01X0048125Y-015778D01*
G01X0048125Y-015778D02*
G01X0048125Y-015987D01*
G01X0048125Y-015987D02*
G01X0048149Y-016040D01*
G01X0048149Y-016040D02*
G01X0048172Y-016066D01*
G01X0048172Y-016066D02*
G01X0048220Y-016092D01*
G01X0048220Y-016092D02*
G01X0048315Y-016092D01*
G01X0048315Y-016092D02*
G01X0048363Y-016066D01*
G01X0048363Y-016066D02*
G01X0048387Y-016040D01*
G01X0048387Y-016040D02*
G01X0048410Y-015987D01*
G01X0048410Y-015987D02*
G01X0048410Y-015856D01*
G01X0048410Y-015856D02*
G01X0048387Y-015804D01*
G01X0048387Y-015804D02*
G01X0048363Y-015778D01*
G01X0048363Y-015778D02*
G01X0048315Y-015752D01*
G01X0048315Y-015752D02*
G01X0048220Y-015752D01*
G01X0048220Y-015752D02*
G01X0048172Y-015778D01*
G01X0048172Y-015778D02*
G01X0048149Y-015804D01*
G01X0048149Y-015804D02*
G01X0048125Y-015856D01*
G01X0047458Y-017142D02*
G01X0047291Y-016880D01*
G01X0047172Y-017142D02*
G01X0047172Y-016592D01*
G01X0047172Y-016592D02*
G01X0047363Y-016592D01*
G01X0047363Y-016592D02*
G01X0047410Y-016618D01*
G01X0047410Y-016618D02*
G01X0047434Y-016645D01*
G01X0047434Y-016645D02*
G01X0047458Y-016697D01*
G01X0047458Y-016697D02*
G01X0047458Y-016775D01*
G01X0047458Y-016775D02*
G01X0047434Y-016828D01*
G01X0047434Y-016828D02*
G01X0047410Y-016854D01*
G01X0047410Y-016854D02*
G01X0047363Y-016880D01*
G01X0047363Y-016880D02*
G01X0047172Y-016880D01*
G01X0047934Y-017142D02*
G01X0047649Y-017142D01*
G01X0047791Y-017142D02*
G01X0047791Y-016592D01*
G01X0047791Y-016592D02*
G01X0047744Y-016671D01*
G01X0047744Y-016671D02*
G01X0047696Y-016723D01*
G01X0047696Y-016723D02*
G01X0047649Y-016749D01*
G01X0048101Y-016592D02*
G01X0048434Y-016592D01*
G01X0048434Y-016592D02*
G01X0048220Y-017142D01*
G01X0047458Y-015042D02*
G01X0047291Y-014780D01*
G01X0047172Y-015042D02*
G01X0047172Y-014492D01*
G01X0047172Y-014492D02*
G01X0047363Y-014492D01*
G01X0047363Y-014492D02*
G01X0047410Y-014518D01*
G01X0047410Y-014518D02*
G01X0047434Y-014545D01*
G01X0047434Y-014545D02*
G01X0047458Y-014597D01*
G01X0047458Y-014597D02*
G01X0047458Y-014675D01*
G01X0047458Y-014675D02*
G01X0047434Y-014728D01*
G01X0047434Y-014728D02*
G01X0047410Y-014754D01*
G01X0047410Y-014754D02*
G01X0047363Y-014780D01*
G01X0047363Y-014780D02*
G01X0047172Y-014780D01*
G01X0047934Y-015042D02*
G01X0047649Y-015042D01*
G01X0047791Y-015042D02*
G01X0047791Y-014492D01*
G01X0047791Y-014492D02*
G01X0047744Y-014571D01*
G01X0047744Y-014571D02*
G01X0047696Y-014623D01*
G01X0047696Y-014623D02*
G01X0047649Y-014649D01*
G01X0048387Y-014492D02*
G01X0048149Y-014492D01*
G01X0048149Y-014492D02*
G01X0048125Y-014754D01*
G01X0048125Y-014754D02*
G01X0048149Y-014728D01*
G01X0048149Y-014728D02*
G01X0048196Y-014702D01*
G01X0048196Y-014702D02*
G01X0048315Y-014702D01*
G01X0048315Y-014702D02*
G01X0048363Y-014728D01*
G01X0048363Y-014728D02*
G01X0048387Y-014754D01*
G01X0048387Y-014754D02*
G01X0048410Y-014806D01*
G01X0048410Y-014806D02*
G01X0048410Y-014937D01*
G01X0048410Y-014937D02*
G01X0048387Y-014990D01*
G01X0048387Y-014990D02*
G01X0048363Y-015016D01*
G01X0048363Y-015016D02*
G01X0048315Y-015042D01*
G01X0048315Y-015042D02*
G01X0048196Y-015042D01*
G01X0048196Y-015042D02*
G01X0048149Y-015016D01*
G01X0048149Y-015016D02*
G01X0048125Y-014990D01*
G01X0026058Y-014542D02*
G01X0025891Y-014280D01*
G01X0025772Y-014542D02*
G01X0025772Y-013992D01*
G01X0025772Y-013992D02*
G01X0025963Y-013992D01*
G01X0025963Y-013992D02*
G01X0026010Y-014018D01*
G01X0026010Y-014018D02*
G01X0026034Y-014045D01*
G01X0026034Y-014045D02*
G01X0026058Y-014097D01*
G01X0026058Y-014097D02*
G01X0026058Y-014175D01*
G01X0026058Y-014175D02*
G01X0026034Y-014228D01*
G01X0026034Y-014228D02*
G01X0026010Y-014254D01*
G01X0026010Y-014254D02*
G01X0025963Y-014280D01*
G01X0025963Y-014280D02*
G01X0025772Y-014280D01*
G01X0026534Y-014542D02*
G01X0026249Y-014542D01*
G01X0026391Y-014542D02*
G01X0026391Y-013992D01*
G01X0026391Y-013992D02*
G01X0026344Y-014071D01*
G01X0026344Y-014071D02*
G01X0026296Y-014123D01*
G01X0026296Y-014123D02*
G01X0026249Y-014149D01*
G01X0026820Y-014228D02*
G01X0026772Y-014202D01*
G01X0026772Y-014202D02*
G01X0026749Y-014175D01*
G01X0026749Y-014175D02*
G01X0026725Y-014123D01*
G01X0026725Y-014123D02*
G01X0026725Y-014097D01*
G01X0026725Y-014097D02*
G01X0026749Y-014045D01*
G01X0026749Y-014045D02*
G01X0026772Y-014018D01*
G01X0026772Y-014018D02*
G01X0026820Y-013992D01*
G01X0026820Y-013992D02*
G01X0026915Y-013992D01*
G01X0026915Y-013992D02*
G01X0026963Y-014018D01*
G01X0026963Y-014018D02*
G01X0026987Y-014045D01*
G01X0026987Y-014045D02*
G01X0027010Y-014097D01*
G01X0027010Y-014097D02*
G01X0027010Y-014123D01*
G01X0027010Y-014123D02*
G01X0026987Y-014175D01*
G01X0026987Y-014175D02*
G01X0026963Y-014202D01*
G01X0026963Y-014202D02*
G01X0026915Y-014228D01*
G01X0026915Y-014228D02*
G01X0026820Y-014228D01*
G01X0026820Y-014228D02*
G01X0026772Y-014254D01*
G01X0026772Y-014254D02*
G01X0026749Y-014280D01*
G01X0026749Y-014280D02*
G01X0026725Y-014333D01*
G01X0026725Y-014333D02*
G01X0026725Y-014437D01*
G01X0026725Y-014437D02*
G01X0026749Y-014490D01*
G01X0026749Y-014490D02*
G01X0026772Y-014516D01*
G01X0026772Y-014516D02*
G01X0026820Y-014542D01*
G01X0026820Y-014542D02*
G01X0026915Y-014542D01*
G01X0026915Y-014542D02*
G01X0026963Y-014516D01*
G01X0026963Y-014516D02*
G01X0026987Y-014490D01*
G01X0026987Y-014490D02*
G01X0027010Y-014437D01*
G01X0027010Y-014437D02*
G01X0027010Y-014333D01*
G01X0027010Y-014333D02*
G01X0026987Y-014280D01*
G01X0026987Y-014280D02*
G01X0026963Y-014254D01*
G01X0026963Y-014254D02*
G01X0026915Y-014228D01*
G54D11*
G01X0024882Y-027553D02*
G01X0024882Y-027791D01*
G01X0024882Y-027791D02*
G01X0024382Y-027791D01*
G01X0024882Y-027386D02*
G01X0024382Y-027386D01*
G01X0024382Y-027386D02*
G01X0024739Y-027220D01*
G01X0024739Y-027220D02*
G01X0024382Y-027053D01*
G01X0024382Y-027053D02*
G01X0024882Y-027053D01*
G01X0024430Y-026839D02*
G01X0024406Y-026815D01*
G01X0024406Y-026815D02*
G01X0024382Y-026767D01*
G01X0024382Y-026767D02*
G01X0024382Y-026648D01*
G01X0024382Y-026648D02*
G01X0024406Y-026600D01*
G01X0024406Y-026600D02*
G01X0024430Y-026577D01*
G01X0024430Y-026577D02*
G01X0024477Y-026553D01*
G01X0024477Y-026553D02*
G01X0024525Y-026553D01*
G01X0024525Y-026553D02*
G01X0024596Y-026577D01*
G01X0024596Y-026577D02*
G01X0024882Y-026862D01*
G01X0024882Y-026862D02*
G01X0024882Y-026553D01*
G01X0024382Y-026100D02*
G01X0024382Y-026339D01*
G01X0024382Y-026339D02*
G01X0024620Y-026362D01*
G01X0024620Y-026362D02*
G01X0024596Y-026339D01*
G01X0024596Y-026339D02*
G01X0024572Y-026291D01*
G01X0024572Y-026291D02*
G01X0024572Y-026172D01*
G01X0024572Y-026172D02*
G01X0024596Y-026124D01*
G01X0024596Y-026124D02*
G01X0024620Y-026100D01*
G01X0024620Y-026100D02*
G01X0024668Y-026077D01*
G01X0024668Y-026077D02*
G01X0024787Y-026077D01*
G01X0024787Y-026077D02*
G01X0024834Y-026100D01*
G01X0024834Y-026100D02*
G01X0024858Y-026124D01*
G01X0024858Y-026124D02*
G01X0024882Y-026172D01*
G01X0024882Y-026172D02*
G01X0024882Y-026291D01*
G01X0024882Y-026291D02*
G01X0024858Y-026339D01*
G01X0024858Y-026339D02*
G01X0024834Y-026362D01*
G01X0024382Y-025910D02*
G01X0024382Y-025577D01*
G01X0024382Y-025577D02*
G01X0024882Y-025791D01*
G01X0024382Y-025172D02*
G01X0024382Y-025267D01*
G01X0024382Y-025267D02*
G01X0024406Y-025315D01*
G01X0024406Y-025315D02*
G01X0024430Y-025339D01*
G01X0024430Y-025339D02*
G01X0024501Y-025386D01*
G01X0024501Y-025386D02*
G01X0024596Y-025410D01*
G01X0024596Y-025410D02*
G01X0024787Y-025410D01*
G01X0024787Y-025410D02*
G01X0024834Y-025386D01*
G01X0024834Y-025386D02*
G01X0024858Y-025362D01*
G01X0024858Y-025362D02*
G01X0024882Y-025315D01*
G01X0024882Y-025315D02*
G01X0024882Y-025220D01*
G01X0024882Y-025220D02*
G01X0024858Y-025172D01*
G01X0024858Y-025172D02*
G01X0024834Y-025148D01*
G01X0024834Y-025148D02*
G01X0024787Y-025124D01*
G01X0024787Y-025124D02*
G01X0024668Y-025124D01*
G01X0024668Y-025124D02*
G01X0024620Y-025148D01*
G01X0024620Y-025148D02*
G01X0024596Y-025172D01*
G01X0024596Y-025172D02*
G01X0024572Y-025220D01*
G01X0024572Y-025220D02*
G01X0024572Y-025315D01*
G01X0024572Y-025315D02*
G01X0024596Y-025362D01*
G01X0024596Y-025362D02*
G01X0024620Y-025386D01*
G01X0024620Y-025386D02*
G01X0024668Y-025410D01*
G54D15*
G01X0043942Y-019016D02*
G01X0044992Y-020198D01*
G01X0044992Y-019016D02*
G01X0043942Y-020198D01*
G01X0046117Y-019579D02*
G01X0046342Y-019635D01*
G01X0046342Y-019635D02*
G01X0046417Y-019691D01*
G01X0046417Y-019691D02*
G01X0046492Y-019804D01*
G01X0046492Y-019804D02*
G01X0046492Y-019973D01*
G01X0046492Y-019973D02*
G01X0046417Y-020085D01*
G01X0046417Y-020085D02*
G01X0046342Y-020141D01*
G01X0046342Y-020141D02*
G01X0046192Y-020198D01*
G01X0046192Y-020198D02*
G01X0045592Y-020198D01*
G01X0045592Y-020198D02*
G01X0045592Y-019016D01*
G01X0045592Y-019016D02*
G01X0046117Y-019016D01*
G01X0046117Y-019016D02*
G01X0046267Y-019073D01*
G01X0046267Y-019073D02*
G01X0046342Y-019129D01*
G01X0046342Y-019129D02*
G01X0046417Y-019241D01*
G01X0046417Y-019241D02*
G01X0046417Y-019354D01*
G01X0046417Y-019354D02*
G01X0046342Y-019466D01*
G01X0046342Y-019466D02*
G01X0046267Y-019523D01*
G01X0046267Y-019523D02*
G01X0046117Y-019579D01*
G01X0046117Y-019579D02*
G01X0045592Y-019579D01*
G01X0047167Y-019579D02*
G01X0047692Y-019579D01*
G01X0047917Y-020198D02*
G01X0047167Y-020198D01*
G01X0047167Y-020198D02*
G01X0047167Y-019016D01*
G01X0047167Y-019016D02*
G01X0047917Y-019016D01*
G01X0048592Y-019579D02*
G01X0049117Y-019579D01*
G01X0049342Y-020198D02*
G01X0048592Y-020198D01*
G01X0048592Y-020198D02*
G01X0048592Y-019016D01*
G01X0048592Y-019016D02*
G01X0049342Y-019016D01*
G54D27*
G01X0034390Y-022233D02*
G01X0034271Y-022114D01*
G01X0034271Y-022114D02*
G01X0034522Y-021863D01*
G01X0034474Y-022317D02*
G01X0034724Y-022066D01*
G01X0034724Y-022066D02*
G01X0034784Y-022126D01*
G01X0034784Y-022126D02*
G01X0034808Y-022174D01*
G01X0034808Y-022174D02*
G01X0034808Y-022221D01*
G01X0034808Y-022221D02*
G01X0034796Y-022257D01*
G01X0034796Y-022257D02*
G01X0034760Y-022317D01*
G01X0034760Y-022317D02*
G01X0034724Y-022352D01*
G01X0034724Y-022352D02*
G01X0034665Y-022388D01*
G01X0034665Y-022388D02*
G01X0034629Y-022400D01*
G01X0034629Y-022400D02*
G01X0034581Y-022400D01*
G01X0034581Y-022400D02*
G01X0034534Y-022376D01*
G01X0034534Y-022376D02*
G01X0034474Y-022317D01*
G01X0034868Y-022710D02*
G01X0034903Y-022508D01*
G01X0034724Y-022567D02*
G01X0034975Y-022317D01*
G01X0034975Y-022317D02*
G01X0035070Y-022412D01*
G01X0035070Y-022412D02*
G01X0035082Y-022448D01*
G01X0035082Y-022448D02*
G01X0035082Y-022472D01*
G01X0035082Y-022472D02*
G01X0035070Y-022508D01*
G01X0035070Y-022508D02*
G01X0035035Y-022543D01*
G01X0035035Y-022543D02*
G01X0034999Y-022555D01*
G01X0034999Y-022555D02*
G01X0034975Y-022555D01*
G01X0034975Y-022555D02*
G01X0034939Y-022543D01*
G01X0034939Y-022543D02*
G01X0034844Y-022448D01*
G01X0034891Y-022782D02*
G01X0035082Y-022973D01*
G01X0035440Y-022949D02*
G01X0035273Y-023116D01*
G01X0035476Y-022794D02*
G01X0035237Y-022913D01*
G01X0035237Y-022913D02*
G01X0035393Y-023068D01*
G01X0041143Y-022859D02*
G01X0041024Y-022978D01*
G01X0041024Y-022978D02*
G01X0040773Y-022727D01*
G01X0041227Y-022775D02*
G01X0040976Y-022525D01*
G01X0040976Y-022525D02*
G01X0041036Y-022465D01*
G01X0041036Y-022465D02*
G01X0041084Y-022441D01*
G01X0041084Y-022441D02*
G01X0041131Y-022441D01*
G01X0041131Y-022441D02*
G01X0041167Y-022453D01*
G01X0041167Y-022453D02*
G01X0041227Y-022489D01*
G01X0041227Y-022489D02*
G01X0041262Y-022525D01*
G01X0041262Y-022525D02*
G01X0041298Y-022584D01*
G01X0041298Y-022584D02*
G01X0041310Y-022620D01*
G01X0041310Y-022620D02*
G01X0041310Y-022668D01*
G01X0041310Y-022668D02*
G01X0041286Y-022715D01*
G01X0041286Y-022715D02*
G01X0041227Y-022775D01*
G01X0041620Y-022381D02*
G01X0041418Y-022346D01*
G01X0041477Y-022525D02*
G01X0041227Y-022274D01*
G01X0041227Y-022274D02*
G01X0041322Y-022179D01*
G01X0041322Y-022179D02*
G01X0041358Y-022167D01*
G01X0041358Y-022167D02*
G01X0041382Y-022167D01*
G01X0041382Y-022167D02*
G01X0041418Y-022179D01*
G01X0041418Y-022179D02*
G01X0041453Y-022214D01*
G01X0041453Y-022214D02*
G01X0041465Y-022250D01*
G01X0041465Y-022250D02*
G01X0041465Y-022274D01*
G01X0041465Y-022274D02*
G01X0041453Y-022310D01*
G01X0041453Y-022310D02*
G01X0041358Y-022405D01*
G01X0041692Y-022358D02*
G01X0041883Y-022167D01*
G01X0041644Y-021856D02*
G01X0041799Y-021701D01*
G01X0041799Y-021701D02*
G01X0041811Y-021880D01*
G01X0041811Y-021880D02*
G01X0041847Y-021845D01*
G01X0041847Y-021845D02*
G01X0041883Y-021833D01*
G01X0041883Y-021833D02*
G01X0041907Y-021833D01*
G01X0041907Y-021833D02*
G01X0041943Y-021845D01*
G01X0041943Y-021845D02*
G01X0042002Y-021904D01*
G01X0042002Y-021904D02*
G01X0042014Y-021940D01*
G01X0042014Y-021940D02*
G01X0042014Y-021964D01*
G01X0042014Y-021964D02*
G01X0042002Y-022000D01*
G01X0042002Y-022000D02*
G01X0041931Y-022071D01*
G01X0041931Y-022071D02*
G01X0041895Y-022083D01*
G01X0041895Y-022083D02*
G01X0041871Y-022083D01*
G01X0040190Y-014433D02*
G01X0040071Y-014314D01*
G01X0040071Y-014314D02*
G01X0040322Y-014063D01*
G01X0040274Y-014517D02*
G01X0040524Y-014266D01*
G01X0040524Y-014266D02*
G01X0040584Y-014326D01*
G01X0040584Y-014326D02*
G01X0040608Y-014374D01*
G01X0040608Y-014374D02*
G01X0040608Y-014421D01*
G01X0040608Y-014421D02*
G01X0040596Y-014457D01*
G01X0040596Y-014457D02*
G01X0040560Y-014517D01*
G01X0040560Y-014517D02*
G01X0040524Y-014552D01*
G01X0040524Y-014552D02*
G01X0040465Y-014588D01*
G01X0040465Y-014588D02*
G01X0040429Y-014600D01*
G01X0040429Y-014600D02*
G01X0040381Y-014600D01*
G01X0040381Y-014600D02*
G01X0040334Y-014576D01*
G01X0040334Y-014576D02*
G01X0040274Y-014517D01*
G01X0040668Y-014910D02*
G01X0040703Y-014708D01*
G01X0040524Y-014767D02*
G01X0040775Y-014517D01*
G01X0040775Y-014517D02*
G01X0040870Y-014612D01*
G01X0040870Y-014612D02*
G01X0040882Y-014648D01*
G01X0040882Y-014648D02*
G01X0040882Y-014672D01*
G01X0040882Y-014672D02*
G01X0040870Y-014708D01*
G01X0040870Y-014708D02*
G01X0040835Y-014743D01*
G01X0040835Y-014743D02*
G01X0040799Y-014755D01*
G01X0040799Y-014755D02*
G01X0040775Y-014755D01*
G01X0040775Y-014755D02*
G01X0040739Y-014743D01*
G01X0040739Y-014743D02*
G01X0040644Y-014648D01*
G01X0040691Y-014982D02*
G01X0040882Y-015173D01*
G01X0041181Y-014970D02*
G01X0041204Y-014970D01*
G01X0041204Y-014970D02*
G01X0041240Y-014982D01*
G01X0041240Y-014982D02*
G01X0041300Y-015042D01*
G01X0041300Y-015042D02*
G01X0041312Y-015077D01*
G01X0041312Y-015077D02*
G01X0041312Y-015101D01*
G01X0041312Y-015101D02*
G01X0041300Y-015137D01*
G01X0041300Y-015137D02*
G01X0041276Y-015161D01*
G01X0041276Y-015161D02*
G01X0041228Y-015185D01*
G01X0041228Y-015185D02*
G01X0040942Y-015185D01*
G01X0040942Y-015185D02*
G01X0041097Y-015340D01*
G01X0034443Y-016009D02*
G01X0034324Y-016128D01*
G01X0034324Y-016128D02*
G01X0034073Y-015877D01*
G01X0034527Y-015925D02*
G01X0034276Y-015675D01*
G01X0034276Y-015675D02*
G01X0034336Y-015615D01*
G01X0034336Y-015615D02*
G01X0034384Y-015591D01*
G01X0034384Y-015591D02*
G01X0034431Y-015591D01*
G01X0034431Y-015591D02*
G01X0034467Y-015603D01*
G01X0034467Y-015603D02*
G01X0034527Y-015639D01*
G01X0034527Y-015639D02*
G01X0034562Y-015675D01*
G01X0034562Y-015675D02*
G01X0034598Y-015734D01*
G01X0034598Y-015734D02*
G01X0034610Y-015770D01*
G01X0034610Y-015770D02*
G01X0034610Y-015818D01*
G01X0034610Y-015818D02*
G01X0034586Y-015865D01*
G01X0034586Y-015865D02*
G01X0034527Y-015925D01*
G01X0034920Y-015531D02*
G01X0034718Y-015496D01*
G01X0034777Y-015675D02*
G01X0034527Y-015424D01*
G01X0034527Y-015424D02*
G01X0034622Y-015329D01*
G01X0034622Y-015329D02*
G01X0034658Y-015317D01*
G01X0034658Y-015317D02*
G01X0034682Y-015317D01*
G01X0034682Y-015317D02*
G01X0034718Y-015329D01*
G01X0034718Y-015329D02*
G01X0034753Y-015364D01*
G01X0034753Y-015364D02*
G01X0034765Y-015400D01*
G01X0034765Y-015400D02*
G01X0034765Y-015424D01*
G01X0034765Y-015424D02*
G01X0034753Y-015460D01*
G01X0034753Y-015460D02*
G01X0034658Y-015555D01*
G01X0034992Y-015508D02*
G01X0035183Y-015317D01*
G01X0035350Y-015102D02*
G01X0035207Y-015245D01*
G01X0035278Y-015174D02*
G01X0035028Y-014923D01*
G01X0035028Y-014923D02*
G01X0035040Y-014983D01*
G01X0035040Y-014983D02*
G01X0035040Y-015030D01*
G01X0035040Y-015030D02*
G01X0035028Y-015066D01*
G54D18*
G01X0032171Y-017009D02*
G01X0032155Y-017030D01*
G01X0032155Y-017030D02*
G01X0032105Y-017052D01*
G01X0032105Y-017052D02*
G01X0032071Y-017052D01*
G01X0032071Y-017052D02*
G01X0032021Y-017030D01*
G01X0032021Y-017030D02*
G01X0031988Y-016987D01*
G01X0031988Y-016987D02*
G01X0031971Y-016945D01*
G01X0031971Y-016945D02*
G01X0031955Y-016859D01*
G01X0031955Y-016859D02*
G01X0031955Y-016795D01*
G01X0031955Y-016795D02*
G01X0031971Y-016709D01*
G01X0031971Y-016709D02*
G01X0031988Y-016666D01*
G01X0031988Y-016666D02*
G01X0032021Y-016623D01*
G01X0032021Y-016623D02*
G01X0032071Y-016602D01*
G01X0032071Y-016602D02*
G01X0032105Y-016602D01*
G01X0032105Y-016602D02*
G01X0032155Y-016623D01*
G01X0032155Y-016623D02*
G01X0032171Y-016645D01*
G01X0032471Y-016752D02*
G01X0032471Y-017052D01*
G01X0032388Y-016580D02*
G01X0032305Y-016902D01*
G01X0032305Y-016902D02*
G01X0032521Y-016902D01*
G01X0031638Y-015602D02*
G01X0031438Y-015602D01*
G01X0031538Y-015602D02*
G01X0031538Y-015152D01*
G01X0031538Y-015152D02*
G01X0031505Y-015216D01*
G01X0031505Y-015216D02*
G01X0031471Y-015259D01*
G01X0031471Y-015259D02*
G01X0031438Y-015280D01*
G01X0031855Y-015152D02*
G01X0031888Y-015152D01*
G01X0031888Y-015152D02*
G01X0031921Y-015173D01*
G01X0031921Y-015173D02*
G01X0031938Y-015195D01*
G01X0031938Y-015195D02*
G01X0031955Y-015237D01*
G01X0031955Y-015237D02*
G01X0031971Y-015323D01*
G01X0031971Y-015323D02*
G01X0031971Y-015430D01*
G01X0031971Y-015430D02*
G01X0031955Y-015516D01*
G01X0031955Y-015516D02*
G01X0031938Y-015559D01*
G01X0031938Y-015559D02*
G01X0031921Y-015580D01*
G01X0031921Y-015580D02*
G01X0031888Y-015602D01*
G01X0031888Y-015602D02*
G01X0031855Y-015602D01*
G01X0031855Y-015602D02*
G01X0031821Y-015580D01*
G01X0031821Y-015580D02*
G01X0031805Y-015559D01*
G01X0031805Y-015559D02*
G01X0031788Y-015516D01*
G01X0031788Y-015516D02*
G01X0031771Y-015430D01*
G01X0031771Y-015430D02*
G01X0031771Y-015323D01*
G01X0031771Y-015323D02*
G01X0031788Y-015237D01*
G01X0031788Y-015237D02*
G01X0031805Y-015195D01*
G01X0031805Y-015195D02*
G01X0031821Y-015173D01*
G01X0031821Y-015173D02*
G01X0031855Y-015152D01*
G01X0032188Y-015152D02*
G01X0032221Y-015152D01*
G01X0032221Y-015152D02*
G01X0032255Y-015173D01*
G01X0032255Y-015173D02*
G01X0032271Y-015195D01*
G01X0032271Y-015195D02*
G01X0032288Y-015237D01*
G01X0032288Y-015237D02*
G01X0032305Y-015323D01*
G01X0032305Y-015323D02*
G01X0032305Y-015430D01*
G01X0032305Y-015430D02*
G01X0032288Y-015516D01*
G01X0032288Y-015516D02*
G01X0032271Y-015559D01*
G01X0032271Y-015559D02*
G01X0032255Y-015580D01*
G01X0032255Y-015580D02*
G01X0032221Y-015602D01*
G01X0032221Y-015602D02*
G01X0032188Y-015602D01*
G01X0032188Y-015602D02*
G01X0032155Y-015580D01*
G01X0032155Y-015580D02*
G01X0032138Y-015559D01*
G01X0032138Y-015559D02*
G01X0032121Y-015516D01*
G01X0032121Y-015516D02*
G01X0032105Y-015430D01*
G01X0032105Y-015430D02*
G01X0032105Y-015323D01*
G01X0032105Y-015323D02*
G01X0032121Y-015237D01*
G01X0032121Y-015237D02*
G01X0032138Y-015195D01*
G01X0032138Y-015195D02*
G01X0032155Y-015173D01*
G01X0032155Y-015173D02*
G01X0032188Y-015152D01*
G01X0032605Y-015302D02*
G01X0032605Y-015602D01*
G01X0032455Y-015302D02*
G01X0032455Y-015537D01*
G01X0032455Y-015537D02*
G01X0032471Y-015580D01*
G01X0032471Y-015580D02*
G01X0032505Y-015602D01*
G01X0032505Y-015602D02*
G01X0032555Y-015602D01*
G01X0032555Y-015602D02*
G01X0032588Y-015580D01*
G01X0032588Y-015580D02*
G01X0032605Y-015559D01*
G01X0032888Y-015366D02*
G01X0032771Y-015366D01*
G01X0032771Y-015602D02*
G01X0032771Y-015152D01*
G01X0032771Y-015152D02*
G01X0032938Y-015152D01*
G54D25*
G01X0031358Y-016780D02*
G01X0031701Y-016780D01*
G01X0031530Y-016952D02*
G01X0031530Y-016609D01*
G54D18*
G01X0045958Y-023342D02*
G01X0045791Y-023080D01*
G01X0045672Y-023342D02*
G01X0045672Y-022792D01*
G01X0045672Y-022792D02*
G01X0045863Y-022792D01*
G01X0045863Y-022792D02*
G01X0045910Y-022818D01*
G01X0045910Y-022818D02*
G01X0045934Y-022845D01*
G01X0045934Y-022845D02*
G01X0045958Y-022897D01*
G01X0045958Y-022897D02*
G01X0045958Y-022975D01*
G01X0045958Y-022975D02*
G01X0045934Y-023028D01*
G01X0045934Y-023028D02*
G01X0045910Y-023054D01*
G01X0045910Y-023054D02*
G01X0045863Y-023080D01*
G01X0045863Y-023080D02*
G01X0045672Y-023080D01*
G01X0046434Y-023342D02*
G01X0046149Y-023342D01*
G01X0046291Y-023342D02*
G01X0046291Y-022792D01*
G01X0046291Y-022792D02*
G01X0046244Y-022871D01*
G01X0046244Y-022871D02*
G01X0046196Y-022923D01*
G01X0046196Y-022923D02*
G01X0046149Y-022949D01*
G01X0046625Y-022845D02*
G01X0046649Y-022818D01*
G01X0046649Y-022818D02*
G01X0046696Y-022792D01*
G01X0046696Y-022792D02*
G01X0046815Y-022792D01*
G01X0046815Y-022792D02*
G01X0046863Y-022818D01*
G01X0046863Y-022818D02*
G01X0046887Y-022845D01*
G01X0046887Y-022845D02*
G01X0046910Y-022897D01*
G01X0046910Y-022897D02*
G01X0046910Y-022949D01*
G01X0046910Y-022949D02*
G01X0046887Y-023028D01*
G01X0046887Y-023028D02*
G01X0046601Y-023342D01*
G01X0046601Y-023342D02*
G01X0046910Y-023342D01*
G01X0041958Y-023942D02*
G01X0041791Y-023680D01*
G01X0041672Y-023942D02*
G01X0041672Y-023392D01*
G01X0041672Y-023392D02*
G01X0041863Y-023392D01*
G01X0041863Y-023392D02*
G01X0041910Y-023418D01*
G01X0041910Y-023418D02*
G01X0041934Y-023445D01*
G01X0041934Y-023445D02*
G01X0041958Y-023497D01*
G01X0041958Y-023497D02*
G01X0041958Y-023575D01*
G01X0041958Y-023575D02*
G01X0041934Y-023628D01*
G01X0041934Y-023628D02*
G01X0041910Y-023654D01*
G01X0041910Y-023654D02*
G01X0041863Y-023680D01*
G01X0041863Y-023680D02*
G01X0041672Y-023680D01*
G01X0042434Y-023942D02*
G01X0042149Y-023942D01*
G01X0042291Y-023942D02*
G01X0042291Y-023392D01*
G01X0042291Y-023392D02*
G01X0042244Y-023471D01*
G01X0042244Y-023471D02*
G01X0042196Y-023523D01*
G01X0042196Y-023523D02*
G01X0042149Y-023549D01*
G01X0042863Y-023575D02*
G01X0042863Y-023942D01*
G01X0042744Y-023366D02*
G01X0042625Y-023759D01*
G01X0042625Y-023759D02*
G01X0042934Y-023759D01*
G01X0044458Y-018242D02*
G01X0044291Y-017980D01*
G01X0044172Y-018242D02*
G01X0044172Y-017692D01*
G01X0044172Y-017692D02*
G01X0044363Y-017692D01*
G01X0044363Y-017692D02*
G01X0044410Y-017718D01*
G01X0044410Y-017718D02*
G01X0044434Y-017745D01*
G01X0044434Y-017745D02*
G01X0044458Y-017797D01*
G01X0044458Y-017797D02*
G01X0044458Y-017875D01*
G01X0044458Y-017875D02*
G01X0044434Y-017928D01*
G01X0044434Y-017928D02*
G01X0044410Y-017954D01*
G01X0044410Y-017954D02*
G01X0044363Y-017980D01*
G01X0044363Y-017980D02*
G01X0044172Y-017980D01*
G01X0044934Y-018242D02*
G01X0044649Y-018242D01*
G01X0044791Y-018242D02*
G01X0044791Y-017692D01*
G01X0044791Y-017692D02*
G01X0044744Y-017771D01*
G01X0044744Y-017771D02*
G01X0044696Y-017823D01*
G01X0044696Y-017823D02*
G01X0044649Y-017849D01*
G01X0045101Y-017692D02*
G01X0045410Y-017692D01*
G01X0045410Y-017692D02*
G01X0045244Y-017902D01*
G01X0045244Y-017902D02*
G01X0045315Y-017902D01*
G01X0045315Y-017902D02*
G01X0045363Y-017928D01*
G01X0045363Y-017928D02*
G01X0045387Y-017954D01*
G01X0045387Y-017954D02*
G01X0045410Y-018006D01*
G01X0045410Y-018006D02*
G01X0045410Y-018137D01*
G01X0045410Y-018137D02*
G01X0045387Y-018190D01*
G01X0045387Y-018190D02*
G01X0045363Y-018216D01*
G01X0045363Y-018216D02*
G01X0045315Y-018242D01*
G01X0045315Y-018242D02*
G01X0045172Y-018242D01*
G01X0045172Y-018242D02*
G01X0045125Y-018216D01*
G01X0045125Y-018216D02*
G01X0045101Y-018190D01*
M02*
