G04 (created by PCBNEW (2013-june-11)-stable) date dom 09 feb 2014 10:49:42 CET*
%MOIN*%
G04 Gerber Fmt 3.4, Leading zero omitted, Abs format*
%FSLAX34Y34*%
G01*
G70*
G90*
G04 APERTURE LIST*
%ADD10C,0.00393701*%
%ADD11O,0.075748X0.115748*%
%ADD12R,0.114173X0.114173*%
%ADD13C,0.114173*%
%ADD14R,0.115748X0.115748*%
%ADD15C,0.115748*%
%ADD16C,0.080748*%
%ADD17R,0.075748X0.075748*%
%ADD18C,0.075748*%
%ADD19R,0.080748X0.080748*%
%ADD20O,0.0748031X0.114173*%
%ADD21O,0.0748031X0.0944882*%
%ADD22C,0.055148*%
%ADD23C,0.094448*%
%ADD24O,0.086248X0.156748*%
%ADD25C,0.061748*%
%ADD26C,0.175748*%
%ADD27C,0.070748*%
G04 APERTURE END LIST*
G54D10*
G54D11*
X41780Y-9570D03*
X42780Y-9570D03*
X43780Y-9570D03*
X44780Y-9570D03*
X45780Y-9570D03*
X46780Y-9570D03*
X47780Y-9570D03*
X48780Y-9570D03*
X50780Y-28570D03*
X49780Y-28570D03*
X48780Y-28570D03*
X47780Y-28570D03*
X43780Y-28570D03*
X41780Y-28570D03*
X40780Y-28570D03*
X44780Y-28570D03*
X45780Y-28570D03*
X46780Y-28570D03*
X39780Y-28570D03*
X38780Y-28570D03*
X37780Y-28570D03*
X34780Y-28570D03*
X35780Y-28570D03*
X36780Y-28570D03*
X32780Y-28570D03*
X31780Y-28570D03*
X30780Y-28570D03*
X28780Y-28570D03*
X27780Y-28570D03*
X37780Y-9570D03*
X36780Y-9570D03*
X35780Y-9570D03*
X34780Y-9570D03*
X33780Y-9570D03*
X32780Y-9570D03*
X31180Y-9570D03*
X30180Y-9570D03*
X29180Y-9570D03*
X28180Y-9570D03*
X27180Y-9570D03*
X26180Y-9570D03*
X25180Y-9570D03*
X24180Y-9570D03*
X29780Y-28570D03*
G54D12*
X25830Y-22720D03*
G54D13*
X28830Y-22720D03*
G54D14*
X22430Y-19970D03*
G54D15*
X22430Y-17970D03*
G54D16*
X30880Y-21570D03*
X33880Y-21570D03*
X29780Y-10720D03*
X26780Y-10720D03*
X29780Y-11770D03*
X26780Y-11770D03*
X29780Y-12820D03*
X26780Y-12820D03*
X33980Y-24670D03*
X33980Y-27670D03*
X35230Y-27020D03*
X35230Y-24020D03*
X38280Y-27020D03*
X38280Y-24020D03*
X41980Y-15320D03*
X44980Y-15320D03*
X36280Y-27020D03*
X36280Y-24020D03*
G54D17*
X39380Y-26920D03*
G54D18*
X39380Y-25920D03*
X39380Y-24920D03*
G54D17*
X40380Y-26920D03*
G54D18*
X40380Y-25920D03*
X40380Y-24920D03*
G54D17*
X30180Y-14320D03*
G54D18*
X29180Y-14320D03*
G54D17*
X32030Y-11170D03*
G54D18*
X32030Y-12170D03*
X32030Y-13170D03*
G54D17*
X33030Y-11170D03*
G54D18*
X33030Y-12170D03*
X33030Y-13170D03*
G54D17*
X34030Y-11170D03*
G54D18*
X34030Y-12170D03*
X34030Y-13170D03*
G54D17*
X35030Y-11170D03*
G54D18*
X35030Y-12170D03*
X35030Y-13170D03*
G54D17*
X36030Y-11170D03*
G54D18*
X36030Y-12170D03*
X36030Y-13170D03*
G54D17*
X41380Y-26920D03*
G54D18*
X41380Y-25920D03*
X41380Y-24920D03*
G54D17*
X42380Y-26920D03*
G54D18*
X42380Y-25920D03*
X42380Y-24920D03*
G54D17*
X49280Y-11770D03*
G54D18*
X48280Y-11770D03*
X47280Y-11770D03*
X46280Y-11770D03*
G54D16*
X50430Y-12170D03*
X50430Y-9170D03*
X49280Y-10670D03*
X46280Y-10670D03*
G54D17*
X37030Y-11170D03*
G54D18*
X37030Y-12170D03*
X37030Y-13170D03*
G54D17*
X38030Y-11170D03*
G54D18*
X38030Y-12170D03*
X38030Y-13170D03*
G54D17*
X39030Y-11170D03*
G54D18*
X39030Y-12170D03*
X39030Y-13170D03*
G54D17*
X40030Y-11170D03*
G54D18*
X40030Y-12170D03*
X40030Y-13170D03*
G54D17*
X47180Y-24420D03*
G54D18*
X47180Y-25420D03*
G54D19*
X29080Y-20820D03*
G54D16*
X29080Y-19820D03*
G54D20*
X20780Y-25070D03*
X22780Y-25070D03*
X20780Y-28070D03*
X22780Y-28070D03*
X21430Y-12770D03*
X23430Y-12770D03*
X21430Y-15770D03*
X23430Y-15770D03*
G54D19*
X25780Y-20820D03*
G54D16*
X25780Y-19820D03*
G54D21*
X21592Y-22270D03*
X22380Y-22270D03*
X23167Y-22270D03*
G54D20*
X23954Y-22270D03*
X20805Y-22270D03*
G54D22*
X24380Y-12470D03*
X24880Y-12470D03*
X25380Y-12470D03*
X25880Y-12470D03*
G54D23*
X32930Y-25570D03*
X29930Y-25570D03*
G54D17*
X44380Y-12020D03*
G54D18*
X44380Y-11020D03*
G54D16*
X49280Y-15870D03*
X46280Y-15870D03*
X49280Y-16920D03*
X46280Y-16920D03*
X46280Y-14820D03*
X49280Y-14820D03*
X27880Y-14320D03*
X24880Y-14320D03*
G54D24*
X28530Y-24420D03*
X27880Y-25970D03*
X27180Y-24420D03*
X26480Y-25970D03*
X25830Y-24420D03*
G54D25*
X50073Y-13439D03*
X49285Y-13440D03*
X48498Y-13440D03*
X47711Y-13440D03*
X46923Y-13440D03*
X46137Y-13440D03*
X45349Y-13440D03*
X44562Y-13440D03*
X43775Y-13440D03*
X42987Y-13440D03*
X42987Y-22100D03*
X43775Y-22100D03*
X44562Y-22100D03*
X45349Y-22100D03*
X46137Y-22100D03*
X46923Y-22100D03*
X47711Y-22100D03*
X48498Y-22100D03*
X49285Y-22100D03*
X50073Y-22100D03*
G54D10*
G36*
X34590Y-21166D02*
X35126Y-20630D01*
X35662Y-21166D01*
X35126Y-21702D01*
X34590Y-21166D01*
X34590Y-21166D01*
G37*
G54D18*
X35833Y-21873D03*
G54D10*
G36*
X40326Y-22409D02*
X39790Y-21873D01*
X40326Y-21337D01*
X40862Y-21873D01*
X40326Y-22409D01*
X40326Y-22409D01*
G37*
G54D18*
X41033Y-21166D03*
G54D10*
G36*
X39790Y-15966D02*
X40326Y-15430D01*
X40862Y-15966D01*
X40326Y-16502D01*
X39790Y-15966D01*
X39790Y-15966D01*
G37*
G54D18*
X41033Y-16673D03*
G54D10*
G36*
X35833Y-15430D02*
X36369Y-15966D01*
X35833Y-16502D01*
X35297Y-15966D01*
X35833Y-15430D01*
X35833Y-15430D01*
G37*
G54D18*
X35126Y-16673D03*
G54D26*
X38080Y-18920D03*
G54D17*
X31730Y-16120D03*
G54D18*
X32730Y-16120D03*
G54D10*
G36*
X49673Y-23120D02*
X49172Y-23620D01*
X48672Y-23120D01*
X49172Y-22619D01*
X49673Y-23120D01*
X49673Y-23120D01*
G37*
G54D27*
X49880Y-23827D03*
X50587Y-23120D03*
G54D16*
X47780Y-23120D03*
X44780Y-23120D03*
X40780Y-23720D03*
X43780Y-23720D03*
X43280Y-18020D03*
X46280Y-18020D03*
G54D17*
X44480Y-26920D03*
G54D18*
X45480Y-26920D03*
X46480Y-26920D03*
X47480Y-26920D03*
G54D17*
X50480Y-26220D03*
G54D18*
X49480Y-26220D03*
G54D17*
X49480Y-27220D03*
G54D18*
X50480Y-27220D03*
G54D17*
X49480Y-25220D03*
M02*
