M48
;DRILL file {Pcbnew (2013-june-11)-stable} date dom 09 feb 2014 10:49:46 CET
;FORMAT={2:4/ absolute / inch / keep zeros}
FMAT,2
INCH,TZ
T1C0.020
T2C0.026
T3C0.028
T4C0.028
T5C0.032
T6C0.039
T7C0.039
T8C0.040
T9C0.047
T10C0.059
T11C0.060
T12C0.120
%
G90
G05
M72
T1
X031840Y-023770
X036280Y-017620
X039780Y-014520
X041380Y-011520
X043080Y-015020
X044080Y-025520
X044880Y-025320
X050880Y-019520
T2
X042987Y-013440
X042987Y-022100
X043775Y-013440
X043775Y-022100
X044562Y-013440
X044562Y-022100
X045349Y-013440
X045349Y-022100
X046137Y-013440
X046137Y-022100
X046923Y-013440
X046923Y-022100
X047711Y-013440
X047711Y-022100
X048498Y-013440
X048498Y-022100
X049285Y-013440
X049285Y-022100
X050073Y-022100
X050073Y-013439
T3
X021593Y-022270
X022380Y-022270
X023167Y-022270
T4
X024380Y-012470
X024880Y-012470
X025380Y-012470
X025880Y-012470
T5
X020780Y-025070
X020780Y-028070
X021430Y-012770
X021430Y-015770
X022780Y-025070
X022780Y-028070
X023430Y-012770
X023430Y-015770
X024880Y-014320
X025780Y-019820
X025780Y-020820
X026780Y-010720
X026780Y-011770
X026780Y-012820
X027880Y-014320
X029080Y-019820
X029080Y-020820
X029780Y-010720
X029780Y-011770
X029780Y-012820
X030880Y-021570
X031730Y-016120
X032730Y-016120
X033880Y-021570
X033980Y-024670
X033980Y-027670
X035230Y-024020
X035230Y-027020
X036280Y-024020
X036280Y-027020
X038280Y-024020
X038280Y-027020
X040780Y-023720
X041980Y-015320
X043280Y-018020
X043780Y-023720
X044380Y-011020
X044380Y-012020
X044780Y-023120
X044980Y-015320
X046280Y-010670
X046280Y-014820
X046280Y-015870
X046280Y-016920
X046280Y-018020
X047180Y-024420
X047180Y-025420
X047780Y-023120
X049173Y-023120
X049280Y-010670
X049280Y-014820
X049280Y-015870
X049280Y-016920
X049880Y-023827
X050430Y-009170
X050430Y-012170
X050587Y-023120
T6
X020805Y-022270
X023955Y-022270
T7
X029930Y-025570
X032930Y-025570
T8
X024180Y-009570
X025180Y-009570
X026180Y-009570
X027180Y-009570
X027780Y-028570
X028180Y-009570
X028780Y-028570
X029180Y-009570
X029180Y-014320
X029780Y-028570
X030180Y-009570
X030180Y-014320
X030780Y-028570
X031180Y-009570
X031780Y-028570
X032030Y-011170
X032030Y-012170
X032030Y-013170
X032780Y-009570
X032780Y-028570
X033030Y-011170
X033030Y-012170
X033030Y-013170
X033780Y-009570
X034030Y-011170
X034030Y-012170
X034030Y-013170
X034780Y-009570
X034780Y-028570
X035030Y-011170
X035030Y-012170
X035030Y-013170
X035126Y-016674
X035126Y-021166
X035780Y-009570
X035780Y-028570
X035834Y-015966
X035834Y-021874
X036030Y-011170
X036030Y-012170
X036030Y-013170
X036780Y-009570
X036780Y-028570
X037030Y-011170
X037030Y-012170
X037030Y-013170
X037780Y-009570
X037780Y-028570
X038030Y-011170
X038030Y-012170
X038030Y-013170
X038780Y-028570
X039030Y-011170
X039030Y-012170
X039030Y-013170
X039380Y-024920
X039380Y-025920
X039380Y-026920
X039780Y-028570
X040030Y-011170
X040030Y-012170
X040030Y-013170
X040326Y-015966
X040326Y-021874
X040380Y-024920
X040380Y-025920
X040380Y-026920
X040780Y-028570
X041034Y-016674
X041034Y-021166
X041380Y-024920
X041380Y-025920
X041380Y-026920
X041780Y-009570
X041780Y-028570
X042380Y-024920
X042380Y-025920
X042380Y-026920
X042780Y-009570
X043780Y-009570
X043780Y-028570
X044480Y-026920
X044780Y-009570
X044780Y-028570
X045480Y-026920
X045780Y-009570
X045780Y-028570
X046280Y-011770
X046480Y-026920
X046780Y-009570
X046780Y-028570
X047280Y-011770
X047480Y-026920
X047780Y-009570
X047780Y-028570
X048280Y-011770
X048780Y-009570
X048780Y-028570
X049280Y-011770
X049480Y-025220
X049480Y-026220
X049480Y-027220
X049780Y-028570
X050480Y-026220
X050480Y-027220
X050780Y-028570
T9
X025830Y-024420
X026480Y-025970
X027180Y-024420
X027880Y-025970
X028530Y-024420
T10
X025830Y-022720
X028830Y-022720
T11
X022430Y-017970
X022430Y-019970
T12
X038080Y-018920
T0
M30
